<?xml version="1.0" standalone="no"?>
<!DOCTYPE svg PUBLIC "-//W3C//DTD SVG 1.1//EN" "http://www.w3.org/Graphics/SVG/1.1/DTD/svg11.dtd" >
<svg xmlns="http://www.w3.org/2000/svg" xmlns:xlink="http://www.w3.org/1999/xlink" version="1.1">
<metadata>
Created by FontForge 20170731 at Tue May  2 20:44:10 2017
 By Aleksey,,,
Copyright (C)2016 Commercial Type.
</metadata>
<defs>
<font id="Canela-Medium" horiz-adv-x="345" >
  <font-face 
    font-family="Canela Medium"
    font-weight="500"
    font-stretch="normal"
    units-per-em="1000"
    panose-1="0 0 0 0 0 0 0 0 0 0"
    ascent="775"
    descent="-225"
    x-height="482"
    cap-height="732"
    bbox="-137 -260 1178 1142"
    underline-thickness="20"
    underline-position="-120"
    unicode-range="U+0020-FB04"
  />
<missing-glyph horiz-adv-x="161" 
 />
    <glyph glyph-name="f_b" unicode="fb" horiz-adv-x="889" 
d="M601 -15q-100 0 -165 50l-56 -42h-6v596q0 74 -26.5 122.5t-60.5 48.5q-32 0 -53 -47t-21 -128v-103h116v-20h-116v-315q0 -93 26 -145v-2h-181v2q27 48 27 145v315h-63v20h63v47q0 112 64 180.5t158 68.5q62 0 110 -26l84 26v-363h3q64 82 162 82q88 0 141 -69t53 -180
q0 -115 -67 -189t-192 -74zM612 3q54 0 84.5 59.5t29.5 161.5q0 201 -132 201q-54 0 -93 -33v-219q0 -87 33.5 -128.5t77.5 -41.5z" />
    <glyph glyph-name="f_f_b" unicode="ffb" horiz-adv-x="1177" 
d="M890 -15q-99 0 -166 50l-55 -42h-7v596q0 74 -26 122.5t-60 48.5q-33 0 -54 -47t-21 -128v-103h117v-20h-117v-315q0 -94 27 -145v-2h-182v2q28 50 28 145v315h-161v-315q0 -93 26 -145v-2h-181v2q27 48 27 145v315h-63v20h63v33q0 109 59 176t144 67q37 0 69 -12
l11 -112l-6 -2q-57 86 -80 102q-9 6 -16 6q-21 0 -37 -46.5t-16 -122.5v-89h161v47q0 112 64 180.5t158 68.5q60 0 110 -26l84 26v-363h2q66 82 163 82q88 0 140.5 -69t52.5 -180q0 -115 -66.5 -189t-191.5 -74zM901 3q54 0 84 59.5t30 161.5q0 201 -132 201q-54 0 -93 -33
v-219q0 -87 33 -128.5t78 -41.5z" />
    <glyph glyph-name="f_f_h" unicode="ffh" horiz-adv-x="1166" 
d="M58 0v2q27 48 27 145v315h-63v20h63v33q0 109 59 176t144 67q37 0 69 -12l11 -112l-6 -2q-57 86 -80 102q-9 6 -16 6q-21 0 -37 -46.5t-16 -122.5v-89h161v47q0 112 64 180.5t158 68.5q61 0 111 -26l83 26v-375q69 94 164 94q67 0 106.5 -38.5t39.5 -103.5v-169
q0 -121 23 -184v-2h-174v2q23 66 23 183v153q0 40 -20 66t-61 26q-56 0 -101 -50v-232q0 -89 24 -146v-2h-175v2q23 54 23 145v442q0 74 -26 122.5t-60 48.5q-33 0 -54 -47t-21 -128v-103h117v-20h-117v-315q0 -94 27 -145v-2h-182v2q28 50 28 145v315h-161v-315
q0 -93 26 -145v-2h-181z" />
    <glyph glyph-name="f_f_j" unicode="ffj" horiz-adv-x="852" 
d="M783 22q0 -110 -54 -168.5t-142 -68.5l-2 6q74 43 74 156v366q0 103 -40 149h-118v-315q0 -94 27 -145v-2h-182v2q28 50 28 145v315h-161v-315q0 -93 26 -145v-2h-181v2q27 48 27 145v315h-63v20h63v33q0 109 59 176t144 67q37 0 69 -12l11 -112l-6 -2q-57 86 -80 102
q-9 6 -16 6q-21 0 -37 -46.5t-16 -122.5v-89h161v47q0 112 64.5 180.5t160.5 68.5q57 0 114 -19l12 -160l-6 -2q-96 163 -149 163q-28 0 -48.5 -47.5t-20.5 -127.5v-103h131q93 0 155 20z" />
    <glyph glyph-name="f_f_k" unicode="ffk" horiz-adv-x="1115" 
d="M1119 0h-164l-161 251l117 118q28 26 33.5 59.5t-8.5 51.5v2h151v-2q-30 -13 -59.5 -34t-45 -35.5t-45.5 -44.5l-44 -45l143 -222q19 -29 27.5 -41t23.5 -28.5t32 -27.5v-2zM58 0v2q27 48 27 145v315h-63v20h63v33q0 109 59 176t144 67q37 0 69 -12l11 -112l-6 -2
q-57 86 -80 102q-9 6 -16 6q-21 0 -37 -46.5t-16 -122.5v-89h161v47q0 112 64 180.5t158 68.5q61 0 111 -26l83 26v-630q0 -89 24 -146v-2h-175v2q23 54 23 145v442q0 74 -26 122.5t-60 48.5q-33 0 -54 -47t-21 -128v-103h117v-20h-117v-315q0 -94 27 -145v-2h-182v2
q28 50 28 145v315h-161v-315q0 -93 26 -145v-2h-181z" />
    <glyph glyph-name="f_h" unicode="fh" horiz-adv-x="877" 
d="M239 0h-181v2q27 48 27 145v315h-63v20h63v47q0 112 64 180.5t158 68.5q61 0 111 -26l83 26v-375q71 94 165 94q67 0 106 -38.5t39 -103.5v-169q0 -118 23 -184v-2h-174v2q24 69 24 183v153q0 40 -20.5 66t-61.5 26q-55 0 -101 -50v-232q0 -89 24 -146v-2h-174v2
q23 58 23 145v442q0 74 -26.5 122.5t-60.5 48.5q-32 0 -53 -47t-21 -128v-103h116v-20h-116v-315q0 -93 26 -145v-2z" />
    <glyph glyph-name="f_j" unicode="fj" horiz-adv-x="561" 
d="M495 22q-1 -110 -54.5 -168.5t-141.5 -68.5l-2 6q74 43 74 156v366q0 104 -41 149h-117v-315q0 -93 26 -145v-2h-181v2q27 48 27 145v315h-63v20h63v47q0 112 65 180.5t161 68.5q56 0 113 -19l12 -160l-6 -2q-93 163 -148 163q-29 0 -49 -47.5t-20 -127.5v-103h130
q95 0 155 20z" />
    <glyph glyph-name="f_k" unicode="fk" horiz-adv-x="827" 
d="M239 0h-181v2q27 48 27 145v315h-63v20h63v47q0 112 64 180.5t158 68.5q61 0 111 -26l83 26v-630q0 -89 24 -146v-2h-174v2q23 58 23 145v442q0 74 -26.5 122.5t-60.5 48.5q-32 0 -53 -47t-21 -128v-103h116v-20h-116v-315q0 -93 26 -145v-2zM831 0h-165l-160 251
l117 118q27 26 32.5 59.5t-8.5 51.5v2h151v-2q-30 -13 -59.5 -34t-45 -35.5t-45.5 -44.5l-43 -45l143 -222q19 -29 27.5 -41t23.5 -28.5t32 -27.5v-2z" />
    <glyph glyph-name="f_t" unicode="ft" horiz-adv-x="652" 
d="M635 55q-47 -70 -139 -70q-125 0 -125 129v348h-158v-315q0 -93 26 -145v-2h-181v2q27 48 27 145v315h-63v20h63v47q0 112 64.5 180.5t159.5 68.5q43 0 81 -12l12 -119l-6 -2q-1 2 -12.5 19t-15.5 23t-14.5 20.5t-17.5 21t-16.5 15.5t-18.5 12.5t-18 3.5q-30 0 -50 -47
t-20 -128v-103h112l163 111h11v-111h124v-20h-124v-344q0 -77 72 -77q16 0 31 4t22.5 8t7.5 5z" />
    <glyph glyph-name="f_f_t" unicode="fft" horiz-adv-x="940" 
d="M923 55q-45 -70 -139 -70q-125 0 -125 129v348h-158v-315q0 -94 27 -145v-2h-182v2q28 50 28 145v315h-161v-315q0 -93 26 -145v-2h-181v2q27 48 27 145v315h-63v20h63v33q0 109 59 176t144 67q37 0 69 -12l11 -112l-6 -2q-57 86 -80 102q-9 6 -16 6q-21 0 -37 -46.5
t-16 -122.5v-89h161v47q0 112 64.5 180.5t159.5 68.5q42 0 80 -12l13 -119l-6 -2q-1 2 -12.5 19t-15.5 23t-14.5 20.5t-17.5 21t-16.5 15.5t-18.5 12.5t-18 3.5q-30 0 -50.5 -47.5t-20.5 -127.5v-103h112l164 111h11v-111h124v-20h-124v-344q0 -77 72 -77q15 0 30.5 4t23 8
t7.5 5z" />
    <glyph glyph-name="f_f" unicode="ff" horiz-adv-x="627" 
d="M58 0v2q27 48 27 145v315h-63v20h63v33q0 109 59 176t144 67q37 0 69 -12l11 -112l-6 -2q-57 86 -80 102q-9 6 -16 6q-21 0 -37 -46.5t-16 -122.5v-89h161v47q0 112 64.5 180.5t159.5 68.5q42 0 80 -12l13 -119l-6 -2q-1 2 -12.5 19t-15.5 23t-14.5 20.5t-17.5 21
t-16.5 15.5t-18.5 12.5t-18 3.5q-30 0 -50.5 -47.5t-20.5 -127.5v-103h117v-20h-117v-315q0 -94 27 -145v-2h-182v2q28 50 28 145v315h-161v-315q0 -93 26 -145v-2h-181z" />
    <glyph glyph-name="f_i" unicode="fi" horiz-adv-x="563" 
d="M239 0h-181v2q27 48 27 145v315h-63v20h63v47q0 112 65 180.5t161 68.5q56 0 113 -19l12 -160l-6 -2q-93 163 -148 163q-29 0 -49 -47.5t-20 -127.5v-103h130q95 0 155 20v-316q0 -118 23 -184v-2h-174v2q24 89 24 184v127q0 104 -41 149h-117v-315q0 -93 26 -145v-2z
" />
    <glyph glyph-name="f_l" unicode="fl" horiz-adv-x="566" 
d="M239 2v-2h-181v2q27 48 27 145v315h-63v20h63v47q0 112 64 180.5t158 68.5q61 0 111 -26l83 26v-630q0 -89 24 -146v-2h-174v2q23 58 23 145v442q0 74 -26.5 122.5t-60.5 48.5q-32 0 -53 -47t-21 -128v-103h116v-20h-116v-315q0 -93 26 -145z" />
    <glyph glyph-name="f_f_i" unicode="ffi" horiz-adv-x="852" 
d="M239 0h-181v2q27 48 27 145v315h-63v20h63v33q0 109 59 176t144 67q37 0 69 -12l11 -112l-6 -2q-57 86 -80 102q-9 6 -16 6q-21 0 -37 -46.5t-16 -122.5v-89h161v47q0 112 64.5 180.5t160.5 68.5q57 0 114 -19l12 -160l-6 -2q-96 163 -149 163q-28 0 -48.5 -47.5
t-20.5 -127.5v-103h131q93 0 155 20v-316q0 -118 23 -184v-2h-174v2q23 85 23 184v127q0 103 -40 149h-118v-315q0 -94 27 -145v-2h-182v2q28 50 28 145v315h-161v-315q0 -93 26 -145v-2z" />
    <glyph glyph-name="f_f_l" unicode="ffl" horiz-adv-x="855" 
d="M58 0v2q27 48 27 145v315h-63v20h63v33q0 109 59 176t144 67q37 0 69 -12l11 -112l-6 -2q-57 86 -80 102q-9 6 -16 6q-21 0 -37 -46.5t-16 -122.5v-89h161v47q0 112 64 180.5t158 68.5q61 0 111 -26l83 26v-630q0 -89 24 -146v-2h-175v2q23 54 23 145v442q0 74 -26 122.5
t-60 48.5q-33 0 -54 -47t-21 -128v-103h117v-20h-117v-315q0 -94 27 -145v-2h-182v2q28 50 28 145v315h-161v-315q0 -93 26 -145v-2h-181z" />
    <glyph glyph-name=".notdef" horiz-adv-x="161" 
 />
    <glyph glyph-name=".null" horiz-adv-x="0" 
 />
    <glyph glyph-name="nonmarkingreturn" horiz-adv-x="333" 
 />
    <glyph glyph-name="space" unicode=" " horiz-adv-x="169" 
 />
    <glyph glyph-name="exclam" unicode="!" horiz-adv-x="237" 
d="M188 732v-2l-61 -490h-17l-61 490v2h139zM119 -5q-32 0 -54 22.5t-22 53.5q0 32 22 54.5t54 22.5t54 -22.5t22 -54.5q0 -31 -22.5 -53.5t-53.5 -22.5z" />
    <glyph glyph-name="quotedbl" unicode="&#x22;" horiz-adv-x="330" 
d="M85 499l-57 233h124l-57 -233h-10zM235 499l-57 233h124l-57 -233h-10z" />
    <glyph glyph-name="numbersign" unicode="#" horiz-adv-x="595" 
d="M371 252l42 228h-186l-42 -228h186zM324 0l43 230h-186l-43 -230h-27l43 230h-137v22h141l42 228h-137v22h141l43 230h27l-43 -230h186l43 230h27l-43 -230h139v-22h-143l-42 -228h139v-22h-143l-43 -230h-27z" />
    <glyph glyph-name="dollar" unicode="$" horiz-adv-x="568" 
d="M299 -114h-26v99h-4q-110 0 -212 42l-23 193l10 3q59 -104 113.5 -156t115.5 -60v300q-6 1 -11 5q-33 17 -51.5 26.5t-47 27.5t-44.5 34.5t-32.5 38.5t-24 49.5t-7.5 59.5q0 93 61 142t157 56v76h26v-75h7q82 0 161 -27l23 -185l-10 -3q-86 166 -181 190v-254l37 -18
q46 -23 74.5 -40.5t61.5 -47t49 -69.5t16 -90q0 -104 -66 -157.5t-172 -59.5v-100zM426 134q0 54 -33 90.5t-94 68.5v-287q60 1 93.5 37.5t33.5 90.5zM159 620q0 -46 29.5 -78t84.5 -61v245h-7q-48 0 -77.5 -29t-29.5 -77z" />
    <glyph glyph-name="percent" unicode="%" horiz-adv-x="796" 
d="M202 337q-73 0 -124.5 59.5t-51.5 146.5t51.5 145.5t124.5 58.5t126.5 -59t53.5 -145t-53.5 -146t-126.5 -60zM202 354q68 0 68 189q0 188 -68 188q-36 0 -49.5 -48.5t-13.5 -139.5t13.5 -140t49.5 -49zM589 -8q-72 0 -123.5 59.5t-51.5 146.5t51 145.5t124 58.5t127 -59
t54 -145t-54 -146t-127 -60zM589 9q68 0 68 189q0 188 -68 188q-36 0 -49.5 -49t-13.5 -139t13.5 -139.5t49.5 -49.5zM152 1l-19 15l521 727l19 -13z" />
    <glyph glyph-name="ampersand" unicode="&#x26;" horiz-adv-x="775" 
d="M600 -15q-82 0 -160 71q-78 -71 -188 -71q-107 0 -160.5 55.5t-53.5 134.5q0 70 41.5 124.5t113.5 84.5q-66 98 -66 174q0 84 52.5 136.5t133.5 52.5q73 0 112 -41.5t39 -99.5q0 -109 -138 -180q68 -92 71 -96q78 -115 116 -156q58 94 58 178q0 32 -11.5 52t-42.5 31v6
h217v-6q-52 -16 -79 -45q-28 -29 -56 -92q-50 -105 -72 -138q69 -71 142 -71q70 0 95 50l4 -3q-14 -67 -56.5 -109t-111.5 -42zM224 619q0 -31 13.5 -62t27 -50t54.5 -72q84 60 84 162q0 54 -23.5 92t-68.5 38q-37 0 -62 -28t-25 -80zM324 45q55 0 99 27q-50 51 -148 198
q-11 15 -35.5 49t-35.5 50q-51 -46 -51 -137q0 -83 44 -135t127 -52z" />
    <glyph glyph-name="quotesingle" unicode="'" horiz-adv-x="180" 
d="M85 499l-57 233h124l-57 -233h-10z" />
    <glyph glyph-name="parenleft" unicode="(" horiz-adv-x="348" 
d="M311 -121l-8 -9q-109 75 -170 189t-61 253t61.5 253.5t169.5 189.5l8 -9q-120 -165 -120 -434q0 -266 120 -433z" />
    <glyph glyph-name="parenright" unicode=")" horiz-adv-x="348" 
d="M45 -130l-8 9q120 167 120 433q0 269 -120 434l8 9q108 -75 169.5 -189.5t61.5 -253.5t-61 -253t-170 -189z" />
    <glyph glyph-name="asterisk" unicode="*" horiz-adv-x="389" 
d="M245 431l-51 131l-51 -131l-76 54l110 90l-141 8l28 88l119 -76l-36 137h94l-37 -137l120 76l29 -88l-143 -8l111 -90z" />
    <glyph glyph-name="plus" unicode="+" horiz-adv-x="532" 
d="M487 296h-208v-208h-26v208h-208v24h208v208h26v-208h208v-24z" />
    <glyph glyph-name="comma" unicode="," horiz-adv-x="258" 
d="M38 -140l-5 8q69 56 69 114q0 30 -59 91v3l108 79q25 -16 41.5 -43t16.5 -54q0 -58 -52 -113t-119 -85z" />
    <glyph glyph-name="hyphen" unicode="-" horiz-adv-x="275" 
d="M248 249h-221v68h221v-68z" />
    <glyph glyph-name="period" unicode="." horiz-adv-x="253" 
d="M127 -5q-31 0 -53 22t-22 53t22 53t53 22q30 0 52 -22t22 -53t-22 -53t-52 -22z" />
    <glyph glyph-name="slash" unicode="/" horiz-adv-x="392" 
d="M-24 -130l377 912h29l-377 -912h-29z" />
    <glyph glyph-name="zero" unicode="0" horiz-adv-x="694" 
d="M345 -15q-129 0 -219.5 110t-90.5 271q0 162 90 271.5t220 109.5q131 0 222.5 -109.5t91.5 -271.5q0 -161 -92 -271t-222 -110zM345 6q158 0 158 360t-158 360q-154 0 -154 -360t154 -360z" />
    <glyph glyph-name="one" unicode="1" horiz-adv-x="364" 
d="M315 0h-245v2q30 39 40 69.5t10 84.5v421h-88v10q126 60 221 158h12v-589q0 -54 9.5 -84t40.5 -70v-2z" />
    <glyph glyph-name="two" unicode="2" horiz-adv-x="541" 
d="M455 0h-451v14q193 177 269.5 297t76.5 236q0 84 -30 131.5t-85 47.5q-52 0 -96.5 -49t-90.5 -142l-10 3l26 177q82 32 175 32q128 0 192 -54t64 -143q0 -101 -87.5 -201t-274.5 -232h187q112 0 190 91l8 -2z" />
    <glyph glyph-name="three" unicode="3" horiz-adv-x="565" 
d="M249 -15q-122 0 -196 44l-24 167l10 2q63 -103 106 -147.5t103 -44.5q70 0 107 60.5t37 157.5q0 202 -153 202q-69 0 -130 -43l-9 13l265 220h-310l50 116h423v-10l-340 -282q37 13 87 13q106 0 183.5 -59.5t77.5 -169.5q0 -108 -79 -173.5t-208 -65.5z" />
    <glyph glyph-name="four" unicode="4" horiz-adv-x="583" 
d="M279 0v2q24 39 32 69.5t8 84.5v34h-317v13l326 529h166l-463 -517h288v221h146v-221h92l-8 -25h-84v-34q0 -54 7.5 -84.5t32.5 -69.5v-2h-226z" />
    <glyph glyph-name="five" unicode="5" horiz-adv-x="539" 
d="M226 -15q-106 0 -177 44l-25 167l10 2q54 -96 97.5 -144t97.5 -48q63 0 101.5 59t38.5 161q0 211 -168 211q-68 0 -127 -38l-8 4l55 329h376l-22 -116h-350l-32 -190q62 37 144 37q112 0 191.5 -59.5t79.5 -172.5q0 -115 -82.5 -180.5t-199.5 -65.5z" />
    <glyph glyph-name="six" unicode="6" horiz-adv-x="606" 
d="M308 -15q-122 0 -198 85.5t-76 210.5q0 51 12.5 102t44 106t78 102t120.5 88.5t167 67.5l4 -11q-111 -45 -175.5 -135.5t-89.5 -203.5q43 89 151 89q99 0 166 -64.5t67 -172.5q0 -116 -78.5 -190t-192.5 -74zM311 6q58 0 90.5 58.5t32.5 167.5q0 208 -127 208
q-87 0 -118 -76q-9 -56 -9 -108q0 -107 32.5 -178.5t98.5 -71.5z" />
    <glyph glyph-name="seven" unicode="7" horiz-adv-x="515" 
d="M222 0h-140q87 298 342 609h-398l28 123h465v-10q-237 -369 -297 -722z" />
    <glyph glyph-name="eight" unicode="8" horiz-adv-x="577" 
d="M282 -15q-111 0 -184.5 52t-73.5 140q0 128 163 178q-128 71 -128 190q0 89 65 145.5t168 56.5q96 0 161 -48t65 -123q0 -49 -32.5 -91.5t-107.5 -65.5q175 -90 175 -224q0 -94 -77.5 -152t-193.5 -58zM283 6q67 0 107.5 37.5t40.5 99.5q0 64 -47.5 103t-169.5 95l-7 3
q-81 -59 -81 -165q0 -79 41.5 -126t115.5 -47zM353 431l4 -2q58 53 58 147q0 71 -31.5 110.5t-89.5 39.5q-56 0 -88 -33.5t-32 -85.5q0 -55 41.5 -94t137.5 -82z" />
    <glyph glyph-name="nine" unicode="9" horiz-adv-x="606" 
d="M150 -15l-3 11q108 46 173.5 136t90.5 202q-44 -88 -155 -88q-96 0 -162.5 64.5t-66.5 172.5q0 117 78.5 190.5t193.5 73.5q121 0 197 -85t76 -211q0 -51 -12.5 -102t-44 -105.5t-78 -102t-120.5 -89t-167 -67.5zM300 292q83 0 117 74q10 54 10 111q0 68 -13 122.5
t-43.5 90.5t-74.5 36q-58 0 -91 -58.5t-33 -166.5q0 -209 128 -209z" />
    <glyph glyph-name="colon" unicode=":" horiz-adv-x="253" 
d="M127 314q-31 0 -53 22t-22 53t22 53t53 22q30 0 52 -22t22 -53t-22 -53t-52 -22zM127 -5q-31 0 -53 22t-22 53t22 53t53 22q30 0 52 -22t22 -53t-22 -53t-52 -22z" />
    <glyph glyph-name="semicolon" unicode=";" horiz-adv-x="260" 
d="M38 -140l-5 8q69 56 69 114q0 30 -59 91v3l108 79q25 -16 41.5 -43t16.5 -54q0 -58 -52 -113t-119 -85zM130 314q-31 0 -53 22t-22 53t22 53t53 22q30 0 52 -22t22 -53t-22 -53t-52 -22z" />
    <glyph glyph-name="less" unicode="&#x3c;" horiz-adv-x="530" 
d="M475 85l-430 208v26l430 208v-27l-405 -194l405 -194v-27z" />
    <glyph glyph-name="equal" unicode="=" horiz-adv-x="532" 
d="M487 377h-442v23h442v-23zM487 236h-442v23h442v-23z" />
    <glyph glyph-name="greater" unicode="&#x3e;" horiz-adv-x="530" 
d="M485 293l-430 -208v27l405 194l-405 194v27l430 -208v-26z" />
    <glyph glyph-name="question" unicode="?" horiz-adv-x="430" 
d="M141 240h-16q6 47 30.5 88.5t49.5 69t45.5 76t20.5 109.5q0 68 -24 106.5t-66 38.5q-39 0 -70 -36t-70 -109l-7 2l20 137q64 25 142 25q104 0 159.5 -40t55.5 -120q0 -51 -23 -91.5t-58.5 -69t-72 -54t-70 -59.5t-46.5 -73zM142 -5q-32 0 -54 22.5t-22 53.5q0 32 22 54.5
t54 22.5t54 -22.5t22 -54.5q0 -31 -22.5 -53.5t-53.5 -22.5z" />
    <glyph glyph-name="at" unicode="@" horiz-adv-x="883" 
d="M434 -173q-177 0 -292 99.5t-115 270.5q0 187 135.5 319t337.5 132q162 0 259 -86.5t97 -235.5q0 -127 -68.5 -213.5t-173.5 -86.5q-80 0 -110 51.5t-18 116.5q-71 -174 -161 -174q-41 0 -65.5 34.5t-24.5 94.5q0 73 32 144t99 121.5t153 50.5q52 0 86 -14l50 14h7
l-67 -254q-43 -160 45 -160q68 0 115.5 84t47.5 196q0 141 -83.5 219t-223.5 78q-121 0 -214 -62t-140 -159.5t-47 -211.5q0 -162 94 -255t249 -93q134 0 222 62l10 -16q-95 -66 -236 -66zM382 102q52 0 119 179l38 143q-8 22 -35 22q-61 0 -107 -93t-46 -184q0 -67 31 -67z
" />
    <glyph glyph-name="A" unicode="A" horiz-adv-x="667" 
d="M383 298l-108 292l-108 -292h216zM158 2v-2h-158v2q32 32 54 72.5t47 106.5l207 557h56l211 -565q44 -117 92 -171v-2h-244v2q44 65 2 182l-34 92h-232l-20 -53q-55 -147 19 -221z" />
    <glyph glyph-name="B" unicode="B" horiz-adv-x="648" 
d="M341 0h-295v2q24 50 32 88.5t8 104.5v342q0 66 -8 104t-32 89v2q57 0 162 1.5t128 1.5q254 1 254 -170q0 -136 -144 -179q93 -16 136.5 -66t43.5 -120q0 -92 -70 -146t-215 -54zM230 392h90q69 1 101 49t32 115q0 73 -37.5 115.5t-111.5 42.5q-42 0 -74 -8v-314zM307 20
q83 0 126 48.5t43 130.5q0 78 -36.5 124.5t-112.5 46.5h-97v-341q38 -9 77 -9z" />
    <glyph glyph-name="C" unicode="C" horiz-adv-x="759" 
d="M714 248l-20 -190q-30 -21 -105 -47t-166 -26q-173 0 -283.5 107.5t-110.5 269.5q0 163 116 274t292 111q124 0 253 -43l20 -173l-9 -3q-80 111 -137.5 154.5t-135.5 43.5q-64 0 -111.5 -26.5t-75.5 -76.5t-41 -114.5t-13 -146.5q0 -165 60 -260.5t177 -95.5
q48 0 88 16.5t74 52t60 75.5t59 101z" />
    <glyph glyph-name="D" unicode="D" horiz-adv-x="776" 
d="M46 0v2q24 46 32 80.5t8 93.5v380q0 59 -8 93.5t-32 80.5v2q56 0 135 2t148 2q196 0 306.5 -95.5t110.5 -271.5q0 -177 -108.5 -273t-308.5 -96h-283zM323 714q-19 0 -93 -2v-690h96q144 2 203.5 83.5t59.5 249.5q0 185 -64 272.5t-202 86.5z" />
    <glyph glyph-name="E" unicode="E" horiz-adv-x="640" 
d="M625 213l-47 -213h-532v2q22 55 30.5 92.5t8.5 91.5v360q0 55 -8.5 92.5t-30.5 91.5v2h488l38 -185l-9 -3q-8 8 -54.5 60.5t-76 77t-51.5 25.5l-151 8v-332h74q18 0 38 12t32 23t35 36.5t28 30.5h9v-226h-9q-8 8 -28 30t-33.5 35t-33.5 25t-38 12h-74v-344l163 7
q85 4 223 192z" />
    <glyph glyph-name="F" unicode="F" horiz-adv-x="604" 
d="M270 2v-2h-224v2q24 50 32 88.5t8 104.5v342q0 66 -8 104t-32 89v2h509l38 -185l-10 -2q-7 7 -54 60t-76.5 77.5t-51.5 25.5l-171 8v-327h88q18 0 38 12t32 23.5t34.5 36.5t28.5 31h9v-227h-9q-7 7 -28 30t-34 35.5t-33 24.5t-38 12h-88v-172q0 -66 8 -104.5t32 -88.5z
" />
    <glyph glyph-name="G" unicode="G" horiz-adv-x="794" 
d="M727 94q-74 -55 -132 -78q-80 -31 -173 -31q-177 0 -285 106.5t-108 270.5q0 166 113 275.5t305 109.5q104 0 251 -43l20 -173l-10 -3q-77 108 -137 153t-136 45q-125 0 -186.5 -99.5t-61.5 -264.5q0 -166 58 -261t178 -95q77 0 124.5 40t48.5 116q1 55 -10.5 90.5
t-40.5 80.5v2h222v-2q-24 -50 -32 -88t-8 -105v-46z" />
    <glyph glyph-name="H" unicode="H" horiz-adv-x="781" 
d="M46 0v2q24 50 32 88.5t8 104.5v342q0 66 -8 104t-32 89v2h224v-2q-24 -50 -32 -88.5t-8 -103.5v-152h321v151q0 66 -8.5 104.5t-32.5 88.5v2h225v-2q-23 -51 -31.5 -89.5t-8.5 -102.5v-343q0 -65 8.5 -103.5t31.5 -89.5v-2h-225v2q24 50 32.5 88.5t8.5 104.5v170h-321
v-170q0 -66 8 -104.5t32 -88.5v-2h-224z" />
    <glyph glyph-name="I" unicode="I" horiz-adv-x="316" 
d="M46 0v2q24 51 32 89t8 104v342q0 66 -8 104t-32 89v2h224v-2q-24 -50 -32 -88.5t-8 -103.5v-343q0 -66 8 -104.5t32 -88.5v-2h-224z" />
    <glyph glyph-name="J" unicode="J" horiz-adv-x="441" 
d="M364 170q0 -87 -54.5 -136t-146.5 -49q-63 0 -123 23l-20 181l9 3q9 -16 22.5 -38.5t20.5 -35t17.5 -29.5t16.5 -25.5t14 -20t13.5 -17t12 -11t12.5 -7.5t12 -2q23 0 37 27.5t14 75.5v428q0 65 -8.5 103t-31.5 90v2h223v-2q-23 -51 -31.5 -89.5t-8.5 -102.5v-368z" />
    <glyph glyph-name="K" unicode="K" horiz-adv-x="690" 
d="M46 0v2q24 50 32 88.5t8 104.5v342q0 66 -8 104t-32 89v2h224v-2q-24 -50 -32 -88.5t-8 -103.5v-343q0 -66 8 -104.5t32 -88.5v-2h-224zM701 0h-206l-255 361l184 205q93 104 48 164v2h195v-2q-111 -52 -206 -157l-108 -120l222 -313q65 -96 125 -138z" />
    <glyph glyph-name="L" unicode="L" horiz-adv-x="603" 
d="M546 0h-500v2q24 50 32 88.5t8 104.5v342q0 66 -8 104t-32 89v2h224v-2q-24 -50 -32 -88.5t-8 -103.5v-520l134 6q52 3 112 60.5t108 131.5l9 -3z" />
    <glyph glyph-name="M" unicode="M" horiz-adv-x="900" 
d="M189 0h-168v2q39 56 52 96t13 109v376q-3 48 -18 78t-53 69v2h204l238 -536l230 536h198v-2q-42 -43 -56.5 -77.5t-14.5 -97.5v-360q0 -65 8.5 -103.5t31.5 -89.5v-2h-224v2q24 50 32 88.5t8 104.5v433l-262 -606h-25l-274 609l3 -424q1 -68 16.5 -109t60.5 -96v-2z" />
    <glyph glyph-name="N" unicode="N" horiz-adv-x="707" 
d="M583 -3l-474 619l3 -409q1 -68 16 -109t57 -96v-2h-166v2q40 56 53.5 96.5t13.5 108.5v376q-3 49 -19 79t-57 68v2h189l396 -522l-2 314q-1 69 -14.5 109.5t-52.5 96.5v2h158v-2q-39 -57 -52.5 -97t-13.5 -108v-525z" />
    <glyph glyph-name="O" unicode="O" horiz-adv-x="823" 
d="M411 -15q-100 0 -188 50t-141 138t-53 192q0 158 114.5 270t267.5 112q100 0 188 -50.5t141.5 -139t53.5 -192.5t-53.5 -192t-141.5 -138t-188 -50zM411 6q113 0 169 97.5t56 261.5t-56 262.5t-169 98.5q-76 0 -127.5 -48t-74 -127.5t-22.5 -185.5q0 -163 55.5 -261
t168.5 -98z" />
    <glyph glyph-name="P" unicode="P" horiz-adv-x="606" 
d="M46 0v2q24 50 32 88.5t8 104.5v342q0 66 -8 104t-32 89v2h262q288 0 288 -201q0 -103 -77.5 -167t-228.5 -64h-60v-105q0 -67 8 -105t32 -88v-2h-224zM279 711q-5 0 -49 -2v-387h47q88 0 130.5 61t42.5 147q0 92 -45 136.5t-126 44.5z" />
    <glyph glyph-name="Q" unicode="Q" horiz-adv-x="823" 
d="M676 -176q-52 0 -99 13.5t-77 32t-57 44t-38.5 40.5t-22.5 32q-145 11 -249 120t-104 259q0 158 114.5 270t267.5 112q100 0 188 -50.5t141.5 -139t53.5 -192.5q0 -155 -111.5 -265t-262.5 -114q49 -27 109.5 -40t118.5 -12t103 6.5t86 15.5l-51 -110q-41 -22 -110 -22z
M411 6q113 0 169 97.5t56 261.5t-56 262.5t-169 98.5q-76 0 -127.5 -48t-74 -127.5t-22.5 -185.5q0 -163 55.5 -261t168.5 -98z" />
    <glyph glyph-name="R" unicode="R" horiz-adv-x="681" 
d="M296 711q-37 0 -66 -1v-342h67q151 0 151 186q0 157 -152 157zM46 0v2q24 50 32 88.5t8 104.5v342q0 66 -8 104t-32 89v2h281q268 0 268 -177q0 -136 -140 -186l116 -231q30 -60 52 -86t61 -46v-6h-205l-173 347h-76v-152q0 -66 8 -104.5t32 -88.5v-2h-224z" />
    <glyph glyph-name="S" unicode="S" horiz-adv-x="567" 
d="M467 720l23 -185l-10 -3q-100 194 -214 194q-48 0 -77.5 -29t-29.5 -77q0 -29 10 -52t41.5 -46t45 -30.5t63.5 -32.5q11 -6 17 -9q46 -23 74.5 -40.5t61.5 -47t49 -69.5t16 -90q0 -111 -75 -164.5t-193 -53.5q-110 0 -212 42l-23 193l10 3q65 -114 125 -165.5t128 -51.5
q61 0 95 36.5t34 91.5q0 62 -42 101t-122 77q-33 17 -51.5 26.5t-47 27.5t-44.5 34.5t-32.5 38.5t-24 49.5t-7.5 59.5q0 69 36.5 115.5t91 65t123.5 18.5q82 0 161 -27z" />
    <glyph glyph-name="T" unicode="T" horiz-adv-x="727" 
d="M476 2v-2h-225v2q24 51 32.5 89.5t8.5 103.5v519l-82 -4q-11 -1 -23.5 -8.5t-27 -22t-27 -29t-29 -37.5t-27 -37.5t-27.5 -39.5t-24 -35l-9 3l41 228h614l41 -228l-10 -3q-5 7 -18 26.5t-20.5 30.5t-21 30t-22.5 30.5t-21.5 27.5t-22.5 25.5t-21 19t-20.5 14t-17.5 5.5
l-81 4v-519q0 -66 8 -104.5t32 -88.5z" />
    <glyph glyph-name="U" unicode="U" horiz-adv-x="713" 
d="M370 -15q-128 0 -206.5 65.5t-78.5 201.5v285q0 66 -8 104t-32 89v2h225v-2q-22 -46 -31 -87t-9 -105v-289q0 -234 179 -234q68 0 113 35t62.5 88t17.5 123v263q0 70 -16 110.5t-62 95.5v2h177l4 -2q-46 -56 -61.5 -96.5t-15.5 -109.5v-259q0 -280 -258 -280z" />
    <glyph glyph-name="V" unicode="V" horiz-adv-x="672" 
d="M363 -6h-57l-213 565q-43 121 -93 171v2h256v-2q-51 -65 -8 -182l148 -398l134 358q29 85 22.5 138.5t-37.5 83.5v2h157v-2q-57 -58 -99 -177z" />
    <glyph glyph-name="W" unicode="W" horiz-adv-x="1027" 
d="M326 -6h-54l-182 565q-37 119 -86 171v2h253v-2q-47 -60 -9 -182l119 -379l139 367l-8 23q-23 68 -41.5 106t-45.5 65v2h253v-2q-21 -29 -24.5 -74.5t15.5 -107.5l126 -369l108 333q49 150 -19 218v2h153v-2q-57 -59 -98 -185l-178 -551h-54l-175 507z" />
    <glyph glyph-name="X" unicode="X" horiz-adv-x="709" 
d="M198 2v-2h-191v2q47 31 81.5 68t74.5 95l129 188l-132 227q-34 60 -61 94t-62 56v2h273v-2q-17 -19 -13.5 -59.5t27.5 -81.5l83 -141l63 97q28 42 36.5 77t2.5 58.5t-22 49.5v2h191v-2q-93 -59 -162 -163l-95 -144l158 -270q34 -60 61.5 -94.5t61.5 -56.5v-2h-273v2
q18 19 14 59t-28 82l-109 187l-97 -142q-9 -13 -15.5 -26t-11.5 -23.5t-6.5 -22.5t-3 -19t0 -18.5t2 -16.5t5 -16.5t5.5 -14.5t6.5 -15.5t6.5 -13.5z" />
    <glyph glyph-name="Y" unicode="Y" horiz-adv-x="628" 
d="M197 0v2q23 44 31.5 76t8.5 87v176l-132 238q-60 112 -113 151v2h269v-2q-22 -18 -23 -59t23 -89l113 -208l90 159q26 46 29.5 87.5t-6 66t-27.5 43.5v2h176v-2q-41 -35 -68.5 -72.5t-64.5 -102.5l-122 -213v-177q0 -55 8 -87.5t32 -75.5v-2h-224z" />
    <glyph glyph-name="Z" unicode="Z" horiz-adv-x="644" 
d="M577 0h-559v10l429 704l-129 -5q-143 -5 -265 -181l-8 3l49 201h524v-10l-428 -705l157 6q148 5 273 203l8 -3z" />
    <glyph glyph-name="bracketleft" unicode="[" horiz-adv-x="371" 
d="M81 -130v885h261v-21h-146v-843h146v-21h-261z" />
    <glyph glyph-name="backslash" unicode="\" horiz-adv-x="392" 
d="M416 -130h-29l-377 912h29z" />
    <glyph glyph-name="bracketright" unicode="]" horiz-adv-x="371" 
d="M290 755v-885h-261v21h146v843h-146v21h261z" />
    <glyph glyph-name="asciicircum" unicode="^" horiz-adv-x="412" 
d="M373 472l-167 159l-167 -159l-9 10l173 273h6l173 -273z" />
    <glyph glyph-name="underscore" unicode="_" horiz-adv-x="499" 
d="M465 -100h-430v22h430v-22z" />
    <glyph glyph-name="grave" unicode="`" 
d="M265 540l-9 -9l-211 136l83 82z" />
    <glyph glyph-name="a" unicode="a" horiz-adv-x="496" 
d="M211 54q37 0 64 20v157q-60 -14 -97 -43t-37 -70q0 -30 18.5 -47t51.5 -17zM372 -13q-40 0 -64 19t-30 51q-57 -72 -143 -72q-48 0 -78.5 23.5t-30.5 68.5q0 37 23 67.5t61.5 50.5t78.5 33t86 21v88q0 43 -21.5 64.5t-72.5 21.5q-73 0 -131 -37l-5 7q82 104 216 104
q73 0 107.5 -34t34.5 -91v-272q0 -44 41 -44q23 0 44 16l2 -3q-37 -82 -118 -82z" />
    <glyph glyph-name="b" unicode="b" horiz-adv-x="572" 
d="M285 -15q-99 0 -166 50l-56 -42h-6v586q0 88 -47 143v2l175 54v-363h2q66 82 163 82q88 0 140.5 -69t52.5 -180q0 -115 -66.5 -189t-191.5 -74zM295 3q54 0 84.5 59.5t30.5 161.5q-1 201 -132 201q-55 0 -93 -32v-220q0 -87 33 -128.5t77 -41.5z" />
    <glyph glyph-name="c" unicode="c" horiz-adv-x="480" 
d="M446 127l6 -4q-20 -64 -70.5 -101t-126.5 -37q-104 0 -167 67.5t-63 178.5q0 115 77 190.5t188 75.5q72 0 134 -25l13 -126l-9 -2q-34 56 -76 95t-77 39q-55 0 -89 -53t-34 -141q0 -99 46.5 -150t122.5 -51q84 0 125 44z" />
    <glyph glyph-name="d" unicode="d" horiz-adv-x="587" 
d="M283 59q63 0 103 47v264q-19 109 -98 109q-58 0 -92.5 -59.5t-34.5 -163.5q0 -95 31 -146t91 -51zM390 86h-2q-25 -44 -68.5 -72.5t-100.5 -28.5q-86 0 -138 65.5t-52 168.5q0 117 69.5 197.5t192.5 80.5q52 0 95 -15v96q0 90 -47 143v2l175 55v-566q0 -88 10.5 -123
t37.5 -62v-2l-172 -38v99z" />
    <glyph glyph-name="e" unicode="e" horiz-adv-x="490" 
d="M258 479q-47 0 -73.5 -47t-30.5 -120l184 4v23q0 140 -80 140zM465 138q-21 -69 -74.5 -111t-132.5 -42q-104 0 -168.5 70.5t-64.5 176.5q0 116 71 190.5t167 74.5q91 0 148 -63.5t54 -139.5l-311 1v-3q0 -108 45.5 -158.5t124.5 -50.5q86 0 135 58z" />
    <glyph glyph-name="f" unicode="f" horiz-adv-x="338" 
d="M58 0v2q27 48 27 145v315h-63v20h63v47q0 112 64.5 180.5t159.5 68.5q43 0 81 -12l12 -119l-6 -2q-1 2 -12.5 19t-15.5 23t-14.5 20.5t-17.5 21t-16.5 15.5t-18.5 12.5t-18 3.5q-30 0 -50 -47t-20 -128v-103h116v-20h-116v-315q0 -93 26 -145v-2h-181z" />
    <glyph glyph-name="g" unicode="g" horiz-adv-x="540" 
d="M244 171q78 0 78 153q0 155 -79 155q-76 0 -76 -155q0 -153 77 -153zM512 -64q-2 -72 -75.5 -117.5t-203.5 -45.5q-102 0 -164 28.5t-62 78.5q0 34 28 57t69 32q-67 26 -67 88q0 47 31 76.5t76 41.5q-47 22 -74.5 61.5t-27.5 87.5q0 74 57.5 123.5t143.5 49.5
q82 0 139 -46l132 79l2 -2v-100h-4l-113 8q47 -49 47 -112q0 -72 -58 -121.5t-144 -49.5q-46 0 -88 16q-32 -18 -32 -47q0 -25 23 -36.5t73 -13.5l95 -3q91 -4 144.5 -37.5t52.5 -95.5zM271 -196q79 0 122 22t43 58q0 33 -33.5 47.5t-100.5 16.5l-104 5q-46 2 -80 12
q-21 -23 -21 -58q0 -51 46.5 -77t127.5 -26z" />
    <glyph glyph-name="h" unicode="h" horiz-adv-x="570" 
d="M218 0h-174v2q22 71 22 184v393q0 88 -47 143v2l175 54v-375q70 94 164 94q67 0 106.5 -38.5t39.5 -103.5v-169q0 -121 23 -184v-2h-174v2q23 66 23 183v153q0 40 -20 66t-61 26q-56 0 -101 -50v-194q0 -118 24 -184v-2z" />
    <glyph glyph-name="i" unicode="i" horiz-adv-x="262" 
d="M197 657q0 -30 -21.5 -51t-51.5 -21t-51 21t-21 51q0 29 21 50.5t51 21.5t51.5 -21.5t21.5 -50.5zM46 0v2q24 89 24 184v113q0 88 -48 142v6l175 55v-316q0 -118 23 -184v-2h-174z" />
    <glyph glyph-name="j" unicode="j" horiz-adv-x="261" 
d="M195 657q0 -30 -21 -51t-52 -21q-29 0 -50 21t-21 51q0 29 21 50.5t50 21.5q30 0 51.5 -21.5t21.5 -50.5zM-4 -215l-2 6q74 43 74 156v358q0 82 -47 136v6l175 55l-4 -480q0 -110 -54 -168.5t-142 -68.5z" />
    <glyph glyph-name="k" unicode="k" horiz-adv-x="520" 
d="M44 0v2q23 58 23 145v432q0 89 -47 142v2l175 55v-630q0 -90 27 -146v-2h-178zM524 0h-165l-160 251l117 118q27 26 32.5 59.5t-8.5 51.5v2h151v-2q-30 -13 -59 -34t-45.5 -36t-45.5 -44l-43 -45l143 -222q19 -29 27.5 -41t23.5 -28.5t32 -27.5v-2z" />
    <glyph glyph-name="l" unicode="l" horiz-adv-x="259" 
d="M43 0v2q23 54 23 145v432q0 89 -47 142v2l175 55v-630q0 -89 24 -146v-2h-175z" />
    <glyph glyph-name="m" unicode="m" horiz-adv-x="833" 
d="M218 2v-2h-174v2q23 70 23 184v116q0 88 -47 143v2l171 55v-98l4 -1q59 94 157 94q53 0 85.5 -24.5t41.5 -69.5h2q60 94 158 94q62 0 96 -35.5t34 -98.5v-176q0 -122 23 -185v-2h-174v2q23 66 23 183v162q0 83 -66 83q-60 0 -94 -53v-190q0 -119 24 -185v-2h-174v2
q23 66 23 183v162q0 83 -67 83q-60 0 -92 -53v-191q0 -121 23 -184z" />
    <glyph glyph-name="n" unicode="n" horiz-adv-x="573" 
d="M221 2v-2h-174v2q23 70 23 184v116q0 88 -47 143v2l171 55v-98l4 -1q69 94 164 94q67 0 106 -38.5t39 -103.5v-168q0 -123 24 -185v-2h-175v2q23 66 23 183v153q0 41 -20 66.5t-61 25.5q-59 0 -100 -50v-194q0 -121 23 -184z" />
    <glyph glyph-name="o" unicode="o" horiz-adv-x="574" 
d="M287 -15q-107 0 -185 76t-77 179t78 180t184 77t184.5 -77t77.5 -180t-77.5 -179t-184.5 -76zM287 4q63 0 95 66t32 170t-32 170.5t-95 66.5t-94.5 -66.5t-31.5 -170.5q0 -105 31.5 -170.5t94.5 -65.5z" />
    <glyph glyph-name="p" unicode="p" horiz-adv-x="583" 
d="M304 3q54 0 85.5 59.5t31.5 161.5q0 201 -131 201q-55 0 -93 -32v-220q0 -88 31.5 -129t75.5 -41zM219 -225h-174v2q24 69 24 184v341q0 88 -47 143v2l171 55v-86l6 -1q64 82 164 82q87 0 139.5 -69t52.5 -180q0 -115 -65.5 -189t-188.5 -74q-55 0 -104 17v-41
q0 -120 22 -184v-2z" />
    <glyph glyph-name="q" unicode="q" horiz-adv-x="578" 
d="M363 -225v2q23 70 23 184v122q-25 -42 -68 -70t-99 -28q-86 0 -138 65.5t-52 168.5q0 117 69.5 197.5t196.5 80.5q104 0 164 -47l51 43h4v-532q0 -118 23 -184v-2h-174zM285 59q62 0 101 46v267q-10 55 -36.5 81t-62.5 26q-57 0 -91.5 -59.5t-34.5 -161.5
q0 -96 31.5 -147.5t92.5 -51.5z" />
    <glyph glyph-name="r" unicode="r" horiz-adv-x="384" 
d="M221 0h-174v2q23 70 23 184v116q0 88 -47 143v2l171 55v-122h1q5 5 25 28t31.5 34t31 27t39.5 22.5t41 5.5l-9 -143h-5q-15 17 -45.5 30t-49.5 13q-28 0 -56 -36v-175q0 -121 23 -184v-2z" />
    <glyph glyph-name="s" unicode="s" horiz-adv-x="413" 
d="M347 478l11 -116l-7 -2q-78 119 -155 119q-35 0 -56.5 -20t-21.5 -50q0 -8 2 -16t4.5 -14t9 -12.5t10.5 -11t14 -10.5l15 -9t17.5 -8.5t17.5 -8t19.5 -8.5t19.5 -8q31 -13 52.5 -25.5t44 -32t34 -47.5t11.5 -63q0 -75 -54.5 -112.5t-141.5 -37.5q-81 0 -154 28l-12 134
l7 2q85 -146 177 -146q42 0 62.5 22.5t20.5 53.5q0 36 -26.5 58t-85.5 48q-34 15 -53 25.5t-44.5 30.5t-37.5 48t-12 64q0 74 53 109t135 35q67 0 124 -19z" />
    <glyph glyph-name="t" unicode="t" horiz-adv-x="349" 
d="M192 -15q-124 0 -124 129v348h-55v7l173 127h10v-114h125v-20h-125v-344q0 -77 71 -77q37 0 62 17l3 -3q-45 -70 -140 -70z" />
    <glyph glyph-name="u" unicode="u" horiz-adv-x="550" 
d="M350 107q-62 -122 -163 -122q-63 0 -97.5 44.5t-34.5 120.5v219q0 70 -40 110v3h167v-324q0 -91 77 -91q57 0 87 58v245q0 70 -42 110v2h169v-295q0 -77 10 -107t37 -53v-2l-169 -38v119z" />
    <glyph glyph-name="v" unicode="v" horiz-adv-x="463" 
d="M209 -9l-141 357q-38 96 -71 132v2h207v-2q-12 -18 -13.5 -51t13.5 -77l75 -198l72 179q13 32 13.5 64t-5.5 51t-15 32v2h115v-2q-48 -53 -82 -136l-142 -353h-26z" />
    <glyph glyph-name="w" unicode="w" horiz-adv-x="702" 
d="M190 -9l-126 357q-31 92 -67 132v2h207v-2q-11 -17 -13 -51t11 -77l61 -188l72 187q-29 89 -66 129v2h204v-2q-28 -43 -1 -128l58 -181l61 162q13 33 14 64.5t-5.5 50.5t-16.5 32v2h115v-2q-52 -58 -82 -136l-131 -353h-27l-114 333l-127 -333h-27z" />
    <glyph glyph-name="x" unicode="x" horiz-adv-x="493" 
d="M126 2v-2h-123v2q62 51 125 136l61 83l-79 128q-58 96 -98 131v2h212v-2q-28 -33 21 -113l50 -81l33 47q23 32 32.5 63t7 50.5t-11.5 33.5v2h124v-2q-60 -51 -122 -136l-53 -74l85 -139q33 -54 53.5 -80t46.5 -49v-2h-211v2q13 23 7.5 47t-31.5 66l-56 90l-41 -56
q-64 -85 -32 -147z" />
    <glyph glyph-name="y" unicode="y" horiz-adv-x="463" 
d="M31 -225l-1 112q143 -6 180 89l-145 372q-39 99 -68 132v2h203v-2q-12 -18 -13 -54t16 -87l73 -192l76 194q16 50 10.5 84.5t-22.5 54.5v2h120v-2q-50 -54 -83 -136l-146 -366q-24 -58 -47 -96.5t-48.5 -59.5t-48.5 -30.5t-56 -16.5z" />
    <glyph glyph-name="z" unicode="z" horiz-adv-x="465" 
d="M408 0h-393v7l270 458l-99 -4q-15 0 -29.5 -6t-33.5 -22t-27.5 -24t-33 -34t-28.5 -30l-6 2l37 135h367v-8l-270 -458l114 3q42 2 79 34.5t85 96.5l6 -2z" />
    <glyph glyph-name="braceleft" unicode="{" horiz-adv-x="360" 
d="M331 -130h-21q-108 0 -164 33.5t-56 98.5q0 40 35.5 111t35.5 105q0 83 -110 83h-23v22h23q110 0 110 84q0 34 -35.5 105t-35.5 111q0 65 56 98.5t164 33.5h21v-21h-21q-52 0 -76 -19t-24 -80q0 -28 15.5 -91.5t15.5 -98.5q0 -67 -38.5 -95t-115.5 -36v-3
q77 -8 115.5 -36t38.5 -95q0 -35 -15.5 -98.5t-15.5 -91.5q0 -61 24 -80t76 -19h21v-21z" />
    <glyph glyph-name="bar" unicode="|" horiz-adv-x="205" 
d="M116 -130h-27v911h27v-911z" />
    <glyph glyph-name="braceright" unicode="}" horiz-adv-x="360" 
d="M50 -130h-21v21h21q52 0 76 19t24 80q0 28 -15.5 91.5t-15.5 98.5q0 67 38.5 95t115.5 36v3q-77 8 -115.5 36t-38.5 95q0 35 15.5 98.5t15.5 91.5q0 61 -24 80t-76 19h-21v21h21q108 0 164 -33.5t56 -98.5q0 -40 -35.5 -111t-35.5 -105q0 -84 110 -84h23v-22h-23
q-110 0 -110 -83q0 -34 35.5 -105t35.5 -111q0 -65 -56 -98.5t-164 -33.5z" />
    <glyph glyph-name="asciitilde" unicode="~" horiz-adv-x="452" 
d="M139 339q21 0 91 -23t107 -23q30 0 45.5 13.5t23.5 41.5l11 -1q-2 -30 -9 -56.5t-31 -52t-62 -25.5q-28 0 -100 23t-99 23q-53 0 -67 -57l-12 1q1 21 6.5 41.5t16 43.5t31 37t48.5 14z" />
    <glyph glyph-name="uni00A0" unicode="&#xa0;" horiz-adv-x="169" 
 />
    <glyph glyph-name="exclamdown" unicode="&#xa1;" horiz-adv-x="237" 
d="M188 -243v-2h-139v2l61 490h17zM119 492q31 0 53.5 -22.5t22.5 -53.5q0 -32 -22 -54.5t-54 -22.5t-54 22.5t-22 54.5q0 31 22 53.5t54 22.5z" />
    <glyph glyph-name="cent" unicode="&#xa2;" horiz-adv-x="478" 
d="M280 -114h-26v99q-104 1 -166.5 68t-62.5 178q0 105 65.5 178t163.5 85v69h26v-66h10q72 0 134 -25l13 -126l-9 -2q-33 54 -73 92.5t-75 41.5v-391q17 -4 41 -4q84 0 125 44l6 -4q-40 -125 -172 -137v-100zM152 284q0 -150 102 -189v381q-46 -10 -74 -61.5t-28 -130.5z
" />
    <glyph glyph-name="sterling" unicode="&#xa3;" horiz-adv-x="583" 
d="M580 194l-73 -194h-509v8q45 28 65.5 46t40.5 57t29.5 96.5t17.5 159.5h-83l6 22h79q0 2 0.5 6.5t0.5 6.5l5 70q5 69 28.5 124t58.5 86.5t73.5 48t77.5 16.5q33 0 66 -9.5t48 -20.5l17 -182l-10 -3l-16.5 33t-16.5 32.5t-15 29t-15.5 28t-14.5 24t-14.5 20.5t-14 14.5
t-14.5 10.5t-14 3q-57 0 -81 -237l-4 -32q-3 -27 -11 -69h132l-6 -22h-131q-42 -178 -148 -257h278q58 0 93 20.5t67 66.5z" />
    <glyph glyph-name="yen" unicode="&#xa5;" horiz-adv-x="576" 
d="M167 0v2q24 43 32 75.5t8 87.5v28h-153v21h153v110h-153v22h151l-112 233q-28 61 -52 94.5t-57 56.5v2h253v-2q-19 -18 -17.5 -58.5t23.5 -89.5l99 -207l75 158q56 117 1 197v2h173v-2q-48 -40 -78.5 -77.5t-59.5 -97.5l-101 -209h153v-22h-154v-110h154v-21h-154v-28
q0 -55 8 -87.5t32 -75.5v-2h-224z" />
    <glyph glyph-name="brokenbar" unicode="&#xa6;" horiz-adv-x="205" 
d="M116 365h-27v416h27v-416zM116 -130h-27v415h27v-415z" />
    <glyph glyph-name="section" unicode="&#xa7;" horiz-adv-x="490" 
d="M252 184q51 -29 61 -36q31 8 48.5 34t17.5 59q0 26 -10.5 47.5t-34.5 41t-42 30.5t-54 31q-38 21 -60 36q-32 -8 -50 -34t-18 -60q0 -26 10.5 -47.5t34.5 -40.5t42.5 -30.5t54.5 -30.5zM237 -164q-76 0 -144 24l-10 136l6 2q74 -144 155 -144q38 0 61 26t23 64
q0 26 -10 47.5t-35.5 41.5t-41.5 30t-55 32q-34 19 -55.5 34t-46 37.5t-36 51t-11.5 63.5q0 59 33.5 101t93.5 55q-83 64 -83 147q0 71 49 117t138 46q67 0 123 -20l10 -116l-6 -2q-71 120 -146 120q-42 0 -65.5 -28.5t-23.5 -69.5q0 -22 9 -42t19 -32.5t35 -29.5t36.5 -24
t44.5 -25q35 -20 55.5 -34t45.5 -37t36.5 -51.5t11.5 -63.5q0 -58 -33 -99.5t-92 -55.5q79 -58 79 -146q0 -69 -44.5 -112t-125.5 -43z" />
    <glyph glyph-name="dieresis" unicode="&#xa8;" 
d="M347 657q0 -29 -20.5 -50t-50.5 -21q-29 0 -49 21t-20 50t20 49.5t49 20.5q30 0 50.5 -20.5t20.5 -49.5zM138 657q0 -29 -20.5 -50t-50.5 -21q-28 0 -48.5 21t-20.5 50t20.5 49.5t48.5 20.5q30 0 50.5 -20.5t20.5 -49.5z" />
    <glyph glyph-name="copyright" unicode="&#xa9;" horiz-adv-x="817" 
d="M27 366q0 159 111.5 269.5t269.5 110.5q159 0 270.5 -110.5t111.5 -269.5q0 -160 -112 -270.5t-270 -110.5t-269.5 110.5t-111.5 270.5zM55 366q0 -148 103.5 -253t249.5 -105q147 0 250 104.5t103 253.5t-103 253t-250 104q-146 0 -249.5 -104.5t-103.5 -252.5zM568 197
q-65 -40 -151 -40q-99 0 -162.5 58.5t-63.5 148.5q0 89 66.5 150.5t167.5 61.5q62 0 141 -24l11 -106l-7 -2q-44 64 -76 89.5t-75 25.5q-131 0 -131 -195q0 -89 32.5 -140t96.5 -51q51 0 85 34.5t71 107.5l6 -3z" />
    <glyph glyph-name="ordfeminine" unicode="&#xaa;" horiz-adv-x="400" 
d="M174 412q24 0 43 13v120q-42 -10 -67.5 -32t-25.5 -52q0 -22 13 -35.5t37 -13.5zM296 351q-67 0 -76 60q-41 -62 -111 -62q-37 0 -61 19t-24 54q0 30 17.5 54.5t47 41t61.5 27t67 16.5v54q0 35 -17.5 51.5t-57.5 16.5q-55 0 -98 -25l-3 6q68 83 173 83q57 0 85.5 -27
t28.5 -72v-200q0 -38 32 -38q18 0 29 11l2 -2q-10 -26 -33.5 -47t-61.5 -21z" />
    <glyph glyph-name="guillemotleft" unicode="&#xab;" horiz-adv-x="432" 
d="M370 58l-8 -6l-158 175v20l158 175l8 -6l-83 -179zM217 58l-8 -6l-158 175v20l158 175l8 -6l-83 -179z" />
    <glyph glyph-name="registered" unicode="&#xae;" horiz-adv-x="440" 
d="M10 541q0 86 62 146t150 60q87 0 147.5 -59.5t60.5 -146.5q0 -86 -62 -145.5t-149 -59.5q-88 0 -148.5 59t-60.5 146zM36 541q0 -77 53.5 -130t130.5 -53q78 0 131 52.5t53 130.5t-53.5 131t-130.5 53q-78 0 -131 -53t-53 -131zM220 640q-14 0 -26 -1v-92h27q38 0 38 49
q0 44 -39 44zM132 432v1q12 28 12 59v102q0 32 -12 57v2h99q79 0 79 -55q0 -43 -41 -57l33 -67q14 -30 34 -41v-1h-70l-49 102h-23v-42q0 -31 12 -59v-1h-74z" />
    <glyph glyph-name="macron" unicode="&#xaf;" 
d="M27 589v58h290v-58h-290z" />
    <glyph glyph-name="degree" unicode="&#xb0;" horiz-adv-x="298" 
d="M16 615q0 55 39.5 93.5t95.5 38.5t93 -38.5t37 -93.5t-39.5 -94t-94.5 -39q-56 0 -93.5 38.5t-37.5 94.5zM43 615q0 -47 30 -78.5t76 -31.5q45 0 75 31.5t30 78.5q0 46 -30 77.5t-75 31.5q-46 0 -76 -31.5t-30 -77.5z" />
    <glyph glyph-name="acute" unicode="&#xb4;" 
d="M85 547l137 202l81 -82l-210 -129z" />
    <glyph glyph-name="paragraph" unicode="&#xb6;" horiz-adv-x="479" 
d="M422 0h-62v1q15 60 15 138v454q0 83 -15 138v1h62v-1q-15 -60 -15 -138v-454q0 -83 15 -138v-1zM312 0h-62v1q15 60 15 138v216h-60q-79 0 -134 55.5t-55 133.5t55 133t134 55h107v-1q-15 -60 -15 -138v-454q0 -83 15 -138v-1z" />
    <glyph glyph-name="periodcentered" unicode="&#xb7;" horiz-adv-x="261" 
d="M131 205q-31 0 -53 22t-22 53t22 53t53 22q30 0 52 -22t22 -53t-22 -53t-52 -22z" />
    <glyph glyph-name="cedilla" unicode="&#xb8;" 
d="M98 -256l-4 10q78 31 78 81q0 45 -70 45l-2 2l74 120h28l-36 -57q40 -7 64 -28t24 -54q0 -44 -40.5 -74.5t-115.5 -44.5z" />
    <glyph glyph-name="ordmasculine" unicode="&#xba;" horiz-adv-x="466" 
d="M233 349q-84 0 -145 59.5t-61 139.5q1 81 61.5 140t144.5 59t145 -59t61 -140t-61 -140t-145 -59zM233 365q47 0 69.5 50t22.5 133t-23 133.5t-69 50.5q-91 0 -91 -184q0 -84 22 -133.5t69 -49.5z" />
    <glyph glyph-name="guillemotright" unicode="&#xbb;" horiz-adv-x="432" 
d="M223 52l-8 6l83 179l-83 179l8 6l158 -175v-20zM70 52l-8 6l83 179l-83 179l8 6l158 -175v-20z" />
    <glyph glyph-name="onequarter" unicode="&#xbc;" horiz-adv-x="660" 
d="M201 345h-160v1q17 22 22.5 38t5.5 45v224h-48v8q90 34 148 88h6v-320q0 -29 5 -45t21 -38v-1zM76 1l-19 15l521 727l19 -13zM455 0v1q21 36 21 83v16h-156v5l170 287h126l-272 -275h132v104h110v-104h52l-4 -17h-48v-16q0 -47 21 -83v-1h-152z" />
    <glyph glyph-name="onehalf" unicode="&#xbd;" horiz-adv-x="707" 
d="M69 1l-19 15l521 727l19 -13zM644 0h-259v5q96 96 135 163.5t39 131.5q0 41 -13 64t-35 23q-24 0 -51.5 -30t-50.5 -79l-6 1l14 106q46 17 99 17q73 0 111 -29.5t38 -76.5q0 -52 -47 -101.5t-149 -115.5h102q61 0 101 55l5 -1zM201 345h-160v1q17 22 22.5 38t5.5 45v224
h-48v8q90 34 148 88h6v-320q0 -29 5 -45t21 -38v-1z" />
    <glyph glyph-name="threequarters" unicode="&#xbe;" horiz-adv-x="711" 
d="M148 337q-68 0 -112 24l-12 96l7 2l13 -19.5t13 -19t11.5 -16t11.5 -15t10.5 -12t11.5 -10.5t11.5 -6.5t13 -5t13.5 -1.5q32 0 50 29t18 79q0 101 -72 101q-34 0 -65 -22l-7 8l130 108h-153l23 79h245v-5l-186 -153q17 4 42 4q59 0 103.5 -30.5t44.5 -89.5
q0 -58 -45.5 -91.5t-119.5 -33.5zM127 1l-19 15l521 727l19 -13zM506 0v1q21 36 21 83v16h-156v5l170 287h126l-272 -275h132v104h110v-104h52l-4 -17h-48v-16q0 -47 21 -83v-1h-152z" />
    <glyph glyph-name="questiondown" unicode="&#xbf;" horiz-adv-x="430" 
d="M297 247h16q-6 -47 -30.5 -88.5t-49.5 -69t-45.5 -76t-20.5 -109.5q0 -68 24 -106.5t66 -38.5q39 0 70 36t70 109l7 -2l-20 -137q-64 -25 -142 -25q-104 0 -159.5 40t-55.5 120q0 51 23 91.5t58.5 69t72 54t70 59.5t46.5 73zM296 492q32 0 54 -22.5t22 -53.5
q0 -32 -22 -54.5t-54 -22.5t-54 22.5t-22 54.5q0 31 22.5 53.5t53.5 22.5z" />
    <glyph glyph-name="Agrave" unicode="&#xc0;" horiz-adv-x="667" 
d="M383 298l-108 292l-108 -292h216zM158 2v-2h-158v2q32 32 54 72.5t47 106.5l207 557h56l211 -565q44 -117 92 -171v-2h-244v2q44 65 2 182l-34 92h-232l-20 -53q-55 -147 19 -221zM429 794l-6 -12l-261 74l52 103z" />
    <glyph glyph-name="Aacute" unicode="&#xc1;" horiz-adv-x="667" 
d="M383 298l-108 292l-108 -292h216zM158 2v-2h-158v2q32 32 54 72.5t47 106.5l207 557h56l211 -565q44 -117 92 -171v-2h-244v2q44 65 2 182l-34 92h-232l-20 -53q-55 -147 19 -221zM226 794l212 165l52 -103l-258 -74z" />
    <glyph glyph-name="Acircumflex" unicode="&#xc2;" horiz-adv-x="667" 
d="M383 298l-108 292l-108 -292h216zM158 2v-2h-158v2q32 32 54 72.5t47 106.5l207 557h56l211 -565q44 -117 92 -171v-2h-244v2q44 65 2 182l-34 92h-232l-20 -53q-55 -147 19 -221zM487 782l-150 68l-151 -68l-9 10l156 158h7l156 -158z" />
    <glyph glyph-name="Atilde" unicode="&#xc3;" horiz-adv-x="667" 
d="M383 298l-108 292l-108 -292h216zM158 2v-2h-158v2q32 32 54 72.5t47 106.5l207 557h56l211 -565q44 -117 92 -171v-2h-244v2q44 65 2 182l-34 92h-232l-20 -53q-55 -147 19 -221zM259 910q30 0 84 -19.5t86 -19.5q28 0 44 11.5t24 40.5l12 -2q0 -132 -95 -132
q-30 0 -84 19.5t-86 19.5q-28 0 -44 -12t-24 -41l-12 2q0 27 3.5 47t12.5 41.5t29 33t50 11.5z" />
    <glyph glyph-name="Adieresis" unicode="&#xc4;" horiz-adv-x="667" 
d="M383 298l-108 292l-108 -292h216zM158 2v-2h-158v2q32 32 54 72.5t47 106.5l207 557h56l211 -565q44 -117 92 -171v-2h-244v2q44 65 2 182l-34 92h-232l-20 -53q-55 -147 19 -221zM528 868q0 -29 -20.5 -49.5t-50.5 -20.5q-29 0 -49 20.5t-20 49.5t20 50t49 21
q30 0 50.5 -21t20.5 -50zM285 868q0 -29 -20.5 -49.5t-50.5 -20.5q-29 0 -49 20.5t-20 49.5t20.5 50t48.5 21q30 0 50.5 -21t20.5 -50z" />
    <glyph glyph-name="Aring" unicode="&#xc5;" horiz-adv-x="667" 
d="M383 298l-108 292l-108 -292h216zM158 2v-2h-158v2q32 32 54 72.5t47 106.5l207 557h56l211 -565q44 -117 92 -171v-2h-244v2q44 65 2 182l-34 92h-232l-20 -53q-55 -147 19 -221zM245 867q0 38 26 63t65 25t65.5 -24.5t26.5 -63.5q0 -38 -26.5 -62t-65.5 -24t-65 24
t-26 62zM287 867q0 -32 13 -49.5t36 -17.5t36.5 18t13.5 49q0 32 -13.5 50.5t-36.5 18.5t-36 -18.5t-13 -50.5z" />
    <glyph glyph-name="AE" unicode="&#xc6;" horiz-adv-x="1032" 
d="M479 546q0 72 -13 109l-211 -357h224v248zM180 2v-2h-161v2q68 56 140 179l295 501q-16 27 -41 48v2h514l39 -185l-10 -3q-8 8 -54.5 60.5t-76 77t-51.5 25.5l-150 8v-332h73q18 0 38 12t33 24t34 35.5t28 30.5h10v-226h-10q-7 7 -28 30t-33.5 35.5t-33 24.5t-38.5 12
h-73v-344l162 7q86 4 224 192l9 -3l-48 -213h-532v2q22 55 31 92t9 92v90h-237l-40 -68q-74 -124 -22 -206z" />
    <glyph glyph-name="Ccedilla" unicode="&#xc7;" horiz-adv-x="759" 
d="M316 -256l-4 10q78 31 78 81q0 45 -70 45l-2 2l64 105q-157 13 -255 117.5t-98 257.5q0 163 116 274t292 111q124 0 253 -43l20 -173l-9 -3q-80 111 -137.5 154.5t-135.5 43.5q-64 0 -111.5 -26.5t-75.5 -76.5t-41 -114.5t-13 -146.5q0 -165 60 -260.5t177 -95.5
q48 0 88 16.5t74 52t60 75.5t59 101l9 -3l-20 -190q-30 -21 -105 -47t-166 -26q-3 0 -7 0.5t-7 0.5l-25 -41q40 -7 64 -28t24 -54q0 -44 -40.5 -74.5t-115.5 -44.5z" />
    <glyph glyph-name="Egrave" unicode="&#xc8;" horiz-adv-x="640" 
d="M625 213l-47 -213h-532v2q22 55 30.5 92.5t8.5 91.5v360q0 55 -8.5 92.5t-30.5 91.5v2h488l38 -185l-9 -3q-8 8 -54.5 60.5t-76 77t-51.5 25.5l-151 8v-332h74q18 0 38 12t32 23t35 36.5t28 30.5h9v-226h-9q-8 8 -28 30t-33.5 35t-33.5 25t-38 12h-74v-344l163 7
q85 4 223 192zM441 794l-6 -12l-261 74l52 103z" />
    <glyph glyph-name="Eacute" unicode="&#xc9;" horiz-adv-x="640" 
d="M625 213l-47 -213h-532v2q22 55 30.5 92.5t8.5 91.5v360q0 55 -8.5 92.5t-30.5 91.5v2h488l38 -185l-9 -3q-8 8 -54.5 60.5t-76 77t-51.5 25.5l-151 8v-332h74q18 0 38 12t32 23t35 36.5t28 30.5h9v-226h-9q-8 8 -28 30t-33.5 35t-33.5 25t-38 12h-74v-344l163 7
q85 4 223 192zM218 794l212 165l52 -103l-258 -74z" />
    <glyph glyph-name="Ecircumflex" unicode="&#xca;" horiz-adv-x="640" 
d="M625 213l-47 -213h-532v2q22 55 30.5 92.5t8.5 91.5v360q0 55 -8.5 92.5t-30.5 91.5v2h488l38 -185l-9 -3q-8 8 -54.5 60.5t-76 77t-51.5 25.5l-151 8v-332h74q18 0 38 12t32 23t35 36.5t28 30.5h9v-226h-9q-8 8 -28 30t-33.5 35t-33.5 25t-38 12h-74v-344l163 7
q85 4 223 192zM469 782l-150 68l-151 -68l-9 10l156 158h7l156 -158z" />
    <glyph glyph-name="Edieresis" unicode="&#xcb;" horiz-adv-x="640" 
d="M625 213l-47 -213h-532v2q22 55 30.5 92.5t8.5 91.5v360q0 55 -8.5 92.5t-30.5 91.5v2h488l38 -185l-9 -3q-8 8 -54.5 60.5t-76 77t-51.5 25.5l-151 8v-332h74q18 0 38 12t32 23t35 36.5t28 30.5h9v-226h-9q-8 8 -28 30t-33.5 35t-33.5 25t-38 12h-74v-344l163 7
q85 4 223 192zM510 868q0 -29 -20.5 -49.5t-50.5 -20.5q-29 0 -49 20.5t-20 49.5t20 50t49 21q30 0 50.5 -21t20.5 -50zM267 868q0 -29 -20.5 -49.5t-50.5 -20.5q-29 0 -49 20.5t-20 49.5t20.5 50t48.5 21q30 0 50.5 -21t20.5 -50z" />
    <glyph glyph-name="Igrave" unicode="&#xcc;" horiz-adv-x="316" 
d="M46 0v2q24 51 32 89t8 104v342q0 66 -8 104t-32 89v2h224v-2q-24 -50 -32 -88.5t-8 -103.5v-343q0 -66 8 -104.5t32 -88.5v-2h-224zM245 794l-6 -12l-261 74l52 103z" />
    <glyph glyph-name="Iacute" unicode="&#xcd;" horiz-adv-x="316" 
d="M46 0v2q24 51 32 89t8 104v342q0 66 -8 104t-32 89v2h224v-2q-24 -50 -32 -88.5t-8 -103.5v-343q0 -66 8 -104.5t32 -88.5v-2h-224zM53 794l212 165l52 -103l-258 -74z" />
    <glyph glyph-name="Icircumflex" unicode="&#xce;" horiz-adv-x="316" 
d="M46 0v2q24 51 32 89t8 104v342q0 66 -8 104t-32 89v2h224v-2q-24 -50 -32 -88.5t-8 -103.5v-343q0 -66 8 -104.5t32 -88.5v-2h-224zM308 782l-150 68l-151 -68l-9 10l156 158h7l156 -158z" />
    <glyph glyph-name="Idieresis" unicode="&#xcf;" horiz-adv-x="316" 
d="M327 868q0 -29 -21 -49.5t-50 -20.5t-49 20.5t-20 49.5t20 50t49 21t50 -21t21 -50zM129 868q0 -29 -21 -49.5t-50 -20.5t-49.5 20.5t-20.5 49.5t20.5 50t49.5 21t50 -21t21 -50zM46 0v2q24 51 32 89t8 104v342q0 66 -8 104t-32 89v2h224v-2q-24 -50 -32 -88.5t-8 -103.5
v-343q0 -66 8 -104.5t32 -88.5v-2h-224z" />
    <glyph glyph-name="Eth" unicode="&#xd0;" horiz-adv-x="783" 
d="M3 350v22h90v184q0 59 -8 93.5t-32 80.5v2q56 0 135 2t148 2q196 0 306.5 -95.5t110.5 -271.5q0 -177 -108.5 -273t-308.5 -96h-283v2q24 46 32 80.5t8 93.5v174h-90zM330 714q-19 0 -93 -2v-340h150v-22h-150v-328h96q144 2 203.5 83.5t59.5 249.5q0 185 -64 272.5
t-202 86.5z" />
    <glyph glyph-name="Ntilde" unicode="&#xd1;" horiz-adv-x="707" 
d="M583 -3l-474 619l3 -409q1 -68 16 -109t57 -96v-2h-166v2q40 56 53.5 96.5t13.5 108.5v376q-3 49 -19 79t-57 68v2h189l396 -522l-2 314q-1 69 -14.5 109.5t-52.5 96.5v2h158v-2q-39 -57 -52.5 -97t-13.5 -108v-525zM303 910q30 0 84 -19.5t86 -19.5q28 0 44 11.5
t24 40.5l12 -2q0 -132 -95 -132q-30 0 -84 19.5t-86 19.5q-28 0 -44 -12t-24 -41l-12 2q0 27 3.5 47t12.5 41.5t29 33t50 11.5z" />
    <glyph glyph-name="Ograve" unicode="&#xd2;" horiz-adv-x="823" 
d="M411 -15q-100 0 -188 50t-141 138t-53 192q0 158 114.5 270t267.5 112q100 0 188 -50.5t141.5 -139t53.5 -192.5t-53.5 -192t-141.5 -138t-188 -50zM411 6q113 0 169 97.5t56 261.5t-56 262.5t-169 98.5q-76 0 -127.5 -48t-74 -127.5t-22.5 -185.5q0 -163 55.5 -261
t168.5 -98zM507 794l-6 -12l-261 74l52 103z" />
    <glyph glyph-name="Oacute" unicode="&#xd3;" horiz-adv-x="823" 
d="M411 -15q-100 0 -188 50t-141 138t-53 192q0 158 114.5 270t267.5 112q100 0 188 -50.5t141.5 -139t53.5 -192.5t-53.5 -192t-141.5 -138t-188 -50zM411 6q113 0 169 97.5t56 261.5t-56 262.5t-169 98.5q-76 0 -127.5 -48t-74 -127.5t-22.5 -185.5q0 -163 55.5 -261
t168.5 -98zM312 794l212 165l52 -103l-258 -74z" />
    <glyph glyph-name="Ocircumflex" unicode="&#xd4;" horiz-adv-x="823" 
d="M411 -15q-100 0 -188 50t-141 138t-53 192q0 158 114.5 270t267.5 112q100 0 188 -50.5t141.5 -139t53.5 -192.5t-53.5 -192t-141.5 -138t-188 -50zM411 6q113 0 169 97.5t56 261.5t-56 262.5t-169 98.5q-76 0 -127.5 -48t-74 -127.5t-22.5 -185.5q0 -163 55.5 -261
t168.5 -98zM562 782l-150 68l-151 -68l-9 10l156 158h7l156 -158z" />
    <glyph glyph-name="Otilde" unicode="&#xd5;" horiz-adv-x="823" 
d="M411 -15q-100 0 -188 50t-141 138t-53 192q0 158 114.5 270t267.5 112q100 0 188 -50.5t141.5 -139t53.5 -192.5t-53.5 -192t-141.5 -138t-188 -50zM411 6q113 0 169 97.5t56 261.5t-56 262.5t-169 98.5q-76 0 -127.5 -48t-74 -127.5t-22.5 -185.5q0 -163 55.5 -261
t168.5 -98zM334 910q30 0 84 -19.5t86 -19.5q28 0 44 11.5t24 40.5l12 -2q0 -132 -95 -132q-30 0 -84 19.5t-86 19.5q-28 0 -44 -12t-24 -41l-12 2q0 27 3.5 47t12.5 41.5t29 33t50 11.5z" />
    <glyph glyph-name="Odieresis" unicode="&#xd6;" horiz-adv-x="823" 
d="M411 -15q-100 0 -188 50t-141 138t-53 192q0 158 114.5 270t267.5 112q100 0 188 -50.5t141.5 -139t53.5 -192.5t-53.5 -192t-141.5 -138t-188 -50zM411 6q113 0 169 97.5t56 261.5t-56 262.5t-169 98.5q-76 0 -127.5 -48t-74 -127.5t-22.5 -185.5q0 -163 55.5 -261
t168.5 -98zM603 868q0 -29 -20.5 -49.5t-50.5 -20.5q-29 0 -49 20.5t-20 49.5t20 50t49 21q30 0 50.5 -21t20.5 -50zM360 868q0 -29 -20.5 -49.5t-50.5 -20.5q-29 0 -49 20.5t-20 49.5t20.5 50t48.5 21q30 0 50.5 -21t20.5 -50z" />
    <glyph glyph-name="multiply" unicode="&#xd7;" horiz-adv-x="472" 
d="M405 121l-169 169l-169 -169l-17 17l169 169l-169 169l17 17l169 -169l169 169l17 -17l-169 -169l169 -169z" />
    <glyph glyph-name="Oslash" unicode="&#xd8;" horiz-adv-x="823" 
d="M187 365q0 -157 50 -251l335 527q-58 85 -161 85q-76 0 -127.5 -48t-74 -127.5t-22.5 -185.5zM411 6q113 0 169 97.5t56 261.5q0 158 -50 252l-335 -526q57 -85 160 -85zM411 -15q-102 0 -193 54l-51 -80h-29l59 93q-77 52 -122.5 134.5t-45.5 178.5q0 158 114.5 270
t267.5 112q102 0 193 -54l52 81h30l-60 -95q76 -53 122 -135.5t46 -178.5q0 -104 -53.5 -192t-141.5 -138t-188 -50z" />
    <glyph glyph-name="Ugrave" unicode="&#xd9;" horiz-adv-x="713" 
d="M370 -15q-128 0 -206.5 65.5t-78.5 201.5v285q0 66 -8 104t-32 89v2h225v-2q-22 -46 -31 -87t-9 -105v-289q0 -234 179 -234q68 0 113 35t62.5 88t17.5 123v263q0 70 -16 110.5t-62 95.5v2h177l4 -2q-46 -56 -61.5 -96.5t-15.5 -109.5v-259q0 -280 -258 -280zM507 794
l-6 -12l-261 74l52 103z" />
    <glyph glyph-name="Uacute" unicode="&#xda;" horiz-adv-x="713" 
d="M370 -15q-128 0 -206.5 65.5t-78.5 201.5v285q0 66 -8 104t-32 89v2h225v-2q-22 -46 -31 -87t-9 -105v-289q0 -234 179 -234q68 0 113 35t62.5 88t17.5 123v263q0 70 -16 110.5t-62 95.5v2h177l4 -2q-46 -56 -61.5 -96.5t-15.5 -109.5v-259q0 -280 -258 -280zM305 794
l212 165l52 -103l-258 -74z" />
    <glyph glyph-name="Ucircumflex" unicode="&#xdb;" horiz-adv-x="713" 
d="M370 -15q-128 0 -206.5 65.5t-78.5 201.5v285q0 66 -8 104t-32 89v2h225v-2q-22 -46 -31 -87t-9 -105v-289q0 -234 179 -234q68 0 113 35t62.5 88t17.5 123v263q0 70 -16 110.5t-62 95.5v2h177l4 -2q-46 -56 -61.5 -96.5t-15.5 -109.5v-259q0 -280 -258 -280zM552 782
l-150 68l-151 -68l-9 10l156 158h7l156 -158z" />
    <glyph glyph-name="Udieresis" unicode="&#xdc;" horiz-adv-x="713" 
d="M370 -15q-128 0 -206.5 65.5t-78.5 201.5v285q0 66 -8 104t-32 89v2h225v-2q-22 -46 -31 -87t-9 -105v-289q0 -234 179 -234q68 0 113 35t62.5 88t17.5 123v263q0 70 -16 110.5t-62 95.5v2h177l4 -2q-46 -56 -61.5 -96.5t-15.5 -109.5v-259q0 -280 -258 -280zM593 868
q0 -29 -20.5 -49.5t-50.5 -20.5q-29 0 -49 20.5t-20 49.5t20 50t49 21q30 0 50.5 -21t20.5 -50zM350 868q0 -29 -20.5 -49.5t-50.5 -20.5q-29 0 -49 20.5t-20 49.5t20.5 50t48.5 21q30 0 50.5 -21t20.5 -50z" />
    <glyph glyph-name="Yacute" unicode="&#xdd;" horiz-adv-x="628" 
d="M197 0v2q23 44 31.5 76t8.5 87v176l-132 238q-60 112 -113 151v2h269v-2q-22 -18 -23 -59t23 -89l113 -208l90 159q26 46 29.5 87.5t-6 66t-27.5 43.5v2h176v-2q-41 -35 -68.5 -72.5t-64.5 -102.5l-122 -213v-177q0 -55 8 -87.5t32 -75.5v-2h-224zM265 794l212 165
l52 -103l-258 -74z" />
    <glyph glyph-name="Thorn" unicode="&#xde;" horiz-adv-x="596" 
d="M270 2v-2h-224v2q24 51 32 89t8 104v342q0 66 -8 104t-32 89v2h224v-2q-37 -77 -39 -159h77q281 0 281 -184q0 -97 -75 -155t-224 -58h-60q2 -92 40 -172zM230 196h47q85 0 125.5 53.5t40.5 136.5q0 82 -43.5 123t-120.5 41q-5 0 -49 -2v-352z" />
    <glyph glyph-name="germandbls" unicode="&#xdf;" horiz-adv-x="617" 
d="M427 -15q-73 0 -139 28l-12 134l7 2q45 -78 78.5 -112t74.5 -34q34 0 52.5 20.5t18.5 51.5q0 34 -22.5 59t-55 41.5t-65 34t-55 47.5t-22.5 72q0 32 14.5 58.5t34.5 46t40.5 42t35 58.5t14.5 83q0 61 -24 102t-73 41q-55 0 -85.5 -56.5t-30.5 -162.5v-541h-155v2
q27 48 27 145v315h-63v20h63v3q0 132 69.5 212.5t182.5 80.5q78 0 132.5 -37.5t54.5 -108.5q0 -36 -16 -65t-38.5 -48t-45 -36t-38.5 -37t-16 -42q0 -27 24 -48t58.5 -38.5t68.5 -38t58 -57.5t24 -87q0 -75 -50 -112.5t-126 -37.5z" />
    <glyph glyph-name="agrave" unicode="&#xe0;" horiz-adv-x="496" 
d="M211 54q37 0 64 20v157q-60 -14 -97 -43t-37 -70q0 -30 18.5 -47t51.5 -17zM372 -13q-40 0 -64 19t-30 51q-57 -72 -143 -72q-48 0 -78.5 23.5t-30.5 68.5q0 37 23 67.5t61.5 50.5t78.5 33t86 21v88q0 43 -21.5 64.5t-72.5 21.5q-73 0 -131 -37l-5 7q82 104 216 104
q73 0 107.5 -34t34.5 -91v-272q0 -44 41 -44q23 0 44 16l2 -3q-37 -82 -118 -82zM304 540l-9 -9l-211 136l83 82z" />
    <glyph glyph-name="aacute" unicode="&#xe1;" horiz-adv-x="496" 
d="M211 54q37 0 64 20v157q-60 -14 -97 -43t-37 -70q0 -30 18.5 -47t51.5 -17zM372 -13q-40 0 -64 19t-30 51q-57 -72 -143 -72q-48 0 -78.5 23.5t-30.5 68.5q0 37 23 67.5t61.5 50.5t78.5 33t86 21v88q0 43 -21.5 64.5t-72.5 21.5q-73 0 -131 -37l-5 7q82 104 216 104
q73 0 107.5 -34t34.5 -91v-272q0 -44 41 -44q23 0 44 16l2 -3q-37 -82 -118 -82zM153 547l137 202l81 -82l-210 -129z" />
    <glyph glyph-name="acircumflex" unicode="&#xe2;" horiz-adv-x="496" 
d="M211 54q37 0 64 20v157q-60 -14 -97 -43t-37 -70q0 -30 18.5 -47t51.5 -17zM372 -13q-40 0 -64 19t-30 51q-57 -72 -143 -72q-48 0 -78.5 23.5t-30.5 68.5q0 37 23 67.5t61.5 50.5t78.5 33t86 21v88q0 43 -21.5 64.5t-72.5 21.5q-73 0 -131 -37l-5 7q82 104 216 104
q73 0 107.5 -34t34.5 -91v-272q0 -44 41 -44q23 0 44 16l2 -3q-37 -82 -118 -82zM366 540l-135 78l-136 -78l-9 10l141 175h7l140 -175z" />
    <glyph glyph-name="atilde" unicode="&#xe3;" horiz-adv-x="496" 
d="M211 54q37 0 64 20v157q-60 -14 -97 -43t-37 -70q0 -30 18.5 -47t51.5 -17zM372 -13q-40 0 -64 19t-30 51q-57 -72 -143 -72q-48 0 -78.5 23.5t-30.5 68.5q0 37 23 67.5t61.5 50.5t78.5 33t86 21v88q0 43 -21.5 64.5t-72.5 21.5q-73 0 -131 -37l-5 7q82 104 216 104
q73 0 107.5 -34t34.5 -91v-272q0 -44 41 -44q23 0 44 16l2 -3q-37 -82 -118 -82zM167 686q21 0 70 -16t73 -16q49 0 61 44l12 -1q-1 -48 -21.5 -87t-66.5 -39q-21 0 -70.5 17t-74.5 17q-47 0 -60 -45l-12 1q1 21 5 40.5t13.5 40t27.5 32.5t43 12z" />
    <glyph glyph-name="adieresis" unicode="&#xe4;" horiz-adv-x="496" 
d="M211 54q37 0 64 20v157q-60 -14 -97 -43t-37 -70q0 -30 18.5 -47t51.5 -17zM372 -13q-40 0 -64 19t-30 51q-57 -72 -143 -72q-48 0 -78.5 23.5t-30.5 68.5q0 37 23 67.5t61.5 50.5t78.5 33t86 21v88q0 43 -21.5 64.5t-72.5 21.5q-73 0 -131 -37l-5 7q82 104 216 104
q73 0 107.5 -34t34.5 -91v-272q0 -44 41 -44q23 0 44 16l2 -3q-37 -82 -118 -82zM405 657q0 -29 -20.5 -50t-50.5 -21q-29 0 -49 21t-20 50t20 49.5t49 20.5q30 0 50.5 -20.5t20.5 -49.5zM196 657q0 -29 -20.5 -50t-50.5 -21q-28 0 -48.5 21t-20.5 50t20.5 49.5t48.5 20.5
q30 0 50.5 -20.5t20.5 -49.5z" />
    <glyph glyph-name="aring" unicode="&#xe5;" horiz-adv-x="496" 
d="M211 54q37 0 64 20v157q-60 -14 -97 -43t-37 -70q0 -30 18.5 -47t51.5 -17zM372 -13q-40 0 -64 19t-30 51q-57 -72 -143 -72q-48 0 -78.5 23.5t-30.5 68.5q0 37 23 67.5t61.5 50.5t78.5 33t86 21v88q0 43 -21.5 64.5t-72.5 21.5q-73 0 -131 -37l-5 7q82 104 216 104
q73 0 107.5 -34t34.5 -91v-272q0 -44 41 -44q23 0 44 16l2 -3q-37 -82 -118 -82zM140 653q0 38 26 62.5t65 24.5q40 0 66 -24t26 -63q0 -38 -26.5 -62t-65.5 -24t-65 24t-26 62zM182 653q0 -67 49 -67q23 0 36.5 17.5t13.5 49.5t-13.5 50t-36.5 18t-36 -18t-13 -50z" />
    <glyph glyph-name="ae" unicode="&#xe6;" horiz-adv-x="727" 
d="M704 123q-19 -64 -70.5 -101t-129.5 -37q-132 0 -193 102q-62 -102 -171 -102q-51 0 -82.5 23.5t-31.5 68.5q0 37 23 67.5t61.5 50.5t78.5 33t86 21v88q0 43 -21.5 64.5t-72.5 21.5q-73 0 -131 -37l-5 7q82 104 216 104q80 0 112 -50q59 50 136 50q89 0 142 -63.5
t50 -139.5l-299 1v-11q0 -101 46 -151t124 -50q86 0 127 44zM506 479q-42 0 -70 -46.5t-33 -120.5l171 4v23q0 140 -68 140zM212 54q57 0 93 44q-30 55 -30 132v1q-60 -14 -97 -42.5t-37 -69.5q0 -30 18.5 -47.5t52.5 -17.5z" />
    <glyph glyph-name="ccedilla" unicode="&#xe7;" horiz-adv-x="480" 
d="M171 -256l-4 10q78 31 78 81q0 45 -70 45l-2 2l64 104q-97 6 -154.5 72t-57.5 173q0 115 77 190.5t188 75.5q72 0 134 -25l13 -126l-9 -2q-34 56 -76 95t-77 39q-55 0 -89 -53t-34 -141q0 -99 46.5 -150t122.5 -51q84 0 125 44l6 -4q-19 -62 -67 -98.5t-121 -39.5
l-25 -40q40 -7 64 -28t24 -54q0 -44 -40.5 -74.5t-115.5 -44.5z" />
    <glyph glyph-name="egrave" unicode="&#xe8;" horiz-adv-x="490" 
d="M258 479q-47 0 -73.5 -47t-30.5 -120l184 4v23q0 140 -80 140zM465 138q-21 -69 -74.5 -111t-132.5 -42q-104 0 -168.5 70.5t-64.5 176.5q0 116 71 190.5t167 74.5q91 0 148 -63.5t54 -139.5l-311 1v-3q0 -108 45.5 -158.5t124.5 -50.5q86 0 135 58zM323 540l-9 -9
l-211 136l83 82z" />
    <glyph glyph-name="eacute" unicode="&#xe9;" horiz-adv-x="490" 
d="M258 479q-47 0 -73.5 -47t-30.5 -120l184 4v23q0 140 -80 140zM465 138q-21 -69 -74.5 -111t-132.5 -42q-104 0 -168.5 70.5t-64.5 176.5q0 116 71 190.5t167 74.5q91 0 148 -63.5t54 -139.5l-311 1v-3q0 -108 45.5 -158.5t124.5 -50.5q86 0 135 58zM173 547l137 202
l81 -82l-210 -129z" />
    <glyph glyph-name="ecircumflex" unicode="&#xea;" horiz-adv-x="490" 
d="M258 479q-47 0 -73.5 -47t-30.5 -120l184 4v23q0 140 -80 140zM465 138q-21 -69 -74.5 -111t-132.5 -42q-104 0 -168.5 70.5t-64.5 176.5q0 116 71 190.5t167 74.5q91 0 148 -63.5t54 -139.5l-311 1v-3q0 -108 45.5 -158.5t124.5 -50.5q86 0 135 58zM386 540l-135 78
l-136 -78l-9 10l141 175h7l140 -175z" />
    <glyph glyph-name="edieresis" unicode="&#xeb;" horiz-adv-x="490" 
d="M258 479q-47 0 -73.5 -47t-30.5 -120l184 4v23q0 140 -80 140zM465 138q-21 -69 -74.5 -111t-132.5 -42q-104 0 -168.5 70.5t-64.5 176.5q0 116 71 190.5t167 74.5q91 0 148 -63.5t54 -139.5l-311 1v-3q0 -108 45.5 -158.5t124.5 -50.5q86 0 135 58zM424 657
q0 -29 -20.5 -50t-50.5 -21q-29 0 -49 21t-20 50t20 49.5t49 20.5q30 0 50.5 -20.5t20.5 -49.5zM215 657q0 -29 -20.5 -50t-50.5 -21q-28 0 -48.5 21t-20.5 50t20.5 49.5t48.5 20.5q30 0 50.5 -20.5t20.5 -49.5z" />
    <glyph glyph-name="igrave" unicode="&#xec;" horiz-adv-x="262" 
d="M47 0v2q23 85 23 184v113q0 87 -47 142v6l175 55v-316q0 -121 23 -184v-2h-174zM208 540l-9 -9l-211 136l83 82z" />
    <glyph glyph-name="iacute" unicode="&#xed;" horiz-adv-x="262" 
d="M47 0v2q23 85 23 184v113q0 87 -47 142v6l175 55v-316q0 -121 23 -184v-2h-174zM57 547l137 202l81 -82l-210 -129z" />
    <glyph glyph-name="icircumflex" unicode="&#xee;" horiz-adv-x="262" 
d="M47 0v2q23 85 23 184v113q0 87 -47 142v6l175 55v-316q0 -121 23 -184v-2h-174zM270 540l-135 78l-136 -78l-9 10l141 175h7l140 -175z" />
    <glyph glyph-name="idieresis" unicode="&#xef;" horiz-adv-x="262" 
d="M296 657q0 -29 -21 -50t-50 -21t-49.5 21t-20.5 50t20.5 49.5t49.5 20.5t50 -20.5t21 -49.5zM113 657q0 -29 -21 -50t-50 -21t-49.5 21t-20.5 50t20.5 49.5t49.5 20.5t50 -20.5t21 -49.5zM47 0v2q23 85 23 184v113q0 87 -47 142v6l175 55v-316q0 -121 23 -184v-2h-174z
" />
    <glyph glyph-name="eth" unicode="&#xf0;" horiz-adv-x="586" 
d="M287 -15q-112 0 -187 74t-75 192q0 107 70.5 173t162.5 66q106 0 148 -83q-27 128 -100 227l-122 -82l-12 16l121 82q-63 76 -147 118l4 10q111 -38 192 -96l108 73l12 -17l-103 -69q102 -78 150.5 -179t48.5 -201q0 -131 -75 -217.5t-196 -86.5zM286 5q69 0 102.5 72
t33.5 180q0 42 -4 77q-21 67 -58 100t-80 33q-56 0 -88.5 -56t-32.5 -176q0 -112 33 -171t94 -59z" />
    <glyph glyph-name="ntilde" unicode="&#xf1;" horiz-adv-x="573" 
d="M221 2v-2h-174v2q23 70 23 184v116q0 88 -47 143v2l171 55v-98l4 -1q69 94 164 94q67 0 106 -38.5t39 -103.5v-168q0 -123 24 -185v-2h-175v2q23 66 23 183v153q0 41 -20 66.5t-61 25.5q-59 0 -100 -50v-194q0 -121 23 -184zM223 686q21 0 70 -16t73 -16q49 0 61 44
l12 -1q-1 -48 -21.5 -87t-66.5 -39q-21 0 -70.5 17t-74.5 17q-47 0 -60 -45l-12 1q1 21 5 40.5t13.5 40t27.5 32.5t43 12z" />
    <glyph glyph-name="ograve" unicode="&#xf2;" horiz-adv-x="574" 
d="M287 -15q-107 0 -185 76t-77 179t78 180t184 77t184.5 -77t77.5 -180t-77.5 -179t-184.5 -76zM287 4q63 0 95 66t32 170t-32 170.5t-95 66.5t-94.5 -66.5t-31.5 -170.5q0 -105 31.5 -170.5t94.5 -65.5zM363 540l-9 -9l-211 136l83 82z" />
    <glyph glyph-name="oacute" unicode="&#xf3;" horiz-adv-x="574" 
d="M287 -15q-107 0 -185 76t-77 179t78 180t184 77t184.5 -77t77.5 -180t-77.5 -179t-184.5 -76zM287 4q63 0 95 66t32 170t-32 170.5t-95 66.5t-94.5 -66.5t-31.5 -170.5q0 -105 31.5 -170.5t94.5 -65.5zM212 547l137 202l81 -82l-210 -129z" />
    <glyph glyph-name="ocircumflex" unicode="&#xf4;" horiz-adv-x="574" 
d="M287 -15q-107 0 -185 76t-77 179t78 180t184 77t184.5 -77t77.5 -180t-77.5 -179t-184.5 -76zM287 4q63 0 95 66t32 170t-32 170.5t-95 66.5t-94.5 -66.5t-31.5 -170.5q0 -105 31.5 -170.5t94.5 -65.5zM423 540l-135 78l-136 -78l-9 10l141 175h7l140 -175z" />
    <glyph glyph-name="otilde" unicode="&#xf5;" horiz-adv-x="574" 
d="M287 -15q-107 0 -185 76t-77 179t78 180t184 77t184.5 -77t77.5 -180t-77.5 -179t-184.5 -76zM287 4q63 0 95 66t32 170t-32 170.5t-95 66.5t-94.5 -66.5t-31.5 -170.5q0 -105 31.5 -170.5t94.5 -65.5zM223 686q21 0 70 -16t73 -16q49 0 61 44l12 -1q-1 -48 -21.5 -87
t-66.5 -39q-21 0 -70.5 17t-74.5 17q-47 0 -60 -45l-12 1q1 21 5 40.5t13.5 40t27.5 32.5t43 12z" />
    <glyph glyph-name="odieresis" unicode="&#xf6;" horiz-adv-x="574" 
d="M287 -15q-107 0 -185 76t-77 179t78 180t184 77t184.5 -77t77.5 -180t-77.5 -179t-184.5 -76zM287 4q63 0 95 66t32 170t-32 170.5t-95 66.5t-94.5 -66.5t-31.5 -170.5q0 -105 31.5 -170.5t94.5 -65.5zM461 657q0 -29 -20.5 -50t-50.5 -21q-29 0 -49 21t-20 50t20 49.5
t49 20.5q30 0 50.5 -20.5t20.5 -49.5zM252 657q0 -29 -20.5 -50t-50.5 -21q-28 0 -48.5 21t-20.5 50t20.5 49.5t48.5 20.5q30 0 50.5 -20.5t20.5 -49.5z" />
    <glyph glyph-name="divide" unicode="&#xf7;" horiz-adv-x="546" 
d="M494 296h-442v24h442v-24zM274 68q-31 0 -53 22t-22 53t22 53t53 22q30 0 52 -22t22 -53t-22 -53t-52 -22zM274 393q-31 0 -53 22t-22 53t22 53t53 22q30 0 52 -22t22 -53t-22 -53t-52 -22z" />
    <glyph glyph-name="oslash" unicode="&#xf8;" horiz-adv-x="574" 
d="M287 -15q-71 0 -135 37l-61 -89h-28l70 102q-50 36 -79.5 90t-28.5 115q1 103 78 180t184 77q71 0 136 -39l59 86h29l-69 -100q49 -37 78 -90.5t29 -113.5q0 -103 -77.5 -179t-184.5 -76zM161 240q0 -84 18 -138l206 301q-33 74 -98 74q-63 0 -94.5 -66.5t-31.5 -170.5z
M287 4q63 0 95 66t32 170q0 79 -19 136l-206 -300q34 -72 98 -72z" />
    <glyph glyph-name="ugrave" unicode="&#xf9;" horiz-adv-x="550" 
d="M350 107q-62 -122 -163 -122q-63 0 -97.5 44.5t-34.5 120.5v219q0 70 -40 110v3h167v-324q0 -91 77 -91q57 0 87 58v245q0 70 -42 110v2h169v-295q0 -77 10 -107t37 -53v-2l-169 -38v119zM341 540l-9 -9l-211 136l83 82z" />
    <glyph glyph-name="uacute" unicode="&#xfa;" horiz-adv-x="550" 
d="M350 107q-62 -122 -163 -122q-63 0 -97.5 44.5t-34.5 120.5v219q0 70 -40 110v3h167v-324q0 -91 77 -91q57 0 87 58v245q0 70 -42 110v2h169v-295q0 -77 10 -107t37 -53v-2l-169 -38v119zM190 547l137 202l81 -82l-210 -129z" />
    <glyph glyph-name="ucircumflex" unicode="&#xfb;" horiz-adv-x="550" 
d="M350 107q-62 -122 -163 -122q-63 0 -97.5 44.5t-34.5 120.5v219q0 70 -40 110v3h167v-324q0 -91 77 -91q57 0 87 58v245q0 70 -42 110v2h169v-295q0 -77 10 -107t37 -53v-2l-169 -38v119zM403 540l-135 78l-136 -78l-9 10l141 175h7l140 -175z" />
    <glyph glyph-name="udieresis" unicode="&#xfc;" horiz-adv-x="550" 
d="M350 107q-62 -122 -163 -122q-63 0 -97.5 44.5t-34.5 120.5v219q0 70 -40 110v3h167v-324q0 -91 77 -91q57 0 87 58v245q0 70 -42 110v2h169v-295q0 -77 10 -107t37 -53v-2l-169 -38v119zM442 657q0 -29 -20.5 -50t-50.5 -21q-29 0 -49 21t-20 50t20 49.5t49 20.5
q30 0 50.5 -20.5t20.5 -49.5zM233 657q0 -29 -20.5 -50t-50.5 -21q-28 0 -48.5 21t-20.5 50t20.5 49.5t48.5 20.5q30 0 50.5 -20.5t20.5 -49.5z" />
    <glyph glyph-name="yacute" unicode="&#xfd;" horiz-adv-x="463" 
d="M31 -225l-1 112q143 -6 180 89l-145 372q-39 99 -68 132v2h203v-2q-12 -18 -13 -54t16 -87l73 -192l76 194q16 50 10.5 84.5t-22.5 54.5v2h120v-2q-50 -54 -83 -136l-146 -366q-24 -58 -47 -96.5t-48.5 -59.5t-48.5 -30.5t-56 -16.5zM189 547l137 202l81 -82l-210 -129z
" />
    <glyph glyph-name="thorn" unicode="&#xfe;" horiz-adv-x="581" 
d="M301 3q55 0 86.5 59.5t31.5 161.5q0 201 -132 201q-56 0 -93 -33v-219q0 -88 31.5 -129t75.5 -41zM217 -223v-2h-174v2q23 70 23 184v618q0 89 -47 142v2l175 55v-363h2q66 82 165 82q86 0 138.5 -69t52.5 -180q0 -115 -65.5 -189t-188.5 -74q-55 0 -104 17v-41
q0 -118 23 -184z" />
    <glyph glyph-name="ydieresis" unicode="&#xff;" horiz-adv-x="463" 
d="M31 -225l-1 112q143 -6 180 89l-145 372q-39 99 -68 132v2h203v-2q-12 -18 -13 -54t16 -87l73 -192l76 194q16 50 10.5 84.5t-22.5 54.5v2h120v-2q-50 -54 -83 -136l-146 -366q-24 -58 -47 -96.5t-48.5 -59.5t-48.5 -30.5t-56 -16.5zM422 657q0 -29 -20.5 -50t-50.5 -21
q-29 0 -49 21t-20 50t20 49.5t49 20.5q30 0 50.5 -20.5t20.5 -49.5zM213 657q0 -29 -20.5 -50t-50.5 -21q-28 0 -48.5 21t-20.5 50t20.5 49.5t48.5 20.5q30 0 50.5 -20.5t20.5 -49.5z" />
    <glyph glyph-name="Amacron" unicode="&#x100;" horiz-adv-x="667" 
d="M383 298l-108 292l-108 -292h216zM158 2v-2h-158v2q32 32 54 72.5t47 106.5l207 557h56l211 -565q44 -117 92 -171v-2h-244v2q44 65 2 182l-34 92h-232l-20 -53q-55 -147 19 -221zM173 831v57h329v-57h-329z" />
    <glyph glyph-name="amacron" unicode="&#x101;" horiz-adv-x="496" 
d="M211 54q37 0 64 20v157q-60 -14 -97 -43t-37 -70q0 -30 18.5 -47t51.5 -17zM372 -13q-40 0 -64 19t-30 51q-57 -72 -143 -72q-48 0 -78.5 23.5t-30.5 68.5q0 37 23 67.5t61.5 50.5t78.5 33t86 21v88q0 43 -21.5 64.5t-72.5 21.5q-73 0 -131 -37l-5 7q82 104 216 104
q73 0 107.5 -34t34.5 -91v-272q0 -44 41 -44q23 0 44 16l2 -3q-37 -82 -118 -82zM86 589v58h290v-58h-290z" />
    <glyph glyph-name="Abreve" unicode="&#x102;" horiz-adv-x="667" 
d="M383 298l-108 292l-108 -292h216zM158 2v-2h-158v2q32 32 54 72.5t47 106.5l207 557h56l211 -565q44 -117 92 -171v-2h-244v2q44 65 2 182l-34 92h-232l-20 -53q-55 -147 19 -221zM336 870q101 0 130 77h11q-1 -24 -8.5 -48t-22.5 -48t-43.5 -39.5t-66.5 -15.5
q-50 0 -83.5 27t-45 59t-12.5 65h11q28 -77 130 -77z" />
    <glyph glyph-name="abreve" unicode="&#x103;" horiz-adv-x="496" 
d="M211 54q37 0 64 20v157q-60 -14 -97 -43t-37 -70q0 -30 18.5 -47t51.5 -17zM372 -13q-40 0 -64 19t-30 51q-57 -72 -143 -72q-48 0 -78.5 23.5t-30.5 68.5q0 37 23 67.5t61.5 50.5t78.5 33t86 21v88q0 43 -21.5 64.5t-72.5 21.5q-73 0 -131 -37l-5 7q82 104 216 104
q73 0 107.5 -34t34.5 -91v-272q0 -44 41 -44q23 0 44 16l2 -3q-37 -82 -118 -82zM231 638q87 0 111 69h11q-2 -51 -31.5 -94.5t-92.5 -43.5q-33 0 -57.5 14t-37 36.5t-18.5 44t-7 43.5h11q22 -69 111 -69z" />
    <glyph glyph-name="Aogonek" unicode="&#x104;" horiz-adv-x="667" 
d="M383 -248q-43 0 -69 23t-26 62q0 42 28 74.5t86 75.5q43 32 43 94q0 47 -20 103l-34 92h-232l-20 -53q-56 -146 19 -221v-2h-158v2q32 32 54 72.5t47 106.5l207 557h56l211 -565q44 -117 92 -171v-2h-212q-76 -64 -76 -121q0 -27 14 -42t40 -15q40 0 74 39l9 -7
q-52 -102 -133 -102zM383 298l-107 291l-109 -291h216z" />
    <glyph glyph-name="aogonek" unicode="&#x105;" horiz-adv-x="496" 
d="M342 -248q-42 0 -68 23.5t-26 61.5q0 41 30 75.5t89 74.5q-38 2 -61 21t-28 49q-57 -72 -143 -72q-48 0 -78.5 23.5t-30.5 68.5q0 37 23 67.5t61.5 50.5t78.5 33t86 21v88q0 43 -21.5 64.5t-72.5 21.5q-73 0 -131 -37l-5 7q82 104 216 104q73 0 107.5 -34t34.5 -91v-272
q0 -44 41 -44q23 0 44 16l2 -3q-16 -36 -44 -58q-9 -7 -29.5 -19t-31.5 -20q-46 -35 -46 -90q0 -60 54 -60q40 0 74 39l9 -7q-52 -102 -134 -102zM211 54q37 0 64 20v157q-60 -14 -97 -43t-37 -70q0 -30 18.5 -47t51.5 -17z" />
    <glyph glyph-name="Cacute" unicode="&#x106;" horiz-adv-x="759" 
d="M714 248l-20 -190q-30 -21 -105 -47t-166 -26q-173 0 -283.5 107.5t-110.5 269.5q0 163 116 274t292 111q124 0 253 -43l20 -173l-9 -3q-80 111 -137.5 154.5t-135.5 43.5q-64 0 -111.5 -26.5t-75.5 -76.5t-41 -114.5t-13 -146.5q0 -165 60 -260.5t177 -95.5
q48 0 88 16.5t74 52t60 75.5t59 101zM326 794l212 165l52 -103l-258 -74z" />
    <glyph glyph-name="cacute" unicode="&#x107;" horiz-adv-x="480" 
d="M446 127l6 -4q-20 -64 -70.5 -101t-126.5 -37q-104 0 -167 67.5t-63 178.5q0 115 77 190.5t188 75.5q72 0 134 -25l13 -126l-9 -2q-34 56 -76 95t-77 39q-55 0 -89 -53t-34 -141q0 -99 46.5 -150t122.5 -51q84 0 125 44zM178 547l137 202l81 -82l-210 -129z" />
    <glyph glyph-name="Ccircumflex" unicode="&#x108;" horiz-adv-x="759" 
d="M714 248l-20 -190q-30 -21 -105 -47t-166 -26q-173 0 -283.5 107.5t-110.5 269.5q0 163 116 274t292 111q124 0 253 -43l20 -173l-9 -3q-80 111 -137.5 154.5t-135.5 43.5q-64 0 -111.5 -26.5t-75.5 -76.5t-41 -114.5t-13 -146.5q0 -165 60 -260.5t177 -95.5
q48 0 88 16.5t74 52t60 75.5t59 101zM577 782l-150 68l-151 -68l-9 10l156 158h7l156 -158z" />
    <glyph glyph-name="ccircumflex" unicode="&#x109;" horiz-adv-x="480" 
d="M446 127l6 -4q-20 -64 -70.5 -101t-126.5 -37q-104 0 -167 67.5t-63 178.5q0 115 77 190.5t188 75.5q72 0 134 -25l13 -126l-9 -2q-34 56 -76 95t-77 39q-55 0 -89 -53t-34 -141q0 -99 46.5 -150t122.5 -51q84 0 125 44zM391 540l-135 78l-136 -78l-9 10l141 175h7
l140 -175z" />
    <glyph glyph-name="Cdotaccent" unicode="&#x10a;" horiz-adv-x="759" 
d="M714 248l-20 -190q-30 -21 -105 -47t-166 -26q-173 0 -283.5 107.5t-110.5 269.5q0 163 116 274t292 111q124 0 253 -43l20 -173l-9 -3q-80 111 -137.5 154.5t-135.5 43.5q-64 0 -111.5 -26.5t-75.5 -76.5t-41 -114.5t-13 -146.5q0 -165 60 -260.5t177 -95.5
q48 0 88 16.5t74 52t60 75.5t59 101zM495 868q0 -29 -20.5 -49.5t-48.5 -20.5q-29 0 -49.5 20.5t-20.5 49.5t20.5 50.5t49.5 21.5q28 0 48.5 -21.5t20.5 -50.5z" />
    <glyph glyph-name="cdotaccent" unicode="&#x10b;" horiz-adv-x="480" 
d="M446 127l6 -4q-20 -64 -70.5 -101t-126.5 -37q-104 0 -167 67.5t-63 178.5q0 115 77 190.5t188 75.5q72 0 134 -25l13 -126l-9 -2q-34 56 -76 95t-77 39q-55 0 -89 -53t-34 -141q0 -99 46.5 -150t122.5 -51q84 0 125 44zM328 657q0 -29 -21 -50t-50 -21t-49.5 21
t-20.5 50t20.5 49.5t49.5 20.5t50 -20.5t21 -49.5z" />
    <glyph glyph-name="Ccaron" unicode="&#x10c;" horiz-adv-x="759" 
d="M714 248l-20 -190q-30 -21 -105 -47t-166 -26q-173 0 -283.5 107.5t-110.5 269.5q0 163 116 274t292 111q124 0 253 -43l20 -173l-9 -3q-80 111 -137.5 154.5t-135.5 43.5q-64 0 -111.5 -26.5t-75.5 -76.5t-41 -114.5t-13 -146.5q0 -165 60 -260.5t177 -95.5
q48 0 88 16.5t74 52t60 75.5t59 101zM430 782h-8l-156 158l9 10l151 -68l151 68l8 -10z" />
    <glyph glyph-name="ccaron" unicode="&#x10d;" horiz-adv-x="480" 
d="M446 127l6 -4q-20 -64 -70.5 -101t-126.5 -37q-104 0 -167 67.5t-63 178.5q0 115 77 190.5t188 75.5q72 0 134 -25l13 -126l-9 -2q-34 56 -76 95t-77 39q-55 0 -89 -53t-34 -141q0 -99 46.5 -150t122.5 -51q84 0 125 44zM254 540l-140 175l9 10l135 -78l135 78l9 -10
l-140 -175h-8z" />
    <glyph glyph-name="Dcaron" unicode="&#x10e;" horiz-adv-x="776" 
d="M46 0v2q24 46 32 80.5t8 93.5v380q0 59 -8 93.5t-32 80.5v2q56 0 135 2t148 2q196 0 306.5 -95.5t110.5 -271.5q0 -177 -108.5 -273t-308.5 -96h-283zM323 714q-19 0 -93 -2v-690h96q144 2 203.5 83.5t59.5 249.5q0 185 -64 272.5t-202 86.5zM373 782h-8l-156 158l9 10
l151 -68l151 68l8 -10z" />
    <glyph glyph-name="dcaron" unicode="&#x10f;" horiz-adv-x="587" 
d="M283 59q63 0 103 47v264q-19 109 -98 109q-58 0 -92.5 -59.5t-34.5 -163.5q0 -95 31 -146t91 -51zM390 86h-2q-25 -44 -68.5 -72.5t-100.5 -28.5q-86 0 -138 65.5t-52 168.5q0 117 69.5 197.5t192.5 80.5q52 0 95 -15v96q0 90 -47 143v2l175 55v-566q0 -88 10.5 -123
t37.5 -62v-2l-172 -38v99zM558 574l18 201h100l-106 -203z" />
    <glyph glyph-name="Dcroat" unicode="&#x110;" horiz-adv-x="783" 
d="M3 350v22h90v184q0 59 -8 93.5t-32 80.5v2q56 0 135 2t148 2q196 0 306.5 -95.5t110.5 -271.5q0 -177 -108.5 -273t-308.5 -96h-283v2q24 46 32 80.5t8 93.5v174h-90zM330 714q-19 0 -93 -2v-340h150v-22h-150v-328h96q144 2 203.5 83.5t59.5 249.5q0 185 -64 272.5
t-202 86.5z" />
    <glyph glyph-name="dcroat" unicode="&#x111;" horiz-adv-x="587" 
d="M390 86h-2q-25 -44 -68.5 -72.5t-100.5 -28.5q-86 0 -138 65.5t-52 168.5q0 117 69.5 197.5t192.5 80.5q52 0 95 -15v96v1h-166v21h165q-4 72 -46 121v2l175 55v-178h61v-21h-61v-367q0 -88 10.5 -123t37.5 -62v-2l-172 -38v99zM283 59q63 0 103 47v264q-19 109 -98 109
q-58 0 -92.5 -59.5t-34.5 -163.5q0 -95 31 -146t91 -51z" />
    <glyph glyph-name="Emacron" unicode="&#x112;" horiz-adv-x="640" 
d="M625 213l-47 -213h-532v2q22 55 30.5 92.5t8.5 91.5v360q0 55 -8.5 92.5t-30.5 91.5v2h488l38 -185l-9 -3q-8 8 -54.5 60.5t-76 77t-51.5 25.5l-151 8v-332h74q18 0 38 12t32 23t35 36.5t28 30.5h9v-226h-9q-8 8 -28 30t-33.5 35t-33.5 25t-38 12h-74v-344l163 7
q85 4 223 192zM155 831v57h329v-57h-329z" />
    <glyph glyph-name="emacron" unicode="&#x113;" horiz-adv-x="490" 
d="M258 479q-47 0 -73.5 -47t-30.5 -120l184 4v23q0 140 -80 140zM465 138q-21 -69 -74.5 -111t-132.5 -42q-104 0 -168.5 70.5t-64.5 176.5q0 116 71 190.5t167 74.5q91 0 148 -63.5t54 -139.5l-311 1v-3q0 -108 45.5 -158.5t124.5 -50.5q86 0 135 58zM105 589v58h290v-58
h-290z" />
    <glyph glyph-name="Ebreve" unicode="&#x114;" horiz-adv-x="640" 
d="M625 213l-47 -213h-532v2q22 55 30.5 92.5t8.5 91.5v360q0 55 -8.5 92.5t-30.5 91.5v2h488l38 -185l-9 -3q-8 8 -54.5 60.5t-76 77t-51.5 25.5l-151 8v-332h74q18 0 38 12t32 23t35 36.5t28 30.5h9v-226h-9q-8 8 -28 30t-33.5 35t-33.5 25t-38 12h-74v-344l163 7
q85 4 223 192zM319 870q101 0 130 77h11q-1 -24 -8.5 -48t-22.5 -48t-43.5 -39.5t-66.5 -15.5q-50 0 -83.5 27t-45 59t-12.5 65h11q28 -77 130 -77z" />
    <glyph glyph-name="ebreve" unicode="&#x115;" horiz-adv-x="490" 
d="M258 479q-47 0 -73.5 -47t-30.5 -120l184 4v23q0 140 -80 140zM465 138q-21 -69 -74.5 -111t-132.5 -42q-104 0 -168.5 70.5t-64.5 176.5q0 116 71 190.5t167 74.5q91 0 148 -63.5t54 -139.5l-311 1v-3q0 -108 45.5 -158.5t124.5 -50.5q86 0 135 58zM250 638q87 0 111 69
h11q-2 -51 -31.5 -94.5t-92.5 -43.5q-33 0 -57.5 14t-37 36.5t-18.5 44t-7 43.5h11q22 -69 111 -69z" />
    <glyph glyph-name="Edotaccent" unicode="&#x116;" horiz-adv-x="640" 
d="M625 213l-47 -213h-532v2q22 55 30.5 92.5t8.5 91.5v360q0 55 -8.5 92.5t-30.5 91.5v2h488l38 -185l-9 -3q-8 8 -54.5 60.5t-76 77t-51.5 25.5l-151 8v-332h74q18 0 38 12t32 23t35 36.5t28 30.5h9v-226h-9q-8 8 -28 30t-33.5 35t-33.5 25t-38 12h-74v-344l163 7
q85 4 223 192zM388 868q0 -29 -20.5 -49.5t-48.5 -20.5q-29 0 -49.5 20.5t-20.5 49.5t20.5 50.5t49.5 21.5q28 0 48.5 -21.5t20.5 -50.5z" />
    <glyph glyph-name="edotaccent" unicode="&#x117;" horiz-adv-x="490" 
d="M258 479q-47 0 -73.5 -47t-30.5 -120l184 4v23q0 140 -80 140zM465 138q-21 -69 -74.5 -111t-132.5 -42q-104 0 -168.5 70.5t-64.5 176.5q0 116 71 190.5t167 74.5q91 0 148 -63.5t54 -139.5l-311 1v-3q0 -108 45.5 -158.5t124.5 -50.5q86 0 135 58zM322 657
q0 -29 -21 -50t-50 -21t-49.5 21t-20.5 50t20.5 49.5t49.5 20.5t50 -20.5t21 -49.5z" />
    <glyph glyph-name="Eogonek" unicode="&#x118;" horiz-adv-x="640" 
d="M625 213l-47 -213h-111q-77 -65 -77 -121q0 -26 14.5 -41.5t39.5 -15.5q40 0 74 39l9 -7q-50 -102 -134 -102q-42 0 -68 24t-26 62q0 43 32.5 78.5t100.5 83.5h-386v2q22 55 30.5 92.5t8.5 91.5v360q0 55 -8.5 92.5t-30.5 91.5v2h488l38 -185l-9 -3q-8 8 -54.5 60.5
t-76 77t-51.5 25.5l-151 8v-332h74q18 0 38 12t32 23t35 36.5t28 30.5h9v-226h-9q-8 8 -28 30t-33.5 35t-33.5 25t-38 12h-74v-344l163 7q85 4 223 192z" />
    <glyph glyph-name="eogonek" unicode="&#x119;" horiz-adv-x="490" 
d="M392 -146q-50 -102 -134 -102q-42 0 -67.5 23t-25.5 63q0 80 124 148q-6 -1 -33 -1q-107 0 -169 67.5t-62 177.5q0 118 68.5 192.5t165.5 74.5q92 0 145.5 -63t50.5 -140l-303 1v-11q0 -101 46.5 -151t124.5 -50q86 0 130 44l5 -4q-19 -61 -71 -101q-14 -10 -36.5 -22
t-29.5 -16q-66 -41 -66 -103q0 -28 14.5 -43.5t41.5 -15.5q38 0 72 39zM256 479q-41 0 -69.5 -46.5t-33.5 -119.5l175 3v23q0 140 -72 140z" />
    <glyph glyph-name="Ecaron" unicode="&#x11a;" horiz-adv-x="640" 
d="M625 213l-47 -213h-532v2q22 55 30.5 92.5t8.5 91.5v360q0 55 -8.5 92.5t-30.5 91.5v2h488l38 -185l-9 -3q-8 8 -54.5 60.5t-76 77t-51.5 25.5l-151 8v-332h74q18 0 38 12t32 23t35 36.5t28 30.5h9v-226h-9q-8 8 -28 30t-33.5 35t-33.5 25t-38 12h-74v-344l163 7
q85 4 223 192zM323 782h-8l-156 158l9 10l151 -68l151 68l8 -10z" />
    <glyph glyph-name="ecaron" unicode="&#x11b;" horiz-adv-x="490" 
d="M258 479q-47 0 -73.5 -47t-30.5 -120l184 4v23q0 140 -80 140zM465 138q-21 -69 -74.5 -111t-132.5 -42q-104 0 -168.5 70.5t-64.5 176.5q0 116 71 190.5t167 74.5q91 0 148 -63.5t54 -139.5l-311 1v-3q0 -108 45.5 -158.5t124.5 -50.5q86 0 135 58zM248 540l-140 175
l9 10l135 -78l135 78l9 -10l-140 -175h-8z" />
    <glyph glyph-name="Gcircumflex" unicode="&#x11c;" horiz-adv-x="794" 
d="M727 94q-74 -55 -132 -78q-80 -31 -173 -31q-177 0 -285 106.5t-108 270.5q0 166 113 275.5t305 109.5q104 0 251 -43l20 -173l-10 -3q-77 108 -137 153t-136 45q-125 0 -186.5 -99.5t-61.5 -264.5q0 -166 58 -261t178 -95q77 0 124.5 40t48.5 116q1 55 -10.5 90.5
t-40.5 80.5v2h222v-2q-24 -50 -32 -88t-8 -105v-46zM577 782l-150 68l-151 -68l-9 10l156 158h7l156 -158z" />
    <glyph glyph-name="gcircumflex" unicode="&#x11d;" horiz-adv-x="540" 
d="M244 171q78 0 78 153q0 155 -79 155q-76 0 -76 -155q0 -153 77 -153zM512 -64q-2 -72 -75.5 -117.5t-203.5 -45.5q-102 0 -164 28.5t-62 78.5q0 34 28 57t69 32q-67 26 -67 88q0 47 31 76.5t76 41.5q-47 22 -74.5 61.5t-27.5 87.5q0 74 57.5 123.5t143.5 49.5
q82 0 139 -46l132 79l2 -2v-100h-4l-113 8q47 -49 47 -112q0 -72 -58 -121.5t-144 -49.5q-46 0 -88 16q-32 -18 -32 -47q0 -25 23 -36.5t73 -13.5l95 -3q91 -4 144.5 -37.5t52.5 -95.5zM271 -196q79 0 122 22t43 58q0 33 -33.5 47.5t-100.5 16.5l-104 5q-46 2 -80 12
q-21 -23 -21 -58q0 -51 46.5 -77t127.5 -26zM390 540l-135 78l-136 -78l-9 10l141 175h7l140 -175z" />
    <glyph glyph-name="Gbreve" unicode="&#x11e;" horiz-adv-x="794" 
d="M727 94q-74 -55 -132 -78q-80 -31 -173 -31q-177 0 -285 106.5t-108 270.5q0 166 113 275.5t305 109.5q104 0 251 -43l20 -173l-10 -3q-77 108 -137 153t-136 45q-125 0 -186.5 -99.5t-61.5 -264.5q0 -166 58 -261t178 -95q77 0 124.5 40t48.5 116q1 55 -10.5 90.5
t-40.5 80.5v2h222v-2q-24 -50 -32 -88t-8 -105v-46zM426 870q101 0 130 77h11q-1 -24 -8.5 -48t-22.5 -48t-43.5 -39.5t-66.5 -15.5q-50 0 -83.5 27t-45 59t-12.5 65h11q28 -77 130 -77z" />
    <glyph glyph-name="gbreve" unicode="&#x11f;" horiz-adv-x="540" 
d="M244 171q78 0 78 153q0 155 -79 155q-76 0 -76 -155q0 -153 77 -153zM512 -64q-2 -72 -75.5 -117.5t-203.5 -45.5q-102 0 -164 28.5t-62 78.5q0 34 28 57t69 32q-67 26 -67 88q0 47 31 76.5t76 41.5q-47 22 -74.5 61.5t-27.5 87.5q0 74 57.5 123.5t143.5 49.5
q82 0 139 -46l132 79l2 -2v-100h-4l-113 8q47 -49 47 -112q0 -72 -58 -121.5t-144 -49.5q-46 0 -88 16q-32 -18 -32 -47q0 -25 23 -36.5t73 -13.5l95 -3q91 -4 144.5 -37.5t52.5 -95.5zM271 -196q79 0 122 22t43 58q0 33 -33.5 47.5t-100.5 16.5l-104 5q-46 2 -80 12
q-21 -23 -21 -58q0 -51 46.5 -77t127.5 -26zM256 638q87 0 111 69h11q-2 -51 -31.5 -94.5t-92.5 -43.5q-33 0 -57.5 14t-37 36.5t-18.5 44t-7 43.5h11q22 -69 111 -69z" />
    <glyph glyph-name="Gdotaccent" unicode="&#x120;" horiz-adv-x="794" 
d="M727 94q-74 -55 -132 -78q-80 -31 -173 -31q-177 0 -285 106.5t-108 270.5q0 166 113 275.5t305 109.5q104 0 251 -43l20 -173l-10 -3q-77 108 -137 153t-136 45q-125 0 -186.5 -99.5t-61.5 -264.5q0 -166 58 -261t178 -95q77 0 124.5 40t48.5 116q1 55 -10.5 90.5
t-40.5 80.5v2h222v-2q-24 -50 -32 -88t-8 -105v-46zM495 868q0 -29 -20.5 -49.5t-48.5 -20.5q-29 0 -49.5 20.5t-20.5 49.5t20.5 50.5t49.5 21.5q28 0 48.5 -21.5t20.5 -50.5z" />
    <glyph glyph-name="gdotaccent" unicode="&#x121;" horiz-adv-x="540" 
d="M244 171q78 0 78 153q0 155 -79 155q-76 0 -76 -155q0 -153 77 -153zM512 -64q-2 -72 -75.5 -117.5t-203.5 -45.5q-102 0 -164 28.5t-62 78.5q0 34 28 57t69 32q-67 26 -67 88q0 47 31 76.5t76 41.5q-47 22 -74.5 61.5t-27.5 87.5q0 74 57.5 123.5t143.5 49.5
q82 0 139 -46l132 79l2 -2v-100h-4l-113 8q47 -49 47 -112q0 -72 -58 -121.5t-144 -49.5q-46 0 -88 16q-32 -18 -32 -47q0 -25 23 -36.5t73 -13.5l95 -3q91 -4 144.5 -37.5t52.5 -95.5zM271 -196q79 0 122 22t43 58q0 33 -33.5 47.5t-100.5 16.5l-104 5q-46 2 -80 12
q-21 -23 -21 -58q0 -51 46.5 -77t127.5 -26zM326 657q0 -29 -21 -50t-50 -21t-49.5 21t-20.5 50t20.5 49.5t49.5 20.5t50 -20.5t21 -49.5z" />
    <glyph glyph-name="uni0122" unicode="&#x122;" horiz-adv-x="794" 
d="M727 94q-74 -55 -132 -78q-80 -31 -173 -31q-177 0 -285 106.5t-108 270.5q0 166 113 275.5t305 109.5q104 0 251 -43l20 -173l-10 -3q-77 108 -137 153t-136 45q-125 0 -186.5 -99.5t-61.5 -264.5q0 -166 58 -261t178 -95q77 0 124.5 40t48.5 116q1 55 -10.5 90.5
t-40.5 80.5v2h222v-2q-24 -50 -32 -88t-8 -105v-46zM360 -244l-3 5q24 17 38.5 40t14.5 42q0 22 -43 65v1l82 53q45 -28 45 -71q0 -38 -41.5 -75.5t-92.5 -59.5z" />
    <glyph glyph-name="uni0123" unicode="&#x123;" horiz-adv-x="540" 
d="M244 171q78 0 78 153q0 155 -79 155q-76 0 -76 -155q0 -153 77 -153zM512 -64q-2 -72 -75.5 -117.5t-203.5 -45.5q-102 0 -164 28.5t-62 78.5q0 34 28 57t69 32q-67 26 -67 88q0 47 31 76.5t76 41.5q-47 22 -74.5 61.5t-27.5 87.5q0 74 57.5 123.5t143.5 49.5
q82 0 139 -46l132 79l2 -2v-100h-4l-113 8q47 -49 47 -112q0 -72 -58 -121.5t-144 -49.5q-46 0 -88 16q-32 -18 -32 -47q0 -25 23 -36.5t73 -13.5l95 -3q91 -4 144.5 -37.5t52.5 -95.5zM271 -196q79 0 122 22t43 58q0 33 -33.5 47.5t-100.5 16.5l-104 5q-46 2 -80 12
q-21 -23 -21 -58q0 -51 46.5 -77t127.5 -26zM335 783l3 -5q-24 -17 -38.5 -40t-14.5 -42q0 -22 43 -65v-1l-82 -53q-45 28 -45 71q0 38 41.5 75.5t92.5 59.5z" />
    <glyph glyph-name="Hcircumflex" unicode="&#x124;" horiz-adv-x="781" 
d="M46 0v2q24 50 32 88.5t8 104.5v342q0 66 -8 104t-32 89v2h224v-2q-24 -50 -32 -88.5t-8 -103.5v-152h321v151q0 66 -8.5 104.5t-32.5 88.5v2h225v-2q-23 -51 -31.5 -89.5t-8.5 -102.5v-343q0 -65 8.5 -103.5t31.5 -89.5v-2h-225v2q24 50 32.5 88.5t8.5 104.5v170h-321
v-170q0 -66 8 -104.5t32 -88.5v-2h-224zM541 782l-150 68l-151 -68l-9 10l156 158h7l156 -158z" />
    <glyph glyph-name="hcircumflex" unicode="&#x125;" horiz-adv-x="570" 
d="M218 0h-174v2q22 71 22 184v393q0 88 -47 143v2l175 54v-375q70 94 164 94q67 0 106.5 -38.5t39.5 -103.5v-169q0 -121 23 -184v-2h-174v2q23 66 23 183v153q0 40 -20 66t-61 26q-56 0 -101 -50v-194q0 -118 24 -184v-2zM436 796l-150 68l-151 -68l-9 10l156 158h7
l156 -158z" />
    <glyph glyph-name="Hbar" unicode="&#x126;" horiz-adv-x="795" 
d="M53 0v2q24 50 32 88.5t8 104.5v340h-90v22h90q-1 55 -9.5 90.5t-30.5 82.5v2h224v-2q-22 -47 -30.5 -82.5t-9.5 -90.5h321q-2 92 -41 173v2h225v-2q-22 -48 -30.5 -83.5t-9.5 -89.5h90v-22h-90v-340q0 -65 8.5 -103.5t31.5 -89.5v-2h-225v2q24 50 32.5 88.5t8.5 104.5
v170h-321v-170q0 -66 8 -104.5t32 -88.5v-2h-224zM237 386h321v149h-321v-149z" />
    <glyph glyph-name="hbar" unicode="&#x127;" horiz-adv-x="570" 
d="M218 0h-174v2q22 71 22 184v393h-63v21h62q-4 72 -46 122v2l175 54v-178h164v-21h-164v-176q70 94 164 94q67 0 106.5 -38.5t39.5 -103.5v-169q0 -121 23 -184v-2h-174v2q23 66 23 183v153q0 40 -20 66t-61 26q-56 0 -101 -50v-194q0 -118 24 -184v-2z" />
    <glyph glyph-name="Itilde" unicode="&#x128;" horiz-adv-x="316" 
d="M46 0v2q24 51 32 89t8 104v342q0 66 -8 104t-32 89v2h224v-2q-24 -50 -32 -88.5t-8 -103.5v-343q0 -66 8 -104.5t32 -88.5v-2h-224zM80 910q30 0 84 -19.5t86 -19.5q28 0 44 11.5t24 40.5l12 -2q0 -132 -95 -132q-30 0 -84 19.5t-86 19.5q-28 0 -44 -12t-24 -41l-12 2
q0 27 3.5 47t12.5 41.5t29 33t50 11.5z" />
    <glyph glyph-name="itilde" unicode="&#x129;" horiz-adv-x="262" 
d="M47 0v2q23 85 23 184v113q0 87 -47 142v6l175 55v-316q0 -121 23 -184v-2h-174zM64 686q22 0 70 -16t73 -16q49 0 61 44l12 -1q-1 -48 -21.5 -87t-66.5 -39q-21 0 -70.5 17t-74.5 17q-47 0 -60 -45l-12 1q1 21 5 40.5t13.5 40t27.5 32.5t43 12z" />
    <glyph glyph-name="Imacron" unicode="&#x12a;" horiz-adv-x="316" 
d="M46 0v2q24 51 32 89t8 104v342q0 66 -8 104t-32 89v2h224v-2q-24 -50 -32 -88.5t-8 -103.5v-343q0 -66 8 -104.5t32 -88.5v-2h-224zM-6 831v57h329v-57h-329z" />
    <glyph glyph-name="imacron" unicode="&#x12b;" horiz-adv-x="262" 
d="M7 589v58h226v-58h-226zM47 0v2q23 85 23 184v113q0 87 -47 142v6l175 55v-316q0 -121 23 -184v-2h-174z" />
    <glyph glyph-name="Ibreve" unicode="&#x12c;" horiz-adv-x="316" 
d="M46 0v2q24 51 32 89t8 104v342q0 66 -8 104t-32 89v2h224v-2q-24 -50 -32 -88.5t-8 -103.5v-343q0 -66 8 -104.5t32 -88.5v-2h-224zM158 870q101 0 130 77h11q-1 -24 -8.5 -48t-22.5 -48t-43.5 -39.5t-66.5 -15.5q-50 0 -83.5 27t-45 59t-12.5 65h11q28 -77 130 -77z" />
    <glyph glyph-name="ibreve" unicode="&#x12d;" horiz-adv-x="262" 
d="M47 0v2q23 85 23 184v113q0 87 -47 142v6l175 55v-316q0 -121 23 -184v-2h-174zM134 638q87 0 111 69h11q-2 -51 -31.5 -94.5t-92.5 -43.5q-33 0 -57.5 14t-37 36.5t-18.5 44t-7 43.5h11q22 -69 111 -69z" />
    <glyph glyph-name="Iogonek" unicode="&#x12e;" horiz-adv-x="316" 
d="M46 0v2q24 51 32 89t8 104v342q0 66 -8 104t-32 89v2h224v-2q-24 -50 -32 -88.5t-8 -103.5v-343q0 -66 8 -104.5t32 -88.5v-2h-56q-77 -65 -77 -121q0 -26 14.5 -41.5t39.5 -15.5q40 0 74 39l9 -7q-50 -102 -134 -102q-42 0 -68 24t-26 62q0 43 32.5 78.5t100.5 83.5
h-133z" />
    <glyph glyph-name="iogonek" unicode="&#x12f;" horiz-adv-x="262" 
d="M46 0v2q24 89 24 184v113q0 88 -48 142v6l175 55v-316q0 -118 23 -184v-2h-35q-77 -65 -77 -121q0 -26 14.5 -41.5t39.5 -15.5q40 0 74 39l9 -7q-50 -102 -134 -102q-42 0 -68 24t-26 62q0 43 32.5 78.5t100.5 83.5h-104zM197 657q0 -30 -21.5 -51t-51.5 -21t-51 21
t-21 51q0 29 21 50.5t51 21.5t51.5 -21.5t21.5 -50.5z" />
    <glyph glyph-name="Idotaccent" unicode="&#x130;" horiz-adv-x="316" 
d="M46 0v2q24 51 32 89t8 104v342q0 66 -8 104t-32 89v2h224v-2q-24 -50 -32 -88.5t-8 -103.5v-343q0 -66 8 -104.5t32 -88.5v-2h-224zM227 868q0 -29 -20.5 -49.5t-48.5 -20.5q-29 0 -49.5 20.5t-20.5 49.5t20.5 50.5t49.5 21.5q28 0 48.5 -21.5t20.5 -50.5z" />
    <glyph glyph-name="dotlessi" unicode="&#x131;" horiz-adv-x="262" 
d="M47 0v2q23 85 23 184v113q0 87 -47 142v6l175 55v-316q0 -121 23 -184v-2h-174z" />
    <glyph glyph-name="IJ" unicode="&#x132;" horiz-adv-x="747" 
d="M46 0v2q24 51 32 89t8 104v342q0 66 -8 104t-32 89v2h224v-2q-24 -50 -32 -88.5t-8 -103.5v-343q0 -66 8 -104.5t32 -88.5v-2h-224zM670 170q0 -87 -54.5 -136t-146.5 -49q-63 0 -123 23l-20 181l9 3q9 -16 22.5 -38.5t20.5 -35t17.5 -29.5t16.5 -25.5t14 -20t13.5 -17
t12 -11t12.5 -7.5t12 -2q23 0 37 27.5t14 75.5v428q0 65 -8.5 103t-31.5 90v2h223v-2q-23 -51 -31.5 -89.5t-8.5 -102.5v-368z" />
    <glyph glyph-name="ij" unicode="&#x133;" horiz-adv-x="516" 
d="M197 657q0 -30 -21.5 -51t-51.5 -21t-51 21t-21 51q0 29 21 50.5t51 21.5t51.5 -21.5t21.5 -50.5zM46 0v2q24 89 24 184v113q0 88 -48 142v6l175 55v-316q0 -118 23 -184v-2h-174zM450 657q0 -30 -21 -51t-52 -21q-29 0 -50 21t-21 51q0 29 21 50.5t50 21.5
q31 0 52 -21.5t21 -50.5zM251 -215l-2 6q74 43 74 156v358q0 82 -47 136v6l175 55l-4 -480q0 -110 -54 -168.5t-142 -68.5z" />
    <glyph glyph-name="Jcircumflex" unicode="&#x134;" horiz-adv-x="441" 
d="M364 170q0 -87 -54.5 -136t-146.5 -49q-63 0 -123 23l-20 181l9 3q9 -16 22.5 -38.5t20.5 -35t17.5 -29.5t16.5 -25.5t14 -20t13.5 -17t12 -11t12.5 -7.5t12 -2q23 0 37 27.5t14 75.5v428q0 65 -8.5 103t-31.5 90v2h223v-2q-23 -51 -31.5 -89.5t-8.5 -102.5v-368z
M444 782l-150 68l-151 -68l-9 10l156 158h7l156 -158z" />
    <glyph glyph-name="jcircumflex" unicode="&#x135;" horiz-adv-x="261" 
d="M-4 -243l-1 6q73 40 73 156v386q0 82 -47 136v6l175 55l-4 -500q0 -110 -55.5 -172.5t-140.5 -72.5zM267 540l-135 78l-136 -78l-9 10l141 175h7l140 -175z" />
    <glyph glyph-name="uni0136" unicode="&#x136;" horiz-adv-x="690" 
d="M46 0v2q24 50 32 88.5t8 104.5v342q0 66 -8 104t-32 89v2h224v-2q-24 -50 -32 -88.5t-8 -103.5v-343q0 -66 8 -104.5t32 -88.5v-2h-224zM701 0h-206l-255 361l184 205q93 104 48 164v2h195v-2q-111 -52 -206 -157l-108 -120l222 -313q65 -96 125 -138zM288 -244l-3 5
q24 17 38.5 40t14.5 42q0 22 -43 65v1l82 53q45 -28 45 -71q0 -38 -41.5 -75.5t-92.5 -59.5z" />
    <glyph glyph-name="uni0137" unicode="&#x137;" horiz-adv-x="520" 
d="M44 0v2q23 58 23 145v432q0 89 -47 142v2l175 55v-630q0 -90 27 -146v-2h-178zM524 0h-165l-160 251l117 118q27 26 32.5 59.5t-8.5 51.5v2h151v-2q-30 -13 -59 -34t-45.5 -36t-45.5 -44l-43 -45l143 -222q19 -29 27.5 -41t23.5 -28.5t32 -27.5v-2zM200 -244l-3 5
q24 17 38.5 40t14.5 42q0 22 -43 65v1l82 53q45 -28 45 -71q0 -38 -41.5 -75.5t-92.5 -59.5z" />
    <glyph glyph-name="Lacute" unicode="&#x139;" horiz-adv-x="603" 
d="M546 0h-500v2q24 50 32 88.5t8 104.5v342q0 66 -8 104t-32 89v2h224v-2q-24 -50 -32 -88.5t-8 -103.5v-520l134 6q52 3 112 60.5t108 131.5l9 -3zM62 794l212 165l52 -103l-258 -74z" />
    <glyph glyph-name="lacute" unicode="&#x13a;" horiz-adv-x="259" 
d="M43 0v2q23 54 23 145v432q0 89 -47 142v2l175 55v-630q0 -89 24 -146v-2h-175zM25 794l212 165l52 -103l-258 -74z" />
    <glyph glyph-name="uni013B" unicode="&#x13b;" horiz-adv-x="603" 
d="M546 0h-500v2q24 50 32 88.5t8 104.5v342q0 66 -8 104t-32 89v2h224v-2q-24 -50 -32 -88.5t-8 -103.5v-520l134 6q52 3 112 60.5t108 131.5l9 -3zM255 -244l-3 5q24 17 38.5 40t14.5 42q0 22 -43 65v1l82 53q45 -28 45 -71q0 -38 -41.5 -75.5t-92.5 -59.5z" />
    <glyph glyph-name="uni013C" unicode="&#x13c;" horiz-adv-x="259" 
d="M43 0v2q23 54 23 145v432q0 89 -47 142v2l175 55v-630q0 -89 24 -146v-2h-175zM58 -244l-3 5q24 17 38.5 40t14.5 42q0 22 -43 65v1l82 53q45 -28 45 -71q0 -38 -41.5 -75.5t-92.5 -59.5z" />
    <glyph glyph-name="Lcaron" unicode="&#x13d;" horiz-adv-x="603" 
d="M546 0h-500v2q24 50 32 88.5t8 104.5v342q0 66 -8 104t-32 89v2h224v-2q-24 -50 -32 -88.5t-8 -103.5v-520l134 6q52 3 112 60.5t108 131.5l9 -3zM311 531l18 201h100l-106 -203z" />
    <glyph glyph-name="lcaron" unicode="&#x13e;" horiz-adv-x="259" 
d="M43 0v2q23 54 23 145v432q0 89 -47 142v2l175 55v-630q0 -89 24 -146v-2h-175zM238 574l18 201h100l-106 -203z" />
    <glyph glyph-name="Ldot" unicode="&#x13f;" horiz-adv-x="603" 
d="M546 0h-500v2q24 50 32 88.5t8 104.5v342q0 66 -8 104t-32 89v2h224v-2q-24 -50 -32 -88.5t-8 -103.5v-520l134 6q52 3 112 60.5t108 131.5l9 -3zM486 306q-31 0 -53 22t-22 53t22 53t53 22q30 0 52 -22t22 -53t-22 -53t-52 -22z" />
    <glyph glyph-name="ldot" unicode="&#x140;" horiz-adv-x="369" 
d="M43 0v2q23 54 23 145v432q0 89 -47 142v2l175 55v-630q0 -89 24 -146v-2h-175zM315 306q-31 0 -53 22t-22 53t22 53t53 22q30 0 52 -22t22 -53t-22 -53t-52 -22z" />
    <glyph glyph-name="Lslash" unicode="&#x141;" horiz-adv-x="610" 
d="M19 218v28l74 35v256q0 66 -8 104t-32 89v2h224v-2q-24 -50 -32 -88.5t-8 -103.5v-189l230 109v-28l-230 -109v-303l134 6q52 3 112 60.5t108 131.5l9 -3l-47 -213h-500v2q24 50 32 88.5t8 104.5v58z" />
    <glyph glyph-name="lslash" unicode="&#x142;" horiz-adv-x="279" 
d="M7 252v29l69 53v245q0 89 -47 142v2l175 55v-346l67 51v-29l-67 -51v-255q0 -89 24 -146v-2h-175v2q23 54 23 145v158z" />
    <glyph glyph-name="Nacute" unicode="&#x143;" horiz-adv-x="707" 
d="M583 -3l-474 619l3 -409q1 -68 16 -109t57 -96v-2h-166v2q40 56 53.5 96.5t13.5 108.5v376q-3 49 -19 79t-57 68v2h189l396 -522l-2 314q-1 69 -14.5 109.5t-52.5 96.5v2h158v-2q-39 -57 -52.5 -97t-13.5 -108v-525zM271 794l212 165l52 -103l-258 -74z" />
    <glyph glyph-name="nacute" unicode="&#x144;" horiz-adv-x="573" 
d="M221 2v-2h-174v2q23 70 23 184v116q0 88 -47 143v2l171 55v-98l4 -1q69 94 164 94q67 0 106 -38.5t39 -103.5v-168q0 -123 24 -185v-2h-175v2q23 66 23 183v153q0 41 -20 66.5t-61 25.5q-59 0 -100 -50v-194q0 -121 23 -184zM212 547l137 202l81 -82l-210 -129z" />
    <glyph glyph-name="uni0145" unicode="&#x145;" horiz-adv-x="707" 
d="M583 -3l-474 619l3 -409q1 -68 16 -109t57 -96v-2h-166v2q40 56 53.5 96.5t13.5 108.5v376q-3 49 -19 79t-57 68v2h189l396 -522l-2 314q-1 69 -14.5 109.5t-52.5 96.5v2h158v-2q-39 -57 -52.5 -97t-13.5 -108v-525zM287 -244l-3 5q24 17 38.5 40t14.5 42q0 22 -43 65v1
l82 53q45 -28 45 -71q0 -38 -41.5 -75.5t-92.5 -59.5z" />
    <glyph glyph-name="uni0146" unicode="&#x146;" horiz-adv-x="573" 
d="M221 2v-2h-174v2q23 70 23 184v116q0 88 -47 143v2l171 55v-98l4 -1q69 94 164 94q67 0 106 -38.5t39 -103.5v-168q0 -123 24 -185v-2h-175v2q23 66 23 183v153q0 41 -20 66.5t-61 25.5q-59 0 -100 -50v-194q0 -121 23 -184zM221 -244l-3 5q24 17 38.5 40t14.5 42
q0 22 -43 65v1l82 53q45 -28 45 -71q0 -38 -41.5 -75.5t-92.5 -59.5z" />
    <glyph glyph-name="Ncaron" unicode="&#x147;" horiz-adv-x="707" 
d="M583 -3l-474 619l3 -409q1 -68 16 -109t57 -96v-2h-166v2q40 56 53.5 96.5t13.5 108.5v376q-3 49 -19 79t-57 68v2h189l396 -522l-2 314q-1 69 -14.5 109.5t-52.5 96.5v2h158v-2q-39 -57 -52.5 -97t-13.5 -108v-525zM378 782h-8l-156 158l9 10l151 -68l151 68l8 -10z" />
    <glyph glyph-name="ncaron" unicode="&#x148;" horiz-adv-x="573" 
d="M221 2v-2h-174v2q23 70 23 184v116q0 88 -47 143v2l171 55v-98l4 -1q69 94 164 94q67 0 106 -38.5t39 -103.5v-168q0 -123 24 -185v-2h-175v2q23 66 23 183v153q0 41 -20 66.5t-61 25.5q-59 0 -100 -50v-194q0 -121 23 -184zM283 540l-140 175l9 10l135 -78l135 78l9 -10
l-140 -175h-8z" />
    <glyph glyph-name="napostrophe" unicode="&#x149;" horiz-adv-x="573" 
d="M221 2v-2h-174v2q23 70 23 184v116q0 88 -47 143v2l171 55v-98l4 -1q69 94 164 94q67 0 106 -38.5t39 -103.5v-168q0 -123 24 -185v-2h-175v2q23 66 23 183v153q0 41 -20 66.5t-61 25.5q-59 0 -100 -50v-194q0 -121 23 -184zM-52 499l-5 8q58 48 58 98q0 30 -48 78v3
l88 69q50 -34 50 -86q0 -48 -43.5 -95.5t-99.5 -74.5z" />
    <glyph glyph-name="Eng" unicode="&#x14a;" horiz-adv-x="710" 
d="M477 -225q-74 0 -137 27l-23 164l9 3q66 -99 100.5 -136t74.5 -37q39 0 69 36t30 110v55h-15l-472 620l4 -410q0 -68 15.5 -108.5t59.5 -96.5v-2h-171v2q41 56 55.5 96.5t14.5 108.5v348q0 63 -17 97.5t-65 77.5v2h194l396 -524l-1 316q-1 69 -15 109.5t-55 96.5v2h164
v-2q-40 -57 -54.5 -97t-14.5 -108v-575q0 -90 -36 -132.5t-110 -42.5z" />
    <glyph glyph-name="eng" unicode="&#x14b;" horiz-adv-x="572" 
d="M308 -215l-2 6q74 43 74 156l-1 391q0 41 -20 66.5t-61 25.5q-59 0 -100 -50v-194q0 -121 23 -184v-2h-174v2q23 70 23 184v116q0 88 -47 143v2l171 55v-98l4 -1q69 94 164 94q67 0 106.5 -38.5t38.5 -103.5l-3 -333q-1 -110 -55 -168.5t-141 -68.5z" />
    <glyph glyph-name="Omacron" unicode="&#x14c;" horiz-adv-x="823" 
d="M411 -15q-100 0 -188 50t-141 138t-53 192q0 158 114.5 270t267.5 112q100 0 188 -50.5t141.5 -139t53.5 -192.5t-53.5 -192t-141.5 -138t-188 -50zM411 6q113 0 169 97.5t56 261.5t-56 262.5t-169 98.5q-76 0 -127.5 -48t-74 -127.5t-22.5 -185.5q0 -163 55.5 -261
t168.5 -98zM248 831v57h329v-57h-329z" />
    <glyph glyph-name="omacron" unicode="&#x14d;" horiz-adv-x="574" 
d="M287 -15q-107 0 -185 76t-77 179t78 180t184 77t184.5 -77t77.5 -180t-77.5 -179t-184.5 -76zM287 4q63 0 95 66t32 170t-32 170.5t-95 66.5t-94.5 -66.5t-31.5 -170.5q0 -105 31.5 -170.5t94.5 -65.5zM142 589v58h290v-58h-290z" />
    <glyph glyph-name="Obreve" unicode="&#x14e;" horiz-adv-x="823" 
d="M411 -15q-100 0 -188 50t-141 138t-53 192q0 158 114.5 270t267.5 112q100 0 188 -50.5t141.5 -139t53.5 -192.5t-53.5 -192t-141.5 -138t-188 -50zM411 6q113 0 169 97.5t56 261.5t-56 262.5t-169 98.5q-76 0 -127.5 -48t-74 -127.5t-22.5 -185.5q0 -163 55.5 -261
t168.5 -98zM412 870q101 0 130 77h11q-1 -24 -8.5 -48t-22.5 -48t-43.5 -39.5t-66.5 -15.5q-50 0 -83.5 27t-45 59t-12.5 65h11q28 -77 130 -77z" />
    <glyph glyph-name="obreve" unicode="&#x14f;" horiz-adv-x="574" 
d="M287 -15q-107 0 -185 76t-77 179t78 180t184 77t184.5 -77t77.5 -180t-77.5 -179t-184.5 -76zM287 4q63 0 95 66t32 170t-32 170.5t-95 66.5t-94.5 -66.5t-31.5 -170.5q0 -105 31.5 -170.5t94.5 -65.5zM287 638q87 0 111 69h11q-2 -51 -31.5 -94.5t-92.5 -43.5
q-33 0 -57.5 14t-37 36.5t-18.5 44t-7 43.5h11q22 -69 111 -69z" />
    <glyph glyph-name="Ohungarumlaut" unicode="&#x150;" horiz-adv-x="823" 
d="M411 -15q-100 0 -188 50t-141 138t-53 192q0 158 114.5 270t267.5 112q100 0 188 -50.5t141.5 -139t53.5 -192.5t-53.5 -192t-141.5 -138t-188 -50zM411 6q113 0 169 97.5t56 261.5t-56 262.5t-169 98.5q-76 0 -127.5 -48t-74 -127.5t-22.5 -185.5q0 -163 55.5 -261
t168.5 -98zM450 792l139 160l61 -87l-191 -83zM259 792l138 160l61 -87l-191 -83z" />
    <glyph glyph-name="ohungarumlaut" unicode="&#x151;" horiz-adv-x="574" 
d="M287 -15q-107 0 -185 76t-77 179t78 180t184 77t184.5 -77t77.5 -180t-77.5 -179t-184.5 -76zM287 4q63 0 95 66t32 170t-32 170.5t-95 66.5t-94.5 -66.5t-31.5 -170.5q0 -105 31.5 -170.5t94.5 -65.5zM326 550l105 179l71 -72l-166 -117zM164 550l105 179l71 -72
l-167 -117z" />
    <glyph glyph-name="OE" unicode="&#x152;" horiz-adv-x="1085" 
d="M435 22h65q31 80 31 164v360q0 86 -32 167q-2 0 -31 1h-29q-128 1 -190 -87.5t-62 -271.5q0 -165 58 -248t190 -85zM1071 213l-47 -213h-592q-189 0 -296 96.5t-107 272.5q0 173 109 268t294 95h548l38 -185l-9 -3q-8 8 -54.5 60.5t-76 77t-51.5 25.5l-151 8v-332h74
q17 0 37.5 12t33 24t34 35.5t28.5 30.5h10v-226h-10q-7 7 -28 30t-34 35.5t-33 24.5t-38 12h-74v-344l163 7q87 5 223 192z" />
    <glyph glyph-name="oe" unicode="&#x153;" horiz-adv-x="879" 
d="M854 123q-20 -64 -71.5 -101t-128.5 -37q-116 0 -177 82q-77 -82 -187 -82q-108 0 -187 75t-78 177t79.5 177.5t185.5 75.5q113 0 190 -87q69 94 177 94q90 0 143.5 -63t50.5 -140l-301 1v-14q0 -97 47 -147.5t124 -50.5q84 0 128 44zM290 3q67 0 100 65t33 169
q0 103 -33.5 169t-99.5 66t-99.5 -66t-33.5 -169q0 -104 33 -169t100 -65zM654 479q-42 0 -70 -46.5t-33 -120.5l173 4v23q0 140 -70 140z" />
    <glyph glyph-name="Racute" unicode="&#x154;" horiz-adv-x="681" 
d="M296 711q-37 0 -66 -1v-342h67q151 0 151 186q0 157 -152 157zM46 0v2q24 50 32 88.5t8 104.5v342q0 66 -8 104t-32 89v2h281q268 0 268 -177q0 -136 -140 -186l116 -231q30 -60 52 -86t61 -46v-6h-205l-173 347h-76v-152q0 -66 8 -104.5t32 -88.5v-2h-224zM218 794
l212 165l52 -103l-258 -74z" />
    <glyph glyph-name="racute" unicode="&#x155;" horiz-adv-x="384" 
d="M221 0h-174v2q23 70 23 184v116q0 88 -47 143v2l171 55v-122h1q5 5 25 28t31.5 34t31 27t39.5 22.5t41 5.5l-9 -143h-5q-15 17 -45.5 30t-49.5 13q-28 0 -56 -36v-175q0 -121 23 -184v-2zM136 547l137 202l81 -82l-210 -129z" />
    <glyph glyph-name="uni0156" unicode="&#x156;" horiz-adv-x="681" 
d="M296 711q-37 0 -66 -1v-342h67q151 0 151 186q0 157 -152 157zM46 0v2q24 50 32 88.5t8 104.5v342q0 66 -8 104t-32 89v2h281q268 0 268 -177q0 -136 -140 -186l116 -231q30 -60 52 -86t61 -46v-6h-205l-173 347h-76v-152q0 -66 8 -104.5t32 -88.5v-2h-224zM288 -244
l-3 5q24 17 38.5 40t14.5 42q0 22 -43 65v1l82 53q45 -28 45 -71q0 -38 -41.5 -75.5t-92.5 -59.5z" />
    <glyph glyph-name="uni0157" unicode="&#x157;" horiz-adv-x="384" 
d="M221 0h-174v2q23 70 23 184v116q0 88 -47 143v2l171 55v-122h1q5 5 25 28t31.5 34t31 27t39.5 22.5t41 5.5l-9 -143h-5q-15 17 -45.5 30t-49.5 13q-28 0 -56 -36v-175q0 -121 23 -184v-2zM58 -243l-3 5q24 17 38.5 40t14.5 42q0 22 -43 65v1l82 53q45 -28 45 -71
q0 -38 -41.5 -75.5t-92.5 -59.5z" />
    <glyph glyph-name="Rcaron" unicode="&#x158;" horiz-adv-x="681" 
d="M296 711q-37 0 -66 -1v-342h67q151 0 151 186q0 157 -152 157zM46 0v2q24 50 32 88.5t8 104.5v342q0 66 -8 104t-32 89v2h281q268 0 268 -177q0 -136 -140 -186l116 -231q30 -60 52 -86t61 -46v-6h-205l-173 347h-76v-152q0 -66 8 -104.5t32 -88.5v-2h-224zM323 782h-8
l-156 158l9 10l151 -68l151 68l8 -10z" />
    <glyph glyph-name="rcaron" unicode="&#x159;" horiz-adv-x="384" 
d="M221 0h-174v2q23 70 23 184v116q0 88 -47 143v2l171 55v-122h1q5 5 25 28t31.5 34t31 27t39.5 22.5t41 5.5l-9 -143h-5q-15 17 -45.5 30t-49.5 13q-28 0 -56 -36v-175q0 -121 23 -184v-2zM220 540l-140 175l9 10l135 -78l135 78l9 -10l-140 -175h-8z" />
    <glyph glyph-name="Sacute" unicode="&#x15a;" horiz-adv-x="567" 
d="M467 720l23 -185l-10 -3q-100 194 -214 194q-48 0 -77.5 -29t-29.5 -77q0 -29 10 -52t41.5 -46t45 -30.5t63.5 -32.5q11 -6 17 -9q46 -23 74.5 -40.5t61.5 -47t49 -69.5t16 -90q0 -111 -75 -164.5t-193 -53.5q-110 0 -212 42l-23 193l10 3q65 -114 125 -165.5t128 -51.5
q61 0 95 36.5t34 91.5q0 62 -42 101t-122 77q-33 17 -51.5 26.5t-47 27.5t-44.5 34.5t-32.5 38.5t-24 49.5t-7.5 59.5q0 69 36.5 115.5t91 65t123.5 18.5q82 0 161 -27zM183 794l212 165l52 -103l-258 -74z" />
    <glyph glyph-name="sacute" unicode="&#x15b;" horiz-adv-x="413" 
d="M347 478l11 -116l-7 -2q-78 119 -155 119q-35 0 -56.5 -20t-21.5 -50q0 -8 2 -16t4.5 -14t9 -12.5t10.5 -11t14 -10.5l15 -9t17.5 -8.5t17.5 -8t19.5 -8.5t19.5 -8q31 -13 52.5 -25.5t44 -32t34 -47.5t11.5 -63q0 -75 -54.5 -112.5t-141.5 -37.5q-81 0 -154 28l-12 134
l7 2q85 -146 177 -146q42 0 62.5 22.5t20.5 53.5q0 36 -26.5 58t-85.5 48q-34 15 -53 25.5t-44.5 30.5t-37.5 48t-12 64q0 74 53 109t135 35q67 0 124 -19zM128 547l137 202l81 -82l-210 -129z" />
    <glyph glyph-name="Scircumflex" unicode="&#x15c;" horiz-adv-x="567" 
d="M467 720l23 -185l-10 -3q-100 194 -214 194q-48 0 -77.5 -29t-29.5 -77q0 -29 10 -52t41.5 -46t45 -30.5t63.5 -32.5q11 -6 17 -9q46 -23 74.5 -40.5t61.5 -47t49 -69.5t16 -90q0 -111 -75 -164.5t-193 -53.5q-110 0 -212 42l-23 193l10 3q65 -114 125 -165.5t128 -51.5
q61 0 95 36.5t34 91.5q0 62 -42 101t-122 77q-33 17 -51.5 26.5t-47 27.5t-44.5 34.5t-32.5 38.5t-24 49.5t-7.5 59.5q0 69 36.5 115.5t91 65t123.5 18.5q82 0 161 -27zM434 782l-150 68l-151 -68l-9 10l156 158h7l156 -158z" />
    <glyph glyph-name="scircumflex" unicode="&#x15d;" horiz-adv-x="413" 
d="M347 478l11 -116l-7 -2q-78 119 -155 119q-35 0 -56.5 -20t-21.5 -50q0 -8 2 -16t4.5 -14t9 -12.5t10.5 -11t14 -10.5l15 -9t17.5 -8.5t17.5 -8t19.5 -8.5t19.5 -8q31 -13 52.5 -25.5t44 -32t34 -47.5t11.5 -63q0 -75 -54.5 -112.5t-141.5 -37.5q-81 0 -154 28l-12 134
l7 2q85 -146 177 -146q42 0 62.5 22.5t20.5 53.5q0 36 -26.5 58t-85.5 48q-34 15 -53 25.5t-44.5 30.5t-37.5 48t-12 64q0 74 53 109t135 35q67 0 124 -19zM341 540l-135 78l-136 -78l-9 10l141 175h7l140 -175z" />
    <glyph glyph-name="uni015E" unicode="&#x15e;" horiz-adv-x="567" 
d="M199 -256l-4 10q78 31 78 81q0 45 -70 45l-2 2l63 103q-110 2 -207 42l-23 193l10 3q65 -114 125 -165.5t128 -51.5q61 0 95 36.5t34 91.5q0 62 -42 101t-122 77q-33 17 -51.5 26.5t-47 27.5t-44.5 34.5t-32.5 38.5t-24 49.5t-7.5 59.5q0 69 36.5 115.5t91 65t123.5 18.5
q82 0 161 -27l23 -185l-10 -3q-100 194 -214 194q-48 0 -77.5 -29t-29.5 -77q0 -29 10 -52t41.5 -46t45 -30.5t63.5 -32.5q11 -6 17 -9q46 -23 74.5 -40.5t61.5 -47t49 -69.5t16 -90q0 -106 -68 -159t-177 -58l-25 -41q40 -7 64 -28t24 -54q0 -44 -40.5 -74.5t-115.5 -44.5z
" />
    <glyph glyph-name="uni015F" unicode="&#x15f;" horiz-adv-x="413" 
d="M117 -256l-4 10q78 31 78 81q0 45 -70 45l-2 2l63 103q-78 3 -143 28l-12 134l7 2q85 -146 177 -146q42 0 62.5 22.5t20.5 53.5q0 36 -26.5 58t-85.5 48q-34 15 -53 25.5t-44.5 30.5t-37.5 48t-12 64q0 74 53 109t135 35q67 0 124 -19l11 -116l-7 -2q-78 119 -155 119
q-35 0 -56.5 -20t-21.5 -50q0 -8 2 -16t4.5 -14t9 -12.5t10.5 -11t14 -10.5l15 -9t17.5 -8.5t17.5 -8t19.5 -8.5t19.5 -8q31 -13 52.5 -25.5t44 -32t34 -47.5t11.5 -63q0 -71 -49.5 -108.5t-129.5 -40.5l-25 -41q40 -7 64 -28t24 -54q0 -44 -40.5 -74.5t-115.5 -44.5z" />
    <glyph glyph-name="Scaron" unicode="&#x160;" horiz-adv-x="567" 
d="M467 720l23 -185l-10 -3q-100 194 -214 194q-48 0 -77.5 -29t-29.5 -77q0 -29 10 -52t41.5 -46t45 -30.5t63.5 -32.5q11 -6 17 -9q46 -23 74.5 -40.5t61.5 -47t49 -69.5t16 -90q0 -111 -75 -164.5t-193 -53.5q-110 0 -212 42l-23 193l10 3q65 -114 125 -165.5t128 -51.5
q61 0 95 36.5t34 91.5q0 62 -42 101t-122 77q-33 17 -51.5 26.5t-47 27.5t-44.5 34.5t-32.5 38.5t-24 49.5t-7.5 59.5q0 69 36.5 115.5t91 65t123.5 18.5q82 0 161 -27zM287 782h-8l-156 158l9 10l151 -68l151 68l8 -10z" />
    <glyph glyph-name="scaron" unicode="&#x161;" horiz-adv-x="413" 
d="M347 478l11 -116l-7 -2q-78 119 -155 119q-35 0 -56.5 -20t-21.5 -50q0 -8 2 -16t4.5 -14t9 -12.5t10.5 -11t14 -10.5l15 -9t17.5 -8.5t17.5 -8t19.5 -8.5t19.5 -8q31 -13 52.5 -25.5t44 -32t34 -47.5t11.5 -63q0 -75 -54.5 -112.5t-141.5 -37.5q-81 0 -154 28l-12 134
l7 2q85 -146 177 -146q42 0 62.5 22.5t20.5 53.5q0 36 -26.5 58t-85.5 48q-34 15 -53 25.5t-44.5 30.5t-37.5 48t-12 64q0 74 53 109t135 35q67 0 124 -19zM201 540l-140 175l9 10l135 -78l135 78l9 -10l-140 -175h-8z" />
    <glyph glyph-name="Tcommaaccent" unicode="&#x162;" horiz-adv-x="727" 
d="M476 2v-2h-225v2q24 51 32.5 89.5t8.5 103.5v519l-82 -4q-11 -1 -23.5 -8.5t-27 -22t-27 -29t-29 -37.5t-27 -37.5t-27.5 -39.5t-24 -35l-9 3l41 228h614l41 -228l-10 -3q-5 7 -18 26.5t-20.5 30.5t-21 30t-22.5 30.5t-21.5 27.5t-22.5 25.5t-21 19t-20.5 14t-17.5 5.5
l-81 4v-519q0 -66 8 -104.5t32 -88.5zM291 -244l-3 5q24 17 38.5 40t14.5 42q0 22 -43 65v1l82 53q45 -28 45 -71q0 -38 -41.5 -75.5t-92.5 -59.5z" />
    <glyph glyph-name="tcommaaccent" unicode="&#x163;" horiz-adv-x="349" 
d="M192 -15q-124 0 -124 129v348h-55v7l173 127h10v-114h125v-20h-125v-344q0 -77 71 -77q37 0 62 17l3 -3q-45 -70 -140 -70zM105 -244l-3 5q24 17 38.5 40t14.5 42q0 22 -43 65v1l82 53q45 -28 45 -71q0 -38 -41.5 -75.5t-92.5 -59.5z" />
    <glyph glyph-name="Tcaron" unicode="&#x164;" horiz-adv-x="727" 
d="M476 2v-2h-225v2q24 51 32.5 89.5t8.5 103.5v519l-82 -4q-11 -1 -23.5 -8.5t-27 -22t-27 -29t-29 -37.5t-27 -37.5t-27.5 -39.5t-24 -35l-9 3l41 228h614l41 -228l-10 -3q-5 7 -18 26.5t-20.5 30.5t-21 30t-22.5 30.5t-21.5 27.5t-22.5 25.5t-21 19t-20.5 14t-17.5 5.5
l-81 4v-519q0 -66 8 -104.5t32 -88.5zM368 782h-8l-156 158l9 10l151 -68l151 68l8 -10z" />
    <glyph glyph-name="tcaron" unicode="&#x165;" horiz-adv-x="349" 
d="M192 -15q-124 0 -124 129v348h-55v7l173 127h10v-114h125v-20h-125v-344q0 -77 71 -77q37 0 62 17l3 -3q-45 -70 -140 -70zM263 574l18 201h100l-106 -203z" />
    <glyph glyph-name="Tbar" unicode="&#x166;" horiz-adv-x="727" 
d="M132 357v22h160v335l-82 -4q-11 -1 -23.5 -8.5t-27 -22t-27 -29t-29 -37.5t-27 -37.5t-27.5 -39.5t-24 -35l-9 3l41 228h614l41 -228l-10 -3q-5 7 -18 26.5t-20.5 30.5t-21 30t-22.5 30.5t-21.5 27.5t-22.5 25.5t-21 19t-20.5 14t-17.5 5.5l-81 4v-335h159v-22h-159v-162
q0 -66 8 -104.5t32 -88.5v-2h-225v2q24 51 32.5 89.5t8.5 103.5v162h-160z" />
    <glyph glyph-name="tbar" unicode="&#x167;" horiz-adv-x="349" 
d="M192 -15q-124 0 -124 129v194h-57v19h57v135h-55v7l173 127h10v-114h125v-20h-125v-135h123v-19h-123v-190q0 -77 71 -77q37 0 62 17l3 -3q-45 -70 -140 -70z" />
    <glyph glyph-name="Utilde" unicode="&#x168;" horiz-adv-x="713" 
d="M370 -15q-128 0 -206.5 65.5t-78.5 201.5v285q0 66 -8 104t-32 89v2h225v-2q-22 -46 -31 -87t-9 -105v-289q0 -234 179 -234q68 0 113 35t62.5 88t17.5 123v263q0 70 -16 110.5t-62 95.5v2h177l4 -2q-46 -56 -61.5 -96.5t-15.5 -109.5v-259q0 -280 -258 -280zM327 910
q30 0 84 -19.5t86 -19.5q28 0 44 11.5t24 40.5l12 -2q0 -132 -95 -132q-30 0 -84 19.5t-86 19.5q-28 0 -44 -12t-24 -41l-12 2q0 27 3.5 47t12.5 41.5t29 33t50 11.5z" />
    <glyph glyph-name="utilde" unicode="&#x169;" horiz-adv-x="550" 
d="M350 107q-62 -122 -163 -122q-63 0 -97.5 44.5t-34.5 120.5v219q0 70 -40 110v3h167v-324q0 -91 77 -91q57 0 87 58v245q0 70 -42 110v2h169v-295q0 -77 10 -107t37 -53v-2l-169 -38v119zM204 686q21 0 69.5 -16t73.5 -16q49 0 61 44l12 -1q-1 -48 -21.5 -87t-66.5 -39
q-21 0 -70.5 17t-74.5 17q-47 0 -60 -45l-12 1q1 21 5 40.5t13.5 40t27.5 32.5t43 12z" />
    <glyph glyph-name="Umacron" unicode="&#x16a;" horiz-adv-x="713" 
d="M370 -15q-128 0 -206.5 65.5t-78.5 201.5v285q0 66 -8 104t-32 89v2h225v-2q-22 -46 -31 -87t-9 -105v-289q0 -234 179 -234q68 0 113 35t62.5 88t17.5 123v263q0 70 -16 110.5t-62 95.5v2h177l4 -2q-46 -56 -61.5 -96.5t-15.5 -109.5v-259q0 -280 -258 -280zM235 831v57
h329v-57h-329z" />
    <glyph glyph-name="umacron" unicode="&#x16b;" horiz-adv-x="550" 
d="M350 107q-62 -122 -163 -122q-63 0 -97.5 44.5t-34.5 120.5v219q0 70 -40 110v3h167v-324q0 -91 77 -91q57 0 87 58v245q0 70 -42 110v2h169v-295q0 -77 10 -107t37 -53v-2l-169 -38v119zM123 589v58h290v-58h-290z" />
    <glyph glyph-name="Ubreve" unicode="&#x16c;" horiz-adv-x="713" 
d="M370 -15q-128 0 -206.5 65.5t-78.5 201.5v285q0 66 -8 104t-32 89v2h225v-2q-22 -46 -31 -87t-9 -105v-289q0 -234 179 -234q68 0 113 35t62.5 88t17.5 123v263q0 70 -16 110.5t-62 95.5v2h177l4 -2q-46 -56 -61.5 -96.5t-15.5 -109.5v-259q0 -280 -258 -280zM412 870
q101 0 130 77h11q-1 -24 -8.5 -48t-22.5 -48t-43.5 -39.5t-66.5 -15.5q-50 0 -83.5 27t-45 59t-12.5 65h11q28 -77 130 -77z" />
    <glyph glyph-name="ubreve" unicode="&#x16d;" horiz-adv-x="550" 
d="M350 107q-62 -122 -163 -122q-63 0 -97.5 44.5t-34.5 120.5v219q0 70 -40 110v3h167v-324q0 -91 77 -91q57 0 87 58v245q0 70 -42 110v2h169v-295q0 -77 10 -107t37 -53v-2l-169 -38v119zM268 638q87 0 111 69h11q-2 -51 -31.5 -94.5t-92.5 -43.5q-33 0 -57.5 14
t-37 36.5t-18.5 44t-7 43.5h11q22 -69 111 -69z" />
    <glyph glyph-name="Uring" unicode="&#x16e;" horiz-adv-x="713" 
d="M370 -15q-128 0 -206.5 65.5t-78.5 201.5v285q0 66 -8 104t-32 89v2h225v-2q-22 -46 -31 -87t-9 -105v-289q0 -234 179 -234q68 0 113 35t62.5 88t17.5 123v263q0 70 -16 110.5t-62 95.5v2h177l4 -2q-46 -56 -61.5 -96.5t-15.5 -109.5v-259q0 -280 -258 -280zM314 860
q0 38 26 63t65 25t65.5 -24.5t26.5 -63.5q0 -38 -26.5 -62t-65.5 -24t-65 24t-26 62zM356 860q0 -32 13 -49.5t36 -17.5t36.5 18t13.5 49q0 32 -13.5 50.5t-36.5 18.5t-36 -18.5t-13 -50.5z" />
    <glyph glyph-name="uring" unicode="&#x16f;" horiz-adv-x="550" 
d="M350 107q-62 -122 -163 -122q-63 0 -97.5 44.5t-34.5 120.5v219q0 70 -40 110v3h167v-324q0 -91 77 -91q57 0 87 58v245q0 70 -42 110v2h169v-295q0 -77 10 -107t37 -53v-2l-169 -38v119zM176 653q0 38 26 62.5t65 24.5q40 0 66 -24t26 -63q0 -38 -26.5 -62t-65.5 -24
t-65 24t-26 62zM218 653q0 -67 49 -67q23 0 36.5 17.5t13.5 49.5t-13.5 50t-36.5 18t-36 -18t-13 -50z" />
    <glyph glyph-name="Uhungarumlaut" unicode="&#x170;" horiz-adv-x="713" 
d="M370 -15q-128 0 -206.5 65.5t-78.5 201.5v285q0 66 -8 104t-32 89v2h225v-2q-22 -46 -31 -87t-9 -105v-289q0 -234 179 -234q68 0 113 35t62.5 88t17.5 123v263q0 70 -16 110.5t-62 95.5v2h177l4 -2q-46 -56 -61.5 -96.5t-15.5 -109.5v-259q0 -280 -258 -280zM440 792
l139 160l61 -87l-191 -83zM249 792l138 160l61 -87l-191 -83z" />
    <glyph glyph-name="uhungarumlaut" unicode="&#x171;" horiz-adv-x="550" 
d="M350 107q-62 -122 -163 -122q-63 0 -97.5 44.5t-34.5 120.5v219q0 70 -40 110v3h167v-324q0 -91 77 -91q57 0 87 58v245q0 70 -42 110v2h169v-295q0 -77 10 -107t37 -53v-2l-169 -38v119zM304 550l105 179l71 -72l-166 -117zM142 550l105 179l71 -72l-167 -117z" />
    <glyph glyph-name="Uogonek" unicode="&#x172;" horiz-adv-x="713" 
d="M389 -248q-42 0 -68 23.5t-26 61.5q0 79 128 150q-32 -2 -53 -2q-128 0 -206.5 65.5t-78.5 201.5v285q0 66 -8 104t-32 89v2h225v-2q-22 -46 -31 -87t-9 -105v-289q0 -234 179 -234q68 0 113 35t62.5 88t17.5 123v263q0 70 -16 110.5t-62 95.5v2h177l4 -2
q-46 -56 -61.5 -96.5t-15.5 -109.5v-259q0 -194 -126 -255q-55 -30 -71 -42q-44 -37 -44 -89q0 -57 54 -57q39 0 73 39l9 -7q-50 -102 -134 -102z" />
    <glyph glyph-name="uogonek" unicode="&#x173;" horiz-adv-x="550" 
d="M316 -248q-42 0 -68 23.5t-26 61.5q0 79 129 156v113l-1 1q-62 -122 -163 -122q-63 0 -97.5 44.5t-34.5 120.5v219q0 70 -40 110v3h167v-324q0 -91 77 -91q57 0 87 58v245q0 70 -42 110v2h169v-295q0 -77 10 -107t37 -53v-2q-83 -16 -107 -26q-44 -17 -72.5 -50
t-28.5 -71q0 -26 14.5 -41t41.5 -15q39 0 73 39l9 -7q-52 -102 -134 -102z" />
    <glyph glyph-name="Wcircumflex" unicode="&#x174;" horiz-adv-x="1027" 
d="M326 -6h-54l-182 565q-37 119 -86 171v2h253v-2q-47 -60 -9 -182l119 -379l139 367l-8 23q-23 68 -41.5 106t-45.5 65v2h253v-2q-21 -29 -24.5 -74.5t15.5 -107.5l126 -369l108 333q49 150 -19 218v2h153v-2q-57 -59 -98 -185l-178 -551h-54l-175 507zM694 782l-150 68
l-151 -68l-9 10l156 158h7l156 -158z" />
    <glyph glyph-name="wcircumflex" unicode="&#x175;" horiz-adv-x="702" 
d="M190 -9l-126 357q-31 92 -67 132v2h207v-2q-11 -17 -13 -51t11 -77l61 -188l72 187q-29 89 -66 129v2h204v-2q-28 -43 -1 -128l58 -181l61 162q13 33 14 64.5t-5.5 50.5t-16.5 32v2h115v-2q-52 -58 -82 -136l-131 -353h-27l-114 333l-127 -333h-27zM496 540l-135 78
l-136 -78l-9 10l141 175h7l140 -175z" />
    <glyph glyph-name="Ycircumflex" unicode="&#x176;" horiz-adv-x="628" 
d="M197 0v2q23 44 31.5 76t8.5 87v176l-132 238q-60 112 -113 151v2h269v-2q-22 -18 -23 -59t23 -89l113 -208l90 159q26 46 29.5 87.5t-6 66t-27.5 43.5v2h176v-2q-41 -35 -68.5 -72.5t-64.5 -102.5l-122 -213v-177q0 -55 8 -87.5t32 -75.5v-2h-224zM508 782l-150 68
l-151 -68l-9 10l156 158h7l156 -158z" />
    <glyph glyph-name="ycircumflex" unicode="&#x177;" horiz-adv-x="463" 
d="M31 -225l-1 112q143 -6 180 89l-145 372q-39 99 -68 132v2h203v-2q-12 -18 -13 -54t16 -87l73 -192l76 194q16 50 10.5 84.5t-22.5 54.5v2h120v-2q-50 -54 -83 -136l-146 -366q-24 -58 -47 -96.5t-48.5 -59.5t-48.5 -30.5t-56 -16.5zM392 540l-135 78l-136 -78l-9 10
l141 175h7l140 -175z" />
    <glyph glyph-name="Ydieresis" unicode="&#x178;" horiz-adv-x="628" 
d="M197 0v2q23 44 31.5 76t8.5 87v176l-132 238q-60 112 -113 151v2h269v-2q-22 -18 -23 -59t23 -89l113 -208l90 159q26 46 29.5 87.5t-6 66t-27.5 43.5v2h176v-2q-41 -35 -68.5 -72.5t-64.5 -102.5l-122 -213v-177q0 -55 8 -87.5t32 -75.5v-2h-224zM549 868
q0 -29 -20.5 -49.5t-50.5 -20.5q-29 0 -49 20.5t-20 49.5t20 50t49 21q30 0 50.5 -21t20.5 -50zM306 868q0 -29 -20.5 -49.5t-50.5 -20.5q-29 0 -49 20.5t-20 49.5t20.5 50t48.5 21q30 0 50.5 -21t20.5 -50z" />
    <glyph glyph-name="Zacute" unicode="&#x179;" horiz-adv-x="644" 
d="M577 0h-559v10l429 704l-129 -5q-143 -5 -265 -181l-8 3l49 201h524v-10l-428 -705l157 6q148 5 273 203l8 -3zM249 794l212 165l52 -103l-258 -74z" />
    <glyph glyph-name="zacute" unicode="&#x17a;" horiz-adv-x="465" 
d="M408 0h-393v7l270 458l-99 -4q-15 0 -29.5 -6t-33.5 -22t-27.5 -24t-33 -34t-28.5 -30l-6 2l37 135h367v-8l-270 -458l114 3q42 2 79 34.5t85 96.5l6 -2zM173 547l137 202l81 -82l-210 -129z" />
    <glyph glyph-name="Zdotaccent" unicode="&#x17b;" horiz-adv-x="644" 
d="M577 0h-559v10l429 704l-129 -5q-143 -5 -265 -181l-8 3l49 201h524v-10l-428 -705l157 6q148 5 273 203l8 -3zM419 868q0 -29 -20.5 -49.5t-48.5 -20.5q-29 0 -49.5 20.5t-20.5 49.5t20.5 50.5t49.5 21.5q28 0 48.5 -21.5t20.5 -50.5z" />
    <glyph glyph-name="zdotaccent" unicode="&#x17c;" horiz-adv-x="465" 
d="M408 0h-393v7l270 458l-99 -4q-15 0 -29.5 -6t-33.5 -22t-27.5 -24t-33 -34t-28.5 -30l-6 2l37 135h367v-8l-270 -458l114 3q42 2 79 34.5t85 96.5l6 -2zM318 657q0 -29 -21 -50t-50 -21t-49.5 21t-20.5 50t20.5 49.5t49.5 20.5t50 -20.5t21 -49.5z" />
    <glyph glyph-name="Zcaron" unicode="&#x17d;" horiz-adv-x="644" 
d="M577 0h-559v10l429 704l-129 -5q-143 -5 -265 -181l-8 3l49 201h524v-10l-428 -705l157 6q148 5 273 203l8 -3zM353 782h-8l-156 158l9 10l151 -68l151 68l8 -10z" />
    <glyph glyph-name="zcaron" unicode="&#x17e;" horiz-adv-x="465" 
d="M408 0h-393v7l270 458l-99 -4q-15 0 -29.5 -6t-33.5 -22t-27.5 -24t-33 -34t-28.5 -30l-6 2l37 135h367v-8l-270 -458l114 3q42 2 79 34.5t85 96.5l6 -2zM244 540l-140 175l9 10l135 -78l135 78l9 -10l-140 -175h-8z" />
    <glyph glyph-name="uni0192" unicode="&#x192;" horiz-adv-x="622" 
d="M46 -195q-45 0 -79 12l-14 137l8 2q19 -35 27.5 -49t25 -38.5t29.5 -34.5t26 -10q27 0 50 56t54 202l62 284h-86l5 22h86l16 75q30 142 104 217.5t165 75.5q41 0 75 -12l7 -144l-7 -2q-50 97 -69 119q-17 20 -32 20q-25 0 -47 -50t-49 -169l-30 -130h111l-5 -22h-111
l-48 -209q-42 -183 -113 -267.5t-161 -84.5z" />
    <glyph glyph-name="Aringacute" unicode="&#x1fa;" horiz-adv-x="667" 
d="M383 298l-108 292l-108 -292h216zM158 2v-2h-158v2q32 32 54 72.5t47 106.5l207 557h56l211 -565q44 -117 92 -171v-2h-244v2q44 65 2 182l-34 92h-232l-20 -53q-55 -147 19 -221zM242 867q0 38 26 63t65 25t65.5 -24.5t26.5 -63.5q0 -38 -26.5 -62t-65.5 -24t-65 24
t-26 62zM284 867q0 -32 13 -49.5t36 -17.5t36.5 18t13.5 49q0 32 -13.5 50.5t-36.5 18.5t-36 -18.5t-13 -50.5zM238 977l212 165l52 -103l-258 -74z" />
    <glyph glyph-name="aringacute" unicode="&#x1fb;" horiz-adv-x="496" 
d="M211 54q37 0 64 20v157q-60 -14 -97 -43t-37 -70q0 -30 18.5 -47t51.5 -17zM372 -13q-40 0 -64 19t-30 51q-57 -72 -143 -72q-48 0 -78.5 23.5t-30.5 68.5q0 37 23 67.5t61.5 50.5t78.5 33t86 21v88q0 43 -21.5 64.5t-72.5 21.5q-73 0 -131 -37l-5 7q82 104 216 104
q73 0 107.5 -34t34.5 -91v-272q0 -44 41 -44q23 0 44 16l2 -3q-37 -82 -118 -82zM140 653q0 38 26 62.5t65 24.5q40 0 66 -24t26 -63q0 -38 -26.5 -62t-65.5 -24t-65 24t-26 62zM182 653q0 -67 49 -67q23 0 36.5 17.5t13.5 49.5t-13.5 50t-36.5 18t-36 -18t-13 -50zM129 774
l212 165l52 -103l-258 -74z" />
    <glyph glyph-name="AEacute" unicode="&#x1fc;" horiz-adv-x="1032" 
d="M479 546q0 72 -13 109l-211 -357h224v248zM180 2v-2h-161v2q68 56 140 179l295 501q-16 27 -41 48v2h514l39 -185l-10 -3q-8 8 -54.5 60.5t-76 77t-51.5 25.5l-150 8v-332h73q18 0 38 12t33 24t34 35.5t28 30.5h10v-226h-10q-7 7 -28 30t-33.5 35.5t-33 24.5t-38.5 12
h-73v-344l162 7q86 4 224 192l9 -3l-48 -213h-532v2q22 55 31 92t9 92v90h-237l-40 -68q-74 -124 -22 -206zM542 794l212 165l52 -103l-258 -74z" />
    <glyph glyph-name="aeacute" unicode="&#x1fd;" horiz-adv-x="727" 
d="M704 123q-19 -64 -70.5 -101t-129.5 -37q-132 0 -193 102q-62 -102 -171 -102q-51 0 -82.5 23.5t-31.5 68.5q0 37 23 67.5t61.5 50.5t78.5 33t86 21v88q0 43 -21.5 64.5t-72.5 21.5q-73 0 -131 -37l-5 7q82 104 216 104q80 0 112 -50q59 50 136 50q89 0 142 -63.5
t50 -139.5l-299 1v-11q0 -101 46 -151t124 -50q86 0 127 44zM506 479q-42 0 -70 -46.5t-33 -120.5l171 4v23q0 140 -68 140zM212 54q57 0 93 44q-30 55 -30 132v1q-60 -14 -97 -42.5t-37 -69.5q0 -30 18.5 -47.5t52.5 -17.5zM309 547l137 202l81 -82l-210 -129z" />
    <glyph glyph-name="Oslashacute" unicode="&#x1fe;" horiz-adv-x="823" 
d="M187 365q0 -157 50 -251l335 527q-58 85 -161 85q-76 0 -127.5 -48t-74 -127.5t-22.5 -185.5zM411 6q113 0 169 97.5t56 261.5q0 158 -50 252l-335 -526q57 -85 160 -85zM411 -15q-102 0 -193 54l-51 -80h-29l59 93q-77 52 -122.5 134.5t-45.5 178.5q0 158 114.5 270
t267.5 112q102 0 193 -54l52 81h30l-60 -95q76 -53 122 -135.5t46 -178.5q0 -104 -53.5 -192t-141.5 -138t-188 -50zM312 794l212 165l52 -103l-258 -74z" />
    <glyph glyph-name="oslashacute" unicode="&#x1ff;" horiz-adv-x="574" 
d="M287 -15q-71 0 -135 37l-61 -89h-28l70 102q-50 36 -79.5 90t-28.5 115q1 103 78 180t184 77q71 0 136 -39l59 86h29l-69 -100q49 -37 78 -90.5t29 -113.5q0 -103 -77.5 -179t-184.5 -76zM161 240q0 -84 18 -138l206 301q-33 74 -98 74q-63 0 -94.5 -66.5t-31.5 -170.5z
M287 4q63 0 95 66t32 170q0 79 -19 136l-206 -300q34 -72 98 -72zM212 547l137 202l81 -82l-210 -129z" />
    <glyph glyph-name="uni0218" unicode="&#x218;" horiz-adv-x="567" 
d="M467 720l23 -185l-10 -3q-100 194 -214 194q-48 0 -77.5 -29t-29.5 -77q0 -29 10 -52t41.5 -46t45 -30.5t63.5 -32.5q11 -6 17 -9q46 -23 74.5 -40.5t61.5 -47t49 -69.5t16 -90q0 -111 -75 -164.5t-193 -53.5q-110 0 -212 42l-23 193l10 3q65 -114 125 -165.5t128 -51.5
q61 0 95 36.5t34 91.5q0 62 -42 101t-122 77q-33 17 -51.5 26.5t-47 27.5t-44.5 34.5t-32.5 38.5t-24 49.5t-7.5 59.5q0 69 36.5 115.5t91 65t123.5 18.5q82 0 161 -27zM217 -244l-3 5q24 17 38.5 40t14.5 42q0 22 -43 65v1l82 53q45 -28 45 -71q0 -38 -41.5 -75.5
t-92.5 -59.5z" />
    <glyph glyph-name="uni0219" unicode="&#x219;" horiz-adv-x="413" 
d="M347 478l11 -116l-7 -2q-78 119 -155 119q-35 0 -56.5 -20t-21.5 -50q0 -8 2 -16t4.5 -14t9 -12.5t10.5 -11t14 -10.5l15 -9t17.5 -8.5t17.5 -8t19.5 -8.5t19.5 -8q31 -13 52.5 -25.5t44 -32t34 -47.5t11.5 -63q0 -75 -54.5 -112.5t-141.5 -37.5q-81 0 -154 28l-12 134
l7 2q85 -146 177 -146q42 0 62.5 22.5t20.5 53.5q0 36 -26.5 58t-85.5 48q-34 15 -53 25.5t-44.5 30.5t-37.5 48t-12 64q0 74 53 109t135 35q67 0 124 -19zM130 -244l-3 5q24 17 38.5 40t14.5 42q0 22 -43 65v1l82 53q45 -28 45 -71q0 -38 -41.5 -75.5t-92.5 -59.5z" />
    <glyph glyph-name="uni021A" unicode="&#x21a;" horiz-adv-x="727" 
d="M476 2v-2h-225v2q24 51 32.5 89.5t8.5 103.5v519l-82 -4q-11 -1 -23.5 -8.5t-27 -22t-27 -29t-29 -37.5t-27 -37.5t-27.5 -39.5t-24 -35l-9 3l41 228h614l41 -228l-10 -3q-5 7 -18 26.5t-20.5 30.5t-21 30t-22.5 30.5t-21.5 27.5t-22.5 25.5t-21 19t-20.5 14t-17.5 5.5
l-81 4v-519q0 -66 8 -104.5t32 -88.5zM291 -244l-3 5q24 17 38.5 40t14.5 42q0 22 -43 65v1l82 53q45 -28 45 -71q0 -38 -41.5 -75.5t-92.5 -59.5z" />
    <glyph glyph-name="uni021B" unicode="&#x21b;" horiz-adv-x="349" 
d="M192 -15q-124 0 -124 129v348h-55v7l173 127h10v-114h125v-20h-125v-344q0 -77 71 -77q37 0 62 17l3 -3q-45 -70 -140 -70zM105 -244l-3 5q24 17 38.5 40t14.5 42q0 22 -43 65v1l82 53q45 -28 45 -71q0 -38 -41.5 -75.5t-92.5 -59.5z" />
    <glyph glyph-name="uni0237" unicode="&#x237;" horiz-adv-x="261" 
d="M-4 -243l-1 6q73 40 73 156v386q0 82 -47 136v6l175 55l-4 -500q0 -110 -55.5 -172.5t-140.5 -72.5z" />
    <glyph glyph-name="circumflex" unicode="&#x2c6;" 
d="M308 540l-135 78l-136 -78l-9 10l141 175h7l140 -175z" />
    <glyph glyph-name="caron" unicode="&#x2c7;" 
d="M116 540l-140 175l9 10l135 -78l135 78l9 -10l-140 -175h-8z" />
    <glyph glyph-name="breve" unicode="&#x2d8;" 
d="M173 638q87 0 111 69h11q-2 -51 -31.5 -94.5t-92.5 -43.5q-33 0 -57.5 14t-37 36.5t-18.5 44t-7 43.5h11q22 -69 111 -69z" />
    <glyph glyph-name="dotaccent" unicode="&#x2d9;" 
d="M243 657q0 -29 -21 -50t-50 -21t-49.5 21t-20.5 50t20.5 49.5t49.5 20.5t50 -20.5t21 -49.5z" />
    <glyph glyph-name="ring" unicode="&#x2da;" horiz-adv-x="300" 
d="M59 653q0 38 26 62.5t65 24.5q40 0 66 -24t26 -63q0 -38 -26.5 -62t-65.5 -24t-65 24t-26 62zM101 653q0 -67 49 -67q23 0 36.5 17.5t13.5 49.5t-13.5 50t-36.5 18t-36 -18t-13 -50z" />
    <glyph glyph-name="ogonek" unicode="&#x2db;" horiz-adv-x="300" 
d="M168 1h34q-78 -66 -78 -122q0 -26 14.5 -41.5t39.5 -15.5q40 0 74 39l9 -7q-50 -102 -134 -102q-42 0 -68 24t-26 62q0 43 32.5 78.5t102.5 84.5z" />
    <glyph glyph-name="tilde" unicode="&#x2dc;" 
d="M109 686q21 0 69.5 -16t73.5 -16q49 0 61 44l12 -1q-1 -48 -21.5 -87t-66.5 -39q-21 0 -70.5 17t-74.5 17q-47 0 -60 -45l-12 1q1 21 5 40.5t13.5 40t27.5 32.5t43 12z" />
    <glyph glyph-name="hungarumlaut" unicode="&#x2dd;" 
d="M162 550l105 179l71 -72l-166 -117zM0 550l105 179l71 -72l-167 -117z" />
    <glyph glyph-name="Wgrave" unicode="&#x1e80;" horiz-adv-x="1027" 
d="M326 -6h-54l-182 565q-37 119 -86 171v2h253v-2q-47 -60 -9 -182l119 -379l139 367l-8 23q-23 68 -41.5 106t-45.5 65v2h253v-2q-21 -29 -24.5 -74.5t15.5 -107.5l126 -369l108 333q49 150 -19 218v2h153v-2q-57 -59 -98 -185l-178 -551h-54l-175 507zM651 794l-6 -12
l-261 74l52 103z" />
    <glyph glyph-name="wgrave" unicode="&#x1e81;" horiz-adv-x="702" 
d="M190 -9l-126 357q-31 92 -67 132v2h207v-2q-11 -17 -13 -51t11 -77l61 -188l72 187q-29 89 -66 129v2h204v-2q-28 -43 -1 -128l58 -181l61 162q13 33 14 64.5t-5.5 50.5t-16.5 32v2h115v-2q-52 -58 -82 -136l-131 -353h-27l-114 333l-127 -333h-27zM434 540l-9 -9
l-211 136l83 82z" />
    <glyph glyph-name="Wacute" unicode="&#x1e82;" horiz-adv-x="1027" 
d="M326 -6h-54l-182 565q-37 119 -86 171v2h253v-2q-47 -60 -9 -182l119 -379l139 367l-8 23q-23 68 -41.5 106t-45.5 65v2h253v-2q-21 -29 -24.5 -74.5t15.5 -107.5l126 -369l108 333q49 150 -19 218v2h153v-2q-57 -59 -98 -185l-178 -551h-54l-175 507zM416 794l212 165
l52 -103l-258 -74z" />
    <glyph glyph-name="wacute" unicode="&#x1e83;" horiz-adv-x="702" 
d="M190 -9l-126 357q-31 92 -67 132v2h207v-2q-11 -17 -13 -51t11 -77l61 -188l72 187q-29 89 -66 129v2h204v-2q-28 -43 -1 -128l58 -181l61 162q13 33 14 64.5t-5.5 50.5t-16.5 32v2h115v-2q-52 -58 -82 -136l-131 -353h-27l-114 333l-127 -333h-27zM289 547l137 202
l81 -82l-210 -129z" />
    <glyph glyph-name="Wdieresis" unicode="&#x1e84;" horiz-adv-x="1027" 
d="M326 -6h-54l-182 565q-37 119 -86 171v2h253v-2q-47 -60 -9 -182l119 -379l139 367l-8 23q-23 68 -41.5 106t-45.5 65v2h253v-2q-21 -29 -24.5 -74.5t15.5 -107.5l126 -369l108 333q49 150 -19 218v2h153v-2q-57 -59 -98 -185l-178 -551h-54l-175 507zM731 868
q0 -29 -20.5 -49.5t-50.5 -20.5q-29 0 -49 20.5t-20 49.5t20 50t49 21q30 0 50.5 -21t20.5 -50zM488 868q0 -29 -20.5 -49.5t-50.5 -20.5q-29 0 -49 20.5t-20 49.5t20.5 50t48.5 21q30 0 50.5 -21t20.5 -50z" />
    <glyph glyph-name="wdieresis" unicode="&#x1e85;" horiz-adv-x="702" 
d="M190 -9l-126 357q-31 92 -67 132v2h207v-2q-11 -17 -13 -51t11 -77l61 -188l72 187q-29 89 -66 129v2h204v-2q-28 -43 -1 -128l58 -181l61 162q13 33 14 64.5t-5.5 50.5t-16.5 32v2h115v-2q-52 -58 -82 -136l-131 -353h-27l-114 333l-127 -333h-27zM535 657
q0 -29 -20.5 -50t-50.5 -21q-29 0 -49 21t-20 50t20 49.5t49 20.5q30 0 50.5 -20.5t20.5 -49.5zM326 657q0 -29 -20.5 -50t-50.5 -21q-28 0 -48.5 21t-20.5 50t20.5 49.5t48.5 20.5q30 0 50.5 -20.5t20.5 -49.5z" />
    <glyph glyph-name="Ygrave" unicode="&#x1ef2;" horiz-adv-x="628" 
d="M197 0v2q23 44 31.5 76t8.5 87v176l-132 238q-60 112 -113 151v2h269v-2q-22 -18 -23 -59t23 -89l113 -208l90 159q26 46 29.5 87.5t-6 66t-27.5 43.5v2h176v-2q-41 -35 -68.5 -72.5t-64.5 -102.5l-122 -213v-177q0 -55 8 -87.5t32 -75.5v-2h-224zM458 794l-6 -12
l-261 74l52 103z" />
    <glyph glyph-name="ygrave" unicode="&#x1ef3;" horiz-adv-x="463" 
d="M31 -225l-1 112q143 -6 180 89l-145 372q-39 99 -68 132v2h203v-2q-12 -18 -13 -54t16 -87l73 -192l76 194q16 50 10.5 84.5t-22.5 54.5v2h120v-2q-50 -54 -83 -136l-146 -366q-24 -58 -47 -96.5t-48.5 -59.5t-48.5 -30.5t-56 -16.5zM337 540l-9 -9l-211 136l83 82z" />
    <glyph glyph-name="endash" unicode="&#x2013;" horiz-adv-x="533" 
d="M506 270h-479v22h479v-22z" />
    <glyph glyph-name="emdash" unicode="&#x2014;" horiz-adv-x="798" 
d="M771 270h-744v22h744v-22z" />
    <glyph glyph-name="quoteleft" unicode="&#x2018;" horiz-adv-x="246" 
d="M195 755l5 -8q-58 -48 -58 -98q0 -30 48 -78v-3l-88 -69q-50 34 -50 86q0 48 43.5 95.5t99.5 74.5z" />
    <glyph glyph-name="quoteright" unicode="&#x2019;" horiz-adv-x="246" 
d="M51 499l-5 8q58 48 58 98q0 30 -48 78v3l88 69q50 -34 50 -86q0 -48 -43.5 -95.5t-99.5 -74.5z" />
    <glyph glyph-name="quotesinglbase" unicode="&#x201a;" horiz-adv-x="246" 
d="M51 -98l-5 8q58 48 58 98q0 30 -48 78v3l88 69q50 -34 50 -86q0 -48 -43.5 -95.5t-99.5 -74.5z" />
    <glyph glyph-name="quotedblleft" unicode="&#x201c;" horiz-adv-x="421" 
d="M195 755l5 -8q-58 -46 -58 -97q0 -29 48 -79v-2l-88 -70q-21 15 -35 38.5t-14 47.5q0 49 43 96t99 74zM370 755l5 -8q-58 -46 -58 -97q0 -29 48 -79v-2l-88 -70q-21 15 -35 38.5t-14 47.5q0 49 43 96t99 74z" />
    <glyph glyph-name="quotedblright" unicode="&#x201d;" horiz-adv-x="421" 
d="M227 499l-6 8q58 46 58 98q0 31 -47 78v3l87 69q50 -33 50 -86q0 -48 -43.5 -95.5t-98.5 -74.5zM51 499l-5 8q58 48 58 98q0 30 -48 78v3l88 69q50 -34 50 -86q0 -48 -43.5 -95.5t-99.5 -74.5z" />
    <glyph glyph-name="quotedblbase" unicode="&#x201e;" horiz-adv-x="421" 
d="M51 -98l-5 8q58 48 58 98q0 30 -48 78v3l88 69q50 -34 50 -86q0 -48 -43.5 -95.5t-99.5 -74.5zM226 -98l-5 8q58 48 58 98q0 30 -48 78v3l88 69q50 -34 50 -86q0 -48 -43.5 -95.5t-99.5 -74.5z" />
    <glyph glyph-name="dagger" unicode="&#x2020;" horiz-adv-x="420" 
d="M278 262l-59 -262h-19l-58 262l56 249l-171 -54v133l170 -53l-60 195h146l-60 -195l170 53v-133l-171 54z" />
    <glyph glyph-name="daggerdbl" unicode="&#x2021;" horiz-adv-x="420" 
d="M393 142l-170 53l60 -195h-146l60 195l-170 -53v133l169 -54l-51 144l51 146l-169 -54v133l170 -53l-60 195h146l-60 -195l170 53v-133l-169 54l51 -146l-51 -144l169 54v-133z" />
    <glyph glyph-name="bullet" unicode="&#x2022;" horiz-adv-x="326" 
d="M163 188q-41 0 -69 29t-28 68q0 42 28 70.5t69 28.5q39 0 68 -29t29 -70q0 -38 -29 -67.5t-68 -29.5z" />
    <glyph glyph-name="ellipsis" unicode="&#x2026;" horiz-adv-x="765" 
d="M127 -5q-31 0 -53 22t-22 53t22 53t53 22q30 0 52 -22t22 -53t-22 -53t-52 -22zM383 -5q-31 0 -53 22t-22 53t22 53t53 22q30 0 52 -22t22 -53t-22 -53t-52 -22zM639 -5q-31 0 -53 22t-22 53t22 53t53 22q30 0 52 -22t22 -53t-22 -53t-52 -22z" />
    <glyph glyph-name="perthousand" unicode="&#x2030;" horiz-adv-x="1204" 
d="M202 337q-73 0 -124.5 59.5t-51.5 146.5t51.5 145.5t124.5 58.5t126.5 -59t53.5 -145t-53.5 -146t-126.5 -60zM202 354q68 0 68 189q0 188 -68 188q-36 0 -49.5 -48.5t-13.5 -139.5t13.5 -140t49.5 -49zM589 -8q-72 0 -123.5 59.5t-51.5 146.5t51 145.5t124 58.5t127 -59
t54 -145t-54 -146t-127 -60zM997 -8q-72 0 -123.5 59.5t-51.5 146.5t51 145.5t124 58.5t127 -59t54 -145t-54 -146t-127 -60zM589 9q68 0 68 189q0 188 -68 188q-36 0 -49.5 -49t-13.5 -139t13.5 -139.5t49.5 -49.5zM997 9q68 0 68 189q0 188 -68 188q-36 0 -49.5 -49
t-13.5 -139t13.5 -139.5t49.5 -49.5zM152 1l-19 15l521 727l19 -13z" />
    <glyph glyph-name="guilsinglleft" unicode="&#x2039;" horiz-adv-x="279" 
d="M217 58l-8 -6l-158 175v20l158 175l8 -6l-83 -179z" />
    <glyph glyph-name="guilsinglright" unicode="&#x203a;" horiz-adv-x="279" 
d="M70 52l-8 6l83 179l-83 179l8 6l158 -175v-20z" />
    <glyph glyph-name="fraction" unicode="&#x2044;" horiz-adv-x="269" 
d="M-118 1l-19 15l521 727l19 -13z" />
    <glyph glyph-name="Euro" unicode="&#x20ac;" horiz-adv-x="717" 
d="M656 58q-26 -21 -88 -47t-137 -26q-133 0 -226 85t-114 220h-87v21h84q-3 25 -3 51q0 34 4 59h-85v22h88q25 134 122 219t232 85q100 0 206 -43l20 -173l-10 -3q-66 110 -114 154t-112 44q-169 0 -191 -283h216v-22h-218q-1 -19 -1 -59q0 -35 1 -51h218v-21h-216
q9 -133 56.5 -208.5t130.5 -75.5q77 0 127.5 59.5t106.5 185.5l10 -3z" />
    <glyph glyph-name="trademark" unicode="&#x2122;" horiz-adv-x="789" 
d="M245 405v-2h-121v2q18 42 18 85v227l-27 -1q-30 -1 -94 -105l-7 2l22 119h296l21 -119l-7 -2q-67 104 -92 105l-27 1v-227q0 -49 18 -85zM459 405v-2h-84v2q19 25 25.5 43t6.5 49v167q0 21 -8.5 34t-29.5 32v2h118l85 -208l88 208h115v-2q-22 -19 -29.5 -34t-7.5 -44
v-162q0 -46 18 -85v-2h-121v2q18 39 18 85v181l-110 -258h-11l-109 257l2 -173q0 -31 7 -49t27 -43z" />
    <glyph glyph-name="onethird" unicode="&#x2153;" horiz-adv-x="707" 
d="M201 345h-160v1q17 22 22.5 38t5.5 45v224h-48v8q90 34 148 88h6v-320q0 -29 5 -45t21 -38v-1zM76 1l-19 15l521 727l19 -13zM519 -8q-68 0 -112 24l-12 96l7 2l13 -19.5t13 -19t11.5 -16t11.5 -15t10.5 -12t11.5 -10.5t11.5 -6.5t13 -5t13.5 -1.5q32 0 50 29t18 79
q0 101 -72 101q-34 0 -65 -22l-7 8l130 108h-153l23 79h245v-5l-186 -153q17 4 42 4q59 0 103.5 -30.5t44.5 -89.5q0 -58 -45.5 -91.5t-119.5 -33.5z" />
    <glyph glyph-name="twothirds" unicode="&#x2154;" horiz-adv-x="768" 
d="M270 345h-259v5q96 96 135 163.5t39 131.5q0 41 -13 64t-35 23q-24 0 -51.5 -30t-50.5 -79l-6 1l14 106q46 17 99 17q73 0 111 -29.5t38 -76.5q0 -52 -47 -101.5t-149 -115.5h102q61 0 101 55l5 -1zM137 1l-19 15l521 727l19 -13zM580 -8q-68 0 -112 24l-12 96l7 2
l13 -19.5t13 -19t11.5 -16t11.5 -15t10.5 -12t11.5 -10.5t11.5 -6.5t13 -5t13.5 -1.5q32 0 50 29t18 79q0 101 -72 101q-34 0 -65 -22l-7 8l130 108h-153l23 79h245v-5l-186 -153q17 4 42 4q59 0 103.5 -30.5t44.5 -89.5q0 -58 -45.5 -91.5t-119.5 -33.5z" />
    <glyph glyph-name="oneeighth" unicode="&#x215b;" horiz-adv-x="692" 
d="M201 345h-160v1q17 22 22.5 38t5.5 45v224h-48v8q90 34 148 88h6v-320q0 -29 5 -45t21 -38v-1zM69 1l-19 15l521 727l19 -13zM507 -8q-66 0 -108 27.5t-42 73.5q0 66 85 90q-67 41 -67 104q0 52 38 83.5t101 31.5q59 0 97.5 -26t38.5 -64q0 -57 -79 -78q97 -52 97 -125
q0 -54 -45 -85.5t-116 -31.5zM547 245q8 -4 12 -5q25 25 25 69q0 37 -17.5 57.5t-49.5 20.5q-28 0 -44.5 -15.5t-16.5 -39.5q0 -26 20.5 -45t70.5 -42zM506 9q34 0 54 17t20 46q0 31 -25.5 50.5t-87.5 47.5q-8 3 -13 7q-30 -30 -30 -77q0 -42 21.5 -66.5t60.5 -24.5z" />
    <glyph glyph-name="threeeighths" unicode="&#x215c;" horiz-adv-x="750" 
d="M148 337q-68 0 -112 24l-12 96l7 2l13 -19.5t13 -19t11.5 -16t11.5 -15t10.5 -12t11.5 -10.5t11.5 -6.5t13 -5t13.5 -1.5q32 0 50 29t18 79q0 101 -72 101q-34 0 -65 -22l-7 8l130 108h-153l23 79h245v-5l-186 -153q17 4 42 4q59 0 103.5 -30.5t44.5 -89.5
q0 -58 -45.5 -91.5t-119.5 -33.5zM127 1l-19 15l521 727l19 -13zM565 -8q-66 0 -108 27.5t-42 73.5q0 66 85 90q-67 41 -67 104q0 52 38 83.5t101 31.5q59 0 97.5 -26t38.5 -64q0 -57 -79 -78q97 -52 97 -125q0 -54 -45 -85.5t-116 -31.5zM605 245q8 -4 12 -5q25 25 25 69
q0 37 -17.5 57.5t-49.5 20.5q-28 0 -44.5 -15.5t-16.5 -39.5q0 -26 20.5 -45t70.5 -42zM564 9q34 0 54 17t20 46q0 31 -25.5 50.5t-87.5 47.5q-8 3 -13 7q-30 -30 -30 -77q0 -42 21.5 -66.5t60.5 -24.5z" />
    <glyph glyph-name="fiveeighths" unicode="&#x215d;" horiz-adv-x="741" 
d="M132 337q-56 0 -98 22l-13 99l7 2q54 -106 103 -106q29 0 45.5 29t16.5 78q0 109 -82 109q-32 0 -59 -17l-5 4l29 180h214l-15 -79h-195l-14 -84q30 17 76 17q61 0 107.5 -31.5t46.5 -93.5q0 -63 -49.5 -96t-114.5 -33zM118 1l-19 15l521 727l19 -13zM556 -8
q-66 0 -108 27.5t-42 73.5q0 66 85 90q-67 41 -67 104q0 52 38 83.5t101 31.5q59 0 97.5 -26t38.5 -64q0 -57 -79 -78q97 -52 97 -125q0 -54 -45 -85.5t-116 -31.5zM596 245q8 -4 12 -5q25 25 25 69q0 37 -17.5 57.5t-49.5 20.5q-28 0 -44.5 -15.5t-16.5 -39.5
q0 -26 20.5 -45t70.5 -42zM555 9q34 0 54 17t20 46q0 31 -25.5 50.5t-87.5 47.5q-8 3 -13 7q-30 -30 -30 -77q0 -42 21.5 -66.5t60.5 -24.5z" />
    <glyph glyph-name="seveneighths" unicode="&#x215e;" horiz-adv-x="673" 
d="M157 345h-109q51 148 195 304h-216l17 88h261v-5q-118 -195 -148 -387zM50 1l-19 15l521 727l19 -13zM488 -8q-66 0 -108 27.5t-42 73.5q0 66 85 90q-67 41 -67 104q0 52 38 83.5t101 31.5q59 0 97.5 -26t38.5 -64q0 -57 -79 -78q97 -52 97 -125q0 -54 -45 -85.5
t-116 -31.5zM528 245q8 -4 12 -5q25 25 25 69q0 37 -17.5 57.5t-49.5 20.5q-28 0 -44.5 -15.5t-16.5 -39.5q0 -26 20.5 -45t70.5 -42zM487 9q34 0 54 17t20 46q0 31 -25.5 50.5t-87.5 47.5q-8 3 -13 7q-30 -30 -30 -77q0 -42 21.5 -66.5t60.5 -24.5z" />
    <glyph glyph-name="minus" unicode="&#x2212;" horiz-adv-x="532" 
d="M487 296h-442v24h442v-24z" />
    <glyph glyph-name="uni24C5" unicode="&#x24c5;" horiz-adv-x="817" 
d="M27 366q0 159 111.5 269.5t269.5 110.5q159 0 270.5 -110.5t111.5 -269.5q0 -160 -112 -270.5t-270 -110.5t-269.5 110.5t-111.5 270.5zM55 366q0 -148 103.5 -253t249.5 -105q147 0 250 104.5t103 253.5t-103 253t-250 104q-146 0 -249.5 -104.5t-103.5 -252.5zM274 153
v3q22 44 22 105v189q0 60 -22 104v2h153q159 0 159 -110q0 -58 -42.5 -93t-125.5 -35h-34v-57q0 -59 23 -105v-3h-133zM411 539q-9 0 -27 -1v-202h26q44 0 66 32.5t22 76.5q0 94 -87 94z" />
    <glyph glyph-name="idotaccent" horiz-adv-x="262" 
d="M197 657q0 -30 -21.5 -51t-51.5 -21t-51 21t-21 51q0 29 21 50.5t51 21.5t51.5 -21.5t21.5 -50.5zM46 0v2q24 89 24 184v113q0 88 -48 142v6l175 55v-316q0 -118 23 -184v-2h-174z" />
    <glyph glyph-name="space_uni0326" horiz-adv-x="300" 
d="M78 -244l-3 5q24 17 38.5 40t14.5 42q0 22 -43 65v1l82 53q45 -28 45 -71q0 -38 -41.5 -75.5t-92.5 -59.5z" />
    <glyph glyph-name="five.num" horiz-adv-x="306" 
d="M125 337q-56 0 -98 22l-13 99l7 2q54 -106 103 -106q29 0 45.5 29t16.5 78q0 109 -82 109q-32 0 -59 -17l-5 4l29 180h214l-15 -79h-195l-14 -84q30 17 76 17q61 0 107.5 -31.5t46.5 -93.5q0 -63 -49.5 -96t-114.5 -33z" />
    <glyph glyph-name="zero.num" horiz-adv-x="396" 
d="M195 337q-72 0 -123.5 59.5t-51.5 146.5t51 145.5t124 58.5t127 -59t54 -145t-54 -146t-127 -60zM195 354q68 0 68 189q0 188 -68 188q-36 0 -49.5 -49t-13.5 -139t13.5 -139.5t49.5 -49.5z" />
    <glyph glyph-name="one.num" horiz-adv-x="221" 
d="M194 345h-160v1q17 22 22.5 38t5.5 45v224h-48v8q90 34 148 88h6v-320q0 -29 5 -45t21 -38v-1z" />
    <glyph glyph-name="two.num" horiz-adv-x="319" 
d="M263 345h-259v5q96 96 135 163.5t39 131.5q0 41 -13 64t-35 23q-24 0 -51.5 -30t-50.5 -79l-6 1l14 106q46 17 99 17q73 0 111 -29.5t38 -76.5q0 -52 -47 -101.5t-149 -115.5h102q61 0 101 55l5 -1z" />
    <glyph glyph-name="three.num" horiz-adv-x="323" 
d="M141 337q-68 0 -112 24l-12 96l7 2l13 -19.5t13 -19t11.5 -16t11.5 -15t10.5 -12t11.5 -10.5t11.5 -6.5t13 -5t13.5 -1.5q32 0 50 29t18 79q0 101 -72 101q-34 0 -65 -22l-7 8l130 108h-153l23 79h245v-5l-186 -153q17 4 42 4q59 0 103.5 -30.5t44.5 -89.5
q0 -58 -45.5 -91.5t-119.5 -33.5z" />
    <glyph glyph-name="four.num" horiz-adv-x="343" 
d="M144 345v1q21 36 21 83v16h-156v5l170 287h126l-272 -275h132v104h110v-104h52l-4 -17h-48v-16q0 -47 21 -83v-1h-152z" />
    <glyph glyph-name="six.num" horiz-adv-x="353" 
d="M177 337q-70 0 -113.5 47t-43.5 116q0 35 12 69.5t38.5 69.5t78.5 64t123 44l2 -10q-110 -36 -140 -169q22 39 76 39q52 0 89 -35t37 -92q0 -63 -46 -103t-113 -40zM181 354q51 0 51 112q0 107 -52 107q-38 0 -51 -33q-4 -28 -4 -61q0 -125 56 -125z" />
    <glyph glyph-name="seven.num" horiz-adv-x="293" 
d="M150 345h-109q51 148 195 304h-216l17 88h261v-5q-118 -195 -148 -387z" />
    <glyph glyph-name="eight.num" horiz-adv-x="340" 
d="M163 337q-66 0 -108 27.5t-42 73.5q0 66 85 90q-67 41 -67 104q0 52 38 83.5t101 31.5q59 0 97.5 -26t38.5 -64q0 -57 -79 -78q97 -52 97 -125q0 -54 -45 -85.5t-116 -31.5zM203 590q8 -4 12 -5q25 25 25 69q0 37 -17.5 57.5t-49.5 20.5q-28 0 -44.5 -15.5t-16.5 -39.5
q0 -26 20.5 -45t70.5 -42zM162 354q34 0 54 17t20 46q0 31 -25.5 50.5t-87.5 47.5q-8 3 -13 7q-30 -30 -30 -77q0 -42 21.5 -66.5t60.5 -24.5z" />
    <glyph glyph-name="nine.num" horiz-adv-x="353" 
d="M79 347q110 36 140 169q-21 -39 -76 -39q-52 0 -89 35t-37 92q0 63 46 103t113 40q70 0 113.5 -47t43.5 -116q0 -35 -12 -69.5t-38.5 -69.5t-78.5 -64t-123 -44zM173 511q34 0 51 32q4 29 4 62q0 125 -56 125q-51 0 -51 -112q0 -107 52 -107z" />
    <glyph glyph-name="five.den" horiz-adv-x="306" 
d="M125 -8q-56 0 -98 22l-13 99l7 2q54 -106 103 -106q29 0 45.5 29t16.5 78q0 109 -82 109q-32 0 -59 -17l-5 4l29 180h214l-15 -79h-195l-14 -84q30 17 76 17q61 0 107.5 -31.5t46.5 -93.5q0 -63 -49.5 -96t-114.5 -33z" />
    <glyph glyph-name="zero.den" horiz-adv-x="396" 
d="M195 -8q-72 0 -123.5 59.5t-51.5 146.5t51 145.5t124 58.5t127 -59t54 -145t-54 -146t-127 -60zM195 9q68 0 68 189q0 188 -68 188q-36 0 -49.5 -49t-13.5 -139t13.5 -139.5t49.5 -49.5z" />
    <glyph glyph-name="one.den" horiz-adv-x="221" 
d="M194 0h-160v1q17 22 22.5 38t5.5 45v224h-48v8q90 34 148 88h6v-320q0 -29 5 -45t21 -38v-1z" />
    <glyph glyph-name="two.den" horiz-adv-x="319" 
d="M263 0h-259v5q96 96 135 163.5t39 131.5q0 41 -13 64t-35 23q-24 0 -51.5 -30t-50.5 -79l-6 1l14 106q46 17 99 17q73 0 111 -29.5t38 -76.5q0 -52 -47 -101.5t-149 -115.5h102q61 0 101 55l5 -1z" />
    <glyph glyph-name="three.den" horiz-adv-x="323" 
d="M141 -8q-68 0 -112 24l-12 96l7 2l13 -19.5t13 -19t11.5 -16t11.5 -15t10.5 -12t11.5 -10.5t11.5 -6.5t13 -5t13.5 -1.5q32 0 50 29t18 79q0 101 -72 101q-34 0 -65 -22l-7 8l130 108h-153l23 79h245v-5l-186 -153q17 4 42 4q59 0 103.5 -30.5t44.5 -89.5
q0 -58 -45.5 -91.5t-119.5 -33.5z" />
    <glyph glyph-name="four.den" horiz-adv-x="343" 
d="M144 0v1q21 36 21 83v16h-156v5l170 287h126l-272 -275h132v104h110v-104h52l-4 -17h-48v-16q0 -47 21 -83v-1h-152z" />
    <glyph glyph-name="six.den" horiz-adv-x="353" 
d="M177 -8q-70 0 -113.5 47t-43.5 116q0 35 12 69.5t38.5 69.5t78.5 64t123 44l2 -10q-110 -36 -140 -169q22 39 76 39q52 0 89 -35t37 -92q0 -63 -46 -103t-113 -40zM181 9q51 0 51 112q0 107 -52 107q-38 0 -51 -33q-4 -28 -4 -61q0 -125 56 -125z" />
    <glyph glyph-name="seven.den" horiz-adv-x="293" 
d="M150 0h-109q51 148 195 304h-216l17 88h261v-5q-118 -195 -148 -387z" />
    <glyph glyph-name="eight.den" horiz-adv-x="340" 
d="M163 -8q-66 0 -108 27.5t-42 73.5q0 66 85 90q-67 41 -67 104q0 52 38 83.5t101 31.5q59 0 97.5 -26t38.5 -64q0 -57 -79 -78q97 -52 97 -125q0 -54 -45 -85.5t-116 -31.5zM203 245q8 -4 12 -5q25 25 25 69q0 37 -17.5 57.5t-49.5 20.5q-28 0 -44.5 -15.5t-16.5 -39.5
q0 -26 20.5 -45t70.5 -42zM162 9q34 0 54 17t20 46q0 31 -25.5 50.5t-87.5 47.5q-8 3 -13 7q-30 -30 -30 -77q0 -42 21.5 -66.5t60.5 -24.5z" />
    <glyph glyph-name="nine.den" horiz-adv-x="353" 
d="M79 2q110 36 140 169q-21 -39 -76 -39q-52 0 -89 35t-37 92q0 63 46 103t113 40q70 0 113.5 -47t43.5 -116q0 -35 -12 -69.5t-38.5 -69.5t-78.5 -64t-123 -44zM173 166q34 0 51 32q4 29 4 62q0 125 -56 125q-51 0 -51 -112q0 -107 52 -107z" />
    <glyph glyph-name="five.sub" horiz-adv-x="306" 
d="M125 -88q-56 0 -98 22l-13 99l7 2q54 -106 103 -106q29 0 45.5 29t16.5 78q0 109 -82 109q-32 0 -59 -17l-5 4l29 180h214l-15 -79h-195l-14 -84q30 17 76 17q61 0 107.5 -31.5t46.5 -93.5q0 -63 -49.5 -96t-114.5 -33z" />
    <glyph glyph-name="zero.sub" horiz-adv-x="396" 
d="M195 -88q-72 0 -123.5 59.5t-51.5 146.5t51 145.5t124 58.5t127 -59t54 -145t-54 -146t-127 -60zM195 -71q68 0 68 189q0 188 -68 188q-36 0 -49.5 -49t-13.5 -139t13.5 -139.5t49.5 -49.5z" />
    <glyph glyph-name="one.sub" horiz-adv-x="221" 
d="M194 -80h-160v1q17 22 22.5 38t5.5 45v224h-48v8q90 34 148 88h6v-320q0 -29 5 -45t21 -38v-1z" />
    <glyph glyph-name="two.sub" horiz-adv-x="319" 
d="M263 -80h-259v5q96 96 135 163.5t39 131.5q0 41 -13 64t-35 23q-24 0 -51.5 -30t-50.5 -79l-6 1l14 106q46 17 99 17q73 0 111 -29.5t38 -76.5q0 -52 -47 -101.5t-149 -115.5h102q61 0 101 55l5 -1z" />
    <glyph glyph-name="three.sub" horiz-adv-x="323" 
d="M141 -88q-68 0 -112 24l-12 96l7 2l13 -19.5t13 -19t11.5 -16t11.5 -15t10.5 -12t11.5 -10.5t11.5 -6.5t13 -5t13.5 -1.5q32 0 50 29t18 79q0 101 -72 101q-34 0 -65 -22l-7 8l130 108h-153l23 79h245v-5l-186 -153q17 4 42 4q59 0 103.5 -30.5t44.5 -89.5
q0 -58 -45.5 -91.5t-119.5 -33.5z" />
    <glyph glyph-name="four.sub" horiz-adv-x="343" 
d="M144 -80v1q21 36 21 83v16h-156v5l170 287h126l-272 -275h132v104h110v-104h52l-4 -17h-48v-16q0 -47 21 -83v-1h-152z" />
    <glyph glyph-name="six.sub" horiz-adv-x="353" 
d="M177 -88q-70 0 -113.5 47t-43.5 116q0 35 12 69.5t38.5 69.5t78.5 64t123 44l2 -10q-110 -36 -140 -169q22 39 76 39q52 0 89 -35t37 -92q0 -63 -46 -103t-113 -40zM181 -71q51 0 51 112q0 107 -52 107q-38 0 -51 -33q-4 -28 -4 -61q0 -125 56 -125z" />
    <glyph glyph-name="seven.sub" horiz-adv-x="293" 
d="M150 -80h-109q51 148 195 304h-216l17 88h261v-5q-118 -195 -148 -387z" />
    <glyph glyph-name="eight.sub" horiz-adv-x="340" 
d="M163 -88q-66 0 -108 27.5t-42 73.5q0 66 85 90q-67 41 -67 104q0 52 38 83.5t101 31.5q59 0 97.5 -26t38.5 -64q0 -57 -79 -78q97 -52 97 -125q0 -54 -45 -85.5t-116 -31.5zM203 165q8 -4 12 -5q25 25 25 69q0 37 -17.5 57.5t-49.5 20.5q-28 0 -44.5 -15.5t-16.5 -39.5
q0 -26 20.5 -45t70.5 -42zM162 -71q34 0 54 17t20 46q0 31 -25.5 50.5t-87.5 47.5q-8 3 -13 7q-30 -30 -30 -77q0 -42 21.5 -66.5t60.5 -24.5z" />
    <glyph glyph-name="nine.sub" horiz-adv-x="353" 
d="M176 313q70 0 113.5 -47t43.5 -116q0 -35 -12 -69.5t-38.5 -69.5t-78.5 -64t-123 -44l-2 10q110 36 140 169q-22 -39 -76 -39q-52 0 -89 35t-37 92q0 63 46 103t113 40zM172 296q-51 0 -51 -112q0 -107 52 -107q38 0 51 33q4 28 4 61q0 125 -56 125z" />
    <glyph glyph-name="plus.sub" horiz-adv-x="315" 
d="M290 106h-123v-123h-20v123h-122v18h122v123h20v-123h123v-18z" />
    <glyph glyph-name="minus.sub" horiz-adv-x="315" 
d="M290 106h-265v18h265v-18z" />
    <glyph glyph-name="five.sup" horiz-adv-x="306" 
d="M125 426q-56 0 -98 22l-13 99l7 2q54 -106 103 -106q29 0 45.5 29t16.5 78q0 109 -82 109q-32 0 -59 -17l-5 4l29 180h214l-15 -79h-195l-14 -84q30 17 76 17q61 0 107.5 -31.5t46.5 -93.5q0 -63 -49.5 -96t-114.5 -33z" />
    <glyph glyph-name="zero.sup" horiz-adv-x="396" 
d="M195 426q-72 0 -123.5 59.5t-51.5 146.5t51 145.5t124 58.5t127 -59t54 -145t-54 -146t-127 -60zM195 443q68 0 68 189q0 188 -68 188q-36 0 -49.5 -49t-13.5 -139t13.5 -139.5t49.5 -49.5z" />
    <glyph glyph-name="one.sup" horiz-adv-x="221" 
d="M194 434h-160v1q17 22 22.5 38t5.5 45v224h-48v8q90 34 148 88h6v-320q0 -29 5 -45t21 -38v-1z" />
    <glyph glyph-name="two.sup" horiz-adv-x="319" 
d="M263 434h-259v5q96 96 135 163.5t39 131.5q0 41 -13 64t-35 23q-24 0 -51.5 -30t-50.5 -79l-6 1l14 106q46 17 99 17q73 0 111 -29.5t38 -76.5q0 -52 -47 -101.5t-149 -115.5h102q61 0 101 55l5 -1z" />
    <glyph glyph-name="three.sup" horiz-adv-x="323" 
d="M141 426q-68 0 -112 24l-12 96l7 2l13 -19.5t13 -19t11.5 -16t11.5 -15t10.5 -12t11.5 -10.5t11.5 -6.5t13 -5t13.5 -1.5q32 0 50 29t18 79q0 101 -72 101q-34 0 -65 -22l-7 8l130 108h-153l23 79h245v-5l-186 -153q17 4 42 4q59 0 103.5 -30.5t44.5 -89.5
q0 -58 -45.5 -91.5t-119.5 -33.5z" />
    <glyph glyph-name="four.sup" horiz-adv-x="343" 
d="M144 434v1q21 36 21 83v16h-156v5l170 287h126l-272 -275h132v104h110v-104h52l-4 -17h-48v-16q0 -47 21 -83v-1h-152z" />
    <glyph glyph-name="six.sup" horiz-adv-x="353" 
d="M177 426q-70 0 -113.5 47t-43.5 116q0 35 12 69.5t38.5 69.5t78.5 64t123 44l2 -10q-110 -36 -140 -169q22 39 76 39q52 0 89 -35t37 -92q0 -63 -46 -103t-113 -40zM181 443q51 0 51 112q0 107 -52 107q-38 0 -51 -33q-4 -28 -4 -61q0 -125 56 -125z" />
    <glyph glyph-name="seven.sup" horiz-adv-x="293" 
d="M150 434h-109q51 148 195 304h-216l17 88h261v-5q-118 -195 -148 -387z" />
    <glyph glyph-name="eight.sup" horiz-adv-x="340" 
d="M163 426q-66 0 -108 27.5t-42 73.5q0 66 85 90q-67 41 -67 104q0 52 38 83.5t101 31.5q59 0 97.5 -26t38.5 -64q0 -57 -79 -78q97 -52 97 -125q0 -54 -45 -85.5t-116 -31.5zM203 679q8 -4 12 -5q25 25 25 69q0 37 -17.5 57.5t-49.5 20.5q-28 0 -44.5 -15.5t-16.5 -39.5
q0 -26 20.5 -45t70.5 -42zM162 443q34 0 54 17t20 46q0 31 -25.5 50.5t-87.5 47.5q-8 3 -13 7q-30 -30 -30 -77q0 -42 21.5 -66.5t60.5 -24.5z" />
    <glyph glyph-name="nine.sup" horiz-adv-x="353" 
d="M79 436q110 36 140 169q-21 -39 -76 -39q-52 0 -89 35t-37 92q0 63 46 103t113 40q70 0 113.5 -47t43.5 -116q0 -35 -12 -69.5t-38.5 -69.5t-78.5 -64t-123 -44zM173 600q34 0 51 32q4 29 4 62q0 125 -56 125q-51 0 -51 -112q0 -107 52 -107z" />
    <glyph glyph-name="plus.sup" horiz-adv-x="315" 
d="M290 616h-123v-123h-20v123h-122v18h122v123h20v-123h123v-18z" />
    <glyph glyph-name="minus.sup" horiz-adv-x="315" 
d="M290 616h-265v18h265v-18z" />
    <glyph glyph-name="space_uni0326.alt" horiz-adv-x="300" 
d="M233 783l3 -5q-24 -17 -38.5 -40t-14.5 -42q0 -22 43 -65v-1l-82 -53q-45 28 -45 71q0 38 41.5 75.5t92.5 59.5z" />
    <glyph glyph-name="caron.alt" 
d="M65 574l18 201h100l-106 -203z" />
    <glyph glyph-name="space.uc" horiz-adv-x="191" 
 />
    <glyph glyph-name="questiondown.uc" horiz-adv-x="430" 
d="M290 492h16q-6 -47 -30.5 -88.5t-49.5 -69t-45.5 -76t-20.5 -109.5q0 -68 24 -106.5t66 -38.5q39 0 70 36t70 109l7 -2l-20 -137q-64 -25 -142 -25q-104 0 -159.5 40t-55.5 120q0 51 23 91.5t58.5 69t72 54t70 59.5t46.5 73zM289 737q32 0 54 -22.5t22 -53.5
q0 -32 -22 -54.5t-54 -22.5t-54 22.5t-22 54.5q0 31 22.5 53.5t53.5 22.5z" />
    <glyph glyph-name="exclamdown.uc" horiz-adv-x="237" 
d="M188 2v-2h-139v2l61 490h17zM119 737q31 0 53.5 -22.5t22.5 -53.5q0 -32 -22 -54.5t-54 -22.5t-54 22.5t-22 54.5q0 31 22 53.5t54 22.5z" />
    <glyph glyph-name="hyphen.uc" horiz-adv-x="275" 
d="M248 331h-221v68h221v-68z" />
    <glyph glyph-name="endash.uc" horiz-adv-x="533" 
d="M506 352h-479v22h479v-22z" />
    <glyph glyph-name="emdash.uc" horiz-adv-x="798" 
d="M771 352h-744v22h744v-22z" />
    <glyph glyph-name="guilsinglleft.uc" horiz-adv-x="279" 
d="M222 130l-8 -6l-158 175v20l158 175l8 -6l-83 -179z" />
    <glyph glyph-name="guilsinglright.uc" horiz-adv-x="279" 
d="M65 124l-8 6l83 179l-83 179l8 6l158 -175v-20z" />
    <glyph glyph-name="guillemotleft.uc" horiz-adv-x="432" 
d="M375 130l-8 -6l-158 175v20l158 175l8 -6l-83 -179zM222 130l-8 -6l-158 175v20l158 175l8 -6l-83 -179z" />
    <glyph glyph-name="guillemotright.uc" horiz-adv-x="432" 
d="M218 124l-8 6l83 179l-83 179l8 6l158 -175v-20zM65 124l-8 6l83 179l-83 179l8 6l158 -175v-20z" />
    <glyph glyph-name="parenleft.uc" horiz-adv-x="348" 
d="M311 -81l-8 -9q-109 75 -170 189t-61 253t61.5 253.5t169.5 189.5l8 -9q-120 -165 -120 -434q0 -266 120 -433z" />
    <glyph glyph-name="parenright.uc" horiz-adv-x="348" 
d="M45 -90l-8 9q120 167 120 433q0 269 -120 434l8 9q108 -75 169.5 -189.5t61.5 -253.5t-61 -253t-170 -189z" />
    <glyph glyph-name="bracketleft.uc" horiz-adv-x="371" 
d="M81 -90v885h261v-21h-146v-843h146v-21h-261z" />
    <glyph glyph-name="bracketright.uc" horiz-adv-x="371" 
d="M290 795v-885h-261v21h146v843h-146v21h261z" />
    <glyph glyph-name="braceleft.uc" horiz-adv-x="360" 
d="M331 -90h-21q-108 0 -164 33.5t-56 98.5q0 40 35.5 111t35.5 105q0 83 -110 83h-23v22h23q110 0 110 84q0 34 -35.5 105t-35.5 111q0 65 56 98.5t164 33.5h21v-21h-21q-52 0 -76 -19t-24 -80q0 -28 15.5 -91.5t15.5 -98.5q0 -67 -38.5 -95t-115.5 -36v-3q77 -8 115.5 -36
t38.5 -95q0 -35 -15.5 -98.5t-15.5 -91.5q0 -61 24 -80t76 -19h21v-21z" />
    <glyph glyph-name="braceright.uc" horiz-adv-x="360" 
d="M50 -90h-21v21h21q52 0 76 19t24 80q0 28 -15.5 91.5t-15.5 98.5q0 67 38.5 95t115.5 36v3q-77 8 -115.5 36t-38.5 95q0 35 15.5 98.5t15.5 91.5q0 61 -24 80t-76 19h-21v21h21q108 0 164 -33.5t56 -98.5q0 -40 -35.5 -111t-35.5 -105q0 -84 110 -84h23v-22h-23
q-110 0 -110 -83q0 -34 35.5 -105t35.5 -111q0 -65 -56 -98.5t-164 -33.5z" />
    <glyph glyph-name="slash.uc" horiz-adv-x="392" 
d="M-8 -90l377 912h29l-377 -912h-29z" />
    <glyph glyph-name="backslash.uc" horiz-adv-x="392" 
d="M400 -90h-29l-377 912h29z" />
    <glyph glyph-name="bar.uc" horiz-adv-x="205" 
d="M116 -89h-27v911h27v-911z" />
    <glyph glyph-name="at.uc" horiz-adv-x="883" 
d="M434 -56q-177 0 -292 99.5t-115 270.5q0 187 135.5 319t337.5 132q162 0 259 -86.5t97 -235.5q0 -127 -68.5 -213.5t-173.5 -86.5q-80 0 -110 51.5t-18 116.5q-71 -174 -161 -174q-41 0 -65.5 34.5t-24.5 94.5q0 73 32 144t99 121.5t153 50.5q52 0 86 -14l50 14h7
l-67 -254q-43 -160 45 -160q68 0 115.5 84t47.5 196q0 141 -83.5 219t-223.5 78q-121 0 -214 -62t-140 -159.5t-47 -211.5q0 -162 94 -255t249 -93q134 0 222 62l10 -16q-95 -66 -236 -66zM382 219q52 0 119 179l38 143q-8 22 -35 22q-61 0 -107 -93t-46 -184q0 -67 31 -67z
" />
    <glyph glyph-name="grave.uc" 
d="M293 794l-6 -12l-261 74l52 103z" />
    <glyph glyph-name="dieresis.uc" 
d="M364 868q0 -29 -20.5 -49.5t-50.5 -20.5q-29 0 -49 20.5t-20 49.5t20 50t49 21q30 0 50.5 -21t20.5 -50zM121 868q0 -29 -20.5 -49.5t-50.5 -20.5q-29 0 -49 20.5t-20 49.5t20.5 50t48.5 21q30 0 50.5 -21t20.5 -50z" />
    <glyph glyph-name="macron.uc" 
d="M8 831v57h329v-57h-329z" />
    <glyph glyph-name="acute.uc" 
d="M39 794l212 165l52 -103l-258 -74z" />
    <glyph glyph-name="circumflex.uc" 
d="M323 782l-150 68l-151 -68l-9 10l156 158h7l156 -158z" />
    <glyph glyph-name="caron.uc" 
d="M124 782h-8l-156 158l9 10l151 -68l151 68l8 -10z" />
    <glyph glyph-name="breve.uc" 
d="M173 870q101 0 130 77h11q-1 -24 -8.5 -48t-22.5 -48t-43.5 -39.5t-66.5 -15.5q-50 0 -83.5 27t-45 59t-12.5 65h11q28 -77 130 -77z" />
    <glyph glyph-name="dotaccent.uc" 
d="M242 868q0 -29 -20.5 -49.5t-48.5 -20.5q-29 0 -49.5 20.5t-20.5 49.5t20.5 50.5t49.5 21.5q28 0 48.5 -21.5t20.5 -50.5z" />
    <glyph glyph-name="ring.uc" horiz-adv-x="300" 
d="M59 867q0 38 26 63t65 25t65.5 -24.5t26.5 -63.5q0 -38 -26.5 -62t-65.5 -24t-65 24t-26 62zM101 867q0 -32 13 -49.5t36 -17.5t36.5 18t13.5 49q0 32 -13.5 50.5t-36.5 18.5t-36 -18.5t-13 -50.5z" />
    <glyph glyph-name="tilde.uc" 
d="M95 910q30 0 84 -19.5t86 -19.5q28 0 44 11.5t24 40.5l12 -2q0 -132 -95 -132q-30 0 -84 19.5t-86 19.5q-28 0 -44 -12t-24 -41l-12 2q0 27 3.5 47t12.5 41.5t29 33t50 11.5z" />
    <glyph glyph-name="hungarumlaut.uc" 
d="M175 792l139 160l61 -87l-191 -83zM-16 792l138 160l61 -87l-191 -83z" />
    <glyph glyph-name="Cacute.pl" horiz-adv-x="759" 
d="M714 248l-20 -190q-30 -21 -105 -47t-166 -26q-173 0 -283.5 107.5t-110.5 269.5q0 163 116 274t292 111q124 0 253 -43l20 -173l-9 -3q-80 111 -137.5 154.5t-135.5 43.5q-64 0 -111.5 -26.5t-75.5 -76.5t-41 -114.5t-13 -146.5q0 -165 60 -260.5t177 -95.5
q48 0 88 16.5t74 52t60 75.5t59 101zM367 789l98 174l78 -63l-168 -118z" />
    <glyph glyph-name="Nacute.pl" horiz-adv-x="707" 
d="M583 -3l-474 619l3 -409q1 -68 16 -109t57 -96v-2h-166v2q40 56 53.5 96.5t13.5 108.5v376q-3 49 -19 79t-57 68v2h189l396 -522l-2 314q-1 69 -14.5 109.5t-52.5 96.5v2h158v-2q-39 -57 -52.5 -97t-13.5 -108v-525zM317 789l98 174l78 -63l-168 -118z" />
    <glyph glyph-name="Oacute.pl" horiz-adv-x="823" 
d="M411 -15q-100 0 -188 50t-141 138t-53 192q0 158 114.5 270t267.5 112q100 0 188 -50.5t141.5 -139t53.5 -192.5t-53.5 -192t-141.5 -138t-188 -50zM411 6q113 0 169 97.5t56 261.5t-56 262.5t-169 98.5q-76 0 -127.5 -48t-74 -127.5t-22.5 -185.5q0 -163 55.5 -261
t168.5 -98zM353 789l98 174l78 -63l-168 -118z" />
    <glyph glyph-name="Sacute.pl" horiz-adv-x="567" 
d="M467 720l23 -185l-10 -3q-100 194 -214 194q-48 0 -77.5 -29t-29.5 -77q0 -29 10 -52t41.5 -46t45 -30.5t63.5 -32.5q11 -6 17 -9q46 -23 74.5 -40.5t61.5 -47t49 -69.5t16 -90q0 -111 -75 -164.5t-193 -53.5q-110 0 -212 42l-23 193l10 3q65 -114 125 -165.5t128 -51.5
q61 0 95 36.5t34 91.5q0 62 -42 101t-122 77q-33 17 -51.5 26.5t-47 27.5t-44.5 34.5t-32.5 38.5t-24 49.5t-7.5 59.5q0 69 36.5 115.5t91 65t123.5 18.5q82 0 161 -27zM225 789l98 174l78 -63l-168 -118z" />
    <glyph glyph-name="Zacute.pl" horiz-adv-x="644" 
d="M577 0h-559v10l429 704l-129 -5q-143 -5 -265 -181l-8 3l49 201h524v-10l-428 -705l157 6q148 5 273 203l8 -3zM291 789l98 174l78 -63l-168 -118z" />
    <glyph glyph-name="acute.pl" horiz-adv-x="300" 
d="M86 548l71 201l92 -55l-154 -152z" />
    <glyph glyph-name="acute.ucpl" horiz-adv-x="300" 
d="M104 789l98 174l78 -63l-168 -118z" />
    <glyph glyph-name="cacute.pl" horiz-adv-x="480" 
d="M446 127l6 -4q-20 -64 -70.5 -101t-126.5 -37q-104 0 -167 67.5t-63 178.5q0 115 77 190.5t188 75.5q72 0 134 -25l13 -126l-9 -2q-34 56 -76 95t-77 39q-55 0 -89 -53t-34 -141q0 -99 46.5 -150t122.5 -51q84 0 125 44zM217 548l71 201l92 -55l-154 -152z" />
    <glyph glyph-name="divide.osf" horiz-adv-x="546" 
d="M494 231h-442v24h442v-24zM274 3q-31 0 -53 22t-22 53t22 53t53 22q30 0 52 -22t22 -53t-22 -53t-52 -22zM274 328q-31 0 -53 22t-22 53t22 53t53 22q30 0 52 -22t22 -53t-22 -53t-52 -22z" />
    <glyph glyph-name="eight.osf" horiz-adv-x="486" 
d="M235 -10q-94 0 -153.5 49.5t-59.5 125.5q0 63 41 112t104 79q-39 26 -64 49.5t-44 62t-19 85.5q0 89 59 141.5t150 52.5q85 0 141 -46t56 -110q0 -103 -142 -158q35 -21 59.5 -40.5t49.5 -48t38 -65t13 -80.5q0 -99 -65.5 -154t-163.5 -55zM238 11q52 0 83 38.5t31 96.5
q0 34 -11 61.5t-36.5 51t-45 37t-56.5 36.5l-19 12q-64 -67 -64 -172q0 -74 30.5 -117.5t87.5 -43.5zM274 451q12 -7 14 -8q68 48 68 144q0 65 -28.5 102t-80.5 37q-48 0 -76.5 -31.5t-28.5 -81.5q0 -29 9.5 -52t32 -44t39.5 -33t51 -33z" />
    <glyph glyph-name="equal.osf" horiz-adv-x="532" 
d="M487 312h-442v23h442v-23zM487 171h-442v23h442v-23z" />
    <glyph glyph-name="f.short" horiz-adv-x="338" 
d="M58 0v2q27 48 27 145v315h-63v20h63v47q0 113 48.5 181t124.5 68q33 0 69 -12l12 -119l-6 -2q-68 115 -84 115q-9 0 -17 -16.5t-13.5 -57.5t-5.5 -101v-103h102v-20h-102v-315q0 -93 26 -145v-2h-181z" />
    <glyph glyph-name="f_f.short" horiz-adv-x="627" 
d="M58 0v2q27 48 27 145v315h-63v20h63v33q0 109 59 176t144 67q37 0 69 -12l11 -112l-6 -2q-57 86 -80 102q-9 6 -16 6q-21 0 -37 -46.5t-16 -122.5v-89h161v47q0 114 45 181.5t117 67.5q40 0 72 -12l13 -119l-6 -2q-64 115 -82 115q-8 0 -15 -16.5t-12 -57.5t-5 -101v-103
h103v-20h-103v-315q0 -94 27 -145v-2h-182v2q28 50 28 145v315h-161v-315q0 -93 26 -145v-2h-181z" />
    <glyph glyph-name="five.osf" horiz-adv-x="476" 
d="M166 -245q-54 0 -100 16.5t-64 33.5l-12 141l8 2q84 -172 183 -172q57 0 90 45t33 114q0 97 -65.5 164t-185.5 96l113 302h292l-40 -109h-270l-29 -78q133 -31 212.5 -111t79.5 -198q0 -113 -71 -179.5t-174 -66.5z" />
    <glyph glyph-name="four.osf" horiz-adv-x="506" 
d="M256 -195v195h-256v10l385 497h8v-434h110l-17 -73h-93v-195h-137zM256 73v230l-177 -230h177z" />
    <glyph glyph-name="four.osfalt" horiz-adv-x="505" 
d="M262 -195v195h-269v10l298 467h164l-432 -453h239v147h137v-147h97l-8 -24h-89v-195h-137z" />
    <glyph glyph-name="greater.osf" horiz-adv-x="530" 
d="M485 228l-430 -208v27l405 194l-405 194v27l430 -208v-26z" />
    <glyph glyph-name="less.osf" horiz-adv-x="530" 
d="M475 20l-430 208v26l430 208v-27l-405 -194l405 -194v-27z" />
    <glyph glyph-name="minus.osf" horiz-adv-x="532" 
d="M487 231h-442v24h442v-24z" />
    <glyph glyph-name="multiply.osf" horiz-adv-x="472" 
d="M405 56l-169 169l-169 -169l-17 17l169 169l-169 169l17 17l169 -169l169 169l17 -17l-169 -169l169 -169z" />
    <glyph glyph-name="nacute.pl" horiz-adv-x="573" 
d="M221 2v-2h-174v2q23 70 23 184v116q0 88 -47 143v2l171 55v-98l4 -1q69 94 164 94q67 0 106 -38.5t39 -103.5v-168q0 -123 24 -185v-2h-175v2q23 66 23 183v153q0 41 -20 66.5t-61 25.5q-59 0 -100 -50v-194q0 -121 23 -184zM252 548l71 201l92 -55l-154 -152z" />
    <glyph glyph-name="nine.osf" horiz-adv-x="565" 
d="M277 511q114 0 184.5 -84.5t70.5 -204.5q0 -53 -14 -106t-48 -108.5t-84 -103t-128 -89t-175 -66.5l-3 10q209 77 283 296q-37 -46 -110 -46q-97 0 -159.5 71t-62.5 173q0 108 70.5 183t175.5 75zM279 490q-111 0 -111 -241q0 -115 27 -165.5t81 -50.5q68 0 101 70
q18 77 18 150q0 64 -10 114.5t-37 86.5t-69 36z" />
    <glyph glyph-name="oacute.pl" horiz-adv-x="574" 
d="M287 -15q-107 0 -185 76t-77 179t78 180t184 77t184.5 -77t77.5 -180t-77.5 -179t-184.5 -76zM287 4q63 0 95 66t32 170t-32 170.5t-95 66.5t-94.5 -66.5t-31.5 -170.5q0 -105 31.5 -170.5t94.5 -65.5zM252 548l71 201l92 -55l-154 -152z" />
    <glyph glyph-name="one.osf" horiz-adv-x="289" 
d="M269 0h-241v2q32 33 42 64.5t10 95.5v267h-81v11l216 67h2v-345q0 -64 10 -95t42 -65v-2z" />
    <glyph glyph-name="plus.osf" horiz-adv-x="532" 
d="M487 231h-208v-208h-26v208h-208v24h208v208h26v-208h208v-24z" />
    <glyph glyph-name="sacute.pl" horiz-adv-x="413" 
d="M347 478l11 -116l-7 -2q-78 119 -155 119q-35 0 -56.5 -20t-21.5 -50q0 -8 2 -16t4.5 -14t9 -12.5t10.5 -11t14 -10.5l15 -9t17.5 -8.5t17.5 -8t19.5 -8.5t19.5 -8q31 -13 52.5 -25.5t44 -32t34 -47.5t11.5 -63q0 -75 -54.5 -112.5t-141.5 -37.5q-81 0 -154 28l-12 134
l7 2q85 -146 177 -146q42 0 62.5 22.5t20.5 53.5q0 36 -26.5 58t-85.5 48q-34 15 -53 25.5t-44.5 30.5t-37.5 48t-12 64q0 74 53 109t135 35q67 0 124 -19zM168 548l71 201l92 -55l-154 -152z" />
    <glyph glyph-name="seven.osf" horiz-adv-x="464" 
d="M148 -245h-140q76 182 167.5 330t207.5 303h-359l23 109h407v-10q-182 -338 -306 -732z" />
    <glyph glyph-name="six.osf" horiz-adv-x="565" 
d="M289 -10q-114 0 -184.5 84.5t-70.5 204.5q0 53 14 106t48 108.5t84 103t128 89t175 66.5l3 -10q-209 -77 -283 -296q37 46 110 46q97 0 159.5 -71t62.5 -173q0 -108 -70.5 -183t-175.5 -75zM287 11q111 0 111 241q0 115 -27 165.5t-81 50.5q-68 0 -101 -70
q-18 -76 -18 -150q0 -64 10 -114.5t37 -86.5t69 -36z" />
    <glyph glyph-name="three.osf" horiz-adv-x="478" 
d="M191 -245q-53 0 -97 13t-65 28l-25 155l8 2q51 -92 94 -135.5t95 -43.5q55 0 88 45.5t33 112.5q0 86 -55.5 141.5t-140.5 74.5v5q86 21 134.5 76t48.5 134q0 56 -23 90.5t-60 34.5q-41 0 -79 -41t-80 -117l-7 2l20 143q58 32 158 32q89 0 142.5 -37.5t53.5 -106.5
q0 -111 -135 -163q68 -31 109.5 -87t41.5 -130q0 -100 -74 -164t-185 -64z" />
    <glyph glyph-name="three.osfalt" horiz-adv-x="478" 
d="M191 -245q-53 0 -97 13t-65 28l-25 155l8 2q51 -92 94 -135.5t95 -43.5q55 0 88 45.5t33 112.5q0 86 -55.5 141.5t-140.5 74.5v5q84 21 127 66.5t43 109.5q0 54 -29.5 85t-85.5 31q-78 0 -127 -39l-5 6q70 95 198 95q81 0 131.5 -39t50.5 -105q0 -109 -127 -164
q67 -31 107.5 -86.5t40.5 -129.5q0 -100 -74 -164t-185 -64z" />
    <glyph glyph-name="two.osf" horiz-adv-x="497" 
d="M425 0h-400v8q131 88 187 174t56 178q0 59 -21.5 92.5t-57.5 33.5q-69 0 -143 -142l-7 2l21 128q57 33 149 33q95 0 148 -38t53 -110q0 -145 -230 -247h177q40 0 59 12t41 46l8 -3z" />
    <glyph glyph-name="two.osfalt" horiz-adv-x="497" 
d="M425 0h-400v8q134 90 194 167t60 153q0 56 -29 86.5t-86 30.5q-68 0 -117 -39l-5 6q70 95 197 95q82 0 132.5 -40.5t50.5 -111.5q0 -75 -58.5 -132t-179.5 -111h173q40 0 59 12t41 46l8 -3z" />
    <glyph glyph-name="zacute.pl" horiz-adv-x="465" 
d="M408 0h-393v7l270 458l-99 -4q-15 0 -29.5 -6t-33.5 -22t-27.5 -24t-33 -34t-28.5 -30l-6 2l37 135h367v-8l-270 -458l114 3q42 2 79 34.5t85 96.5l6 -2zM210 548l71 201l92 -55l-154 -152z" />
    <glyph glyph-name="zero.osf" horiz-adv-x="567" 
d="M283 -10q-106 0 -183 77t-76 181t77.5 181.5t181.5 77.5q106 0 182.5 -77.5t76.5 -181.5t-76.5 -181t-182.5 -77zM283 11q42 0 69 34.5t37.5 85t10.5 117.5q0 104 -28 171t-89 67t-89 -67t-28 -171q0 -67 10.5 -117.5t37.5 -85t69 -34.5z" />
    </font>
</defs>
</svg>
