<?xml version="1.0" standalone="no"?>
<!DOCTYPE svg PUBLIC "-//W3C//DTD SVG 1.1//EN" "http://www.w3.org/Graphics/SVG/1.1/DTD/svg11.dtd" >
<svg xmlns="http://www.w3.org/2000/svg" xmlns:xlink="http://www.w3.org/1999/xlink" version="1.1">
<metadata>
Created by FontForge 20170731 at Tue May  2 20:44:10 2017
 By Aleksey,,,
Copyright (C)2016 Commercial Type.
</metadata>
<defs>
<font id="Canela-Regular" horiz-adv-x="300" >
  <font-face 
    font-family="Canela Regular"
    font-weight="400"
    font-stretch="normal"
    units-per-em="1000"
    panose-1="0 0 0 0 0 0 0 0 0 0"
    ascent="775"
    descent="-225"
    x-height="477"
    cap-height="732"
    bbox="-135 -260 1143 1139"
    underline-thickness="20"
    underline-position="-120"
    unicode-range="U+0020-FB04"
  />
<missing-glyph horiz-adv-x="161" 
 />
    <glyph glyph-name="f_b" unicode="fb" horiz-adv-x="851" 
d="M574 -15q-97 0 -160 50l-51 -45h-4v618q0 65 -27 108.5t-63 43.5q-35 0 -57.5 -45.5t-22.5 -127.5v-110h118v-18h-118v-320q0 -97 23 -137v-2h-147v2q24 37 24 137v320h-63v18h63v66q0 107 58.5 171t143.5 64q64 0 102 -24l66 24v-370h2q70 84 168 84q88 0 140 -69
t52 -179q0 -113 -64 -186t-183 -73zM584 3q59 0 95.5 60t36.5 162q0 103 -39 152.5t-108 49.5q-65 0 -110 -41v-201q0 -94 38 -138t87 -44z" />
    <glyph glyph-name="f_f_b" unicode="ffb" horiz-adv-x="1121" 
d="M844 -15q-96 0 -160 50l-51 -45h-4v618q0 65 -27 108.5t-63 43.5q-35 0 -57.5 -45.5t-22.5 -127.5v-110h118v-18h-118v-320q0 -97 23 -137v-2h-147v2q24 37 24 137v320h-170v-320q0 -97 23 -137v-2h-147v2q24 37 24 137v320h-63v18h63v46q0 107 55 171t131 64
q42 0 62 -14l11 -105l-6 -2q-61 103 -95 103q-23 0 -40.5 -46.5t-17.5 -126.5v-90h170v66q0 107 58.5 171t143.5 64q64 0 102 -24l66 24v-370h2q70 84 168 84q88 0 140 -69t52 -179q0 -113 -64 -186t-183 -73zM854 3q59 0 95.5 60t36.5 162q0 103 -39 152.5t-108 49.5
q-65 0 -110 -41v-201q0 -94 38 -138t87 -44z" />
    <glyph glyph-name="f_f_h" unicode="ffh" horiz-adv-x="1101" 
d="M65 0v2q24 37 24 137v320h-63v18h63v46q0 107 55 171t131 64q42 0 62 -14l11 -105l-6 -2q-61 103 -95 103q-23 0 -40.5 -46.5t-17.5 -126.5v-90h170v66q0 107 58.5 171t143.5 64q64 0 102 -24l66 24v-378q76 92 161 92q68 0 105 -39t37 -106v-153q0 -132 22 -192v-2h-145
v2q23 67 23 192v130q0 47 -22.5 77t-69.5 30q-63 0 -111 -51v-240q0 -94 23 -138v-2h-145v2q22 47 22 137v469q0 65 -27 108.5t-63 43.5q-35 0 -57.5 -45.5t-22.5 -127.5v-110h118v-18h-118v-320q0 -97 23 -137v-2h-147v2q24 37 24 137v320h-170v-320q0 -97 23 -137v-2h-147
z" />
    <glyph glyph-name="f_f_j" unicode="ffj" horiz-adv-x="800" 
d="M727 2q0 -97 -45.5 -152.5t-115.5 -64.5l-2 6q65 40 65 141v396q0 89 -35 131h-135v-320q0 -97 23 -137v-2h-147v2q24 37 24 137v320h-170v-320q0 -97 23 -137v-2h-147v2q24 37 24 137v320h-63v18h63v46q0 107 55 171t131 64q42 0 62 -14l11 -105l-6 -2q-61 103 -95 103
q-23 0 -40.5 -46.5t-17.5 -126.5v-90h170v66q0 107 59 171t144 64q69 0 107 -24l11 -155l-6 -2q-28 57 -68 110t-74 53q-30 0 -51.5 -46t-21.5 -127v-110h129q83 0 141 20z" />
    <glyph glyph-name="f_f_k" unicode="ffk" horiz-adv-x="1038" 
d="M1048 0h-139l-172 248l115 125q24 26 32 54.5t-4 47.5v2h130v-2q-65 -29 -144 -114l-52 -57l147 -212q48 -69 87 -90v-2zM65 0v2q24 37 24 137v320h-63v18h63v46q0 107 55 171t131 64q42 0 62 -14l11 -105l-6 -2q-61 103 -95 103q-23 0 -40.5 -46.5t-17.5 -126.5v-90h170
v66q0 107 58.5 171t143.5 64q64 0 102 -24l66 24v-638q0 -94 23 -138v-2h-145v2q22 47 22 137v469q0 65 -27 108.5t-63 43.5q-35 0 -57.5 -45.5t-22.5 -127.5v-110h118v-18h-118v-320q0 -97 23 -137v-2h-147v2q24 37 24 137v320h-170v-320q0 -97 23 -137v-2h-147z" />
    <glyph glyph-name="f_h" unicode="fh" horiz-adv-x="831" 
d="M212 0h-147v2q24 37 24 137v320h-63v18h63v66q0 107 58.5 171t143.5 64q64 0 102 -24l66 24v-378q76 92 161 92q68 0 105 -39t37 -106v-153q0 -132 22 -192v-2h-145v2q23 67 23 192v130q0 47 -22.5 77t-69.5 30q-63 0 -111 -51v-240q0 -94 23 -138v-2h-145v2
q22 47 22 137v469q0 65 -27 108.5t-63 43.5q-35 0 -57.5 -45.5t-22.5 -127.5v-110h118v-18h-118v-320q0 -97 23 -137v-2z" />
    <glyph glyph-name="f_j" unicode="fj" horiz-adv-x="526" 
d="M457 2q0 -97 -45.5 -152.5t-115.5 -64.5l-2 6q65 40 65 141v396q0 89 -35 131h-135v-320q0 -97 23 -137v-2h-147v2q24 37 24 137v320h-63v18h63v66q0 107 59 171t144 64q69 0 107 -24l11 -155l-6 -2q-28 57 -68 110t-74 53q-30 0 -51.5 -46t-21.5 -127v-110h129
q83 0 141 20z" />
    <glyph glyph-name="f_k" unicode="fk" horiz-adv-x="768" 
d="M212 0h-147v2q24 37 24 137v320h-63v18h63v66q0 107 58.5 171t143.5 64q64 0 102 -24l66 24v-638q0 -94 23 -138v-2h-145v2q22 47 22 137v469q0 65 -27 108.5t-63 43.5q-35 0 -57.5 -45.5t-22.5 -127.5v-110h118v-18h-118v-320q0 -97 23 -137v-2zM778 0h-139l-172 248
l115 125q24 26 32 54.5t-4 47.5v2h130v-2q-65 -29 -144 -114l-52 -57l147 -212q48 -69 87 -90v-2z" />
    <glyph glyph-name="f_t" unicode="ft" horiz-adv-x="613" 
d="M599 48q-45 -63 -126 -63q-114 0 -114 121v353h-170v-320q0 -97 23 -137v-2h-147v2q24 37 24 137v320h-63v18h63v66q0 107 58.5 171t142.5 64q49 0 77 -14l11 -105l-6 -2q-61 103 -108 103q-32 0 -53.5 -46t-21.5 -127v-110h118l143 113h10v-113h129v-18h-129v-350
q0 -74 72 -74q15 0 31 4t25 8t9 5z" />
    <glyph glyph-name="f_f_t" unicode="fft" horiz-adv-x="883" 
d="M869 48q-45 -63 -126 -63q-114 0 -114 121v353h-170v-320q0 -97 23 -137v-2h-147v2q24 37 24 137v320h-170v-320q0 -97 23 -137v-2h-147v2q24 37 24 137v320h-63v18h63v46q0 107 55 171t131 64q42 0 62 -14l11 -105l-6 -2q-61 103 -95 103q-23 0 -40.5 -46.5
t-17.5 -126.5v-90h170v66q0 107 58.5 171t142.5 64q49 0 77 -14l11 -105l-6 -2q-61 103 -108 103q-32 0 -53.5 -46t-21.5 -127v-110h118l143 113h10v-113h129v-18h-129v-350q0 -74 72 -74q15 0 31 4t25 8t9 5z" />
    <glyph glyph-name="f_f" unicode="ff" horiz-adv-x="583" 
d="M65 0v2q24 37 24 137v320h-63v18h63v46q0 107 55 171t131 64q42 0 62 -14l11 -105l-6 -2q-61 103 -95 103q-23 0 -40.5 -46.5t-17.5 -126.5v-90h170v66q0 107 58.5 171t142.5 64q49 0 77 -14l11 -105l-6 -2q-61 103 -108 103q-32 0 -53.5 -46t-21.5 -127v-110h118v-18
h-118v-320q0 -97 23 -137v-2h-147v2q24 37 24 137v320h-170v-320q0 -97 23 -137v-2h-147z" />
    <glyph glyph-name="f_i" unicode="fi" horiz-adv-x="527" 
d="M212 0h-147v2q24 37 24 137v320h-63v18h63v66q0 107 59 171t144 64q69 0 107 -24l11 -155l-6 -2q-28 57 -68 110t-74 53q-30 0 -51.5 -46t-21.5 -127v-110h129q83 0 141 20v-302q0 -133 22 -193v-2h-145v2q23 90 23 192v134q0 89 -35 131h-135v-320q0 -97 23 -137v-2z
" />
    <glyph glyph-name="f_l" unicode="fl" horiz-adv-x="528" 
d="M212 2v-2h-147v2q24 37 24 137v320h-63v18h63v66q0 107 58.5 171t143.5 64q64 0 102 -24l66 24v-638q0 -94 23 -138v-2h-145v2q22 47 22 137v469q0 65 -27 108.5t-63 43.5q-35 0 -57.5 -45.5t-22.5 -127.5v-110h118v-18h-118v-320q0 -97 23 -137z" />
    <glyph glyph-name="f_f_i" unicode="ffi" horiz-adv-x="797" 
d="M212 0h-147v2q24 37 24 137v320h-63v18h63v46q0 107 55 171t131 64q42 0 62 -14l11 -105l-6 -2q-61 103 -95 103q-23 0 -40.5 -46.5t-17.5 -126.5v-90h170v66q0 107 59 171t144 64q69 0 107 -24l11 -155l-6 -2q-28 57 -68 110t-74 53q-30 0 -51.5 -46t-21.5 -127v-110
h129q83 0 141 20v-302q0 -133 22 -193v-2h-145v2q23 90 23 192v134q0 89 -35 131h-135v-320q0 -97 23 -137v-2h-147v2q24 37 24 137v320h-170v-320q0 -97 23 -137v-2z" />
    <glyph glyph-name="f_f_l" unicode="ffl" horiz-adv-x="798" 
d="M65 0v2q24 37 24 137v320h-63v18h63v46q0 107 55 171t131 64q42 0 62 -14l11 -105l-6 -2q-61 103 -95 103q-23 0 -40.5 -46.5t-17.5 -126.5v-90h170v66q0 107 58.5 171t143.5 64q64 0 102 -24l66 24v-638q0 -94 23 -138v-2h-145v2q22 47 22 137v469q0 65 -27 108.5
t-63 43.5q-35 0 -57.5 -45.5t-22.5 -127.5v-110h118v-18h-118v-320q0 -97 23 -137v-2h-147v2q24 37 24 137v320h-170v-320q0 -97 23 -137v-2h-147z" />
    <glyph glyph-name=".notdef" horiz-adv-x="161" 
 />
    <glyph glyph-name=".null" horiz-adv-x="0" 
 />
    <glyph glyph-name="nonmarkingreturn" horiz-adv-x="333" 
 />
    <glyph glyph-name="space" unicode=" " horiz-adv-x="170" 
 />
    <glyph glyph-name="exclam" unicode="!" horiz-adv-x="234" 
d="M171 732v-2l-46 -506h-16l-45 506v2h107zM117 -5q-28 0 -47.5 20t-19.5 47q0 29 19.5 49t47.5 20t47.5 -20t19.5 -49q0 -27 -19.5 -47t-47.5 -20z" />
    <glyph glyph-name="quotedbl" unicode="&#x22;" horiz-adv-x="309" 
d="M82 505l-47 227h104l-47 -227h-10zM217 505l-47 227h104l-47 -227h-10z" />
    <glyph glyph-name="numbersign" unicode="#" horiz-adv-x="595" 
d="M372 251l42 230h-188l-42 -230h188zM325 0l43 231h-188l-43 -231h-25l43 231h-137v20h141l42 230h-137v20h141l43 231h25l-43 -231h188l43 231h25l-43 -231h140v-20h-144l-42 -230h140v-20h-144l-43 -231h-25z" />
    <glyph glyph-name="dollar" unicode="$" horiz-adv-x="553" 
d="M291 -114h-25v99h-5q-103 0 -206 39l-20 185l8 3q103 -191 223 -206v320q-42 21 -62.5 32t-53.5 33.5t-48.5 43t-28.5 52.5t-13 69q0 90 58 137t148 53v76h25v-75q83 0 163 -29l20 -181l-9 -3q-77 167 -174 189v-271l31 -15q38 -19 59.5 -30.5t52.5 -34t47.5 -45t29 -56
t12.5 -73.5q0 -99 -64.5 -152t-167.5 -60v-100zM424 142q0 59 -35 99t-98 73v-309q64 1 98.5 40t34.5 97zM149 615q0 -52 30 -86t87 -64v261q-2 0 -4.5 0.5t-3.5 0.5q-51 0 -80 -30.5t-29 -81.5z" />
    <glyph glyph-name="percent" unicode="%" horiz-adv-x="771" 
d="M194 346q-69 0 -118 58t-49 143q0 86 48.5 143t118.5 57t120.5 -57.5t50.5 -142.5q0 -84 -50.5 -142.5t-120.5 -58.5zM194 361q77 0 77 186q0 185 -77 185q-73 0 -73 -185q0 -186 73 -186zM573 -8q-69 0 -118 58t-49 143q0 86 48.5 143t118.5 57t120.5 -57.5t50.5 -142.5
q0 -84 -50.5 -142.5t-120.5 -58.5zM573 7q77 0 77 186q0 185 -77 185q-73 0 -73 -185q0 -186 73 -186zM141 1l-17 14l520 728l18 -12z" />
    <glyph glyph-name="ampersand" unicode="&#x26;" horiz-adv-x="782" 
d="M613 -15q-83 0 -159 73q-76 -73 -188 -73q-106 0 -161 55.5t-55 135.5q0 70 41.5 124t113.5 84q-39 53 -57 94.5t-18 86.5q0 81 50.5 131.5t126.5 50.5q72 0 110.5 -43.5t38.5 -101.5q0 -114 -142 -183q42 -52 80 -103q84 -117 120 -154q32 49 50.5 104.5t18.5 98.5
q0 30 -12 48t-44 28v6h209v-6q-52 -17 -76 -43q-22 -23 -48 -84q-4 -10 -17.5 -40t-20.5 -46t-20 -39.5t-26 -40.5q73 -68 147 -68q69 0 93 49l4 -3q-15 -64 -55 -102.5t-104 -38.5zM322 36q66 0 117 37q-25 26 -48 55.5t-56.5 78.5t-39.5 57l-81 108q-64 -46 -64 -149
q0 -83 44.5 -135t127.5 -52zM208 614q0 -32 13 -62.5t29 -51.5t57 -72q94 56 94 164q0 55 -26 95t-74 40q-39 0 -66 -29t-27 -84z" />
    <glyph glyph-name="quotesingle" unicode="'" horiz-adv-x="174" 
d="M82 505l-47 227h104l-47 -227h-10z" />
    <glyph glyph-name="parenleft" unicode="(" horiz-adv-x="350" 
d="M303 -121l-8 -9q-99 76 -154.5 189.5t-55.5 252.5t55.5 253.5t154.5 189.5l8 -9q-123 -168 -123 -434q0 -265 123 -433z" />
    <glyph glyph-name="parenright" unicode=")" horiz-adv-x="350" 
d="M55 -130l-8 9q123 168 123 433q0 266 -123 434l8 9q99 -75 154.5 -189.5t55.5 -253.5t-55.5 -252.5t-154.5 -189.5z" />
    <glyph glyph-name="asterisk" unicode="*" horiz-adv-x="393" 
d="M255 435l-59 130l-58 -130l-62 44l106 96l-142 16l23 72l124 -71l-29 140h76l-29 -140l124 71l24 -72l-143 -16l106 -96z" />
    <glyph glyph-name="plus" unicode="+" horiz-adv-x="532" 
d="M487 297h-209v-209h-24v209h-209v22h209v209h24v-209h209v-22z" />
    <glyph glyph-name="comma" unicode="," horiz-adv-x="256" 
d="M48 -138l-5 6q63 57 63 118q0 29 -54 88v2l97 72q24 -16 39.5 -41.5t15.5 -52.5q0 -54 -48 -106.5t-108 -85.5z" />
    <glyph glyph-name="hyphen" unicode="-" horiz-adv-x="281" 
d="M251 258h-221v50h221v-50z" />
    <glyph glyph-name="period" unicode="." horiz-adv-x="256" 
d="M128 -5q-28 0 -47.5 20t-19.5 47q0 28 19.5 48t47.5 20q27 0 47 -20t20 -48q0 -27 -20 -47t-47 -20z" />
    <glyph glyph-name="slash" unicode="/" horiz-adv-x="392" 
d="M-25 -130l380 911h28l-380 -911h-28z" />
    <glyph glyph-name="zero" unicode="0" horiz-adv-x="676" 
d="M337 -15q-126 0 -212.5 109.5t-86.5 271.5t86.5 271.5t212.5 109.5q127 0 214 -109.5t87 -271.5t-87 -271.5t-214 -109.5zM337 5q174 0 174 361t-174 361q-172 0 -172 -361t172 -361z" />
    <glyph glyph-name="one" unicode="1" horiz-adv-x="351" 
d="M295 0h-215v2q30 39 40 69.5t10 84.5v421h-88v10q101 55 191 155h12v-586q0 -54 9.5 -84t40.5 -70v-2z" />
    <glyph glyph-name="two" unicode="2" horiz-adv-x="526" 
d="M445 0h-440v15q204 179 282 297t78 236q0 83 -33.5 131t-96.5 48q-57 0 -97 -44t-89 -138l-10 4l26 166q82 32 172 32q123 0 183.5 -53.5t60.5 -142.5q0 -105 -86 -209t-273 -242h191q62 0 101 21.5t79 65.5l8 -3z" />
    <glyph glyph-name="three" unicode="3" horiz-adv-x="559" 
d="M249 -15q-53 0 -106 12.5t-84 31.5l-24 156l10 2q57 -95 102 -138.5t108 -43.5q77 0 115.5 63t38.5 161q0 102 -42.5 153.5t-121.5 51.5q-75 0 -133 -44l-9 12l273 230h-318l43 100h415v-10l-330 -278q33 15 86 15q104 0 178 -60t74 -169t-76 -177t-199 -68z" />
    <glyph glyph-name="four" unicode="4" horiz-adv-x="567" 
d="M293 0v2q24 39 32 69.5t8 84.5v34h-328v14l328 528h129l-432 -518h303v236h114v-236h90l-8 -24h-82v-34q0 -54 7.5 -84.5t32.5 -69.5v-2h-194z" />
    <glyph glyph-name="five" unicode="5" horiz-adv-x="534" 
d="M232 -15q-110 0 -177 44l-25 156l10 2q49 -91 93 -136.5t101 -45.5q70 0 113 59.5t43 164.5q0 106 -45.5 160.5t-131.5 54.5q-75 0 -136 -42l-8 4l54 326h366l-19 -100h-341l-34 -203q65 39 145 39q111 0 185 -59.5t74 -173.5t-76 -182t-191 -68z" />
    <glyph glyph-name="six" unicode="6" horiz-adv-x="589" 
d="M302 -15q-118 0 -191 84.5t-73 208.5q0 65 21.5 129.5t66 129t124 120.5t185.5 90l3 -10q-109 -49 -175.5 -141t-92.5 -204q19 41 59 67.5t99 26.5q100 0 165.5 -64t65.5 -173q0 -116 -74 -190t-183 -74zM302 5q66 0 103.5 59t37.5 169q0 212 -145 212q-98 0 -133 -78
q-11 -52 -11 -112q0 -107 36.5 -178.5t111.5 -71.5z" />
    <glyph glyph-name="seven" unicode="7" horiz-adv-x="514" 
d="M203 0h-111q86 309 332 632h-394l23 100h455v-10q-242 -368 -305 -722z" />
    <glyph glyph-name="eight" unicode="8" horiz-adv-x="560" 
d="M275 -15q-103 0 -174 52.5t-71 140.5q0 62 40.5 110t123.5 74q-128 69 -128 189q0 85 62 140.5t156 55.5q88 0 149 -48.5t61 -124.5q0 -32 -11 -60.5t-43.5 -57.5t-82.5 -45q173 -86 173 -219q0 -92 -73.5 -149.5t-181.5 -57.5zM160 601q0 -58 41 -97.5t135 -82.5
q68 57 68 156q0 71 -31.5 110.5t-89.5 39.5q-57 0 -90 -35.5t-33 -90.5zM276 5q70 0 111.5 39t41.5 104q0 67 -47 107.5t-168 96.5q-99 -62 -99 -176q0 -78 42.5 -124.5t118.5 -46.5z" />
    <glyph glyph-name="nine" unicode="9" horiz-adv-x="589" 
d="M154 -15l-3 10q106 51 173 142t94 200q-47 -91 -162 -91q-96 0 -161 64.5t-65 172.5q0 117 74 190.5t184 73.5q116 0 189.5 -84.5t73.5 -208.5q0 -65 -21.5 -129.5t-66 -129t-124 -120.5t-185.5 -90zM292 287q93 0 132 76q11 61 11 115q0 107 -36.5 178t-110.5 71
q-66 0 -104 -59t-38 -167q0 -214 146 -214z" />
    <glyph glyph-name="colon" unicode=":" horiz-adv-x="256" 
d="M128 317q-28 0 -47.5 20t-19.5 47q0 28 19.5 48t47.5 20q27 0 47 -20t20 -48q0 -27 -20 -47t-47 -20zM128 -5q-28 0 -47.5 20t-19.5 47q0 28 19.5 48t47.5 20q27 0 47 -20t20 -48q0 -27 -20 -47t-47 -20z" />
    <glyph glyph-name="semicolon" unicode=";" horiz-adv-x="256" 
d="M48 -138l-5 6q63 57 63 118q0 29 -54 88v2l97 72q24 -16 39.5 -41.5t15.5 -52.5q0 -54 -48 -106.5t-108 -85.5zM128 317q-28 0 -47.5 20t-19.5 47q0 28 19.5 48t47.5 20q27 0 47 -20t20 -48q0 -27 -20 -47t-47 -20z" />
    <glyph glyph-name="less" unicode="&#x3c;" horiz-adv-x="530" 
d="M475 85l-430 208v26l430 208v-26l-407 -195l407 -195v-26z" />
    <glyph glyph-name="equal" unicode="=" horiz-adv-x="532" 
d="M487 377h-442v22h442v-22zM487 237h-442v22h442v-22z" />
    <glyph glyph-name="greater" unicode="&#x3e;" horiz-adv-x="530" 
d="M485 293l-430 -208v26l407 195l-407 195v26l430 -208v-26z" />
    <glyph glyph-name="question" unicode="?" horiz-adv-x="427" 
d="M142 224h-16q7 42 27 77.5t42.5 61.5t44 55.5t36 72.5t14.5 99q0 65 -26 102t-75 37q-45 0 -77 -34.5t-70 -105.5l-7 2l20 131q66 25 139 25q208 0 208 -162q0 -43 -16 -79.5t-40 -61t-54.5 -51t-59 -48t-53.5 -53.5t-37 -68zM140 -5q-28 0 -47.5 20t-19.5 47
q0 29 19.5 49t47.5 20t47.5 -20t19.5 -49q0 -27 -19.5 -47t-47.5 -20z" />
    <glyph glyph-name="at" unicode="@" horiz-adv-x="857" 
d="M421 -161q-170 0 -280.5 96.5t-110.5 263.5q0 181 129.5 309t325.5 128q156 0 249 -84t93 -229q0 -122 -64.5 -206.5t-163.5 -84.5q-40 0 -67.5 16t-37.5 40t-14.5 52t1.5 53q-75 -166 -160 -166q-37 0 -59.5 34t-22.5 91q0 71 32 140.5t95 117.5t139 48q44 0 79 -14
l38 14h7l-62 -236q-14 -52 -16.5 -87t12.5 -59t50 -24q72 0 119 83.5t47 192.5q0 137 -80.5 212.5t-217.5 75.5q-119 0 -209.5 -60t-136 -154.5t-45.5 -205.5q0 -157 92.5 -247t242.5 -90q130 0 214 60l9 -16q-91 -64 -227 -64zM366 95q56 0 132 190l34 130q-9 24 -41 24
q-44 0 -82.5 -47t-58 -109.5t-19.5 -118.5q0 -69 35 -69z" />
    <glyph glyph-name="A" unicode="A" horiz-adv-x="636" 
d="M379 296l-109 289l-110 -289h219zM133 2v-2h-135v2q33 34 51.5 69.5t43.5 102.5l215 566h20l219 -577q42 -111 91 -161v-2h-199v2q14 19 11.5 66t-22.5 100l-41 108h-235l-21 -56q-52 -134 2 -218z" />
    <glyph glyph-name="B" unicode="B" horiz-adv-x="623" 
d="M312 0h-263v2q24 47 32 82.5t8 96.5v370q0 62 -8 97t-32 82v2q81 0 155.5 2t106.5 2q254 1 254 -171q0 -131 -136 -177q90 -14 132 -64.5t42 -119.5q0 -92 -71.5 -148t-219.5 -56zM204 391h116q70 1 102.5 50.5t32.5 117.5q0 76 -42 116.5t-119 40.5q-52 0 -90 -10v-315z
M298 20q90 0 137 48t47 131q0 78 -39 125t-114 47h-125v-339q48 -12 94 -12z" />
    <glyph glyph-name="C" unicode="C" horiz-adv-x="752" 
d="M705 240l-20 -183q-24 -18 -105.5 -45t-169.5 -27q-170 0 -275 108.5t-105 272.5q0 161 113 271t286 110q131 0 252 -48l20 -164l-8 -3q-77 109 -135.5 152t-141.5 43q-132 0 -195.5 -98t-63.5 -263q0 -164 63 -262.5t190 -98.5q99 0 163.5 60t123.5 178z" />
    <glyph glyph-name="D" unicode="D" horiz-adv-x="753" 
d="M49 0v2q24 40 32 70t8 82v424q0 52 -8 82t-32 70v2q62 0 134.5 2t139.5 2q188 0 294 -95.5t106 -271.5q0 -178 -104 -273.5t-296 -95.5h-274zM314 716h-110v-699l111 3q150 4 215.5 86t65.5 249q0 184 -69.5 272.5t-212.5 88.5z" />
    <glyph glyph-name="E" unicode="E" horiz-adv-x="620" 
d="M605 198l-44 -198h-512v2q21 50 30 85t9 82v394q0 48 -8.5 82t-30.5 85v2h462l39 -178l-8 -3q-12 13 -53 61t-68.5 72.5t-47.5 25.5l-169 7v-338h86q17 0 36 12.5t30.5 24.5t31.5 36.5t26 31.5h9v-226h-9q-7 7 -26 29.5t-31 35t-31 24.5t-36 12h-86v-344l178 7
q55 3 106 51.5t109 127.5z" />
    <glyph glyph-name="F" unicode="F" horiz-adv-x="590" 
d="M244 2v-2h-195v2q24 47 32 82.5t8 96.5v370q0 62 -8 97t-32 82v2h492l39 -178l-9 -2q-12 13 -52.5 61t-68.5 73t-48 25l-198 7v-330h106q17 0 36 12.5t30.5 24.5t31.5 36.5t26 31.5h9v-226h-9q-7 7 -26 29.5t-31 35t-31 24.5t-36 12h-106v-187q0 -63 7.5 -98t32.5 -81z
" />
    <glyph glyph-name="G" unicode="G" horiz-adv-x="783" 
d="M713 91q-1 -1 -19 -14t-24.5 -17t-27 -16.5t-34 -18t-37.5 -15t-45 -14t-49.5 -8t-57.5 -3.5q-175 0 -282 108.5t-107 272.5t110.5 272.5t295.5 108.5q109 0 256 -48l20 -163l-9 -3q-72 105 -134.5 149.5t-141.5 44.5q-132 0 -201 -100.5t-69 -261.5q0 -105 26 -183.5
t86 -127.5t150 -49q84 0 134 41t50 118q0 54 -9.5 88t-36.5 78v2h196v-2q-25 -46 -32.5 -81t-7.5 -98v-60z" />
    <glyph glyph-name="H" unicode="H" horiz-adv-x="757" 
d="M49 0v2q24 47 32 82.5t8 96.5v370q0 62 -8 97t-32 82v2h195v-2q-25 -46 -32.5 -81t-7.5 -98v-164h349v164q0 62 -8 97.5t-32 81.5v2h195v-2q-24 -47 -32 -82t-8 -97v-370q0 -62 8 -97t32 -82v-2h-195v2q24 46 32 81.5t8 97.5v186h-349v-186q0 -63 7.5 -98t32.5 -81v-2
h-195z" />
    <glyph glyph-name="I" unicode="I" horiz-adv-x="293" 
d="M49 0v2q25 46 32.5 81t7.5 98v370q0 63 -7.5 98t-32.5 81v2h195v-2q-25 -46 -32.5 -81t-7.5 -98v-370q0 -63 7.5 -98t32.5 -81v-2h-195z" />
    <glyph glyph-name="J" unicode="J" horiz-adv-x="404" 
d="M324 138q0 -73 -45 -113t-124 -40q-60 0 -117 22l-18 165l8 3q9 -14 21.5 -35t19.5 -32t17 -26.5t16 -23.5t13.5 -18.5t13 -15.5t12 -10t12 -7t11.5 -2q21 0 33.5 20.5t12.5 56.5v469q0 62 -8 97t-32 82v2h194v-2q-24 -47 -32 -82t-8 -97v-413z" />
    <glyph glyph-name="K" unicode="K" horiz-adv-x="655" 
d="M49 0v2q24 47 32 82.5t8 96.5v370q0 62 -8 97t-32 82v2h195v-2q-25 -46 -32.5 -81t-7.5 -98v-370q0 -63 7.5 -98t32.5 -81v-2h-195zM666 0h-174l-272 361l189 218q91 104 56 151v2h158v-2q-60 -30 -97.5 -62.5t-84.5 -86.5l-130 -148l232 -308q59 -79 122 -123z" />
    <glyph glyph-name="L" unicode="L" horiz-adv-x="589" 
d="M535 0h-486v2q24 47 32 82.5t8 96.5v370q0 62 -8 97t-32 82v2h195v-2q-25 -46 -32.5 -81t-7.5 -98v-537l151 6q100 5 216 181l8 -3z" />
    <glyph glyph-name="M" unicode="M" horiz-adv-x="899" 
d="M184 0h-158v2q38 53 50.5 91.5t12.5 105.5v393q-3 47 -18 75.5t-53 62.5v2h182l257 -569l247 569h177v-2q-43 -38 -57 -70.5t-14 -96.5v-382q0 -62 8 -97t32 -82v-2h-195v2q24 47 32 82.5t8 96.5v473l-275 -632h-21l-290 636l3 -459q1 -68 15 -106.5t57 -90.5v-2z" />
    <glyph glyph-name="N" unicode="N" horiz-adv-x="694" 
d="M573 -3l-464 630l4 -428q0 -67 13.5 -105.5t55.5 -91.5v-2h-154v2q37 52 49 90.5t12 106.5v392q-3 48 -19.5 77t-58.5 62v2h160l419 -569l-3 370q-1 67 -13 105.5t-48 91.5v2h144v-2q-37 -53 -49 -92t-12 -105v-533z" />
    <glyph glyph-name="O" unicode="O" horiz-adv-x="814" 
d="M406 -15q-145 0 -260.5 112.5t-115.5 267.5t115.5 268.5t260.5 113.5q94 0 181 -50.5t142 -139.5t55 -192t-55 -191.5t-142 -138.5t-181 -50zM406 5q125 0 188 98.5t63 261.5t-63.5 262.5t-187.5 99.5t-186.5 -99.5t-62.5 -262.5t62.5 -261.5t186.5 -98.5z" />
    <glyph glyph-name="P" unicode="P" horiz-adv-x="578" 
d="M49 0v2q24 47 32 82.5t8 96.5v370q0 62 -8 97t-32 82v2h236q152 0 217.5 -56t65.5 -146q0 -103 -78 -166.5t-220 -63.5h-66v-119q0 -63 7.5 -98t32.5 -81v-2h-195zM268 712q-32 0 -64 -2v-390h62q93 0 139.5 60t46.5 148q0 101 -49.5 142.5t-134.5 41.5z" />
    <glyph glyph-name="Q" unicode="Q" horiz-adv-x="814" 
d="M679 -170q-62 0 -116 18t-90.5 48t-54.5 49.5t-33 40.5q-140 9 -247.5 119.5t-107.5 259.5q0 155 115.5 268.5t260.5 113.5q94 0 181 -50.5t142 -139.5t55 -192q0 -153 -114.5 -265t-258.5 -115q159 -95 420 -39l-44 -93q-38 -23 -108 -23zM406 5q125 0 188 98.5
t63 261.5t-63.5 262.5t-187.5 99.5t-186.5 -99.5t-62.5 -262.5t62.5 -261.5t186.5 -98.5z" />
    <glyph glyph-name="R" unicode="R" horiz-adv-x="646" 
d="M282 712q-39 0 -78 -1v-338h78q158 0 158 185q0 74 -36 114t-122 40zM49 0v2q24 47 32 82.5t8 96.5v370q0 62 -8 97t-32 82v2h255q253 0 253 -175q0 -65 -36 -113.5t-109 -71.5l119 -233q32 -62 54 -87t62 -45v-7h-176l-180 353h-87v-172q0 -63 7.5 -98t32.5 -81v-2h-195
z" />
    <glyph glyph-name="S" unicode="S" horiz-adv-x="553" 
d="M454 718l20 -181l-9 -3q-89 193 -207 193q-51 0 -80 -30.5t-29 -81.5q0 -23 5.5 -42.5t20.5 -36.5t26 -28.5t37.5 -26.5t38.5 -21.5t45 -22.5q38 -19 59.5 -30.5t52.5 -34t47.5 -45t29 -56t12.5 -73.5q0 -107 -73.5 -160t-188.5 -53q-103 0 -206 39l-20 185l8 3
q58 -107 117.5 -157t128.5 -50q65 0 100 39.5t35 97.5q0 65 -40.5 106t-114.5 77q-31 15 -45 22t-41 23t-40.5 27t-32.5 29.5t-27.5 36t-15.5 42t-7 51.5q0 97 66 144t165 47q83 0 163 -29z" />
    <glyph glyph-name="T" unicode="T" horiz-adv-x="715" 
d="M455 2v-2h-195v2q24 47 32 82.5t8 96.5v534l-109 -4q-13 -1 -28 -11.5t-37 -36.5t-33.5 -41t-38.5 -54t-32 -45l-8 3l38 206h611l38 -206l-8 -3q-5 6 -32 45t-38.5 54t-33.5 41t-37 36.5t-28 11.5l-109 4v-534q0 -63 7.5 -98t32.5 -81z" />
    <glyph glyph-name="U" unicode="U" horiz-adv-x="696" 
d="M358 -15q-120 0 -196.5 62.5t-76.5 190.5v313q0 63 -7.5 98t-32.5 81v2h195v-2q-40 -76 -40 -179v-310q0 -231 186 -231q104 0 153 67.5t49 172.5v283q0 68 -14 106.5t-58 90.5v2h162l5 -2q-44 -53 -58 -91.5t-14 -105.5v-282q0 -56 -13 -102t-41.5 -84t-79 -59
t-119.5 -21z" />
    <glyph glyph-name="V" unicode="V" horiz-adv-x="640" 
d="M329 -8h-20l-221 577q-43 113 -90 161v2h208v-2q-15 -24 -16 -67t18 -99l158 -419l141 370q52 136 2 215v2h133v-2q-33 -36 -53.5 -73t-41.5 -97z" />
    <glyph glyph-name="W" unicode="W" horiz-adv-x="995" 
d="M296 -8h-20l-188 577q-35 110 -85 161v2h209v-2q-15 -25 -17 -66.5t15 -99.5l129 -405l155 389l-8 21q-24 67 -41.5 100.5t-43.5 60.5v2h209v-2q-15 -24 -17 -65.5t15 -100.5l140 -397l114 348q46 140 -2 215v2h132v-2q-59 -62 -98 -182l-181 -556h-20l-189 527z" />
    <glyph glyph-name="X" unicode="X" horiz-adv-x="694" 
d="M178 2v-2h-170v2q74 50 147 155l142 204l-140 233q-61 101 -119 136v2h233v-2q-15 -15 -10.5 -53.5t27.5 -76.5l93 -154l74 106q41 58 46.5 100.5t-15.5 77.5v2h170v-2q-87 -56 -157 -155l-106 -149l174 -287q61 -102 119 -137v-2h-233v2q15 15 10.5 53.5t-27.5 76.5
l-126 209l-111 -161q-28 -40 -35 -75t-3 -50.5t17 -52.5z" />
    <glyph glyph-name="Y" unicode="Y" horiz-adv-x="601" 
d="M202 0v2q24 39 32 68.5t8 80.5v182l-145 259q-56 99 -110 138v2h227v-2q-20 -17 -18 -52.5t23 -73.5l131 -241l99 173q66 116 16 194v2h149v-2q-39 -37 -64 -71t-64 -101l-129 -224v-183q0 -52 7.5 -81t32.5 -68v-2h-195z" />
    <glyph glyph-name="Z" unicode="Z" horiz-adv-x="623" 
d="M559 0h-539v11l439 705l-130 -4q-53 -2 -97.5 -17.5t-78 -43t-56 -53t-46.5 -61.5l-8 3l47 192h504v-11l-438 -706l160 5q70 2 127.5 32.5t90 67.5t66.5 91l8 -3z" />
    <glyph glyph-name="bracketleft" unicode="[" horiz-adv-x="369" 
d="M90 -130v885h244v-20h-154v-845h154v-20h-244z" />
    <glyph glyph-name="backslash" unicode="\" horiz-adv-x="392" 
d="M417 -130h-28l-380 911h28z" />
    <glyph glyph-name="bracketright" unicode="]" horiz-adv-x="369" 
d="M279 755v-885h-244v20h154v845h-154v20h244z" />
    <glyph glyph-name="asciicircum" unicode="^" horiz-adv-x="412" 
d="M373 472l-167 180l-167 -180l-9 10l173 273h6l173 -273z" />
    <glyph glyph-name="underscore" unicode="_" horiz-adv-x="496" 
d="M463 -100h-430v20h430v-20z" />
    <glyph glyph-name="grave" unicode="`" 
d="M223 540l-8 -8l-201 146l76 71z" />
    <glyph glyph-name="a" unicode="a" horiz-adv-x="472" 
d="M195 39q51 0 82 29v152q-155 -35 -155 -117q0 -30 19 -47t54 -17zM362 -12q-35 0 -56 17.5t-27 45.5q-58 -66 -144 -66q-47 0 -77 22t-30 63q0 36 23.5 66t62.5 49.5t79 32t84 19.5v109q0 42 -21 64t-71 22q-78 0 -133 -45l-5 6q32 45 84 72t115 27q70 0 100.5 -33
t30.5 -86v-285q0 -44 39 -44q25 0 49 19l2 -2q-34 -73 -105 -73z" />
    <glyph glyph-name="b" unicode="b" horiz-adv-x="552" 
d="M275 -15q-96 0 -161 50l-50 -45h-4v604q0 79 -45 130v2l145 52v-370h2q70 84 168 84q88 0 140 -69t52 -179q0 -113 -64 -186t-183 -73zM285 3q59 0 95.5 60t36.5 162q0 103 -39 152.5t-108 49.5q-65 0 -110 -41v-201q0 -94 38 -138t87 -44z" />
    <glyph glyph-name="c" unicode="c" horiz-adv-x="465" 
d="M430 116l6 -4q-20 -59 -67.5 -93t-119.5 -34q-102 0 -163 67t-61 178t76 186.5t177 75.5q78 0 132 -26l13 -111l-9 -2q-24 42 -68.5 81.5t-82.5 39.5q-64 0 -102 -55t-38 -147q0 -97 47 -149.5t127 -52.5q88 0 133 46z" />
    <glyph glyph-name="d" unicode="d" horiz-adv-x="567" 
d="M274 52q72 0 118 54v257q-24 111 -114 111q-65 0 -104 -62t-39 -161q0 -92 35.5 -145.5t103.5 -53.5zM396 86h-3q-25 -43 -69 -72t-102 -29q-87 0 -139.5 65t-52.5 167q0 115 69 195t192 80q55 0 101 -18v119q0 81 -45 130v2l145 53v-565q0 -98 9.5 -132.5t36.5 -58.5v-2
l-142 -32v98z" />
    <glyph glyph-name="e" unicode="e" horiz-adv-x="473" 
d="M448 133q-21 -65 -72.5 -106.5t-125.5 -41.5q-99 0 -162 70t-63 175q0 115 71.5 188.5t159.5 73.5q84 0 140 -62.5t51 -132.5h-321v-19q0 -103 47 -155.5t128 -52.5q88 0 141 67zM252 474q-55 0 -86.5 -44.5t-37.5 -116.5l217 5v11q0 145 -93 145z" />
    <glyph glyph-name="f" unicode="f" horiz-adv-x="313" 
d="M65 0v2q24 37 24 137v320h-63v18h63v66q0 107 58.5 171t142.5 64q49 0 77 -14l11 -105l-6 -2q-61 103 -108 103q-32 0 -53.5 -46t-21.5 -127v-110h118v-18h-118v-320q0 -97 23 -137v-2h-147z" />
    <glyph glyph-name="g" unicode="g" horiz-adv-x="520" 
d="M236 169q90 0 90 152q0 153 -91 153q-89 0 -89 -153q0 -152 90 -152zM492 -66q-2 -68 -72 -113.5t-193 -45.5q-97 0 -158 30.5t-61 83.5q0 36 27.5 59.5t67.5 33.5q-57 22 -57 78q0 43 30 70t75 39q-47 21 -76 62t-29 90q0 72 55 121.5t134 49.5t134 -50l127 74l2 -1v-89
h-4l-111 2q43 -46 43 -107q0 -70 -55.5 -120t-134.5 -50q-36 0 -72 13q-44 -21 -44 -55q0 -26 25 -36.5t75 -12.5l100 -3q75 -2 124.5 -33t47.5 -90zM268 -190q81 0 124 23.5t43 61.5q0 62 -122 66l-108 4q-54 2 -87 12q-25 -23 -25 -61q0 -51 45.5 -78.5t129.5 -27.5z" />
    <glyph glyph-name="h" unicode="h" horiz-adv-x="542" 
d="M193 0h-145v2q22 67 22 192v400q0 79 -45 130v2l145 52v-378q76 92 161 92q68 0 105 -39t37 -106v-153q0 -132 22 -192v-2h-145v2q23 67 23 192v130q0 47 -22.5 77t-69.5 30q-63 0 -111 -51v-186q0 -129 23 -192v-2z" />
    <glyph glyph-name="i" unicode="i" horiz-adv-x="242" 
d="M179 658q0 -25 -17.5 -42.5t-42.5 -17.5t-42.5 17.5t-17.5 42.5t17.5 43t42.5 18t42.5 -18t17.5 -43zM51 0v2q23 90 23 192v114q0 78 -45 129v7l145 53v-302q0 -133 22 -193v-2h-145z" />
    <glyph glyph-name="j" unicode="j" horiz-adv-x="245" 
d="M179 658q0 -25 -17.5 -42.5t-42.5 -17.5t-42.5 17.5t-17.5 42.5t17.5 43t42.5 18t42.5 -18t17.5 -43zM11 -215l-2 6q65 40 65 141v376q0 78 -45 129v7l145 53l-2 -495q0 -97 -45.5 -152.5t-115.5 -64.5z" />
    <glyph glyph-name="k" unicode="k" horiz-adv-x="479" 
d="M48 0v2q22 47 22 137v455q0 80 -45 129v2l145 53v-638q0 -92 24 -138v-2h-146zM489 0h-139l-172 248l115 125q24 26 32 54.5t-4 47.5v2h130v-2q-65 -29 -144 -114l-52 -57l147 -212q48 -69 87 -90v-2z" />
    <glyph glyph-name="l" unicode="l" horiz-adv-x="238" 
d="M47 0v2q22 47 22 137v455q0 80 -45 129v2l145 53v-638q0 -94 23 -138v-2h-145z" />
    <glyph glyph-name="m" unicode="m" horiz-adv-x="791" 
d="M196 2v-2h-145v2q23 67 23 192v118q0 79 -45 130v2l141 53v-96l4 -1q61 92 153 92q53 0 82.5 -24.5t35.5 -66.5l3 -1q63 92 154 92q61 0 91 -35t30 -98v-164q0 -133 22 -193v-2h-144v2q22 67 22 192v142q0 95 -74 95q-65 0 -101 -54v-182q0 -75 4 -114.5t19 -78.5v-2
h-145v2q22 64 22 192v142q0 95 -74 95q-65 0 -100 -54v-182q0 -133 22 -193z" />
    <glyph glyph-name="n" unicode="n" horiz-adv-x="545" 
d="M196 2v-2h-145v2q23 67 23 192v118q0 79 -45 130v2l141 53v-96l4 -1q76 92 161 92q67 0 104 -38.5t37 -106.5v-152q0 -75 4 -114.5t19 -78.5v-2h-145v2q22 67 22 192v130q0 47 -22.5 77t-69.5 30q-63 0 -110 -50v-186q0 -133 22 -193z" />
    <glyph glyph-name="o" unicode="o" horiz-adv-x="563" 
d="M281 -15q-105 0 -181 75.5t-75 177.5q1 101 77 177.5t179 76.5q104 0 180.5 -76.5t76.5 -177.5q0 -102 -76 -177.5t-181 -75.5zM281 5q73 0 110 67t37 166q0 98 -37.5 166t-109.5 68t-109 -68t-37 -166q0 -99 36.5 -166t109.5 -67z" />
    <glyph glyph-name="p" unicode="p" horiz-adv-x="566" 
d="M299 3q59 0 95.5 60t36.5 162q0 103 -39 152.5t-107 49.5q-66 0 -111 -41v-201q0 -95 38 -138.5t87 -43.5zM196 -225h-145v2q23 67 23 192v343q0 79 -45 130v2l141 53v-88l6 -1q70 84 170 84q85 0 137.5 -69.5t52.5 -178.5q0 -113 -64 -186t-183 -73q-64 0 -115 23v-38
q0 -132 22 -193v-2z" />
    <glyph glyph-name="q" unicode="q" horiz-adv-x="560" 
d="M369 -225v2q23 67 23 192v115q-25 -43 -69 -71t-101 -28q-87 0 -139.5 65t-52.5 167q0 115 69 195t192 80q106 0 153 -51l44 46h4v-517q0 -132 22 -193v-2h-145zM274 52q72 0 118 54v252q-12 62 -43 89t-71 27q-65 0 -104 -62t-39 -161q0 -92 35.5 -145.5t103.5 -53.5z
" />
    <glyph glyph-name="r" unicode="r" horiz-adv-x="356" 
d="M196 0h-145v2q23 67 23 192v118q0 79 -45 130v2l141 53v-122h4q2 2 13.5 16t15.5 18t15.5 17t17.5 18t17 15t19 14l19 9.5t21 7.5t21 2l-2 -122h-4q-14 11 -43 20.5t-46 9.5q-31 0 -64 -45v-160q0 -133 22 -193v-2z" />
    <glyph glyph-name="s" unicode="s" horiz-adv-x="399" 
d="M336 472l10 -109l-6 -2q-66 113 -155 113q-38 0 -60 -21t-22 -53q0 -19 8 -34t28.5 -28.5t33.5 -20t45 -19.5q9 -4 14 -6q32 -14 52.5 -25.5t43.5 -30.5t34.5 -46t11.5 -61q0 -71 -52 -107.5t-135 -36.5q-74 0 -147 26l-10 128l6 2q71 -138 164 -138q46 0 69 25.5
t23 60.5q0 36 -25 58.5t-81 46.5q-29 13 -42 19t-38 21.5t-36.5 30t-21.5 38.5t-10 53q0 71 50 103.5t124 32.5q70 0 124 -20z" />
    <glyph glyph-name="t" unicode="t" horiz-adv-x="326" 
d="M184 -15q-112 0 -112 121v353h-54v6l145 125h10v-113h129v-18h-129v-350q0 -74 70 -74q38 0 66 17l3 -4q-45 -63 -128 -63z" />
    <glyph glyph-name="u" unicode="u" horiz-adv-x="524" 
d="M349 -12v124q-66 -127 -161 -127q-63 0 -96 45.5t-33 124.5v213q0 70 -42 107v2h142v-306q0 -106 88 -106q64 0 97 63v240q0 72 -44 107v2h144v-307q0 -75 9.5 -102t35.5 -46v-2z" />
    <glyph glyph-name="v" unicode="v" horiz-adv-x="447" 
d="M212 -10l-144 369q-33 83 -63 116v2h171v-2q-24 -46 0 -109l88 -232l78 204q29 76 -7 137v2h107v-2q-45 -49 -74 -123l-140 -362h-16z" />
    <glyph glyph-name="w" unicode="w" horiz-adv-x="668" 
d="M191 -10l-126 369q-28 83 -60 116v2h171v-2q-23 -44 -2 -109l71 -217l74 204l-2 6q-27 78 -63 116v2h170v-2q-23 -43 0 -109l72 -217l69 189q29 78 -6 137v2h104v-2q-47 -51 -73 -123l-130 -362h-16l-116 337l-121 -337h-16z" />
    <glyph glyph-name="x" unicode="x" horiz-adv-x="472" 
d="M118 2v-2h-114v2q54 44 114 123l72 97l-86 137q-54 86 -91 116v2h179v-2q-28 -24 15 -92l67 -106l43 61q57 80 26 137v2h114v-2q-53 -43 -110 -123l-64 -90l91 -145q46 -73 94 -115v-2h-178v2q10 14 9.5 28.5t-6.5 26t-23 38.5l-71 112l-51 -68q-55 -73 -30 -137z" />
    <glyph glyph-name="y" unicode="y" horiz-adv-x="449" 
d="M41 -225l-2 96q18 -1 36.5 2t45.5 12t50 32.5t36 58.5l1 4l-142 378q-30 82 -61 117v2h168v-2q-27 -46 4 -128l84 -225l85 227q12 44 6.5 75t-21.5 51v2h113v-2q-47 -51 -74 -123l-155 -401q-37 -96 -77.5 -132.5t-96.5 -43.5z" />
    <glyph glyph-name="z" unicode="z" horiz-adv-x="447" 
d="M392 0h-377v7l282 453l-120 -4q-46 -1 -133 -93l-9 -9l-5 2l33 121h353v-8l-280 -452l131 3q41 1 77 30.5t78 81.5l5 -2z" />
    <glyph glyph-name="braceleft" unicode="{" horiz-adv-x="343" 
d="M308 -130h-15q-202 0 -202 128q0 36 32 108.5t32 108.5q0 87 -113 87h-22v21h22q113 0 113 87q0 36 -32 108.5t-32 108.5q0 128 202 128h15v-20h-15q-58 0 -82 -18.5t-24 -80.5q0 -27 15.5 -94t15.5 -102q0 -65 -35.5 -90.5t-110.5 -35.5v-3q76 -10 111 -35t35 -91
q0 -35 -15.5 -102t-15.5 -94q0 -62 24 -80.5t82 -18.5h15v-20z" />
    <glyph glyph-name="bar" unicode="|" horiz-adv-x="205" 
d="M115 -130h-25v911h25v-911z" />
    <glyph glyph-name="braceright" unicode="}" horiz-adv-x="343" 
d="M50 -130h-15v20h15q58 0 82 18.5t24 80.5q0 27 -15.5 94t-15.5 102q0 66 35 91t111 35v3q-75 10 -110.5 35.5t-35.5 90.5q0 35 15.5 102t15.5 94q0 62 -24 80.5t-82 18.5h-15v20h15q202 0 202 -128q0 -36 -32 -108.5t-32 -108.5q0 -87 113 -87h22v-21h-22
q-113 0 -113 -87q0 -36 32 -108.5t32 -108.5q0 -128 -202 -128z" />
    <glyph glyph-name="asciitilde" unicode="~" horiz-adv-x="452" 
d="M134 330q17 0 92.5 -21.5t112.5 -21.5q53 0 68 52l10 -1q-2 -26 -9 -49t-29.5 -45t-57.5 -22q-25 0 -102 21.5t-104 21.5q-53 0 -67 -54l-11 1q3 43 26 80.5t71 37.5z" />
    <glyph glyph-name="uni00A0" unicode="&#xa0;" horiz-adv-x="170" 
 />
    <glyph glyph-name="exclamdown" unicode="&#xa1;" horiz-adv-x="234" 
d="M171 -243v-2h-107v2l45 506h16zM117 492q28 0 47.5 -20t19.5 -47q0 -29 -19.5 -49t-47.5 -20t-47.5 20t-19.5 49q0 27 19.5 47t47.5 20z" />
    <glyph glyph-name="cent" unicode="&#xa2;" horiz-adv-x="465" 
d="M265 -114h-25v99q-98 3 -156.5 69.5t-58.5 175.5q0 100 62.5 172t152.5 87v68h25v-66q2 0 6 0.5t7 0.5q78 0 132 -26l13 -111l-9 -2q-24 41 -68 80.5t-81 40.5v-402q20 -2 32 -2q88 0 133 46l6 -4q-19 -56 -62.5 -89t-108.5 -37v-100zM123 272q0 -78 30.5 -127.5
t86.5 -66.5v393q-54 -10 -85.5 -63t-31.5 -136z" />
    <glyph glyph-name="sterling" unicode="&#xa3;" horiz-adv-x="569" 
d="M569 179l-69 -179h-500v8q43 29 63 47t41 56.5t31.5 97.5t17.5 158h-78l6 20h74q0 3 0.5 8t0.5 7l5 70q9 133 80 204t152 71q32 0 64.5 -11t46.5 -23l18 -176l-9 -3q-22 48 -34.5 72t-32 57.5t-36.5 48.5t-34 15q-63 0 -93 -237l-4 -32q-4 -31 -11 -71h140l-6 -20h-139
q-40 -185 -140 -272h278q58 0 93 20.5t67 66.5z" />
    <glyph glyph-name="yen" unicode="&#xa5;" horiz-adv-x="551" 
d="M172 0v2q24 39 32 68.5t8 80.5v40h-168v20h168v110h-168v20h167l-124 251q-48 96 -100 138v2h207v-2q-19 -18 -17 -52.5t22 -73.5l118 -240l86 172q59 118 10 194v2h151v-2q-44 -42 -70.5 -76.5t-57.5 -95.5l-109 -217h168v-20h-168v-110h168v-20h-168v-40q0 -52 7.5 -81
t32.5 -68v-2h-195z" />
    <glyph glyph-name="brokenbar" unicode="&#xa6;" horiz-adv-x="205" 
d="M115 365h-25v416h25v-416zM115 -130h-25v415h25v-415z" />
    <glyph glyph-name="section" unicode="&#xa7;" horiz-adv-x="491" 
d="M246 -164q-76 0 -149 26l-10 128l6 2q71 -138 155 -138q41 0 66.5 26.5t25.5 66.5q0 27 -10.5 48.5t-35.5 41.5t-43 31t-56 32q-37 20 -58.5 34.5t-47 37.5t-37.5 51t-12 63q0 57 34 99t98 56q-90 62 -90 149q0 68 48 112.5t136 44.5q66 0 120 -20l10 -109l-6 -2
q-66 113 -145 113q-45 0 -70.5 -29.5t-25.5 -72.5q0 -19 5 -35.5t17 -31.5t22 -25.5t32 -24t33 -20t38 -20.5q37 -21 58 -35t47 -37t38 -51t12 -63q0 -57 -33.5 -98.5t-96.5 -55.5q87 -59 87 -145q0 -66 -42 -107.5t-120 -41.5zM247 173l54 -30q39 4 62 32.5t23 68.5
q0 27 -10.5 49.5t-34 41.5t-43 31.5t-54.5 30.5l-52 30q-40 -4 -63.5 -32.5t-23.5 -68.5q0 -27 10.5 -49.5t34 -41.5t43 -31.5t54.5 -30.5z" />
    <glyph glyph-name="dieresis" unicode="&#xa8;" 
d="M310 658q0 -25 -17.5 -42.5t-42.5 -17.5t-42.5 17.5t-17.5 42.5t17.5 43t42.5 18t42.5 -18t17.5 -43zM110 658q0 -25 -17.5 -42.5t-42.5 -17.5t-42.5 17.5t-17.5 42.5t17.5 43t42.5 18t42.5 -18t17.5 -43z" />
    <glyph glyph-name="copyright" unicode="&#xa9;" horiz-adv-x="823" 
d="M30 366q0 159 111.5 269.5t269.5 110.5q159 0 270.5 -110.5t111.5 -269.5q0 -160 -112 -270.5t-270 -110.5t-269.5 110.5t-111.5 270.5zM57 366q0 -149 103.5 -254t250.5 -105t250.5 105t103.5 254t-103.5 253.5t-250.5 104.5t-250.5 -104.5t-103.5 -253.5zM569 196
q-14 -10 -58.5 -24.5t-92.5 -14.5q-99 0 -159.5 59.5t-60.5 149.5q0 89 65 149.5t166 60.5q64 0 138 -27l11 -101l-6 -2q-42 63 -74 88t-77 25q-72 0 -107 -52.5t-35 -140.5t34.5 -140.5t104.5 -52.5q54 0 88.5 34t67.5 103l6 -3z" />
    <glyph glyph-name="ordfeminine" unicode="&#xaa;" horiz-adv-x="388" 
d="M166 399q34 0 57 19v119q-112 -26 -112 -88q0 -23 14.5 -36.5t40.5 -13.5zM293 354q-29 0 -46.5 15t-20.5 37q-46 -55 -112 -55q-36 0 -60 18t-24 50q0 37 32.5 66.5t72.5 43.5t88 23v76q0 34 -16 50.5t-55 16.5q-59 0 -104 -32l-4 5q60 79 161 79q55 0 80.5 -26.5
t25.5 -68.5v-213q0 -38 32 -38q21 0 33 14l1 -1q-9 -24 -30 -42t-54 -18z" />
    <glyph glyph-name="guillemotleft" unicode="&#xab;" horiz-adv-x="431" 
d="M371 58l-8 -6l-153 175v20l153 175l8 -6l-91 -179zM221 58l-8 -6l-153 175v20l153 175l8 -6l-91 -179z" />
    <glyph glyph-name="registered" unicode="&#xae;" horiz-adv-x="440" 
d="M10 541q0 86 62 146t150 60q87 0 147.5 -59.5t60.5 -146.5q0 -86 -62 -145.5t-149 -59.5q-88 0 -148.5 59t-60.5 146zM35 541q0 -78 53.5 -131t131.5 -53t131.5 53t53.5 131q0 79 -53.5 132t-131.5 53q-79 0 -132 -53t-53 -132zM225 640q-17 0 -33 -1v-91h33q38 0 38 49
q0 43 -38 43zM135 432v1q12 25 12 55v110q0 29 -12 53v2h98q75 0 75 -54q0 -44 -45 -59l37 -67q16 -31 36 -40v-1h-66l-53 103h-25v-47q0 -32 12 -55v-1h-69z" />
    <glyph glyph-name="macron" unicode="&#xaf;" 
d="M8 595v50h283v-50h-283z" />
    <glyph glyph-name="degree" unicode="&#xb0;" horiz-adv-x="298" 
d="M16 615q0 55 39.5 93.5t95.5 38.5t93 -38.5t37 -93.5t-39.5 -94t-94.5 -39q-56 0 -93.5 38.5t-37.5 94.5zM42 615q0 -48 30 -79.5t77 -31.5q46 0 76 31.5t30 79.5q0 47 -30 78.5t-76 31.5q-47 0 -77 -31.5t-30 -78.5z" />
    <glyph glyph-name="acute" unicode="&#xb4;" 
d="M71 550l133 199l73 -71l-198 -136z" />
    <glyph glyph-name="paragraph" unicode="&#xb6;" horiz-adv-x="478" 
d="M418 0h-61v1q15 57 15 132v466q0 79 -15 132v1h61v-1q-15 -57 -15 -132v-466q0 -79 15 -132v-1zM308 0h-61v1q15 58 15 132v233h-58q-76 0 -130 54t-54 130q0 75 54 128.5t130 53.5h104v-1q-15 -57 -15 -132v-466q0 -79 15 -132v-1z" />
    <glyph glyph-name="periodcentered" unicode="&#xb7;" horiz-adv-x="264" 
d="M132 205q-28 0 -47.5 20t-19.5 47q0 28 19.5 48t47.5 20q27 0 47 -20t20 -48q0 -27 -20 -47t-47 -20z" />
    <glyph glyph-name="cedilla" unicode="&#xb8;" 
d="M77 -255l-3 9q82 33 82 83q0 42 -75 49l-2 2l70 114h28l-40 -62q88 -19 88 -83q0 -81 -148 -112z" />
    <glyph glyph-name="ordmasculine" unicode="&#xba;" horiz-adv-x="464" 
d="M232 351q-82 0 -142 59t-60 139q1 79 60.5 138.5t141.5 59.5q83 0 142.5 -59.5t59.5 -138.5q0 -80 -59.5 -139t-142.5 -59zM232 365q55 0 83 52.5t28 131.5q0 78 -28 131t-83 53q-54 0 -82 -53t-28 -131q0 -79 27.5 -131.5t82.5 -52.5z" />
    <glyph glyph-name="guillemotright" unicode="&#xbb;" horiz-adv-x="431" 
d="M218 52l-8 6l91 179l-91 179l8 6l153 -175v-20zM68 52l-8 6l91 179l-91 179l8 6l153 -175v-20z" />
    <glyph glyph-name="onequarter" unicode="&#xbc;" horiz-adv-x="638" 
d="M183 354h-140v1q16 21 21.5 37t5.5 44v221h-47v6q80 36 128 84h6v-311q0 -28 5 -44t21 -37v-1zM65 1l-17 14l520 728l18 -12zM454 0v1q21 35 21 81v18h-162v6l171 279h102l-250 -268h139v107h89v-107h50l-4 -17h-46v-18q0 -46 21 -81v-1h-131z" />
    <glyph glyph-name="onehalf" unicode="&#xbd;" horiz-adv-x="685" 
d="M55 1l-17 14l520 728l18 -12zM627 0h-249v6q99 93 138.5 156.5t39.5 124.5q0 43 -14.5 67t-40.5 24q-50 0 -100 -100l-5 1l13 97q46 17 95 17q69 0 104 -28.5t35 -75.5q0 -52 -45 -102.5t-143 -118.5h97q58 0 98 51l4 -1zM183 354h-140v1q16 21 21.5 37t5.5 44v221h-47v6
q80 36 128 84h6v-311q0 -28 5 -44t21 -37v-1z" />
    <glyph glyph-name="threequarters" unicode="&#xbe;" horiz-adv-x="689" 
d="M142 346q-65 0 -106 23l-13 95l6 1q4 -7 12.5 -19.5t12.5 -18.5t11.5 -16t11.5 -14.5t10.5 -12t11.5 -10.5t11.5 -6.5t13.5 -5t14 -1.5q34 0 53 30t19 80q0 103 -76 103q-35 0 -66 -22l-6 7l131 111h-153l20 68h233v-5l-173 -145q13 4 37 4q57 0 99 -31t42 -90
q0 -57 -43 -91t-113 -34zM116 1l-17 14l520 728l18 -12zM505 0v1q21 35 21 81v18h-162v6l171 279h102l-250 -268h139v107h89v-107h50l-4 -17h-46v-18q0 -46 21 -81v-1h-131z" />
    <glyph glyph-name="questiondown" unicode="&#xbf;" horiz-adv-x="427" 
d="M295 263h16q-7 -42 -27 -77.5t-42.5 -61.5t-44 -55.5t-36 -72.5t-14.5 -99q0 -65 26 -102t75 -37q45 0 77 34.5t70 105.5l7 -2l-20 -131q-66 -25 -139 -25q-208 0 -208 162q0 43 16 79.5t40 61t54.5 51t59 48t53.5 53.5t37 68zM297 492q28 0 47.5 -20t19.5 -47
q0 -29 -19.5 -49t-47.5 -20t-47.5 20t-19.5 49q0 27 19.5 47t47.5 20z" />
    <glyph glyph-name="Agrave" unicode="&#xc0;" horiz-adv-x="636" 
d="M379 296l-109 289l-110 -289h219zM133 2v-2h-135v2q33 34 51.5 69.5t43.5 102.5l215 566h20l219 -577q42 -111 91 -161v-2h-199v2q14 19 11.5 66t-22.5 100l-41 108h-235l-21 -56q-52 -134 2 -218zM401 792l-6 -10l-245 91l51 86z" />
    <glyph glyph-name="Aacute" unicode="&#xc1;" horiz-adv-x="636" 
d="M379 296l-109 289l-110 -289h219zM133 2v-2h-135v2q33 34 51.5 69.5t43.5 102.5l215 566h20l219 -577q42 -111 91 -161v-2h-199v2q14 19 11.5 66t-22.5 100l-41 108h-235l-21 -56q-52 -134 2 -218zM220 792l195 167l52 -86l-241 -91z" />
    <glyph glyph-name="Acircumflex" unicode="&#xc2;" horiz-adv-x="636" 
d="M379 296l-109 289l-110 -289h219zM133 2v-2h-135v2q33 34 51.5 69.5t43.5 102.5l215 566h20l219 -577q42 -111 91 -161v-2h-199v2q14 19 11.5 66t-22.5 100l-41 108h-235l-21 -56q-52 -134 2 -218zM465 782l-147 76l-147 -76l-9 10l153 153h6l153 -153z" />
    <glyph glyph-name="Atilde" unicode="&#xc3;" horiz-adv-x="636" 
d="M379 296l-109 289l-110 -289h219zM133 2v-2h-135v2q33 34 51.5 69.5t43.5 102.5l215 566h20l219 -577q42 -111 91 -161v-2h-199v2q14 19 11.5 66t-22.5 100l-41 108h-235l-21 -56q-52 -134 2 -218zM240 905q30 0 85 -20t87 -20q26 0 41 11.5t25 42.5l10 -2
q-1 -26 -4.5 -43.5t-12 -39t-27.5 -32.5t-48 -11q-30 0 -85 20t-87 20q-26 0 -41 -11.5t-25 -42.5l-10 2q1 26 4.5 43.5t12 39t27.5 32.5t48 11z" />
    <glyph glyph-name="Adieresis" unicode="&#xc4;" horiz-adv-x="636" 
d="M379 296l-109 289l-110 -289h219zM133 2v-2h-135v2q33 34 51.5 69.5t43.5 102.5l215 566h20l219 -577q42 -111 91 -161v-2h-199v2q14 19 11.5 66t-22.5 100l-41 108h-235l-21 -56q-52 -134 2 -218zM498 868q0 -25 -17.5 -42.5t-42.5 -17.5t-42.5 17.5t-17.5 42.5t17.5 43
t42.5 18t42.5 -18t17.5 -43zM258 868q0 -25 -17.5 -42.5t-42.5 -17.5t-42.5 17.5t-17.5 42.5t17.5 43t42.5 18t42.5 -18t17.5 -43z" />
    <glyph glyph-name="Aring" unicode="&#xc5;" horiz-adv-x="636" 
d="M379 296l-109 289l-110 -289h219zM133 2v-2h-135v2q33 34 51.5 69.5t43.5 102.5l215 566h20l219 -577q42 -111 91 -161v-2h-199v2q14 19 11.5 66t-22.5 100l-41 108h-235l-21 -56q-52 -134 2 -218zM228 867q0 37 26 61.5t64 24.5q39 0 64.5 -24t25.5 -62q0 -37 -26 -61
t-64 -24t-64 24t-26 61zM267 867q0 -31 13.5 -48.5t37.5 -17.5t37.5 17.5t13.5 48.5t-13.5 49.5t-37.5 18.5t-37.5 -18.5t-13.5 -49.5z" />
    <glyph glyph-name="AE" unicode="&#xc6;" horiz-adv-x="1010" 
d="M478 563q0 61 -15 103l-212 -370h227v267zM167 2v-2h-140v2q40 34 65 69.5t64 103.5l295 516q-11 20 -32 39v2h482l39 -178l-8 -3q-12 13 -53 61t-68.5 72.5t-47.5 25.5l-169 7v-338h86q17 0 36 12.5t30.5 24.5t31.5 36.5t26 31.5h9v-226h-9q-7 7 -26 29.5t-31 35
t-31 24.5t-36 12h-86v-344l178 7q55 3 106 51.5t109 127.5l8 -3l-44 -198h-512v2q39 91 39 167v107h-239l-43 -76q-65 -113 -29 -198z" />
    <glyph glyph-name="Ccedilla" unicode="&#xc7;" horiz-adv-x="752" 
d="M317 -255l-3 9q82 33 82 83q0 42 -75 49l-2 2l60 98q-157 10 -253 117t-96 263q0 161 113 271t286 110q131 0 252 -48l20 -164l-8 -3q-77 109 -135.5 152t-141.5 43q-132 0 -195.5 -98t-63.5 -263q0 -164 63 -262.5t190 -98.5q99 0 163.5 60t123.5 178l8 -3l-20 -183
q-24 -18 -105.5 -45t-169.5 -27h-4l-29 -45q88 -19 88 -83q0 -81 -148 -112z" />
    <glyph glyph-name="Egrave" unicode="&#xc8;" horiz-adv-x="620" 
d="M605 198l-44 -198h-512v2q21 50 30 85t9 82v394q0 48 -8.5 82t-30.5 85v2h462l39 -178l-8 -3q-12 13 -53 61t-68.5 72.5t-47.5 25.5l-169 7v-338h86q17 0 36 12.5t30.5 24.5t31.5 36.5t26 31.5h9v-226h-9q-7 7 -26 29.5t-31 35t-31 24.5t-36 12h-86v-344l178 7
q55 3 106 51.5t109 127.5zM422 792l-6 -10l-245 91l51 86z" />
    <glyph glyph-name="Eacute" unicode="&#xc9;" horiz-adv-x="620" 
d="M605 198l-44 -198h-512v2q21 50 30 85t9 82v394q0 48 -8.5 82t-30.5 85v2h462l39 -178l-8 -3q-12 13 -53 61t-68.5 72.5t-47.5 25.5l-169 7v-338h86q17 0 36 12.5t30.5 24.5t31.5 36.5t26 31.5h9v-226h-9q-7 7 -26 29.5t-31 35t-31 24.5t-36 12h-86v-344l178 7
q55 3 106 51.5t109 127.5zM221 792l195 167l52 -86l-241 -91z" />
    <glyph glyph-name="Ecircumflex" unicode="&#xca;" horiz-adv-x="620" 
d="M605 198l-44 -198h-512v2q21 50 30 85t9 82v394q0 48 -8.5 82t-30.5 85v2h462l39 -178l-8 -3q-12 13 -53 61t-68.5 72.5t-47.5 25.5l-169 7v-338h86q17 0 36 12.5t30.5 24.5t31.5 36.5t26 31.5h9v-226h-9q-7 7 -26 29.5t-31 35t-31 24.5t-36 12h-86v-344l178 7
q55 3 106 51.5t109 127.5zM456 782l-147 76l-147 -76l-9 10l153 153h6l153 -153z" />
    <glyph glyph-name="Edieresis" unicode="&#xcb;" horiz-adv-x="620" 
d="M605 198l-44 -198h-512v2q21 50 30 85t9 82v394q0 48 -8.5 82t-30.5 85v2h462l39 -178l-8 -3q-12 13 -53 61t-68.5 72.5t-47.5 25.5l-169 7v-338h86q17 0 36 12.5t30.5 24.5t31.5 36.5t26 31.5h9v-226h-9q-7 7 -26 29.5t-31 35t-31 24.5t-36 12h-86v-344l178 7
q55 3 106 51.5t109 127.5zM489 868q0 -25 -17.5 -42.5t-42.5 -17.5t-42.5 17.5t-17.5 42.5t17.5 43t42.5 18t42.5 -18t17.5 -43zM249 868q0 -25 -17.5 -42.5t-42.5 -17.5t-42.5 17.5t-17.5 42.5t17.5 43t42.5 18t42.5 -18t17.5 -43z" />
    <glyph glyph-name="Igrave" unicode="&#xcc;" horiz-adv-x="293" 
d="M49 0v2q25 46 32.5 81t7.5 98v370q0 63 -7.5 98t-32.5 81v2h195v-2q-25 -46 -32.5 -81t-7.5 -98v-370q0 -63 7.5 -98t32.5 -81v-2h-195zM209 792l-6 -10l-245 91l51 86z" />
    <glyph glyph-name="Iacute" unicode="&#xcd;" horiz-adv-x="293" 
d="M49 0v2q25 46 32.5 81t7.5 98v370q0 63 -7.5 98t-32.5 81v2h195v-2q-25 -46 -32.5 -81t-7.5 -98v-370q0 -63 7.5 -98t32.5 -81v-2h-195zM58 792l195 167l52 -86l-241 -91z" />
    <glyph glyph-name="Icircumflex" unicode="&#xce;" horiz-adv-x="293" 
d="M49 0v2q25 46 32.5 81t7.5 98v370q0 63 -7.5 98t-32.5 81v2h195v-2q-25 -46 -32.5 -81t-7.5 -98v-370q0 -63 7.5 -98t32.5 -81v-2h-195zM293 782l-147 76l-147 -76l-9 10l153 153h6l153 -153z" />
    <glyph glyph-name="Idieresis" unicode="&#xcf;" horiz-adv-x="293" 
d="M296 868q0 -25 -17.5 -42.5t-42.5 -17.5t-42.5 17.5t-17.5 42.5t17.5 43t42.5 18t42.5 -18t17.5 -43zM116 868q0 -25 -17.5 -42.5t-42.5 -17.5t-42.5 17.5t-17.5 42.5t17.5 43t42.5 18t42.5 -18t17.5 -43zM49 0v2q25 46 32.5 81t7.5 98v370q0 63 -7.5 98t-32.5 81v2h195
v-2q-25 -46 -32.5 -81t-7.5 -98v-370q0 -63 7.5 -98t32.5 -81v-2h-195z" />
    <glyph glyph-name="Eth" unicode="&#xd0;" horiz-adv-x="759" 
d="M5 357v20h90v201q0 52 -8 82t-32 70v2q62 0 134.5 2t139.5 2q188 0 294 -95.5t106 -271.5q0 -178 -104 -273.5t-296 -95.5h-274v2q24 40 32 70t8 82v203h-90zM320 716h-110v-339h166v-20h-166v-340l111 3q150 4 215.5 86t65.5 249q0 184 -70 272.5t-212 88.5z" />
    <glyph glyph-name="Ntilde" unicode="&#xd1;" horiz-adv-x="694" 
d="M573 -3l-464 630l4 -428q0 -67 13.5 -105.5t55.5 -91.5v-2h-154v2q37 52 49 90.5t12 106.5v392q-3 48 -19.5 77t-58.5 62v2h160l419 -569l-3 370q-1 67 -13 105.5t-48 91.5v2h144v-2q-37 -53 -49 -92t-12 -105v-533zM297 905q30 0 85 -20t87 -20q26 0 41 11.5t25 42.5
l10 -2q-1 -26 -4.5 -43.5t-12 -39t-27.5 -32.5t-48 -11q-30 0 -85 20t-87 20q-26 0 -41 -11.5t-25 -42.5l-10 2q1 26 4.5 43.5t12 39t27.5 32.5t48 11z" />
    <glyph glyph-name="Ograve" unicode="&#xd2;" horiz-adv-x="814" 
d="M406 -15q-145 0 -260.5 112.5t-115.5 267.5t115.5 268.5t260.5 113.5q94 0 181 -50.5t142 -139.5t55 -192t-55 -191.5t-142 -138.5t-181 -50zM406 5q125 0 188 98.5t63 261.5t-63.5 262.5t-187.5 99.5t-186.5 -99.5t-62.5 -262.5t62.5 -261.5t186.5 -98.5zM490 792
l-6 -10l-245 91l51 86z" />
    <glyph glyph-name="Oacute" unicode="&#xd3;" horiz-adv-x="814" 
d="M406 -15q-145 0 -260.5 112.5t-115.5 267.5t115.5 268.5t260.5 113.5q94 0 181 -50.5t142 -139.5t55 -192t-55 -191.5t-142 -138.5t-181 -50zM406 5q125 0 188 98.5t63 261.5t-63.5 262.5t-187.5 99.5t-186.5 -99.5t-62.5 -262.5t62.5 -261.5t186.5 -98.5zM319 792
l195 167l52 -86l-241 -91z" />
    <glyph glyph-name="Ocircumflex" unicode="&#xd4;" horiz-adv-x="814" 
d="M406 -15q-145 0 -260.5 112.5t-115.5 267.5t115.5 268.5t260.5 113.5q94 0 181 -50.5t142 -139.5t55 -192t-55 -191.5t-142 -138.5t-181 -50zM406 5q125 0 188 98.5t63 261.5t-63.5 262.5t-187.5 99.5t-186.5 -99.5t-62.5 -262.5t62.5 -261.5t186.5 -98.5zM554 782
l-147 76l-147 -76l-9 10l153 153h6l153 -153z" />
    <glyph glyph-name="Otilde" unicode="&#xd5;" horiz-adv-x="814" 
d="M406 -15q-145 0 -260.5 112.5t-115.5 267.5t115.5 268.5t260.5 113.5q94 0 181 -50.5t142 -139.5t55 -192t-55 -191.5t-142 -138.5t-181 -50zM406 5q125 0 188 98.5t63 261.5t-63.5 262.5t-187.5 99.5t-186.5 -99.5t-62.5 -262.5t62.5 -261.5t186.5 -98.5zM329 905
q30 0 85 -20t87 -20q26 0 41 11.5t25 42.5l10 -2q-1 -26 -4.5 -43.5t-12 -39t-27.5 -32.5t-48 -11q-30 0 -85 20t-87 20q-26 0 -41 -11.5t-25 -42.5l-10 2q1 26 4.5 43.5t12 39t27.5 32.5t48 11z" />
    <glyph glyph-name="Odieresis" unicode="&#xd6;" horiz-adv-x="814" 
d="M406 -15q-145 0 -260.5 112.5t-115.5 267.5t115.5 268.5t260.5 113.5q94 0 181 -50.5t142 -139.5t55 -192t-55 -191.5t-142 -138.5t-181 -50zM406 5q125 0 188 98.5t63 261.5t-63.5 262.5t-187.5 99.5t-186.5 -99.5t-62.5 -262.5t62.5 -261.5t186.5 -98.5zM587 868
q0 -25 -17.5 -42.5t-42.5 -17.5t-42.5 17.5t-17.5 42.5t17.5 43t42.5 18t42.5 -18t17.5 -43zM347 868q0 -25 -17.5 -42.5t-42.5 -17.5t-42.5 17.5t-17.5 42.5t17.5 43t42.5 18t42.5 -18t17.5 -43z" />
    <glyph glyph-name="multiply" unicode="&#xd7;" horiz-adv-x="472" 
d="M405 121l-169 169l-169 -169l-17 17l169 169l-169 169l17 17l169 -169l169 169l17 -17l-169 -169l169 -169z" />
    <glyph glyph-name="Oslash" unicode="&#xd8;" horiz-adv-x="814" 
d="M157 365q0 -167 63 -262l358 545q-63 79 -172 79q-124 0 -186.5 -99.5t-62.5 -262.5zM406 5q125 0 188 98.5t63 261.5q0 166 -64 263l-358 -545q64 -78 171 -78zM406 -15q-104 0 -196 61l-49 -75h-28l58 88q-73 54 -117 134t-44 172q0 155 115.5 268.5t260.5 113.5
q101 0 197 -61l50 76h28l-59 -90q73 -54 117.5 -134.5t44.5 -172.5q0 -103 -55 -191.5t-142 -138.5t-181 -50z" />
    <glyph glyph-name="Ugrave" unicode="&#xd9;" horiz-adv-x="696" 
d="M358 -15q-120 0 -196.5 62.5t-76.5 190.5v313q0 63 -7.5 98t-32.5 81v2h195v-2q-40 -76 -40 -179v-310q0 -231 186 -231q104 0 153 67.5t49 172.5v283q0 68 -14 106.5t-58 90.5v2h162l5 -2q-44 -53 -58 -91.5t-14 -105.5v-282q0 -56 -13 -102t-41.5 -84t-79 -59
t-119.5 -21zM479 792l-6 -10l-245 91l51 86z" />
    <glyph glyph-name="Uacute" unicode="&#xda;" horiz-adv-x="696" 
d="M358 -15q-120 0 -196.5 62.5t-76.5 190.5v313q0 63 -7.5 98t-32.5 81v2h195v-2q-40 -76 -40 -179v-310q0 -231 186 -231q104 0 153 67.5t49 172.5v283q0 68 -14 106.5t-58 90.5v2h162l5 -2q-44 -53 -58 -91.5t-14 -105.5v-282q0 -56 -13 -102t-41.5 -84t-79 -59
t-119.5 -21zM298 792l195 167l52 -86l-241 -91z" />
    <glyph glyph-name="Ucircumflex" unicode="&#xdb;" horiz-adv-x="696" 
d="M358 -15q-120 0 -196.5 62.5t-76.5 190.5v313q0 63 -7.5 98t-32.5 81v2h195v-2q-40 -76 -40 -179v-310q0 -231 186 -231q104 0 153 67.5t49 172.5v283q0 68 -14 106.5t-58 90.5v2h162l5 -2q-44 -53 -58 -91.5t-14 -105.5v-282q0 -56 -13 -102t-41.5 -84t-79 -59
t-119.5 -21zM533 782l-147 76l-147 -76l-9 10l153 153h6l153 -153z" />
    <glyph glyph-name="Udieresis" unicode="&#xdc;" horiz-adv-x="696" 
d="M358 -15q-120 0 -196.5 62.5t-76.5 190.5v313q0 63 -7.5 98t-32.5 81v2h195v-2q-40 -76 -40 -179v-310q0 -231 186 -231q104 0 153 67.5t49 172.5v283q0 68 -14 106.5t-58 90.5v2h162l5 -2q-44 -53 -58 -91.5t-14 -105.5v-282q0 -56 -13 -102t-41.5 -84t-79 -59
t-119.5 -21zM566 868q0 -25 -17.5 -42.5t-42.5 -17.5t-42.5 17.5t-17.5 42.5t17.5 43t42.5 18t42.5 -18t17.5 -43zM326 868q0 -25 -17.5 -42.5t-42.5 -17.5t-42.5 17.5t-17.5 42.5t17.5 43t42.5 18t42.5 -18t17.5 -43z" />
    <glyph glyph-name="Yacute" unicode="&#xdd;" horiz-adv-x="601" 
d="M202 0v2q24 39 32 68.5t8 80.5v182l-145 259q-56 99 -110 138v2h227v-2q-20 -17 -18 -52.5t23 -73.5l131 -241l99 173q66 116 16 194v2h149v-2q-39 -37 -64 -71t-64 -101l-129 -224v-183q0 -52 7.5 -81t32.5 -68v-2h-195zM267 792l195 167l52 -86l-241 -91z" />
    <glyph glyph-name="Thorn" unicode="&#xde;" horiz-adv-x="568" 
d="M268 542q-32 0 -64 -2v-340h62q90 0 133 49.5t43 133.5q0 159 -174 159zM244 2v-2h-195v2q25 46 32.5 81t7.5 98v370q0 63 -7.5 98t-32.5 81v2h195v-2q-23 -44 -31 -78t-9 -90h81q146 0 209.5 -49t63.5 -128q0 -94 -75 -149.5t-213 -55.5h-66q0 -63 7.5 -97.5t32.5 -80.5
z" />
    <glyph glyph-name="germandbls" unicode="&#xdf;" horiz-adv-x="591" 
d="M406 -15q-69 0 -133 26l-10 128l6 2q38 -75 69.5 -106.5t73.5 -31.5q39 0 59.5 23t20.5 58t-23 60t-55.5 40.5t-64.5 32t-55 44.5t-23 68q0 31 15 56.5t36.5 45.5t43 42.5t36.5 58t15 81.5q0 61 -26 104t-79 43q-58 0 -90.5 -57.5t-32.5 -165.5v-537h-124v2q24 37 24 137
v320h-63v18h63v16q0 129 64 207t168 78q74 0 127 -39.5t53 -112.5q0 -38 -16 -69t-38.5 -51.5t-45.5 -38.5t-39 -39t-16 -44q0 -24 17 -43t42.5 -31t55.5 -28.5t55.5 -33.5t42.5 -48.5t17 -72.5q0 -73 -48 -107.5t-122 -34.5z" />
    <glyph glyph-name="agrave" unicode="&#xe0;" horiz-adv-x="472" 
d="M195 39q51 0 82 29v152q-155 -35 -155 -117q0 -30 19 -47t54 -17zM362 -12q-35 0 -56 17.5t-27 45.5q-58 -66 -144 -66q-47 0 -77 22t-30 63q0 36 23.5 66t62.5 49.5t79 32t84 19.5v109q0 42 -21 64t-71 22q-78 0 -133 -45l-5 6q32 45 84 72t115 27q70 0 100.5 -33
t30.5 -86v-285q0 -44 39 -44q25 0 49 19l2 -2q-34 -73 -105 -73zM283 540l-8 -8l-201 146l76 71z" />
    <glyph glyph-name="aacute" unicode="&#xe1;" horiz-adv-x="472" 
d="M195 39q51 0 82 29v152q-155 -35 -155 -117q0 -30 19 -47t54 -17zM362 -12q-35 0 -56 17.5t-27 45.5q-58 -66 -144 -66q-47 0 -77 22t-30 63q0 36 23.5 66t62.5 49.5t79 32t84 19.5v109q0 42 -21 64t-71 22q-78 0 -133 -45l-5 6q32 45 84 72t115 27q70 0 100.5 -33
t30.5 -86v-285q0 -44 39 -44q25 0 49 19l2 -2q-34 -73 -105 -73zM149 550l133 199l73 -71l-198 -136z" />
    <glyph glyph-name="acircumflex" unicode="&#xe2;" horiz-adv-x="472" 
d="M195 39q51 0 82 29v152q-155 -35 -155 -117q0 -30 19 -47t54 -17zM362 -12q-35 0 -56 17.5t-27 45.5q-58 -66 -144 -66q-47 0 -77 22t-30 63q0 36 23.5 66t62.5 49.5t79 32t84 19.5v109q0 42 -21 64t-71 22q-78 0 -133 -45l-5 6q32 45 84 72t115 27q70 0 100.5 -33
t30.5 -86v-285q0 -44 39 -44q25 0 49 19l2 -2q-34 -73 -105 -73zM347 540l-131 87l-131 -87l-9 10l137 169h6l137 -169z" />
    <glyph glyph-name="atilde" unicode="&#xe3;" horiz-adv-x="472" 
d="M195 39q51 0 82 29v152q-155 -35 -155 -117q0 -30 19 -47t54 -17zM362 -12q-35 0 -56 17.5t-27 45.5q-58 -66 -144 -66q-47 0 -77 22t-30 63q0 36 23.5 66t62.5 49.5t79 32t84 19.5v109q0 42 -21 64t-71 22q-78 0 -133 -45l-5 6q32 45 84 72t115 27q70 0 100.5 -33
t30.5 -86v-285q0 -44 39 -44q25 0 49 19l2 -2q-34 -73 -105 -73zM151 680q21 0 71 -15.5t75 -15.5q45 0 59 43l10 -1q-1 -18 -5 -35t-13 -37t-26 -32t-40 -12q-21 0 -72 16t-76 16q-45 0 -57 -43l-11 1q2 26 8 48.5t26 44.5t51 22z" />
    <glyph glyph-name="adieresis" unicode="&#xe4;" horiz-adv-x="472" 
d="M195 39q51 0 82 29v152q-155 -35 -155 -117q0 -30 19 -47t54 -17zM362 -12q-35 0 -56 17.5t-27 45.5q-58 -66 -144 -66q-47 0 -77 22t-30 63q0 36 23.5 66t62.5 49.5t79 32t84 19.5v109q0 42 -21 64t-71 22q-78 0 -133 -45l-5 6q32 45 84 72t115 27q70 0 100.5 -33
t30.5 -86v-285q0 -44 39 -44q25 0 49 19l2 -2q-34 -73 -105 -73zM376 658q0 -25 -17.5 -42.5t-42.5 -17.5t-42.5 17.5t-17.5 42.5t17.5 43t42.5 18t42.5 -18t17.5 -43zM176 658q0 -25 -17.5 -42.5t-42.5 -17.5t-42.5 17.5t-17.5 42.5t17.5 43t42.5 18t42.5 -18t17.5 -43z
" />
    <glyph glyph-name="aring" unicode="&#xe5;" horiz-adv-x="472" 
d="M195 39q51 0 82 29v152q-155 -35 -155 -117q0 -30 19 -47t54 -17zM362 -12q-35 0 -56 17.5t-27 45.5q-58 -66 -144 -66q-47 0 -77 22t-30 63q0 36 23.5 66t62.5 49.5t79 32t84 19.5v109q0 42 -21 64t-71 22q-78 0 -133 -45l-5 6q32 45 84 72t115 27q70 0 100.5 -33
t30.5 -86v-285q0 -44 39 -44q25 0 49 19l2 -2q-34 -73 -105 -73zM126 653q0 37 26 61.5t64 24.5q39 0 64.5 -24t25.5 -62q0 -37 -26 -61t-64 -24t-64 24t-26 61zM165 653q0 -31 13.5 -48.5t37.5 -17.5t37.5 17.5t13.5 48.5t-13.5 49.5t-37.5 18.5t-37.5 -18.5t-13.5 -49.5z
" />
    <glyph glyph-name="ae" unicode="&#xe6;" horiz-adv-x="714" 
d="M500 -15q-130 0 -189 103q-59 -103 -171 -103q-50 0 -81 22t-31 63q0 36 23.5 66t62.5 49.5t79 32t84 19.5v109q0 42 -21 64t-71 22q-78 0 -133 -45l-5 6q32 45 84 72t115 27q87 0 113 -61q63 61 142 61q83 0 135 -62t47 -133h-307q-1 -10 -1 -30q0 -94 48 -145.5
t129 -51.5q88 0 131 46l6 -4q-19 -59 -67.5 -93t-121.5 -34zM500 474q-48 0 -81 -44t-41 -117l203 5v11q0 145 -81 145zM195 39q71 0 109 60q-25 51 -27 121q-155 -35 -155 -117q0 -30 19 -47t54 -17z" />
    <glyph glyph-name="ccedilla" unicode="&#xe7;" horiz-adv-x="465" 
d="M165 -255l-3 9q82 33 82 83q0 42 -75 49l-2 2l60 98q-93 8 -147.5 73.5t-54.5 170.5q0 111 76 186.5t177 75.5q78 0 132 -26l13 -111l-9 -2q-24 42 -68.5 81.5t-82.5 39.5q-64 0 -102 -55t-38 -147q0 -97 47 -149.5t127 -52.5q88 0 133 46l6 -4q-43 -124 -182 -127
l-29 -45q88 -19 88 -83q0 -81 -148 -112z" />
    <glyph glyph-name="egrave" unicode="&#xe8;" horiz-adv-x="473" 
d="M448 133q-21 -65 -72.5 -106.5t-125.5 -41.5q-99 0 -162 70t-63 175q0 115 71.5 188.5t159.5 73.5q84 0 140 -62.5t51 -132.5h-321v-19q0 -103 47 -155.5t128 -52.5q88 0 141 67zM252 474q-55 0 -86.5 -44.5t-37.5 -116.5l217 5v11q0 145 -93 145zM309 540l-8 -8
l-201 146l76 71z" />
    <glyph glyph-name="eacute" unicode="&#xe9;" horiz-adv-x="473" 
d="M448 133q-21 -65 -72.5 -106.5t-125.5 -41.5q-99 0 -162 70t-63 175q0 115 71.5 188.5t159.5 73.5q84 0 140 -62.5t51 -132.5h-321v-19q0 -103 47 -155.5t128 -52.5q88 0 141 67zM252 474q-55 0 -86.5 -44.5t-37.5 -116.5l217 5v11q0 145 -93 145zM175 550l133 199
l73 -71l-198 -136z" />
    <glyph glyph-name="ecircumflex" unicode="&#xea;" horiz-adv-x="473" 
d="M448 133q-21 -65 -72.5 -106.5t-125.5 -41.5q-99 0 -162 70t-63 175q0 115 71.5 188.5t159.5 73.5q84 0 140 -62.5t51 -132.5h-321v-19q0 -103 47 -155.5t128 -52.5q88 0 141 67zM252 474q-55 0 -86.5 -44.5t-37.5 -116.5l217 5v11q0 145 -93 145zM373 540l-131 87
l-131 -87l-9 10l137 169h6l137 -169z" />
    <glyph glyph-name="edieresis" unicode="&#xeb;" horiz-adv-x="473" 
d="M448 133q-21 -65 -72.5 -106.5t-125.5 -41.5q-99 0 -162 70t-63 175q0 115 71.5 188.5t159.5 73.5q84 0 140 -62.5t51 -132.5h-321v-19q0 -103 47 -155.5t128 -52.5q88 0 141 67zM252 474q-55 0 -86.5 -44.5t-37.5 -116.5l217 5v11q0 145 -93 145zM402 658
q0 -25 -17.5 -42.5t-42.5 -17.5t-42.5 17.5t-17.5 42.5t17.5 43t42.5 18t42.5 -18t17.5 -43zM202 658q0 -25 -17.5 -42.5t-42.5 -17.5t-42.5 17.5t-17.5 42.5t17.5 43t42.5 18t42.5 -18t17.5 -43z" />
    <glyph glyph-name="igrave" unicode="&#xec;" horiz-adv-x="242" 
d="M51 0v2q23 90 23 192v114q0 78 -45 129v7l145 53v-302q0 -133 22 -193v-2h-145zM190 540l-8 -8l-201 146l76 71z" />
    <glyph glyph-name="iacute" unicode="&#xed;" horiz-adv-x="242" 
d="M51 0v2q23 90 23 192v114q0 78 -45 129v7l145 53v-302q0 -133 22 -193v-2h-145zM56 550l133 199l73 -71l-198 -136z" />
    <glyph glyph-name="icircumflex" unicode="&#xee;" horiz-adv-x="242" 
d="M51 0v2q23 90 23 192v114q0 78 -45 129v7l145 53v-302q0 -133 22 -193v-2h-145zM254 540l-131 87l-131 -87l-9 10l137 169h6l137 -169z" />
    <glyph glyph-name="idieresis" unicode="&#xef;" horiz-adv-x="242" 
d="M269 658q0 -25 -17.5 -42.5t-42.5 -17.5t-42.5 17.5t-17.5 42.5t17.5 43t42.5 18t42.5 -18t17.5 -43zM97 658q0 -25 -17.5 -42.5t-42.5 -17.5t-42.5 17.5t-17.5 42.5t17.5 43t42.5 18t42.5 -18t17.5 -43zM51 0v2q23 90 23 192v114q0 78 -45 129v7l145 53v-302
q0 -133 22 -193v-2h-145z" />
    <glyph glyph-name="eth" unicode="&#xf0;" horiz-adv-x="571" 
d="M279 -15q-109 0 -181.5 73t-72.5 189q0 106 69 170.5t162 64.5q115 0 161 -94q-30 146 -114 250l-124 -84l-12 16l123 83q-64 73 -153 115l4 10q107 -37 189 -98l112 75l12 -16l-107 -72q99 -80 146.5 -182.5t47.5 -201.5q0 -128 -72.5 -213t-189.5 -85zM277 3
q78 0 116 71.5t38 178.5q0 44 -5 78q-24 65 -65.5 97t-90.5 32q-63 0 -100.5 -55.5t-37.5 -173.5q0 -110 38 -169t107 -59z" />
    <glyph glyph-name="ntilde" unicode="&#xf1;" horiz-adv-x="545" 
d="M196 2v-2h-145v2q23 67 23 192v118q0 79 -45 130v2l141 53v-96l4 -1q76 92 161 92q67 0 104 -38.5t37 -106.5v-152q0 -75 4 -114.5t19 -78.5v-2h-145v2q22 67 22 192v130q0 47 -22.5 77t-69.5 30q-63 0 -110 -50v-186q0 -133 22 -193zM208 680q21 0 71 -15.5t75 -15.5
q45 0 59 43l10 -1q-1 -18 -5 -35t-13 -37t-26 -32t-40 -12q-21 0 -72 16t-76 16q-45 0 -57 -43l-11 1q2 26 8 48.5t26 44.5t51 22z" />
    <glyph glyph-name="ograve" unicode="&#xf2;" horiz-adv-x="563" 
d="M281 -15q-105 0 -181 75.5t-75 177.5q1 101 77 177.5t179 76.5q104 0 180.5 -76.5t76.5 -177.5q0 -102 -76 -177.5t-181 -75.5zM281 5q73 0 110 67t37 166q0 98 -37.5 166t-109.5 68t-109 -68t-37 -166q0 -99 36.5 -166t109.5 -67zM348 540l-8 -8l-201 146l76 71z" />
    <glyph glyph-name="oacute" unicode="&#xf3;" horiz-adv-x="563" 
d="M281 -15q-105 0 -181 75.5t-75 177.5q1 101 77 177.5t179 76.5q104 0 180.5 -76.5t76.5 -177.5q0 -102 -76 -177.5t-181 -75.5zM281 5q73 0 110 67t37 166q0 98 -37.5 166t-109.5 68t-109 -68t-37 -166q0 -99 36.5 -166t109.5 -67zM214 550l133 199l73 -71l-198 -136z
" />
    <glyph glyph-name="ocircumflex" unicode="&#xf4;" horiz-adv-x="563" 
d="M281 -15q-105 0 -181 75.5t-75 177.5q1 101 77 177.5t179 76.5q104 0 180.5 -76.5t76.5 -177.5q0 -102 -76 -177.5t-181 -75.5zM281 5q73 0 110 67t37 166q0 98 -37.5 166t-109.5 68t-109 -68t-37 -166q0 -99 36.5 -166t109.5 -67zM412 540l-131 87l-131 -87l-9 10
l137 169h6l137 -169z" />
    <glyph glyph-name="otilde" unicode="&#xf5;" horiz-adv-x="563" 
d="M281 -15q-105 0 -181 75.5t-75 177.5q1 101 77 177.5t179 76.5q104 0 180.5 -76.5t76.5 -177.5q0 -102 -76 -177.5t-181 -75.5zM281 5q73 0 110 67t37 166q0 98 -37.5 166t-109.5 68t-109 -68t-37 -166q0 -99 36.5 -166t109.5 -67zM216 680q21 0 71 -15.5t75 -15.5
q45 0 59 43l10 -1q-1 -18 -5 -35t-13 -37t-26 -32t-40 -12q-21 0 -72 16t-76 16q-45 0 -57 -43l-11 1q2 26 8 48.5t26 44.5t51 22z" />
    <glyph glyph-name="odieresis" unicode="&#xf6;" horiz-adv-x="563" 
d="M281 -15q-105 0 -181 75.5t-75 177.5q1 101 77 177.5t179 76.5q104 0 180.5 -76.5t76.5 -177.5q0 -102 -76 -177.5t-181 -75.5zM281 5q73 0 110 67t37 166q0 98 -37.5 166t-109.5 68t-109 -68t-37 -166q0 -99 36.5 -166t109.5 -67zM441 658q0 -25 -17.5 -42.5
t-42.5 -17.5t-42.5 17.5t-17.5 42.5t17.5 43t42.5 18t42.5 -18t17.5 -43zM241 658q0 -25 -17.5 -42.5t-42.5 -17.5t-42.5 17.5t-17.5 42.5t17.5 43t42.5 18t42.5 -18t17.5 -43z" />
    <glyph glyph-name="divide" unicode="&#xf7;" horiz-adv-x="546" 
d="M494 297h-442v22h442v-22zM273 75q-28 0 -47.5 20t-19.5 47q0 28 19.5 48t47.5 20q27 0 47 -20t20 -48q0 -27 -20 -47t-47 -20zM273 399q-28 0 -47.5 20t-19.5 47q0 28 19.5 48t47.5 20q27 0 47 -20t20 -48q0 -27 -20 -47t-47 -20z" />
    <glyph glyph-name="oslash" unicode="&#xf8;" horiz-adv-x="563" 
d="M281 -15q-73 0 -135 38l-62 -90h-27l71 103q-48 36 -76 89t-27 113q1 101 77 177.5t179 76.5q70 0 134 -40l63 92h27l-72 -104q48 -37 76.5 -90t28.5 -112q0 -102 -76 -177.5t-181 -75.5zM281 5q73 0 110 67t37 166q0 88 -30 151l-223 -323q39 -61 106 -61zM135 238
q0 -89 28 -151l223 323q-39 62 -105 62q-72 0 -109 -68t-37 -166z" />
    <glyph glyph-name="ugrave" unicode="&#xf9;" horiz-adv-x="524" 
d="M349 -12v124q-66 -127 -161 -127q-63 0 -96 45.5t-33 124.5v213q0 70 -42 107v2h142v-306q0 -106 88 -106q64 0 97 63v240q0 72 -44 107v2h144v-307q0 -75 9.5 -102t35.5 -46v-2zM320 540l-8 -8l-201 146l76 71z" />
    <glyph glyph-name="uacute" unicode="&#xfa;" horiz-adv-x="524" 
d="M349 -12v124q-66 -127 -161 -127q-63 0 -96 45.5t-33 124.5v213q0 70 -42 107v2h142v-306q0 -106 88 -106q64 0 97 63v240q0 72 -44 107v2h144v-307q0 -75 9.5 -102t35.5 -46v-2zM186 550l133 199l73 -71l-198 -136z" />
    <glyph glyph-name="ucircumflex" unicode="&#xfb;" horiz-adv-x="524" 
d="M349 -12v124q-66 -127 -161 -127q-63 0 -96 45.5t-33 124.5v213q0 70 -42 107v2h142v-306q0 -106 88 -106q64 0 97 63v240q0 72 -44 107v2h144v-307q0 -75 9.5 -102t35.5 -46v-2zM384 540l-131 87l-131 -87l-9 10l137 169h6l137 -169z" />
    <glyph glyph-name="udieresis" unicode="&#xfc;" horiz-adv-x="524" 
d="M349 -12v124q-66 -127 -161 -127q-63 0 -96 45.5t-33 124.5v213q0 70 -42 107v2h142v-306q0 -106 88 -106q64 0 97 63v240q0 72 -44 107v2h144v-307q0 -75 9.5 -102t35.5 -46v-2zM413 658q0 -25 -17.5 -42.5t-42.5 -17.5t-42.5 17.5t-17.5 42.5t17.5 43t42.5 18t42.5 -18
t17.5 -43zM213 658q0 -25 -17.5 -42.5t-42.5 -17.5t-42.5 17.5t-17.5 42.5t17.5 43t42.5 18t42.5 -18t17.5 -43z" />
    <glyph glyph-name="yacute" unicode="&#xfd;" horiz-adv-x="449" 
d="M41 -225l-2 96q18 -1 36.5 2t45.5 12t50 32.5t36 58.5l1 4l-142 378q-30 82 -61 117v2h168v-2q-27 -46 4 -128l84 -225l85 227q12 44 6.5 75t-21.5 51v2h113v-2q-47 -51 -74 -123l-155 -401q-37 -96 -77.5 -132.5t-96.5 -43.5zM189 550l133 199l73 -71l-198 -136z" />
    <glyph glyph-name="thorn" unicode="&#xfe;" horiz-adv-x="561" 
d="M294 3q59 0 95.5 60t36.5 162q0 103 -39 152.5t-107 49.5q-66 0 -111 -41v-201q0 -95 38 -138.5t87 -43.5zM191 -223v-2h-145v2q23 67 23 192v625q0 80 -45 129v2l145 53v-370h2q70 84 170 84q85 0 137.5 -69.5t52.5 -178.5q0 -113 -64 -186t-183 -73q-64 0 -115 23v-38
q0 -132 22 -193z" />
    <glyph glyph-name="ydieresis" unicode="&#xff;" horiz-adv-x="449" 
d="M41 -225l-2 96q18 -1 36.5 2t45.5 12t50 32.5t36 58.5l1 4l-142 378q-30 82 -61 117v2h168v-2q-27 -46 4 -128l84 -225l85 227q12 44 6.5 75t-21.5 51v2h113v-2q-47 -51 -74 -123l-155 -401q-37 -96 -77.5 -132.5t-96.5 -43.5zM403 658q0 -25 -17.5 -42.5t-42.5 -17.5
t-42.5 17.5t-17.5 42.5t17.5 43t42.5 18t42.5 -18t17.5 -43zM203 658q0 -25 -17.5 -42.5t-42.5 -17.5t-42.5 17.5t-17.5 42.5t17.5 43t42.5 18t42.5 -18t17.5 -43z" />
    <glyph glyph-name="Amacron" unicode="&#x100;" horiz-adv-x="636" 
d="M379 296l-109 289l-110 -289h219zM133 2v-2h-135v2q33 34 51.5 69.5t43.5 102.5l215 566h20l219 -577q42 -111 91 -161v-2h-199v2q14 19 11.5 66t-22.5 100l-41 108h-235l-21 -56q-52 -134 2 -218zM162 833v50h313v-50h-313z" />
    <glyph glyph-name="amacron" unicode="&#x101;" horiz-adv-x="472" 
d="M195 39q51 0 82 29v152q-155 -35 -155 -117q0 -30 19 -47t54 -17zM362 -12q-35 0 -56 17.5t-27 45.5q-58 -66 -144 -66q-47 0 -77 22t-30 63q0 36 23.5 66t62.5 49.5t79 32t84 19.5v109q0 42 -21 64t-71 22q-78 0 -133 -45l-5 6q32 45 84 72t115 27q70 0 100.5 -33
t30.5 -86v-285q0 -44 39 -44q25 0 49 19l2 -2q-34 -73 -105 -73zM75 595v50h283v-50h-283z" />
    <glyph glyph-name="Abreve" unicode="&#x102;" horiz-adv-x="636" 
d="M379 296l-109 289l-110 -289h219zM133 2v-2h-135v2q33 34 51.5 69.5t43.5 102.5l215 566h20l219 -577q42 -111 91 -161v-2h-199v2q14 19 11.5 66t-22.5 100l-41 108h-235l-21 -56q-52 -134 2 -218zM318 859q100 0 126 85h10q0 -54 -33 -102t-103 -48q-48 0 -80.5 26.5
t-43.5 58.5t-11 65h10q26 -85 125 -85z" />
    <glyph glyph-name="abreve" unicode="&#x103;" horiz-adv-x="472" 
d="M195 39q51 0 82 29v152q-155 -35 -155 -117q0 -30 19 -47t54 -17zM362 -12q-35 0 -56 17.5t-27 45.5q-58 -66 -144 -66q-47 0 -77 22t-30 63q0 36 23.5 66t62.5 49.5t79 32t84 19.5v109q0 42 -21 64t-71 22q-78 0 -133 -45l-5 6q32 45 84 72t115 27q70 0 100.5 -33
t30.5 -86v-285q0 -44 39 -44q25 0 49 19l2 -2q-34 -73 -105 -73zM216 632q84 0 104 72h10q-1 -50 -28.5 -91.5t-87.5 -41.5q-42 0 -68.5 24t-34.5 51t-9 58h10q20 -72 104 -72z" />
    <glyph glyph-name="Aogonek" unicode="&#x104;" horiz-adv-x="636" 
d="M399 -248q-41 0 -66.5 23.5t-25.5 60.5q0 40 27.5 73t82.5 75q34 26 34 74q0 50 -23 110l-41 108h-235l-21 -56q-52 -134 2 -218v-2h-135v2q33 34 51.5 69.5t43.5 102.5l215 566h20l219 -577q42 -111 91 -161v-2h-170q-82 -68 -82 -126q0 -27 14 -43t41 -16q44 0 82 45
l9 -7q-54 -101 -133 -101zM379 296l-109 289l-110 -289h219z" />
    <glyph glyph-name="aogonek" unicode="&#x105;" horiz-adv-x="472" 
d="M333 -248q-41 0 -66.5 23.5t-25.5 60.5q0 39 28 72.5t87 79.5q-64 3 -77 63q-58 -66 -144 -66q-47 0 -77 22t-30 63q0 36 23.5 66t62.5 49.5t79 32t84 19.5v109q0 42 -21 64t-71 22q-78 0 -133 -45l-5 6q32 45 84 72t115 27q70 0 100.5 -33t30.5 -86v-285q0 -44 39 -44
q25 0 49 19l2 -2q-14 -33 -44 -55q-9 -6 -30 -17.5t-32 -20.5q-41 -34 -41 -90q0 -63 55 -63q44 0 82 45l9 -7q-54 -101 -133 -101zM195 39q51 0 82 29v152q-155 -35 -155 -117q0 -30 19 -47t54 -17z" />
    <glyph glyph-name="Cacute" unicode="&#x106;" horiz-adv-x="752" 
d="M705 240l-20 -183q-24 -18 -105.5 -45t-169.5 -27q-170 0 -275 108.5t-105 272.5q0 161 113 271t286 110q131 0 252 -48l20 -164l-8 -3q-77 109 -135.5 152t-141.5 43q-132 0 -195.5 -98t-63.5 -263q0 -164 63 -262.5t190 -98.5q99 0 163.5 60t123.5 178zM326 792
l195 167l52 -86l-241 -91z" />
    <glyph glyph-name="cacute" unicode="&#x107;" horiz-adv-x="465" 
d="M430 116l6 -4q-20 -59 -67.5 -93t-119.5 -34q-102 0 -163 67t-61 178t76 186.5t177 75.5q78 0 132 -26l13 -111l-9 -2q-24 42 -68.5 81.5t-82.5 39.5q-64 0 -102 -55t-38 -147q0 -97 47 -149.5t127 -52.5q88 0 133 46zM180 550l133 199l73 -71l-198 -136z" />
    <glyph glyph-name="Ccircumflex" unicode="&#x108;" horiz-adv-x="752" 
d="M705 240l-20 -183q-24 -18 -105.5 -45t-169.5 -27q-170 0 -275 108.5t-105 272.5q0 161 113 271t286 110q131 0 252 -48l20 -164l-8 -3q-77 109 -135.5 152t-141.5 43q-132 0 -195.5 -98t-63.5 -263q0 -164 63 -262.5t190 -98.5q99 0 163.5 60t123.5 178zM561 782
l-147 76l-147 -76l-9 10l153 153h6l153 -153z" />
    <glyph glyph-name="ccircumflex" unicode="&#x109;" horiz-adv-x="465" 
d="M430 116l6 -4q-20 -59 -67.5 -93t-119.5 -34q-102 0 -163 67t-61 178t76 186.5t177 75.5q78 0 132 -26l13 -111l-9 -2q-24 42 -68.5 81.5t-82.5 39.5q-64 0 -102 -55t-38 -147q0 -97 47 -149.5t127 -52.5q88 0 133 46zM378 540l-131 87l-131 -87l-9 10l137 169h6
l137 -169z" />
    <glyph glyph-name="Cdotaccent" unicode="&#x10a;" horiz-adv-x="752" 
d="M705 240l-20 -183q-24 -18 -105.5 -45t-169.5 -27q-170 0 -275 108.5t-105 272.5q0 161 113 271t286 110q131 0 252 -48l20 -164l-8 -3q-77 109 -135.5 152t-141.5 43q-132 0 -195.5 -98t-63.5 -263q0 -164 63 -262.5t190 -98.5q99 0 163.5 60t123.5 178zM474 868
q0 -25 -17.5 -42.5t-42.5 -17.5t-42.5 17.5t-17.5 42.5t17.5 43t42.5 18t42.5 -18t17.5 -43z" />
    <glyph glyph-name="cdotaccent" unicode="&#x10b;" horiz-adv-x="465" 
d="M430 116l6 -4q-20 -59 -67.5 -93t-119.5 -34q-102 0 -163 67t-61 178t76 186.5t177 75.5q78 0 132 -26l13 -111l-9 -2q-24 42 -68.5 81.5t-82.5 39.5q-64 0 -102 -55t-38 -147q0 -97 47 -149.5t127 -52.5q88 0 133 46zM307 658q0 -25 -17.5 -42.5t-42.5 -17.5t-42.5 17.5
t-17.5 42.5t17.5 43t42.5 18t42.5 -18t17.5 -43z" />
    <glyph glyph-name="Ccaron" unicode="&#x10c;" horiz-adv-x="752" 
d="M705 240l-20 -183q-24 -18 -105.5 -45t-169.5 -27q-170 0 -275 108.5t-105 272.5q0 161 113 271t286 110q131 0 252 -48l20 -164l-8 -3q-77 109 -135.5 152t-141.5 43q-132 0 -195.5 -98t-63.5 -263q0 -164 63 -262.5t190 -98.5q99 0 163.5 60t123.5 178zM417 782h-6
l-153 153l9 10l147 -76l147 76l9 -10z" />
    <glyph glyph-name="ccaron" unicode="&#x10d;" horiz-adv-x="465" 
d="M430 116l6 -4q-20 -59 -67.5 -93t-119.5 -34q-102 0 -163 67t-61 178t76 186.5t177 75.5q78 0 132 -26l13 -111l-9 -2q-24 42 -68.5 81.5t-82.5 39.5q-64 0 -102 -55t-38 -147q0 -97 47 -149.5t127 -52.5q88 0 133 46zM244 540l-137 169l9 10l131 -87l131 87l9 -10
l-137 -169h-6z" />
    <glyph glyph-name="Dcaron" unicode="&#x10e;" horiz-adv-x="753" 
d="M49 0v2q24 40 32 70t8 82v424q0 52 -8 82t-32 70v2q62 0 134.5 2t139.5 2q188 0 294 -95.5t106 -271.5q0 -178 -104 -273.5t-296 -95.5h-274zM314 716h-110v-699l111 3q150 4 215.5 86t65.5 249q0 184 -69.5 272.5t-212.5 88.5zM363 782h-6l-153 153l9 10l147 -76l147 76
l9 -10z" />
    <glyph glyph-name="dcaron" unicode="&#x10f;" horiz-adv-x="567" 
d="M274 52q72 0 118 54v257q-24 111 -114 111q-65 0 -104 -62t-39 -161q0 -92 35.5 -145.5t103.5 -53.5zM396 86h-3q-25 -43 -69 -72t-102 -29q-87 0 -139.5 65t-52.5 167q0 115 69 195t192 80q55 0 101 -18v119q0 81 -45 130v2l145 53v-565q0 -98 9.5 -132.5t36.5 -58.5v-2
l-142 -32v98zM536 574l23 201h90l-103 -203z" />
    <glyph glyph-name="Dcroat" unicode="&#x110;" horiz-adv-x="759" 
d="M4 357v20h91v201q0 52 -8 82t-32 70v2q62 0 134.5 2t139.5 2q188 0 294 -95.5t106 -271.5q0 -178 -104 -273.5t-296 -95.5h-274v2q24 40 32 70t8 82v203h-91zM320 716h-110v-339h166v-20h-166v-340l111 3q150 4 215.5 86t65.5 249q0 184 -70 272.5t-212 88.5z" />
    <glyph glyph-name="dcroat" unicode="&#x111;" horiz-adv-x="567" 
d="M396 86h-3q-25 -43 -69 -72t-102 -29q-87 0 -139.5 65t-52.5 167q0 115 69 195t192 80q55 0 101 -18v105h-172v20h172q-3 78 -45 124v2l145 53v-179h60v-20h-60v-366q0 -98 9.5 -132.5t36.5 -58.5v-2l-142 -32v98zM274 52q72 0 118 54v257q-24 111 -114 111
q-65 0 -104 -62t-39 -161q0 -92 35.5 -145.5t103.5 -53.5z" />
    <glyph glyph-name="Emacron" unicode="&#x112;" horiz-adv-x="620" 
d="M605 198l-44 -198h-512v2q21 50 30 85t9 82v394q0 48 -8.5 82t-30.5 85v2h462l39 -178l-8 -3q-12 13 -53 61t-68.5 72.5t-47.5 25.5l-169 7v-338h86q17 0 36 12.5t30.5 24.5t31.5 36.5t26 31.5h9v-226h-9q-7 7 -26 29.5t-31 35t-31 24.5t-36 12h-86v-344l178 7
q55 3 106 51.5t109 127.5zM153 833v50h313v-50h-313z" />
    <glyph glyph-name="emacron" unicode="&#x113;" horiz-adv-x="473" 
d="M448 133q-21 -65 -72.5 -106.5t-125.5 -41.5q-99 0 -162 70t-63 175q0 115 71.5 188.5t159.5 73.5q84 0 140 -62.5t51 -132.5h-321v-19q0 -103 47 -155.5t128 -52.5q88 0 141 67zM252 474q-55 0 -86.5 -44.5t-37.5 -116.5l217 5v11q0 145 -93 145zM101 595v50h283v-50
h-283z" />
    <glyph glyph-name="Ebreve" unicode="&#x114;" horiz-adv-x="620" 
d="M605 198l-44 -198h-512v2q21 50 30 85t9 82v394q0 48 -8.5 82t-30.5 85v2h462l39 -178l-8 -3q-12 13 -53 61t-68.5 72.5t-47.5 25.5l-169 7v-338h86q17 0 36 12.5t30.5 24.5t31.5 36.5t26 31.5h9v-226h-9q-7 7 -26 29.5t-31 35t-31 24.5t-36 12h-86v-344l178 7
q55 3 106 51.5t109 127.5zM309 859q100 0 126 85h10q0 -54 -33 -102t-103 -48q-48 0 -80.5 26.5t-43.5 58.5t-11 65h10q26 -85 125 -85z" />
    <glyph glyph-name="ebreve" unicode="&#x115;" horiz-adv-x="473" 
d="M448 133q-21 -65 -72.5 -106.5t-125.5 -41.5q-99 0 -162 70t-63 175q0 115 71.5 188.5t159.5 73.5q84 0 140 -62.5t51 -132.5h-321v-19q0 -103 47 -155.5t128 -52.5q88 0 141 67zM252 474q-55 0 -86.5 -44.5t-37.5 -116.5l217 5v11q0 145 -93 145zM242 632q84 0 104 72
h10q-1 -50 -28.5 -91.5t-87.5 -41.5q-42 0 -68.5 24t-34.5 51t-9 58h10q20 -72 104 -72z" />
    <glyph glyph-name="Edotaccent" unicode="&#x116;" horiz-adv-x="620" 
d="M605 198l-44 -198h-512v2q21 50 30 85t9 82v394q0 48 -8.5 82t-30.5 85v2h462l39 -178l-8 -3q-12 13 -53 61t-68.5 72.5t-47.5 25.5l-169 7v-338h86q17 0 36 12.5t30.5 24.5t31.5 36.5t26 31.5h9v-226h-9q-7 7 -26 29.5t-31 35t-31 24.5t-36 12h-86v-344l178 7
q55 3 106 51.5t109 127.5zM369 868q0 -25 -17.5 -42.5t-42.5 -17.5t-42.5 17.5t-17.5 42.5t17.5 43t42.5 18t42.5 -18t17.5 -43z" />
    <glyph glyph-name="edotaccent" unicode="&#x117;" horiz-adv-x="473" 
d="M448 133q-21 -65 -72.5 -106.5t-125.5 -41.5q-99 0 -162 70t-63 175q0 115 71.5 188.5t159.5 73.5q84 0 140 -62.5t51 -132.5h-321v-19q0 -103 47 -155.5t128 -52.5q88 0 141 67zM252 474q-55 0 -86.5 -44.5t-37.5 -116.5l217 5v11q0 145 -93 145zM302 658
q0 -25 -17.5 -42.5t-42.5 -17.5t-42.5 17.5t-17.5 42.5t17.5 43t42.5 18t42.5 -18t17.5 -43z" />
    <glyph glyph-name="Eogonek" unicode="&#x118;" horiz-adv-x="620" 
d="M605 198l-44 -198h-94q-81 -67 -81 -126q0 -27 14 -43t41 -16q44 0 82 45l9 -7q-54 -101 -133 -101q-41 0 -66.5 23.5t-25.5 60.5q0 42 31 77t99 87h-388v2q21 50 30 85t9 82v394q0 48 -8.5 82t-30.5 85v2h462l39 -178l-8 -3q-12 13 -53 61t-68.5 72.5t-47.5 25.5l-169 7
v-338h86q17 0 36 12.5t30.5 24.5t31.5 36.5t26 31.5h9v-226h-9q-7 7 -26 29.5t-31 35t-31 24.5t-36 12h-86v-344l178 7q55 3 106 51.5t109 127.5z" />
    <glyph glyph-name="eogonek" unicode="&#x119;" horiz-adv-x="473" 
d="M250 474q-49 0 -82.5 -44t-41.5 -116l209 4v11q0 145 -85 145zM388 -147q-54 -101 -133 -101q-41 0 -66 23t-25 62q0 77 119 149q-4 -1 -32 -1q-105 0 -165.5 66t-60.5 177q0 117 67.5 190.5t158.5 73.5q85 0 138 -62t48 -133h-313q-1 -10 -1 -30q0 -94 48 -145.5
t130 -51.5q90 0 136 46l6 -4q-20 -56 -67 -92q-15 -11 -36.5 -22.5t-24.5 -13.5q-73 -42 -73 -108q0 -61 57 -61q42 0 80 45z" />
    <glyph glyph-name="Ecaron" unicode="&#x11a;" horiz-adv-x="620" 
d="M605 198l-44 -198h-512v2q21 50 30 85t9 82v394q0 48 -8.5 82t-30.5 85v2h462l39 -178l-8 -3q-12 13 -53 61t-68.5 72.5t-47.5 25.5l-169 7v-338h86q17 0 36 12.5t30.5 24.5t31.5 36.5t26 31.5h9v-226h-9q-7 7 -26 29.5t-31 35t-31 24.5t-36 12h-86v-344l178 7
q55 3 106 51.5t109 127.5zM312 782h-6l-153 153l9 10l147 -76l147 76l9 -10z" />
    <glyph glyph-name="ecaron" unicode="&#x11b;" horiz-adv-x="473" 
d="M448 133q-21 -65 -72.5 -106.5t-125.5 -41.5q-99 0 -162 70t-63 175q0 115 71.5 188.5t159.5 73.5q84 0 140 -62.5t51 -132.5h-321v-19q0 -103 47 -155.5t128 -52.5q88 0 141 67zM252 474q-55 0 -86.5 -44.5t-37.5 -116.5l217 5v11q0 145 -93 145zM239 540l-137 169l9 10
l131 -87l131 87l9 -10l-137 -169h-6z" />
    <glyph glyph-name="Gcircumflex" unicode="&#x11c;" horiz-adv-x="783" 
d="M713 91q-1 -1 -19 -14t-24.5 -17t-27 -16.5t-34 -18t-37.5 -15t-45 -14t-49.5 -8t-57.5 -3.5q-175 0 -282 108.5t-107 272.5t110.5 272.5t295.5 108.5q109 0 256 -48l20 -163l-9 -3q-72 105 -134.5 149.5t-141.5 44.5q-132 0 -201 -100.5t-69 -261.5q0 -105 26 -183.5
t86 -127.5t150 -49q84 0 134 41t50 118q0 54 -9.5 88t-36.5 78v2h196v-2q-25 -46 -32.5 -81t-7.5 -98v-60zM561 782l-147 76l-147 -76l-9 10l153 153h6l153 -153z" />
    <glyph glyph-name="gcircumflex" unicode="&#x11d;" horiz-adv-x="520" 
d="M236 169q90 0 90 152q0 153 -91 153q-89 0 -89 -153q0 -152 90 -152zM492 -66q-2 -68 -72 -113.5t-193 -45.5q-97 0 -158 30.5t-61 83.5q0 36 27.5 59.5t67.5 33.5q-57 22 -57 78q0 43 30 70t75 39q-47 21 -76 62t-29 90q0 72 55 121.5t134 49.5t134 -50l127 74l2 -1v-89
h-4l-111 2q43 -46 43 -107q0 -70 -55.5 -120t-134.5 -50q-36 0 -72 13q-44 -21 -44 -55q0 -26 25 -36.5t75 -12.5l100 -3q75 -2 124.5 -33t47.5 -90zM268 -190q81 0 124 23.5t43 61.5q0 62 -122 66l-108 4q-54 2 -87 12q-25 -23 -25 -61q0 -51 45.5 -78.5t129.5 -27.5z
M374 540l-131 87l-131 -87l-9 10l137 169h6l137 -169z" />
    <glyph glyph-name="Gbreve" unicode="&#x11e;" horiz-adv-x="783" 
d="M713 91q-1 -1 -19 -14t-24.5 -17t-27 -16.5t-34 -18t-37.5 -15t-45 -14t-49.5 -8t-57.5 -3.5q-175 0 -282 108.5t-107 272.5t110.5 272.5t295.5 108.5q109 0 256 -48l20 -163l-9 -3q-72 105 -134.5 149.5t-141.5 44.5q-132 0 -201 -100.5t-69 -261.5q0 -105 26 -183.5
t86 -127.5t150 -49q84 0 134 41t50 118q0 54 -9.5 88t-36.5 78v2h196v-2q-25 -46 -32.5 -81t-7.5 -98v-60zM414 859q100 0 126 85h10q0 -54 -33 -102t-103 -48q-48 0 -80.5 26.5t-43.5 58.5t-11 65h10q26 -85 125 -85z" />
    <glyph glyph-name="gbreve" unicode="&#x11f;" horiz-adv-x="520" 
d="M236 169q90 0 90 152q0 153 -91 153q-89 0 -89 -153q0 -152 90 -152zM492 -66q-2 -68 -72 -113.5t-193 -45.5q-97 0 -158 30.5t-61 83.5q0 36 27.5 59.5t67.5 33.5q-57 22 -57 78q0 43 30 70t75 39q-47 21 -76 62t-29 90q0 72 55 121.5t134 49.5t134 -50l127 74l2 -1v-89
h-4l-111 2q43 -46 43 -107q0 -70 -55.5 -120t-134.5 -50q-36 0 -72 13q-44 -21 -44 -55q0 -26 25 -36.5t75 -12.5l100 -3q75 -2 124.5 -33t47.5 -90zM268 -190q81 0 124 23.5t43 61.5q0 62 -122 66l-108 4q-54 2 -87 12q-25 -23 -25 -61q0 -51 45.5 -78.5t129.5 -27.5z
M244 632q84 0 104 72h10q-1 -50 -28.5 -91.5t-87.5 -41.5q-42 0 -68.5 24t-34.5 51t-9 58h10q20 -72 104 -72z" />
    <glyph glyph-name="Gdotaccent" unicode="&#x120;" horiz-adv-x="783" 
d="M713 91q-1 -1 -19 -14t-24.5 -17t-27 -16.5t-34 -18t-37.5 -15t-45 -14t-49.5 -8t-57.5 -3.5q-175 0 -282 108.5t-107 272.5t110.5 272.5t295.5 108.5q109 0 256 -48l20 -163l-9 -3q-72 105 -134.5 149.5t-141.5 44.5q-132 0 -201 -100.5t-69 -261.5q0 -105 26 -183.5
t86 -127.5t150 -49q84 0 134 41t50 118q0 54 -9.5 88t-36.5 78v2h196v-2q-25 -46 -32.5 -81t-7.5 -98v-60zM474 868q0 -25 -17.5 -42.5t-42.5 -17.5t-42.5 17.5t-17.5 42.5t17.5 43t42.5 18t42.5 -18t17.5 -43z" />
    <glyph glyph-name="gdotaccent" unicode="&#x121;" horiz-adv-x="520" 
d="M236 169q90 0 90 152q0 153 -91 153q-89 0 -89 -153q0 -152 90 -152zM492 -66q-2 -68 -72 -113.5t-193 -45.5q-97 0 -158 30.5t-61 83.5q0 36 27.5 59.5t67.5 33.5q-57 22 -57 78q0 43 30 70t75 39q-47 21 -76 62t-29 90q0 72 55 121.5t134 49.5t134 -50l127 74l2 -1v-89
h-4l-111 2q43 -46 43 -107q0 -70 -55.5 -120t-134.5 -50q-36 0 -72 13q-44 -21 -44 -55q0 -26 25 -36.5t75 -12.5l100 -3q75 -2 124.5 -33t47.5 -90zM268 -190q81 0 124 23.5t43 61.5q0 62 -122 66l-108 4q-54 2 -87 12q-25 -23 -25 -61q0 -51 45.5 -78.5t129.5 -27.5z
M304 658q0 -25 -17.5 -42.5t-42.5 -17.5t-42.5 17.5t-17.5 42.5t17.5 43t42.5 18t42.5 -18t17.5 -43z" />
    <glyph glyph-name="uni0122" unicode="&#x122;" horiz-adv-x="783" 
d="M713 91q-1 -1 -19 -14t-24.5 -17t-27 -16.5t-34 -18t-37.5 -15t-45 -14t-49.5 -8t-57.5 -3.5q-175 0 -282 108.5t-107 272.5t110.5 272.5t295.5 108.5q109 0 256 -48l20 -163l-9 -3q-72 105 -134.5 149.5t-141.5 44.5q-132 0 -201 -100.5t-69 -261.5q0 -105 26 -183.5
t86 -127.5t150 -49q84 0 134 41t50 118q0 54 -9.5 88t-36.5 78v2h196v-2q-25 -46 -32.5 -81t-7.5 -98v-60zM351 -244l-3 5q56 38 56 85q0 21 -42 65v1l75 50q42 -28 42 -70q0 -38 -40 -76t-88 -60z" />
    <glyph glyph-name="uni0123" unicode="&#x123;" horiz-adv-x="520" 
d="M236 169q90 0 90 152q0 153 -91 153q-89 0 -89 -153q0 -152 90 -152zM492 -66q-2 -68 -72 -113.5t-193 -45.5q-97 0 -158 30.5t-61 83.5q0 36 27.5 59.5t67.5 33.5q-57 22 -57 78q0 43 30 70t75 39q-47 21 -76 62t-29 90q0 72 55 121.5t134 49.5t134 -50l127 74l2 -1v-89
h-4l-111 2q43 -46 43 -107q0 -70 -55.5 -120t-134.5 -50q-36 0 -72 13q-44 -21 -44 -55q0 -26 25 -36.5t75 -12.5l100 -3q75 -2 124.5 -33t47.5 -90zM268 -190q81 0 124 23.5t43 61.5q0 62 -122 66l-108 4q-54 2 -87 12q-25 -23 -25 -61q0 -51 45.5 -78.5t129.5 -27.5z
M327 794l3 -5q-56 -38 -56 -85q0 -21 42 -65v-1l-75 -50q-42 28 -42 70q0 38 40 76t88 60z" />
    <glyph glyph-name="Hcircumflex" unicode="&#x124;" horiz-adv-x="757" 
d="M49 0v2q24 47 32 82.5t8 96.5v370q0 62 -8 97t-32 82v2h195v-2q-25 -46 -32.5 -81t-7.5 -98v-164h349v164q0 62 -8 97.5t-32 81.5v2h195v-2q-24 -47 -32 -82t-8 -97v-370q0 -62 8 -97t32 -82v-2h-195v2q24 46 32 81.5t8 97.5v186h-349v-186q0 -63 7.5 -98t32.5 -81v-2
h-195zM525 782l-147 76l-147 -76l-9 10l153 153h6l153 -153z" />
    <glyph glyph-name="hcircumflex" unicode="&#x125;" horiz-adv-x="542" 
d="M193 0h-145v2q22 67 22 192v400q0 79 -45 130v2l145 52v-378q76 92 161 92q68 0 105 -39t37 -106v-153q0 -132 22 -192v-2h-145v2q23 67 23 192v130q0 47 -22.5 77t-69.5 30q-63 0 -111 -51v-186q0 -129 23 -192v-2zM418 802l-147 76l-147 -76l-9 10l153 153h6l153 -153z
" />
    <glyph glyph-name="Hbar" unicode="&#x126;" horiz-adv-x="769" 
d="M55 0v2q24 47 32 82.5t8 96.5v366h-90v20h90q-1 53 -9 86t-31 77v2h195v-2q-23 -43 -31 -76t-9 -87h349q-1 54 -9 87t-31 76v2h195v-2q-23 -44 -31 -77t-9 -86h90v-20h-90v-366q0 -62 8 -97t32 -82v-2h-195v2q24 46 32 81.5t8 97.5v186h-349v-186q0 -63 7.5 -98t32.5 -81
v-2h-195zM210 387h349v160h-349v-160z" />
    <glyph glyph-name="hbar" unicode="&#x127;" horiz-adv-x="542" 
d="M193 0h-145v2q22 67 22 192v385h-60v20h60q-1 74 -45 125v2l145 52v-179h172v-20h-172v-179q76 92 161 92q68 0 105 -39t37 -106v-153q0 -132 22 -192v-2h-145v2q23 67 23 192v130q0 47 -22.5 77t-69.5 30q-63 0 -111 -51v-186q0 -129 23 -192v-2z" />
    <glyph glyph-name="Itilde" unicode="&#x128;" horiz-adv-x="293" 
d="M49 0v2q25 46 32.5 81t7.5 98v370q0 63 -7.5 98t-32.5 81v2h195v-2q-25 -46 -32.5 -81t-7.5 -98v-370q0 -63 7.5 -98t32.5 -81v-2h-195zM68 905q30 0 85 -20t87 -20q26 0 41 11.5t25 42.5l10 -2q-1 -26 -4.5 -43.5t-12 -39t-27.5 -32.5t-48 -11q-30 0 -85 20t-87 20
q-26 0 -41 -11.5t-25 -42.5l-10 2q1 26 4.5 43.5t12 39t27.5 32.5t48 11z" />
    <glyph glyph-name="itilde" unicode="&#x129;" horiz-adv-x="242" 
d="M51 0v2q23 90 23 192v114q0 78 -45 129v7l145 53v-302q0 -133 22 -193v-2h-145zM48 680q21 0 71 -15.5t75 -15.5q45 0 59 43l10 -1q-1 -18 -5 -35t-13 -37t-26 -32t-40 -12q-21 0 -72 16t-76 16q-45 0 -57 -43l-11 1q2 26 8 48.5t26 44.5t51 22z" />
    <glyph glyph-name="Imacron" unicode="&#x12a;" horiz-adv-x="293" 
d="M49 0v2q25 46 32.5 81t7.5 98v370q0 63 -7.5 98t-32.5 81v2h195v-2q-25 -46 -32.5 -81t-7.5 -98v-370q0 -63 7.5 -98t32.5 -81v-2h-195zM-10 833v50h313v-50h-313z" />
    <glyph glyph-name="imacron" unicode="&#x12b;" horiz-adv-x="242" 
d="M7 595v50h213v-50h-213zM51 0v2q23 90 23 192v114q0 78 -45 129v7l145 53v-302q0 -133 22 -193v-2h-145z" />
    <glyph glyph-name="Ibreve" unicode="&#x12c;" horiz-adv-x="293" 
d="M49 0v2q25 46 32.5 81t7.5 98v370q0 63 -7.5 98t-32.5 81v2h195v-2q-25 -46 -32.5 -81t-7.5 -98v-370q0 -63 7.5 -98t32.5 -81v-2h-195zM146 859q100 0 126 85h10q0 -54 -33 -102t-103 -48q-48 0 -80.5 26.5t-43.5 58.5t-11 65h10q26 -85 125 -85z" />
    <glyph glyph-name="ibreve" unicode="&#x12d;" horiz-adv-x="242" 
d="M51 0v2q23 90 23 192v114q0 78 -45 129v7l145 53v-302q0 -133 22 -193v-2h-145zM123 632q84 0 104 72h10q-1 -50 -28.5 -91.5t-87.5 -41.5q-42 0 -68.5 24t-34.5 51t-9 58h10q20 -72 104 -72z" />
    <glyph glyph-name="Iogonek" unicode="&#x12e;" horiz-adv-x="293" 
d="M49 0v2q25 46 32.5 81t7.5 98v370q0 63 -7.5 98t-32.5 81v2h195v-2q-25 -46 -32.5 -81t-7.5 -98v-370q0 -63 7.5 -98t32.5 -81v-2h-50q-81 -67 -81 -126q0 -27 14 -43t41 -16q44 0 82 45l9 -7q-54 -101 -133 -101q-41 0 -66.5 23.5t-25.5 60.5q0 42 31 77t99 87h-115z
" />
    <glyph glyph-name="iogonek" unicode="&#x12f;" horiz-adv-x="242" 
d="M51 0v2q23 90 23 192v114q0 78 -45 129v7l145 53v-302q0 -133 22 -193v-2h-25q-81 -67 -81 -126q0 -27 14 -43t41 -16q44 0 82 45l9 -7q-54 -101 -133 -101q-41 0 -66.5 23.5t-25.5 60.5q0 42 31 77t99 87h-90zM179 658q0 -25 -17.5 -42.5t-42.5 -17.5t-42.5 17.5
t-17.5 42.5t17.5 43t42.5 18t42.5 -18t17.5 -43z" />
    <glyph glyph-name="Idotaccent" unicode="&#x130;" horiz-adv-x="293" 
d="M49 0v2q25 46 32.5 81t7.5 98v370q0 63 -7.5 98t-32.5 81v2h195v-2q-25 -46 -32.5 -81t-7.5 -98v-370q0 -63 7.5 -98t32.5 -81v-2h-195zM206 868q0 -25 -17.5 -42.5t-42.5 -17.5t-42.5 17.5t-17.5 42.5t17.5 43t42.5 18t42.5 -18t17.5 -43z" />
    <glyph glyph-name="dotlessi" unicode="&#x131;" horiz-adv-x="242" 
d="M51 0v2q23 90 23 192v114q0 78 -45 129v7l145 53v-302q0 -133 22 -193v-2h-145z" />
    <glyph glyph-name="IJ" unicode="&#x132;" horiz-adv-x="683" 
d="M49 0v2q25 46 32.5 81t7.5 98v370q0 63 -7.5 98t-32.5 81v2h195v-2q-25 -46 -32.5 -81t-7.5 -98v-370q0 -63 7.5 -98t32.5 -81v-2h-195zM603 138q0 -73 -45 -113t-124 -40q-60 0 -117 22l-18 165l8 3q9 -14 21.5 -35t19.5 -32t17 -26.5t16 -23.5t13.5 -18.5t13 -15.5
t12 -10t12 -7t11.5 -2q21 0 33.5 20.5t12.5 56.5v469q0 62 -8 97t-32 82v2h194v-2q-24 -47 -32 -82t-8 -97v-413z" />
    <glyph glyph-name="ij" unicode="&#x133;" horiz-adv-x="480" 
d="M179 658q0 -25 -17.5 -42.5t-42.5 -17.5t-42.5 17.5t-17.5 42.5t17.5 43t42.5 18t42.5 -18t17.5 -43zM51 0v2q23 90 23 192v114q0 78 -45 129v7l145 53v-302q0 -133 22 -193v-2h-145zM414 658q0 -25 -17.5 -42.5t-42.5 -17.5t-42.5 17.5t-17.5 42.5t17.5 43t42.5 18
t42.5 -18t17.5 -43zM246 -215l-2 6q65 40 65 141v376q0 78 -45 129v7l145 53l-2 -495q0 -97 -45.5 -152.5t-115.5 -64.5z" />
    <glyph glyph-name="Jcircumflex" unicode="&#x134;" horiz-adv-x="404" 
d="M324 138q0 -73 -45 -113t-124 -40q-60 0 -117 22l-18 165l8 3q9 -14 21.5 -35t19.5 -32t17 -26.5t16 -23.5t13.5 -18.5t13 -15.5t12 -10t12 -7t11.5 -2q21 0 33.5 20.5t12.5 56.5v469q0 62 -8 97t-32 82v2h194v-2q-24 -47 -32 -82t-8 -97v-413zM414 782l-147 76l-147 -76
l-9 10l153 153h6l153 -153z" />
    <glyph glyph-name="jcircumflex" unicode="&#x135;" horiz-adv-x="245" 
d="M11 -243l-2 6q65 40 65 141v404q0 78 -45 129v7l145 53l-2 -523q0 -97 -45.5 -152.5t-115.5 -64.5zM253 540l-131 87l-131 -87l-9 10l137 169h6l137 -169z" />
    <glyph glyph-name="uni0136" unicode="&#x136;" horiz-adv-x="655" 
d="M49 0v2q24 47 32 82.5t8 96.5v370q0 62 -8 97t-32 82v2h195v-2q-25 -46 -32.5 -81t-7.5 -98v-370q0 -63 7.5 -98t32.5 -81v-2h-195zM666 0h-174l-272 361l189 218q91 104 56 151v2h158v-2q-60 -30 -97.5 -62.5t-84.5 -86.5l-130 -148l232 -308q59 -79 122 -123zM271 -244
l-3 5q56 38 56 85q0 21 -42 65v1l75 50q42 -28 42 -70q0 -38 -40 -76t-88 -60z" />
    <glyph glyph-name="uni0137" unicode="&#x137;" horiz-adv-x="479" 
d="M48 0v2q22 47 22 137v455q0 80 -45 129v2l145 53v-638q0 -92 24 -138v-2h-146zM489 0h-139l-172 248l115 125q24 26 32 54.5t-4 47.5v2h130v-2q-65 -29 -144 -114l-52 -57l147 -212q48 -69 87 -90v-2zM186 -244l-3 5q56 38 56 85q0 21 -42 65v1l75 50q42 -28 42 -70
q0 -38 -40 -76t-88 -60z" />
    <glyph glyph-name="Lacute" unicode="&#x139;" horiz-adv-x="589" 
d="M535 0h-486v2q24 47 32 82.5t8 96.5v370q0 62 -8 97t-32 82v2h195v-2q-25 -46 -32.5 -81t-7.5 -98v-537l151 6q100 5 216 181l8 -3zM58 792l195 167l52 -86l-241 -91z" />
    <glyph glyph-name="lacute" unicode="&#x13a;" horiz-adv-x="238" 
d="M47 0v2q22 47 22 137v455q0 80 -45 129v2l145 53v-638q0 -94 23 -138v-2h-145zM32 792l195 167l52 -86l-241 -91z" />
    <glyph glyph-name="uni013B" unicode="&#x13b;" horiz-adv-x="589" 
d="M535 0h-486v2q24 47 32 82.5t8 96.5v370q0 62 -8 97t-32 82v2h195v-2q-25 -46 -32.5 -81t-7.5 -98v-537l151 6q100 5 216 181l8 -3zM253 -244l-3 5q56 38 56 85q0 21 -42 65v1l75 50q42 -28 42 -70q0 -38 -40 -76t-88 -60z" />
    <glyph glyph-name="uni013C" unicode="&#x13c;" horiz-adv-x="238" 
d="M47 0v2q22 47 22 137v455q0 80 -45 129v2l145 53v-638q0 -94 23 -138v-2h-145zM47 -244l-3 5q56 38 56 85q0 21 -42 65v1l75 50q42 -28 42 -70q0 -38 -40 -76t-88 -60z" />
    <glyph glyph-name="Lcaron" unicode="&#x13d;" horiz-adv-x="589" 
d="M535 0h-486v2q24 47 32 82.5t8 96.5v370q0 62 -8 97t-32 82v2h195v-2q-25 -46 -32.5 -81t-7.5 -98v-537l151 6q100 5 216 181l8 -3zM287 531l23 201h90l-103 -203z" />
    <glyph glyph-name="lcaron" unicode="&#x13e;" horiz-adv-x="238" 
d="M47 0v2q22 47 22 137v455q0 80 -45 129v2l145 53v-638q0 -94 23 -138v-2h-145zM213 574l23 201h90l-103 -203z" />
    <glyph glyph-name="Ldot" unicode="&#x13f;" horiz-adv-x="589" 
d="M535 0h-486v2q24 47 32 82.5t8 96.5v370q0 62 -8 97t-32 82v2h195v-2q-25 -46 -32.5 -81t-7.5 -98v-537l151 6q100 5 216 181l8 -3zM478 305q-28 0 -47.5 20t-19.5 47q0 28 19.5 48t47.5 20q27 0 47 -20t20 -48q0 -27 -20 -47t-47 -20z" />
    <glyph glyph-name="ldot" unicode="&#x140;" horiz-adv-x="329" 
d="M47 0v2q22 47 22 137v455q0 80 -45 129v2l145 53v-638q0 -94 23 -138v-2h-145zM284 305q-28 0 -47.5 20t-19.5 47q0 28 19.5 48t47.5 20q27 0 47 -20t20 -48q0 -27 -20 -47t-47 -20z" />
    <glyph glyph-name="Lslash" unicode="&#x141;" horiz-adv-x="594" 
d="M23 219v26l71 35v271q0 62 -8 97t-32 82v2h195v-2q-25 -46 -32.5 -81t-7.5 -98v-215l244 121v-26l-244 -121v-296l151 6q100 5 216 181l8 -3l-44 -198h-486v2q24 47 32 82.5t8 96.5v73z" />
    <glyph glyph-name="lslash" unicode="&#x142;" horiz-adv-x="258" 
d="M9 259v28l70 55v252q0 80 -45 129v2l145 53v-357l70 56v-28l-70 -56v-253q0 -94 23 -138v-2h-145v2q22 47 22 137v175z" />
    <glyph glyph-name="Nacute" unicode="&#x143;" horiz-adv-x="694" 
d="M573 -3l-464 630l4 -428q0 -67 13.5 -105.5t55.5 -91.5v-2h-154v2q37 52 49 90.5t12 106.5v392q-3 48 -19.5 77t-58.5 62v2h160l419 -569l-3 370q-1 67 -13 105.5t-48 91.5v2h144v-2q-37 -53 -49 -92t-12 -105v-533zM277 792l195 167l52 -86l-241 -91z" />
    <glyph glyph-name="nacute" unicode="&#x144;" horiz-adv-x="545" 
d="M196 2v-2h-145v2q23 67 23 192v118q0 79 -45 130v2l141 53v-96l4 -1q76 92 161 92q67 0 104 -38.5t37 -106.5v-152q0 -75 4 -114.5t19 -78.5v-2h-145v2q22 67 22 192v130q0 47 -22.5 77t-69.5 30q-63 0 -110 -50v-186q0 -133 22 -193zM206 550l133 199l73 -71l-198 -136z
" />
    <glyph glyph-name="uni0145" unicode="&#x145;" horiz-adv-x="694" 
d="M573 -3l-464 630l4 -428q0 -67 13.5 -105.5t55.5 -91.5v-2h-154v2q37 52 49 90.5t12 106.5v392q-3 48 -19.5 77t-58.5 62v2h160l419 -569l-3 370q-1 67 -13 105.5t-48 91.5v2h144v-2q-37 -53 -49 -92t-12 -105v-533zM292 -244l-3 5q56 38 56 85q0 21 -42 65v1l75 50
q42 -28 42 -70q0 -38 -40 -76t-88 -60z" />
    <glyph glyph-name="uni0146" unicode="&#x146;" horiz-adv-x="545" 
d="M196 2v-2h-145v2q23 67 23 192v118q0 79 -45 130v2l141 53v-96l4 -1q76 92 161 92q67 0 104 -38.5t37 -106.5v-152q0 -75 4 -114.5t19 -78.5v-2h-145v2q22 67 22 192v130q0 47 -22.5 77t-69.5 30q-63 0 -110 -50v-186q0 -133 22 -193zM210 -244l-3 5q56 38 56 85
q0 21 -42 65v1l75 50q42 -28 42 -70q0 -38 -40 -76t-88 -60z" />
    <glyph glyph-name="Ncaron" unicode="&#x147;" horiz-adv-x="694" 
d="M573 -3l-464 630l4 -428q0 -67 13.5 -105.5t55.5 -91.5v-2h-154v2q37 52 49 90.5t12 106.5v392q-3 48 -19.5 77t-58.5 62v2h160l419 -569l-3 370q-1 67 -13 105.5t-48 91.5v2h144v-2q-37 -53 -49 -92t-12 -105v-533zM368 782h-6l-153 153l9 10l147 -76l147 76l9 -10z" />
    <glyph glyph-name="ncaron" unicode="&#x148;" horiz-adv-x="545" 
d="M196 2v-2h-145v2q23 67 23 192v118q0 79 -45 130v2l141 53v-96l4 -1q76 92 161 92q67 0 104 -38.5t37 -106.5v-152q0 -75 4 -114.5t19 -78.5v-2h-145v2q22 67 22 192v130q0 47 -22.5 77t-69.5 30q-63 0 -110 -50v-186q0 -133 22 -193zM270 540l-137 169l9 10l131 -87
l131 87l9 -10l-137 -169h-6z" />
    <glyph glyph-name="napostrophe" unicode="&#x149;" horiz-adv-x="545" 
d="M196 2v-2h-145v2q23 67 23 192v118q0 79 -45 130v2l141 53v-96l4 -1q76 92 161 92q67 0 104 -38.5t37 -106.5v-152q0 -75 4 -114.5t19 -78.5v-2h-145v2q22 67 22 192v130q0 47 -22.5 77t-69.5 30q-63 0 -110 -50v-186q0 -133 22 -193zM-40 505l-5 6q52 49 52 102
q0 27 -45 77v2l79 63q45 -31 45 -82q0 -47 -38.5 -93t-87.5 -75z" />
    <glyph glyph-name="Eng" unicode="&#x14a;" horiz-adv-x="690" 
d="M472 -225q-71 0 -140 22l-23 165l8 3q37 -51 55.5 -75t42.5 -50t43 -35.5t40 -9.5q36 0 62.5 30t26.5 98v74h-16l-464 630l4 -428q0 -67 13.5 -105.5t55.5 -91.5v-2h-154v2q37 52 49 90.5t12 106.5v392q-3 48 -19.5 77t-58.5 62v2h160l417 -567l-1 368q0 66 -12 105
t-49 92v2h144v-2q-37 -53 -49 -92t-12 -105v-605q0 -76 -31.5 -114.5t-103.5 -38.5z" />
    <glyph glyph-name="eng" unicode="&#x14b;" horiz-adv-x="547" 
d="M313 -215l-2 6q65 40 65 141v392q0 47 -22.5 77t-69.5 30q-63 0 -110 -50v-186q0 -133 22 -193v-2h-145v2q23 67 23 192v118q0 79 -45 130v2l141 53v-96l4 -1q76 92 161 92q68 0 105 -39t36 -106l-2 -345q-1 -98 -46 -153t-115 -64z" />
    <glyph glyph-name="Omacron" unicode="&#x14c;" horiz-adv-x="814" 
d="M406 -15q-145 0 -260.5 112.5t-115.5 267.5t115.5 268.5t260.5 113.5q94 0 181 -50.5t142 -139.5t55 -192t-55 -191.5t-142 -138.5t-181 -50zM406 5q125 0 188 98.5t63 261.5t-63.5 262.5t-187.5 99.5t-186.5 -99.5t-62.5 -262.5t62.5 -261.5t186.5 -98.5zM251 833v50
h313v-50h-313z" />
    <glyph glyph-name="omacron" unicode="&#x14d;" horiz-adv-x="563" 
d="M281 -15q-105 0 -181 75.5t-75 177.5q1 101 77 177.5t179 76.5q104 0 180.5 -76.5t76.5 -177.5q0 -102 -76 -177.5t-181 -75.5zM281 5q73 0 110 67t37 166q0 98 -37.5 166t-109.5 68t-109 -68t-37 -166q0 -99 36.5 -166t109.5 -67zM140 595v50h283v-50h-283z" />
    <glyph glyph-name="Obreve" unicode="&#x14e;" horiz-adv-x="814" 
d="M406 -15q-145 0 -260.5 112.5t-115.5 267.5t115.5 268.5t260.5 113.5q94 0 181 -50.5t142 -139.5t55 -192t-55 -191.5t-142 -138.5t-181 -50zM406 5q125 0 188 98.5t63 261.5t-63.5 262.5t-187.5 99.5t-186.5 -99.5t-62.5 -262.5t62.5 -261.5t186.5 -98.5zM407 859
q100 0 126 85h10q0 -54 -33 -102t-103 -48q-48 0 -80.5 26.5t-43.5 58.5t-11 65h10q26 -85 125 -85z" />
    <glyph glyph-name="obreve" unicode="&#x14f;" horiz-adv-x="563" 
d="M281 -15q-105 0 -181 75.5t-75 177.5q1 101 77 177.5t179 76.5q104 0 180.5 -76.5t76.5 -177.5q0 -102 -76 -177.5t-181 -75.5zM281 5q73 0 110 67t37 166q0 98 -37.5 166t-109.5 68t-109 -68t-37 -166q0 -99 36.5 -166t109.5 -67zM281 632q84 0 104 72h10
q-1 -50 -28.5 -91.5t-87.5 -41.5q-42 0 -68.5 24t-34.5 51t-9 58h10q20 -72 104 -72z" />
    <glyph glyph-name="Ohungarumlaut" unicode="&#x150;" horiz-adv-x="814" 
d="M406 -15q-145 0 -260.5 112.5t-115.5 267.5t115.5 268.5t260.5 113.5q94 0 181 -50.5t142 -139.5t55 -192t-55 -191.5t-142 -138.5t-181 -50zM406 5q125 0 188 98.5t63 261.5t-63.5 262.5t-187.5 99.5t-186.5 -99.5t-62.5 -262.5t62.5 -261.5t186.5 -98.5zM453 792
l131 157l58 -77l-180 -90zM263 792l131 157l58 -77l-180 -90z" />
    <glyph glyph-name="ohungarumlaut" unicode="&#x151;" horiz-adv-x="563" 
d="M281 -15q-105 0 -181 75.5t-75 177.5q1 101 77 177.5t179 76.5q104 0 180.5 -76.5t76.5 -177.5q0 -102 -76 -177.5t-181 -75.5zM281 5q73 0 110 67t37 166q0 98 -37.5 166t-109.5 68t-109 -68t-37 -166q0 -99 36.5 -166t109.5 -67zM322 552l119 177l59 -64l-169 -123z
M162 552l119 177l59 -64l-169 -123z" />
    <glyph glyph-name="OE" unicode="&#x152;" horiz-adv-x="1061" 
d="M418 20l79 -2q32 79 32 151v394q0 73 -33 153h-77q-127 0 -194.5 -89.5t-67.5 -271.5q0 -164 63.5 -247.5t197.5 -87.5zM1046 198l-44 -198h-592q-177 0 -278.5 96.5t-101.5 272.5q0 172 103 267.5t277 95.5h542l39 -178l-8 -3q-12 13 -53 61t-68.5 72.5t-47.5 25.5
l-169 7v-338h86q17 0 36 12.5t30.5 24.5t31.5 36.5t26 31.5h9v-226h-9q-7 7 -26 29.5t-31 35t-31 24.5t-36 12h-86v-344l178 7q55 3 106 51.5t109 127.5z" />
    <glyph glyph-name="oe" unicode="&#x153;" horiz-adv-x="876" 
d="M658 474q-49 0 -82.5 -44t-41.5 -117l209 5v11q0 145 -85 145zM281 3q74 0 113 67t39 163t-39 163.5t-113 67.5q-73 0 -112 -67.5t-39 -163.5q0 -97 38.5 -163.5t112.5 -66.5zM851 112q-20 -59 -69 -93t-123 -34q-126 0 -184 96q-35 -45 -86 -70.5t-108 -25.5
q-105 0 -181 74t-75 174t76.5 174.5t179.5 74.5q58 0 109.5 -27.5t86.5 -73.5q31 53 79.5 82t102.5 29q85 0 138 -62t48 -133h-313q-1 -10 -1 -30q0 -94 48 -145.5t130 -51.5q90 0 136 46z" />
    <glyph glyph-name="Racute" unicode="&#x154;" horiz-adv-x="646" 
d="M282 712q-39 0 -78 -1v-338h78q158 0 158 185q0 74 -36 114t-122 40zM49 0v2q24 47 32 82.5t8 96.5v370q0 62 -8 97t-32 82v2h255q253 0 253 -175q0 -65 -36 -113.5t-109 -71.5l119 -233q32 -62 54 -87t62 -45v-7h-176l-180 353h-87v-172q0 -63 7.5 -98t32.5 -81v-2h-195
zM218 792l195 167l52 -86l-241 -91z" />
    <glyph glyph-name="racute" unicode="&#x155;" horiz-adv-x="356" 
d="M196 0h-145v2q23 67 23 192v118q0 79 -45 130v2l141 53v-122h4q2 2 13.5 16t15.5 18t15.5 17t17.5 18t17 15t19 14l19 9.5t21 7.5t21 2l-2 -122h-4q-14 11 -43 20.5t-46 9.5q-31 0 -64 -45v-160q0 -133 22 -193v-2zM135 550l133 199l73 -71l-198 -136z" />
    <glyph glyph-name="uni0156" unicode="&#x156;" horiz-adv-x="646" 
d="M282 712q-39 0 -78 -1v-338h78q158 0 158 185q0 74 -36 114t-122 40zM49 0v2q24 47 32 82.5t8 96.5v370q0 62 -8 97t-32 82v2h255q253 0 253 -175q0 -65 -36 -113.5t-109 -71.5l119 -233q32 -62 54 -87t62 -45v-7h-176l-180 353h-87v-172q0 -63 7.5 -98t32.5 -81v-2h-195
zM273 -244l-3 5q56 38 56 85q0 21 -42 65v1l75 50q42 -28 42 -70q0 -38 -40 -76t-88 -60z" />
    <glyph glyph-name="uni0157" unicode="&#x157;" horiz-adv-x="356" 
d="M196 0h-145v2q23 67 23 192v118q0 79 -45 130v2l141 53v-122h4q2 2 13.5 16t15.5 18t15.5 17t17.5 18t17 15t19 14l19 9.5t21 7.5t21 2l-2 -122h-4q-14 11 -43 20.5t-46 9.5q-31 0 -64 -45v-160q0 -133 22 -193v-2zM47 -243l-3 5q56 38 56 85q0 21 -42 65v1l75 50
q42 -28 42 -70q0 -38 -40 -76t-88 -60z" />
    <glyph glyph-name="Rcaron" unicode="&#x158;" horiz-adv-x="646" 
d="M282 712q-39 0 -78 -1v-338h78q158 0 158 185q0 74 -36 114t-122 40zM49 0v2q24 47 32 82.5t8 96.5v370q0 62 -8 97t-32 82v2h255q253 0 253 -175q0 -65 -36 -113.5t-109 -71.5l119 -233q32 -62 54 -87t62 -45v-7h-176l-180 353h-87v-172q0 -63 7.5 -98t32.5 -81v-2h-195
zM309 782h-6l-153 153l9 10l147 -76l147 76l9 -10z" />
    <glyph glyph-name="rcaron" unicode="&#x159;" horiz-adv-x="356" 
d="M196 0h-145v2q23 67 23 192v118q0 79 -45 130v2l141 53v-122h4q2 2 13.5 16t15.5 18t15.5 17t17.5 18t17 15t19 14l19 9.5t21 7.5t21 2l-2 -122h-4q-14 11 -43 20.5t-46 9.5q-31 0 -64 -45v-160q0 -133 22 -193v-2zM209 540l-137 169l9 10l131 -87l131 87l9 -10
l-137 -169h-6z" />
    <glyph glyph-name="Sacute" unicode="&#x15a;" horiz-adv-x="553" 
d="M454 718l20 -181l-9 -3q-89 193 -207 193q-51 0 -80 -30.5t-29 -81.5q0 -23 5.5 -42.5t20.5 -36.5t26 -28.5t37.5 -26.5t38.5 -21.5t45 -22.5q38 -19 59.5 -30.5t52.5 -34t47.5 -45t29 -56t12.5 -73.5q0 -107 -73.5 -160t-188.5 -53q-103 0 -206 39l-20 185l8 3
q58 -107 117.5 -157t128.5 -50q65 0 100 39.5t35 97.5q0 65 -40.5 106t-114.5 77q-31 15 -45 22t-41 23t-40.5 27t-32.5 29.5t-27.5 36t-15.5 42t-7 51.5q0 97 66 144t165 47q83 0 163 -29zM191 792l195 167l52 -86l-241 -91z" />
    <glyph glyph-name="sacute" unicode="&#x15b;" horiz-adv-x="399" 
d="M336 472l10 -109l-6 -2q-66 113 -155 113q-38 0 -60 -21t-22 -53q0 -19 8 -34t28.5 -28.5t33.5 -20t45 -19.5q9 -4 14 -6q32 -14 52.5 -25.5t43.5 -30.5t34.5 -46t11.5 -61q0 -71 -52 -107.5t-135 -36.5q-74 0 -147 26l-10 128l6 2q71 -138 164 -138q46 0 69 25.5
t23 60.5q0 36 -25 58.5t-81 46.5q-29 13 -42 19t-38 21.5t-36.5 30t-21.5 38.5t-10 53q0 71 50 103.5t124 32.5q70 0 124 -20zM131 550l133 199l73 -71l-198 -136z" />
    <glyph glyph-name="Scircumflex" unicode="&#x15c;" horiz-adv-x="553" 
d="M454 718l20 -181l-9 -3q-89 193 -207 193q-51 0 -80 -30.5t-29 -81.5q0 -23 5.5 -42.5t20.5 -36.5t26 -28.5t37.5 -26.5t38.5 -21.5t45 -22.5q38 -19 59.5 -30.5t52.5 -34t47.5 -45t29 -56t12.5 -73.5q0 -107 -73.5 -160t-188.5 -53q-103 0 -206 39l-20 185l8 3
q58 -107 117.5 -157t128.5 -50q65 0 100 39.5t35 97.5q0 65 -40.5 106t-114.5 77q-31 15 -45 22t-41 23t-40.5 27t-32.5 29.5t-27.5 36t-15.5 42t-7 51.5q0 97 66 144t165 47q83 0 163 -29zM426 782l-147 76l-147 -76l-9 10l153 153h6l153 -153z" />
    <glyph glyph-name="scircumflex" unicode="&#x15d;" horiz-adv-x="399" 
d="M336 472l10 -109l-6 -2q-66 113 -155 113q-38 0 -60 -21t-22 -53q0 -19 8 -34t28.5 -28.5t33.5 -20t45 -19.5q9 -4 14 -6q32 -14 52.5 -25.5t43.5 -30.5t34.5 -46t11.5 -61q0 -71 -52 -107.5t-135 -36.5q-74 0 -147 26l-10 128l6 2q71 -138 164 -138q46 0 69 25.5
t23 60.5q0 36 -25 58.5t-81 46.5q-29 13 -42 19t-38 21.5t-36.5 30t-21.5 38.5t-10 53q0 71 50 103.5t124 32.5q70 0 124 -20zM329 540l-131 87l-131 -87l-9 10l137 169h6l137 -169z" />
    <glyph glyph-name="uni015E" unicode="&#x15e;" horiz-adv-x="553" 
d="M197 -255l-3 9q82 33 82 83q0 42 -75 49l-2 2l59 97q-102 2 -203 39l-20 185l8 3q58 -107 117.5 -157t128.5 -50q65 0 100 39.5t35 97.5q0 65 -40.5 106t-114.5 77q-31 15 -45 22t-41 23t-40.5 27t-32.5 29.5t-27.5 36t-15.5 42t-7 51.5q0 97 66 144t165 47q83 0 163 -29
l20 -181l-9 -3q-89 193 -207 193q-51 0 -80 -30.5t-29 -81.5q0 -23 5.5 -42.5t20.5 -36.5t26 -28.5t37.5 -26.5t38.5 -21.5t45 -22.5q38 -19 59.5 -30.5t52.5 -34t47.5 -45t29 -56t12.5 -73.5q0 -100 -66 -153t-171 -59l-29 -46q88 -19 88 -83q0 -81 -148 -112z" />
    <glyph glyph-name="uni015F" unicode="&#x15f;" horiz-adv-x="399" 
d="M114 -255l-3 9q82 33 82 83q0 42 -75 49l-2 2l59 97q-71 3 -135 26l-10 128l6 2q71 -138 164 -138q46 0 69 25.5t23 60.5q0 36 -25 58.5t-81 46.5q-29 13 -42 19t-38 21.5t-36.5 30t-21.5 38.5t-10 53q0 71 50 103.5t124 32.5q70 0 124 -20l10 -109l-6 -2
q-66 113 -155 113q-38 0 -60 -21t-22 -53q0 -19 8 -34t28.5 -28.5t33.5 -20t45 -19.5q9 -4 14 -6q32 -14 52.5 -25.5t43.5 -30.5t34.5 -46t11.5 -61q0 -67 -47.5 -103.5t-123.5 -39.5l-29 -46q88 -19 88 -83q0 -81 -148 -112z" />
    <glyph glyph-name="Scaron" unicode="&#x160;" horiz-adv-x="553" 
d="M454 718l20 -181l-9 -3q-89 193 -207 193q-51 0 -80 -30.5t-29 -81.5q0 -23 5.5 -42.5t20.5 -36.5t26 -28.5t37.5 -26.5t38.5 -21.5t45 -22.5q38 -19 59.5 -30.5t52.5 -34t47.5 -45t29 -56t12.5 -73.5q0 -107 -73.5 -160t-188.5 -53q-103 0 -206 39l-20 185l8 3
q58 -107 117.5 -157t128.5 -50q65 0 100 39.5t35 97.5q0 65 -40.5 106t-114.5 77q-31 15 -45 22t-41 23t-40.5 27t-32.5 29.5t-27.5 36t-15.5 42t-7 51.5q0 97 66 144t165 47q83 0 163 -29zM282 782h-6l-153 153l9 10l147 -76l147 76l9 -10z" />
    <glyph glyph-name="scaron" unicode="&#x161;" horiz-adv-x="399" 
d="M336 472l10 -109l-6 -2q-66 113 -155 113q-38 0 -60 -21t-22 -53q0 -19 8 -34t28.5 -28.5t33.5 -20t45 -19.5q9 -4 14 -6q32 -14 52.5 -25.5t43.5 -30.5t34.5 -46t11.5 -61q0 -71 -52 -107.5t-135 -36.5q-74 0 -147 26l-10 128l6 2q71 -138 164 -138q46 0 69 25.5
t23 60.5q0 36 -25 58.5t-81 46.5q-29 13 -42 19t-38 21.5t-36.5 30t-21.5 38.5t-10 53q0 71 50 103.5t124 32.5q70 0 124 -20zM195 540l-137 169l9 10l131 -87l131 87l9 -10l-137 -169h-6z" />
    <glyph glyph-name="Tcommaaccent" unicode="&#x162;" horiz-adv-x="715" 
d="M455 2v-2h-195v2q24 47 32 82.5t8 96.5v534l-109 -4q-13 -1 -28 -11.5t-37 -36.5t-33.5 -41t-38.5 -54t-32 -45l-8 3l38 206h611l38 -206l-8 -3q-5 6 -32 45t-38.5 54t-33.5 41t-37 36.5t-28 11.5l-109 4v-534q0 -63 7.5 -98t32.5 -81zM284 -244l-3 5q56 38 56 85
q0 21 -42 65v1l75 50q42 -28 42 -70q0 -38 -40 -76t-88 -60z" />
    <glyph glyph-name="tcommaaccent" unicode="&#x163;" horiz-adv-x="326" 
d="M184 -15q-112 0 -112 121v353h-54v6l145 125h10v-113h129v-18h-129v-350q0 -74 70 -74q38 0 66 17l3 -4q-45 -63 -128 -63zM97 -244l-3 5q56 38 56 85q0 21 -42 65v1l75 50q42 -28 42 -70q0 -38 -40 -76t-88 -60z" />
    <glyph glyph-name="Tcaron" unicode="&#x164;" horiz-adv-x="715" 
d="M455 2v-2h-195v2q24 47 32 82.5t8 96.5v534l-109 -4q-13 -1 -28 -11.5t-37 -36.5t-33.5 -41t-38.5 -54t-32 -45l-8 3l38 206h611l38 -206l-8 -3q-5 6 -32 45t-38.5 54t-33.5 41t-37 36.5t-28 11.5l-109 4v-534q0 -63 7.5 -98t32.5 -81zM360 782h-6l-153 153l9 10l147 -76
l147 76l9 -10z" />
    <glyph glyph-name="tcaron" unicode="&#x165;" horiz-adv-x="326" 
d="M184 -15q-112 0 -112 121v353h-54v6l145 125h10v-113h129v-18h-129v-350q0 -74 70 -74q38 0 66 17l3 -4q-45 -63 -128 -63zM247 574l23 201h90l-103 -203z" />
    <glyph glyph-name="Tbar" unicode="&#x166;" horiz-adv-x="715" 
d="M130 357v20h170v338l-109 -4q-13 -1 -28 -11.5t-37 -36.5t-33.5 -41t-38.5 -54t-32 -45l-8 3l38 206h611l38 -206l-8 -3q-5 6 -32 45t-38.5 54t-33.5 41t-37 36.5t-28 11.5l-109 4v-338h170v-20h-170v-176q0 -63 7.5 -98t32.5 -81v-2h-195v2q24 47 32 82.5t8 96.5v176
h-170z" />
    <glyph glyph-name="tbar" unicode="&#x167;" horiz-adv-x="326" 
d="M184 -15q-112 0 -112 121v202h-54v18h54v133h-54v6l145 125h10v-113h129v-18h-129v-133h130v-18h-130v-199q0 -74 70 -74q38 0 66 17l3 -4q-45 -63 -128 -63z" />
    <glyph glyph-name="Utilde" unicode="&#x168;" horiz-adv-x="696" 
d="M358 -15q-120 0 -196.5 62.5t-76.5 190.5v313q0 63 -7.5 98t-32.5 81v2h195v-2q-40 -76 -40 -179v-310q0 -231 186 -231q104 0 153 67.5t49 172.5v283q0 68 -14 106.5t-58 90.5v2h162l5 -2q-44 -53 -58 -91.5t-14 -105.5v-282q0 -56 -13 -102t-41.5 -84t-79 -59
t-119.5 -21zM308 905q30 0 85 -20t87 -20q26 0 41 11.5t25 42.5l10 -2q-1 -26 -4.5 -43.5t-12 -39t-27.5 -32.5t-48 -11q-30 0 -85 20t-87 20q-26 0 -41 -11.5t-25 -42.5l-10 2q1 26 4.5 43.5t12 39t27.5 32.5t48 11z" />
    <glyph glyph-name="utilde" unicode="&#x169;" horiz-adv-x="524" 
d="M349 -12v124q-66 -127 -161 -127q-63 0 -96 45.5t-33 124.5v213q0 70 -42 107v2h142v-306q0 -106 88 -106q64 0 97 63v240q0 72 -44 107v2h144v-307q0 -75 9.5 -102t35.5 -46v-2zM188 680q21 0 71 -15.5t75 -15.5q45 0 59 43l10 -1q-1 -18 -5 -35t-13 -37t-26 -32
t-40 -12q-21 0 -72 16t-76 16q-45 0 -57 -43l-11 1q2 26 8 48.5t26 44.5t51 22z" />
    <glyph glyph-name="Umacron" unicode="&#x16a;" horiz-adv-x="696" 
d="M358 -15q-120 0 -196.5 62.5t-76.5 190.5v313q0 63 -7.5 98t-32.5 81v2h195v-2q-40 -76 -40 -179v-310q0 -231 186 -231q104 0 153 67.5t49 172.5v283q0 68 -14 106.5t-58 90.5v2h162l5 -2q-44 -53 -58 -91.5t-14 -105.5v-282q0 -56 -13 -102t-41.5 -84t-79 -59
t-119.5 -21zM230 833v50h313v-50h-313z" />
    <glyph glyph-name="umacron" unicode="&#x16b;" horiz-adv-x="524" 
d="M349 -12v124q-66 -127 -161 -127q-63 0 -96 45.5t-33 124.5v213q0 70 -42 107v2h142v-306q0 -106 88 -106q64 0 97 63v240q0 72 -44 107v2h144v-307q0 -75 9.5 -102t35.5 -46v-2zM112 595v50h283v-50h-283z" />
    <glyph glyph-name="Ubreve" unicode="&#x16c;" horiz-adv-x="696" 
d="M358 -15q-120 0 -196.5 62.5t-76.5 190.5v313q0 63 -7.5 98t-32.5 81v2h195v-2q-40 -76 -40 -179v-310q0 -231 186 -231q104 0 153 67.5t49 172.5v283q0 68 -14 106.5t-58 90.5v2h162l5 -2q-44 -53 -58 -91.5t-14 -105.5v-282q0 -56 -13 -102t-41.5 -84t-79 -59
t-119.5 -21zM396 859q100 0 126 85h10q0 -54 -33 -102t-103 -48q-48 0 -80.5 26.5t-43.5 58.5t-11 65h10q26 -85 125 -85z" />
    <glyph glyph-name="ubreve" unicode="&#x16d;" horiz-adv-x="524" 
d="M349 -12v124q-66 -127 -161 -127q-63 0 -96 45.5t-33 124.5v213q0 70 -42 107v2h142v-306q0 -106 88 -106q64 0 97 63v240q0 72 -44 107v2h144v-307q0 -75 9.5 -102t35.5 -46v-2zM253 632q84 0 104 72h10q-1 -50 -28.5 -91.5t-87.5 -41.5q-42 0 -68.5 24t-34.5 51t-9 58
h10q20 -72 104 -72z" />
    <glyph glyph-name="Uring" unicode="&#x16e;" horiz-adv-x="696" 
d="M358 -15q-120 0 -196.5 62.5t-76.5 190.5v313q0 63 -7.5 98t-32.5 81v2h195v-2q-40 -76 -40 -179v-310q0 -231 186 -231q104 0 153 67.5t49 172.5v283q0 68 -14 106.5t-58 90.5v2h162l5 -2q-44 -53 -58 -91.5t-14 -105.5v-282q0 -56 -13 -102t-41.5 -84t-79 -59
t-119.5 -21zM296 857q0 37 26 61.5t64 24.5q39 0 64.5 -24t25.5 -62q0 -37 -26 -61t-64 -24t-64 24t-26 61zM335 857q0 -31 13.5 -48.5t37.5 -17.5t37.5 17.5t13.5 48.5t-13.5 49.5t-37.5 18.5t-37.5 -18.5t-13.5 -49.5z" />
    <glyph glyph-name="uring" unicode="&#x16f;" horiz-adv-x="524" 
d="M349 -12v124q-66 -127 -161 -127q-63 0 -96 45.5t-33 124.5v213q0 70 -42 107v2h142v-306q0 -106 88 -106q64 0 97 63v240q0 72 -44 107v2h144v-307q0 -75 9.5 -102t35.5 -46v-2zM163 653q0 37 26 61.5t64 24.5q39 0 64.5 -24t25.5 -62q0 -37 -26 -61t-64 -24t-64 24
t-26 61zM202 653q0 -31 13.5 -48.5t37.5 -17.5t37.5 17.5t13.5 48.5t-13.5 49.5t-37.5 18.5t-37.5 -18.5t-13.5 -49.5z" />
    <glyph glyph-name="Uhungarumlaut" unicode="&#x170;" horiz-adv-x="696" 
d="M358 -15q-120 0 -196.5 62.5t-76.5 190.5v313q0 63 -7.5 98t-32.5 81v2h195v-2q-40 -76 -40 -179v-310q0 -231 186 -231q104 0 153 67.5t49 172.5v283q0 68 -14 106.5t-58 90.5v2h162l5 -2q-44 -53 -58 -91.5t-14 -105.5v-282q0 -56 -13 -102t-41.5 -84t-79 -59
t-119.5 -21zM432 792l131 157l58 -77l-180 -90zM242 792l131 157l58 -77l-180 -90z" />
    <glyph glyph-name="uhungarumlaut" unicode="&#x171;" horiz-adv-x="524" 
d="M349 -12v124q-66 -127 -161 -127q-63 0 -96 45.5t-33 124.5v213q0 70 -42 107v2h142v-306q0 -106 88 -106q64 0 97 63v240q0 72 -44 107v2h144v-307q0 -75 9.5 -102t35.5 -46v-2zM294 552l119 177l59 -64l-169 -123zM134 552l119 177l59 -64l-169 -123z" />
    <glyph glyph-name="Uogonek" unicode="&#x172;" horiz-adv-x="696" 
d="M374 -248q-41 0 -66.5 23.5t-25.5 60.5q0 78 127 152q-23 -3 -51 -3q-120 0 -196.5 62.5t-76.5 190.5v313q0 63 -7.5 98t-32.5 81v2h195v-2q-40 -76 -40 -179v-310q0 -231 186 -231q104 0 153 67.5t49 172.5v283q0 68 -14 106.5t-58 90.5v2h162l5 -2q-44 -53 -58 -91.5
t-14 -105.5v-282q0 -184 -133 -245q-49 -23 -74 -44q-43 -38 -43 -88q0 -59 55 -59q44 0 82 45l9 -7q-54 -101 -133 -101z" />
    <glyph glyph-name="uogonek" unicode="&#x173;" horiz-adv-x="524" 
d="M310 -248q-41 0 -66.5 23t-25.5 61q0 44 33 82t98 82v112q-66 -127 -161 -127q-63 0 -96 45.5t-33 124.5v213q0 70 -42 107v2h142v-306q0 -106 88 -106q64 0 97 63v240q0 72 -44 107v2h144v-307q0 -75 9.5 -102t35.5 -46v-2q-76 -15 -101 -26q-37 -16 -64 -49t-27 -72
q0 -27 14.5 -42.5t42.5 -15.5q42 0 80 45l9 -7q-54 -101 -133 -101z" />
    <glyph glyph-name="Wcircumflex" unicode="&#x174;" horiz-adv-x="995" 
d="M296 -8h-20l-188 577q-35 110 -85 161v2h209v-2q-15 -25 -17 -66.5t15 -99.5l129 -405l155 389l-8 21q-24 67 -41.5 100.5t-43.5 60.5v2h209v-2q-15 -24 -17 -65.5t15 -100.5l140 -397l114 348q46 140 -2 215v2h132v-2q-59 -62 -98 -182l-181 -556h-20l-189 527zM664 782
l-147 76l-147 -76l-9 10l153 153h6l153 -153z" />
    <glyph glyph-name="wcircumflex" unicode="&#x175;" horiz-adv-x="668" 
d="M191 -10l-126 369q-28 83 -60 116v2h171v-2q-23 -44 -2 -109l71 -217l74 204l-2 6q-27 78 -63 116v2h170v-2q-23 -43 0 -109l72 -217l69 189q29 78 -6 137v2h104v-2q-47 -51 -73 -123l-130 -362h-16l-116 337l-121 -337h-16zM479 540l-131 87l-131 -87l-9 10l137 169h6
l137 -169z" />
    <glyph glyph-name="Ycircumflex" unicode="&#x176;" horiz-adv-x="601" 
d="M202 0v2q24 39 32 68.5t8 80.5v182l-145 259q-56 99 -110 138v2h227v-2q-20 -17 -18 -52.5t23 -73.5l131 -241l99 173q66 116 16 194v2h149v-2q-39 -37 -64 -71t-64 -101l-129 -224v-183q0 -52 7.5 -81t32.5 -68v-2h-195zM492 782l-147 76l-147 -76l-9 10l153 153h6
l153 -153z" />
    <glyph glyph-name="ycircumflex" unicode="&#x177;" horiz-adv-x="449" 
d="M41 -225l-2 96q18 -1 36.5 2t45.5 12t50 32.5t36 58.5l1 4l-142 378q-30 82 -61 117v2h168v-2q-27 -46 4 -128l84 -225l85 227q12 44 6.5 75t-21.5 51v2h113v-2q-47 -51 -74 -123l-155 -401q-37 -96 -77.5 -132.5t-96.5 -43.5zM380 540l-131 87l-131 -87l-9 10l137 169h6
l137 -169z" />
    <glyph glyph-name="Ydieresis" unicode="&#x178;" horiz-adv-x="601" 
d="M202 0v2q24 39 32 68.5t8 80.5v182l-145 259q-56 99 -110 138v2h227v-2q-20 -17 -18 -52.5t23 -73.5l131 -241l99 173q66 116 16 194v2h149v-2q-39 -37 -64 -71t-64 -101l-129 -224v-183q0 -52 7.5 -81t32.5 -68v-2h-195zM525 868q0 -25 -17.5 -42.5t-42.5 -17.5
t-42.5 17.5t-17.5 42.5t17.5 43t42.5 18t42.5 -18t17.5 -43zM285 868q0 -25 -17.5 -42.5t-42.5 -17.5t-42.5 17.5t-17.5 42.5t17.5 43t42.5 18t42.5 -18t17.5 -43z" />
    <glyph glyph-name="Zacute" unicode="&#x179;" horiz-adv-x="623" 
d="M559 0h-539v11l439 705l-130 -4q-53 -2 -97.5 -17.5t-78 -43t-56 -53t-46.5 -61.5l-8 3l47 192h504v-11l-438 -706l160 5q70 2 127.5 32.5t90 67.5t66.5 91l8 -3zM246 792l195 167l52 -86l-241 -91z" />
    <glyph glyph-name="zacute" unicode="&#x17a;" horiz-adv-x="447" 
d="M392 0h-377v7l282 453l-120 -4q-46 -1 -133 -93l-9 -9l-5 2l33 121h353v-8l-280 -452l131 3q41 1 77 30.5t78 81.5l5 -2zM170 550l133 199l73 -71l-198 -136z" />
    <glyph glyph-name="Zdotaccent" unicode="&#x17b;" horiz-adv-x="623" 
d="M559 0h-539v11l439 705l-130 -4q-53 -2 -97.5 -17.5t-78 -43t-56 -53t-46.5 -61.5l-8 3l47 192h504v-11l-438 -706l160 5q70 2 127.5 32.5t90 67.5t66.5 91l8 -3zM394 868q0 -25 -17.5 -42.5t-42.5 -17.5t-42.5 17.5t-17.5 42.5t17.5 43t42.5 18t42.5 -18t17.5 -43z" />
    <glyph glyph-name="zdotaccent" unicode="&#x17c;" horiz-adv-x="447" 
d="M392 0h-377v7l282 453l-120 -4q-46 -1 -133 -93l-9 -9l-5 2l33 121h353v-8l-280 -452l131 3q41 1 77 30.5t78 81.5l5 -2zM297 658q0 -25 -17.5 -42.5t-42.5 -17.5t-42.5 17.5t-17.5 42.5t17.5 43t42.5 18t42.5 -18t17.5 -43z" />
    <glyph glyph-name="Zcaron" unicode="&#x17d;" horiz-adv-x="623" 
d="M559 0h-539v11l439 705l-130 -4q-53 -2 -97.5 -17.5t-78 -43t-56 -53t-46.5 -61.5l-8 3l47 192h504v-11l-438 -706l160 5q70 2 127.5 32.5t90 67.5t66.5 91l8 -3zM337 782h-6l-153 153l9 10l147 -76l147 76l9 -10z" />
    <glyph glyph-name="zcaron" unicode="&#x17e;" horiz-adv-x="447" 
d="M392 0h-377v7l282 453l-120 -4q-46 -1 -133 -93l-9 -9l-5 2l33 121h353v-8l-280 -452l131 3q41 1 77 30.5t78 81.5l5 -2zM234 540l-137 169l9 10l131 -87l131 87l9 -10l-137 -169h-6z" />
    <glyph glyph-name="uni0192" unicode="&#x192;" horiz-adv-x="579" 
d="M45 -190q-50 0 -78 14l-17 131l8 2q30 -59 55 -93t50 -34q27 0 49 58.5t60 232.5l54 246h-82l5 20h81l14 62q33 151 96 224.5t139 73.5q44 0 72 -14l8 -141l-8 -2q-27 64 -49.5 100.5t-44.5 36.5q-25 0 -45.5 -50t-51.5 -186l-24 -104h109l-4 -20h-109l-42 -183
q-86 -374 -245 -374z" />
    <glyph glyph-name="Aringacute" unicode="&#x1fa;" horiz-adv-x="636" 
d="M379 296l-109 289l-110 -289h219zM133 2v-2h-135v2q33 34 51.5 69.5t43.5 102.5l215 566h20l219 -577q42 -111 91 -161v-2h-199v2q14 19 11.5 66t-22.5 100l-41 108h-235l-21 -56q-52 -134 2 -218zM228 867q0 37 26 61.5t64 24.5q39 0 64.5 -24t25.5 -62q0 -37 -26 -61
t-64 -24t-64 24t-26 61zM267 867q0 -31 13.5 -48.5t37.5 -17.5t37.5 17.5t13.5 48.5t-13.5 49.5t-37.5 18.5t-37.5 -18.5t-13.5 -49.5zM230 972l195 167l52 -86l-241 -91z" />
    <glyph glyph-name="aringacute" unicode="&#x1fb;" horiz-adv-x="472" 
d="M195 39q51 0 82 29v152q-155 -35 -155 -117q0 -30 19 -47t54 -17zM362 -12q-35 0 -56 17.5t-27 45.5q-58 -66 -144 -66q-47 0 -77 22t-30 63q0 36 23.5 66t62.5 49.5t79 32t84 19.5v109q0 42 -21 64t-71 22q-78 0 -133 -45l-5 6q32 45 84 72t115 27q70 0 100.5 -33
t30.5 -86v-285q0 -44 39 -44q25 0 49 19l2 -2q-34 -73 -105 -73zM126 653q0 37 26 61.5t64 24.5q39 0 64.5 -24t25.5 -62q0 -37 -26 -61t-64 -24t-64 24t-26 61zM165 653q0 -31 13.5 -48.5t37.5 -17.5t37.5 17.5t13.5 48.5t-13.5 49.5t-37.5 18.5t-37.5 -18.5t-13.5 -49.5z
M128 772l195 167l52 -86l-241 -91z" />
    <glyph glyph-name="AEacute" unicode="&#x1fc;" horiz-adv-x="1010" 
d="M478 563q0 61 -15 103l-212 -370h227v267zM167 2v-2h-140v2q40 34 65 69.5t64 103.5l295 516q-11 20 -32 39v2h482l39 -178l-8 -3q-12 13 -53 61t-68.5 72.5t-47.5 25.5l-169 7v-338h86q17 0 36 12.5t30.5 24.5t31.5 36.5t26 31.5h9v-226h-9q-7 7 -26 29.5t-31 35
t-31 24.5t-36 12h-86v-344l178 7q55 3 106 51.5t109 127.5l8 -3l-44 -198h-512v2q39 91 39 167v107h-239l-43 -76q-65 -113 -29 -198zM531 792l195 167l52 -86l-241 -91z" />
    <glyph glyph-name="aeacute" unicode="&#x1fd;" horiz-adv-x="714" 
d="M500 -15q-130 0 -189 103q-59 -103 -171 -103q-50 0 -81 22t-31 63q0 36 23.5 66t62.5 49.5t79 32t84 19.5v109q0 42 -21 64t-71 22q-78 0 -133 -45l-5 6q32 45 84 72t115 27q87 0 113 -61q63 61 142 61q83 0 135 -62t47 -133h-307q-1 -10 -1 -30q0 -94 48 -145.5
t129 -51.5q88 0 131 46l6 -4q-19 -59 -67.5 -93t-121.5 -34zM500 474q-48 0 -81 -44t-41 -117l203 5v11q0 145 -81 145zM195 39q71 0 109 60q-25 51 -27 121q-155 -35 -155 -117q0 -30 19 -47t54 -17zM305 550l133 199l73 -71l-198 -136z" />
    <glyph glyph-name="Oslashacute" unicode="&#x1fe;" horiz-adv-x="814" 
d="M157 365q0 -167 63 -262l358 545q-63 79 -172 79q-124 0 -186.5 -99.5t-62.5 -262.5zM406 5q125 0 188 98.5t63 261.5q0 166 -64 263l-358 -545q64 -78 171 -78zM406 -15q-104 0 -196 61l-49 -75h-28l58 88q-73 54 -117 134t-44 172q0 155 115.5 268.5t260.5 113.5
q101 0 197 -61l50 76h28l-59 -90q73 -54 117.5 -134.5t44.5 -172.5q0 -103 -55 -191.5t-142 -138.5t-181 -50zM319 792l195 167l52 -86l-241 -91z" />
    <glyph glyph-name="oslashacute" unicode="&#x1ff;" horiz-adv-x="563" 
d="M281 -15q-73 0 -135 38l-62 -90h-27l71 103q-48 36 -76 89t-27 113q1 101 77 177.5t179 76.5q70 0 134 -40l63 92h27l-72 -104q48 -37 76.5 -90t28.5 -112q0 -102 -76 -177.5t-181 -75.5zM281 5q73 0 110 67t37 166q0 88 -30 151l-223 -323q39 -61 106 -61zM135 238
q0 -89 28 -151l223 323q-39 62 -105 62q-72 0 -109 -68t-37 -166zM214 550l133 199l73 -71l-198 -136z" />
    <glyph glyph-name="uni0218" unicode="&#x218;" horiz-adv-x="553" 
d="M454 718l20 -181l-9 -3q-89 193 -207 193q-51 0 -80 -30.5t-29 -81.5q0 -23 5.5 -42.5t20.5 -36.5t26 -28.5t37.5 -26.5t38.5 -21.5t45 -22.5q38 -19 59.5 -30.5t52.5 -34t47.5 -45t29 -56t12.5 -73.5q0 -107 -73.5 -160t-188.5 -53q-103 0 -206 39l-20 185l8 3
q58 -107 117.5 -157t128.5 -50q65 0 100 39.5t35 97.5q0 65 -40.5 106t-114.5 77q-31 15 -45 22t-41 23t-40.5 27t-32.5 29.5t-27.5 36t-15.5 42t-7 51.5q0 97 66 144t165 47q83 0 163 -29zM216 -244l-3 5q56 38 56 85q0 21 -42 65v1l75 50q42 -28 42 -70q0 -38 -40 -76
t-88 -60z" />
    <glyph glyph-name="uni0219" unicode="&#x219;" horiz-adv-x="399" 
d="M336 472l10 -109l-6 -2q-66 113 -155 113q-38 0 -60 -21t-22 -53q0 -19 8 -34t28.5 -28.5t33.5 -20t45 -19.5q9 -4 14 -6q32 -14 52.5 -25.5t43.5 -30.5t34.5 -46t11.5 -61q0 -71 -52 -107.5t-135 -36.5q-74 0 -147 26l-10 128l6 2q71 -138 164 -138q46 0 69 25.5
t23 60.5q0 36 -25 58.5t-81 46.5q-29 13 -42 19t-38 21.5t-36.5 30t-21.5 38.5t-10 53q0 71 50 103.5t124 32.5q70 0 124 -20zM125 -244l-3 5q56 38 56 85q0 21 -42 65v1l75 50q42 -28 42 -70q0 -38 -40 -76t-88 -60z" />
    <glyph glyph-name="uni021A" unicode="&#x21a;" horiz-adv-x="715" 
d="M455 2v-2h-195v2q24 47 32 82.5t8 96.5v534l-109 -4q-13 -1 -28 -11.5t-37 -36.5t-33.5 -41t-38.5 -54t-32 -45l-8 3l38 206h611l38 -206l-8 -3q-5 6 -32 45t-38.5 54t-33.5 41t-37 36.5t-28 11.5l-109 4v-534q0 -63 7.5 -98t32.5 -81zM284 -244l-3 5q56 38 56 85
q0 21 -42 65v1l75 50q42 -28 42 -70q0 -38 -40 -76t-88 -60z" />
    <glyph glyph-name="uni021B" unicode="&#x21b;" horiz-adv-x="326" 
d="M184 -15q-112 0 -112 121v353h-54v6l145 125h10v-113h129v-18h-129v-350q0 -74 70 -74q38 0 66 17l3 -4q-45 -63 -128 -63zM97 -244l-3 5q56 38 56 85q0 21 -42 65v1l75 50q42 -28 42 -70q0 -38 -40 -76t-88 -60z" />
    <glyph glyph-name="uni0237" unicode="&#x237;" horiz-adv-x="245" 
d="M11 -243l-2 6q65 40 65 141v404q0 78 -45 129v7l145 53l-2 -523q0 -97 -45.5 -152.5t-115.5 -64.5z" />
    <glyph glyph-name="circumflex" unicode="&#x2c6;" 
d="M281 540l-131 87l-131 -87l-9 10l137 169h6l137 -169z" />
    <glyph glyph-name="caron" unicode="&#x2c7;" 
d="M72 540l-137 169l9 10l131 -87l131 87l9 -10l-137 -169h-6z" />
    <glyph glyph-name="breve" unicode="&#x2d8;" 
d="M150 632q84 0 104 72h10q-1 -50 -28.5 -91.5t-87.5 -41.5q-42 0 -68.5 24t-34.5 51t-9 58h10q20 -72 104 -72z" />
    <glyph glyph-name="dotaccent" unicode="&#x2d9;" 
d="M210 658q0 -25 -17.5 -42.5t-42.5 -17.5t-42.5 17.5t-17.5 42.5t17.5 43t42.5 18t42.5 -18t17.5 -43z" />
    <glyph glyph-name="ring" unicode="&#x2da;" 
d="M60 653q0 37 26 61.5t64 24.5q39 0 64.5 -24t25.5 -62q0 -37 -26 -61t-64 -24t-64 24t-26 61zM99 653q0 -31 13.5 -48.5t37.5 -17.5t37.5 17.5t13.5 48.5t-13.5 49.5t-37.5 18.5t-37.5 -18.5t-13.5 -49.5z" />
    <glyph glyph-name="ogonek" unicode="&#x2db;" 
d="M168 1h30q-83 -69 -83 -127q0 -27 14 -43t41 -16q44 0 82 45l9 -7q-54 -101 -133 -101q-41 0 -66.5 23.5t-25.5 60.5q0 42 31.5 77t100.5 88z" />
    <glyph glyph-name="tilde" unicode="&#x2dc;" 
d="M85 680q21 0 71 -15.5t75 -15.5q45 0 59 43l10 -1q-1 -18 -5 -35t-13 -37t-26 -32t-40 -12q-21 0 -72 16t-76 16q-45 0 -57 -43l-11 1q2 26 8 48.5t26 44.5t51 22z" />
    <glyph glyph-name="hungarumlaut" unicode="&#x2dd;" 
d="M143 552l119 177l59 -64l-169 -123zM-17 552l119 177l59 -64l-169 -123z" />
    <glyph glyph-name="Wgrave" unicode="&#x1e80;" horiz-adv-x="995" 
d="M296 -8h-20l-188 577q-35 110 -85 161v2h209v-2q-15 -25 -17 -66.5t15 -99.5l129 -405l155 389l-8 21q-24 67 -41.5 100.5t-43.5 60.5v2h209v-2q-15 -24 -17 -65.5t15 -100.5l140 -397l114 348q46 140 -2 215v2h132v-2q-59 -62 -98 -182l-181 -556h-20l-189 527zM610 792
l-6 -10l-245 91l51 86z" />
    <glyph glyph-name="wgrave" unicode="&#x1e81;" horiz-adv-x="668" 
d="M191 -10l-126 369q-28 83 -60 116v2h171v-2q-23 -44 -2 -109l71 -217l74 204l-2 6q-27 78 -63 116v2h170v-2q-23 -43 0 -109l72 -217l69 189q29 78 -6 137v2h104v-2q-47 -51 -73 -123l-130 -362h-16l-116 337l-121 -337h-16zM415 540l-8 -8l-201 146l76 71z" />
    <glyph glyph-name="Wacute" unicode="&#x1e82;" horiz-adv-x="995" 
d="M296 -8h-20l-188 577q-35 110 -85 161v2h209v-2q-15 -25 -17 -66.5t15 -99.5l129 -405l155 389l-8 21q-24 67 -41.5 100.5t-43.5 60.5v2h209v-2q-15 -24 -17 -65.5t15 -100.5l140 -397l114 348q46 140 -2 215v2h132v-2q-59 -62 -98 -182l-181 -556h-20l-189 527zM399 792
l195 167l52 -86l-241 -91z" />
    <glyph glyph-name="wacute" unicode="&#x1e83;" horiz-adv-x="668" 
d="M191 -10l-126 369q-28 83 -60 116v2h171v-2q-23 -44 -2 -109l71 -217l74 204l-2 6q-27 78 -63 116v2h170v-2q-23 -43 0 -109l72 -217l69 189q29 78 -6 137v2h104v-2q-47 -51 -73 -123l-130 -362h-16l-116 337l-121 -337h-16zM281 550l133 199l73 -71l-198 -136z" />
    <glyph glyph-name="Wdieresis" unicode="&#x1e84;" horiz-adv-x="995" 
d="M296 -8h-20l-188 577q-35 110 -85 161v2h209v-2q-15 -25 -17 -66.5t15 -99.5l129 -405l155 389l-8 21q-24 67 -41.5 100.5t-43.5 60.5v2h209v-2q-15 -24 -17 -65.5t15 -100.5l140 -397l114 348q46 140 -2 215v2h132v-2q-59 -62 -98 -182l-181 -556h-20l-189 527zM697 868
q0 -25 -17.5 -42.5t-42.5 -17.5t-42.5 17.5t-17.5 42.5t17.5 43t42.5 18t42.5 -18t17.5 -43zM457 868q0 -25 -17.5 -42.5t-42.5 -17.5t-42.5 17.5t-17.5 42.5t17.5 43t42.5 18t42.5 -18t17.5 -43z" />
    <glyph glyph-name="wdieresis" unicode="&#x1e85;" horiz-adv-x="668" 
d="M191 -10l-126 369q-28 83 -60 116v2h171v-2q-23 -44 -2 -109l71 -217l74 204l-2 6q-27 78 -63 116v2h170v-2q-23 -43 0 -109l72 -217l69 189q29 78 -6 137v2h104v-2q-47 -51 -73 -123l-130 -362h-16l-116 337l-121 -337h-16zM508 658q0 -25 -17.5 -42.5t-42.5 -17.5
t-42.5 17.5t-17.5 42.5t17.5 43t42.5 18t42.5 -18t17.5 -43zM308 658q0 -25 -17.5 -42.5t-42.5 -17.5t-42.5 17.5t-17.5 42.5t17.5 43t42.5 18t42.5 -18t17.5 -43z" />
    <glyph glyph-name="Ygrave" unicode="&#x1ef2;" horiz-adv-x="601" 
d="M202 0v2q24 39 32 68.5t8 80.5v182l-145 259q-56 99 -110 138v2h227v-2q-20 -17 -18 -52.5t23 -73.5l131 -241l99 173q66 116 16 194v2h149v-2q-39 -37 -64 -71t-64 -101l-129 -224v-183q0 -52 7.5 -81t32.5 -68v-2h-195zM428 792l-6 -10l-245 91l51 86z" />
    <glyph glyph-name="ygrave" unicode="&#x1ef3;" horiz-adv-x="449" 
d="M41 -225l-2 96q18 -1 36.5 2t45.5 12t50 32.5t36 58.5l1 4l-142 378q-30 82 -61 117v2h168v-2q-27 -46 4 -128l84 -225l85 227q12 44 6.5 75t-21.5 51v2h113v-2q-47 -51 -74 -123l-155 -401q-37 -96 -77.5 -132.5t-96.5 -43.5zM323 540l-8 -8l-201 146l76 71z" />
    <glyph glyph-name="endash" unicode="&#x2013;" horiz-adv-x="530" 
d="M500 271h-470v20h470v-20z" />
    <glyph glyph-name="emdash" unicode="&#x2014;" horiz-adv-x="780" 
d="M750 271h-720v20h720v-20z" />
    <glyph glyph-name="quoteleft" unicode="&#x2018;" horiz-adv-x="246" 
d="M186 755l5 -6q-52 -49 -52 -102q0 -27 45 -77v-2l-79 -63q-45 31 -45 82q0 47 38.5 93t87.5 75z" />
    <glyph glyph-name="quoteright" unicode="&#x2019;" horiz-adv-x="246" 
d="M60 505l-5 6q52 49 52 102q0 27 -45 77v2l79 63q45 -31 45 -82q0 -47 -38.5 -93t-87.5 -75z" />
    <glyph glyph-name="quotesinglbase" unicode="&#x201a;" horiz-adv-x="246" 
d="M60 -95l-5 6q52 49 52 102q0 27 -45 77v2l79 63q45 -31 45 -82q0 -47 -38.5 -93t-87.5 -75z" />
    <glyph glyph-name="quotedblleft" unicode="&#x201c;" horiz-adv-x="416" 
d="M186 755l5 -6q-52 -49 -52 -102q0 -27 45 -77v-2l-79 -63q-45 31 -45 82q0 47 38.5 93t87.5 75zM356 755l5 -6q-52 -49 -52 -102q0 -27 45 -77v-2l-79 -63q-45 31 -45 82q0 47 38.5 93t87.5 75z" />
    <glyph glyph-name="quotedblright" unicode="&#x201d;" horiz-adv-x="416" 
d="M230 505l-5 6q52 49 52 102q0 27 -45 77v2l79 63q45 -31 45 -82q0 -47 -38.5 -93t-87.5 -75zM60 505l-5 6q52 49 52 102q0 27 -45 77v2l79 63q45 -31 45 -82q0 -47 -38.5 -93t-87.5 -75z" />
    <glyph glyph-name="quotedblbase" unicode="&#x201e;" horiz-adv-x="416" 
d="M60 -95l-5 6q52 49 52 102q0 27 -45 77v2l79 63q45 -31 45 -82q0 -47 -38.5 -93t-87.5 -75zM230 -95l-5 6q52 49 52 102q0 27 -45 77v2l79 63q45 -31 45 -82q0 -47 -38.5 -93t-87.5 -75z" />
    <glyph glyph-name="dagger" unicode="&#x2020;" horiz-adv-x="416" 
d="M265 262l-48 -262h-18l-48 262l47 251l-168 -46v114l167 -46l-51 197h124l-51 -197l167 46v-114l-168 46z" />
    <glyph glyph-name="daggerdbl" unicode="&#x2021;" horiz-adv-x="416" 
d="M386 151l-167 46l51 -197h-124l51 197l-167 -46v114l167 -46l-46 146l46 148l-167 -46v114l167 -46l-51 197h124l-51 -197l167 46v-114l-167 46l46 -148l-46 -146l167 46v-114z" />
    <glyph glyph-name="bullet" unicode="&#x2022;" horiz-adv-x="332" 
d="M166 194q-38 0 -64.5 27t-26.5 64q0 39 26.5 66t64.5 27q37 0 64 -27t27 -66q0 -36 -27 -63.5t-64 -27.5z" />
    <glyph glyph-name="ellipsis" unicode="&#x2026;" horiz-adv-x="756" 
d="M128 -5q-28 0 -47.5 20t-19.5 47q0 28 19.5 48t47.5 20q27 0 47 -20t20 -48q0 -27 -20 -47t-47 -20zM378 -5q-28 0 -47.5 20t-19.5 47q0 28 19.5 48t47.5 20q27 0 47 -20t20 -48q0 -27 -20 -47t-47 -20zM628 -5q-28 0 -47.5 20t-19.5 47q0 28 19.5 48t47.5 20
q27 0 47 -20t20 -48q0 -27 -20 -47t-47 -20z" />
    <glyph glyph-name="perthousand" unicode="&#x2030;" horiz-adv-x="1170" 
d="M194 346q-69 0 -118 58t-49 143q0 86 48.5 143t118.5 57t120.5 -57.5t50.5 -142.5q0 -84 -50.5 -142.5t-120.5 -58.5zM194 361q77 0 77 186q0 185 -77 185q-73 0 -73 -185q0 -186 73 -186zM573 -8q-69 0 -118 58t-49 143q0 86 48.5 143t118.5 57t120.5 -57.5t50.5 -142.5
q0 -84 -50.5 -142.5t-120.5 -58.5zM972 -8q-69 0 -118 58t-49 143q0 86 48.5 143t118.5 57t120.5 -57.5t50.5 -142.5q0 -84 -50.5 -142.5t-120.5 -58.5zM573 7q77 0 77 186q0 185 -77 185q-73 0 -73 -185q0 -186 73 -186zM972 7q77 0 77 186q0 185 -77 185q-73 0 -73 -185
q0 -186 73 -186zM141 1l-17 14l520 728l18 -12z" />
    <glyph glyph-name="guilsinglleft" unicode="&#x2039;" horiz-adv-x="281" 
d="M221 58l-8 -6l-153 175v20l153 175l8 -6l-91 -179z" />
    <glyph glyph-name="guilsinglright" unicode="&#x203a;" horiz-adv-x="281" 
d="M68 52l-8 6l91 179l-91 179l8 6l153 -175v-20z" />
    <glyph glyph-name="fraction" unicode="&#x2044;" horiz-adv-x="272" 
d="M-118 1l-17 14l520 728l18 -12z" />
    <glyph glyph-name="Euro" unicode="&#x20ac;" horiz-adv-x="718" 
d="M651 57q-20 -18 -86.5 -45t-138.5 -27q-130 0 -217 85t-107 221h-92v20h89q-3 27 -3 55t3 55h-89v20h92q23 134 117 220t226 86q106 0 202 -48l20 -164l-8 -3q-63 108 -111 151.5t-116 43.5q-94 0 -145 -76.5t-61 -209.5h235v-20h-236q-2 -18 -2 -55q0 -19 2 -55h236v-20
h-235q11 -133 61 -209.5t139 -76.5q82 0 135 59.5t102 178.5l8 -3z" />
    <glyph glyph-name="trademark" unicode="&#x2122;" horiz-adv-x="788" 
d="M243 405v-2h-108v2q18 36 18 79v234l-39 -1q-14 -1 -40 -32t-48 -67l-6 2l21 112h295l20 -112l-6 -2q-63 98 -86 99l-39 1v-234q0 -45 18 -79zM456 405v-2h-77v2q17 23 22.5 40t5.5 48v179q0 30 -36 58v2h106l93 -222l94 222h104v-2q-22 -18 -29 -31.5t-7 -42.5v-172
q0 -45 18 -79v-2h-108v2q18 34 18 79v198l-114 -269h-9l-115 268l2 -188q0 -31 6 -48t26 -40z" />
    <glyph glyph-name="onethird" unicode="&#x2153;" horiz-adv-x="689" 
d="M183 354h-140v1q16 21 21.5 37t5.5 44v221h-47v6q80 36 128 84h6v-311q0 -28 5 -44t21 -37v-1zM65 1l-17 14l520 728l18 -12zM510 -8q-65 0 -106 23l-13 95l6 1q4 -7 12.5 -19.5t12.5 -18.5t11.5 -16t11.5 -14.5t10.5 -12t11.5 -10.5t11.5 -6.5t13.5 -5t14 -1.5
q34 0 53 30t19 80q0 103 -76 103q-35 0 -66 -22l-6 7l131 111h-153l20 68h233v-5l-173 -145q13 4 37 4q57 0 99 -31t42 -90q0 -57 -43 -91t-113 -34z" />
    <glyph glyph-name="twothirds" unicode="&#x2154;" horiz-adv-x="750" 
d="M259 354h-249v6q99 93 138.5 156.5t39.5 124.5q0 43 -14.5 67t-40.5 24q-50 0 -100 -100l-5 1l13 97q46 17 95 17q69 0 104 -28.5t35 -75.5q0 -52 -45 -102.5t-143 -118.5h97q58 0 98 51l4 -1zM126 1l-17 14l520 728l18 -12zM571 -8q-65 0 -106 23l-13 95l6 1
q4 -7 12.5 -19.5t12.5 -18.5t11.5 -16t11.5 -14.5t10.5 -12t11.5 -10.5t11.5 -6.5t13.5 -5t14 -1.5q34 0 53 30t19 80q0 103 -76 103q-35 0 -66 -22l-6 7l131 111h-153l20 68h233v-5l-173 -145q13 4 37 4q57 0 99 -31t42 -90q0 -57 -43 -91t-113 -34z" />
    <glyph glyph-name="oneeighth" unicode="&#x215b;" horiz-adv-x="661" 
d="M488 -8q-61 0 -100.5 27.5t-39.5 73.5q0 65 85 91q-67 39 -67 100q0 48 35.5 78.5t92.5 30.5q54 0 90 -25.5t36 -63.5q0 -59 -76 -81q94 -48 94 -119q0 -51 -42.5 -81.5t-107.5 -30.5zM183 354h-140v1q16 21 21.5 37t5.5 44v221h-47v6q80 36 128 84h6v-311q0 -28 5 -44
t21 -37v-1zM489 7q34 0 55.5 18.5t21.5 47.5q0 33 -25.5 53t-89.5 48l-6 3q-37 -31 -37 -82q0 -40 21.5 -64t59.5 -24zM55 1l-17 14l520 728l18 -12zM526 232l5 -2q29 25 29 72q0 36 -16.5 56t-47.5 20q-29 0 -45.5 -16t-16.5 -41q0 -27 21 -47t71 -42z" />
    <glyph glyph-name="threeeighths" unicode="&#x215c;" horiz-adv-x="722" 
d="M549 -8q-61 0 -100.5 27.5t-39.5 73.5q0 65 85 91q-67 39 -67 100q0 48 35.5 78.5t92.5 30.5q54 0 90 -25.5t36 -63.5q0 -59 -76 -81q94 -48 94 -119q0 -51 -42.5 -81.5t-107.5 -30.5zM142 346q-65 0 -106 23l-13 95l6 1q4 -7 12.5 -19.5t12.5 -18.5t11.5 -16t11.5 -14.5
t10.5 -12t11.5 -10.5t11.5 -6.5t13.5 -5t14 -1.5q34 0 53 30t19 80q0 103 -76 103q-35 0 -66 -22l-6 7l131 111h-153l20 68h233v-5l-173 -145q13 4 37 4q57 0 99 -31t42 -90q0 -57 -43 -91t-113 -34zM550 7q34 0 55.5 18.5t21.5 47.5q0 33 -25.5 53t-89.5 48l-6 3
q-37 -31 -37 -82q0 -40 21.5 -64t59.5 -24zM116 1l-17 14l520 728l18 -12zM587 232l5 -2q29 25 29 72q0 36 -16.5 56t-47.5 20q-29 0 -45.5 -16t-16.5 -41q0 -27 21 -47t71 -42z" />
    <glyph glyph-name="fiveeighths" unicode="&#x215d;" horiz-adv-x="719" 
d="M546 -8q-61 0 -100.5 27.5t-39.5 73.5q0 65 85 91q-67 39 -67 100q0 48 35.5 78.5t92.5 30.5q54 0 90 -25.5t36 -63.5q0 -59 -76 -81q94 -48 94 -119q0 -51 -42.5 -81.5t-107.5 -30.5zM126 346q-55 0 -93 22l-13 97l5 1q50 -105 103 -105q31 0 49.5 29.5t18.5 80.5
q0 110 -84 110q-32 0 -62 -19l-4 3l28 174h201l-13 -68h-182l-16 -89q31 16 71 16q59 0 102.5 -32t43.5 -93t-46 -94t-109 -33zM547 7q34 0 55.5 18.5t21.5 47.5q0 33 -25.5 53t-89.5 48l-6 3q-37 -31 -37 -82q0 -40 21.5 -64t59.5 -24zM113 1l-17 14l520 728l18 -12z
M584 232l5 -2q29 25 29 72q0 36 -16.5 56t-47.5 20q-29 0 -45.5 -16t-16.5 -41q0 -27 21 -47t71 -42z" />
    <glyph glyph-name="seveneighths" unicode="&#x215e;" horiz-adv-x="651" 
d="M478 -8q-61 0 -100.5 27.5t-39.5 73.5q0 65 85 91q-67 39 -67 100q0 48 35.5 78.5t92.5 30.5q54 0 90 -25.5t36 -63.5q0 -59 -76 -81q94 -48 94 -119q0 -51 -42.5 -81.5t-107.5 -30.5zM143 354h-93q48 154 183 312h-208l14 73h250v-5q-117 -193 -146 -380zM479 7
q34 0 55.5 18.5t21.5 47.5q0 33 -25.5 53t-89.5 48l-6 3q-37 -31 -37 -82q0 -40 21.5 -64t59.5 -24zM45 1l-17 14l520 728l18 -12zM516 232l5 -2q29 25 29 72q0 36 -16.5 56t-47.5 20q-29 0 -45.5 -16t-16.5 -41q0 -27 21 -47t71 -42z" />
    <glyph glyph-name="minus" unicode="&#x2212;" horiz-adv-x="532" 
d="M487 297h-442v22h442v-22z" />
    <glyph glyph-name="uni24C5" unicode="&#x24c5;" horiz-adv-x="823" 
d="M30 366q0 159 111.5 269.5t269.5 110.5q159 0 270.5 -110.5t111.5 -269.5q0 -160 -112 -270.5t-270 -110.5t-269.5 110.5t-111.5 270.5zM57 366q0 -149 103.5 -254t250.5 -105t250.5 105t103.5 254t-103.5 253.5t-250.5 104.5t-250.5 -104.5t-103.5 -253.5zM284 153v3
q22 42 22 97v204q0 55 -22 97v2h141q156 0 156 -111q0 -57 -43 -92t-120 -35h-37v-65q0 -34 4 -52.5t18 -44.5v-3h-119zM416 539q-13 0 -35 -1v-203h34q46 0 69 31.5t23 77.5q0 95 -91 95z" />
    <glyph glyph-name="idotaccent" horiz-adv-x="242" 
d="M179 658q0 -25 -17.5 -42.5t-42.5 -17.5t-42.5 17.5t-17.5 42.5t17.5 43t42.5 18t42.5 -18t17.5 -43zM51 0v2q23 90 23 192v114q0 78 -45 129v7l145 53v-302q0 -133 22 -193v-2h-145z" />
    <glyph glyph-name="space_uni0326" 
d="M78 -244l-3 5q56 38 56 85q0 21 -42 65v1l75 50q42 -28 42 -70q0 -38 -40 -76t-88 -60z" />
    <glyph glyph-name="five.num" horiz-adv-x="296" 
d="M121 346q-55 0 -93 22l-13 97l5 1q50 -105 103 -105q31 0 49.5 29.5t18.5 80.5q0 110 -84 110q-32 0 -62 -19l-4 3l28 174h201l-13 -68h-182l-16 -89q31 16 71 16q59 0 102.5 -32t43.5 -93t-46 -94t-109 -33z" />
    <glyph glyph-name="zero.num" horiz-adv-x="382" 
d="M189 346q-69 0 -118 58t-49 143q0 86 48.5 143t118.5 57t120.5 -57.5t50.5 -142.5q0 -84 -50.5 -142.5t-120.5 -58.5zM189 361q77 0 77 186q0 185 -77 185q-73 0 -73 -185q0 -186 73 -186z" />
    <glyph glyph-name="one.num" horiz-adv-x="208" 
d="M178 354h-140v1q16 21 21.5 37t5.5 44v221h-47v6q80 36 128 84h6v-311q0 -28 5 -44t21 -37v-1z" />
    <glyph glyph-name="two.num" horiz-adv-x="306" 
d="M254 354h-249v6q99 93 138.5 156.5t39.5 124.5q0 43 -14.5 67t-40.5 24q-50 0 -100 -100l-5 1l13 97q46 17 95 17q69 0 104 -28.5t35 -75.5q0 -52 -45 -102.5t-143 -118.5h97q58 0 98 51l4 -1z" />
    <glyph glyph-name="three.num" horiz-adv-x="311" 
d="M137 346q-65 0 -106 23l-13 95l6 1q4 -7 12.5 -19.5t12.5 -18.5t11.5 -16t11.5 -14.5t10.5 -12t11.5 -10.5t11.5 -6.5t13.5 -5t14 -1.5q34 0 53 30t19 80q0 103 -76 103q-35 0 -66 -22l-6 7l131 111h-153l20 68h233v-5l-173 -145q13 4 37 4q57 0 99 -31t42 -90
q0 -57 -43 -91t-113 -34z" />
    <glyph glyph-name="four.num" horiz-adv-x="329" 
d="M151 354v1q21 35 21 81v18h-162v6l171 279h102l-250 -268h139v107h89v-107h50l-4 -17h-46v-18q0 -46 21 -81v-1h-131z" />
    <glyph glyph-name="six.num" horiz-adv-x="338" 
d="M170 346q-66 0 -107 45t-41 112q0 76 54.5 144.5t177.5 99.5l3 -9q-111 -41 -139 -173q21 45 78 45q51 0 86.5 -34t35.5 -91q0 -61 -43 -100t-105 -39zM173 361q27 0 42.5 30t15.5 85q0 104 -60 104q-42 0 -57 -38q-4 -24 -4 -53q0 -54 15.5 -91t47.5 -37z" />
    <glyph glyph-name="seven.num" horiz-adv-x="284" 
d="M138 354h-93q48 154 183 312h-208l14 73h250v-5q-117 -193 -146 -380z" />
    <glyph glyph-name="eight.num" horiz-adv-x="320" 
d="M155 346q-61 0 -100.5 27.5t-39.5 73.5q0 65 85 91q-67 39 -67 100q0 48 35.5 78.5t92.5 30.5q54 0 90 -25.5t36 -63.5q0 -59 -76 -81q94 -48 94 -119q0 -51 -42.5 -81.5t-107.5 -30.5zM156 361q34 0 55.5 18.5t21.5 47.5q0 33 -25.5 53t-89.5 48l-6 3q-37 -31 -37 -82
q0 -40 21.5 -64t59.5 -24zM193 586l5 -2q29 25 29 72q0 36 -16.5 56t-47.5 20q-29 0 -45.5 -16t-16.5 -41q0 -27 21 -47t71 -42z" />
    <glyph glyph-name="nine.num" horiz-adv-x="338" 
d="M81 355q111 41 139 173q-22 -45 -78 -45q-51 0 -86.5 34t-35.5 91q0 61 43 100t105 39q66 0 107 -45t41 -112q0 -76 -54.5 -144.5t-177.5 -99.5zM167 513q42 0 57 38q4 24 4 53q0 54 -15.5 91t-47.5 37q-27 0 -42.5 -30t-15.5 -85q0 -104 60 -104z" />
    <glyph glyph-name="five.den" horiz-adv-x="296" 
d="M121 -8q-55 0 -93 22l-13 97l5 1q50 -105 103 -105q31 0 49.5 29.5t18.5 80.5q0 110 -84 110q-32 0 -62 -19l-4 3l28 174h201l-13 -68h-182l-16 -89q31 16 71 16q59 0 102.5 -32t43.5 -93t-46 -94t-109 -33z" />
    <glyph glyph-name="zero.den" horiz-adv-x="382" 
d="M189 -8q-69 0 -118 58t-49 143q0 86 48.5 143t118.5 57t120.5 -57.5t50.5 -142.5q0 -84 -50.5 -142.5t-120.5 -58.5zM189 7q77 0 77 186q0 185 -77 185q-73 0 -73 -185q0 -186 73 -186z" />
    <glyph glyph-name="one.den" horiz-adv-x="208" 
d="M178 0h-140v1q16 21 21.5 37t5.5 44v221h-47v6q80 36 128 84h6v-311q0 -28 5 -44t21 -37v-1z" />
    <glyph glyph-name="two.den" horiz-adv-x="306" 
d="M254 0h-249v6q99 93 138.5 156.5t39.5 124.5q0 43 -14.5 67t-40.5 24q-50 0 -100 -100l-5 1l13 97q46 17 95 17q69 0 104 -28.5t35 -75.5q0 -52 -45 -102.5t-143 -118.5h97q58 0 98 51l4 -1z" />
    <glyph glyph-name="three.den" horiz-adv-x="311" 
d="M137 -8q-65 0 -106 23l-13 95l6 1q4 -7 12.5 -19.5t12.5 -18.5t11.5 -16t11.5 -14.5t10.5 -12t11.5 -10.5t11.5 -6.5t13.5 -5t14 -1.5q34 0 53 30t19 80q0 103 -76 103q-35 0 -66 -22l-6 7l131 111h-153l20 68h233v-5l-173 -145q13 4 37 4q57 0 99 -31t42 -90
q0 -57 -43 -91t-113 -34z" />
    <glyph glyph-name="four.den" horiz-adv-x="329" 
d="M151 0v1q21 35 21 81v18h-162v6l171 279h102l-250 -268h139v107h89v-107h50l-4 -17h-46v-18q0 -46 21 -81v-1h-131z" />
    <glyph glyph-name="six.den" horiz-adv-x="338" 
d="M170 -8q-66 0 -107 45t-41 112q0 76 54.5 144.5t177.5 99.5l3 -9q-111 -41 -139 -173q21 45 78 45q51 0 86.5 -34t35.5 -91q0 -61 -43 -100t-105 -39zM173 7q27 0 42.5 30t15.5 85q0 104 -60 104q-42 0 -57 -38q-4 -24 -4 -53q0 -54 15.5 -91t47.5 -37z" />
    <glyph glyph-name="seven.den" horiz-adv-x="284" 
d="M138 0h-93q48 154 183 312h-208l14 73h250v-5q-117 -193 -146 -380z" />
    <glyph glyph-name="eight.den" horiz-adv-x="320" 
d="M155 -8q-61 0 -100.5 27.5t-39.5 73.5q0 65 85 91q-67 39 -67 100q0 48 35.5 78.5t92.5 30.5q54 0 90 -25.5t36 -63.5q0 -59 -76 -81q94 -48 94 -119q0 -51 -42.5 -81.5t-107.5 -30.5zM156 7q34 0 55.5 18.5t21.5 47.5q0 33 -25.5 53t-89.5 48l-6 3q-37 -31 -37 -82
q0 -40 21.5 -64t59.5 -24zM193 232l5 -2q29 25 29 72q0 36 -16.5 56t-47.5 20q-29 0 -45.5 -16t-16.5 -41q0 -27 21 -47t71 -42z" />
    <glyph glyph-name="nine.den" horiz-adv-x="338" 
d="M81 1q111 41 139 173q-22 -45 -78 -45q-51 0 -86.5 34t-35.5 91q0 61 43 100t105 39q66 0 107 -45t41 -112q0 -76 -54.5 -144.5t-177.5 -99.5zM167 159q42 0 57 38q4 24 4 53q0 54 -15.5 91t-47.5 37q-27 0 -42.5 -30t-15.5 -85q0 -104 60 -104z" />
    <glyph glyph-name="five.sub" horiz-adv-x="296" 
d="M121 -88q-55 0 -93 22l-13 97l5 1q50 -105 103 -105q31 0 49.5 29.5t18.5 80.5q0 110 -84 110q-32 0 -62 -19l-4 3l28 174h201l-13 -68h-182l-16 -89q31 16 71 16q59 0 102.5 -32t43.5 -93t-46 -94t-109 -33z" />
    <glyph glyph-name="zero.sub" horiz-adv-x="382" 
d="M189 -88q-69 0 -118 58t-49 143q0 86 48.5 143t118.5 57t120.5 -57.5t50.5 -142.5q0 -84 -50.5 -142.5t-120.5 -58.5zM189 -73q77 0 77 186q0 185 -77 185q-73 0 -73 -185q0 -186 73 -186z" />
    <glyph glyph-name="one.sub" horiz-adv-x="208" 
d="M178 -80h-140v1q16 21 21.5 37t5.5 44v221h-47v6q80 36 128 84h6v-311q0 -28 5 -44t21 -37v-1z" />
    <glyph glyph-name="two.sub" horiz-adv-x="306" 
d="M254 -80h-249v6q99 93 138.5 156.5t39.5 124.5q0 43 -14.5 67t-40.5 24q-50 0 -100 -100l-5 1l13 97q46 17 95 17q69 0 104 -28.5t35 -75.5q0 -52 -45 -102.5t-143 -118.5h97q58 0 98 51l4 -1z" />
    <glyph glyph-name="three.sub" horiz-adv-x="311" 
d="M137 -88q-65 0 -106 23l-13 95l6 1q4 -7 12.5 -19.5t12.5 -18.5t11.5 -16t11.5 -14.5t10.5 -12t11.5 -10.5t11.5 -6.5t13.5 -5t14 -1.5q34 0 53 30t19 80q0 103 -76 103q-35 0 -66 -22l-6 7l131 111h-153l20 68h233v-5l-173 -145q13 4 37 4q57 0 99 -31t42 -90
q0 -57 -43 -91t-113 -34z" />
    <glyph glyph-name="four.sub" horiz-adv-x="329" 
d="M151 -80v1q21 35 21 81v18h-162v6l171 279h102l-250 -268h139v107h89v-107h50l-4 -17h-46v-18q0 -46 21 -81v-1h-131z" />
    <glyph glyph-name="six.sub" horiz-adv-x="338" 
d="M170 -88q-66 0 -107 45t-41 112q0 76 54.5 144.5t177.5 99.5l3 -9q-111 -41 -139 -173q21 45 78 45q51 0 86.5 -34t35.5 -91q0 -61 -43 -100t-105 -39zM173 -73q27 0 42.5 30t15.5 85q0 104 -60 104q-42 0 -57 -38q-4 -24 -4 -53q0 -54 15.5 -91t47.5 -37z" />
    <glyph glyph-name="seven.sub" horiz-adv-x="284" 
d="M138 -80h-93q48 154 183 312h-208l14 73h250v-5q-117 -193 -146 -380z" />
    <glyph glyph-name="eight.sub" horiz-adv-x="320" 
d="M155 -88q-61 0 -100.5 27.5t-39.5 73.5q0 65 85 91q-67 39 -67 100q0 48 35.5 78.5t92.5 30.5q54 0 90 -25.5t36 -63.5q0 -59 -76 -81q94 -48 94 -119q0 -51 -42.5 -81.5t-107.5 -30.5zM156 -73q34 0 55.5 18.5t21.5 47.5q0 33 -25.5 53t-89.5 48l-6 3q-37 -31 -37 -82
q0 -40 21.5 -64t59.5 -24zM193 152l5 -2q29 25 29 72q0 36 -16.5 56t-47.5 20q-29 0 -45.5 -16t-16.5 -41q0 -27 21 -47t71 -42z" />
    <glyph glyph-name="nine.sub" horiz-adv-x="338" 
d="M168 313q66 0 107 -45t41 -112q0 -76 -54.5 -144.5t-177.5 -99.5l-3 9q111 41 139 173q-21 -45 -78 -45q-51 0 -86.5 34t-35.5 91q0 61 43 100t105 39zM165 298q-27 0 -42.5 -30t-15.5 -85q0 -104 60 -104q42 0 57 38q4 24 4 53q0 54 -15.5 91t-47.5 37z" />
    <glyph glyph-name="plus.sub" horiz-adv-x="315" 
d="M290 106h-123v-123h-20v123h-122v18h122v123h20v-123h123v-18z" />
    <glyph glyph-name="minus.sub" horiz-adv-x="315" 
d="M290 106h-265v18h265v-18z" />
    <glyph glyph-name="five.sup" horiz-adv-x="296" 
d="M121 426q-55 0 -93 22l-13 97l5 1q50 -105 103 -105q31 0 49.5 29.5t18.5 80.5q0 110 -84 110q-32 0 -62 -19l-4 3l28 174h201l-13 -68h-182l-16 -89q31 16 71 16q59 0 102.5 -32t43.5 -93t-46 -94t-109 -33z" />
    <glyph glyph-name="zero.sup" horiz-adv-x="382" 
d="M189 426q-69 0 -118 58t-49 143q0 86 48.5 143t118.5 57t120.5 -57.5t50.5 -142.5q0 -84 -50.5 -142.5t-120.5 -58.5zM189 441q77 0 77 186q0 185 -77 185q-73 0 -73 -185q0 -186 73 -186z" />
    <glyph glyph-name="one.sup" horiz-adv-x="208" 
d="M178 434h-140v1q16 21 21.5 37t5.5 44v221h-47v6q80 36 128 84h6v-311q0 -28 5 -44t21 -37v-1z" />
    <glyph glyph-name="two.sup" horiz-adv-x="306" 
d="M254 434h-249v6q99 93 138.5 156.5t39.5 124.5q0 43 -14.5 67t-40.5 24q-50 0 -100 -100l-5 1l13 97q46 17 95 17q69 0 104 -28.5t35 -75.5q0 -52 -45 -102.5t-143 -118.5h97q58 0 98 51l4 -1z" />
    <glyph glyph-name="three.sup" horiz-adv-x="311" 
d="M137 426q-65 0 -106 23l-13 95l6 1q4 -7 12.5 -19.5t12.5 -18.5t11.5 -16t11.5 -14.5t10.5 -12t11.5 -10.5t11.5 -6.5t13.5 -5t14 -1.5q34 0 53 30t19 80q0 103 -76 103q-35 0 -66 -22l-6 7l131 111h-153l20 68h233v-5l-173 -145q13 4 37 4q57 0 99 -31t42 -90
q0 -57 -43 -91t-113 -34z" />
    <glyph glyph-name="four.sup" horiz-adv-x="329" 
d="M151 434v1q21 35 21 81v18h-162v6l171 279h102l-250 -268h139v107h89v-107h50l-4 -17h-46v-18q0 -46 21 -81v-1h-131z" />
    <glyph glyph-name="six.sup" horiz-adv-x="338" 
d="M170 426q-66 0 -107 45t-41 112q0 76 54.5 144.5t177.5 99.5l3 -9q-111 -41 -139 -173q21 45 78 45q51 0 86.5 -34t35.5 -91q0 -61 -43 -100t-105 -39zM173 441q27 0 42.5 30t15.5 85q0 104 -60 104q-42 0 -57 -38q-4 -24 -4 -53q0 -54 15.5 -91t47.5 -37z" />
    <glyph glyph-name="seven.sup" horiz-adv-x="284" 
d="M138 434h-93q48 154 183 312h-208l14 73h250v-5q-117 -193 -146 -380z" />
    <glyph glyph-name="eight.sup" horiz-adv-x="320" 
d="M155 426q-61 0 -100.5 27.5t-39.5 73.5q0 65 85 91q-67 39 -67 100q0 48 35.5 78.5t92.5 30.5q54 0 90 -25.5t36 -63.5q0 -59 -76 -81q94 -48 94 -119q0 -51 -42.5 -81.5t-107.5 -30.5zM156 441q34 0 55.5 18.5t21.5 47.5q0 33 -25.5 53t-89.5 48l-6 3q-37 -31 -37 -82
q0 -40 21.5 -64t59.5 -24zM193 666l5 -2q29 25 29 72q0 36 -16.5 56t-47.5 20q-29 0 -45.5 -16t-16.5 -41q0 -27 21 -47t71 -42z" />
    <glyph glyph-name="nine.sup" horiz-adv-x="338" 
d="M81 435q111 41 139 173q-22 -45 -78 -45q-51 0 -86.5 34t-35.5 91q0 61 43 100t105 39q66 0 107 -45t41 -112q0 -76 -54.5 -144.5t-177.5 -99.5zM167 593q42 0 57 38q4 24 4 53q0 54 -15.5 91t-47.5 37q-27 0 -42.5 -30t-15.5 -85q0 -104 60 -104z" />
    <glyph glyph-name="plus.sup" horiz-adv-x="315" 
d="M290 616h-123v-123h-20v123h-122v18h122v123h20v-123h123v-18z" />
    <glyph glyph-name="minus.sup" horiz-adv-x="315" 
d="M290 616h-265v18h265v-18z" />
    <glyph glyph-name="space_uni0326.alt" 
d="M233 794l3 -5q-56 -38 -56 -85q0 -21 42 -65v-1l-75 -50q-42 28 -42 70q0 38 40 76t88 60z" />
    <glyph glyph-name="caron.alt" 
d="M28 574l23 201h90l-103 -203z" />
    <glyph glyph-name="space.uc" horiz-adv-x="191" 
 />
    <glyph glyph-name="questiondown.uc" horiz-adv-x="427" 
d="M285 508h16q-7 -42 -27 -77.5t-42.5 -61.5t-44 -55.5t-36 -72.5t-14.5 -99q0 -65 26 -102t75 -37q45 0 77 34.5t70 105.5l7 -2l-20 -131q-66 -25 -139 -25q-208 0 -208 162q0 43 16 79.5t40 61t54.5 51t59 48t53.5 53.5t37 68zM287 737q28 0 47.5 -20t19.5 -47
q0 -29 -19.5 -49t-47.5 -20t-47.5 20t-19.5 49q0 27 19.5 47t47.5 20z" />
    <glyph glyph-name="exclamdown.uc" horiz-adv-x="234" 
d="M171 2v-2h-107v2l45 506h16zM117 737q28 0 47.5 -20t19.5 -47q0 -29 -19.5 -49t-47.5 -20t-47.5 20t-19.5 49q0 27 19.5 47t47.5 20z" />
    <glyph glyph-name="hyphen.uc" horiz-adv-x="281" 
d="M251 338h-221v50h221v-50z" />
    <glyph glyph-name="endash.uc" horiz-adv-x="530" 
d="M500 351h-470v20h470v-20z" />
    <glyph glyph-name="emdash.uc" horiz-adv-x="780" 
d="M750 351h-720v20h720v-20z" />
    <glyph glyph-name="guilsinglleft.uc" horiz-adv-x="281" 
d="M221 118l-8 -6l-153 175v20l153 175l8 -6l-91 -179z" />
    <glyph glyph-name="guilsinglright.uc" horiz-adv-x="281" 
d="M68 112l-8 6l91 179l-91 179l8 6l153 -175v-20z" />
    <glyph glyph-name="guillemotleft.uc" horiz-adv-x="431" 
d="M371 118l-8 -6l-153 175v20l153 175l8 -6l-91 -179zM221 118l-8 -6l-153 175v20l153 175l8 -6l-91 -179z" />
    <glyph glyph-name="guillemotright.uc" horiz-adv-x="431" 
d="M218 112l-8 6l91 179l-91 179l8 6l153 -175v-20zM68 112l-8 6l91 179l-91 179l8 6l153 -175v-20z" />
    <glyph glyph-name="parenleft.uc" horiz-adv-x="350" 
d="M303 -81l-8 -9q-99 76 -154.5 189.5t-55.5 252.5t55.5 253.5t154.5 189.5l8 -9q-123 -168 -123 -434q0 -265 123 -433z" />
    <glyph glyph-name="parenright.uc" horiz-adv-x="350" 
d="M55 -90l-8 9q123 168 123 433q0 266 -123 434l8 9q99 -75 154.5 -189.5t55.5 -253.5t-55.5 -252.5t-154.5 -189.5z" />
    <glyph glyph-name="bracketleft.uc" horiz-adv-x="369" 
d="M90 -90v885h244v-20h-154v-845h154v-20h-244z" />
    <glyph glyph-name="bracketright.uc" horiz-adv-x="369" 
d="M279 795v-885h-244v20h154v845h-154v20h244z" />
    <glyph glyph-name="braceleft.uc" horiz-adv-x="343" 
d="M308 -90h-15q-202 0 -202 128q0 36 32 108.5t32 108.5q0 87 -113 87h-22v21h22q113 0 113 87q0 36 -32 108.5t-32 108.5q0 128 202 128h15v-20h-15q-58 0 -82 -18.5t-24 -80.5q0 -27 15.5 -94t15.5 -102q0 -65 -35.5 -90.5t-110.5 -35.5v-3q76 -10 111 -35t35 -91
q0 -35 -15.5 -102t-15.5 -94q0 -62 24 -80.5t82 -18.5h15v-20z" />
    <glyph glyph-name="braceright.uc" horiz-adv-x="343" 
d="M50 -90h-15v20h15q58 0 82 18.5t24 80.5q0 27 -15.5 94t-15.5 102q0 66 35 91t111 35v3q-75 10 -110.5 35.5t-35.5 90.5q0 35 15.5 102t15.5 94q0 62 -24 80.5t-82 18.5h-15v20h15q202 0 202 -128q0 -36 -32 -108.5t-32 -108.5q0 -87 113 -87h22v-21h-22q-113 0 -113 -87
q0 -36 32 -108.5t32 -108.5q0 -128 -202 -128z" />
    <glyph glyph-name="slash.uc" horiz-adv-x="392" 
d="M-9 -90l380 911h28l-380 -911h-28z" />
    <glyph glyph-name="backslash.uc" horiz-adv-x="392" 
d="M401 -90h-28l-380 911h28z" />
    <glyph glyph-name="bar.uc" horiz-adv-x="205" 
d="M115 -89h-25v911h25v-911z" />
    <glyph glyph-name="at.uc" horiz-adv-x="857" 
d="M421 -41q-170 0 -280.5 96.5t-110.5 263.5q0 181 129.5 309t325.5 128q156 0 249 -84t93 -229q0 -122 -64.5 -206.5t-163.5 -84.5q-40 0 -67.5 16t-37.5 40t-14.5 52t1.5 53q-75 -166 -160 -166q-37 0 -59.5 34t-22.5 91q0 71 32 140.5t95 117.5t139 48q44 0 79 -14
l38 14h7l-62 -236q-14 -52 -16.5 -87t12.5 -59t50 -24q72 0 119 83.5t47 192.5q0 137 -80.5 212.5t-217.5 75.5q-119 0 -209.5 -60t-136 -154.5t-45.5 -205.5q0 -157 92.5 -247t242.5 -90q130 0 214 60l9 -16q-91 -64 -227 -64zM366 215q56 0 132 190l34 130q-9 24 -41 24
q-44 0 -82.5 -47t-58 -109.5t-19.5 -118.5q0 -69 35 -69z" />
    <glyph glyph-name="grave.uc" 
d="M260 792l-6 -10l-245 91l51 86z" />
    <glyph glyph-name="dieresis.uc" 
d="M330 868q0 -25 -17.5 -42.5t-42.5 -17.5t-42.5 17.5t-17.5 42.5t17.5 43t42.5 18t42.5 -18t17.5 -43zM90 868q0 -25 -17.5 -42.5t-42.5 -17.5t-42.5 17.5t-17.5 42.5t17.5 43t42.5 18t42.5 -18t17.5 -43z" />
    <glyph glyph-name="macron.uc" 
d="M-7 833v50h313v-50h-313z" />
    <glyph glyph-name="acute.uc" 
d="M26 792l195 167l52 -86l-241 -91z" />
    <glyph glyph-name="circumflex.uc" 
d="M297 782l-147 76l-147 -76l-9 10l153 153h6l153 -153z" />
    <glyph glyph-name="caron.uc" 
d="M78 782h-6l-153 153l9 10l147 -76l147 76l9 -10z" />
    <glyph glyph-name="breve.uc" 
d="M150 859q100 0 126 85h10q0 -54 -33 -102t-103 -48q-48 0 -80.5 26.5t-43.5 58.5t-11 65h10q26 -85 125 -85z" />
    <glyph glyph-name="dotaccent.uc" 
d="M210 868q0 -25 -17.5 -42.5t-42.5 -17.5t-42.5 17.5t-17.5 42.5t17.5 43t42.5 18t42.5 -18t17.5 -43z" />
    <glyph glyph-name="ring.uc" 
d="M60 867q0 37 26 61.5t64 24.5q39 0 64.5 -24t25.5 -62q0 -37 -26 -61t-64 -24t-64 24t-26 61zM99 867q0 -31 13.5 -48.5t37.5 -17.5t37.5 17.5t13.5 48.5t-13.5 49.5t-37.5 18.5t-37.5 -18.5t-13.5 -49.5z" />
    <glyph glyph-name="tilde.uc" 
d="M72 905q30 0 85 -20t87 -20q26 0 41 11.5t25 42.5l10 -2q-1 -26 -4.5 -43.5t-12 -39t-27.5 -32.5t-48 -11q-30 0 -85 20t-87 20q-26 0 -41 -11.5t-25 -42.5l-10 2q1 26 4.5 43.5t12 39t27.5 32.5t48 11z" />
    <glyph glyph-name="hungarumlaut.uc" 
d="M158 792l131 157l58 -77l-180 -90zM-32 792l131 157l58 -77l-180 -90z" />
    <glyph glyph-name="Cacute.pl" horiz-adv-x="752" 
d="M705 240l-20 -183q-24 -18 -105.5 -45t-169.5 -27q-170 0 -275 108.5t-105 272.5q0 161 113 271t286 110q131 0 252 -48l20 -164l-8 -3q-77 109 -135.5 152t-141.5 43q-132 0 -195.5 -98t-63.5 -263q0 -164 63 -262.5t190 -98.5q99 0 163.5 60t123.5 178zM355 789
l114 172l67 -58l-173 -121z" />
    <glyph glyph-name="Nacute.pl" horiz-adv-x="694" 
d="M573 -3l-464 630l4 -428q0 -67 13.5 -105.5t55.5 -91.5v-2h-154v2q37 52 49 90.5t12 106.5v392q-3 48 -19.5 77t-58.5 62v2h160l419 -569l-3 370q-1 67 -13 105.5t-48 91.5v2h144v-2q-37 -53 -49 -92t-12 -105v-533zM296 789l114 172l67 -58l-173 -121z" />
    <glyph glyph-name="Oacute.pl" horiz-adv-x="814" 
d="M406 -15q-145 0 -260.5 112.5t-115.5 267.5t115.5 268.5t260.5 113.5q94 0 181 -50.5t142 -139.5t55 -192t-55 -191.5t-142 -138.5t-181 -50zM406 5q125 0 188 98.5t63 261.5t-63.5 262.5t-187.5 99.5t-186.5 -99.5t-62.5 -262.5t62.5 -261.5t186.5 -98.5zM348 789
l114 172l67 -58l-173 -121z" />
    <glyph glyph-name="Sacute.pl" horiz-adv-x="553" 
d="M454 718l20 -181l-9 -3q-89 193 -207 193q-51 0 -80 -30.5t-29 -81.5q0 -23 5.5 -42.5t20.5 -36.5t26 -28.5t37.5 -26.5t38.5 -21.5t45 -22.5q38 -19 59.5 -30.5t52.5 -34t47.5 -45t29 -56t12.5 -73.5q0 -107 -73.5 -160t-188.5 -53q-103 0 -206 39l-20 185l8 3
q58 -107 117.5 -157t128.5 -50q65 0 100 39.5t35 97.5q0 65 -40.5 106t-114.5 77q-31 15 -45 22t-41 23t-40.5 27t-32.5 29.5t-27.5 36t-15.5 42t-7 51.5q0 97 66 144t165 47q83 0 163 -29zM220 789l114 172l67 -58l-173 -121z" />
    <glyph glyph-name="Zacute.pl" horiz-adv-x="623" 
d="M559 0h-539v11l439 705l-130 -4q-53 -2 -97.5 -17.5t-78 -43t-56 -53t-46.5 -61.5l-8 3l47 192h504v-11l-438 -706l160 5q70 2 127.5 32.5t90 67.5t66.5 91l8 -3zM275 789l114 172l67 -58l-173 -121z" />
    <glyph glyph-name="acute.pl" 
d="M86 548l81 201l82 -55l-154 -152z" />
    <glyph glyph-name="acute.ucpl" 
d="M104 789l114 172l67 -58l-173 -121z" />
    <glyph glyph-name="cacute.pl" horiz-adv-x="465" 
d="M430 116l6 -4q-20 -59 -67.5 -93t-119.5 -34q-102 0 -163 67t-61 178t76 186.5t177 75.5q78 0 132 -26l13 -111l-9 -2q-24 42 -68.5 81.5t-82.5 39.5q-64 0 -102 -55t-38 -147q0 -97 47 -149.5t127 -52.5q88 0 133 46zM212 548l81 201l82 -55l-154 -152z" />
    <glyph glyph-name="divide.osf" horiz-adv-x="546" 
d="M494 232h-442v22h442v-22zM273 10q-28 0 -47.5 20t-19.5 47q0 28 19.5 48t47.5 20q27 0 47 -20t20 -48q0 -27 -20 -47t-47 -20zM273 334q-28 0 -47.5 20t-19.5 47q0 28 19.5 48t47.5 20q27 0 47 -20t20 -48q0 -27 -20 -47t-47 -20z" />
    <glyph glyph-name="eight.osf" horiz-adv-x="468" 
d="M230 -10q-91 0 -148 50t-57 125q0 64 41.5 116.5t104.5 83.5q-63 43 -97 87.5t-34 110.5q0 85 56 134.5t143 49.5q82 0 135.5 -46t53.5 -112q0 -107 -145 -164q75 -47 117.5 -99.5t42.5 -134.5q0 -97 -61 -149t-152 -52zM230 10q56 0 89 41t33 103q0 28 -9.5 53t-20.5 41
t-36 37t-38.5 30t-46.5 30q-10 6 -15 10q-77 -71 -77 -182q0 -75 30.5 -119t90.5 -44zM260 439l9 -6q84 53 84 152q0 66 -30 104t-87 38q-52 0 -83.5 -34t-31.5 -87q0 -24 9 -45.5t18 -35.5t33 -32.5t35.5 -26t43.5 -27.5z" />
    <glyph glyph-name="equal.osf" horiz-adv-x="532" 
d="M487 312h-442v22h442v-22zM487 172h-442v22h442v-22z" />
    <glyph glyph-name="f.short" horiz-adv-x="313" 
d="M65 0v2q24 37 24 137v320h-63v18h63v66q0 109 41 172t107 63q38 0 70 -14l11 -105l-6 -2q-58 92 -73 101q-3 2 -6 2q-11 0 -21 -19t-16.5 -59.5t-6.5 -94.5v-110h98v-18h-98v-320q0 -97 23 -137v-2h-147z" />
    <glyph glyph-name="f_f.short" horiz-adv-x="583" 
d="M65 0v2q24 37 24 137v320h-63v18h63v46q0 107 55 171t131 64q42 0 62 -14l11 -105l-6 -2q-61 103 -95 103q-23 0 -40.5 -46.5t-17.5 -126.5v-90h170v66q0 110 36 172.5t97 62.5q47 0 75 -14l11 -105l-6 -2q-57 103 -76 103q-9 0 -17.5 -19t-14 -59.5t-5.5 -94.5v-110h98
v-18h-98v-320q0 -97 23 -137v-2h-147v2q24 37 24 137v320h-170v-320q0 -97 23 -137v-2h-147z" />
    <glyph glyph-name="five.osf" horiz-adv-x="466" 
d="M165 -245q-53 0 -97 16.5t-62 33.5l-16 137l8 2q79 -169 188 -169q60 0 93 47.5t33 118.5q0 99 -66.5 174t-186.5 105l106 277h276l-36 -94h-254l-33 -87q124 -34 203.5 -116.5t79.5 -202.5q0 -111 -68.5 -176.5t-167.5 -65.5z" />
    <glyph glyph-name="four.osf" horiz-adv-x="492" 
d="M266 -195v195h-271v10l271 361v2l43 56l59 78h8v-437h109l-16 -70h-93v-195h-110zM266 70v266l-198 -266h198z" />
    <glyph glyph-name="four.osfalt" horiz-adv-x="492" 
d="M266 -195v195h-281v10l310 467h137l-417 -453h251v156h110v-156h100l-8 -24h-92v-195h-110z" />
    <glyph glyph-name="greater.osf" horiz-adv-x="530" 
d="M485 228l-430 -208v26l407 195l-407 195v26l430 -208v-26z" />
    <glyph glyph-name="less.osf" horiz-adv-x="530" 
d="M475 20l-430 208v26l430 208v-26l-407 -195l407 -195v-26z" />
    <glyph glyph-name="minus.osf" horiz-adv-x="532" 
d="M487 232h-442v22h442v-22z" />
    <glyph glyph-name="multiply.osf" horiz-adv-x="472" 
d="M405 56l-169 169l-169 -169l-17 17l169 169l-169 169l17 17l169 -169l169 169l17 -17l-169 -169l169 -169z" />
    <glyph glyph-name="nacute.pl" horiz-adv-x="545" 
d="M196 2v-2h-145v2q23 67 23 192v118q0 79 -45 130v2l141 53v-96l4 -1q76 92 161 92q67 0 104 -38.5t37 -106.5v-152q0 -75 4 -114.5t19 -78.5v-2h-145v2q22 67 22 192v130q0 47 -22.5 77t-69.5 30q-63 0 -110 -50v-186q0 -133 22 -193zM238 548l81 201l82 -55l-154 -152z
" />
    <glyph glyph-name="nine.osf" horiz-adv-x="542" 
d="M265 512q109 0 175.5 -82.5t66.5 -201.5q0 -67 -23.5 -134t-71 -132.5t-131.5 -121t-194 -90.5l-3 10q205 86 280 300q-39 -50 -116 -50q-97 0 -157.5 71t-60.5 173q0 107 67.5 182.5t167.5 75.5zM266 492q-126 0 -126 -243q0 -116 31.5 -167.5t92.5 -51.5q78 0 115 79
q18 74 18 145q0 101 -31 169.5t-100 68.5z" />
    <glyph glyph-name="oacute.pl" horiz-adv-x="563" 
d="M281 -15q-105 0 -181 75.5t-75 177.5q1 101 77 177.5t179 76.5q104 0 180.5 -76.5t76.5 -177.5q0 -102 -76 -177.5t-181 -75.5zM281 5q73 0 110 67t37 166q0 98 -37.5 166t-109.5 68t-109 -68t-37 -166q0 -99 36.5 -166t109.5 -67zM246 548l81 201l82 -55l-154 -152z" />
    <glyph glyph-name="one.osf" horiz-adv-x="263" 
d="M243 0h-214v2q32 33 42 64.5t10 95.5v267h-81v11l189 67h2v-345q0 -64 10 -95t42 -65v-2z" />
    <glyph glyph-name="plus.osf" horiz-adv-x="532" 
d="M487 232h-209v-209h-24v209h-209v22h209v209h24v-209h209v-22z" />
    <glyph glyph-name="sacute.pl" horiz-adv-x="399" 
d="M336 472l10 -109l-6 -2q-66 113 -155 113q-38 0 -60 -21t-22 -53q0 -19 8 -34t28.5 -28.5t33.5 -20t45 -19.5q9 -4 14 -6q32 -14 52.5 -25.5t43.5 -30.5t34.5 -46t11.5 -61q0 -71 -52 -107.5t-135 -36.5q-74 0 -147 26l-10 128l6 2q71 -138 164 -138q46 0 69 25.5
t23 60.5q0 36 -25 58.5t-81 46.5q-29 13 -42 19t-38 21.5t-36.5 30t-21.5 38.5t-10 53q0 71 50 103.5t124 32.5q70 0 124 -20zM163 548l81 201l82 -55l-154 -152z" />
    <glyph glyph-name="seven.osf" horiz-adv-x="450" 
d="M125 -245h-115q121 288 364 648h-348l22 94h392v-10q-171 -305 -315 -732z" />
    <glyph glyph-name="six.osf" horiz-adv-x="542" 
d="M277 -10q-109 0 -175.5 82.5t-66.5 201.5q0 67 23.5 134t71 132.5t131.5 121t194 90.5l3 -10q-205 -86 -280 -300q39 50 116 50q97 0 157.5 -71t60.5 -173q0 -107 -67.5 -182.5t-167.5 -75.5zM276 10q126 0 126 243q0 116 -31.5 167.5t-92.5 51.5q-78 0 -115 -79
q-18 -73 -18 -145q0 -101 31 -169.5t100 -68.5z" />
    <glyph glyph-name="three.osf" horiz-adv-x="469" 
d="M193 -245q-52 0 -97 13t-66 28l-25 146l8 2q47 -86 91 -128t98 -42q58 0 92.5 45.5t34.5 112.5q0 87 -55.5 142t-141.5 74v5q86 21 134.5 76t48.5 134q0 56 -23.5 90.5t-63.5 34.5q-81 0 -160 -153l-7 2l20 138q61 32 157 32q84 0 133 -37.5t49 -106.5q0 -117 -133 -172
q67 -28 109 -83t42 -130q0 -97 -69.5 -160t-175.5 -63z" />
    <glyph glyph-name="three.osfalt" horiz-adv-x="469" 
d="M193 -245q-52 0 -97 13t-66 28l-25 146l8 2q47 -86 91 -128t98 -42q58 0 92.5 45.5t34.5 112.5q0 87 -55.5 142t-141.5 74v5q86 21 131 67t45 112q0 55 -30.5 87t-87.5 32q-81 0 -130 -39l-5 6q69 89 188 89q79 0 127 -39.5t48 -106.5q0 -54 -32.5 -98t-98.5 -72
q67 -28 109 -83t42 -130q0 -97 -69.5 -160t-175.5 -63z" />
    <glyph glyph-name="two.osf" horiz-adv-x="490" 
d="M412 0h-386v8q133 87 190.5 173t57.5 177q0 61 -23.5 95t-62.5 34q-74 0 -140 -139l-7 2l20 124q57 33 142 33q87 0 136.5 -39t49.5 -112q0 -151 -226 -258h178q41 0 60.5 12t40.5 46l7 -3z" />
    <glyph glyph-name="two.osfalt" horiz-adv-x="490" 
d="M412 0h-386v8q136 89 196.5 167.5t60.5 155.5q0 56 -30 88t-88 32q-68 0 -117 -39l-5 6q69 89 188 89q79 0 127 -41t48 -111q0 -77 -59 -138t-180 -119h174q41 0 60.5 12t40.5 46l7 -3z" />
    <glyph glyph-name="zacute.pl" horiz-adv-x="447" 
d="M392 0h-377v7l282 453l-120 -4q-46 -1 -133 -93l-9 -9l-5 2l33 121h353v-8l-280 -452l131 3q41 1 77 30.5t78 81.5l5 -2zM202 548l81 201l82 -55l-154 -152z" />
    <glyph glyph-name="zero.osf" horiz-adv-x="547" 
d="M273 -10q-102 0 -175.5 77t-72.5 181t74.5 181.5t173.5 77.5q101 0 175 -77.5t74 -181.5t-73.5 -181t-175.5 -77zM273 10q67 0 100.5 68t33.5 170q0 101 -33.5 170t-100.5 69q-45 0 -76 -35t-44 -87t-13 -117q0 -102 33 -170t100 -68z" />
    </font>
</defs>
</svg>
