<?xml version="1.0" standalone="no"?>
<!DOCTYPE svg PUBLIC "-//W3C//DTD SVG 1.1//EN" "http://www.w3.org/Graphics/SVG/1.1/DTD/svg11.dtd" >
<svg xmlns="http://www.w3.org/2000/svg" xmlns:xlink="http://www.w3.org/1999/xlink" version="1.1">
<metadata>
Created by FontForge 20170731 at Thu May 11 15:31:58 2017
 By Aleksey,,,
Copyright (c) 2013 Schick Toikka. All rights reserved. Saol Display is a trademark of Schick Toikka. Unauthorised copying or modification of any of its data is illegal.
</metadata>
<defs>
<font id="SaolText-RegularItalic" horiz-adv-x="289" >
  <font-face 
    font-family="Saol Text Regular Italic"
    font-weight="400"
    font-style="italic"
    font-stretch="normal"
    units-per-em="1000"
    panose-1="0 0 5 0 0 0 0 0 0 0"
    ascent="750"
    descent="-250"
    x-height="497"
    cap-height="681"
    bbox="-299 -250 1419 1059"
    underline-thickness="50"
    underline-position="-200"
    unicode-range="U+0020-FB02"
  />
<missing-glyph horiz-adv-x="552" 
d="M325 -226h-449l383 1002h450zM281 242l-352 -443h369zM262 711l-334 -875l351 441zM304 271l17 -432l335 875zM656 751h-372l18 -445z" />
    <glyph glyph-name="fi" unicode="fi" horiz-adv-x="564" 
d="M513 347l-103 -213q-27 -56 -27 -76q0 -17 14 -17q22 0 95 94l14 -9q-96 -134 -154 -134q-25 0 -38.5 14t-13.5 36q0 35 32 101l103 213q27 56 27 76q0 17 -14 17q-23 0 -96 -94l-14 9q96 134 155 134q25 0 38.5 -14t13.5 -36q0 -35 -32 -101zM504 699q49 0 49 -32
q0 -15 -10.5 -23.5t-27.5 -8.5q-18 0 -55.5 13t-62.5 13q-44 0 -75.5 -27.5t-61.5 -104.5l-15 -39h120v-21h-127l-117 -346q-58 -173 -157 -266t-209 -93q-20 0 -32 9t-12 24t10.5 23.5t27.5 8.5q15 0 48 -10.5t50 -10.5q42 0 85.5 56t75.5 153l128 386q11 33 26 66h-80v21
h90q61 111 134 160t198 49z" />
    <glyph glyph-name="fl" unicode="fl" horiz-adv-x="541" 
d="M412 698q66 0 111 -47q66 26 87 74l14 -5l-235 -586q-25 -61 -25 -76q0 -17 15 -17q23 0 96 94l13 -9q-96 -134 -156 -134q-24 0 -37.5 14.5t-13.5 35.5q0 24 30 102l198 492q-36 42 -96 42q-56 0 -89 -36.5t-71 -131.5l-8 -20h120v-21h-127l-117 -346
q-58 -173 -157 -266t-208 -93q-20 0 -32.5 9t-12.5 24t10.5 23.5t27.5 8.5q15 0 48 -10.5t50 -10.5q42 0 85.5 56t75.5 153l128 386q9 29 26 66h-80v21h90q96 208 240 208z" />
    <glyph glyph-name="fb" unicode="fb" horiz-adv-x="769" 
d="M255 -4l248 641q-14 16 -41.5 28.5t-53.5 12.5q-54 0 -85 -35.5t-70 -132.5l-8 -20h120v-21h-127l-117 -346q-58 -173 -157 -266t-208 -93q-20 0 -32.5 9t-12.5 24t10.5 23.5t27.5 8.5q15 0 48 -10.5t50 -10.5q42 0 85 56t76 153l128 386q9 29 26 66h-80v21h90
q96 208 235 208q33 0 63.5 -14.5t46.5 -31.5q35 14 55 30.5t32 42.5l14 -5l-224 -579l152 223q48 70 82 102t69 32q27 0 46 -17t19 -54q0 -43 -24.5 -115.5t-63 -144t-93.5 -123.5t-108 -52q-23 0 -45.5 13t-35 26t-30.5 36q-68 -24 -93 -77zM654 449q-25 0 -90 -96
l-185 -273q46 -64 83 -64q36 0 76 52t68.5 121t47.5 133.5t19 92.5q0 34 -19 34z" />
    <glyph glyph-name="fj" unicode="fj" horiz-adv-x="556" 
d="M504 699q49 0 49 -32q0 -15 -10.5 -23.5t-27.5 -8.5q-18 0 -55.5 13t-62.5 13q-44 0 -76 -27.5t-61 -103.5l-15 -40h120v-21h-127l-117 -346q-58 -173 -157 -266t-209 -93q-20 0 -32 9t-12 24t10.5 23.5t27.5 8.5q15 0 48 -10.5t50 -10.5q42 0 85 55.5t76 153.5l128 386
q11 33 26 66h-80v21h90q61 111 134 160t198 49zM314 18l121 340q3 7 10 26t10.5 29.5t3.5 18.5q0 17 -15 17q-21 0 -94 -94l-14 9q96 134 154 134q25 0 38.5 -14t13.5 -36q0 -25 -29 -103l-87 -230q-65 -171 -159 -261t-205 -90q-21 0 -33 9t-12 24t11 23.5t28 8.5
q14 0 46.5 -10.5t50.5 -10.5q42 0 84 55.5t77 154.5z" />
    <glyph glyph-name="fh" unicode="fh" horiz-adv-x="796" 
d="M625 720l-256 -642l194 265q67 91 101 123t71 32q25 0 39.5 -14.5t14.5 -35.5q0 -35 -35 -109l-102 -207q-26 -54 -26 -74q0 -17 15 -17q22 0 95 94l14 -9q-96 -134 -156 -134q-25 0 -38.5 14t-13.5 36q0 32 33 100l98 201q33 69 33 87q0 20 -16 20q-8 0 -17 -6.5
t-31.5 -33.5t-59.5 -78l-242 -332q-7 0 -22.5 1t-21.5 1t-20 -1t-21 -1l255 636q-40 42 -97 42q-56 0 -89 -36.5t-71 -131.5l-8 -20h120v-21h-127l-117 -346q-58 -173 -157 -266t-208 -93q-20 0 -32.5 9t-12.5 24t10.5 23.5t27.5 8.5q15 0 48 -10.5t50 -10.5q42 0 85 56
t76 153l128 386q9 29 26 66h-80v21h90q96 208 240 208q65 0 112 -47q67 27 87 74z" />
    <glyph glyph-name="fk" unicode="fk" horiz-adv-x="763" 
d="M626 720l-175 -435h14q48 0 78 24.5t63 73.5q40 58 75 86.5t80 28.5q16 0 28 -9t12 -23t-10 -23t-27 -9q-12 0 -30 5t-31 5q-18 0 -34 -14.5t-45 -57.5q-23 -34 -34 -47.5t-33 -29.5t-48 -21q94 -7 94 -72q0 -19 -6.5 -71t-6.5 -66q0 -29 20 -29q19 0 44.5 23.5
t65.5 76.5l13 -10q-96 -134 -158 -134q-29 0 -46.5 16t-17.5 48q0 14 9 74t9 74q0 32 -12.5 45.5t-53.5 13.5h-20l-106 -263q-7 0 -20.5 1t-19.5 1q-7 0 -21 -1t-20 -1l255 636q-36 42 -98 42q-57 0 -90 -36.5t-71 -131.5l-7 -20h120v-21h-127l-117 -346q-58 -173 -157 -266
t-208 -93q-20 0 -32.5 9t-12.5 24t10.5 23.5t27.5 8.5q15 0 48 -10.5t50 -10.5q42 0 85 56t76 153l128 386q16 44 26 66h-80v21h90q96 208 240 208q67 0 114 -47q66 26 86 74z" />
    <glyph glyph-name="gf" unicode="gf" horiz-adv-x="733" 
d="M462 27l125 376q12 38 26 66h-77v21h87q109 209 298 209q21 0 34 -9t13 -24t-10.5 -23t-26.5 -8q-15 0 -47 10.5t-50 10.5q-45 0 -71 -27t-56 -109l-11 -30h120v-21h-128l-116 -346q-17 -50 -30.5 -84.5t-35 -75.5t-44 -68t-56 -54t-73.5 -42.5t-94 -25t-119 -9.5
q-44 0 -84.5 4t-77.5 13t-59.5 25t-22.5 38q0 57 156 122l40 17l-24 11q-68 30 -68 73q0 28 23.5 49.5t77.5 42.5l28 11q-31 34 -31 94q0 85 65.5 159.5t153.5 74.5q37 0 71 -28l7 7q71 71 123 71q15 0 25.5 -8.5t10.5 -22.5q0 -15 -10 -23t-26 -8q-11 0 -28.5 5t-29.5 5
q-20 0 -52 -32l-7 -7q27 -30 27 -89q0 -86 -66.5 -159t-152.5 -73q-33 0 -64 21l-31 -12q-55 -21 -55 -44q0 -12 11 -21t41 -22l146 -66q74 -33 104 -59t30 -57q0 -23 -14 -43q32 26 55 68t50 126zM121 -216q185 0 185 59q0 21 -20.5 36.5t-78.5 42.5l-112 51l-45 -20
q-104 -46 -104 -101q0 -68 175 -68zM186 155q34 0 72.5 48t64 112.5t25.5 112.5q0 51 -47 51q-34 0 -73 -48t-64 -112t-25 -111q0 -53 47 -53z" />
    <glyph glyph-name="gg" unicode="gg" horiz-adv-x="901" 
d="M584 -236q-90 0 -158.5 19.5t-68.5 60.5q0 56 131 122l34 17l-24 12q-67 33 -67 72q0 29 23.5 50.5t76.5 41.5l29 11q-31 34 -31 94q0 85 65.5 159.5t153.5 74.5q37 0 71 -28l7 7q71 71 122 71q16 0 26.5 -8.5t10.5 -22.5t-10.5 -22.5t-26.5 -8.5q-11 0 -28 5t-29 5
q-20 0 -52 -32l-7 -7q27 -32 27 -89q0 -86 -66.5 -159t-152.5 -73q-35 0 -64 21l-32 -12q-54 -20 -54 -44q0 -12 11 -21t41 -22l146 -66q75 -34 104.5 -59.5t29.5 -56.5q0 -56 -63 -84t-175 -28zM113 -236q-94 0 -165.5 19t-71.5 61q0 57 156 122l40 17l-24 11
q-68 30 -68 73q0 28 23.5 49.5t77.5 42.5l28 11q-31 34 -31 94q0 85 65.5 159.5t153.5 74.5q37 0 71 -28l7 7q71 71 123 71q15 0 25.5 -8.5t10.5 -22.5q0 -15 -10 -23t-26 -8q-11 0 -28.5 5t-29.5 5q-20 0 -52 -32l-7 -7q27 -30 27 -89q0 -86 -66.5 -159t-152.5 -73
q-33 0 -64 21l-31 -12q-55 -22 -55 -44q0 -12 11 -20.5t41 -23.5l132 -64q60 -29 84.5 -55.5t24.5 -58.5q0 -50 -61.5 -82.5t-157.5 -32.5zM585 -216q172 0 172 59q0 21 -20.5 36.5t-79.5 42.5l-111 51l-40 -20q-32 -16 -55.5 -42.5t-23.5 -54.5q0 -72 158 -72zM114 -216
q75 0 112.5 19.5t37.5 46.5q0 20 -15 35.5t-57 37.5l-97 50l-45 -20q-104 -46 -104 -102q0 -67 168 -67zM636 155q34 0 73 48t64.5 112.5t25.5 112.5q0 51 -48 51q-34 0 -73 -48t-64 -112t-25 -111q0 -53 47 -53zM186 155q34 0 72.5 48t64 112.5t25.5 112.5q0 51 -47 51
q-34 0 -73 -48t-64 -112t-25 -111q0 -53 47 -53z" />
    <glyph glyph-name="ggf" unicode="ggf" horiz-adv-x="1182" 
d="M584 -236q-90 0 -158.5 19.5t-68.5 60.5q0 56 131 122l34 17l-24 12q-67 32 -67 72q0 29 23.5 50.5t76.5 41.5l29 11q-31 34 -31 94q0 85 65.5 159.5t153.5 74.5q37 0 71 -28l7 7q71 71 122 71q16 0 26.5 -8.5t10.5 -22.5t-10.5 -22.5t-26.5 -8.5q-11 0 -28 5t-29 5
q-20 0 -52 -32l-7 -7q27 -32 27 -89q0 -86 -66.5 -159t-152.5 -73q-35 0 -64 21l-32 -12q-54 -20 -54 -44q0 -12 11 -21t41 -22l146 -66q75 -34 104.5 -59.5t29.5 -56.5q0 -25 -13 -44q34 24 53 63t51 132l125 376q12 38 26 66h-77v21h87q108 209 298 209q21 0 34 -9t13 -24
t-11 -23t-27 -8q-14 0 -46.5 10.5t-49.5 10.5q-45 0 -70.5 -26.5t-56.5 -108.5l-12 -31h120v-21h-127l-117 -346q-17 -51 -30.5 -85t-34 -75t-42.5 -67.5t-54.5 -54t-71 -43t-90.5 -25t-115 -9.5zM113 -236q-94 0 -165.5 19t-71.5 61q0 57 156 122l40 17l-24 11
q-68 30 -68 73q0 28 23.5 49.5t77.5 42.5l28 11q-31 34 -31 94q0 85 65.5 159.5t153.5 74.5q37 0 71 -28l7 7q71 71 123 71q15 0 25.5 -8.5t10.5 -22.5q0 -15 -10 -23t-26 -8q-11 0 -28.5 5t-29.5 5q-20 0 -52 -32l-7 -7q27 -30 27 -89q0 -86 -66.5 -159t-152.5 -73
q-33 0 -64 21l-31 -12q-55 -21 -55 -44q0 -12 11 -20.5t41 -23.5l132 -64q60 -29 84.5 -55.5t24.5 -58.5q0 -50 -61.5 -82.5t-157.5 -32.5zM585 -216q172 0 172 59q0 21 -20.5 36.5t-79.5 42.5q-1 1 -55 25.5t-56 25.5l-40 -20q-32 -16 -55.5 -42.5t-23.5 -54.5
q0 -72 158 -72zM114 -216q75 0 112.5 19.5t37.5 46.5q0 20 -15 35.5t-57 37.5l-97 50l-45 -20q-104 -46 -104 -102q0 -67 168 -67zM636 155q34 0 73 48t64.5 112.5t25.5 112.5q0 51 -48 51q-34 0 -73 -48t-64 -112t-25 -111q0 -53 47 -53zM186 155q34 0 72.5 48t64 112.5
t25.5 112.5q0 51 -47 51q-34 0 -73 -48t-64 -112t-25 -111q0 -53 47 -53z" />
    <glyph glyph-name="ggj" unicode="ggj" horiz-adv-x="1173" 
d="M584 -236q-89 0 -158 19.5t-69 60.5q0 56 131 122l34 17l-24 12q-67 32 -67 72q0 29 23.5 50.5t76.5 41.5l29 11q-31 34 -31 94q0 85 65.5 159.5t153.5 74.5q37 0 71 -28l7 7q71 71 122 71q16 0 26.5 -8.5t10.5 -22.5t-10.5 -22.5t-26.5 -8.5q-11 0 -28 5t-29 5
q-20 0 -52 -32l-7 -7q27 -32 27 -89q0 -86 -66.5 -159t-152.5 -73q-35 0 -64 21l-32 -12q-54 -20 -54 -44q0 -12 11 -21t41 -22l146 -66q75 -34 104.5 -59.5t29.5 -56.5q0 -27 -16 -47q41 27 70 72t64 141l113 316q3 7 10 26t10.5 29.5t3.5 18.5q0 17 -15 17q-22 0 -95 -94
l-13 9q94 134 154 134q25 0 38.5 -14t13.5 -36q0 -11 -3.5 -26t-6 -22.5t-11 -29.5t-9.5 -25l-82 -216q-35 -93 -72 -155.5t-90.5 -112.5t-127.5 -73.5t-174 -23.5zM113 -236q-94 0 -165.5 19t-71.5 61q0 57 156 122l40 17l-24 11q-68 30 -68 73q0 28 23.5 49.5t77.5 42.5
l28 11q-31 34 -31 94q0 85 65.5 159.5t153.5 74.5q37 0 71 -28l7 7q71 71 123 71q15 0 25.5 -8.5t10.5 -22.5q0 -15 -10 -23t-26 -8q-11 0 -28.5 5t-29.5 5q-20 0 -52 -32l-7 -7q27 -30 27 -89q0 -86 -66.5 -159t-152.5 -73q-33 0 -64 21l-31 -12q-55 -22 -55 -44
q0 -12 11 -20.5t41 -23.5l132 -64q60 -29 84.5 -55.5t24.5 -58.5q0 -50 -61.5 -82.5t-157.5 -32.5zM585 -216q172 0 172 59q0 21 -20.5 36.5t-79.5 42.5l-111 51l-40 -20q-32 -16 -55.5 -42.5t-23.5 -54.5q0 -72 158 -72zM114 -216q75 0 112.5 19.5t37.5 46.5q0 20 -15 35.5
t-57 37.5l-97 50l-45 -20q-104 -46 -104 -102q0 -67 168 -67zM636 155q34 0 73 48t64.5 112.5t25.5 112.5q0 51 -48 51q-34 0 -73 -48t-64 -112t-25 -111q0 -53 47 -53zM186 155q34 0 72.5 48t64 112.5t25.5 112.5q0 51 -47 51q-34 0 -73 -48t-64 -112t-25 -111
q0 -53 47 -53zM1182 586q-22 0 -36.5 14.5t-14.5 36.5t14.5 37t36.5 15t37 -15t15 -37t-15 -36.5t-37 -14.5z" />
    <glyph glyph-name="ggy" unicode="ggy" horiz-adv-x="1349" 
d="M584 -236q-90 0 -158.5 19.5t-68.5 60.5q0 56 131 122l34 17l-24 12q-67 33 -67 72q0 29 23.5 50.5t76.5 41.5l29 11q-31 34 -31 94q0 85 65.5 159.5t153.5 74.5q37 0 71 -28l7 7q71 71 122 71q16 0 26.5 -8.5t10.5 -22.5t-10.5 -22.5t-26.5 -8.5q-11 0 -28 5t-29 5
q-20 0 -52 -32l-7 -7q27 -32 27 -89q0 -86 -66.5 -159t-152.5 -73q-35 0 -64 21l-32 -12q-54 -20 -54 -44q0 -12 11 -21t41 -22l146 -66q75 -34 104.5 -59.5t29.5 -56.5q0 -22 -13 -42q88 40 201 147l19 18q24 188 24 359q0 45 -4.5 67t-21.5 22q-13 0 -30.5 -22.5
t-55.5 -81.5l-14 9q42 70 76 108t68 38q20 0 33 -11t18.5 -31.5t7.5 -40t2 -47.5q0 -120 -17 -281q111 125 149 186t38 116q0 10 -3.5 34t-3.5 33q0 18 9 30t25 12q13 0 23 -9t10 -29q0 -74 -56 -166t-193 -239l-7 -55q-4 0 -22.5 1t-22.5 0l-35 -34q-79 -75 -148 -120.5
t-161 -67.5q-61 -15 -133 -15zM113 -236q-94 0 -165.5 19t-71.5 61q0 57 156 122l40 17l-24 11q-68 30 -68 73q0 28 23.5 49.5t77.5 42.5l28 11q-31 34 -31 94q0 85 65.5 159.5t153.5 74.5q37 0 71 -28l7 7q71 71 123 71q15 0 25.5 -8.5t10.5 -22.5q0 -15 -10 -23t-26 -8
q-11 0 -28.5 5t-29.5 5q-20 0 -52 -32l-7 -7q27 -30 27 -89q0 -86 -66.5 -159t-152.5 -73q-33 0 -64 21l-31 -12q-55 -21 -55 -44q0 -12 11 -20.5t41 -23.5l132 -64q60 -29 84.5 -55.5t24.5 -58.5q0 -50 -61.5 -82.5t-157.5 -32.5zM585 -216q84 0 128 16.5t44 42.5
q0 21 -20.5 36.5t-79.5 42.5l-111 51l-40 -20q-32 -16 -55.5 -42.5t-23.5 -54.5q0 -72 158 -72zM114 -216q75 0 112.5 19.5t37.5 46.5q0 20 -15 35.5t-57 37.5l-97 50l-45 -20q-104 -46 -104 -102q0 -67 168 -67zM636 155q34 0 73 48t64.5 112.5t25.5 112.5q0 51 -48 51
q-34 0 -73 -48t-64 -112t-25 -111q0 -53 47 -53zM186 155q34 0 72.5 48t64 112.5t25.5 112.5q0 51 -47 51q-34 0 -73 -48t-64 -112t-25 -111q0 -53 47 -53z" />
    <glyph glyph-name="gj" unicode="gj" horiz-adv-x="722" 
d="M597 129q-28 -73 -54 -124t-65.5 -99.5t-87 -77.5t-116 -46.5t-154.5 -17.5q-44 0 -84.5 4t-77.5 13t-59.5 25t-22.5 38q0 57 156 122l40 17l-24 11q-68 30 -68 73q0 56 101 92l28 11q-31 34 -31 94q0 85 65.5 159.5t153.5 74.5q37 0 71 -28l7 7q71 71 123 71
q15 0 25.5 -8.5t10.5 -22.5q0 -15 -10 -23t-26 -8q-11 0 -28.5 5t-29.5 5q-20 0 -52 -32l-7 -7q27 -30 27 -89q0 -86 -66.5 -159t-152.5 -73q-33 0 -64 21l-31 -12q-55 -22 -55 -44q0 -12 11 -21t41 -22l146 -66q75 -34 104.5 -59.5t29.5 -56.5q0 -27 -16 -47q41 27 70 71.5
t64 141.5l113 316q3 7 10 26t10.5 29.5t3.5 18.5q0 17 -15 17q-22 0 -95 -94l-13 9q96 134 154 134q25 0 38.5 -14t13.5 -36q0 -25 -29 -103zM121 -216q185 0 185 59q0 21 -20.5 36.5t-78.5 42.5l-112 51l-45 -20q-104 -46 -104 -101q0 -68 175 -68zM186 155q34 0 72.5 48
t64 112.5t25.5 112.5q0 51 -47 51q-34 0 -73 -48t-64 -112t-25 -111q0 -53 47 -53zM731 586q-22 0 -36.5 14.5t-14.5 36.5t14.5 37t36.5 15q23 0 37.5 -14.5t14.5 -37.5q0 -22 -14.5 -36.5t-37.5 -14.5z" />
    <glyph glyph-name="gy" unicode="gy" horiz-adv-x="900" 
d="M620 498q20 0 33 -11t18.5 -31.5t7.5 -40t2 -47.5q0 -120 -17 -281q111 125 149 186t38 116q0 10 -3.5 34t-3.5 33q0 18 9 30t25 12q34 0 34 -38q0 -74 -56.5 -166t-193.5 -239l-6 -55q-4 0 -23 1t-23 0l-22 -21q-88 -83 -160.5 -131.5t-170.5 -70.5q-59 -14 -137 -14
q-44 0 -84.5 4t-77.5 13t-59.5 25t-22.5 38q0 57 156 122l40 17l-24 11q-68 30 -68 73q0 28 23.5 49.5t77.5 42.5l28 11q-31 34 -31 94q0 85 65.5 159.5t153.5 74.5q37 0 71 -28l7 7q71 71 123 71q15 0 25.5 -8.5t10.5 -22.5q0 -15 -10 -23t-26 -8q-11 0 -28.5 5t-29.5 5
q-20 0 -52 -32l-7 -7q27 -30 27 -89q0 -86 -66.5 -159t-152.5 -73q-33 0 -64 21l-31 -12q-55 -21 -55 -44q0 -12 11 -21t41 -22l146 -66q75 -34 104.5 -59.5t29.5 -56.5q0 -23 -12 -42q99 45 209 155l10 10q24 189 24 359q0 45 -4.5 67t-21.5 22q-13 0 -30.5 -22.5
t-55.5 -81.5l-14 9q44 72 77 109t67 37zM121 -216q185 0 185 59q0 21 -20.5 36.5t-78.5 42.5l-112 51l-45 -20q-104 -46 -104 -101q0 -68 175 -68zM186 155q34 0 72.5 48t64 112.5t25.5 112.5q0 51 -47 51q-34 0 -73 -48t-64 -112t-25 -111q0 -53 47 -53z" />
    <glyph glyph-name="qf" unicode="qf" horiz-adv-x="766" 
d="M288 -226h-17q-14 0 -37.5 1.5t-41.5 1.5t-42.5 -1.5t-37.5 -1.5h-48v17h41q53 0 73 53l198 507l-155 -228q-47 -69 -80.5 -100t-68.5 -31q-27 0 -46 17.5t-19 53.5q0 43 24.5 115t63 144t93.5 124t108 52t110 -75q70 26 93 77l14 -6l-254 -647q-9 -18 -9 -32
q0 -24 28 -24h10q36 0 64.5 12t47 29t36.5 51t28 61t27 77l127 382q12 38 26 66h-80v21h90q109 209 298 209q21 0 34 -9t13 -24t-10.5 -23t-26.5 -8q-14 0 -47 10.5t-50 10.5q-44 0 -70 -27.5t-57 -109.5l-11 -29h120v-21h-128l-116 -346q-62 -186 -137 -267.5t-178 -81.5z
M114 41q27 0 91 96l185 273q-46 64 -84 64q-47 0 -98.5 -86.5t-82 -180.5t-30.5 -134q0 -32 19 -32z" />
    <glyph glyph-name="qj" unicode="qj" horiz-adv-x="747" 
d="M114 41q27 0 91 96l185 273q-46 64 -84 64q-47 0 -98.5 -86.5t-82 -180.5t-30.5 -134q0 -32 19 -32zM762 586q-22 0 -36.5 14.5t-14.5 36.5t14.5 37t36.5 15t37 -14.5t15 -37.5q0 -22 -14.5 -36.5t-37.5 -14.5zM623 115q-135 -341 -332 -341h-20q-14 0 -37.5 1.5
t-41.5 1.5t-42.5 -1.5t-37.5 -1.5h-48v17h41q53 0 73 53l198 507l-155 -228q-47 -69 -80.5 -100t-68.5 -31q-27 0 -46 17.5t-19 53.5q0 43 24.5 115t63 144t93.5 124t108 52t110 -75q70 26 93 77l14 -6l-254 -647q-9 -18 -9 -32q0 -24 28 -24h10q45 0 81 18t62.5 53t45 72
t36.5 88l120 336q3 7 10 26t10.5 29.5t3.5 18.5q0 17 -15 17q-22 0 -95 -94l-13 9q96 134 154 134q25 0 38.5 -14t13.5 -36q0 -25 -29 -103z" />
    <glyph glyph-name=".notdef" horiz-adv-x="552" 
d="M325 -226h-449l383 1002h450zM281 242l-352 -443h369zM262 711l-334 -875l351 441zM304 271l17 -432l335 875zM656 751h-372l18 -445z" />
    <glyph glyph-name=".null" horiz-adv-x="0" 
 />
    <glyph glyph-name="nonmarkingreturn" horiz-adv-x="333" 
 />
    <glyph glyph-name="space" unicode=" " horiz-adv-x="173" 
 />
    <glyph glyph-name="exclam" unicode="!" horiz-adv-x="254" 
d="M120 214l-18 6l14 35q27 70 52 171q39 160 69 236q12 26 39 26q17 0 30 -11t13 -30q0 -39 -107 -235q-50 -91 -79 -164zM47 -8q-24 0 -41 16.5t-17 40.5t17.5 41t40.5 17t40.5 -17t17.5 -41t-17 -40.5t-41 -16.5z" />
    <glyph glyph-name="quotedbl" unicode="&#x22;" horiz-adv-x="320" 
d="M174 448l-15 5l4 11q20 63 28.5 123.5t11.5 70.5q10 33 41 33q18 0 30 -11.5t12 -30.5q0 -17 -16 -39.5t-44 -62.5t-48 -89zM308 448l-15 5l4 11q20 63 28.5 123.5t11.5 70.5q10 33 41 33q18 0 30 -11.5t12 -30.5q0 -17 -16 -39.5t-44 -62.5t-48 -89z" />
    <glyph glyph-name="numbersign" unicode="#" horiz-adv-x="562" 
d="M439 676l22 -13l-127 -197h124l135 210l22 -13l-127 -197h110v-25h-126l-135 -211h109v-25h-126l-127 -199l-23 13l120 186h-124l-127 -199l-23 13l120 186h-100v25h116l136 211h-100v25h116zM318 441l-135 -211h123l136 211h-124z" />
    <glyph glyph-name="dollar" unicode="$" horiz-adv-x="506" 
d="M75 126q0 -32 20 -59t60 -38l113 294l-7 8q-89 84 -89 162q0 82 58.5 135t142.5 53q15 0 31 -3l31 79l24 -8l-31 -77q48 -16 83 -51t35 -73q0 -19 -10 -31.5t-28 -12.5q-16 0 -25.5 10.5t-9.5 26.5q0 2 1 17.5t0 22.5q-3 47 -54 68l-100 -260l21 -21q51 -50 72.5 -85.5
t21.5 -83.5q0 -88 -67.5 -143.5t-155.5 -55.5q-20 0 -40 3l-30 -79l-24 8l28 76q-63 17 -103 59t-40 92q0 22 11 34.5t27 12.5t26 -10.5t10 -26.5q0 -6 -1 -19.5t-1 -23.5zM212 21q65 0 109.5 36.5t44.5 97.5q0 71 -78 149l-108 -281q10 -2 32 -2zM372 660q-64 0 -100 -33.5
t-36 -88.5q0 -66 64 -129l96 248q-9 3 -24 3z" />
    <glyph glyph-name="percent" unicode="%" horiz-adv-x="655" 
d="M398 -8q-43 0 -69.5 30.5t-26.5 78.5q0 77 60 155t146 78q37 0 60 -25.5t23 -66.5q0 -81 -59 -165.5t-134 -84.5zM404 15q59 0 110.5 77t51.5 150q0 31 -15.5 50t-42.5 19q-37 0 -74 -51t-57 -108t-20 -88q0 -49 47 -49zM223 346q-43 0 -70 30.5t-27 78.5t25 100.5
t74 92.5t108 40q43 0 70 -36q30 -42 80 -42q82 0 176 78l14 -14l-613 -690l-18 17l545 612q-53 -28 -103 -28q-43 0 -69 20q0 -1 0.5 -4.5t0.5 -4.5q0 -81 -59 -165.5t-134 -84.5zM229 369q59 0 110 77t51 150q0 31 -15.5 50t-41.5 19q-38 0 -74.5 -50.5t-56.5 -107.5
t-20 -89q0 -49 47 -49z" />
    <glyph glyph-name="ampersand" unicode="&#x26;" horiz-adv-x="771" 
d="M423 670q-65 0 -104.5 -50t-39.5 -127q0 -24 5 -40q38 11 74 11q43 0 64.5 -15t21.5 -37t-20.5 -35.5t-52.5 -13.5q-69 0 -116 50q-50 -30 -80 -90t-30 -130q0 -89 52 -133.5t147 -44.5q120 0 192 60.5t72 135.5q0 43 -25.5 68.5t-58.5 25.5q-34 0 -63.5 -24t-29.5 -60
q0 -22 12 -35.5t30 -13.5q32 0 47 35l13 -7q-8 -21 -26.5 -33.5t-42.5 -12.5q-34 0 -59 22t-25 62q0 86 121 133l146 56q111 43 152 80.5t41 77.5q0 33 -19 51t-46 18q-23 0 -41.5 -14t-18.5 -33q0 -13 15 -29.5t15 -31.5q0 -16 -9.5 -24.5t-23.5 -8.5q-18 0 -29.5 16
t-11.5 43q0 45 31 73.5t72 28.5q37 0 65 -26t28 -73q0 -131 -205 -207l-120 -45q36 -6 61.5 -36t25.5 -75q0 -83 -78 -151.5t-210 -68.5q-74 0 -138 22t-106.5 70.5t-42.5 115.5q0 76 50.5 137.5t129.5 97.5q-24 34 -24 77q0 76 64 127.5t143 51.5q67 0 115 -39.5t48 -81.5
q0 -18 -9.5 -29t-25.5 -11q-34 0 -34 38q0 4 0.5 14t0.5 15q0 29 -21.5 51t-67.5 22zM371 383q51 0 51 29q0 31 -63 31q-39 0 -69 -12q22 -48 81 -48z" />
    <glyph glyph-name="quotesingle" unicode="'" horiz-adv-x="185" 
d="M174 448l-15 5l4 11q20 63 28.5 123.5t11.5 70.5q10 33 41 33q18 0 30 -11.5t12 -30.5q0 -17 -16 -39.5t-44 -62.5t-48 -89z" />
    <glyph glyph-name="parenleft" unicode="(" horiz-adv-x="301" 
d="M453 728l9 -16q-77 -48 -126 -94t-94 -109q-70 -98 -110 -224.5t-40 -240.5q0 -111 40 -210l-16 -9q-32 62 -56 149.5t-24 150.5q0 189 106.5 342t310.5 261z" />
    <glyph glyph-name="parenright" unicode=")" horiz-adv-x="301" 
d="M-127 -175l-9 16q75 46 123 91t93 107q72 99 113 226.5t41 243.5q0 113 -40 210l16 9q32 -61 56 -149t24 -151q0 -188 -106.5 -341.5t-310.5 -261.5z" />
    <glyph glyph-name="asterisk" unicode="*" horiz-adv-x="372" 
d="M343 430q0 -13 -9.5 -22t-21.5 -9t-22 9t-10 22q0 16 10 52.5t13 66.5q-26 -18 -50 -43.5t-39 -34.5q-9 -6 -18 -6q-12 0 -21 10t-9 22q0 18 15 27q17 9 51 16.5t62 21.5q-28 15 -62 23t-51 17q-15 9 -15 27q0 12 9 22t21 10q9 0 18 -6q15 -8 39 -35t50 -44q-3 31 -13 67
t-10 52q0 13 10 22t22 9t21.5 -9t9.5 -22q0 -16 -10 -52.5t-13 -66.5q26 17 50 43.5t40 35.5q8 6 17 6q13 0 21.5 -9.5t8.5 -22.5q0 -18 -15 -27q-17 -9 -50.5 -17t-62.5 -23q28 -14 62 -21.5t51 -16.5q15 -9 15 -27q0 -13 -8.5 -22.5t-21.5 -9.5q-9 0 -17 6q-16 9 -40 35
t-50 43q3 -30 13 -66.5t10 -52.5z" />
    <glyph glyph-name="plus" unicode="+" horiz-adv-x="500" 
d="M381 538l-78 -203h178v-25h-189l-80 -210l-25 9l76 201h-178v25h189l81 212z" />
    <glyph glyph-name="comma" unicode="," horiz-adv-x="237" 
d="M42 -3q-22 0 -37.5 15.5t-15.5 37.5q0 23 16 39.5t41 16.5t42.5 -16.5t17.5 -45.5q0 -62 -47.5 -104.5t-104.5 -49.5l-3 18q47 8 82 37t45 66q-12 -14 -36 -14z" />
    <glyph glyph-name="hyphen" unicode="-" horiz-adv-x="310" 
d="M254 250h-161v63h161v-63z" />
    <glyph glyph-name="period" unicode="." horiz-adv-x="230" 
d="M44 -6q-23 0 -39.5 16t-16.5 39t16.5 39.5t39.5 16.5t39.5 -16.5t16.5 -39.5t-16.5 -39t-39.5 -16z" />
    <glyph glyph-name="slash" unicode="/" horiz-adv-x="335" 
d="M494 714l-612 -893l-22 15l612 893z" />
    <glyph glyph-name="zero" unicode="0" horiz-adv-x="589" 
d="M213 13q60 0 121.5 66t104.5 156.5t70 181t27 144.5q0 47 -24 77t-64 30q-60 0 -122 -66t-104.5 -156.5t-69.5 -181t-27 -144.5q0 -47 24 -77t64 -30zM445 691q71 0 113 -58t42 -140q0 -107 -51 -223t-142.5 -198t-191.5 -82q-71 0 -112.5 58.5t-41.5 138.5q0 108 51 224
t142 198t191 82z" />
    <glyph glyph-name="one" unicode="1" horiz-adv-x="344" 
d="M71 81l174 451q4 12 4 18q0 12 -12 12t-41 -13l-20 -9l-7 19q71 30 129 68t75 68l16 -7l-236 -612q-8 -19 -8 -31q0 -26 33 -26h14v-19h-36q-11 0 -33.5 1.5t-37.5 1.5t-38.5 -1.5t-34.5 -1.5h-45v19h27q29 0 46 14t31 48z" />
    <glyph glyph-name="two" unicode="2" horiz-adv-x="519" 
d="M413 74l-82 -142l-14 6q11 22 11 35q0 27 -43 27h-322v13l118 93q85 67 150 124t126.5 122t94.5 125t33 110q0 40 -22 61.5t-61 21.5q-96 0 -157 -118q-15 -30 -39 -30q-17 0 -27 10t-10 26q0 44 78.5 88.5t155.5 44.5q61 0 112 -37t51 -98q0 -29 -13 -59t-43 -65
t-57.5 -62.5t-79.5 -69t-84.5 -66t-97.5 -72.5t-95 -70l-24 -18h341z" />
    <glyph glyph-name="three" unicode="3" horiz-adv-x="550" 
d="M418 670q-99 0 -159 -117q-16 -31 -40 -31q-15 0 -25 10t-10 25q0 45 79.5 89.5t155.5 44.5q60 0 108 -33.5t48 -84.5q0 -59 -60.5 -110t-146.5 -81q47 3 88 -31.5t41 -93.5q0 -97 -96.5 -182t-210.5 -85q-88 0 -135.5 48t-47.5 107q0 23 11 36.5t30 13.5q14 0 24.5 -10
t10.5 -28q0 -9 -1.5 -27.5t-1.5 -31.5q0 -41 29 -64t79 -23q59 0 113 50.5t84 119t30 126.5q0 25 -12.5 42t-35.5 17q-21 0 -50 -13l-80 -37l-9 20l104 48q68 31 116 89t48 114q0 83 -78 83z" />
    <glyph glyph-name="four" unicode="4" horiz-adv-x="551" 
d="M297 219l156 409l-409 -409h253zM243 81l44 115h-280v18l467 467q8 0 25 -0.5t21 -0.5t17 0.5t21 0.5l-178 -462h8q29 0 58 22.5t108 107.5l12 -8l-84 -145h-111l-47 -121q-7 -16 -7 -31q0 -26 33 -26h14v-18h-37q-10 0 -33 1.5t-38 1.5t-38.5 -1.5t-34.5 -1.5h-43v18h26
q29 0 46 14.5t31 48.5z" />
    <glyph glyph-name="five" unicode="5" horiz-adv-x="538" 
d="M13 125q0 20 11.5 32t27.5 12q15 0 25 -10.5t10 -26.5q0 -6 -1 -22t-1 -24q0 -32 23.5 -53.5t69.5 -21.5q62 0 114.5 52.5t79.5 121.5t27 130q0 108 -87 108q-84 0 -172 -95l-18 12q170 341 171 341h241q35 0 54.5 10t38.5 37l12 -7l-70 -115h-289l-112 -224
q68 64 153 64q66 0 111.5 -44t45.5 -114q0 -116 -90 -207t-206 -91q-74 0 -121.5 42t-47.5 93z" />
    <glyph glyph-name="six" unicode="6" horiz-adv-x="545" 
d="M581 674q-131 -13 -226 -90t-153 -193q65 55 141 55q65 0 109.5 -43t44.5 -117q0 -112 -88.5 -204t-197.5 -92q-68 0 -110.5 55.5t-42.5 141.5q0 188 149.5 339t372.5 166zM329 424q-29 0 -69 -18t-75 -52q-61 -138 -61 -230q0 -44 20.5 -78t62.5 -34q58 0 108 54t76 124
t26 127q0 107 -88 107z" />
    <glyph glyph-name="seven" unicode="7" horiz-adv-x="471" 
d="M197 34q-10 -42 -50 -42q-20 0 -33 13t-13 34q0 23 15 53q133 323 385 514h-232q-68 0 -120 -79l-14 8l108 190l13 -6q-7 -14 -7 -21q0 -17 22 -17h335v-13q-100 -75 -166.5 -143t-113 -144.5t-75 -155t-54.5 -191.5z" />
    <glyph glyph-name="eight" unicode="8" horiz-adv-x="551" 
d="M569 545q0 -59 -42.5 -109.5t-136.5 -80.5q38 -43 58 -81.5t20 -85.5q0 -92 -70 -145t-159 -53q-86 0 -145.5 47t-59.5 126q0 166 222 225q-48 67 -48 128q0 80 55.5 127.5t134.5 47.5q67 0 119 -41t52 -105zM320 315l-52 57q-80 -27 -119 -88t-39 -136q0 -57 33 -96.5
t96 -39.5q68 0 110.5 41t42.5 107q0 49 -17.5 82.5t-54.5 72.5zM332 421l46 -52q129 57 129 190q0 51 -28 80.5t-81 29.5q-57 0 -90.5 -34.5t-33.5 -85.5q0 -39 14 -66t44 -62z" />
    <glyph glyph-name="nine" unicode="9" horiz-adv-x="545" 
d="M37 -11l-1 18q130 13 225.5 90t153.5 193q-29 -25 -68.5 -40t-72.5 -15q-66 0 -110 42.5t-44 117.5q0 112 88.5 204t196.5 92q68 0 110.5 -55.5t42.5 -141.5q0 -122 -65.5 -233.5t-186.5 -186.5t-269 -85zM287 257q30 0 69.5 18t74.5 52q62 137 62 230q0 44 -20.5 78
t-62.5 34q-58 0 -108.5 -54t-76.5 -124t-26 -127q0 -107 88 -107z" />
    <glyph glyph-name="colon" unicode=":" horiz-adv-x="239" 
d="M188 360q-23 0 -39.5 16t-16.5 39t16.5 39.5t39.5 16.5t39.5 -16.5t16.5 -39.5t-16.5 -39t-39.5 -16zM48 -6q-23 0 -39.5 16t-16.5 39t16.5 39.5t39.5 16.5t39.5 -16.5t16.5 -39.5t-16.5 -39t-39.5 -16z" />
    <glyph glyph-name="semicolon" unicode=";" horiz-adv-x="245" 
d="M46 -3q-22 0 -37.5 15.5t-15.5 37.5q0 23 16 39.5t41 16.5t42.5 -16.5t17.5 -45.5q0 -62 -47.5 -104.5t-104.5 -49.5l-3 18q47 8 82 37t45 66q-12 -14 -36 -14zM188 360q-23 0 -39.5 16t-16.5 39t16.5 39.5t39.5 16.5t39.5 -16.5t16.5 -39.5t-16.5 -39t-39.5 -16z" />
    <glyph glyph-name="less" unicode="&#x3c;" horiz-adv-x="452" 
d="M87 336l405 173l10 -24l-384 -164l251 -161l-13 -22l-275 176z" />
    <glyph glyph-name="equal" unicode="=" horiz-adv-x="500" 
d="M120 400v26h396v-26h-396zM51 221v25h396v-25h-396z" />
    <glyph glyph-name="greater" unicode="&#x3e;" horiz-adv-x="452" 
d="M432 311l-404 -173l-10 24l384 164l-252 161l14 22l275 -176z" />
    <glyph glyph-name="question" unicode="?" horiz-adv-x="339" 
d="M142 214l-17 6l76 200q187 71 187 161q0 25 -15.5 39t-41.5 14q-22 0 -49.5 -14t-39.5 -14q-16 0 -26.5 9.5t-10.5 24.5q0 48 84 48q54 0 88.5 -31.5t34.5 -84.5q0 -149 -225 -246zM68 -8q-24 0 -41 16.5t-17 40.5t17 41t41 17q23 0 40 -17t17 -41t-17 -40.5t-40 -16.5z
" />
    <glyph glyph-name="at" unicode="@" horiz-adv-x="856" 
d="M448 -149q-164 0 -276.5 112.5t-112.5 281.5q0 163 113 279.5t274 116.5q147 0 251.5 -93t104.5 -240q0 -109 -72.5 -200.5t-174.5 -91.5q-40 0 -66.5 21.5t-26.5 60.5q0 46 30 119l50 123l-139 -211q-39 -59 -69 -85.5t-68 -26.5q-29 0 -46.5 17t-17.5 49q0 53 37.5 144
t81.5 150q74 97 150 97q48 0 101 -61q71 14 97 65l15 -5l-114 -280q-27 -65 -27 -102q0 -40 38 -40q72 0 132 80.5t60 176.5q0 136 -96 221t-231 85q-150 0 -254.5 -108t-104.5 -261q0 -158 104 -262.5t257 -104.5q105 0 195 54t126 146l23 -9q-38 -102 -135 -160t-209 -58z
M312 70q21 0 70 73l171 254q-36 48 -69 48q-47 0 -98 -89q-37 -63 -63.5 -147t-26.5 -119q0 -20 16 -20z" />
    <glyph glyph-name="A" unicode="A" horiz-adv-x="619" 
d="M533 0h-33q-7 0 -29.5 1.5t-36.5 1.5q-16 0 -43.5 -1.5t-33.5 -1.5h-23v18h9q25 1 41 18t17 44l3 102h-283l-41 -52q-33 -42 -34 -70q0 -42 45 -42h6v-18h-23q-12 0 -38.5 1.5t-37.5 1.5q-8 0 -36 -1.5t-37 -1.5h-21v18h10q32 0 65 29.5t83 95.5l347 464l-2 74
q9 0 23.5 -1t21.5 -1q8 0 20 1t19 1l-10 -601q-1 -32 11 -47t39 -15h2v-18zM404 205l5 365l-272 -365h267z" />
    <glyph glyph-name="B" unicode="B" horiz-adv-x="590" 
d="M234 0h-114q-12 0 -34.5 0.5t-36.5 0.5q-15 0 -38 -0.5t-33 -0.5h-33v18h15q29 0 46 14.5t30 48.5l201 524q8 22 8 31q0 27 -33 27h-13v18h39q11 0 33 -0.5t37 -0.5q16 0 38 0.5t34 0.5h77q77 0 119.5 -30.5t42.5 -91.5q0 -83 -66.5 -145t-152.5 -69q56 -5 91.5 -36.5
t35.5 -87.5q0 -88 -77.5 -154.5t-215.5 -66.5zM240 23q44 0 80.5 19t58.5 46t38 59.5t22 58t6 41.5q0 46 -21.5 65.5t-83.5 19.5h-122l-120 -309h142zM346 356q50 0 90 27t62 65.5t33.5 74t11.5 59.5q0 39 -20 57.5t-74 18.5h-107l-115 -302h119z" />
    <glyph glyph-name="C" unicode="C" horiz-adv-x="595" 
d="M241 -10q-76 0 -127.5 57t-51.5 157q0 113 55.5 226.5t147.5 187t189 73.5q29 0 68.5 -9t48.5 -9q27 0 25 30l15 1l25 -234l-16 -3q-26 95 -61 148.5t-97 53.5q-77 0 -149 -65t-116 -166.5t-44 -205.5q0 -85 38 -130t105 -45q108 0 214 138l14 -10q-58 -88 -134 -141.5
t-149 -53.5z" />
    <glyph glyph-name="D" unicode="D" horiz-adv-x="634" 
d="M213 0h-91q-12 0 -35 0.5t-39 0.5q-14 0 -37 -0.5t-33 -0.5h-33v18h13q30 0 47.5 14.5t30.5 48.5l202 524q7 20 7 31q0 26 -33 26h-13v19h39q10 0 32 -0.5t37 -0.5q16 0 38.5 0.5t34.5 0.5h52q93 0 150 -49.5t57 -156.5q0 -48 -14.5 -107.5t-48.5 -125t-81.5 -119
t-121.5 -88.5t-160 -35zM219 23q68 0 128.5 45t100 111t68.5 140.5t42 132.5t13 88q0 63 -38.5 90.5t-113.5 27.5h-77l-243 -635h120z" />
    <glyph glyph-name="E" unicode="E" horiz-adv-x="589" 
d="M385 -33l-14 5q12 28 -18 28h-236q-11 0 -32 0.5t-36 0.5q-14 0 -38 -0.5t-35 -0.5h-31v18h13q30 0 47 14.5t30 48.5l203 525q8 22 8 31q0 26 -33 26h-14v18h38q11 0 33.5 -0.5t37.5 -0.5t38.5 0.5t34.5 0.5h187q21 0 31 7t11 23h15l3 -237l-16 -2q-9 32 -16.5 63.5
t-12 49.5t-10.5 35q-7 21 -21.5 29.5t-42.5 8.5h-166l-117 -301h107q42 0 71 31.5t63 98.5l15 -5l-109 -284l-16 4q17 53 17 82q0 50 -49 50h-107l-120 -311h174q33 0 53.5 9t52.5 39q33 31 145 150l13 -9z" />
    <glyph glyph-name="F" unicode="F" horiz-adv-x="545" 
d="M187 0h-67q-10 0 -32.5 1.5t-37.5 1.5t-39 -1.5t-34 -1.5h-32v18h15q28 0 45.5 14.5t30.5 48.5l202 525q7 20 7 31q0 26 -33 26h-13v18h37q11 0 34 -0.5t38 -0.5t38.5 0.5t34.5 0.5h188q38 0 41 30h15l4 -235l-16 -2q-28 111 -40 145q-8 22 -21.5 30.5t-41.5 8.5h-168
l-120 -310h107q44 0 72.5 32.5t61.5 97.5l16 -5l-110 -284l-15 4q17 49 17 82q0 26 -11.5 38t-37.5 12h-107l-96 -250q-8 -22 -8 -31q0 -26 35 -26h41v-18z" />
    <glyph glyph-name="G" unicode="G" horiz-adv-x="647" 
d="M466 -8l-14 3q12 53 -32 71q-93 -76 -184 -76q-77 0 -125 59.5t-48 160.5q0 77 31 161.5t83.5 155.5t130.5 117.5t163 46.5q24 0 62.5 -9t50.5 -9q26 0 24 30l15 1l25 -234l-16 -3q-8 31 -16 54t-21.5 53t-29 49t-39 32.5t-51.5 13.5q-87 0 -163 -84q-78 -86 -127 -222.5
t-49 -218.5q0 -55 25 -92.5t84 -37.5q45 0 93 23t81 52l52 137q9 25 9 32q0 25 -34 25h-13v18h37q10 0 34 -1.5t39 -1.5q14 0 36.5 1.5t33.5 1.5h32v-18h-14q-29 0 -46.5 -14.5t-30.5 -47.5z" />
    <glyph glyph-name="H" unicode="H" horiz-adv-x="679" 
d="M550 0h-37q-11 0 -33.5 1.5t-37.5 1.5t-38 -1.5t-34 -1.5h-32v18h14q30 0 47 14.5t30 48.5l99 254h-309l-100 -260q-8 -22 -8 -31q0 -26 34 -26h12v-18h-37q-11 0 -33.5 1.5t-37.5 1.5t-38 -1.5t-34 -1.5h-32v18h14q30 0 47 14.5t30 48.5l202 525q8 22 8 31q0 26 -33 26
h-14v18h38q10 0 33 -1.5t38 -1.5t38 1.5t33 1.5h32v-18h-13q-30 0 -47 -14.5t-30 -48.5l-94 -242h309l95 248q8 22 8 31q0 26 -33 26h-14v18h38q10 0 33 -1.5t38 -1.5t38 1.5t33 1.5h32v-18h-13q-29 0 -46 -14.5t-31 -48.5l-202 -525q-8 -22 -8 -31q0 -26 34 -26h12v-18z
" />
    <glyph glyph-name="I" unicode="I" horiz-adv-x="286" 
d="M157 0h-37q-11 0 -33.5 1.5t-37.5 1.5t-38 -1.5t-34 -1.5h-32v18h13q30 0 47 14.5t30 48.5l203 525q7 20 7 31q0 26 -33 26h-13v18h38q10 0 33 -1.5t38 -1.5t38 1.5t33 1.5h32v-18h-14q-30 0 -47 -14.5t-30 -48.5l-202 -525q-8 -22 -8 -31q0 -26 34 -26h13v-18z" />
    <glyph glyph-name="J" unicode="J" horiz-adv-x="314" 
d="M-114 -107q-19 0 -31.5 9.5t-12.5 24.5q1 16 12.5 25t28.5 9q15 0 40.5 -13t40.5 -13q26 0 46.5 23t41.5 81l209 567q8 22 8 31q0 26 -34 26h-13v18h38q10 0 32.5 -1.5t37.5 -1.5t38.5 1.5t33.5 1.5h32v-18h-13q-30 0 -47 -14.5t-30 -48.5l-151 -406
q-57 -152 -139 -226.5t-168 -74.5z" />
    <glyph glyph-name="K" unicode="K" horiz-adv-x="636" 
d="M534 0h-44q-6 0 -27 1.5t-37 1.5q-15 0 -38 -1.5t-29 -1.5h-36v18h8q54 0 54 39q0 13 -2 24l-44 266l-171 -144l-50 -128q-8 -19 -8 -31q0 -26 35 -26h12v-18h-37q-11 0 -33.5 1.5t-37.5 1.5t-38 -1.5t-34 -1.5h-32v18h14q29 0 46 14.5t30 48.5l203 525q7 16 7 31
q0 26 -32 26h-14v18h38q10 0 33 -1.5t38 -1.5t38 1.5t33 1.5h32v-18h-13q-29 0 -46.5 -13.5t-30.5 -47.5l-137 -356l151 128l-6 38q6 0 16.5 -0.5t19 -0.5t15.5 1l189 158q48 39 48 63q0 30 -34 30h-5v18h28q9 0 35.5 -1.5t35.5 -1.5q13 0 36 1.5t31 1.5h28v-18h-13
q-48 -1 -173 -107l-177 -150l58 -337q4 -28 17.5 -39.5t40.5 -11.5h9v-18z" />
    <glyph glyph-name="L" unicode="L" horiz-adv-x="528" 
d="M347 -32l-14 5q11 27 -19 27h-197q-11 0 -32 0.5t-36 0.5q-14 0 -38 -0.5t-34 -0.5h-32v18h14q29 0 46.5 15t29.5 48l203 525q8 19 8 31q0 26 -33 26h-14v18h38q10 0 33 -1.5t38 -1.5t38 1.5t33 1.5h32v-18h-13q-30 0 -47 -14.5t-30 -48.5l-223 -577h131q34 0 55.5 9.5
t53.5 40.5q40 39 152 162l13 -9z" />
    <glyph glyph-name="M" unicode="M" horiz-adv-x="823" 
d="M693 18v-18h-37q-11 0 -33.5 1.5t-37.5 1.5t-38 -1.5t-34 -1.5h-32v18h13q30 0 47 14.5t30 48.5l217 558l-425 -566l3 -73q-11 0 -22.5 0.5t-17.5 0.5q-7 0 -19.5 -0.5t-21.5 -0.5l-23 584l-170 -444q-19 -48 -19 -71q0 -51 45 -51h8v-18h-32q-6 0 -29 1.5t-37 1.5
q-15 0 -35 -1.5t-26 -1.5h-30v18h12q69 0 119 128l186 480q-5 37 -41 37h-16v18h36q11 0 29 -0.5t27 -0.5q11 0 26.5 0.5t24.5 0.5l22 -570l428 570q6 0 27.5 -0.5t28.5 -0.5q15 0 36.5 0.5t32.5 0.5h33v-18h-11q-30 0 -47.5 -12.5t-29.5 -42.5l-206 -533q-7 -17 -7 -31
q0 -26 33 -26h13z" />
    <glyph glyph-name="N" unicode="N" horiz-adv-x="661" 
d="M482 70l17 -70q-11 0 -24 0.5t-18 0.5q-8 0 -19 -0.5t-20 -0.5l-152 592l-174 -451q-18 -47 -18 -73q0 -50 44 -50h9v-18h-32q-6 0 -29 1.5t-37 1.5q-16 0 -36 -1.5t-26 -1.5h-30v18h12q70 0 120 128l185 482q-11 35 -45 35h-19v18h38q11 0 27 -0.5t26 -0.5q12 0 24 0.5
t22 0.5l145 -572l166 431q19 48 19 72q0 51 -45 51h-9v18h33q7 0 30 -1.5t37 -1.5q15 0 35 1.5t27 1.5h28v-18h-11q-41 0 -69.5 -33.5t-52.5 -97.5z" />
    <glyph glyph-name="O" unicode="O" horiz-adv-x="644" 
d="M244 -10q-80 0 -130.5 60.5t-50.5 155.5q0 75 30 159.5t81.5 157t129.5 120.5t164 48q81 0 131.5 -60.5t50.5 -155.5q0 -60 -18.5 -126.5t-55 -130t-85 -114.5t-113 -82.5t-134.5 -31.5zM241 14q60 0 116 43t95.5 108t69.5 138.5t45 136t15 100.5q0 58 -30.5 92.5
t-80.5 34.5q-73 0 -140.5 -65t-109 -154.5t-66 -173.5t-24.5 -133q0 -58 30 -92.5t80 -34.5z" />
    <glyph glyph-name="P" unicode="P" horiz-adv-x="564" 
d="M157 0h-37q-11 0 -33 1.5t-37 1.5t-38.5 -1.5t-33.5 -1.5h-33v18h14q30 0 47 14.5t30 48.5l202 525q8 22 8 31q0 26 -33 26h-14v18h38q10 0 33 -0.5t38 -0.5q16 0 39 0.5t35 0.5h91q75 0 117.5 -35.5t42.5 -95.5q0 -42 -19.5 -84.5t-55 -78.5t-91.5 -58.5t-123 -22.5
h-135l-90 -231q-8 -22 -8 -31q0 -26 34 -26h12v-18zM345 330q45 0 83 21t61 51t38.5 65.5t22 63t6.5 44.5q0 44 -20.5 63.5t-73.5 19.5h-119l-126 -328h128z" />
    <glyph glyph-name="Q" unicode="Q" horiz-adv-x="644" 
d="M244 -10q-15 0 -30 3l-121 -92q55 22 98 22q46 0 82 -31l39 -35q45 -40 82 -40q38 0 105 69l12 -10q-41 -45 -60.5 -64t-46 -34t-53.5 -15q-40 0 -90 43l-40 35q-53 46 -87 46q-47 0 -106 -32l-9 14l170 130q-58 18 -92 73.5t-34 133.5q0 75 30 159.5t81.5 157
t129.5 120.5t164 48q81 0 131.5 -60.5t50.5 -155.5q0 -60 -18.5 -126.5t-55 -130t-85 -114.5t-113 -82.5t-134.5 -31.5zM241 14q73 0 140.5 65t109 154.5t66 173.5t24.5 133q0 58 -30 92.5t-80 34.5q-73 0 -140.5 -65t-109 -154.5t-66 -173.5t-24.5 -133q0 -58 30 -92.5
t80 -34.5z" />
    <glyph glyph-name="R" unicode="R" horiz-adv-x="615" 
d="M632 552q0 -95 -81 -164t-200 -69q5 -27 18 -38t49 -11l26 -174q7 -47 20 -61t45 -16h10v-19h-16q-20 0 -37.5 1.5t-35.5 1.5q-10 0 -26.5 -1.5t-26.5 -1.5l-48 319h-118l-93 -244q-8 -22 -8 -31q0 -26 35 -26h12v-18h-37q-11 0 -33.5 1.5t-37.5 1.5q-14 0 -37.5 -1.5
t-33.5 -1.5h-33v18h14q29 0 46 14.5t30 48.5l202 524q8 20 8 32q0 26 -32 26h-14v18h37q11 0 34 -0.5t38 -0.5t36.5 0.5t32.5 0.5h108q69 0 108 -34.5t39 -94.5zM343 658l-123 -316h120q49 0 89.5 20t63.5 48.5t39 62.5t21.5 59t5.5 40q0 44 -19 65t-70 21h-127z" />
    <glyph glyph-name="S" unicode="S" horiz-adv-x="526" 
d="M232 -10q-34 0 -81.5 14t-59.5 14q-26 0 -26 -26l-15 -2l-29 241l16 3q37 -122 85 -172.5t111 -50.5q58 0 95.5 36t37.5 95q0 78 -82 168l-29 32q-72 78 -72 163q0 78 55 132t130 54q25 0 61 -8.5t46 -8.5q28 0 26 28l15 1l38 -217l-16 -3q-62 187 -171 187
q-49 0 -82.5 -34t-33.5 -87q0 -71 67 -146l30 -34q50 -56 72.5 -94.5t22.5 -85.5q0 -84 -64.5 -141.5t-146.5 -57.5z" />
    <glyph glyph-name="T" unicode="T" horiz-adv-x="590" 
d="M306 0h-38q-10 0 -32 1.5t-37 1.5t-38.5 -1.5t-34.5 -1.5h-32v18h14q30 0 47 14.5t30 48.5l222 577h-75q-26 0 -40.5 -6t-35.5 -30q-1 -1 -49 -58.5t-98 -114.5l-13 9l142 254l14 -5q-9 -26 20 -26h90q9 0 42.5 -0.5t52.5 -0.5q18 0 44.5 0.5t35.5 0.5h88q37 0 43 30
l15 -2l-28 -258h-16q-15 141 -22 171q-4 22 -13.5 29t-33.5 7h-79l-223 -583q-8 -22 -8 -31q0 -26 34 -26h12v-18z" />
    <glyph glyph-name="U" unicode="U" horiz-adv-x="616" 
d="M227 -8q-79 0 -123.5 36.5t-44.5 99.5q0 47 29 123l137 355q8 21 8 31q0 26 -34 26h-13v18h38q10 0 32.5 -1.5t37.5 -1.5t38 1.5t34 1.5h32v-18h-12q-30 0 -47.5 -14.5t-30.5 -48.5l-137 -354q-32 -82 -32 -129q0 -44 28 -69.5t82 -25.5q156 0 234 201l120 311
q21 55 21 79q0 50 -45 50h-8v18h32q6 0 29.5 -1.5t37.5 -1.5q16 0 35.5 1.5t24.5 1.5h31v-18h-14q-41 0 -69 -37t-52 -99l-120 -311q-86 -224 -279 -224z" />
    <glyph glyph-name="V" unicode="V" horiz-adv-x="597" 
d="M271 0q-9 0 -20.5 1t-18.5 1t-20 -1t-20 -1l12 602q1 61 -51 61h-2v18h33q7 0 31.5 -1.5t38.5 -1.5q16 0 41.5 1.5t31.5 1.5h25v-18h-11q-25 -1 -41 -17.5t-17 -44.5l-10 -488l321 442q33 46 33 73q0 35 -43 35h-10v18h23q12 0 38.5 -1.5t37.5 -1.5q8 0 36 1.5t37 1.5h21
v-18h-6q-33 0 -67 -28t-81 -93l-340 -467z" />
    <glyph glyph-name="W" unicode="W" horiz-adv-x="929" 
d="M617 0q-9 0 -21 1t-19 1q-8 0 -20.5 -1t-19.5 -1l20 493l-290 -418l-3 -75q-8 0 -20.5 1t-19.5 1q-8 0 -20.5 -1t-19.5 -1l25 600q3 63 -50 63h-3v18h34q7 0 30 -1.5t37 -1.5q16 0 43 1.5t33 1.5h24v-18h-9q-25 -1 -42 -17t-18 -45l-22 -488l292 422l4 65q4 63 -50 63h-3
v18h34q7 0 31.5 -1.5t38.5 -1.5q16 0 42 1.5t31 1.5h24v-18h-9q-26 -1 -42 -17t-17 -46l-23 -488l305 443q29 41 29 72q0 36 -41 36h-9v18h23q11 0 38 -1.5t37 -1.5q9 0 37 1.5t36 1.5h21v-18h-6q-64 0 -146 -120l-324 -469z" />
    <glyph glyph-name="X" unicode="X" horiz-adv-x="618" 
d="M508 0h-44q-6 0 -28 1.5t-37 1.5t-37 -1.5t-29 -1.5h-36v18h10q52 0 52 42q0 3 -1 9.5t-2.5 16t-2.5 13.5l-39 205l-187 -180q-57 -54 -57 -79q0 -27 32 -27h8v-18h-19q-10 0 -37 1.5t-38 1.5q-7 0 -35.5 -1.5t-37.5 -1.5h-25v18h8q36 1 78.5 31.5t106.5 91.5l199 190
l-53 283q-5 28 -19 38.5t-40 10.5h-10v18h44q6 0 28.5 -1.5t38.5 -1.5q15 0 36 1.5t27 1.5h36v-18h-9q-53 0 -53 -39q0 -11 4 -33l39 -208l168 173q48 50 56 67q3 8 3 15q0 25 -32 25h-8v18h19q10 0 37 -1.5t38 -1.5q7 0 35.5 1.5t37.5 1.5h25v-18h-8q-65 -1 -187 -125
l-178 -183l54 -288q5 -28 19 -38.5t40 -10.5h10v-18z" />
    <glyph glyph-name="Y" unicode="Y" horiz-adv-x="584" 
d="M301 0h-37q-10 0 -32.5 1.5t-37.5 1.5t-38 -1.5t-33 -1.5h-33v18h13q30 0 47 14.5t30 48.5l95 245l-59 288q-6 28 -19.5 38.5t-39.5 10.5h-9v18h45q6 0 27.5 -1.5t37.5 -1.5t37 1.5t27 1.5h37v-18h-9q-53 0 -53 -36q0 -13 3 -24l53 -260l188 206q60 65 60 90q0 24 -31 24
h-8v18h19q16 0 40.5 -1.5t34.5 -1.5q11 0 38 1.5t35 1.5h25v-18h-7q-71 -1 -189 -130l-207 -227l-89 -231q-7 -20 -7 -31q0 -26 33 -26h13v-18z" />
    <glyph glyph-name="Z" unicode="Z" horiz-adv-x="575" 
d="M371 -33l-14 5q12 28 -19 28h-382v13l611 645h-161q-33 0 -53.5 -9t-52.5 -40q-19 -18 -61.5 -64.5t-76.5 -81.5l-13 9l145 242l14 -5q-12 -28 20 -28h349v-13l-610 -645h193q34 0 52.5 7t48.5 37q31 30 155 165l13 -9z" />
    <glyph glyph-name="bracketleft" unicode="[" horiz-adv-x="277" 
d="M-68 -173l346 899q52 -3 152 -3v-19q-73 0 -139 -3q1 -2 -7 -49.5t-8 -49.5q-21 -128 -93 -320q-98 -262 -218 -429q72 -4 126 -4v-19q-104 0 -159 -3z" />
    <glyph glyph-name="backslash" unicode="\" horiz-adv-x="335" 
d="M137 -170l72 893l25 -1l-72 -893z" />
    <glyph glyph-name="bracketright" unicode="]" horiz-adv-x="277" 
d="M377 726l-346 -899q-52 3 -152 3v19q73 0 139 3q-1 2 7 49.5t8 49.5q24 136 93 320q95 254 218 429q-72 4 -126 4v19q104 0 159 3z" />
    <glyph glyph-name="asciicircum" unicode="^" horiz-adv-x="440" 
d="M421 321h-26l-7 344l-284 -360l-19 16l303 386l24 -3z" />
    <glyph glyph-name="underscore" unicode="_" horiz-adv-x="430" 
d="M291 -97h-380v26h380v-26z" />
    <glyph glyph-name="grave" unicode="`" horiz-adv-x="243" 
d="M339 540l-15 -4q-12 39 -37.5 91.5t-25.5 70.5q0 13 9 22.5t22 9.5q26 0 31 -30q2 -14 4.5 -64.5t11.5 -95.5z" />
    <glyph glyph-name="a" unicode="a" horiz-adv-x="523" 
d="M318 -8q-25 0 -38.5 14t-13.5 36q0 21 31 101l78 206l-152 -223q-47 -69 -81.5 -101.5t-69.5 -32.5q-27 0 -46 17t-19 54q0 43 24.5 115t63 144t93.5 124t108 52q32 0 57 -19.5t53 -55.5q36 13 57.5 30.5t35.5 46.5l14 -6l-139 -361q-24 -59 -24 -75q0 -17 14 -17
q23 0 96 94l14 -9q-96 -134 -156 -134zM114 41q25 0 90 96l186 273q-48 64 -84 64t-76 -52.5t-68.5 -121.5t-47.5 -134t-19 -93q0 -32 19 -32z" />
    <glyph glyph-name="b" unicode="b" horiz-adv-x="485" 
d="M110 141l152 223q46 69 81 101.5t70 32.5q27 0 46 -17t19 -54q0 -43 -24.5 -115.5t-63 -144t-93.5 -123.5t-108 -52q-23 0 -45.5 13t-35 26t-30.5 36q-69 -25 -93 -77l-14 6l238 615q9 23 9 32q0 21 -32 21h-31v17h26q111 0 141 43l12 -6zM370 449q-25 0 -90 -96
l-185 -273q46 -64 83 -64q36 0 76 52t68.5 121t47.5 133.5t19 92.5q0 34 -19 34z" />
    <glyph glyph-name="c" unicode="c" horiz-adv-x="416" 
d="M123 -8q-43 0 -73.5 36t-30.5 94q0 79 41 166.5t110 148.5t140 61q42 0 71 -33t29 -77q0 -31 -10.5 -49t-28.5 -18q-13 0 -21.5 9t-8.5 22q0 10 10 35t10 42q0 22 -14 36t-40 14q-45 0 -93 -54t-78.5 -133t-30.5 -148q0 -99 63 -99q65 0 160 123l13 -10
q-115 -166 -218 -166z" />
    <glyph glyph-name="d" unicode="d" horiz-adv-x="520" 
d="M404 425l69 185q9 24 9 31q0 23 -33 23h-30v17h25q111 0 142 43l12 -6l-226 -584q-25 -67 -25 -76q0 -17 16 -17q23 0 96 94l13 -9q-97 -134 -157 -134q-24 0 -37.5 14.5t-13.5 36.5t31 102l80 205l-152 -224q-47 -69 -81.5 -101.5t-69.5 -32.5q-27 0 -46 17.5t-19 53.5
q0 43 24.5 115.5t63 144t93.5 123.5t108 52q54 0 108 -73zM114 41q24 0 90 95l186 274q-48 64 -84 64t-76 -52.5t-68.5 -121.5t-47.5 -134t-19 -93q0 -32 19 -32z" />
    <glyph glyph-name="e" unicode="e" horiz-adv-x="416" 
d="M125 -8q-47 0 -76 36t-29 94q0 83 44.5 171.5t115.5 146.5t141 58q45 0 74.5 -19t29.5 -51q0 -62 -94.5 -117.5t-209.5 -69.5q-16 -58 -16 -98q0 -98 66 -98q33 0 69.5 28t89.5 95l13 -10q-116 -166 -218 -166zM356 445q0 34 -35 34q-59 0 -112.5 -64t-81.5 -153
q87 10 158 70.5t71 112.5z" />
    <glyph glyph-name="f" unicode="f" horiz-adv-x="284" 
d="M-244 -236q-20 0 -32.5 9t-12.5 24t10.5 23.5t27.5 8.5q15 0 47.5 -10.5t50.5 -10.5q42 0 85 56t76 153l128 386q9 29 26 66h-80v21h90q109 209 299 209q20 0 33.5 -9t13.5 -24t-11 -23t-27 -8q-14 0 -47 10.5t-50 10.5q-44 0 -69.5 -27.5t-57.5 -108.5l-11 -30h120v-21
h-127l-117 -346q-58 -173 -157 -266t-208 -93z" />
    <glyph glyph-name="g" unicode="g" horiz-adv-x="451" 
d="M120 -236q-44 0 -84.5 4t-77.5 13t-59.5 25t-22.5 38q0 57 156 122l40 17l-24 11q-68 30 -68 73q0 28 23.5 49.5t77.5 42.5l28 11q-31 34 -31 94q0 85 65.5 159.5t153.5 74.5q37 0 71 -28l4 4q74 74 126 74q15 0 25.5 -8.5t10.5 -22.5q0 -15 -10 -23t-26 -8
q-11 0 -28.5 5t-29.5 5q-20 0 -55 -35l-4 -4q27 -30 27 -89q0 -86 -66.5 -159t-152.5 -73q-33 0 -64 21l-31 -12q-55 -21 -55 -44q0 -12 11 -21t41 -22l146 -66q74 -33 104 -59t30 -57q0 -56 -67 -84t-184 -28zM121 -216q185 0 185 59q0 21 -20 36t-79 43q-1 0 -55.5 25
t-56.5 26l-45 -20q-104 -46 -104 -101q0 -68 175 -68zM186 155q34 0 72.5 48t64 112.5t25.5 112.5q0 51 -47 51q-34 0 -73 -48t-64 -112t-25 -111q0 -53 47 -53z" />
    <glyph glyph-name="h" unicode="h" horiz-adv-x="522" 
d="M311 -8q-25 0 -38.5 14t-13.5 36q0 34 32 100l98 201q34 68 34 87q0 20 -16 20q-8 0 -17 -6.5t-31.5 -33.5t-59.5 -78l-242 -332q-7 0 -23 1t-22 1t-19.5 -1t-20.5 -1l245 614q8 20 8 30q0 20 -32 20h-31v17h26q111 0 142 43l12 -6l-256 -640l194 265q65 90 99.5 122.5
t71.5 32.5q26 0 40.5 -14.5t14.5 -35.5q0 -39 -35 -109l-102 -207q-26 -54 -26 -74q0 -17 15 -17q23 0 95 94l14 -9q-96 -134 -156 -134z" />
    <glyph glyph-name="i" unicode="i" horiz-adv-x="280" 
d="M286 586q-22 0 -36.5 14.5t-14.5 36.5t14.5 37t36.5 15t37 -15t15 -37t-15 -36.5t-37 -14.5zM67 -8q-24 0 -37.5 14.5t-13.5 35.5q0 35 32 101l103 213q27 56 27 76q0 17 -14 17q-23 0 -96 -94l-14 9q96 134 155 134q25 0 38.5 -14t13.5 -36q0 -35 -32 -101l-103 -213
q-27 -56 -27 -76q0 -17 14 -17q22 0 95 94l14 -9q-94 -134 -155 -134z" />
    <glyph glyph-name="j" unicode="j" horiz-adv-x="272" 
d="M-222 -236q-21 0 -33 9t-12 24t11 23.5t28 8.5q14 0 46.5 -10.5t50.5 -10.5q41 0 83.5 56t77.5 154l121 340q3 7 10 26t10.5 29.5t3.5 18.5q0 17 -15 17q-21 0 -94 -94l-14 9q96 134 154 134q25 0 38.5 -14t13.5 -36q0 -25 -29 -103l-88 -230q-65 -171 -158.5 -261
t-204.5 -90zM281 586q-23 0 -37.5 14.5t-14.5 36.5q0 23 14.5 37.5t37.5 14.5q22 0 37 -15t15 -37t-15 -36.5t-37 -14.5z" />
    <glyph glyph-name="k" unicode="k" horiz-adv-x="479" 
d="M291 -8q-29 0 -46.5 16t-17.5 48q0 14 9 74t9 74q0 32 -12.5 45.5t-53.5 13.5h-20l-106 -263q-7 0 -21 1t-20 1t-19.5 -1t-20.5 -1l245 611q9 23 9 33q0 20 -33 20h-30v17h25q111 0 142 43l12 -6l-175 -433h14q48 0 78.5 25t62.5 73q40 58 75 86.5t80 28.5q16 0 28 -9
t12 -23t-10.5 -23t-26.5 -9q-13 0 -30.5 5t-30.5 5q-19 0 -34.5 -14.5t-44.5 -57.5q-23 -33 -34.5 -47.5t-33 -30t-46.5 -20.5q93 -7 93 -72q0 -19 -6.5 -71t-6.5 -66q0 -29 20 -29q19 0 44.5 23.5t65.5 76.5l13 -10q-96 -134 -158 -134z" />
    <glyph glyph-name="l" unicode="l" horiz-adv-x="257" 
d="M48 -8q-24 0 -38 14.5t-14 35.5q0 22 31 102l188 467q8 20 8 32q0 21 -33 21h-30v17h26q111 0 141 43l12 -6l-234 -584q-25 -55 -25 -76q0 -17 15 -17q22 0 95 94l14 -9q-96 -134 -156 -134z" />
    <glyph glyph-name="m" unicode="m" horiz-adv-x="804" 
d="M592 -8q-25 0 -38 14.5t-13 36.5q0 33 34 101l98 199q33 66 33 87q0 20 -17 20q-15 0 -37 -26t-72 -96l-234 -328q-6 0 -21 1t-22 1q-6 0 -20.5 -1t-21.5 -1l154 343q33 72 33 88q0 19 -15 19q-14 0 -34 -20t-71 -93l-239 -337q-7 0 -21.5 1t-20.5 1t-21 -1t-22 -1
l149 358q25 62 25 73q0 18 -15 18q-11 0 -31.5 -19.5t-63.5 -74.5l-14 9q96 134 157 134q24 0 37.5 -14.5t13.5 -35.5q0 -27 -31 -101l-113 -269l193 272q61 86 96 117t73 31q23 0 37 -14.5t14 -35.5q0 -33 -35 -109l-121 -262l187 264q62 87 99 122t73 35q25 0 40 -14.5
t15 -35.5q0 -39 -35 -109l-101 -206q-28 -58 -28 -75t16 -17q23 0 95 94l14 -9q-96 -134 -158 -134z" />
    <glyph glyph-name="n" unicode="n" horiz-adv-x="554" 
d="M342 -8q-23 0 -36.5 14.5t-13.5 36.5q0 33 32 99l98 201q33 68 33 87q0 20 -16 20q-12 0 -33.5 -22.5t-70.5 -90.5l-246 -337q-7 0 -22.5 1t-21.5 1q-7 0 -21 -1t-20 -1l149 358q25 58 25 72q0 19 -15 19q-21 0 -95 -94l-14 9q96 134 158 134q23 0 36.5 -14.5t13.5 -36.5
q0 -28 -30 -100l-114 -269l201 273q63 86 96.5 116.5t68.5 30.5q27 0 40.5 -14.5t13.5 -36.5q0 -38 -35 -108l-100 -205q-27 -56 -27 -76q0 -17 13 -17t33 19.5t63 74.5l14 -9q-50 -70 -87.5 -102t-69.5 -32z" />
    <glyph glyph-name="o" unicode="o" horiz-adv-x="461" 
d="M143 11q65 0 127 100q42 68 73 159t31 141q0 32 -15.5 49.5t-40.5 17.5q-67 0 -128 -100q-41 -67 -72 -158t-31 -142q0 -31 15.5 -49t40.5 -18zM144 -8q-47 0 -84.5 39t-37.5 109q0 47 21.5 107t57.5 117t94 95.5t122 38.5q47 0 84.5 -39t37.5 -109q0 -47 -21.5 -107.5
t-58 -117t-94 -95t-121.5 -38.5z" />
    <glyph glyph-name="p" unicode="p" horiz-adv-x="451" 
d="M87 -226h-50q-16 0 -40.5 1.5t-44.5 1.5q-18 0 -44 -1.5t-39 -1.5h-21v17h21q24 0 39.5 12t27.5 41l242 605q-56 -27 -116 -85l-12 12q60 64 139 102l37 93q7 0 19 -1t18 -1t18 1t19 1l-31 -78q71 4 116 -37t45 -106q0 -78 -57 -156t-137.5 -130t-159.5 -71l-59 -147
q-8 -20 -8 -30q0 -25 43 -25h35v-17zM353 354q0 52 -24.5 82t-69.5 31l-175 -453q107 35 188 132t81 208z" />
    <glyph glyph-name="q" unicode="q" horiz-adv-x="482" 
d="M288 -226h-17q-14 0 -37.5 1.5t-41.5 1.5t-42.5 -1.5t-37.5 -1.5h-48v17h41q53 0 73 53l198 507l-155 -228q-47 -69 -80.5 -100t-68.5 -31q-27 0 -46 17.5t-19 53.5q0 43 24.5 115t63 144t93.5 124t108 52t110 -75q70 26 93 77l14 -6l-254 -647q-9 -22 -9 -32
q0 -24 28 -24h10v-17zM114 41q27 0 91 96l185 273q-46 64 -84 64q-47 0 -98.5 -86.5t-82 -180.5t-30.5 -134q0 -32 19 -32z" />
    <glyph glyph-name="r" unicode="r" horiz-adv-x="404" 
d="M101 0q-12 0 -25.5 1t-18.5 1q-6 0 -21.5 -1t-22.5 -1l138 358q23 59 23 74q0 17 -15 17q-22 0 -95 -94l-14 9q97 134 155 134q25 0 38.5 -14t13.5 -36q0 -31 -27 -101l-102 -263l110 189q130 225 193 225q15 0 24 -9.5t9 -22.5q0 -27 -46 -42q-45 -14 -81.5 -51
t-81.5 -113z" />
    <glyph glyph-name="s" unicode="s" horiz-adv-x="379" 
d="M131 -8q-65 0 -107 34t-42 78q0 14 9.5 23.5t21.5 9.5q28 0 34 -37q14 -90 89 -90q40 0 66.5 28.5t26.5 63.5q0 42 -46 100l-28 35q-56 68 -56 117q0 63 44 103.5t101 40.5q52 0 92.5 -27.5t40.5 -59.5q0 -13 -9.5 -21.5t-22.5 -8.5q-26 0 -35 36q-15 63 -69 63
q-32 0 -55.5 -21.5t-23.5 -55.5q0 -27 12 -50.5t43 -61.5l31 -38q46 -58 46 -109q0 -66 -49.5 -109t-113.5 -43z" />
    <glyph glyph-name="t" unicode="t" horiz-adv-x="291" 
d="M62 -8q-25 0 -39 14.5t-14 35.5q0 25 33 106l128 321h-64v21h72l26 65q40 7 61 26t37 54l15 -5l-57 -140h104v-21h-112l-134 -335q-24 -60 -24 -76q0 -17 14 -17q24 0 96 94l14 -9q-96 -134 -156 -134z" />
    <glyph glyph-name="u" unicode="u" horiz-adv-x="551" 
d="M212 498q23 0 36.5 -14.5t13.5 -36.5q0 -33 -32 -99l-98 -201q-33 -68 -33 -87q0 -20 16 -20q11 0 31 22t71 91l245 337q7 0 22.5 -1t21.5 -1t20 1t21 1l-149 -358q-25 -58 -25 -72q0 -19 14 -19q13 0 34 21t62 73l14 -9q-95 -134 -158 -134q-23 0 -36.5 14.5t-13.5 36.5
q0 28 30 100l114 269l-199 -273q-62 -85 -95.5 -116t-68.5 -31q-27 0 -40.5 14.5t-13.5 36.5q0 38 35 108l101 205q27 56 27 76q0 17 -14 17q-13 0 -33.5 -20t-63.5 -74l-14 9q96 134 158 134z" />
    <glyph glyph-name="v" unicode="v" horiz-adv-x="459" 
d="M114 -9q-34 0 -53.5 17t-19.5 47q0 31 21.5 76.5t41.5 75t60.5 83.5t47.5 64l43 60q-12 -8 -35 -8q-17 0 -51 10t-46 10q-14 0 -23 -10t-9 -21q0 -12 7.5 -29.5t7.5 -31.5q0 -15 -8.5 -24t-20.5 -9q-29 0 -29 34q0 35 38 88q48 69 86 69q13 0 47.5 -11.5t55.5 -11.5
q9 0 15.5 4t9.5 8t13 18l12 -8q-8 -11 -51 -77t-45 -70t-17.5 -31t-20 -35t-17.5 -32t-17.5 -36.5t-12 -32t-10 -35t-2.5 -30.5q0 -26 15.5 -41.5t40.5 -15.5q70 0 134 84q31 41 57 97t26 97q0 39 -10.5 76t-10.5 51q0 17 9 27.5t25 10.5q36 0 36 -70q0 -65 -33 -151.5
t-83 -151.5q-50 -63 -111.5 -98.5t-112.5 -35.5z" />
    <glyph glyph-name="w" unicode="w" horiz-adv-x="664" 
d="M333 -9q-57 0 -66 70q-33 -32 -76.5 -51t-80.5 -19q-29 0 -49 16t-20 47q0 26 11 56.5t35 69t39.5 61.5t49.5 67t40 53l39 53q-13 -8 -35 -8q-18 0 -52 10t-45 10q-15 0 -23.5 -10t-8.5 -22t7.5 -29t7.5 -30q0 -15 -8.5 -24.5t-20.5 -9.5q-29 0 -29 35q0 32 42 92
q46 64 82 64q13 0 47.5 -11.5t55.5 -11.5q7 0 13.5 3t8.5 5t8.5 11.5t7.5 10.5l12 -8l-80 -123q-35 -54 -52.5 -83.5t-40 -83.5t-22.5 -92q0 -54 53 -56q39 0 82 37q4 69 35.5 163t78 165.5t85.5 71.5q31 0 31 -37q0 -54 -45.5 -154t-116.5 -179q10 -70 62 -70q44 0 95 49.5
t85 118t34 120.5q0 35 -10 71t-10 49q0 18 9.5 29t24.5 11q36 0 36 -69q0 -93 -50.5 -195.5t-127.5 -172t-148 -70.5zM446 399q0 32 -20 32q-15 0 -37.5 -34t-41.5 -99t-19 -135q0 -13 1 -17q53 60 85 133.5t32 119.5z" />
    <glyph glyph-name="x" unicode="x" horiz-adv-x="492" 
d="M254 -8q-33 0 -52 20.5t-19 55.5q0 26 11 83q-35 -71 -82.5 -115t-90.5 -44q-30 0 -47.5 15t-17.5 40q0 21 9.5 40.5t30.5 39.5t36 32t45 33l8 -11q-34 -28 -52.5 -60.5t-18.5 -57.5q0 -34 33 -34q42 0 90.5 67t72.5 146q29 97 29 158q0 52 -32 52q-43 0 -119 -129l-14 8
q89 166 175 166q30 0 48.5 -20t18.5 -56q0 -33 -12 -83q32 70 78 114.5t89 44.5q24 0 40.5 -13.5t16.5 -37.5q0 -36 -27 -66.5t-80 -69.5l-8 11q28 22 45.5 52t17.5 52q0 18 -9 27.5t-22 9.5q-40 0 -87.5 -69.5t-69.5 -141.5q-27 -87 -27 -164q0 -50 35 -50q44 0 122 128
l14 -8q-87 -165 -178 -165z" />
    <glyph glyph-name="y" unicode="y" horiz-adv-x="451" 
d="M-217 -236q-49 0 -49 33q0 14 10 23t28 9q17 0 42.5 -9.5t47.5 -9.5q77 0 255 178l11 11q24 202 24 359q0 45 -4.5 67t-22.5 22q-13 0 -29.5 -21.5t-55.5 -82.5l-14 9q42 70 76 108t68 38q20 0 33 -11t18.5 -31.5t7.5 -40t2 -47.5q0 -120 -17 -281q111 125 149 186
t38 116q0 10 -3.5 34t-3.5 33q0 18 9 30t24 12q34 0 34 -38q0 -74 -56 -166t-193 -239l-7 -55q-5 0 -16 1t-15 1q-10 0 -14 -1l-27 -27q-97 -97 -182.5 -153.5t-167.5 -56.5z" />
    <glyph glyph-name="z" unicode="z" horiz-adv-x="423" 
d="M262 -7q-28 0 -60 18t-55.5 40t-49 40t-42.5 18q-33 0 -35 -40q0 -27 -1 -41q-4 -35 -33 -35q-32 0 -32 32q0 41 72 95l324 246q-29 -1 -91.5 24t-96.5 25q-39 0 -39 -45q0 -29 24 -70l-13 -8q-36 50 -36 104q0 39 20.5 70t60.5 31q32 0 67.5 -28.5t66 -57t50.5 -28.5
q15 0 24 9.5t9 25.5v21.5t1 20.5q2 37 32 37q14 0 22.5 -8.5t8.5 -22.5q0 -39 -75 -98l-316 -243q36 1 103.5 -23.5t100.5 -24.5q45 0 45 45q0 31 -24 69l13 8q36 -50 36 -106q0 -44 -22.5 -72t-58.5 -28z" />
    <glyph glyph-name="braceleft" unicode="{" horiz-adv-x="291" 
d="M68 -51q-15 -38 -15 -51q0 -19 14 -32t48 -23l-5 -17q-110 34 -110 91q0 25 15 66q13 34 41 95.5t34 76.5q18 43 18 65q0 20 -10.5 31t-36.5 13v22q48 2 74 28t47 81q7 17 26 78.5t31 93.5q28 73 75 104t138 53l3 -18q-64 -17 -90.5 -35.5t-44.5 -64.5
q-8 -19 -33.5 -97.5t-33.5 -99.5q-25 -64 -60 -98.5t-103 -36.5q35 -5 55.5 -22t20.5 -43q0 -28 -16 -68q-9 -24 -41.5 -98t-40.5 -94z" />
    <glyph glyph-name="bar" unicode="|" horiz-adv-x="211" 
d="M-55 -220l-25 8l379 987l25 -8z" />
    <glyph glyph-name="braceright" unicode="}" horiz-adv-x="291" 
d="M257 601q15 42 15 51q0 19 -14 32t-49 23l5 17q110 -34 110 -91q0 -25 -15 -66q-13 -34 -41 -95.5t-34 -76.5q-18 -47 -18 -65q0 -40 48 -44v-22q-49 -2 -75 -28t-47 -81q-7 -17 -26 -78.5t-31 -93.5q-28 -73 -75 -104t-138 -53l-3 18q65 17 92 35.5t44 64.5q7 18 32 96
t34 101q25 64 60.5 98.5t103.5 36.5q-36 5 -56.5 22t-20.5 43q0 28 16 68q7 17 41 92.5t42 99.5z" />
    <glyph glyph-name="asciitilde" unicode="~" horiz-adv-x="512" 
d="M398 301q58 0 88 54l22 -13q-36 -67 -110 -67q-39 0 -112 30t-107 30q-58 0 -89 -54l-23 13q38 67 112 67q39 0 112 -30t107 -30z" />
    <glyph glyph-name="uni00A0" unicode="&#xa0;" horiz-adv-x="173" 
 />
    <glyph glyph-name="exclamdown" unicode="&#xa1;" horiz-adv-x="254" 
d="M128 276l17 -6l-14 -35q-27 -70 -52 -171q-43 -178 -68 -236q-10 -26 -40 -26q-17 0 -30 11t-13 30q0 37 107 235q55 102 79 164zM200 498q24 0 41 -16.5t17 -40.5t-17 -41t-41 -17q-23 0 -40 17t-17 41t17 40.5t40 16.5z" />
    <glyph glyph-name="cent" unicode="&#xa2;" horiz-adv-x="488" 
d="M470 386q0 -66 -39 -66q-13 0 -21.5 9t-8.5 22q0 10 9.5 34t9.5 40q0 24 -17 38l-262 -386q16 -32 63 -32q77 0 181 123l12 -10q-132 -166 -237 -166q-37 0 -66 17l-106 -156l-22 14l108 158q-30 33 -30 90q0 80 44.5 169t118 151.5t148.5 62.5q21 0 37 -6l101 146
l21 -14l-98 -143q25 -15 39.5 -41t14.5 -54zM131 136q0 -16 1 -25l248 364q-12 3 -25 3q-56 0 -108.5 -57.5t-82.5 -136t-33 -148.5z" />
    <glyph glyph-name="sterling" unicode="&#xa3;" horiz-adv-x="557" 
d="M326 -8q-25 0 -53 11.5t-45 22.5t-50 34q-64 -69 -141 -69q-39 0 -61.5 19t-22.5 47q0 38 31 59.5t77 21.5q45 0 122 -28q35 51 35 124q0 11 -1.5 36.5t-1.5 35.5h-114v26h112q-4 78 -4 111q0 115 61.5 181.5t161.5 66.5q69 0 117.5 -44.5t48.5 -97.5q0 -20 -10 -32.5
t-28 -12.5q-15 0 -25 10.5t-10 24.5q0 9 2.5 26.5t2.5 25.5q0 34 -24 56t-68 22q-78 0 -113 -75.5t-37 -233.5q0 -12 -2 -28h155v-26h-157q-3 -27 -9 -55q-18 -82 -65 -150q104 -40 151 -40q49 0 73.5 38t24.5 98q0 20 -2 42l17 2q4 -20 4 -51q0 -82 -39.5 -140t-112.5 -58z
M38 13q67 0 120 60q-65 40 -112 40q-29 0 -49 -15t-20 -40q0 -21 16.5 -33t44.5 -12z" />
    <glyph glyph-name="currency" unicode="&#xa4;" horiz-adv-x="692" 
d="M383 112q-96 0 -159 54l-112 -112l-21 21l112 111q-57 63 -57 159q0 100 59 159l-113 113l21 21l114 -113q62 53 156 53t158 -55l114 114l21 -20l-115 -114q59 -62 59 -158q0 -97 -58 -158l113 -113l-21 -20l-113 112q-65 -54 -158 -54zM383 142q91 0 149 55t58 148
t-58 148.5t-149 55.5t-149.5 -56t-58.5 -148q0 -93 58.5 -148t149.5 -55z" />
    <glyph glyph-name="yen" unicode="&#xa5;" horiz-adv-x="577" 
d="M123 279h138l18 47l-43 288q-4 28 -17.5 38.5t-39.5 10.5h-10v18h45q6 0 28 -1.5t38 -1.5t37.5 1.5t27.5 1.5h37v-18h-9q-54 0 -54 -36q0 -3 1.5 -11t1.5 -13l35 -261l172 207q5 6 14 17t13 15.5t10.5 13t9.5 13t6.5 10.5t4.5 10.5t1 9.5q0 25 -37 25h-2v18h17
q16 0 42 -1.5t36 -1.5q8 0 36 1.5t36 1.5h25v-18h-9q-37 0 -86.5 -35.5t-97.5 -92.5l-194 -234l-9 -22h128v-26h-138l-30 -75h129v-26h-138l-30 -77q-7 -20 -7 -31q0 -26 33 -26h14v-18h-38q-10 0 -32.5 1.5t-37.5 1.5t-38 -1.5t-33 -1.5h-33v18h13q30 0 47 14.5t30 48.5
l27 71h-127v26h137l30 75h-128v26z" />
    <glyph glyph-name="brokenbar" unicode="&#xa6;" horiz-adv-x="211" 
d="M160 340l-24 9l163 426l25 -8zM-56 -222l-24 9l163 426l25 -9z" />
    <glyph glyph-name="section" unicode="&#xa7;" horiz-adv-x="489" 
d="M391 188q0 -114 -134 -196q-28 -64 -89 -105t-146 -41q-63 0 -63 40q0 15 10.5 25t26.5 10q13 0 44.5 -16.5t61.5 -16.5q47 0 81 36t34 81q0 41 -24 100l-58 139q-25 61 -25 103q0 115 133 196q28 64 89 105t146 41q64 0 64 -39q0 -15 -10.5 -25.5t-27.5 -10.5
q-13 0 -44 16.5t-61 16.5q-48 0 -82 -35.5t-34 -80.5q0 -40 25 -101l57 -138q26 -63 26 -104zM229 462q0 24 5 49q-61 -41 -61 -112q0 -33 15 -73l57 -149q27 -75 27 -105q0 -28 -6 -48q62 43 62 112q0 34 -15 73l-57 149q-27 68 -27 104z" />
    <glyph glyph-name="dieresis" unicode="&#xa8;" horiz-adv-x="389" 
d="M261 582q-20 0 -33 12.5t-13 33.5q0 20 13 33t33 13t33.5 -13t13.5 -33q0 -21 -13.5 -33.5t-33.5 -12.5zM433 582q-20 0 -33 12.5t-13 33.5q0 20 13 33t33 13t33.5 -13t13.5 -33q0 -21 -13.5 -33.5t-33.5 -12.5z" />
    <glyph glyph-name="copyright" unicode="&#xa9;" horiz-adv-x="773" 
d="M420 -9q-147 0 -246.5 96t-99.5 253q0 156 99.5 252.5t246.5 96.5q146 0 246 -97t100 -252q0 -157 -100 -253t-246 -96zM420 17q137 0 227 89t90 234q0 144 -90.5 233.5t-226.5 89.5q-137 0 -227 -89.5t-90 -233.5q0 -145 90 -234t227 -89zM422 127q-79 0 -135.5 60.5
t-56.5 149.5q0 102 57.5 156.5t125.5 54.5q20 0 46 -6t33 -6q20 0 18 22l17 5l60 -145l-14 -9q-89 113 -164 113q-48 0 -79 -38.5t-31 -107.5q0 -87 45.5 -142.5t113.5 -55.5q38 0 72 19.5t54 54.5l16 -8q-22 -49 -71 -83t-107 -34z" />
    <glyph glyph-name="ordfeminine" unicode="&#xaa;" horiz-adv-x="387" 
d="M342 284h-263v22h263v-22zM330 361q-17 0 -26.5 9.5t-9.5 24.5q0 17 20 64l60 140l-109 -157q-28 -41 -51 -61t-50 -20q-42 0 -42 46q0 22 16 67.5t41.5 94t64.5 84.5t77 36q42 0 71 -48q42 12 63 52l12 -5l-95 -227q-18 -42 -18 -53t10 -11q16 0 61 59l10 -8
q-62 -87 -105 -87zM197 398q17 0 56 56l124 179q-22 38 -48 38q-33 0 -68.5 -56.5t-55.5 -116.5t-20 -85q0 -15 12 -15z" />
    <glyph glyph-name="guillemotleft" unicode="&#xab;" horiz-adv-x="486" 
d="M333 443l12 -15q-39 -33 -79 -72.5t-76 -77.5t-37 -39q28 -109 53 -169l-17 -8q-15 29 -46 75.5t-54.5 78.5t-27.5 36q7 4 56.5 37.5t115 79.5t100.5 74zM483 443l12 -15q-39 -33 -79 -72.5t-76 -77.5t-37 -39q28 -109 53 -169l-17 -8q-15 29 -46 75.5t-54.5 78.5
t-27.5 36q7 4 56.5 37.5t115 79.5t100.5 74z" />
    <glyph glyph-name="logicalnot" unicode="&#xac;" horiz-adv-x="522" 
d="M419 102l-26 9l76 199h-383v25h420z" />
    <glyph glyph-name="uni00AD" unicode="&#xad;" horiz-adv-x="310" 
d="M254 249h-161v63h161v-63z" />
    <glyph glyph-name="registered" unicode="&#xae;" horiz-adv-x="491" 
d="M350 302q-90 0 -150.5 58.5t-60.5 152.5t60.5 152.5t150.5 58.5q89 0 150 -59t61 -152t-61 -152t-150 -59zM350 326q80 0 132 51.5t52 135.5t-52 135.5t-132 51.5q-81 0 -133 -51.5t-52 -135.5t52 -135.5t133 -51.5zM474 393q-9 0 -22 0.5t-21 0.5q-3 0 -13 -0.5
t-14 -0.5l-51 105h-42v-68q0 -12 5.5 -16t23.5 -4v-17h-16q-5 0 -15.5 0.5t-16.5 0.5t-17 -0.5t-15 -0.5h-17v17q18 0 23.5 4t5.5 16v165q0 11 -5.5 15t-23.5 4v17h17q4 0 15 -0.5t17 -0.5t21 0.5t19 0.5h32q41 0 63.5 -17t22.5 -49q0 -31 -20.5 -48.5t-52.5 -17.5h-2
q9 -15 23 -15h9l20 -42q10 -21 19 -26.5t28 -5.5v-17zM410 565q0 23 -9.5 34t-37.5 11h-52v-90h54q45 0 45 45z" />
    <glyph glyph-name="macron" unicode="&#xaf;" horiz-adv-x="347" 
d="M438 604h-226v28h226v-28z" />
    <glyph glyph-name="degree" unicode="&#xb0;" horiz-adv-x="306" 
d="M395 573q0 -53 -34 -85.5t-83 -32.5t-83 32.5t-34 85.5t34 85.5t83 32.5t83 -32.5t34 -85.5zM366 573q0 41 -25 66t-63 25q-37 0 -62.5 -25.5t-25.5 -65.5t25.5 -65.5t62.5 -25.5q38 0 63 25t25 66z" />
    <glyph glyph-name="plusminus" unicode="&#xb1;" horiz-adv-x="500" 
d="M382 541l-58 -152h178v-26h-189l-64 -166l-25 9l60 157h-178v26h189l62 161zM6 130h396v-26h-396v26z" />
    <glyph glyph-name="twosuperior" unicode="&#xb2;" 
d="M382 632q0 -18 -10.5 -36t-32.5 -37t-40 -32.5t-49 -34t-45 -30.5l-28 -20h134l-45 -80l-12 4q4 9 4 16q0 15 -21 15h-128v12l84 65q135 104 135 172q0 26 -25 26q-24 0 -50 -37q-18 -27 -33 -27q-8 0 -14.5 5.5t-6.5 14.5q0 24 37 42.5t74 18.5q28 0 50 -16t22 -41z" />
    <glyph glyph-name="threesuperior" unicode="&#xb3;" 
d="M345 507q0 -48 -40 -83t-95 -35q-36 0 -58.5 20.5t-22.5 46.5q0 14 7.5 24t20.5 10q8 0 14.5 -6t6.5 -15q0 -6 -1.5 -16t-1.5 -15q0 -32 34 -32q45 0 72 70q16 39 16 56q0 16 -13 16q-6 0 -20 -6l-36 -17l-7 15l45 21q41 19 57 63q4 12 4 25q0 23 -23 23q-27 0 -49 -33
q-19 -31 -36 -31q-8 0 -14 6t-6 14q0 24 37 42.5t72 18.5q29 0 51.5 -15.5t22.5 -36.5q0 -48 -90 -77q23 -1 38 -15t15 -38z" />
    <glyph glyph-name="acute" unicode="&#xb4;" horiz-adv-x="242" 
d="M160 537l-11 11q37 40 76 96t55 72q14 14 29 14q11 0 20 -8.5t9 -21.5q0 -15 -12 -27q-12 -11 -69.5 -53t-96.5 -83z" />
    <glyph glyph-name="mu" unicode="&#xb5;" horiz-adv-x="552" 
d="M293 43q0 28 30 100l114 269l-199 -273q-62 -85 -95.5 -116t-68.5 -31q-40 0 -51 32q-22 -61 -40.5 -139t-22.5 -89q-11 -31 -39 -31q-16 0 -27.5 10.5t-11.5 24.5q0 10 6 27q3 5 54.5 92t79.5 153q16 39 134 284q27 56 27 76q0 17 -14 17q-13 0 -33 -19.5t-63 -74.5
l-14 9q50 71 87.5 102.5t70.5 31.5q23 0 36.5 -14.5t13.5 -36.5q0 -31 -33 -99l-98 -201q-33 -68 -33 -87q0 -20 16 -20q12 0 32.5 22t70.5 91l244 337q7 0 22.5 -1t21.5 -1t20 1t21 1l-149 -358q-25 -58 -25 -72q0 -19 15 -19q21 0 95 94l14 -9q-96 -134 -158 -134
q-23 0 -36.5 14.5t-13.5 36.5z" />
    <glyph glyph-name="paragraph" unicode="&#xb6;" horiz-adv-x="526" 
d="M220 -231l-24 9l85 222h-71q-71 0 -111 39.5t-40 117.5q0 57 17 126.5t51 139.5t78.5 127.5t106.5 94t129 36.5h198v-26h-79l-242 -629h64v-26h-73zM218 26h72l242 629h-72z" />
    <glyph glyph-name="periodcentered" unicode="&#xb7;" horiz-adv-x="252" 
d="M164 290q-23 0 -39.5 16t-16.5 39t16.5 39.5t39.5 16.5t39.5 -16.5t16.5 -39.5t-16.5 -39t-39.5 -16z" />
    <glyph glyph-name="cedilla" unicode="&#xb8;" horiz-adv-x="286" 
d="M101 -100q0 -37 -38.5 -71t-89.5 -53.5t-99 -25.5l-2 15q60 7 117.5 39t57.5 73q0 28 -33 28q-25 0 -53 -15l-7 11l115 99h18l-52 -57q8 1 14 1q23 0 37.5 -12t14.5 -32z" />
    <glyph glyph-name="onesuperior" unicode="&#xb9;" 
d="M281 397h-14q-10 0 -25 1.5t-29 1.5t-30.5 -1.5t-26.5 -1.5h-23v15h22q22 0 32.5 9.5t21.5 39.5l47 125q4 9 4 16q0 9 -8 9q-5 0 -37 -15l-7 15l18 9q88 44 114 82l13 -5l-90 -236q-10 -25 -10 -33q0 -16 24 -16h4v-15z" />
    <glyph glyph-name="ordmasculine" unicode="&#xba;" horiz-adv-x="386" 
d="M338 284h-263v22h263v-22zM432 585q0 -80 -57 -153t-132 -73q-37 0 -61.5 29t-24.5 75q0 80 57 153t133 73q36 0 60.5 -29t24.5 -75zM245 377q45 0 89 89q20 43 33.5 90t13.5 71q0 44 -36 44q-45 0 -89 -89q-20 -43 -33.5 -90t-13.5 -71q0 -44 36 -44z" />
    <glyph glyph-name="guillemotright" unicode="&#xbb;" horiz-adv-x="486" 
d="M169 62l-12 15q39 33 79 72.5t76 77.5t37 39q-28 109 -53 169l17 8q15 -29 46 -75.5t54.5 -78.5t27.5 -36q-7 -4 -56.5 -37.5t-115 -79.5t-100.5 -74zM19 62l-12 15q39 33 79 72.5t76 77.5t37 39q-28 109 -53 169l17 8q15 -29 46 -75.5t54.5 -78.5t27.5 -36
q-7 -4 -56.5 -37.5t-115 -79.5t-100.5 -74z" />
    <glyph glyph-name="onequarter" unicode="&#xbc;" horiz-adv-x="373" 
d="M91 352h272v-22h-272v22zM316 397h-14q-10 0 -25 1.5t-29 1.5t-30.5 -1.5t-26.5 -1.5h-23v15h22q22 0 32.5 9.5t21.5 39.5l47 125q4 9 4 16q0 9 -8 9q-5 0 -37 -15l-7 15l18 9q88 44 114 82l13 -5l-90 -236q-10 -25 -10 -33q0 -16 24 -16h4v-15zM190 0h-17q-5 0 -21 1.5
t-31 1.5t-30 -1.5t-20 -1.5h-24v15h18q20 0 31 10t22 39l5 14h-109v13l191 193q5 0 13 -0.5t13 -0.5t13 0.5t12 0.5l-73 -190h4q14 0 29 13.5t47 51.5l10 -6l-43 -75h-53l-5 -14q-10 -27 -10 -34q0 -15 22 -15h6v-15zM39 94h90l57 149z" />
    <glyph glyph-name="onehalf" unicode="&#xbd;" horiz-adv-x="372" 
d="M91 352h272v-22h-272v22zM272 235q0 -18 -10.5 -36t-32.5 -37t-40 -32.5t-49 -34t-45 -30.5l-28 -20h134l-45 -80l-12 4q4 9 4 16q0 15 -21 15h-128v12l84 65q135 104 135 172q0 26 -25 26q-24 0 -50 -37q-18 -27 -33 -27q-8 0 -14.5 5.5t-6.5 14.5q0 24 37 42.5t74 18.5
q28 0 50 -16t22 -41zM316 397h-14q-10 0 -25 1.5t-29 1.5t-30.5 -1.5t-26.5 -1.5h-23v15h22q22 0 32.5 9.5t21.5 39.5l47 125q4 9 4 16q0 9 -8 9q-5 0 -37 -15l-7 15l18 9q88 44 114 82l13 -5l-90 -236q-10 -25 -10 -33q0 -16 24 -16h4v-15z" />
    <glyph glyph-name="threequarters" unicode="&#xbe;" horiz-adv-x="373" 
d="M91 352h272v-22h-272v22zM383 507q0 -48 -40 -83t-95 -35q-36 0 -58.5 20.5t-22.5 46.5q0 14 7.5 24t20.5 10q8 0 14.5 -6t6.5 -15q0 -6 -1.5 -16t-1.5 -15q0 -32 34 -32q45 0 72 70q16 39 16 56q0 16 -13 16q-6 0 -20 -6l-36 -17l-7 15l45 21q41 19 57 63q4 12 4 25
q0 23 -23 23q-27 0 -49 -33q-19 -31 -36 -31q-8 0 -14 6t-6 14q0 24 37 42.5t72 18.5q29 0 51.5 -15.5t22.5 -36.5q0 -48 -90 -77q23 -1 38 -15t15 -38zM190 0h-17q-5 0 -21 1.5t-31 1.5t-30 -1.5t-20 -1.5h-24v15h18q20 0 31 10t22 39l5 14h-109v13l191 193q5 0 13 -0.5
t13 -0.5t13 0.5t12 0.5l-73 -190h4q14 0 29 13.5t47 51.5l10 -6l-43 -75h-53l-5 -14q-10 -27 -10 -34q0 -15 22 -15h6v-15zM39 94h90l57 149z" />
    <glyph glyph-name="questiondown" unicode="&#xbf;" horiz-adv-x="339" 
d="M196 277l18 -7l-77 -200q-187 -72 -187 -161q0 -25 16 -39t42 -14q21 0 48.5 14t39.5 14q16 0 26.5 -9t10.5 -25q0 -22 -21.5 -35t-61.5 -13q-54 0 -88.5 31.5t-34.5 84.5q0 148 224 246zM271 498q23 0 40 -16.5t17 -40.5t-17 -40.5t-40 -16.5q-24 0 -41 16.5t-17 40.5
t17 40.5t41 16.5z" />
    <glyph glyph-name="Agrave" unicode="&#xc0;" horiz-adv-x="619" 
d="M533 0h-33q-7 0 -29.5 1.5t-36.5 1.5q-16 0 -43.5 -1.5t-33.5 -1.5h-23v18h9q25 1 41 18t17 44l3 102h-283l-41 -52q-33 -42 -34 -70q0 -42 45 -42h6v-18h-23q-12 0 -38.5 1.5t-37.5 1.5q-8 0 -36 -1.5t-37 -1.5h-21v18h10q32 0 65 29.5t83 95.5l347 464l-2 74
q9 0 23.5 -1t21.5 -1q8 0 20 1t19 1l-10 -601q-1 -32 11 -47t39 -15h2v-18zM404 205l5 365l-272 -365h267zM502 729l-15 -4q-12 39 -37.5 91.5t-25.5 70.5q0 13 9 22.5t22 9.5q26 0 31 -30q2 -14 4.5 -64.5t11.5 -95.5z" />
    <glyph glyph-name="Aacute" unicode="&#xc1;" horiz-adv-x="619" 
d="M533 0h-33q-7 0 -29.5 1.5t-36.5 1.5q-16 0 -43.5 -1.5t-33.5 -1.5h-23v18h9q25 1 41 18t17 44l3 102h-283l-41 -52q-33 -42 -34 -70q0 -42 45 -42h6v-18h-23q-12 0 -38.5 1.5t-37.5 1.5q-8 0 -36 -1.5t-37 -1.5h-21v18h10q32 0 65 29.5t83 95.5l347 464l-2 74
q9 0 23.5 -1t21.5 -1q8 0 20 1t19 1l-10 -601q-1 -32 11 -47t39 -15h2v-18zM404 205l5 365l-272 -365h267zM429 726l-11 11q37 40 76 96t55 72q14 14 29 14q11 0 20 -8.5t9 -21.5q0 -15 -12 -27q-12 -11 -69.5 -53t-96.5 -83z" />
    <glyph glyph-name="Acircumflex" unicode="&#xc2;" horiz-adv-x="619" 
d="M533 0h-33q-7 0 -29.5 1.5t-36.5 1.5q-16 0 -43.5 -1.5t-33.5 -1.5h-23v18h9q25 1 41 18t17 44l3 102h-283l-41 -52q-33 -42 -34 -70q0 -42 45 -42h6v-18h-23q-12 0 -38.5 1.5t-37.5 1.5q-8 0 -36 -1.5t-37 -1.5h-21v18h10q32 0 65 29.5t83 95.5l347 464l-2 74
q9 0 23.5 -1t21.5 -1q8 0 20 1t19 1l-10 -601q-1 -32 11 -47t39 -15h2v-18zM404 205l5 365l-272 -365h267zM564 730l-14 -3q-21 67 -48 120q-111 -88 -148 -122l-11 12q68 69 131 146q29 34 43 34q26 0 29 -35q5 -77 18 -152z" />
    <glyph glyph-name="Atilde" unicode="&#xc3;" horiz-adv-x="619" 
d="M533 0h-33q-7 0 -29.5 1.5t-36.5 1.5q-16 0 -43.5 -1.5t-33.5 -1.5h-23v18h9q25 1 41 18t17 44l3 102h-283l-41 -52q-33 -42 -34 -70q0 -42 45 -42h6v-18h-23q-12 0 -38.5 1.5t-37.5 1.5q-8 0 -36 -1.5t-37 -1.5h-21v18h10q32 0 65 29.5t83 95.5l347 464l-2 74
q9 0 23.5 -1t21.5 -1q8 0 20 1t19 1l-10 -601q-1 -32 11 -47t39 -15h2v-18zM404 205l5 365l-272 -365h267zM529 774q-21 0 -55 21.5t-60 21.5q-11 0 -22 -9t-17.5 -18.5t-19.5 -30.5l-13 8q18 30 28.5 46t33 33.5t47.5 17.5q21 0 55 -21.5t60 -21.5q15 0 28 14t31 43l13 -8
q-19 -32 -29 -46.5t-32.5 -32t-47.5 -17.5z" />
    <glyph glyph-name="Adieresis" unicode="&#xc4;" horiz-adv-x="619" 
d="M533 0h-33q-7 0 -29.5 1.5t-36.5 1.5q-16 0 -43.5 -1.5t-33.5 -1.5h-23v18h9q25 1 41 18t17 44l3 102h-283l-41 -52q-33 -42 -34 -70q0 -42 45 -42h6v-18h-23q-12 0 -38.5 1.5t-37.5 1.5q-8 0 -36 -1.5t-37 -1.5h-21v18h10q32 0 65 29.5t83 95.5l347 464l-2 74
q9 0 23.5 -1t21.5 -1q8 0 20 1t19 1l-10 -601q-1 -32 11 -47t39 -15h2v-18zM404 205l5 365l-272 -365h267zM398 761q-20 0 -33 12.5t-13 33.5q0 20 13 33t33 13t33.5 -13t13.5 -33q0 -21 -13.5 -33.5t-33.5 -12.5zM570 761q-20 0 -33 12.5t-13 33.5q0 20 13 33t33 13
t33.5 -13t13.5 -33q0 -21 -13.5 -33.5t-33.5 -12.5z" />
    <glyph glyph-name="Aring" unicode="&#xc5;" horiz-adv-x="619" 
d="M533 0h-33q-7 0 -29.5 1.5t-36.5 1.5q-16 0 -43.5 -1.5t-33.5 -1.5h-23v18h9q25 1 41 18t17 44l3 102h-283l-41 -52q-33 -42 -34 -70q0 -42 45 -42h6v-18h-23q-12 0 -38.5 1.5t-37.5 1.5q-8 0 -36 -1.5t-37 -1.5h-21v18h10q32 0 65 29.5t83 95.5l347 464l-2 74
q9 0 23.5 -1t21.5 -1q8 0 20 1t19 1l-10 -601q-1 -32 11 -47t39 -15h2v-18zM404 205l5 365l-272 -365h267zM579 828q0 -37 -25 -62.5t-61 -25.5q-37 0 -61.5 25.5t-24.5 62.5q0 36 25 61.5t61 25.5t61 -25.5t25 -61.5zM554 828q0 27 -17 45.5t-44 18.5t-44 -18.5t-17 -45.5
t17 -45.5t44 -18.5t44 18.5t17 45.5z" />
    <glyph glyph-name="AE" unicode="&#xc6;" horiz-adv-x="943" 
d="M735 681h187q39 0 42 30h15l3 -237l-16 -1q-9 32 -16.5 63t-12 49t-10.5 35q-7 21 -21.5 29.5t-42.5 8.5h-166l-117 -301h107q42 0 70.5 31t63.5 99l15 -5l-109 -284l-16 4q17 53 17 82q0 50 -49 50h-107l-120 -311h174q33 0 53.5 9t52.5 39q14 14 145 150l13 -9
l-151 -245l-14 5q12 28 -18 28h-236q-11 0 -32 0.5t-36 0.5q-14 0 -38 -0.5t-35 -0.5h-31v18h12q30 0 47 13.5t30 47.5l40 103h-288l-67 -64q-52 -51 -52 -73q0 -27 36 -27h3v-18h-16q-13 0 -42.5 1.5t-42.5 1.5q-9 0 -37.5 -1.5t-37.5 -1.5h-24v18h4q66 0 184 111l513 484
q24 23 24 34q0 16 -25 16h-9v18h46q10 0 30 -0.5t35 -0.5t38.5 0.5t34.5 0.5zM437 205l156 403l-428 -403h272z" />
    <glyph glyph-name="Ccedilla" unicode="&#xc7;" horiz-adv-x="595" 
d="M255 -100q0 -37 -38.5 -71t-89.5 -53.5t-99 -25.5l-2 15q60 7 117.5 39t57.5 73q0 28 -33 28q-25 0 -53 -15l-7 11l106 91q-66 10 -109 66t-43 146q0 113 55.5 226.5t147.5 187t189 73.5q29 0 68.5 -9t48.5 -9q27 0 25 30l15 1l25 -234l-16 -3q-26 95 -61 148.5t-97 53.5
q-77 0 -149 -65t-116 -166.5t-44 -205.5q0 -85 38 -130t105 -45q108 0 214 138l14 -10q-58 -88 -134 -141.5t-149 -53.5h-9l-43 -47q8 1 14 1q23 0 37.5 -12t14.5 -32z" />
    <glyph glyph-name="Egrave" unicode="&#xc8;" horiz-adv-x="589" 
d="M385 -33l-14 5q12 28 -18 28h-236q-11 0 -32 0.5t-36 0.5q-14 0 -38 -0.5t-35 -0.5h-31v18h13q30 0 47 14.5t30 48.5l203 525q8 22 8 31q0 26 -33 26h-14v18h38q11 0 33.5 -0.5t37.5 -0.5t38.5 0.5t34.5 0.5h187q21 0 31 7t11 23h15l3 -237l-16 -2q-9 32 -16.5 63.5
t-12 49.5t-10.5 35q-7 21 -21.5 29.5t-42.5 8.5h-166l-117 -301h107q42 0 71 31.5t63 98.5l15 -5l-109 -284l-16 4q17 53 17 82q0 50 -49 50h-107l-120 -311h174q33 0 53.5 9t52.5 39q33 31 145 150l13 -9zM480 729l-15 -4q-12 39 -37.5 91.5t-25.5 70.5q0 13 9 22.5t22 9.5
q26 0 31 -30q2 -14 4.5 -64.5t11.5 -95.5z" />
    <glyph glyph-name="Eacute" unicode="&#xc9;" horiz-adv-x="589" 
d="M407 726l-11 11q37 40 76 96t55 72q14 14 29 14q11 0 20 -8.5t9 -21.5q0 -15 -12 -27q-12 -11 -69.5 -53t-96.5 -83zM385 -33l-14 5q12 28 -18 28h-236q-11 0 -32 0.5t-36 0.5q-14 0 -38 -0.5t-35 -0.5h-31v18h13q30 0 47 14.5t30 48.5l203 525q8 22 8 31q0 26 -33 26
h-14v18h38q11 0 33.5 -0.5t37.5 -0.5t38.5 0.5t34.5 0.5h187q21 0 31 7t11 23h15l3 -237l-16 -2q-9 32 -16.5 63.5t-12 49.5t-10.5 35q-7 21 -21.5 29.5t-42.5 8.5h-166l-117 -301h107q42 0 71 31.5t63 98.5l15 -5l-109 -284l-16 4q17 53 17 82q0 50 -49 50h-107l-120 -311
h174q33 0 53.5 9t52.5 39q33 31 145 150l13 -9z" />
    <glyph glyph-name="Ecircumflex" unicode="&#xca;" horiz-adv-x="589" 
d="M542 730l-14 -3q-21 67 -48 120q-111 -88 -148 -122l-11 12q68 69 131 146q29 34 43 34q26 0 29 -35q5 -77 18 -152zM385 -33l-14 5q12 28 -18 28h-236q-11 0 -32 0.5t-36 0.5q-14 0 -38 -0.5t-35 -0.5h-31v18h13q30 0 47 14.5t30 48.5l203 525q8 22 8 31q0 26 -33 26
h-14v18h38q11 0 33.5 -0.5t37.5 -0.5t38.5 0.5t34.5 0.5h187q21 0 31 7t11 23h15l3 -237l-16 -2q-9 32 -16.5 63.5t-12 49.5t-10.5 35q-7 21 -21.5 29.5t-42.5 8.5h-166l-117 -301h107q42 0 71 31.5t63 98.5l15 -5l-109 -284l-16 4q17 53 17 82q0 50 -49 50h-107l-120 -311
h174q33 0 53.5 9t52.5 39q33 31 145 150l13 -9z" />
    <glyph glyph-name="Edieresis" unicode="&#xcb;" horiz-adv-x="589" 
d="M376 761q-20 0 -33 12.5t-13 33.5q0 20 13 33t33 13t33.5 -13t13.5 -33q0 -21 -13.5 -33.5t-33.5 -12.5zM548 761q-20 0 -33 12.5t-13 33.5q0 20 13 33t33 13t33.5 -13t13.5 -33q0 -21 -13.5 -33.5t-33.5 -12.5zM385 -33l-14 5q12 28 -18 28h-236q-11 0 -32 0.5t-36 0.5
q-14 0 -38 -0.5t-35 -0.5h-31v18h13q30 0 47 14.5t30 48.5l203 525q8 22 8 31q0 26 -33 26h-14v18h38q11 0 33.5 -0.5t37.5 -0.5t38.5 0.5t34.5 0.5h187q21 0 31 7t11 23h15l3 -237l-16 -2q-9 32 -16.5 63.5t-12 49.5t-10.5 35q-7 21 -21.5 29.5t-42.5 8.5h-166l-117 -301
h107q42 0 71 31.5t63 98.5l15 -5l-109 -284l-16 4q17 53 17 82q0 50 -49 50h-107l-120 -311h174q33 0 53.5 9t52.5 39q33 31 145 150l13 -9z" />
    <glyph glyph-name="Igrave" unicode="&#xcc;" horiz-adv-x="286" 
d="M157 0h-37q-11 0 -33.5 1.5t-37.5 1.5t-38 -1.5t-34 -1.5h-32v18h13q30 0 47 14.5t30 48.5l203 525q7 20 7 31q0 26 -33 26h-13v18h38q10 0 33 -1.5t38 -1.5t38 1.5t33 1.5h32v-18h-14q-30 0 -47 -14.5t-30 -48.5l-202 -525q-8 -22 -8 -31q0 -26 34 -26h13v-18zM373 729
l-15 -4q-12 39 -37.5 91.5t-25.5 70.5q0 13 9 22.5t22 9.5q26 0 31 -30q2 -14 4.5 -64.5t11.5 -95.5z" />
    <glyph glyph-name="Iacute" unicode="&#xcd;" horiz-adv-x="286" 
d="M157 0h-37q-11 0 -33.5 1.5t-37.5 1.5t-38 -1.5t-34 -1.5h-32v18h13q30 0 47 14.5t30 48.5l203 525q7 20 7 31q0 26 -33 26h-13v18h38q10 0 33 -1.5t38 -1.5t38 1.5t33 1.5h32v-18h-14q-30 0 -47 -14.5t-30 -48.5l-202 -525q-8 -22 -8 -31q0 -26 34 -26h13v-18zM300 726
l-11 11q37 40 76 96t55 72q14 14 29 14q11 0 20 -8.5t9 -21.5q0 -15 -12 -27q-12 -11 -69.5 -53t-96.5 -83z" />
    <glyph glyph-name="Icircumflex" unicode="&#xce;" horiz-adv-x="286" 
d="M157 0h-37q-11 0 -33.5 1.5t-37.5 1.5t-38 -1.5t-34 -1.5h-32v18h13q30 0 47 14.5t30 48.5l203 525q7 20 7 31q0 26 -33 26h-13v18h38q10 0 33 -1.5t38 -1.5t38 1.5t33 1.5h32v-18h-14q-30 0 -47 -14.5t-30 -48.5l-202 -525q-8 -22 -8 -31q0 -26 34 -26h13v-18zM434 730
l-14 -3q-21 67 -48 120q-111 -88 -148 -122l-11 12q68 69 131 146q29 34 43 34q26 0 29 -35q5 -77 18 -152z" />
    <glyph glyph-name="Idieresis" unicode="&#xcf;" horiz-adv-x="286" 
d="M157 0h-37q-11 0 -33.5 1.5t-37.5 1.5t-38 -1.5t-34 -1.5h-32v18h13q30 0 47 14.5t30 48.5l203 525q7 20 7 31q0 26 -33 26h-13v18h38q10 0 33 -1.5t38 -1.5t38 1.5t33 1.5h32v-18h-14q-30 0 -47 -14.5t-30 -48.5l-202 -525q-8 -22 -8 -31q0 -26 34 -26h13v-18zM267 761
q-20 0 -33 12.5t-13 33.5q0 20 13 33t33 13t33.5 -13t13.5 -33q0 -21 -13.5 -33.5t-33.5 -12.5zM439 761q-20 0 -33 12.5t-13 33.5q0 20 13 33t33 13t33.5 -13t13.5 -33q0 -21 -13.5 -33.5t-33.5 -12.5z" />
    <glyph glyph-name="Eth" unicode="&#xd0;" horiz-adv-x="639" 
d="M644 475q0 -48 -14.5 -107.5t-48.5 -125t-81.5 -119t-121.5 -88.5t-160 -35h-91q-12 0 -35 0.5t-39 0.5q-14 0 -37 -0.5t-33 -0.5h-33v18h13q30 0 48 15t30 48l98 255h-65v23h73l96 246q7 20 7 31q0 26 -33 26h-13v19h39q10 0 32 -0.5t37 -0.5q16 0 38.5 0.5t34.5 0.5h52
q93 0 150 -49.5t57 -156.5zM224 23q68 0 128.5 45t100 111t68.5 140.5t42 132.5t13 88q0 63 -38.5 90.5t-113.5 27.5h-77l-114 -299h116v-23h-125l-120 -313h120z" />
    <glyph glyph-name="Ntilde" unicode="&#xd1;" horiz-adv-x="661" 
d="M482 70l17 -70q-11 0 -24 0.5t-18 0.5q-8 0 -19 -0.5t-20 -0.5l-152 592l-174 -451q-18 -47 -18 -73q0 -50 44 -50h9v-18h-32q-6 0 -29 1.5t-37 1.5q-16 0 -36 -1.5t-26 -1.5h-30v18h12q70 0 120 128l185 482q-11 35 -45 35h-19v18h38q11 0 27 -0.5t26 -0.5q12 0 24 0.5
t22 0.5l145 -572l166 431q19 48 19 72q0 51 -45 51h-9v18h33q7 0 30 -1.5t37 -1.5q15 0 35 1.5t27 1.5h28v-18h-11q-41 0 -69.5 -33.5t-52.5 -97.5zM566 774q-21 0 -55 21.5t-60 21.5q-11 0 -22 -9t-17.5 -18.5t-19.5 -30.5l-13 8q18 30 28.5 46t33 33.5t47.5 17.5
q21 0 55 -21.5t60 -21.5q15 0 28 14t31 43l13 -8q-19 -32 -29 -46.5t-32.5 -32t-47.5 -17.5z" />
    <glyph glyph-name="Ograve" unicode="&#xd2;" horiz-adv-x="644" 
d="M244 -10q-80 0 -130.5 60.5t-50.5 155.5q0 75 30 159.5t81.5 157t129.5 120.5t164 48q81 0 131.5 -60.5t50.5 -155.5q0 -60 -18.5 -126.5t-55 -130t-85 -114.5t-113 -82.5t-134.5 -31.5zM241 14q60 0 116 43t95.5 108t69.5 138.5t45 136t15 100.5q0 58 -30.5 92.5
t-80.5 34.5q-73 0 -140.5 -65t-109 -154.5t-66 -173.5t-24.5 -133q0 -58 30 -92.5t80 -34.5zM541 729l-15 -4q-12 39 -37.5 91.5t-25.5 70.5q0 13 9 22.5t22 9.5q26 0 31 -30q2 -14 4.5 -64.5t11.5 -95.5z" />
    <glyph glyph-name="Oacute" unicode="&#xd3;" horiz-adv-x="644" 
d="M468 726l-11 11q37 40 76 96t55 72q14 14 29 14q11 0 20 -8.5t9 -21.5q0 -15 -12 -27q-12 -11 -69.5 -53t-96.5 -83zM244 -10q-80 0 -130.5 60.5t-50.5 155.5q0 75 30 159.5t81.5 157t129.5 120.5t164 48q81 0 131.5 -60.5t50.5 -155.5q0 -60 -18.5 -126.5t-55 -130
t-85 -114.5t-113 -82.5t-134.5 -31.5zM241 14q60 0 116 43t95.5 108t69.5 138.5t45 136t15 100.5q0 58 -30.5 92.5t-80.5 34.5q-73 0 -140.5 -65t-109 -154.5t-66 -173.5t-24.5 -133q0 -58 30 -92.5t80 -34.5z" />
    <glyph glyph-name="Ocircumflex" unicode="&#xd4;" horiz-adv-x="644" 
d="M602 730l-14 -3q-21 67 -48 120q-111 -88 -148 -122l-11 12q68 69 131 146q29 34 43 34q26 0 29 -35q5 -77 18 -152zM244 -10q-80 0 -130.5 60.5t-50.5 155.5q0 75 30 159.5t81.5 157t129.5 120.5t164 48q81 0 131.5 -60.5t50.5 -155.5q0 -60 -18.5 -126.5t-55 -130
t-85 -114.5t-113 -82.5t-134.5 -31.5zM241 14q60 0 116 43t95.5 108t69.5 138.5t45 136t15 100.5q0 58 -30.5 92.5t-80.5 34.5q-73 0 -140.5 -65t-109 -154.5t-66 -173.5t-24.5 -133q0 -58 30 -92.5t80 -34.5z" />
    <glyph glyph-name="Otilde" unicode="&#xd5;" horiz-adv-x="644" 
d="M244 -10q-80 0 -130.5 60.5t-50.5 155.5q0 75 30 159.5t81.5 157t129.5 120.5t164 48q81 0 131.5 -60.5t50.5 -155.5q0 -60 -18.5 -126.5t-55 -130t-85 -114.5t-113 -82.5t-134.5 -31.5zM241 14q60 0 116 43t95.5 108t69.5 138.5t45 136t15 100.5q0 58 -30.5 92.5
t-80.5 34.5q-73 0 -140.5 -65t-109 -154.5t-66 -173.5t-24.5 -133q0 -58 30 -92.5t80 -34.5zM568 774q-21 0 -55 21.5t-60 21.5q-11 0 -22 -9t-17.5 -18.5t-19.5 -30.5l-13 8q18 30 28.5 46t33 33.5t47.5 17.5q21 0 55 -21.5t60 -21.5q15 0 28 14t31 43l13 -8
q-19 -32 -29 -46.5t-32.5 -32t-47.5 -17.5z" />
    <glyph glyph-name="Odieresis" unicode="&#xd6;" horiz-adv-x="644" 
d="M436 761q-20 0 -33 12.5t-13 33.5q0 20 13 33t33 13t33.5 -13t13.5 -33q0 -21 -13.5 -33.5t-33.5 -12.5zM608 761q-20 0 -33 12.5t-13 33.5q0 20 13 33t33 13t33.5 -13t13.5 -33q0 -21 -13.5 -33.5t-33.5 -12.5zM244 -10q-80 0 -130.5 60.5t-50.5 155.5q0 75 30 159.5
t81.5 157t129.5 120.5t164 48q81 0 131.5 -60.5t50.5 -155.5q0 -60 -18.5 -126.5t-55 -130t-85 -114.5t-113 -82.5t-134.5 -31.5zM241 14q60 0 116 43t95.5 108t69.5 138.5t45 136t15 100.5q0 58 -30.5 92.5t-80.5 34.5q-73 0 -140.5 -65t-109 -154.5t-66 -173.5t-24.5 -133
q0 -58 30 -92.5t80 -34.5z" />
    <glyph glyph-name="multiply" unicode="&#xd7;" horiz-adv-x="393" 
d="M132 484l23 13l79 -154l201 156l16 -20l-205 -159l83 -158l-23 -12l-81 154l-200 -157l-16 20l205 159z" />
    <glyph glyph-name="Oslash" unicode="&#xd8;" horiz-adv-x="654" 
d="M249 -10q-86 0 -137 68l-117 -122l-18 19l120 126q-29 52 -29 125q0 75 30 159.5t81.5 157t129.5 120.5t164 48q89 0 140 -72l119 125l18 -19l-123 -129q28 -53 28 -121q0 -60 -18.5 -126.5t-55 -130t-85 -114.5t-113 -82.5t-134.5 -31.5zM136 141q0 -13 1 -19l444 464
q-11 38 -38.5 59.5t-66.5 21.5q-73 0 -140.5 -65t-109 -154.5t-66 -173.5t-24.5 -133zM246 14q60 0 116 43t95.5 108t69.5 138.5t45 136t15 100.5q0 9 -1 14l-443 -464q24 -76 103 -76z" />
    <glyph glyph-name="Ugrave" unicode="&#xd9;" horiz-adv-x="616" 
d="M227 -8q-79 0 -123.5 36.5t-44.5 99.5q0 47 29 123l137 355q8 21 8 31q0 26 -34 26h-13v18h38q10 0 32.5 -1.5t37.5 -1.5t38 1.5t34 1.5h32v-18h-12q-30 0 -47.5 -14.5t-30.5 -48.5l-137 -354q-32 -82 -32 -129q0 -44 28 -69.5t82 -25.5q156 0 234 201l120 311
q21 55 21 79q0 50 -45 50h-8v18h32q6 0 29.5 -1.5t37.5 -1.5q16 0 35.5 1.5t24.5 1.5h31v-18h-14q-41 0 -69 -37t-52 -99l-120 -311q-86 -224 -279 -224zM532 729l-15 -4q-12 39 -37.5 91.5t-25.5 70.5q0 13 9 22.5t22 9.5q26 0 31 -30q2 -14 4.5 -64.5t11.5 -95.5z" />
    <glyph glyph-name="Uacute" unicode="&#xda;" horiz-adv-x="616" 
d="M459 726l-11 11q37 40 76 96t55 72q14 14 29 14q11 0 20 -8.5t9 -21.5q0 -15 -12 -27q-12 -11 -69.5 -53t-96.5 -83zM227 -8q-79 0 -123.5 36.5t-44.5 99.5q0 47 29 123l137 355q8 21 8 31q0 26 -34 26h-13v18h38q10 0 32.5 -1.5t37.5 -1.5t38 1.5t34 1.5h32v-18h-12
q-30 0 -47.5 -14.5t-30.5 -48.5l-137 -354q-32 -82 -32 -129q0 -44 28 -69.5t82 -25.5q156 0 234 201l120 311q21 55 21 79q0 50 -45 50h-8v18h32q6 0 29.5 -1.5t37.5 -1.5q16 0 35.5 1.5t24.5 1.5h31v-18h-14q-41 0 -69 -37t-52 -99l-120 -311q-86 -224 -279 -224z" />
    <glyph glyph-name="Ucircumflex" unicode="&#xdb;" horiz-adv-x="616" 
d="M594 730l-14 -3q-21 67 -48 120q-111 -88 -148 -122l-11 12q68 69 131 146q29 34 43 34q26 0 29 -35q5 -77 18 -152zM227 -8q-79 0 -123.5 36.5t-44.5 99.5q0 47 29 123l137 355q8 21 8 31q0 26 -34 26h-13v18h38q10 0 32.5 -1.5t37.5 -1.5t38 1.5t34 1.5h32v-18h-12
q-30 0 -47.5 -14.5t-30.5 -48.5l-137 -354q-32 -82 -32 -129q0 -44 28 -69.5t82 -25.5q156 0 234 201l120 311q21 55 21 79q0 50 -45 50h-8v18h32q6 0 29.5 -1.5t37.5 -1.5q16 0 35.5 1.5t24.5 1.5h31v-18h-14q-41 0 -69 -37t-52 -99l-120 -311q-86 -224 -279 -224z" />
    <glyph glyph-name="Udieresis" unicode="&#xdc;" horiz-adv-x="616" 
d="M428 761q-20 0 -33 12.5t-13 33.5q0 20 13 33t33 13t33.5 -13t13.5 -33q0 -21 -13.5 -33.5t-33.5 -12.5zM600 761q-20 0 -33 12.5t-13 33.5q0 20 13 33t33 13t33.5 -13t13.5 -33q0 -21 -13.5 -33.5t-33.5 -12.5zM227 -8q-79 0 -123.5 36.5t-44.5 99.5q0 47 29 123
l137 355q8 21 8 31q0 26 -34 26h-13v18h38q10 0 32.5 -1.5t37.5 -1.5t38 1.5t34 1.5h32v-18h-12q-30 0 -47.5 -14.5t-30.5 -48.5l-137 -354q-32 -82 -32 -129q0 -44 28 -69.5t82 -25.5q156 0 234 201l120 311q21 55 21 79q0 50 -45 50h-8v18h32q6 0 29.5 -1.5t37.5 -1.5
q16 0 35.5 1.5t24.5 1.5h31v-18h-14q-41 0 -69 -37t-52 -99l-120 -311q-86 -224 -279 -224z" />
    <glyph glyph-name="Yacute" unicode="&#xdd;" horiz-adv-x="584" 
d="M301 0h-37q-10 0 -32.5 1.5t-37.5 1.5t-38 -1.5t-33 -1.5h-33v18h13q30 0 47 14.5t30 48.5l95 245l-59 288q-6 28 -19.5 38.5t-39.5 10.5h-9v18h45q6 0 27.5 -1.5t37.5 -1.5t37 1.5t27 1.5h37v-18h-9q-53 0 -53 -36q0 -13 3 -24l53 -260l188 206q60 65 60 90q0 24 -31 24
h-8v18h19q16 0 40.5 -1.5t34.5 -1.5q11 0 38 1.5t35 1.5h25v-18h-7q-71 -1 -189 -130l-207 -227l-89 -231q-7 -20 -7 -31q0 -26 33 -26h13v-18zM440 726l-11 11q37 40 76 96t55 72q14 14 29 14q11 0 20 -8.5t9 -21.5q0 -15 -12 -27q-12 -11 -69.5 -53t-96.5 -83z" />
    <glyph glyph-name="Thorn" unicode="&#xde;" horiz-adv-x="564" 
d="M157 0h-37q-11 0 -33 1.5t-37 1.5t-38.5 -1.5t-34.5 -1.5h-32v18h14q30 0 47 14.5t30 48.5l202 525q7 20 7 31q0 26 -33 26h-13v18h38q10 0 33 -1.5t38 -1.5t38 1.5t33 1.5h32v-18h-14q-29 0 -45.5 -14t-30.5 -49l-23 -58h122q74 0 117 -35.5t43 -95.5q0 -89 -79 -164.5
t-208 -75.5h-137l-37 -96q-8 -22 -8 -31q0 -26 34 -26h12v-18zM409 518h-120l-124 -323h129q45 0 82.5 20.5t60 50.5t38.5 64.5t22 61.5t6 44q0 44 -20.5 63t-73.5 19z" />
    <glyph glyph-name="germandbls" unicode="&#xdf;" horiz-adv-x="526" 
d="M255 517l-134 -394q-58 -173 -157 -266t-208 -93q-20 0 -32.5 9t-12.5 24t10.5 23.5t27.5 8.5q15 0 48 -10.5t50 -10.5q43 0 87 59t80 167l120 363l26 71h-78v22h87q92 202 255 202q55 0 92.5 -23.5t37.5 -59.5q0 -18 -8.5 -34.5t-26.5 -32t-33 -25.5t-42 -26t-38 -24
q-25 -17 -36.5 -30t-11.5 -32q0 -9 4 -19.5t7 -16t13.5 -20t13.5 -18.5l32 -47q46 -66 46 -129q0 -76 -49 -119.5t-113 -43.5t-105.5 34.5t-41.5 76.5q0 13 9 22.5t22 9.5q26 0 31 -31q16 -94 89 -94q42 0 71 26.5t29 71.5q0 47 -54 125l-33 48q-32 47 -32 80
q0 23 14.5 45.5t31 36.5t51.5 40q54 41 75.5 66.5t21.5 59.5q0 64 -72 64q-59 0 -98 -37.5t-66 -118.5z" />
    <glyph glyph-name="agrave" unicode="&#xe0;" horiz-adv-x="523" 
d="M318 -8q-25 0 -38.5 14t-13.5 36q0 21 31 101l78 206l-152 -223q-47 -69 -81.5 -101.5t-69.5 -32.5q-27 0 -46 17t-19 54q0 43 24.5 115t63 144t93.5 124t108 52q32 0 57 -19.5t53 -55.5q36 13 57.5 30.5t35.5 46.5l14 -6l-139 -361q-24 -59 -24 -75q0 -17 14 -17
q23 0 96 94l14 -9q-96 -134 -156 -134zM114 41q25 0 90 96l186 273q-48 64 -84 64t-76 -52.5t-68.5 -121.5t-47.5 -134t-19 -93q0 -32 19 -32zM409 540l-15 -4q-12 39 -37.5 91.5t-25.5 70.5q0 13 9 22.5t22 9.5q26 0 31 -30q2 -14 4.5 -64.5t11.5 -95.5z" />
    <glyph glyph-name="aacute" unicode="&#xe1;" horiz-adv-x="523" 
d="M318 -8q-25 0 -38.5 14t-13.5 36q0 21 31 101l78 206l-152 -223q-47 -69 -81.5 -101.5t-69.5 -32.5q-27 0 -46 17t-19 54q0 43 24.5 115t63 144t93.5 124t108 52q32 0 57 -19.5t53 -55.5q36 13 57.5 30.5t35.5 46.5l14 -6l-139 -361q-24 -59 -24 -75q0 -17 14 -17
q23 0 96 94l14 -9q-96 -134 -156 -134zM114 41q25 0 90 96l186 273q-48 64 -84 64t-76 -52.5t-68.5 -121.5t-47.5 -134t-19 -93q0 -32 19 -32zM336 537l-11 11q37 40 76 96t55 72q14 14 29 14q11 0 20 -8.5t9 -21.5q0 -15 -12 -27q-12 -11 -69.5 -53t-96.5 -83z" />
    <glyph glyph-name="acircumflex" unicode="&#xe2;" horiz-adv-x="523" 
d="M318 -8q-25 0 -38.5 14t-13.5 36q0 21 31 101l78 206l-152 -223q-47 -69 -81.5 -101.5t-69.5 -32.5q-27 0 -46 17t-19 54q0 43 24.5 115t63 144t93.5 124t108 52q32 0 57 -19.5t53 -55.5q36 13 57.5 30.5t35.5 46.5l14 -6l-139 -361q-24 -59 -24 -75q0 -17 14 -17
q23 0 96 94l14 -9q-96 -134 -156 -134zM114 41q25 0 90 96l186 273q-48 64 -84 64t-76 -52.5t-68.5 -121.5t-47.5 -134t-19 -93q0 -32 19 -32zM471 541l-14 -3q-21 67 -48 120q-111 -88 -148 -122l-11 12q68 69 131 146q29 34 43 34q26 0 29 -35q5 -77 18 -152z" />
    <glyph glyph-name="atilde" unicode="&#xe3;" horiz-adv-x="523" 
d="M318 -8q-25 0 -38.5 14t-13.5 36q0 21 31 101l78 206l-152 -223q-47 -69 -81.5 -101.5t-69.5 -32.5q-27 0 -46 17t-19 54q0 43 24.5 115t63 144t93.5 124t108 52q32 0 57 -19.5t53 -55.5q36 13 57.5 30.5t35.5 46.5l14 -6l-139 -361q-24 -59 -24 -75q0 -17 14 -17
q23 0 96 94l14 -9q-96 -134 -156 -134zM114 41q25 0 90 96l186 273q-48 64 -84 64t-76 -52.5t-68.5 -121.5t-47.5 -134t-19 -93q0 -32 19 -32zM436 585q-21 0 -55 21.5t-60 21.5q-11 0 -22 -9t-17.5 -18.5t-19.5 -30.5l-13 8q18 30 28.5 46t33 33.5t47.5 17.5q21 0 55 -21.5
t60 -21.5q15 0 28 14t31 43l13 -8q-19 -32 -29 -46.5t-32.5 -32t-47.5 -17.5z" />
    <glyph glyph-name="adieresis" unicode="&#xe4;" horiz-adv-x="523" 
d="M318 -8q-25 0 -38.5 14t-13.5 36q0 21 31 101l78 206l-152 -223q-47 -69 -81.5 -101.5t-69.5 -32.5q-27 0 -46 17t-19 54q0 43 24.5 115t63 144t93.5 124t108 52q32 0 57 -19.5t53 -55.5q36 13 57.5 30.5t35.5 46.5l14 -6l-139 -361q-24 -59 -24 -75q0 -17 14 -17
q23 0 96 94l14 -9q-96 -134 -156 -134zM114 41q25 0 90 96l186 273q-48 64 -84 64t-76 -52.5t-68.5 -121.5t-47.5 -134t-19 -93q0 -32 19 -32zM309 582q-20 0 -33 12.5t-13 33.5q0 20 13 33t33 13t33.5 -13t13.5 -33q0 -21 -13.5 -33.5t-33.5 -12.5zM481 582q-20 0 -33 12.5
t-13 33.5q0 20 13 33t33 13t33.5 -13t13.5 -33q0 -21 -13.5 -33.5t-33.5 -12.5z" />
    <glyph glyph-name="aring" unicode="&#xe5;" horiz-adv-x="523" 
d="M318 -8q-25 0 -38.5 14t-13.5 36q0 21 31 101l78 206l-152 -223q-47 -69 -81.5 -101.5t-69.5 -32.5q-27 0 -46 17t-19 54q0 43 24.5 115t63 144t93.5 124t108 52q32 0 57 -19.5t53 -55.5q36 13 57.5 30.5t35.5 46.5l14 -6l-139 -361q-24 -59 -24 -75q0 -17 14 -17
q23 0 96 94l14 -9q-96 -134 -156 -134zM114 41q25 0 90 96l186 273q-48 64 -84 64t-76 -52.5t-68.5 -121.5t-47.5 -134t-19 -93q0 -32 19 -32zM487 639q0 -37 -25 -62.5t-61 -25.5q-37 0 -61.5 25.5t-24.5 62.5q0 36 25 61.5t61 25.5t61 -25.5t25 -61.5zM462 639
q0 27 -17 45.5t-44 18.5t-44 -18.5t-17 -45.5t17 -45.5t44 -18.5t44 18.5t17 45.5z" />
    <glyph glyph-name="ae" unicode="&#xe6;" horiz-adv-x="679" 
d="M296 498q65 0 123 -82q86 82 165 82q45 0 74.5 -19t29.5 -51q0 -62 -93.5 -117.5t-207.5 -69.5q-16 -58 -16 -98q0 -98 66 -98q62 0 159 123l13 -10q-116 -166 -218 -166q-47 0 -76 36t-29 94q0 57 27 126l-90 -122q-53 -72 -85 -103t-66 -31q-27 0 -46 17t-19 54
q0 43 24.5 115t63 144t93.5 124t108 52zM204 137l144 191q49 65 55 72q-52 74 -97 74q-36 0 -76 -52.5t-68.5 -121.5t-47.5 -134t-19 -93q0 -32 19 -32q3 0 7 1.5t8.5 5t8.5 7t9.5 10t9.5 11t11 13.5t11 14.5t12.5 16.5t12.5 17zM584 479q-58 0 -110.5 -63.5t-80.5 -153.5
q86 10 155.5 70.5t69.5 112.5q0 34 -34 34z" />
    <glyph glyph-name="ccedilla" unicode="&#xe7;" horiz-adv-x="416" 
d="M143 -100q0 -37 -38.5 -71t-89.5 -53.5t-99 -25.5l-2 15q60 7 117.5 39t57.5 73q0 28 -33 28q-25 0 -53 -15l-7 11l107 93q-36 9 -60 42.5t-24 85.5q0 79 41 166.5t110 148.5t140 61q42 0 71 -33t29 -77q0 -31 -10.5 -49t-28.5 -18q-13 0 -21.5 9t-8.5 22q0 10 10 35
t10 42q0 22 -14 36t-40 14q-45 0 -93 -54t-78.5 -133t-30.5 -148q0 -99 63 -99q65 0 160 123l13 -10q-113 -164 -215 -166h-4l-45 -49q8 1 14 1q23 0 37.5 -12t14.5 -32z" />
    <glyph glyph-name="egrave" unicode="&#xe8;" horiz-adv-x="416" 
d="M125 -8q-47 0 -76 36t-29 94q0 83 44.5 171.5t115.5 146.5t141 58q45 0 74.5 -19t29.5 -51q0 -62 -94.5 -117.5t-209.5 -69.5q-16 -58 -16 -98q0 -98 66 -98q33 0 69.5 28t89.5 95l13 -10q-116 -166 -218 -166zM356 445q0 34 -35 34q-59 0 -112.5 -64t-81.5 -153
q87 10 158 70.5t71 112.5zM378 540l-15 -4q-12 39 -37.5 91.5t-25.5 70.5q0 13 9 22.5t22 9.5q26 0 31 -30q2 -14 4.5 -64.5t11.5 -95.5z" />
    <glyph glyph-name="eacute" unicode="&#xe9;" horiz-adv-x="416" 
d="M305 537l-11 11q37 40 76 96t55 72q14 14 29 14q11 0 20 -8.5t9 -21.5q0 -15 -12 -27q-12 -11 -69.5 -53t-96.5 -83zM125 -8q-47 0 -76 36t-29 94q0 83 44.5 171.5t115.5 146.5t141 58q45 0 74.5 -19t29.5 -51q0 -62 -94.5 -117.5t-209.5 -69.5q-16 -58 -16 -98
q0 -98 66 -98q33 0 69.5 28t89.5 95l13 -10q-116 -166 -218 -166zM356 445q0 34 -35 34q-59 0 -112.5 -64t-81.5 -153q87 10 158 70.5t71 112.5z" />
    <glyph glyph-name="ecircumflex" unicode="&#xea;" horiz-adv-x="416" 
d="M440 541l-14 -3q-21 67 -48 120q-111 -88 -148 -122l-11 12q68 69 131 146q29 34 43 34q26 0 29 -35q5 -77 18 -152zM125 -8q-47 0 -76 36t-29 94q0 83 44.5 171.5t115.5 146.5t141 58q45 0 74.5 -19t29.5 -51q0 -62 -94.5 -117.5t-209.5 -69.5q-16 -58 -16 -98
q0 -98 66 -98q33 0 69.5 28t89.5 95l13 -10q-116 -166 -218 -166zM356 445q0 34 -35 34q-59 0 -112.5 -64t-81.5 -153q87 10 158 70.5t71 112.5z" />
    <glyph glyph-name="edieresis" unicode="&#xeb;" horiz-adv-x="416" 
d="M278 582q-20 0 -33 12.5t-13 33.5q0 20 13 33t33 13t33.5 -13t13.5 -33q0 -21 -13.5 -33.5t-33.5 -12.5zM450 582q-20 0 -33 12.5t-13 33.5q0 20 13 33t33 13t33.5 -13t13.5 -33q0 -21 -13.5 -33.5t-33.5 -12.5zM125 -8q-47 0 -76 36t-29 94q0 83 44.5 171.5t115.5 146.5
t141 58q45 0 74.5 -19t29.5 -51q0 -62 -94.5 -117.5t-209.5 -69.5q-16 -58 -16 -98q0 -98 66 -98q33 0 69.5 28t89.5 95l13 -10q-116 -166 -218 -166zM356 445q0 34 -35 34q-59 0 -112.5 -64t-81.5 -153q87 10 158 70.5t71 112.5z" />
    <glyph glyph-name="igrave" unicode="&#xec;" horiz-adv-x="280" 
d="M229 347l-103 -213q-27 -56 -27 -76q0 -17 14 -17q22 0 95 94l14 -9q-94 -134 -155 -134q-24 0 -37.5 14.5t-13.5 35.5q0 35 32 101l103 213q27 56 27 76q0 17 -14 17q-23 0 -96 -94l-14 9q96 134 155 134q25 0 38.5 -14t13.5 -36q0 -35 -32 -101zM287 540l-15 -4
q-12 39 -37.5 91.5t-25.5 70.5q0 13 9 22.5t22 9.5q26 0 31 -30q2 -14 4.5 -64.5t11.5 -95.5z" />
    <glyph glyph-name="iacute" unicode="&#xed;" horiz-adv-x="280" 
d="M213 537l-11 11q37 40 76 96t55 72q14 14 29 14q11 0 20 -8.5t9 -21.5q0 -15 -12 -27q-12 -11 -69.5 -53t-96.5 -83zM229 347l-103 -213q-27 -56 -27 -76q0 -17 14 -17q22 0 95 94l14 -9q-94 -134 -155 -134q-24 0 -37.5 14.5t-13.5 35.5q0 35 32 101l103 213
q27 56 27 76q0 17 -14 17q-23 0 -96 -94l-14 9q96 134 155 134q25 0 38.5 -14t13.5 -36q0 -35 -32 -101z" />
    <glyph glyph-name="icircumflex" unicode="&#xee;" horiz-adv-x="280" 
d="M348 541l-14 -3q-21 67 -48 120q-111 -88 -148 -122l-11 12q68 69 131 146q29 34 43 34q26 0 29 -35q5 -77 18 -152zM229 347l-103 -213q-27 -56 -27 -76q0 -17 14 -17q22 0 95 94l14 -9q-94 -134 -155 -134q-24 0 -37.5 14.5t-13.5 35.5q0 35 32 101l103 213
q27 56 27 76q0 17 -14 17q-23 0 -96 -94l-14 9q96 134 155 134q25 0 38.5 -14t13.5 -36q0 -35 -32 -101z" />
    <glyph glyph-name="idieresis" unicode="&#xef;" horiz-adv-x="280" 
d="M186 582q-20 0 -33 12.5t-13 33.5q0 20 13 33t33 13t33.5 -13t13.5 -33q0 -21 -13.5 -33.5t-33.5 -12.5zM358 582q-20 0 -33 12.5t-13 33.5q0 20 13 33t33 13t33.5 -13t13.5 -33q0 -21 -13.5 -33.5t-33.5 -12.5zM229 347l-103 -213q-27 -56 -27 -76q0 -17 14 -17
q22 0 95 94l14 -9q-94 -134 -155 -134q-24 0 -37.5 14.5t-13.5 35.5q0 35 32 101l103 213q27 56 27 76q0 17 -14 17q-23 0 -96 -94l-14 9q96 134 155 134q25 0 38.5 -14t13.5 -36q0 -35 -32 -101z" />
    <glyph glyph-name="eth" unicode="&#xf0;" horiz-adv-x="469" 
d="M141 -8q-48 0 -83.5 40.5t-35.5 105.5q0 38 13 85t39 95.5t60.5 88.5t81 65.5t96.5 25.5q41 0 68 -27q1 9 1 26q0 53 -24 98l-101 -55l-10 19l100 55q-33 48 -84 64l5 15q62 -18 104 -65l97 54l10 -18l-92 -52q61 -78 61 -193q0 -100 -39 -198t-111 -163.5t-156 -65.5z
M142 11q66 0 137 126q93 162 99 309q-26 32 -62 32q-65 0 -135 -120q-39 -69 -67 -151.5t-28 -127.5q0 -32 15 -50t41 -18z" />
    <glyph glyph-name="ntilde" unicode="&#xf1;" horiz-adv-x="554" 
d="M342 -8q-23 0 -36.5 14.5t-13.5 36.5q0 33 32 99l98 201q33 68 33 87q0 20 -16 20q-12 0 -33.5 -22.5t-70.5 -90.5l-246 -337q-7 0 -22.5 1t-21.5 1q-7 0 -21 -1t-20 -1l149 358q25 58 25 72q0 19 -15 19q-21 0 -95 -94l-14 9q96 134 158 134q23 0 36.5 -14.5t13.5 -36.5
q0 -28 -30 -100l-114 -269l201 273q63 86 96.5 116.5t68.5 30.5q27 0 40.5 -14.5t13.5 -36.5q0 -38 -35 -108l-100 -205q-27 -56 -27 -76q0 -17 13 -17t33 19.5t63 74.5l14 -9q-50 -70 -87.5 -102t-69.5 -32zM446 585q-21 0 -55 21.5t-60 21.5q-11 0 -22 -9t-17.5 -18.5
t-19.5 -30.5l-13 8q18 30 28.5 46t33 33.5t47.5 17.5q21 0 55 -21.5t60 -21.5q15 0 28 14t31 43l13 -8q-19 -32 -29 -46.5t-32.5 -32t-47.5 -17.5z" />
    <glyph glyph-name="ograve" unicode="&#xf2;" horiz-adv-x="461" 
d="M143 11q65 0 127 100q42 68 73 159t31 141q0 32 -15.5 49.5t-40.5 17.5q-67 0 -128 -100q-41 -67 -72 -158t-31 -142q0 -31 15.5 -49t40.5 -18zM144 -8q-47 0 -84.5 39t-37.5 109q0 47 21.5 107t57.5 117t94 95.5t122 38.5q47 0 84.5 -39t37.5 -109q0 -47 -21.5 -107.5
t-58 -117t-94 -95t-121.5 -38.5zM386 540l-15 -4q-12 39 -37.5 91.5t-25.5 70.5q0 13 9 22.5t22 9.5q26 0 31 -30q2 -14 4.5 -64.5t11.5 -95.5z" />
    <glyph glyph-name="oacute" unicode="&#xf3;" horiz-adv-x="461" 
d="M313 537l-11 11q37 40 76 96t55 72q14 14 29 14q11 0 20 -8.5t9 -21.5q0 -15 -12 -27q-12 -11 -69.5 -53t-96.5 -83zM143 11q65 0 127 100q42 68 73 159t31 141q0 32 -15.5 49.5t-40.5 17.5q-67 0 -128 -100q-41 -67 -72 -158t-31 -142q0 -31 15.5 -49t40.5 -18zM144 -8
q-47 0 -84.5 39t-37.5 109q0 47 21.5 107t57.5 117t94 95.5t122 38.5q47 0 84.5 -39t37.5 -109q0 -47 -21.5 -107.5t-58 -117t-94 -95t-121.5 -38.5z" />
    <glyph glyph-name="ocircumflex" unicode="&#xf4;" horiz-adv-x="461" 
d="M448 541l-14 -3q-21 67 -48 120q-111 -88 -148 -122l-11 12q68 69 131 146q29 34 43 34q26 0 29 -35q5 -77 18 -152zM143 11q65 0 127 100q42 68 73 159t31 141q0 32 -15.5 49.5t-40.5 17.5q-67 0 -128 -100q-41 -67 -72 -158t-31 -142q0 -31 15.5 -49t40.5 -18zM144 -8
q-47 0 -84.5 39t-37.5 109q0 47 21.5 107t57.5 117t94 95.5t122 38.5q47 0 84.5 -39t37.5 -109q0 -47 -21.5 -107.5t-58 -117t-94 -95t-121.5 -38.5z" />
    <glyph glyph-name="otilde" unicode="&#xf5;" horiz-adv-x="461" 
d="M143 11q65 0 127 100q42 68 73 159t31 141q0 32 -15.5 49.5t-40.5 17.5q-67 0 -128 -100q-41 -67 -72 -158t-31 -142q0 -31 15.5 -49t40.5 -18zM144 -8q-47 0 -84.5 39t-37.5 109q0 47 21.5 107t57.5 117t94 95.5t122 38.5q47 0 84.5 -39t37.5 -109q0 -47 -21.5 -107.5
t-58 -117t-94 -95t-121.5 -38.5zM413 585q-21 0 -55 21.5t-60 21.5q-11 0 -22 -9t-17.5 -18.5t-19.5 -30.5l-13 8q18 30 28.5 46t33 33.5t47.5 17.5q21 0 55 -21.5t60 -21.5q15 0 28 14t31 43l13 -8q-19 -32 -29 -46.5t-32.5 -32t-47.5 -17.5z" />
    <glyph glyph-name="odieresis" unicode="&#xf6;" horiz-adv-x="461" 
d="M286 582q-20 0 -33 12.5t-13 33.5q0 20 13 33t33 13t33.5 -13t13.5 -33q0 -21 -13.5 -33.5t-33.5 -12.5zM458 582q-20 0 -33 12.5t-13 33.5q0 20 13 33t33 13t33.5 -13t13.5 -33q0 -21 -13.5 -33.5t-33.5 -12.5zM143 11q65 0 127 100q42 68 73 159t31 141
q0 32 -15.5 49.5t-40.5 17.5q-67 0 -128 -100q-41 -67 -72 -158t-31 -142q0 -31 15.5 -49t40.5 -18zM144 -8q-47 0 -84.5 39t-37.5 109q0 47 21.5 107t57.5 117t94 95.5t122 38.5q47 0 84.5 -39t37.5 -109q0 -47 -21.5 -107.5t-58 -117t-94 -95t-121.5 -38.5z" />
    <glyph glyph-name="divide" unicode="&#xf7;" horiz-adv-x="500" 
d="M284 479q0 23 15.5 39t38.5 16t39 -16t16 -39t-16 -38.5t-39 -15.5t-38.5 15.5t-15.5 38.5zM164 165q0 23 15.5 39t38.5 16t39.5 -16t16.5 -39t-16.5 -38.5t-39.5 -15.5t-38.5 15.5t-15.5 38.5zM85 309v26h396v-26h-396z" />
    <glyph glyph-name="oslash" unicode="&#xf8;" horiz-adv-x="469" 
d="M148 -8q-57 0 -94 50l-92 -97l-16 15l97 101q-17 32 -17 79t21.5 107t57.5 117t94 95.5t122 38.5q56 0 93 -50l94 99l16 -15l-99 -103q18 -34 18 -79q0 -47 -21.5 -107.5t-58 -117t-94 -95t-121.5 -38.5zM147 11q65 0 127 100q35 57 63.5 133t37.5 132l-284 -296v-2
q0 -31 15.5 -49t40.5 -18zM194 378q-34 -56 -62.5 -131.5t-37.5 -131.5l284 296q0 32 -15.5 49.5t-40.5 17.5q-67 0 -128 -100z" />
    <glyph glyph-name="ugrave" unicode="&#xf9;" horiz-adv-x="551" 
d="M212 498q23 0 36.5 -14.5t13.5 -36.5q0 -33 -32 -99l-98 -201q-33 -68 -33 -87q0 -20 16 -20q11 0 31 22t71 91l245 337q7 0 22.5 -1t21.5 -1t20 1t21 1l-149 -358q-25 -58 -25 -72q0 -19 14 -19q13 0 34 21t62 73l14 -9q-95 -134 -158 -134q-23 0 -36.5 14.5t-13.5 36.5
q0 28 30 100l114 269l-199 -273q-62 -85 -95.5 -116t-68.5 -31q-27 0 -40.5 14.5t-13.5 36.5q0 38 35 108l101 205q27 56 27 76q0 17 -14 17q-13 0 -33.5 -20t-63.5 -74l-14 9q96 134 158 134zM406 540l-15 -4q-12 39 -37.5 91.5t-25.5 70.5q0 13 9 22.5t22 9.5q26 0 31 -30
q2 -14 4.5 -64.5t11.5 -95.5z" />
    <glyph glyph-name="uacute" unicode="&#xfa;" horiz-adv-x="551" 
d="M333 537l-11 11q37 40 76 96t55 72q14 14 29 14q11 0 20 -8.5t9 -21.5q0 -15 -12 -27q-12 -11 -69.5 -53t-96.5 -83zM212 498q23 0 36.5 -14.5t13.5 -36.5q0 -33 -32 -99l-98 -201q-33 -68 -33 -87q0 -20 16 -20q11 0 31 22t71 91l245 337q7 0 22.5 -1t21.5 -1t20 1t21 1
l-149 -358q-25 -58 -25 -72q0 -19 14 -19q13 0 34 21t62 73l14 -9q-95 -134 -158 -134q-23 0 -36.5 14.5t-13.5 36.5q0 28 30 100l114 269l-199 -273q-62 -85 -95.5 -116t-68.5 -31q-27 0 -40.5 14.5t-13.5 36.5q0 38 35 108l101 205q27 56 27 76q0 17 -14 17
q-13 0 -33.5 -20t-63.5 -74l-14 9q96 134 158 134z" />
    <glyph glyph-name="ucircumflex" unicode="&#xfb;" horiz-adv-x="551" 
d="M468 541l-14 -3q-21 67 -48 120q-111 -88 -148 -122l-11 12q68 69 131 146q29 34 43 34q26 0 29 -35q5 -77 18 -152zM212 498q23 0 36.5 -14.5t13.5 -36.5q0 -33 -32 -99l-98 -201q-33 -68 -33 -87q0 -20 16 -20q11 0 31 22t71 91l245 337q7 0 22.5 -1t21.5 -1t20 1t21 1
l-149 -358q-25 -58 -25 -72q0 -19 14 -19q13 0 34 21t62 73l14 -9q-95 -134 -158 -134q-23 0 -36.5 14.5t-13.5 36.5q0 28 30 100l114 269l-199 -273q-62 -85 -95.5 -116t-68.5 -31q-27 0 -40.5 14.5t-13.5 36.5q0 38 35 108l101 205q27 56 27 76q0 17 -14 17
q-13 0 -33.5 -20t-63.5 -74l-14 9q96 134 158 134z" />
    <glyph glyph-name="udieresis" unicode="&#xfc;" horiz-adv-x="551" 
d="M306 582q-20 0 -33 12.5t-13 33.5q0 20 13 33t33 13t33.5 -13t13.5 -33q0 -21 -13.5 -33.5t-33.5 -12.5zM478 582q-20 0 -33 12.5t-13 33.5q0 20 13 33t33 13t33.5 -13t13.5 -33q0 -21 -13.5 -33.5t-33.5 -12.5zM212 498q23 0 36.5 -14.5t13.5 -36.5q0 -33 -32 -99
l-98 -201q-33 -68 -33 -87q0 -20 16 -20q11 0 31 22t71 91l245 337q7 0 22.5 -1t21.5 -1t20 1t21 1l-149 -358q-25 -58 -25 -72q0 -19 14 -19q13 0 34 21t62 73l14 -9q-95 -134 -158 -134q-23 0 -36.5 14.5t-13.5 36.5q0 28 30 100l114 269l-199 -273q-62 -85 -95.5 -116
t-68.5 -31q-27 0 -40.5 14.5t-13.5 36.5q0 38 35 108l101 205q27 56 27 76q0 17 -14 17q-13 0 -33.5 -20t-63.5 -74l-14 9q96 134 158 134z" />
    <glyph glyph-name="yacute" unicode="&#xfd;" horiz-adv-x="447" 
d="M-217 -236q-49 0 -49 33q0 14 10 23t28 9q17 0 42.5 -9.5t47.5 -9.5q77 0 255 178l11 11q24 202 24 359q0 45 -4.5 67t-22.5 22q-13 0 -29.5 -21.5t-55.5 -82.5l-14 9q42 70 76 108t68 38q20 0 33 -11t18.5 -31.5t7.5 -40t2 -47.5q0 -120 -17 -281q111 125 149 186
t38 116q0 10 -3.5 34t-3.5 33q0 18 9 30t24 12q34 0 34 -38q0 -74 -56 -166t-193 -239l-7 -55q-5 0 -16 1t-15 1q-10 0 -14 -1l-27 -27q-97 -97 -182.5 -153.5t-167.5 -56.5zM282 537l-11 11q37 40 76 96t55 72q14 14 29 14q11 0 20 -8.5t9 -21.5q0 -15 -12 -27
q-12 -11 -69.5 -53t-96.5 -83z" />
    <glyph glyph-name="thorn" unicode="&#xfe;" horiz-adv-x="495" 
d="M84 66l-90 -220q-8 -20 -8 -30q0 -25 42 -25h36v-17h-50q-16 0 -40.5 1.5t-44.5 1.5q-18 0 -44 -1.5t-39 -1.5h-21v17h21q24 0 39.5 12t27.5 41l307 767q8 20 8 32q0 21 -33 21h-30v17h26q111 0 141 43l13 -6l-235 -585l163 231q50 71 83 102.5t68 31.5q27 0 46 -17
t19 -54q0 -43 -25 -115.5t-64 -144t-95 -123.5t-110 -52t-111 74zM381 449q-24 0 -90 -96l-191 -273q46 -64 84 -64q37 0 78 52t70 121t48.5 133.5t19.5 92.5q0 34 -19 34z" />
    <glyph glyph-name="ydieresis" unicode="&#xff;" horiz-adv-x="447" 
d="M-217 -236q-49 0 -49 33q0 14 10 23t28 9q17 0 42.5 -9.5t47.5 -9.5q77 0 255 178l11 11q24 202 24 359q0 45 -4.5 67t-22.5 22q-13 0 -29.5 -21.5t-55.5 -82.5l-14 9q42 70 76 108t68 38q20 0 33 -11t18.5 -31.5t7.5 -40t2 -47.5q0 -120 -17 -281q111 125 149 186
t38 116q0 10 -3.5 34t-3.5 33q0 18 9 30t24 12q34 0 34 -38q0 -74 -56 -166t-193 -239l-7 -55q-5 0 -16 1t-15 1q-10 0 -14 -1l-27 -27q-97 -97 -182.5 -153.5t-167.5 -56.5zM256 582q-20 0 -33 12.5t-13 33.5q0 20 13 33t33 13t33.5 -13t13.5 -33q0 -21 -13.5 -33.5
t-33.5 -12.5zM428 582q-20 0 -33 12.5t-13 33.5q0 20 13 33t33 13t33.5 -13t13.5 -33q0 -21 -13.5 -33.5t-33.5 -12.5z" />
    <glyph glyph-name="Amacron" unicode="&#x100;" horiz-adv-x="619" 
d="M533 0h-33q-7 0 -29.5 1.5t-36.5 1.5q-16 0 -43.5 -1.5t-33.5 -1.5h-23v18h9q25 1 41 18t17 44l3 102h-283l-41 -52q-33 -42 -34 -70q0 -42 45 -42h6v-18h-23q-12 0 -38.5 1.5t-37.5 1.5q-8 0 -36 -1.5t-37 -1.5h-21v18h10q32 0 65 29.5t83 95.5l347 464l-2 74
q9 0 23.5 -1t21.5 -1q8 0 20 1t19 1l-10 -601q-1 -32 11 -47t39 -15h2v-18zM404 205l5 365l-272 -365h267zM598 793h-226v28h226v-28z" />
    <glyph glyph-name="amacron" unicode="&#x101;" horiz-adv-x="523" 
d="M318 -8q-25 0 -38.5 14t-13.5 36q0 21 31 101l78 206l-152 -223q-47 -69 -81.5 -101.5t-69.5 -32.5q-27 0 -46 17t-19 54q0 43 24.5 115t63 144t93.5 124t108 52q32 0 57 -19.5t53 -55.5q36 13 57.5 30.5t35.5 46.5l14 -6l-139 -361q-24 -59 -24 -75q0 -17 14 -17
q23 0 96 94l14 -9q-96 -134 -156 -134zM114 41q25 0 90 96l186 273q-48 64 -84 64t-76 -52.5t-68.5 -121.5t-47.5 -134t-19 -93q0 -32 19 -32zM505 604h-226v28h226v-28z" />
    <glyph glyph-name="Abreve" unicode="&#x102;" horiz-adv-x="619" 
d="M533 0h-33q-7 0 -29.5 1.5t-36.5 1.5q-16 0 -43.5 -1.5t-33.5 -1.5h-23v18h9q25 1 41 18t17 44l3 102h-283l-41 -52q-33 -42 -34 -70q0 -42 45 -42h6v-18h-23q-12 0 -38.5 1.5t-37.5 1.5q-8 0 -36 -1.5t-37 -1.5h-21v18h10q32 0 65 29.5t83 95.5l347 464l-2 74
q9 0 23.5 -1t21.5 -1q8 0 20 1t19 1l-10 -601q-1 -32 11 -47t39 -15h2v-18zM404 205l5 365l-272 -365h267zM467 755q-38 0 -58 38.5t-19 86.5l14 2q5 -70 83 -70q76 0 134 73l12 -10q-87 -120 -166 -120z" />
    <glyph glyph-name="abreve" unicode="&#x103;" horiz-adv-x="523" 
d="M318 -8q-25 0 -38.5 14t-13.5 36q0 21 31 101l78 206l-152 -223q-47 -69 -81.5 -101.5t-69.5 -32.5q-27 0 -46 17t-19 54q0 43 24.5 115t63 144t93.5 124t108 52q32 0 57 -19.5t53 -55.5q36 13 57.5 30.5t35.5 46.5l14 -6l-139 -361q-24 -59 -24 -75q0 -17 14 -17
q23 0 96 94l14 -9q-96 -134 -156 -134zM114 41q25 0 90 96l186 273q-48 64 -84 64t-76 -52.5t-68.5 -121.5t-47.5 -134t-19 -93q0 -32 19 -32zM374 566q-38 0 -58 38.5t-19 86.5l14 2q5 -70 83 -70q76 0 134 73l12 -10q-87 -120 -166 -120z" />
    <glyph glyph-name="Aogonek" unicode="&#x104;" horiz-adv-x="619" 
d="M286 -179q-27 0 -42 13t-15 33q0 67 171 139l4 176h-283l-41 -52q-33 -42 -34 -70q0 -42 45 -42h6v-18h-23q-12 0 -38.5 1.5t-37.5 1.5q-8 0 -36 -1.5t-37 -1.5h-21v18h10q32 0 65 29.5t83 95.5l347 464l-2 74q9 0 23.5 -1t21.5 -1q8 0 20 1t19 1l-10 -601q-1 -32 11 -47
t39 -15h2v-18h-33q-7 0 -29.5 0.5t-36.5 0.5h-16q-122 -58 -122 -115q0 -32 36 -32q30 0 74 36l9 -12q-64 -57 -129 -57zM404 205l5 365l-272 -365h267z" />
    <glyph glyph-name="aogonek" unicode="&#x105;" horiz-adv-x="523" 
d="M308 -7q-20 3 -31 16.5t-11 32.5q0 21 31 101l78 206l-152 -223q-47 -69 -81.5 -101.5t-69.5 -32.5q-27 0 -46 17t-19 54q0 43 24.5 115t63 144t93.5 124t108 52q32 0 57 -19.5t53 -55.5q36 13 57.5 30.5t35.5 46.5l14 -6l-139 -361q-24 -59 -24 -75q0 -17 14 -17
q23 0 96 94l14 -9q-74 -104 -129 -129q-39 -17 -72 -47t-33 -64q0 -32 36 -32q30 0 74 36l9 -12q-64 -57 -129 -57q-27 0 -42 13t-15 33q0 65 135 126zM114 41q25 0 90 96l186 273q-48 64 -84 64t-76 -52.5t-68.5 -121.5t-47.5 -134t-19 -93q0 -32 19 -32z" />
    <glyph glyph-name="Cacute" unicode="&#x106;" horiz-adv-x="595" 
d="M449 726l-11 11q37 40 76 96t55 72q14 14 29 14q11 0 20 -8.5t9 -21.5q0 -15 -12 -27q-12 -11 -69.5 -53t-96.5 -83zM241 -10q-76 0 -127.5 57t-51.5 157q0 113 55.5 226.5t147.5 187t189 73.5q29 0 68.5 -9t48.5 -9q27 0 25 30l15 1l25 -234l-16 -3q-26 95 -61 148.5
t-97 53.5q-77 0 -149 -65t-116 -166.5t-44 -205.5q0 -85 38 -130t105 -45q108 0 214 138l14 -10q-58 -88 -134 -141.5t-149 -53.5z" />
    <glyph glyph-name="cacute" unicode="&#x107;" horiz-adv-x="416" 
d="M293 537l-11 11q37 40 76 96t55 72q14 14 29 14q11 0 20 -8.5t9 -21.5q0 -15 -12 -27q-12 -11 -69.5 -53t-96.5 -83zM123 -8q-43 0 -73.5 36t-30.5 94q0 79 41 166.5t110 148.5t140 61q42 0 71 -33t29 -77q0 -31 -10.5 -49t-28.5 -18q-13 0 -21.5 9t-8.5 22q0 10 10 35
t10 42q0 22 -14 36t-40 14q-45 0 -93 -54t-78.5 -133t-30.5 -148q0 -99 63 -99q65 0 160 123l13 -10q-115 -166 -218 -166z" />
    <glyph glyph-name="Ccircumflex" unicode="&#x108;" horiz-adv-x="595" 
d="M584 730l-14 -3q-21 67 -48 120q-111 -88 -148 -122l-11 12q68 69 131 146q29 34 43 34q26 0 29 -35q5 -77 18 -152zM241 -10q-76 0 -127.5 57t-51.5 157q0 113 55.5 226.5t147.5 187t189 73.5q29 0 68.5 -9t48.5 -9q27 0 25 30l15 1l25 -234l-16 -3q-26 95 -61 148.5
t-97 53.5q-77 0 -149 -65t-116 -166.5t-44 -205.5q0 -85 38 -130t105 -45q108 0 214 138l14 -10q-58 -88 -134 -141.5t-149 -53.5z" />
    <glyph glyph-name="ccircumflex" unicode="&#x109;" horiz-adv-x="416" 
d="M428 541l-14 -3q-21 67 -48 120q-111 -88 -148 -122l-11 12q68 69 131 146q29 34 43 34q26 0 29 -35q5 -77 18 -152zM123 -8q-43 0 -73.5 36t-30.5 94q0 79 41 166.5t110 148.5t140 61q42 0 71 -33t29 -77q0 -31 -10.5 -49t-28.5 -18q-13 0 -21.5 9t-8.5 22q0 10 10 35
t10 42q0 22 -14 36t-40 14q-45 0 -93 -54t-78.5 -133t-30.5 -148q0 -99 63 -99q65 0 160 123l13 -10q-115 -166 -218 -166z" />
    <glyph glyph-name="Cdotaccent" unicode="&#x10a;" horiz-adv-x="595" 
d="M241 -10q-76 0 -127.5 57t-51.5 157q0 113 55.5 226.5t147.5 187t189 73.5q29 0 68.5 -9t48.5 -9q27 0 25 30l15 1l25 -234l-16 -3q-26 95 -61 148.5t-97 53.5q-77 0 -149 -65t-116 -166.5t-44 -205.5q0 -85 38 -130t105 -45q108 0 214 138l14 -10q-58 -88 -134 -141.5
t-149 -53.5zM454 803q0 22 15 37t36 15t36.5 -15t15.5 -37q0 -21 -15.5 -35.5t-36.5 -14.5t-36 14.5t-15 35.5z" />
    <glyph glyph-name="cdotaccent" unicode="&#x10b;" horiz-adv-x="416" 
d="M123 -8q-43 0 -73.5 36t-30.5 94q0 79 41 166.5t110 148.5t140 61q42 0 71 -33t29 -77q0 -31 -10.5 -49t-28.5 -18q-13 0 -21.5 9t-8.5 22q0 10 10 35t10 42q0 22 -14 36t-40 14q-45 0 -93 -54t-78.5 -133t-30.5 -148q0 -99 63 -99q65 0 160 123l13 -10
q-115 -166 -218 -166zM302 624q0 22 15 37t36 15t36.5 -15t15.5 -37q0 -21 -15.5 -35.5t-36.5 -14.5t-36 14.5t-15 35.5z" />
    <glyph glyph-name="Ccaron" unicode="&#x10c;" horiz-adv-x="595" 
d="M441 917l14 3q21 -67 48 -120q111 88 148 122l11 -12q-68 -69 -131 -146q-29 -34 -43 -34q-26 0 -29 35q-5 77 -18 152zM241 -10q-76 0 -127.5 57t-51.5 157q0 113 55.5 226.5t147.5 187t189 73.5q29 0 68.5 -9t48.5 -9q27 0 25 30l15 1l25 -234l-16 -3q-26 95 -61 148.5
t-97 53.5q-77 0 -149 -65t-116 -166.5t-44 -205.5q0 -85 38 -130t105 -45q108 0 214 138l14 -10q-58 -88 -134 -141.5t-149 -53.5z" />
    <glyph glyph-name="ccaron" unicode="&#x10d;" horiz-adv-x="416" 
d="M285 728l14 3q21 -67 48 -120q111 88 148 122l11 -12q-68 -69 -131 -146q-29 -34 -43 -34q-26 0 -29 35q-5 77 -18 152zM123 -8q-43 0 -73.5 36t-30.5 94q0 79 41 166.5t110 148.5t140 61q42 0 71 -33t29 -77q0 -31 -10.5 -49t-28.5 -18q-13 0 -21.5 9t-8.5 22
q0 10 10 35t10 42q0 22 -14 36t-40 14q-45 0 -93 -54t-78.5 -133t-30.5 -148q0 -99 63 -99q65 0 160 123l13 -10q-115 -166 -218 -166z" />
    <glyph glyph-name="Dcaron" unicode="&#x10e;" horiz-adv-x="634" 
d="M402 917l14 3q21 -67 48 -120q111 88 148 122l11 -12q-68 -69 -131 -146q-29 -34 -43 -34q-26 0 -29 35q-5 77 -18 152zM213 0h-91q-12 0 -35 0.5t-39 0.5q-14 0 -37 -0.5t-33 -0.5h-33v18h13q30 0 47.5 14.5t30.5 48.5l202 524q7 20 7 31q0 26 -33 26h-13v19h39
q10 0 32 -0.5t37 -0.5q16 0 38.5 0.5t34.5 0.5h52q93 0 150 -49.5t57 -156.5q0 -48 -14.5 -107.5t-48.5 -125t-81.5 -119t-121.5 -88.5t-160 -35zM219 23q68 0 128.5 45t100 111t68.5 140.5t42 132.5t13 88q0 63 -38.5 90.5t-113.5 27.5h-77l-243 -635h120z" />
    <glyph glyph-name="dcaron" unicode="&#x10f;" horiz-adv-x="543" 
d="M604 485l-13 7q24 46 55 125t39 93q9 19 29 19q13 0 22 -9t9 -21q0 -11 -7 -22q-8 -13 -58 -79.5t-76 -112.5zM404 425l69 185q9 24 9 31q0 23 -33 23h-30v17h25q111 0 142 43l12 -6l-226 -584q-25 -67 -25 -76q0 -17 16 -17q23 0 96 94l13 -9q-97 -134 -157 -134
q-24 0 -37.5 14.5t-13.5 36.5t31 102l80 205l-152 -224q-47 -69 -81.5 -101.5t-69.5 -32.5q-27 0 -46 17.5t-19 53.5q0 43 24.5 115.5t63 144t93.5 123.5t108 52q54 0 108 -73zM114 41q24 0 90 95l186 274q-48 64 -84 64t-76 -52.5t-68.5 -121.5t-47.5 -134t-19 -93
q0 -32 19 -32z" />
    <glyph glyph-name="Dcroat" unicode="&#x110;" horiz-adv-x="639" 
d="M644 475q0 -48 -14.5 -107.5t-48.5 -125t-81.5 -119t-121.5 -88.5t-160 -35h-91q-12 0 -35 0.5t-39 0.5q-14 0 -37 -0.5t-33 -0.5h-33v18h13q30 0 48 15t30 48l98 255h-65v23h73l96 246q7 20 7 31q0 26 -33 26h-13v19h39q10 0 32 -0.5t37 -0.5q16 0 38.5 0.5t34.5 0.5h52
q93 0 150 -49.5t57 -156.5zM224 23q68 0 128.5 45t100 111t68.5 140.5t42 132.5t13 88q0 63 -38.5 90.5t-113.5 27.5h-77l-114 -299h116v-23h-125l-120 -313h120z" />
    <glyph glyph-name="dcroat" unicode="&#x111;" horiz-adv-x="530" 
d="M7 63q0 43 24.5 115.5t63 144t93.5 123.5t108 52q54 0 108 -73l50 134h-91v21h99l12 32q8 21 8 29q0 23 -33 23h-30v17h25q111 0 142 43l12 -6l-53 -138h60v-21h-68l-165 -425q-25 -67 -25 -76q0 -17 16 -17q23 0 96 94l13 -9q-97 -134 -157 -134q-24 0 -37.5 14.5
t-13.5 36.5t31 102l80 205l-152 -224q-47 -69 -81.5 -101.5t-69.5 -32.5q-27 0 -46 17.5t-19 53.5zM114 41q24 0 90 95l186 274q-48 64 -84 64t-76 -52.5t-68.5 -121.5t-47.5 -134t-19 -93q0 -32 19 -32z" />
    <glyph glyph-name="Emacron" unicode="&#x112;" horiz-adv-x="589" 
d="M385 -33l-14 5q12 28 -18 28h-236q-11 0 -32 0.5t-36 0.5q-14 0 -38 -0.5t-35 -0.5h-31v18h13q30 0 47 14.5t30 48.5l203 525q8 22 8 31q0 26 -33 26h-14v18h38q11 0 33.5 -0.5t37.5 -0.5t38.5 0.5t34.5 0.5h187q21 0 31 7t11 23h15l3 -237l-16 -2q-9 32 -16.5 63.5
t-12 49.5t-10.5 35q-7 21 -21.5 29.5t-42.5 8.5h-166l-117 -301h107q42 0 71 31.5t63 98.5l15 -5l-109 -284l-16 4q17 53 17 82q0 50 -49 50h-107l-120 -311h174q33 0 53.5 9t52.5 39q33 31 145 150l13 -9zM576 793h-226v28h226v-28z" />
    <glyph glyph-name="emacron" unicode="&#x113;" horiz-adv-x="416" 
d="M125 -8q-47 0 -76 36t-29 94q0 83 44.5 171.5t115.5 146.5t141 58q45 0 74.5 -19t29.5 -51q0 -62 -94.5 -117.5t-209.5 -69.5q-16 -58 -16 -98q0 -98 66 -98q33 0 69.5 28t89.5 95l13 -10q-116 -166 -218 -166zM356 445q0 34 -35 34q-59 0 -112.5 -64t-81.5 -153
q87 10 158 70.5t71 112.5zM474 604h-226v28h226v-28z" />
    <glyph glyph-name="Ebreve" unicode="&#x114;" horiz-adv-x="589" 
d="M385 -33l-14 5q12 28 -18 28h-236q-11 0 -32 0.5t-36 0.5q-14 0 -38 -0.5t-35 -0.5h-31v18h13q30 0 47 14.5t30 48.5l203 525q8 22 8 31q0 26 -33 26h-14v18h38q11 0 33.5 -0.5t37.5 -0.5t38.5 0.5t34.5 0.5h187q21 0 31 7t11 23h15l3 -237l-16 -2q-9 32 -16.5 63.5
t-12 49.5t-10.5 35q-7 21 -21.5 29.5t-42.5 8.5h-166l-117 -301h107q42 0 71 31.5t63 98.5l15 -5l-109 -284l-16 4q17 53 17 82q0 50 -49 50h-107l-120 -311h174q33 0 53.5 9t52.5 39q33 31 145 150l13 -9zM445 755q-38 0 -58 38.5t-19 86.5l14 2q5 -70 83 -70q76 0 134 73
l12 -10q-87 -120 -166 -120z" />
    <glyph glyph-name="ebreve" unicode="&#x115;" horiz-adv-x="416" 
d="M125 -8q-47 0 -76 36t-29 94q0 83 44.5 171.5t115.5 146.5t141 58q45 0 74.5 -19t29.5 -51q0 -62 -94.5 -117.5t-209.5 -69.5q-16 -58 -16 -98q0 -98 66 -98q33 0 69.5 28t89.5 95l13 -10q-116 -166 -218 -166zM356 445q0 34 -35 34q-59 0 -112.5 -64t-81.5 -153
q87 10 158 70.5t71 112.5zM343 566q-38 0 -58 38.5t-19 86.5l14 2q5 -70 83 -70q76 0 134 73l12 -10q-87 -120 -166 -120z" />
    <glyph glyph-name="Edotaccent" unicode="&#x116;" horiz-adv-x="589" 
d="M385 -33l-14 5q12 28 -18 28h-236q-11 0 -32 0.5t-36 0.5q-14 0 -38 -0.5t-35 -0.5h-31v18h13q30 0 47 14.5t30 48.5l203 525q8 22 8 31q0 26 -33 26h-14v18h38q11 0 33.5 -0.5t37.5 -0.5t38.5 0.5t34.5 0.5h187q21 0 31 7t11 23h15l3 -237l-16 -2q-9 32 -16.5 63.5
t-12 49.5t-10.5 35q-7 21 -21.5 29.5t-42.5 8.5h-166l-117 -301h107q42 0 71 31.5t63 98.5l15 -5l-109 -284l-16 4q17 53 17 82q0 50 -49 50h-107l-120 -311h174q33 0 53.5 9t52.5 39q33 31 145 150l13 -9zM412 803q0 22 15 37t36 15t36.5 -15t15.5 -37q0 -21 -15.5 -35.5
t-36.5 -14.5t-36 14.5t-15 35.5z" />
    <glyph glyph-name="edotaccent" unicode="&#x117;" horiz-adv-x="416" 
d="M125 -8q-47 0 -76 36t-29 94q0 83 44.5 171.5t115.5 146.5t141 58q45 0 74.5 -19t29.5 -51q0 -62 -94.5 -117.5t-209.5 -69.5q-16 -58 -16 -98q0 -98 66 -98q33 0 69.5 28t89.5 95l13 -10q-116 -166 -218 -166zM356 445q0 34 -35 34q-59 0 -112.5 -64t-81.5 -153
q87 10 158 70.5t71 112.5zM314 624q0 22 15 37t36 15t36.5 -15t15.5 -37q0 -21 -15.5 -35.5t-36.5 -14.5t-36 14.5t-15 35.5z" />
    <glyph glyph-name="Eogonek" unicode="&#x118;" horiz-adv-x="589" 
d="M385 -33l-14 5q12 28 -18 28h-26q-119 -57 -119 -114q0 -32 36 -32q32 0 74 36l10 -12q-66 -57 -130 -57q-27 0 -41.5 13t-14.5 33q0 18 12.5 36t27.5 31t41.5 28t39.5 21t37 17h-183q-11 0 -32 0.5t-36 0.5q-14 0 -38 -0.5t-35 -0.5h-31v18h13q30 0 47.5 14.5t29.5 48.5
l203 525q8 19 8 31q0 26 -33 26h-14v18h38q11 0 33.5 -0.5t37.5 -0.5t38.5 0.5t34.5 0.5h187q21 0 31 7t11 23h15l3 -237l-16 -2q-9 32 -16.5 63.5t-12 49.5t-10.5 35q-7 21 -21.5 29.5t-42.5 8.5h-166l-117 -301h107q42 0 71 31.5t63 98.5l15 -5l-109 -284l-16 4
q17 53 17 82q0 50 -49 50h-107l-120 -311h174q33 0 53.5 9t52.5 39q33 31 145 150l13 -9z" />
    <glyph glyph-name="eogonek" unicode="&#x119;" horiz-adv-x="416" 
d="M425 428q0 -62 -94.5 -117.5t-209.5 -69.5q-16 -58 -16 -98q0 -98 66 -98q33 0 69.5 28t89.5 95l13 -10q-86 -121 -169 -158q-46 -20 -82 -49.5t-36 -64.5q0 -32 36 -32q32 0 74 36l9 -12q-64 -57 -129 -57q-27 0 -42 13t-15 33q0 61 141 125h-5q-47 0 -76 36t-29 94
q0 83 44.5 171.5t115.5 146.5t141 58q45 0 74.5 -19t29.5 -51zM321 479q-59 0 -112.5 -64t-81.5 -153q87 10 158 70.5t71 112.5q0 34 -35 34z" />
    <glyph glyph-name="Ecaron" unicode="&#x11a;" horiz-adv-x="589" 
d="M399 917l14 3q21 -67 48 -120q111 88 148 122l11 -12q-68 -69 -131 -146q-29 -34 -43 -34q-26 0 -29 35q-5 77 -18 152zM385 -33l-14 5q12 28 -18 28h-236q-11 0 -32 0.5t-36 0.5q-14 0 -38 -0.5t-35 -0.5h-31v18h13q30 0 47 14.5t30 48.5l203 525q8 22 8 31q0 26 -33 26
h-14v18h38q11 0 33.5 -0.5t37.5 -0.5t38.5 0.5t34.5 0.5h187q21 0 31 7t11 23h15l3 -237l-16 -2q-9 32 -16.5 63.5t-12 49.5t-10.5 35q-7 21 -21.5 29.5t-42.5 8.5h-166l-117 -301h107q42 0 71 31.5t63 98.5l15 -5l-109 -284l-16 4q17 53 17 82q0 50 -49 50h-107l-120 -311
h174q33 0 53.5 9t52.5 39q33 31 145 150l13 -9z" />
    <glyph glyph-name="ecaron" unicode="&#x11b;" horiz-adv-x="416" 
d="M297 728l14 3q21 -67 48 -120q111 88 148 122l11 -12q-68 -69 -131 -146q-29 -34 -43 -34q-26 0 -29 35q-5 77 -18 152zM125 -8q-47 0 -76 36t-29 94q0 83 44.5 171.5t115.5 146.5t141 58q45 0 74.5 -19t29.5 -51q0 -62 -94.5 -117.5t-209.5 -69.5q-16 -58 -16 -98
q0 -98 66 -98q33 0 69.5 28t89.5 95l13 -10q-116 -166 -218 -166zM356 445q0 34 -35 34q-59 0 -112.5 -64t-81.5 -153q87 10 158 70.5t71 112.5z" />
    <glyph glyph-name="Gcircumflex" unicode="&#x11c;" horiz-adv-x="647" 
d="M597 730l-14 -3q-21 67 -48 120q-111 -88 -148 -122l-11 12q68 69 131 146q29 34 43 34q26 0 29 -35q5 -77 18 -152zM466 -8l-14 3q12 53 -32 71q-93 -76 -184 -76q-77 0 -125 59.5t-48 160.5q0 77 31 161.5t83.5 155.5t130.5 117.5t163 46.5q24 0 62.5 -9t50.5 -9
q26 0 24 30l15 1l25 -234l-16 -3q-8 31 -16 54t-21.5 53t-29 49t-39 32.5t-51.5 13.5q-87 0 -163 -84q-78 -86 -127 -222.5t-49 -218.5q0 -55 25 -92.5t84 -37.5q45 0 93 23t81 52l52 137q9 25 9 32q0 25 -34 25h-13v18h37q10 0 34 -1.5t39 -1.5q14 0 36.5 1.5t33.5 1.5h32
v-18h-14q-29 0 -46.5 -14.5t-30.5 -47.5z" />
    <glyph glyph-name="gcircumflex" unicode="&#x11d;" horiz-adv-x="451" 
d="M431 541l-14 -3q-21 67 -48 120q-111 -88 -148 -122l-11 12q68 69 131 146q29 34 43 34q26 0 29 -35q5 -77 18 -152zM120 -236q-44 0 -84.5 4t-77.5 13t-59.5 25t-22.5 38q0 57 156 122l40 17l-24 11q-68 30 -68 73q0 28 23.5 49.5t77.5 42.5l28 11q-31 34 -31 94
q0 85 65.5 159.5t153.5 74.5q37 0 71 -28l4 4q74 74 126 74q15 0 25.5 -8.5t10.5 -22.5q0 -15 -10 -23t-26 -8q-11 0 -28.5 5t-29.5 5q-20 0 -55 -35l-4 -4q27 -30 27 -89q0 -86 -66.5 -159t-152.5 -73q-33 0 -64 21l-31 -12q-55 -21 -55 -44q0 -12 11 -21t41 -22l146 -66
q74 -33 104 -59t30 -57q0 -56 -67 -84t-184 -28zM121 -216q185 0 185 59q0 21 -20 36t-79 43q-1 0 -55.5 25t-56.5 26l-45 -20q-104 -46 -104 -101q0 -68 175 -68zM186 155q34 0 72.5 48t64 112.5t25.5 112.5q0 51 -47 51q-34 0 -73 -48t-64 -112t-25 -111q0 -53 47 -53z
" />
    <glyph glyph-name="Gbreve" unicode="&#x11e;" horiz-adv-x="647" 
d="M466 -8l-14 3q12 53 -32 71q-93 -76 -184 -76q-77 0 -125 59.5t-48 160.5q0 77 31 161.5t83.5 155.5t130.5 117.5t163 46.5q24 0 62.5 -9t50.5 -9q26 0 24 30l15 1l25 -234l-16 -3q-8 31 -16 54t-21.5 53t-29 49t-39 32.5t-51.5 13.5q-87 0 -163 -84q-78 -86 -127 -222.5
t-49 -218.5q0 -55 25 -92.5t84 -37.5q45 0 93 23t81 52l52 137q9 25 9 32q0 25 -34 25h-13v18h37q10 0 34 -1.5t39 -1.5q14 0 36.5 1.5t33.5 1.5h32v-18h-14q-29 0 -46.5 -14.5t-30.5 -47.5zM500 755q-38 0 -58 38.5t-19 86.5l14 2q5 -70 83 -70q76 0 134 73l12 -10
q-87 -120 -166 -120z" />
    <glyph glyph-name="gbreve" unicode="&#x11f;" horiz-adv-x="451" 
d="M120 -236q-44 0 -84.5 4t-77.5 13t-59.5 25t-22.5 38q0 57 156 122l40 17l-24 11q-68 30 -68 73q0 28 23.5 49.5t77.5 42.5l28 11q-31 34 -31 94q0 85 65.5 159.5t153.5 74.5q37 0 71 -28l4 4q74 74 126 74q15 0 25.5 -8.5t10.5 -22.5q0 -15 -10 -23t-26 -8
q-11 0 -28.5 5t-29.5 5q-20 0 -55 -35l-4 -4q27 -30 27 -89q0 -86 -66.5 -159t-152.5 -73q-33 0 -64 21l-31 -12q-55 -21 -55 -44q0 -12 11 -21t41 -22l146 -66q74 -33 104 -59t30 -57q0 -56 -67 -84t-184 -28zM121 -216q185 0 185 59q0 21 -20 36t-79 43q-1 0 -55.5 25
t-56.5 26l-45 -20q-104 -46 -104 -101q0 -68 175 -68zM186 155q34 0 72.5 48t64 112.5t25.5 112.5q0 51 -47 51q-34 0 -73 -48t-64 -112t-25 -111q0 -53 47 -53zM334 566q-38 0 -58 38.5t-19 86.5l14 2q5 -70 83 -70q76 0 134 73l12 -10q-87 -120 -166 -120z" />
    <glyph glyph-name="Gdotaccent" unicode="&#x120;" horiz-adv-x="647" 
d="M466 -8l-14 3q12 53 -32 71q-93 -76 -184 -76q-77 0 -125 59.5t-48 160.5q0 77 31 161.5t83.5 155.5t130.5 117.5t163 46.5q24 0 62.5 -9t50.5 -9q26 0 24 30l15 1l25 -234l-16 -3q-8 31 -16 54t-21.5 53t-29 49t-39 32.5t-51.5 13.5q-87 0 -163 -84q-78 -86 -127 -222.5
t-49 -218.5q0 -55 25 -92.5t84 -37.5q45 0 93 23t81 52l52 137q9 25 9 32q0 25 -34 25h-13v18h37q10 0 34 -1.5t39 -1.5q14 0 36.5 1.5t33.5 1.5h32v-18h-14q-29 0 -46.5 -14.5t-30.5 -47.5zM467 803q0 22 15 37t36 15t36.5 -15t15.5 -37q0 -21 -15.5 -35.5t-36.5 -14.5
t-36 14.5t-15 35.5z" />
    <glyph glyph-name="gdotaccent" unicode="&#x121;" horiz-adv-x="451" 
d="M120 -236q-44 0 -84.5 4t-77.5 13t-59.5 25t-22.5 38q0 57 156 122l40 17l-24 11q-68 30 -68 73q0 28 23.5 49.5t77.5 42.5l28 11q-31 34 -31 94q0 85 65.5 159.5t153.5 74.5q37 0 71 -28l4 4q74 74 126 74q15 0 25.5 -8.5t10.5 -22.5q0 -15 -10 -23t-26 -8
q-11 0 -28.5 5t-29.5 5q-20 0 -55 -35l-4 -4q27 -30 27 -89q0 -86 -66.5 -159t-152.5 -73q-33 0 -64 21l-31 -12q-55 -21 -55 -44q0 -12 11 -21t41 -22l146 -66q74 -33 104 -59t30 -57q0 -56 -67 -84t-184 -28zM121 -216q185 0 185 59q0 21 -20 36t-79 43q-1 0 -55.5 25
t-56.5 26l-45 -20q-104 -46 -104 -101q0 -68 175 -68zM186 155q34 0 72.5 48t64 112.5t25.5 112.5q0 51 -47 51q-34 0 -73 -48t-64 -112t-25 -111q0 -53 47 -53zM305 624q0 22 15 37t36 15t36.5 -15t15.5 -37q0 -21 -15.5 -35.5t-36.5 -14.5t-36 14.5t-15 35.5z" />
    <glyph glyph-name="Gcommaaccent" unicode="&#x122;" horiz-adv-x="647" 
d="M255 -117q0 -51 -38 -87t-85 -41l-2 15q34 4 62.5 25.5t40.5 56.5q-12 -10 -31 -10t-32.5 13.5t-13.5 32.5t14 33t35 14t35.5 -14t14.5 -38zM466 -8l-14 3q12 53 -32 71q-93 -76 -184 -76q-77 0 -125 59.5t-48 160.5q0 77 31 161.5t83.5 155.5t130.5 117.5t163 46.5
q24 0 62.5 -9t50.5 -9q26 0 24 30l15 1l25 -234l-16 -3q-8 31 -16 54t-21.5 53t-29 49t-39 32.5t-51.5 13.5q-87 0 -163 -84q-78 -86 -127 -222.5t-49 -218.5q0 -55 25 -92.5t84 -37.5q45 0 93 23t81 52l52 137q9 25 9 32q0 25 -34 25h-13v18h37q10 0 34 -1.5t39 -1.5
q14 0 36.5 1.5t33.5 1.5h32v-18h-14q-29 0 -46.5 -14.5t-30.5 -47.5z" />
    <glyph glyph-name="gcommaaccent" unicode="&#x123;" horiz-adv-x="451" 
d="M120 -236q-44 0 -84.5 4t-77.5 13t-59.5 25t-22.5 38q0 57 156 122l40 17l-24 11q-68 30 -68 73q0 28 23.5 49.5t77.5 42.5l28 11q-31 34 -31 94q0 85 65.5 159.5t153.5 74.5q37 0 71 -28l4 4q74 74 126 74q15 0 25.5 -8.5t10.5 -22.5q0 -15 -10 -23t-26 -8
q-11 0 -28.5 5t-29.5 5q-20 0 -55 -35l-4 -4q27 -30 27 -89q0 -86 -66.5 -159t-152.5 -73q-33 0 -64 21l-31 -12q-55 -21 -55 -44q0 -12 11 -21t41 -22l146 -66q74 -33 104 -59t30 -57q0 -56 -67 -84t-184 -28zM121 -216q185 0 185 59q0 21 -20 36t-79 43q-1 0 -55.5 25
t-56.5 26l-45 -20q-104 -46 -104 -101q0 -68 175 -68zM186 155q34 0 72.5 48t64 112.5t25.5 112.5q0 51 -47 51q-34 0 -73 -48t-64 -112t-25 -111q0 -53 47 -53zM361 660q19 0 32 -13.5t13 -32.5t-13.5 -33t-34.5 -14q-22 0 -36.5 13.5t-14.5 38.5q0 51 38.5 87t84.5 41
l2 -15q-34 -3 -62 -25t-40 -57q12 10 31 10z" />
    <glyph glyph-name="Hcircumflex" unicode="&#x124;" horiz-adv-x="679" 
d="M634 730l-14 -3q-21 67 -48 120q-111 -88 -148 -122l-11 12q68 69 131 146q29 34 43 34q26 0 29 -35q5 -77 18 -152zM550 0h-37q-11 0 -33.5 1.5t-37.5 1.5t-38 -1.5t-34 -1.5h-32v18h14q30 0 47 14.5t30 48.5l99 254h-309l-100 -260q-8 -22 -8 -31q0 -26 34 -26h12v-18
h-37q-11 0 -33.5 1.5t-37.5 1.5t-38 -1.5t-34 -1.5h-32v18h14q30 0 47 14.5t30 48.5l202 525q8 22 8 31q0 26 -33 26h-14v18h38q10 0 33 -1.5t38 -1.5t38 1.5t33 1.5h32v-18h-13q-30 0 -47 -14.5t-30 -48.5l-94 -242h309l95 248q8 22 8 31q0 26 -33 26h-14v18h38
q10 0 33 -1.5t38 -1.5t38 1.5t33 1.5h32v-18h-13q-29 0 -46 -14.5t-31 -48.5l-202 -525q-8 -22 -8 -31q0 -26 34 -26h12v-18z" />
    <glyph glyph-name="hcircumflex" unicode="&#x125;" horiz-adv-x="522" 
d="M421 731l-14 -3q-21 67 -48 120q-111 -88 -148 -122l-11 12q68 69 131 146q29 34 43 34q26 0 29 -35q5 -77 18 -152zM311 -8q-25 0 -38.5 14t-13.5 36q0 34 32 100l98 201q34 68 34 87q0 20 -16 20q-8 0 -17 -6.5t-31.5 -33.5t-59.5 -78l-242 -332q-7 0 -23 1t-22 1
t-19.5 -1t-20.5 -1l245 614q8 20 8 30q0 20 -32 20h-31v17h26q111 0 142 43l12 -6l-256 -640l194 265q65 90 99.5 122.5t71.5 32.5q26 0 40.5 -14.5t14.5 -35.5q0 -39 -35 -109l-102 -207q-26 -54 -26 -74q0 -17 15 -17q23 0 95 94l14 -9q-96 -134 -156 -134z" />
    <glyph glyph-name="Hbar" unicode="&#x126;" horiz-adv-x="683" 
d="M552 0h-38q-10 0 -33 1.5t-38 1.5t-38 -1.5t-33 -1.5h-32v18h14q30 0 46.5 14t30.5 49l85 221h-308l-88 -227q-7 -20 -7 -31q0 -26 33 -26h13v-18h-38q-10 0 -33 1.5t-38 1.5t-38 -1.5t-33 -1.5h-32v18h14q30 0 47 14.5t30 48.5l148 384h-66v23h75l45 118q8 22 8 31
q0 26 -34 26h-13v18h37q11 0 33.5 -1.5t37.5 -1.5t38 1.5t34 1.5h32v-18h-13q-30 0 -46.5 -14t-30.5 -49l-44 -112h309l45 118q8 22 8 31q0 26 -34 26h-13v18h38q10 0 32.5 -1.5t37.5 -1.5t38 1.5t34 1.5h32v-18h-13q-29 0 -46 -14.5t-31 -48.5l-44 -112h78v-23h-86
l-150 -390q-8 -22 -8 -31q0 -26 33 -26h13v-18zM217 326h308l54 139h-308z" />
    <glyph glyph-name="hbar" unicode="&#x127;" horiz-adv-x="522" 
d="M506 448q0 -39 -35 -109l-102 -207q-26 -54 -26 -74q0 -17 15 -17q23 0 95 94l14 -9q-96 -134 -156 -134q-25 0 -38.5 14t-13.5 36q0 34 32 100l98 201q34 68 34 87q0 20 -16 20q-8 0 -17 -6.5t-31.5 -33.5t-59.5 -78l-242 -332q-7 0 -23 1t-22 1t-19.5 -1t-20.5 -1
l224 559h-53v21h61l14 36q7 18 7 28q0 20 -32 20h-31v17h26q111 0 142 43l12 -6l-55 -138h98v-21h-106l-193 -481l194 265q65 90 99.5 122.5t71.5 32.5q26 0 40.5 -14.5t14.5 -35.5z" />
    <glyph glyph-name="Itilde" unicode="&#x128;" horiz-adv-x="286" 
d="M157 0h-37q-11 0 -33.5 1.5t-37.5 1.5t-38 -1.5t-34 -1.5h-32v18h13q30 0 47 14.5t30 48.5l203 525q7 20 7 31q0 26 -33 26h-13v18h38q10 0 33 -1.5t38 -1.5t38 1.5t33 1.5h32v-18h-14q-30 0 -47 -14.5t-30 -48.5l-202 -525q-8 -22 -8 -31q0 -26 34 -26h13v-18zM400 774
q-21 0 -55 21.5t-60 21.5q-11 0 -22 -9t-17.5 -18.5t-19.5 -30.5l-13 8q18 30 28.5 46t33 33.5t47.5 17.5q21 0 55 -21.5t60 -21.5q15 0 28 14t31 43l13 -8q-19 -32 -29 -46.5t-32.5 -32t-47.5 -17.5z" />
    <glyph glyph-name="itilde" unicode="&#x129;" horiz-adv-x="280" 
d="M229 347l-103 -213q-27 -56 -27 -76q0 -17 14 -17q22 0 95 94l14 -9q-94 -134 -155 -134q-24 0 -37.5 14.5t-13.5 35.5q0 35 32 101l103 213q27 56 27 76q0 17 -14 17q-23 0 -96 -94l-14 9q96 134 155 134q25 0 38.5 -14t13.5 -36q0 -35 -32 -101zM314 585
q-21 0 -55 21.5t-60 21.5q-11 0 -22 -9t-17.5 -18.5t-19.5 -30.5l-13 8q18 30 28.5 46t33 33.5t47.5 17.5q21 0 55 -21.5t60 -21.5q15 0 28 14t31 43l13 -8q-19 -32 -29 -46.5t-32.5 -32t-47.5 -17.5z" />
    <glyph glyph-name="Imacron" unicode="&#x12a;" horiz-adv-x="286" 
d="M157 0h-37q-11 0 -33.5 1.5t-37.5 1.5t-38 -1.5t-34 -1.5h-32v18h13q30 0 47 14.5t30 48.5l203 525q7 20 7 31q0 26 -33 26h-13v18h38q10 0 33 -1.5t38 -1.5t38 1.5t33 1.5h32v-18h-14q-30 0 -47 -14.5t-30 -48.5l-202 -525q-8 -22 -8 -31q0 -26 34 -26h13v-18zM468 793
h-226v28h226v-28z" />
    <glyph glyph-name="imacron" unicode="&#x12b;" horiz-adv-x="280" 
d="M229 347l-103 -213q-27 -56 -27 -76q0 -17 14 -17q22 0 95 94l14 -9q-94 -134 -155 -134q-24 0 -37.5 14.5t-13.5 35.5q0 35 32 101l103 213q27 56 27 76q0 17 -14 17q-23 0 -96 -94l-14 9q96 134 155 134q25 0 38.5 -14t13.5 -36q0 -35 -32 -101zM383 604h-226v28h226
v-28z" />
    <glyph glyph-name="Ibreve" unicode="&#x12c;" horiz-adv-x="286" 
d="M157 0h-37q-11 0 -33.5 1.5t-37.5 1.5t-38 -1.5t-34 -1.5h-32v18h13q30 0 47 14.5t30 48.5l203 525q7 20 7 31q0 26 -33 26h-13v18h38q10 0 33 -1.5t38 -1.5t38 1.5t33 1.5h32v-18h-14q-30 0 -47 -14.5t-30 -48.5l-202 -525q-8 -22 -8 -31q0 -26 34 -26h13v-18zM338 755
q-38 0 -58 38.5t-19 86.5l14 2q5 -70 83 -70q76 0 134 73l12 -10q-87 -120 -166 -120z" />
    <glyph glyph-name="ibreve" unicode="&#x12d;" horiz-adv-x="280" 
d="M229 347l-103 -213q-27 -56 -27 -76q0 -17 14 -17q22 0 95 94l14 -9q-94 -134 -155 -134q-24 0 -37.5 14.5t-13.5 35.5q0 35 32 101l103 213q27 56 27 76q0 17 -14 17q-23 0 -96 -94l-14 9q96 134 155 134q25 0 38.5 -14t13.5 -36q0 -35 -32 -101zM252 566
q-38 0 -58 38.5t-19 86.5l14 2q5 -70 83 -70q76 0 134 73l12 -10q-87 -120 -166 -120z" />
    <glyph glyph-name="Iogonek" unicode="&#x12e;" horiz-adv-x="286" 
d="M157 0h-37q-18 0 -33 1q-121 -58 -121 -115q0 -32 36 -32q32 0 74 36l9 -12q-64 -57 -129 -57q-27 0 -42 13t-15 33q0 18 13 36.5t27.5 31t42.5 28t41 21.5t40 19h-14q-15 0 -38 -1.5t-34 -1.5h-32v18h13q30 0 47 14.5t30 48.5l203 525q7 20 7 31q0 26 -33 26h-13v18h38
q10 0 33 -1.5t38 -1.5t38 1.5t33 1.5h32v-18h-14q-30 0 -47 -14.5t-30 -48.5l-202 -525q-8 -22 -8 -31q0 -26 34 -26h13v-18z" />
    <glyph glyph-name="iogonek" unicode="&#x12f;" horiz-adv-x="280" 
d="M229 347l-103 -213q-27 -56 -27 -76q0 -17 14 -17q22 0 95 94l14 -9q-71 -102 -128 -129q-40 -18 -73 -47.5t-33 -63.5q0 -32 36 -32q30 0 74 36l9 -12q-64 -57 -129 -57q-27 0 -42 13t-15 33q0 64 137 126q-21 2 -31.5 16t-10.5 33q0 35 32 101l103 213q27 56 27 76
q0 17 -14 17q-23 0 -96 -94l-14 9q96 134 155 134q25 0 38.5 -14t13.5 -36q0 -35 -32 -101zM286 586q-22 0 -36.5 14.5t-14.5 36.5t14.5 37t36.5 15t37 -15t15 -37t-15 -36.5t-37 -14.5z" />
    <glyph glyph-name="Idotaccent" unicode="&#x130;" horiz-adv-x="286" 
d="M157 0h-37q-11 0 -33.5 1.5t-37.5 1.5t-38 -1.5t-34 -1.5h-32v18h13q30 0 47 14.5t30 48.5l203 525q7 20 7 31q0 26 -33 26h-13v18h38q10 0 33 -1.5t38 -1.5t38 1.5t33 1.5h32v-18h-14q-30 0 -47 -14.5t-30 -48.5l-202 -525q-8 -22 -8 -31q0 -26 34 -26h13v-18zM303 803
q0 22 15 37t36 15t36.5 -15t15.5 -37q0 -21 -15.5 -35.5t-36.5 -14.5t-36 14.5t-15 35.5z" />
    <glyph glyph-name="dotlessi" unicode="&#x131;" horiz-adv-x="280" 
d="M229 347l-103 -213q-27 -56 -27 -76q0 -17 14 -17q22 0 95 94l14 -9q-94 -134 -155 -134q-24 0 -37.5 14.5t-13.5 35.5q0 35 32 101l103 213q27 56 27 76q0 17 -14 17q-23 0 -96 -94l-14 9q96 134 155 134q25 0 38.5 -14t13.5 -36q0 -35 -32 -101z" />
    <glyph glyph-name="IJ" unicode="&#x132;" horiz-adv-x="601" 
d="M157 0h-37q-11 0 -33.5 1.5t-37.5 1.5t-38 -1.5t-34 -1.5h-32v18h13q30 0 47 14.5t30 48.5l203 525q7 20 7 31q0 26 -33 26h-13v18h38q10 0 33 -1.5t38 -1.5t38 1.5t33 1.5h32v-18h-14q-30 0 -47 -14.5t-30 -48.5l-202 -525q-8 -22 -8 -31q0 -26 34 -26h13v-18zM172 -107
q-19 0 -31.5 9.5t-12.5 24.5q1 16 12.5 25t28.5 9q15 0 40.5 -13t40.5 -13q26 0 46.5 23t41.5 81l209 567q8 22 8 31q0 26 -34 26h-13v18h38q10 0 32.5 -1.5t37.5 -1.5t38.5 1.5t33.5 1.5h32v-18h-13q-30 0 -47 -14.5t-30 -48.5l-151 -406q-57 -152 -139 -226.5t-168 -74.5z
" />
    <glyph glyph-name="ij" unicode="&#x133;" horiz-adv-x="544" 
d="M286 586q-22 0 -36.5 14.5t-14.5 36.5t14.5 37t36.5 15t37 -15t15 -37t-15 -36.5t-37 -14.5zM67 -8q-24 0 -37.5 14.5t-13.5 35.5q0 35 32 101l103 213q27 56 27 76q0 17 -14 17q-23 0 -96 -94l-14 9q96 134 155 134q25 0 38.5 -14t13.5 -36q0 -35 -32 -101l-103 -213
q-27 -56 -27 -76q0 -17 14 -17q22 0 95 94l14 -9q-94 -134 -155 -134zM50 -236q-21 0 -33 9t-12 24t11 23.5t28 8.5q14 0 46.5 -10.5t50.5 -10.5q41 0 83.5 56t77.5 154l121 340q3 7 10 26t10.5 29.5t3.5 18.5q0 17 -15 17q-21 0 -94 -94l-14 9q96 134 154 134
q25 0 38.5 -14t13.5 -36q0 -25 -29 -103l-88 -230q-65 -171 -158.5 -261t-204.5 -90zM553 586q-23 0 -37.5 14.5t-14.5 36.5q0 23 14.5 37.5t37.5 14.5q22 0 37 -15t15 -37t-15 -36.5t-37 -14.5z" />
    <glyph glyph-name="Jcircumflex" unicode="&#x134;" horiz-adv-x="314" 
d="M459 730l-14 -3q-21 67 -48 120q-111 -88 -148 -122l-11 12q68 69 131 146q29 34 43 34q26 0 29 -35q5 -77 18 -152zM-114 -107q-19 0 -31.5 9.5t-12.5 24.5q1 16 12.5 25t28.5 9q15 0 40.5 -13t40.5 -13q26 0 46.5 23t41.5 81l209 567q8 22 8 31q0 26 -34 26h-13v18h38
q10 0 32.5 -1.5t37.5 -1.5t38.5 1.5t33.5 1.5h32v-18h-13q-30 0 -47 -14.5t-30 -48.5l-151 -406q-57 -152 -139 -226.5t-168 -74.5z" />
    <glyph glyph-name="jcircumflex" unicode="&#x135;" horiz-adv-x="272" 
d="M258 448q0 -25 -29 -103l-88 -230q-65 -171 -158.5 -261t-204.5 -90q-21 0 -33 9t-12 24t11 23.5t28 8.5q14 0 46.5 -10.5t50.5 -10.5q41 0 83.5 56t77.5 154l121 340q3 7 10 26t10.5 29.5t3.5 18.5q0 17 -15 17q-21 0 -94 -94l-14 9q96 134 154 134q25 0 38.5 -14
t13.5 -36zM335 541l-14 -3q-21 67 -48 120q-111 -88 -148 -122l-11 12q68 69 131 146q29 34 43 34q26 0 29 -35q5 -77 18 -152z" />
    <glyph glyph-name="Kcommaaccent" unicode="&#x136;" horiz-adv-x="636" 
d="M263 -117q0 -51 -38 -87t-85 -41l-2 15q34 4 62.5 25.5t40.5 56.5q-12 -10 -31 -10t-32.5 13.5t-13.5 32.5t14 33t35 14t35.5 -14t14.5 -38zM534 0h-44q-6 0 -27 1.5t-37 1.5q-15 0 -38 -1.5t-29 -1.5h-36v18h8q54 0 54 39q0 13 -2 24l-44 266l-171 -144l-50 -128
q-8 -19 -8 -31q0 -26 35 -26h12v-18h-37q-11 0 -33.5 1.5t-37.5 1.5t-38 -1.5t-34 -1.5h-32v18h14q29 0 46 14.5t30 48.5l203 525q7 16 7 31q0 26 -32 26h-14v18h38q10 0 33 -1.5t38 -1.5t38 1.5t33 1.5h32v-18h-13q-29 0 -46.5 -13.5t-30.5 -47.5l-137 -356l151 128l-6 38
q6 0 16.5 -0.5t19 -0.5t15.5 1l189 158q48 39 48 63q0 30 -34 30h-5v18h28q9 0 35.5 -1.5t35.5 -1.5q13 0 36 1.5t31 1.5h28v-18h-13q-48 -1 -173 -107l-177 -150l58 -337q4 -28 17.5 -39.5t40.5 -11.5h9v-18z" />
    <glyph glyph-name="kcommaaccent" unicode="&#x137;" horiz-adv-x="479" 
d="M176 -117q0 -51 -38 -87t-85 -41l-2 15q34 4 62.5 25.5t40.5 56.5q-12 -10 -31 -10t-32.5 13.5t-13.5 32.5t14 33t35 14t35.5 -14t14.5 -38zM291 -8q-29 0 -46.5 16t-17.5 48q0 14 9 74t9 74q0 32 -12.5 45.5t-53.5 13.5h-20l-106 -263q-7 0 -21 1t-20 1t-19.5 -1
t-20.5 -1l245 611q9 23 9 33q0 20 -33 20h-30v17h25q111 0 142 43l12 -6l-175 -433h14q48 0 78.5 25t62.5 73q40 58 75 86.5t80 28.5q16 0 28 -9t12 -23t-10.5 -23t-26.5 -9q-13 0 -30.5 5t-30.5 5q-19 0 -34.5 -14.5t-44.5 -57.5q-23 -33 -34.5 -47.5t-33 -30t-46.5 -20.5
q93 -7 93 -72q0 -19 -6.5 -71t-6.5 -66q0 -29 20 -29q19 0 44.5 23.5t65.5 76.5l13 -10q-96 -134 -158 -134z" />
    <glyph glyph-name="kgreenlandic" unicode="&#x138;" horiz-adv-x="519" 
d="M459 444q-19 0 -34 -14t-45 -58q-23 -33 -34.5 -47.5t-33 -30t-46.5 -20.5q93 -7 93 -72q0 -19 -6.5 -71t-6.5 -66q0 -29 20 -29t45 23.5t64 76.5l14 -10q-97 -134 -158 -134q-29 0 -46.5 16t-17.5 48q0 14 9 74t9 74q0 32 -12.5 45.5t-54.5 13.5h-22l-110 -263
q-7 0 -21 1t-20 1q-7 0 -21 -1t-20 -1l149 358q25 60 25 72q0 19 -15 19q-21 0 -95 -94l-14 9q96 134 158 134q23 0 36.5 -14.5t13.5 -36.5q0 -31 -31 -100l-26 -62h15q48 0 79 25t63 73q40 59 74.5 87t80.5 28q16 0 28 -9t12 -23t-10.5 -23t-26.5 -9q-13 0 -30.5 5t-30.5 5
z" />
    <glyph glyph-name="Lacute" unicode="&#x139;" horiz-adv-x="528" 
d="M299 726l-11 11q37 40 76 96t55 72q14 14 29 14q11 0 20 -8.5t9 -21.5q0 -15 -12 -27q-12 -11 -69.5 -53t-96.5 -83zM347 -32l-14 5q11 27 -19 27h-197q-11 0 -32 0.5t-36 0.5q-14 0 -38 -0.5t-34 -0.5h-32v18h14q29 0 46.5 15t29.5 48l203 525q8 19 8 31q0 26 -33 26
h-14v18h38q10 0 33 -1.5t38 -1.5t38 1.5t33 1.5h32v-18h-13q-30 0 -47 -14.5t-30 -48.5l-223 -577h131q34 0 55.5 9.5t53.5 40.5q40 39 152 162l13 -9z" />
    <glyph glyph-name="lacute" unicode="&#x13a;" horiz-adv-x="257" 
d="M254 727l-11 11q37 40 76 96t55 72q14 14 29 14q11 0 20 -8.5t9 -21.5q0 -15 -12 -27q-12 -11 -69.5 -53t-96.5 -83zM48 -8q-24 0 -38 14.5t-14 35.5q0 22 31 102l188 467q8 20 8 32q0 21 -33 21h-30v17h26q111 0 141 43l12 -6l-234 -584q-25 -55 -25 -76q0 -17 15 -17
q22 0 95 94l14 -9q-96 -134 -156 -134z" />
    <glyph glyph-name="Lcommaaccent" unicode="&#x13b;" horiz-adv-x="528" 
d="M205 -117q0 -51 -38 -87t-85 -41l-2 15q34 4 62.5 25.5t40.5 56.5q-12 -10 -31 -10t-32.5 13.5t-13.5 32.5t14 33t35 14t35.5 -14t14.5 -38zM347 -32l-14 5q11 27 -19 27h-197q-11 0 -32 0.5t-36 0.5q-14 0 -38 -0.5t-34 -0.5h-32v18h14q29 0 46.5 15t29.5 48l203 525
q8 19 8 31q0 26 -33 26h-14v18h38q10 0 33 -1.5t38 -1.5t38 1.5t33 1.5h32v-18h-13q-30 0 -47 -14.5t-30 -48.5l-223 -577h131q34 0 55.5 9.5t53.5 40.5q40 39 152 162l13 -9z" />
    <glyph glyph-name="lcommaaccent" unicode="&#x13c;" horiz-adv-x="257" 
d="M47 -117q0 -51 -38 -87t-85 -41l-2 15q34 4 62.5 25.5t40.5 56.5q-12 -10 -31 -10t-32.5 13.5t-13.5 32.5t14 33t35 14t35.5 -14t14.5 -38zM48 -8q-24 0 -38 14.5t-14 35.5q0 22 31 102l188 467q8 20 8 32q0 21 -33 21h-30v17h26q111 0 141 43l12 -6l-234 -584
q-25 -55 -25 -76q0 -17 15 -17q22 0 95 94l14 -9q-96 -134 -156 -134z" />
    <glyph glyph-name="Lcaron" unicode="&#x13d;" horiz-adv-x="528" 
d="M448 447l-13 7q24 46 55 125t39 93q9 19 29 19q13 0 22 -9t9 -21q0 -11 -7 -22q-8 -13 -58 -79.5t-76 -112.5zM347 -32l-14 5q11 27 -19 27h-197q-11 0 -32 0.5t-36 0.5q-14 0 -38 -0.5t-34 -0.5h-32v18h14q29 0 46.5 15t29.5 48l203 525q8 19 8 31q0 26 -33 26h-14v18
h38q10 0 33 -1.5t38 -1.5t38 1.5t33 1.5h32v-18h-13q-30 0 -47 -14.5t-30 -48.5l-223 -577h131q34 0 55.5 9.5t53.5 40.5q40 39 152 162l13 -9z" />
    <glyph glyph-name="lcaron" unicode="&#x13e;" horiz-adv-x="273" 
d="M337 485l-13 7q24 46 55 125t39 93q10 19 29 19q13 0 22 -9t9 -21q0 -11 -7 -22q-8 -13 -58 -79.5t-76 -112.5zM48 -8q-24 0 -38 14.5t-14 35.5q0 22 31 102l188 467q8 20 8 32q0 21 -33 21h-30v17h26q111 0 141 43l12 -6l-234 -584q-25 -55 -25 -76q0 -17 15 -17
q22 0 95 94l14 -9q-96 -134 -156 -134z" />
    <glyph glyph-name="Ldot" unicode="&#x13f;" horiz-adv-x="528" 
d="M347 -32l-14 5q11 27 -19 27h-197q-11 0 -32 0.5t-36 0.5q-14 0 -38 -0.5t-34 -0.5h-32v18h14q29 0 46.5 15t29.5 48l203 525q8 19 8 31q0 26 -33 26h-14v18h38q10 0 33 -1.5t38 -1.5t38 1.5t33 1.5h32v-18h-13q-30 0 -47 -14.5t-30 -48.5l-223 -577h131q34 0 55.5 9.5
t53.5 40.5q40 39 152 162l13 -9zM330 334q0 22 15 37t36 15t36.5 -15t15.5 -37q0 -21 -15.5 -35.5t-36.5 -14.5t-36 14.5t-15 35.5z" />
    <glyph glyph-name="ldot" unicode="&#x140;" horiz-adv-x="374" 
d="M48 -8q-24 0 -38 14.5t-14 35.5q0 22 31 102l188 467q8 20 8 32q0 21 -33 21h-30v17h26q111 0 141 43l12 -6l-234 -584q-25 -55 -25 -76q0 -17 15 -17q22 0 95 94l14 -9q-96 -134 -156 -134zM254 259q0 22 15 37t36 15t36.5 -15t15.5 -37q0 -21 -15.5 -35.5t-36.5 -14.5
t-36 14.5t-15 35.5z" />
    <glyph glyph-name="Lslash" unicode="&#x141;" horiz-adv-x="535" 
d="M510 226l-156 -258l-14 4q12 28 -19 28h-197q-11 0 -32 0.5t-36 0.5t-38.5 -0.5t-33.5 -0.5h-32v18h14q29 0 46.5 15t29.5 48l76 196l-71 -32l-9 21l92 42l115 298q8 22 8 31q0 26 -34 26h-13v18h38q10 0 32.5 -1.5t37.5 -1.5t38 1.5t34 1.5h32v-18h-13q-30 0 -47 -14.5
t-30 -48.5l-95 -245l132 60l9 -21l-153 -71l-116 -300h131q34 0 55.5 9.5t53.5 40.5q33 33 152 161z" />
    <glyph glyph-name="lslash" unicode="&#x142;" horiz-adv-x="264" 
d="M52 -8q-24 0 -37.5 14.5t-13.5 35.5q0 24 30 102l56 138l-63 -29l-9 20l83 37l121 301q8 20 8 32q0 21 -33 21h-30v17h26q111 0 141 43l12 -6l-145 -362l80 36l9 -19l-100 -46l-78 -193q-25 -61 -25 -76q0 -17 15 -17q22 0 95 94l14 -9q-96 -134 -156 -134z" />
    <glyph glyph-name="Nacute" unicode="&#x143;" horiz-adv-x="661" 
d="M466 726l-11 11q37 40 76 96t55 72q14 14 29 14q11 0 20 -8.5t9 -21.5q0 -15 -12 -27q-12 -11 -69.5 -53t-96.5 -83zM482 70l17 -70q-11 0 -24 0.5t-18 0.5q-8 0 -19 -0.5t-20 -0.5l-152 592l-174 -451q-18 -47 -18 -73q0 -50 44 -50h9v-18h-32q-6 0 -29 1.5t-37 1.5
q-16 0 -36 -1.5t-26 -1.5h-30v18h12q70 0 120 128l185 482q-11 35 -45 35h-19v18h38q11 0 27 -0.5t26 -0.5q12 0 24 0.5t22 0.5l145 -572l166 431q19 48 19 72q0 51 -45 51h-9v18h33q7 0 30 -1.5t37 -1.5q15 0 35 1.5t27 1.5h28v-18h-11q-41 0 -69.5 -33.5t-52.5 -97.5z" />
    <glyph glyph-name="nacute" unicode="&#x144;" horiz-adv-x="554" 
d="M346 537l-11 11q37 40 76 96t55 72q14 14 29 14q11 0 20 -8.5t9 -21.5q0 -15 -12 -27q-12 -11 -69.5 -53t-96.5 -83zM342 -8q-23 0 -36.5 14.5t-13.5 36.5q0 33 32 99l98 201q33 68 33 87q0 20 -16 20q-12 0 -33.5 -22.5t-70.5 -90.5l-246 -337q-7 0 -22.5 1t-21.5 1
q-7 0 -21 -1t-20 -1l149 358q25 58 25 72q0 19 -15 19q-21 0 -95 -94l-14 9q96 134 158 134q23 0 36.5 -14.5t13.5 -36.5q0 -28 -30 -100l-114 -269l201 273q63 86 96.5 116.5t68.5 30.5q27 0 40.5 -14.5t13.5 -36.5q0 -38 -35 -108l-100 -205q-27 -56 -27 -76q0 -17 13 -17
t33 19.5t63 74.5l14 -9q-50 -70 -87.5 -102t-69.5 -32z" />
    <glyph glyph-name="Ncommaaccent" unicode="&#x145;" horiz-adv-x="661" 
d="M274 -117q0 -51 -38 -87t-85 -41l-2 15q34 4 62.5 25.5t40.5 56.5q-12 -10 -31 -10t-32.5 13.5t-13.5 32.5t14 33t35 14t35.5 -14t14.5 -38zM482 70l17 -70q-11 0 -24 0.5t-18 0.5q-8 0 -19 -0.5t-20 -0.5l-152 592l-174 -451q-18 -47 -18 -73q0 -50 44 -50h9v-18h-32
q-6 0 -29 1.5t-37 1.5q-16 0 -36 -1.5t-26 -1.5h-30v18h12q70 0 120 128l185 482q-11 35 -45 35h-19v18h38q11 0 27 -0.5t26 -0.5q12 0 24 0.5t22 0.5l145 -572l166 431q19 48 19 72q0 51 -45 51h-9v18h33q7 0 30 -1.5t37 -1.5q15 0 35 1.5t27 1.5h28v-18h-11
q-41 0 -69.5 -33.5t-52.5 -97.5z" />
    <glyph glyph-name="ncommaaccent" unicode="&#x146;" horiz-adv-x="554" 
d="M214 -117q0 -51 -38 -87t-85 -41l-2 15q34 4 62.5 25.5t40.5 56.5q-12 -10 -31 -10t-32.5 13.5t-13.5 32.5t14 33t35 14t35.5 -14t14.5 -38zM342 -8q-23 0 -36.5 14.5t-13.5 36.5q0 33 32 99l98 201q33 68 33 87q0 20 -16 20q-12 0 -33.5 -22.5t-70.5 -90.5l-246 -337
q-7 0 -22.5 1t-21.5 1q-7 0 -21 -1t-20 -1l149 358q25 58 25 72q0 19 -15 19q-21 0 -95 -94l-14 9q96 134 158 134q23 0 36.5 -14.5t13.5 -36.5q0 -28 -30 -100l-114 -269l201 273q63 86 96.5 116.5t68.5 30.5q27 0 40.5 -14.5t13.5 -36.5q0 -38 -35 -108l-100 -205
q-27 -56 -27 -76q0 -17 13 -17t33 19.5t63 74.5l14 -9q-50 -70 -87.5 -102t-69.5 -32z" />
    <glyph glyph-name="Ncaron" unicode="&#x147;" horiz-adv-x="661" 
d="M458 917l14 3q21 -67 48 -120q111 88 148 122l11 -12q-68 -69 -131 -146q-29 -34 -43 -34q-26 0 -29 35q-5 77 -18 152zM482 70l17 -70q-11 0 -24 0.5t-18 0.5q-8 0 -19 -0.5t-20 -0.5l-152 592l-174 -451q-18 -47 -18 -73q0 -50 44 -50h9v-18h-32q-6 0 -29 1.5t-37 1.5
q-16 0 -36 -1.5t-26 -1.5h-30v18h12q70 0 120 128l185 482q-11 35 -45 35h-19v18h38q11 0 27 -0.5t26 -0.5q12 0 24 0.5t22 0.5l145 -572l166 431q19 48 19 72q0 51 -45 51h-9v18h33q7 0 30 -1.5t37 -1.5q15 0 35 1.5t27 1.5h28v-18h-11q-41 0 -69.5 -33.5t-52.5 -97.5z" />
    <glyph glyph-name="ncaron" unicode="&#x148;" horiz-adv-x="554" 
d="M338 728l14 3q21 -67 48 -120q111 88 148 122l11 -12q-68 -69 -131 -146q-29 -34 -43 -34q-26 0 -29 35q-5 77 -18 152zM342 -8q-23 0 -36.5 14.5t-13.5 36.5q0 33 32 99l98 201q33 68 33 87q0 20 -16 20q-12 0 -33.5 -22.5t-70.5 -90.5l-246 -337q-7 0 -22.5 1t-21.5 1
q-7 0 -21 -1t-20 -1l149 358q25 58 25 72q0 19 -15 19q-21 0 -95 -94l-14 9q96 134 158 134q23 0 36.5 -14.5t13.5 -36.5q0 -28 -30 -100l-114 -269l201 273q63 86 96.5 116.5t68.5 30.5q27 0 40.5 -14.5t13.5 -36.5q0 -38 -35 -108l-100 -205q-27 -56 -27 -76q0 -17 13 -17
t33 19.5t63 74.5l14 -9q-50 -70 -87.5 -102t-69.5 -32z" />
    <glyph glyph-name="napostrophe" unicode="&#x149;" horiz-adv-x="597" 
d="M122 588q-21 0 -35.5 14.5t-14.5 36.5q0 21 15.5 36t38.5 15t39 -15.5t16 -40.5q0 -58 -44 -98t-97 -47l-3 17q43 6 75 33t42 63q-14 -14 -32 -14zM384 -8q-23 0 -36.5 14.5t-13.5 36.5q0 33 32 99l98 201q33 68 33 87q0 20 -16 20q-12 0 -33.5 -22.5t-70.5 -90.5
l-246 -337q-7 0 -22.5 1t-21.5 1q-7 0 -21 -1t-20 -1l149 358q25 58 25 72q0 19 -15 19q-21 0 -95 -94l-14 9q96 134 158 134q23 0 36.5 -14.5t13.5 -36.5q0 -28 -30 -100l-114 -269l201 273q63 86 96.5 116.5t68.5 30.5q27 0 40.5 -14.5t13.5 -36.5q0 -38 -35 -108
l-100 -205q-27 -56 -27 -76q0 -17 13 -17t33 19.5t63 74.5l14 -9q-50 -70 -87.5 -102t-69.5 -32z" />
    <glyph glyph-name="Eng" unicode="&#x14a;" horiz-adv-x="657" 
d="M485 79l21 -79q-8 0 -23.5 0.5t-17.5 0.5q-3 0 -8 -0.5t-7 -0.5l-20 -42q-92 -194 -271 -194q-23 0 -36 9t-13 24q0 14 10.5 22.5t27.5 8.5t45 -9t46 -9q41 0 87 41.5t80 110.5l18 38l-158 592l-174 -451q-18 -47 -18 -73q0 -50 44 -50h9v-18h-32q-6 0 -29 1.5t-37 1.5
q-16 0 -36 -1.5t-26 -1.5h-30v18h12q70 0 120 128l185 482q-11 35 -45 35h-19v18h38q11 0 27 -0.5t26 -0.5q12 0 24 0.5t22 0.5l148 -564l163 423q19 48 19 72q0 51 -45 51h-9v18h33q7 0 30 -1.5t37 -1.5q15 0 35 1.5t27 1.5h28v-18h-11q-41 0 -69.5 -33.5t-52.5 -97.5z" />
    <glyph glyph-name="eng" unicode="&#x14b;" horiz-adv-x="539" 
d="M500 331l-89 -217q-143 -350 -363 -350q-21 0 -33 9t-12 24t11 23.5t27 8.5q14 0 47 -10.5t51 -10.5q81 0 161 210l120 318q6 16 13.5 35.5t10.5 27.5t5.5 16.5t2.5 14.5q0 19 -16 19q-12 0 -32 -21.5t-70 -90.5l-245 -337q-7 0 -23 1t-22 1t-19.5 -1t-20.5 -1l149 358
q25 61 25 72q0 19 -15 19q-13 0 -33.5 -20.5t-61.5 -73.5l-14 9q96 134 158 134q23 0 36 -14t13 -37q0 -28 -30 -100l-113 -269l199 273q62 85 95.5 116t68.5 31q27 0 40.5 -14.5t13.5 -36.5q0 -35 -35 -116z" />
    <glyph glyph-name="Omacron" unicode="&#x14c;" horiz-adv-x="644" 
d="M637 793h-226v28h226v-28zM244 -10q-80 0 -130.5 60.5t-50.5 155.5q0 75 30 159.5t81.5 157t129.5 120.5t164 48q81 0 131.5 -60.5t50.5 -155.5q0 -60 -18.5 -126.5t-55 -130t-85 -114.5t-113 -82.5t-134.5 -31.5zM241 14q60 0 116 43t95.5 108t69.5 138.5t45 136
t15 100.5q0 58 -30.5 92.5t-80.5 34.5q-73 0 -140.5 -65t-109 -154.5t-66 -173.5t-24.5 -133q0 -58 30 -92.5t80 -34.5z" />
    <glyph glyph-name="omacron" unicode="&#x14d;" horiz-adv-x="461" 
d="M482 604h-226v28h226v-28zM143 11q65 0 127 100q42 68 73 159t31 141q0 32 -15.5 49.5t-40.5 17.5q-67 0 -128 -100q-41 -67 -72 -158t-31 -142q0 -31 15.5 -49t40.5 -18zM144 -8q-47 0 -84.5 39t-37.5 109q0 47 21.5 107t57.5 117t94 95.5t122 38.5q47 0 84.5 -39
t37.5 -109q0 -47 -21.5 -107.5t-58 -117t-94 -95t-121.5 -38.5z" />
    <glyph glyph-name="Obreve" unicode="&#x14e;" horiz-adv-x="644" 
d="M244 -10q-80 0 -130.5 60.5t-50.5 155.5q0 75 30 159.5t81.5 157t129.5 120.5t164 48q81 0 131.5 -60.5t50.5 -155.5q0 -60 -18.5 -126.5t-55 -130t-85 -114.5t-113 -82.5t-134.5 -31.5zM241 14q60 0 116 43t95.5 108t69.5 138.5t45 136t15 100.5q0 58 -30.5 92.5
t-80.5 34.5q-73 0 -140.5 -65t-109 -154.5t-66 -173.5t-24.5 -133q0 -58 30 -92.5t80 -34.5zM506 755q-38 0 -58 38.5t-19 86.5l14 2q5 -70 83 -70q76 0 134 73l12 -10q-87 -120 -166 -120z" />
    <glyph glyph-name="obreve" unicode="&#x14f;" horiz-adv-x="461" 
d="M143 11q65 0 127 100q42 68 73 159t31 141q0 32 -15.5 49.5t-40.5 17.5q-67 0 -128 -100q-41 -67 -72 -158t-31 -142q0 -31 15.5 -49t40.5 -18zM144 -8q-47 0 -84.5 39t-37.5 109q0 47 21.5 107t57.5 117t94 95.5t122 38.5q47 0 84.5 -39t37.5 -109q0 -47 -21.5 -107.5
t-58 -117t-94 -95t-121.5 -38.5zM351 566q-38 0 -58 38.5t-19 86.5l14 2q5 -70 83 -70q76 0 134 73l12 -10q-87 -120 -166 -120z" />
    <glyph glyph-name="Ohungarumlaut" unicode="&#x150;" horiz-adv-x="644" 
d="M426 729l-10 11q38 40 80.5 98t52.5 69q11 12 24 12q11 0 19.5 -8t8.5 -20q0 -11 -10 -23q-10 -10 -69 -54.5t-96 -84.5zM536 729l-10 11q38 40 80.5 98t52.5 69q11 12 24 12q11 0 19.5 -8t8.5 -20q0 -11 -10 -23q-10 -10 -69 -54.5t-96 -84.5zM244 -10
q-80 0 -130.5 60.5t-50.5 155.5q0 75 30 159.5t81.5 157t129.5 120.5t164 48q81 0 131.5 -60.5t50.5 -155.5q0 -60 -18.5 -126.5t-55 -130t-85 -114.5t-113 -82.5t-134.5 -31.5zM241 14q60 0 116 43t95.5 108t69.5 138.5t45 136t15 100.5q0 58 -30.5 92.5t-80.5 34.5
q-73 0 -140.5 -65t-109 -154.5t-66 -173.5t-24.5 -133q0 -58 30 -92.5t80 -34.5z" />
    <glyph glyph-name="ohungarumlaut" unicode="&#x151;" horiz-adv-x="461" 
d="M271 540l-10 11q38 40 80.5 98t52.5 69q11 12 24 12q11 0 19.5 -8t8.5 -20q0 -11 -10 -23q-10 -10 -69 -54.5t-96 -84.5zM381 540l-10 11q38 40 80.5 98t52.5 69q11 12 24 12q11 0 19.5 -8t8.5 -20q0 -11 -10 -23q-10 -10 -69 -54.5t-96 -84.5zM143 11q65 0 127 100
q42 68 73 159t31 141q0 32 -15.5 49.5t-40.5 17.5q-67 0 -128 -100q-41 -67 -72 -158t-31 -142q0 -31 15.5 -49t40.5 -18zM144 -8q-47 0 -84.5 39t-37.5 109q0 47 21.5 107t57.5 117t94 95.5t122 38.5q47 0 84.5 -39t37.5 -109q0 -47 -21.5 -107.5t-58 -117t-94 -95
t-121.5 -38.5z" />
    <glyph glyph-name="OE" unicode="&#x152;" horiz-adv-x="934" 
d="M730 -33l-14 5q12 28 -19 28h-248q-7 0 -26 0.5t-30 0.5q-10 0 -34.5 -0.5t-37.5 -0.5h-51q-93 0 -150 49.5t-57 156.5q0 48 14.5 107.5t48.5 125t81.5 119t121.5 88.5t160 35h93q10 0 36.5 -0.5t35.5 -0.5q14 0 35.5 0.5t31.5 0.5h192q39 0 42 30h15l3 -237l-16 -2
q-9 32 -16.5 63.5t-12 49.5t-10.5 35q-13 38 -65 38h-165l-117 -301h107q42 0 71.5 32t62.5 98l15 -5l-110 -284l-15 4q17 59 17 82q0 50 -49 50h-107l-119 -311h173q33 0 53.5 9t51.5 39q25 24 146 150l12 -9zM483 658q-58 0 -110 -32t-89 -82.5t-67.5 -110t-48.5 -118.5
t-27.5 -104t-9.5 -70q0 -63 38.5 -90.5t113.5 -27.5h76l243 635h-119z" />
    <glyph glyph-name="oe" unicode="&#x153;" horiz-adv-x="708" 
d="M144 -8q-47 0 -84.5 39t-37.5 109q0 47 21.5 107t57.5 117t94 95.5t122 38.5q38 0 68.5 -26.5t38.5 -81.5q91 108 189 108q45 0 74.5 -19t29.5 -51q0 -62 -94.5 -117.5t-209.5 -69.5q-16 -52 -16 -98q0 -98 66 -98q62 0 159 123l13 -10q-116 -166 -218 -166
q-34 0 -59 24.5t-34 70.5q-81 -95 -180 -95zM143 11q65 0 127 100q42 68 73 159t31 141q0 32 -15.5 49.5t-40.5 17.5q-67 0 -128 -100q-41 -67 -72 -158t-31 -142q0 -31 15.5 -49t40.5 -18zM613 479q-59 0 -112.5 -63.5t-81.5 -153.5q87 10 158 70.5t71 112.5q0 34 -35 34z
" />
    <glyph glyph-name="Racute" unicode="&#x154;" horiz-adv-x="615" 
d="M422 726l-11 11q37 40 76 96t55 72q14 14 29 14q11 0 20 -8.5t9 -21.5q0 -15 -12 -27q-12 -11 -69.5 -53t-96.5 -83zM632 552q0 -95 -81 -164t-200 -69q5 -27 18 -38t49 -11l26 -174q7 -47 20 -61t45 -16h10v-19h-16q-20 0 -37.5 1.5t-35.5 1.5q-10 0 -26.5 -1.5
t-26.5 -1.5l-48 319h-118l-93 -244q-8 -22 -8 -31q0 -26 35 -26h12v-18h-37q-11 0 -33.5 1.5t-37.5 1.5q-14 0 -37.5 -1.5t-33.5 -1.5h-33v18h14q29 0 46 14.5t30 48.5l202 524q8 20 8 32q0 26 -32 26h-14v18h37q11 0 34 -0.5t38 -0.5t36.5 0.5t32.5 0.5h108q69 0 108 -34.5
t39 -94.5zM343 658l-123 -316h120q49 0 89.5 20t63.5 48.5t39 62.5t21.5 59t5.5 40q0 44 -19 65t-70 21h-127z" />
    <glyph glyph-name="racute" unicode="&#x155;" horiz-adv-x="404" 
d="M280 537l-11 11q37 40 76 96t55 72q14 14 29 14q11 0 20 -8.5t9 -21.5q0 -15 -12 -27q-12 -11 -69.5 -53t-96.5 -83zM101 0q-12 0 -25.5 1t-18.5 1q-6 0 -21.5 -1t-22.5 -1l138 358q23 59 23 74q0 17 -15 17q-22 0 -95 -94l-14 9q97 134 155 134q25 0 38.5 -14t13.5 -36
q0 -31 -27 -101l-102 -263l110 189q130 225 193 225q15 0 24 -9.5t9 -22.5q0 -27 -46 -42q-45 -14 -81.5 -51t-81.5 -113z" />
    <glyph glyph-name="Rcommaaccent" unicode="&#x156;" horiz-adv-x="615" 
d="M266 -117q0 -51 -38 -87t-85 -41l-2 15q34 4 62.5 25.5t40.5 56.5q-12 -10 -31 -10t-32.5 13.5t-13.5 32.5t14 33t35 14t35.5 -14t14.5 -38zM632 552q0 -95 -81 -164t-200 -69q5 -27 18 -38t49 -11l26 -174q7 -47 20 -61t45 -16h10v-19h-16q-20 0 -37.5 1.5t-35.5 1.5
q-10 0 -26.5 -1.5t-26.5 -1.5l-48 319h-118l-93 -244q-8 -22 -8 -31q0 -26 35 -26h12v-18h-37q-11 0 -33.5 1.5t-37.5 1.5q-14 0 -37.5 -1.5t-33.5 -1.5h-33v18h14q29 0 46 14.5t30 48.5l202 524q8 20 8 32q0 26 -32 26h-14v18h37q11 0 34 -0.5t38 -0.5t36.5 0.5t32.5 0.5
h108q69 0 108 -34.5t39 -94.5zM343 658l-123 -316h120q49 0 89.5 20t63.5 48.5t39 62.5t21.5 59t5.5 40q0 44 -19 65t-70 21h-127z" />
    <glyph glyph-name="rcommaaccent" unicode="&#x157;" horiz-adv-x="404" 
d="M69 -117q0 -51 -38 -87t-85 -41l-2 15q34 4 62.5 25.5t40.5 56.5q-12 -10 -31 -10t-32.5 13.5t-13.5 32.5t14 33t35 14t35.5 -14t14.5 -38zM101 0q-12 0 -25.5 1t-18.5 1q-6 0 -21.5 -1t-22.5 -1l138 358q23 59 23 74q0 17 -15 17q-22 0 -95 -94l-14 9q97 134 155 134
q25 0 38.5 -14t13.5 -36q0 -31 -27 -101l-102 -263l110 189q130 225 193 225q15 0 24 -9.5t9 -22.5q0 -27 -46 -42q-45 -14 -81.5 -51t-81.5 -113z" />
    <glyph glyph-name="Rcaron" unicode="&#x158;" horiz-adv-x="615" 
d="M414 917l14 3q21 -67 48 -120q111 88 148 122l11 -12q-68 -69 -131 -146q-29 -34 -43 -34q-26 0 -29 35q-5 77 -18 152zM632 552q0 -95 -81 -164t-200 -69q5 -27 18 -38t49 -11l26 -174q7 -47 20 -61t45 -16h10v-19h-16q-20 0 -37.5 1.5t-35.5 1.5q-10 0 -26.5 -1.5
t-26.5 -1.5l-48 319h-118l-93 -244q-8 -22 -8 -31q0 -26 35 -26h12v-18h-37q-11 0 -33.5 1.5t-37.5 1.5q-14 0 -37.5 -1.5t-33.5 -1.5h-33v18h14q29 0 46 14.5t30 48.5l202 524q8 20 8 32q0 26 -32 26h-14v18h37q11 0 34 -0.5t38 -0.5t36.5 0.5t32.5 0.5h108q69 0 108 -34.5
t39 -94.5zM343 658l-123 -316h120q49 0 89.5 20t63.5 48.5t39 62.5t21.5 59t5.5 40q0 44 -19 65t-70 21h-127z" />
    <glyph glyph-name="rcaron" unicode="&#x159;" horiz-adv-x="404" 
d="M272 728l14 3q21 -67 48 -120q111 88 148 122l11 -12q-68 -69 -131 -146q-29 -34 -43 -34q-26 0 -29 35q-5 77 -18 152zM101 0q-12 0 -25.5 1t-18.5 1q-6 0 -21.5 -1t-22.5 -1l138 358q23 59 23 74q0 17 -15 17q-22 0 -95 -94l-14 9q97 134 155 134q25 0 38.5 -14
t13.5 -36q0 -31 -27 -101l-102 -263l110 189q130 225 193 225q15 0 24 -9.5t9 -22.5q0 -27 -46 -42q-45 -14 -81.5 -51t-81.5 -113z" />
    <glyph glyph-name="Sacute" unicode="&#x15a;" horiz-adv-x="526" 
d="M348 726l-11 11q37 40 76 96t55 72q14 14 29 14q11 0 20 -8.5t9 -21.5q0 -15 -12 -27q-12 -11 -69.5 -53t-96.5 -83zM232 -10q-34 0 -81.5 14t-59.5 14q-26 0 -26 -26l-15 -2l-29 241l16 3q37 -122 85 -172.5t111 -50.5q58 0 95.5 36t37.5 95q0 78 -82 168l-29 32
q-72 78 -72 163q0 78 55 132t130 54q25 0 61 -8.5t46 -8.5q28 0 26 28l15 1l38 -217l-16 -3q-62 187 -171 187q-49 0 -82.5 -34t-33.5 -87q0 -71 67 -146l30 -34q50 -56 72.5 -94.5t22.5 -85.5q0 -84 -64.5 -141.5t-146.5 -57.5z" />
    <glyph glyph-name="sacute" unicode="&#x15b;" horiz-adv-x="379" 
d="M239 537l-11 11q37 40 76 96t55 72q14 14 29 14q11 0 20 -8.5t9 -21.5q0 -15 -12 -27q-12 -11 -69.5 -53t-96.5 -83zM131 -8q-65 0 -107 34t-42 78q0 14 9.5 23.5t21.5 9.5q28 0 34 -37q14 -90 89 -90q40 0 66.5 28.5t26.5 63.5q0 42 -46 100l-28 35q-56 68 -56 117
q0 63 44 103.5t101 40.5q52 0 92.5 -27.5t40.5 -59.5q0 -13 -9.5 -21.5t-22.5 -8.5q-26 0 -35 36q-15 63 -69 63q-32 0 -55.5 -21.5t-23.5 -55.5q0 -27 12 -50.5t43 -61.5l31 -38q46 -58 46 -109q0 -66 -49.5 -109t-113.5 -43z" />
    <glyph glyph-name="Scircumflex" unicode="&#x15c;" horiz-adv-x="526" 
d="M483 730l-14 -3q-21 67 -48 120q-111 -88 -148 -122l-11 12q68 69 131 146q29 34 43 34q26 0 29 -35q5 -77 18 -152zM232 -10q-34 0 -81.5 14t-59.5 14q-26 0 -26 -26l-15 -2l-29 241l16 3q37 -122 85 -172.5t111 -50.5q58 0 95.5 36t37.5 95q0 78 -82 168l-29 32
q-72 78 -72 163q0 78 55 132t130 54q25 0 61 -8.5t46 -8.5q28 0 26 28l15 1l38 -217l-16 -3q-62 187 -171 187q-49 0 -82.5 -34t-33.5 -87q0 -71 67 -146l30 -34q50 -56 72.5 -94.5t22.5 -85.5q0 -84 -64.5 -141.5t-146.5 -57.5z" />
    <glyph glyph-name="scircumflex" unicode="&#x15d;" horiz-adv-x="379" 
d="M375 541l-14 -3q-21 67 -48 120q-111 -88 -148 -122l-11 12q68 69 131 146q29 34 43 34q26 0 29 -35q5 -77 18 -152zM131 -8q-65 0 -107 34t-42 78q0 14 9.5 23.5t21.5 9.5q28 0 34 -37q14 -90 89 -90q40 0 66.5 28.5t26.5 63.5q0 42 -46 100l-28 35q-56 68 -56 117
q0 63 44 103.5t101 40.5q52 0 92.5 -27.5t40.5 -59.5q0 -13 -9.5 -21.5t-22.5 -8.5q-26 0 -35 36q-15 63 -69 63q-32 0 -55.5 -21.5t-23.5 -55.5q0 -27 12 -50.5t43 -61.5l31 -38q46 -58 46 -109q0 -66 -49.5 -109t-113.5 -43z" />
    <glyph glyph-name="Scedilla" unicode="&#x15e;" horiz-adv-x="526" 
d="M258 -100q0 -37 -38.5 -71t-89.5 -53.5t-99 -25.5l-2 15q61 7 118.5 39t57.5 73q0 28 -33 28q-26 0 -54 -15l-7 11l104 90q-28 2 -69.5 14.5t-54.5 12.5q-26 0 -26 -26l-15 -2l-29 241l16 3q37 -122 85 -172.5t111 -50.5q58 0 95.5 36t37.5 95q0 78 -82 168l-29 32
q-72 78 -72 163q0 78 55 132t130 54q25 0 61 -8.5t46 -8.5q28 0 26 28l15 1l38 -217l-16 -3q-62 187 -171 187q-49 0 -82.5 -34t-33.5 -87q0 -71 67 -146l30 -34q50 -56 72.5 -94.5t22.5 -85.5q0 -83 -63.5 -140t-144.5 -59l-42 -47q8 1 13 1q23 0 37.5 -12t14.5 -32z" />
    <glyph glyph-name="scedilla" unicode="&#x15f;" horiz-adv-x="379" 
d="M157 -100q0 -37 -38.5 -71t-89.5 -53.5t-99 -25.5l-2 15q60 7 117.5 39t57.5 73q0 28 -33 28q-25 0 -53 -15l-7 11l106 91q-60 4 -97 37.5t-37 74.5q0 14 9.5 23.5t21.5 9.5q28 0 34 -37q14 -90 89 -90q40 0 66.5 28.5t26.5 63.5q0 42 -46 100l-28 35q-56 68 -56 117
q0 63 44 103.5t101 40.5q52 0 92.5 -27.5t40.5 -59.5q0 -13 -9.5 -21.5t-22.5 -8.5q-25 0 -35 37q-15 62 -69 62q-32 0 -55.5 -21.5t-23.5 -55.5q0 -27 12 -50.5t43 -61.5l31 -38q46 -58 46 -109q0 -64 -47 -106.5t-111 -45.5l-45 -49q8 1 14 1q23 0 37.5 -12t14.5 -32z" />
    <glyph glyph-name="Scaron" unicode="&#x160;" horiz-adv-x="526" 
d="M340 917l14 3q21 -67 48 -120q111 88 148 122l11 -12q-68 -69 -131 -146q-29 -34 -43 -34q-26 0 -29 35q-5 77 -18 152zM232 -10q-34 0 -81.5 14t-59.5 14q-26 0 -26 -26l-15 -2l-29 241l16 3q37 -122 85 -172.5t111 -50.5q58 0 95.5 36t37.5 95q0 78 -82 168l-29 32
q-72 78 -72 163q0 78 55 132t130 54q25 0 61 -8.5t46 -8.5q28 0 26 28l15 1l38 -217l-16 -3q-62 187 -171 187q-49 0 -82.5 -34t-33.5 -87q0 -71 67 -146l30 -34q50 -56 72.5 -94.5t22.5 -85.5q0 -84 -64.5 -141.5t-146.5 -57.5z" />
    <glyph glyph-name="scaron" unicode="&#x161;" horiz-adv-x="379" 
d="M232 728l14 3q21 -67 48 -120q111 88 148 122l11 -12q-68 -69 -131 -146q-29 -34 -43 -34q-26 0 -29 35q-5 77 -18 152zM131 -8q-65 0 -107 34t-42 78q0 14 9.5 23.5t21.5 9.5q28 0 34 -37q14 -90 89 -90q40 0 66.5 28.5t26.5 63.5q0 42 -46 100l-28 35q-56 68 -56 117
q0 63 44 103.5t101 40.5q52 0 92.5 -27.5t40.5 -59.5q0 -13 -9.5 -21.5t-22.5 -8.5q-26 0 -35 36q-15 63 -69 63q-32 0 -55.5 -21.5t-23.5 -55.5q0 -27 12 -50.5t43 -61.5l31 -38q46 -58 46 -109q0 -66 -49.5 -109t-113.5 -43z" />
    <glyph glyph-name="Tcommaaccent" unicode="&#x162;" horiz-adv-x="590" 
d="M234 -100q0 -37 -38.5 -71t-89 -53.5t-99.5 -25.5l-2 15q61 7 118.5 39t57.5 73q0 28 -33 28q-26 0 -53 -15l-8 11l118 102q-19 0 -44.5 -1.5t-34.5 -1.5h-32v18h14q30 0 47 14.5t30 48.5l222 577h-75q-26 0 -40.5 -6t-35.5 -30q-1 -1 -49 -58.5t-98 -114.5l-13 9
l142 254l14 -5q-9 -26 20 -26h90q9 0 42.5 -0.5t52.5 -0.5q18 0 44.5 0.5t35.5 0.5h88q37 0 43 30l15 -2l-28 -258h-16q-15 141 -22 171q-4 22 -13.5 29t-33.5 7h-79l-223 -583q-8 -19 -8 -31q0 -26 34 -26h12v-18h-38q-12 0 -46 2l-53 -59q8 1 13 1q23 0 37.5 -12t14.5 -32
z" />
    <glyph glyph-name="tcommaaccent" unicode="&#x163;" horiz-adv-x="291" 
d="M84 -100q0 -37 -38.5 -71t-89.5 -53.5t-99 -25.5l-2 15q61 7 118.5 39t57.5 73q0 28 -33 28q-26 0 -54 -15l-7 11l108 93q-36 9 -36 48q0 25 33 106l128 321h-64v21h72l26 65q40 7 61 26t37 54l15 -5l-57 -140h104v-21h-112l-134 -335q-24 -60 -24 -76q0 -17 14 -17
q24 0 96 94l14 -9q-96 -134 -155 -134l-45 -49q8 1 14 1q23 0 37.5 -12t14.5 -32z" />
    <glyph glyph-name="Tcaron" unicode="&#x164;" horiz-adv-x="590" 
d="M437 917l14 3q21 -67 48 -120q111 88 148 122l11 -12q-68 -69 -131 -146q-29 -34 -43 -34q-26 0 -29 35q-5 77 -18 152zM306 0h-38q-10 0 -32 1.5t-37 1.5t-38.5 -1.5t-34.5 -1.5h-32v18h14q30 0 47 14.5t30 48.5l222 577h-75q-26 0 -40.5 -6t-35.5 -30q-1 -1 -49 -58.5
t-98 -114.5l-13 9l142 254l14 -5q-9 -26 20 -26h90q9 0 42.5 -0.5t52.5 -0.5q18 0 44.5 0.5t35.5 0.5h88q37 0 43 30l15 -2l-28 -258h-16q-15 141 -22 171q-4 22 -13.5 29t-33.5 7h-79l-223 -583q-8 -22 -8 -31q0 -26 34 -26h12v-18z" />
    <glyph glyph-name="tcaron" unicode="&#x165;" horiz-adv-x="291" 
d="M338 539l-13 7q24 46 55 125t39 93q9 19 29 19q13 0 22 -9t9 -21q0 -11 -7 -22q-8 -13 -58 -79.5t-76 -112.5zM62 -8q-25 0 -39 14.5t-14 35.5q0 25 33 106l128 321h-64v21h72l26 65q40 7 61 26t37 54l15 -5l-57 -140h104v-21h-112l-134 -335q-24 -60 -24 -76
q0 -17 14 -17q24 0 96 94l14 -9q-96 -134 -156 -134z" />
    <glyph glyph-name="Tbar" unicode="&#x166;" horiz-adv-x="590" 
d="M268 0q-11 0 -33 1.5t-37 1.5t-38.5 -1.5t-34.5 -1.5h-32v18h14q30 0 47 14.5t30 48.5l98 253h-110v23h118l116 301h-74q-27 0 -41 -6t-36 -30q-1 -1 -49 -58.5t-98 -114.5l-13 9l142 254l14 -5q-9 -26 21 -26h89q9 0 42.5 -0.5t52.5 -0.5q18 0 44.5 0.5t35.5 0.5h88
q37 0 43 30l15 -2l-28 -258h-16q-14 131 -22 171q-4 22 -13.5 29t-33.5 7h-78l-116 -301h111v-23h-120l-99 -259q-8 -22 -8 -31q0 -26 34 -26h12v-18h-37z" />
    <glyph glyph-name="tbar" unicode="&#x167;" horiz-adv-x="296" 
d="M295 327h-97l-78 -193q-24 -60 -24 -76q0 -17 15 -17q23 0 95 94l14 -9q-96 -134 -156 -134q-25 0 -38.5 14t-13.5 36q0 27 32 106l72 179h-59v21h67l48 121h-63v21h71l26 65q39 7 60.5 26.5t37.5 53.5l15 -5l-57 -140h105v-21h-113l-48 -121h89v-21z" />
    <glyph glyph-name="Utilde" unicode="&#x168;" horiz-adv-x="616" 
d="M227 -8q-79 0 -123.5 36.5t-44.5 99.5q0 47 29 123l137 355q8 21 8 31q0 26 -34 26h-13v18h38q10 0 32.5 -1.5t37.5 -1.5t38 1.5t34 1.5h32v-18h-12q-30 0 -47.5 -14.5t-30.5 -48.5l-137 -354q-32 -82 -32 -129q0 -44 28 -69.5t82 -25.5q156 0 234 201l120 311
q21 55 21 79q0 50 -45 50h-8v18h32q6 0 29.5 -1.5t37.5 -1.5q16 0 35.5 1.5t24.5 1.5h31v-18h-14q-41 0 -69 -37t-52 -99l-120 -311q-86 -224 -279 -224zM559 774q-21 0 -55 21.5t-60 21.5q-11 0 -22 -9t-17.5 -18.5t-19.5 -30.5l-13 8q18 30 28.5 46t33 33.5t47.5 17.5
q21 0 55 -21.5t60 -21.5q15 0 28 14t31 43l13 -8q-19 -32 -29 -46.5t-32.5 -32t-47.5 -17.5z" />
    <glyph glyph-name="utilde" unicode="&#x169;" horiz-adv-x="551" 
d="M212 498q23 0 36.5 -14.5t13.5 -36.5q0 -33 -32 -99l-98 -201q-33 -68 -33 -87q0 -20 16 -20q11 0 31 22t71 91l245 337q7 0 22.5 -1t21.5 -1t20 1t21 1l-149 -358q-25 -58 -25 -72q0 -19 14 -19q13 0 34 21t62 73l14 -9q-95 -134 -158 -134q-23 0 -36.5 14.5t-13.5 36.5
q0 28 30 100l114 269l-199 -273q-62 -85 -95.5 -116t-68.5 -31q-27 0 -40.5 14.5t-13.5 36.5q0 38 35 108l101 205q27 56 27 76q0 17 -14 17q-13 0 -33.5 -20t-63.5 -74l-14 9q96 134 158 134zM433 585q-21 0 -55 21.5t-60 21.5q-11 0 -22 -9t-17.5 -18.5t-19.5 -30.5l-13 8
q18 30 28.5 46t33 33.5t47.5 17.5q21 0 55 -21.5t60 -21.5q15 0 28 14t31 43l13 -8q-19 -32 -29 -46.5t-32.5 -32t-47.5 -17.5z" />
    <glyph glyph-name="Umacron" unicode="&#x16a;" horiz-adv-x="616" 
d="M227 -8q-79 0 -123.5 36.5t-44.5 99.5q0 47 29 123l137 355q8 21 8 31q0 26 -34 26h-13v18h38q10 0 32.5 -1.5t37.5 -1.5t38 1.5t34 1.5h32v-18h-12q-30 0 -47.5 -14.5t-30.5 -48.5l-137 -354q-32 -82 -32 -129q0 -44 28 -69.5t82 -25.5q156 0 234 201l120 311
q21 55 21 79q0 50 -45 50h-8v18h32q6 0 29.5 -1.5t37.5 -1.5q16 0 35.5 1.5t24.5 1.5h31v-18h-14q-41 0 -69 -37t-52 -99l-120 -311q-86 -224 -279 -224zM628 793h-226v28h226v-28z" />
    <glyph glyph-name="umacron" unicode="&#x16b;" horiz-adv-x="551" 
d="M212 498q23 0 36.5 -14.5t13.5 -36.5q0 -33 -32 -99l-98 -201q-33 -68 -33 -87q0 -20 16 -20q11 0 31 22t71 91l245 337q7 0 22.5 -1t21.5 -1t20 1t21 1l-149 -358q-25 -58 -25 -72q0 -19 14 -19q13 0 34 21t62 73l14 -9q-95 -134 -158 -134q-23 0 -36.5 14.5t-13.5 36.5
q0 28 30 100l114 269l-199 -273q-62 -85 -95.5 -116t-68.5 -31q-27 0 -40.5 14.5t-13.5 36.5q0 38 35 108l101 205q27 56 27 76q0 17 -14 17q-13 0 -33.5 -20t-63.5 -74l-14 9q96 134 158 134zM502 604h-226v28h226v-28z" />
    <glyph glyph-name="Ubreve" unicode="&#x16c;" horiz-adv-x="616" 
d="M227 -8q-79 0 -123.5 36.5t-44.5 99.5q0 47 29 123l137 355q8 21 8 31q0 26 -34 26h-13v18h38q10 0 32.5 -1.5t37.5 -1.5t38 1.5t34 1.5h32v-18h-12q-30 0 -47.5 -14.5t-30.5 -48.5l-137 -354q-32 -82 -32 -129q0 -44 28 -69.5t82 -25.5q156 0 234 201l120 311
q21 55 21 79q0 50 -45 50h-8v18h32q6 0 29.5 -1.5t37.5 -1.5q16 0 35.5 1.5t24.5 1.5h31v-18h-14q-41 0 -69 -37t-52 -99l-120 -311q-86 -224 -279 -224zM497 755q-38 0 -58 38.5t-19 86.5l14 2q5 -70 83 -70q76 0 134 73l12 -10q-87 -120 -166 -120z" />
    <glyph glyph-name="ubreve" unicode="&#x16d;" horiz-adv-x="551" 
d="M212 498q23 0 36.5 -14.5t13.5 -36.5q0 -33 -32 -99l-98 -201q-33 -68 -33 -87q0 -20 16 -20q11 0 31 22t71 91l245 337q7 0 22.5 -1t21.5 -1t20 1t21 1l-149 -358q-25 -58 -25 -72q0 -19 14 -19q13 0 34 21t62 73l14 -9q-95 -134 -158 -134q-23 0 -36.5 14.5t-13.5 36.5
q0 28 30 100l114 269l-199 -273q-62 -85 -95.5 -116t-68.5 -31q-27 0 -40.5 14.5t-13.5 36.5q0 38 35 108l101 205q27 56 27 76q0 17 -14 17q-13 0 -33.5 -20t-63.5 -74l-14 9q96 134 158 134zM371 566q-38 0 -58 38.5t-19 86.5l14 2q5 -70 83 -70q76 0 134 73l12 -10
q-87 -120 -166 -120z" />
    <glyph glyph-name="Uring" unicode="&#x16e;" horiz-adv-x="616" 
d="M610 828q0 -37 -25 -62.5t-61 -25.5q-37 0 -61.5 25.5t-24.5 62.5q0 36 25 61.5t61 25.5t61 -25.5t25 -61.5zM585 828q0 27 -17 45.5t-44 18.5t-44 -18.5t-17 -45.5t17 -45.5t44 -18.5t44 18.5t17 45.5zM227 -8q-79 0 -123.5 36.5t-44.5 99.5q0 47 29 123l137 355
q8 21 8 31q0 26 -34 26h-13v18h38q10 0 32.5 -1.5t37.5 -1.5t38 1.5t34 1.5h32v-18h-12q-30 0 -47.5 -14.5t-30.5 -48.5l-137 -354q-32 -82 -32 -129q0 -44 28 -69.5t82 -25.5q156 0 234 201l120 311q21 55 21 79q0 50 -45 50h-8v18h32q6 0 29.5 -1.5t37.5 -1.5
q16 0 35.5 1.5t24.5 1.5h31v-18h-14q-41 0 -69 -37t-52 -99l-120 -311q-86 -224 -279 -224z" />
    <glyph glyph-name="uring" unicode="&#x16f;" horiz-adv-x="551" 
d="M483 639q0 -37 -25 -62.5t-61 -25.5q-37 0 -61.5 25.5t-24.5 62.5q0 36 25 61.5t61 25.5t61 -25.5t25 -61.5zM458 639q0 27 -17 45.5t-44 18.5t-44 -18.5t-17 -45.5t17 -45.5t44 -18.5t44 18.5t17 45.5zM212 498q23 0 36.5 -14.5t13.5 -36.5q0 -33 -32 -99l-98 -201
q-33 -68 -33 -87q0 -20 16 -20q11 0 31 22t71 91l245 337q7 0 22.5 -1t21.5 -1t20 1t21 1l-149 -358q-25 -58 -25 -72q0 -19 14 -19q13 0 34 21t62 73l14 -9q-95 -134 -158 -134q-23 0 -36.5 14.5t-13.5 36.5q0 28 30 100l114 269l-199 -273q-62 -85 -95.5 -116t-68.5 -31
q-27 0 -40.5 14.5t-13.5 36.5q0 38 35 108l101 205q27 56 27 76q0 17 -14 17q-13 0 -33.5 -20t-63.5 -74l-14 9q96 134 158 134z" />
    <glyph glyph-name="Uhungarumlaut" unicode="&#x170;" horiz-adv-x="616" 
d="M227 -8q-79 0 -123.5 36.5t-44.5 99.5q0 47 29 123l137 355q8 21 8 31q0 26 -34 26h-13v18h38q10 0 32.5 -1.5t37.5 -1.5t38 1.5t34 1.5h32v-18h-12q-30 0 -47.5 -14.5t-30.5 -48.5l-137 -354q-32 -82 -32 -129q0 -44 28 -69.5t82 -25.5q156 0 234 201l120 311
q21 55 21 79q0 50 -45 50h-8v18h32q6 0 29.5 -1.5t37.5 -1.5q16 0 35.5 1.5t24.5 1.5h31v-18h-14q-41 0 -69 -37t-52 -99l-120 -311q-86 -224 -279 -224zM417 729l-10 11q38 40 80.5 98t52.5 69q11 12 24 12q11 0 19.5 -8t8.5 -20q0 -11 -10 -23q-10 -10 -69 -54.5
t-96 -84.5zM527 729l-10 11q38 40 80.5 98t52.5 69q11 12 24 12q11 0 19.5 -8t8.5 -20q0 -11 -10 -23q-10 -10 -69 -54.5t-96 -84.5z" />
    <glyph glyph-name="uhungarumlaut" unicode="&#x171;" horiz-adv-x="551" 
d="M212 498q23 0 36.5 -14.5t13.5 -36.5q0 -33 -32 -99l-98 -201q-33 -68 -33 -87q0 -20 16 -20q11 0 31 22t71 91l245 337q7 0 22.5 -1t21.5 -1t20 1t21 1l-149 -358q-25 -58 -25 -72q0 -19 14 -19q13 0 34 21t62 73l14 -9q-95 -134 -158 -134q-23 0 -36.5 14.5t-13.5 36.5
q0 28 30 100l114 269l-199 -273q-62 -85 -95.5 -116t-68.5 -31q-27 0 -40.5 14.5t-13.5 36.5q0 38 35 108l101 205q27 56 27 76q0 17 -14 17q-13 0 -33.5 -20t-63.5 -74l-14 9q96 134 158 134zM291 540l-10 11q38 40 80.5 98t52.5 69q11 12 24 12q11 0 19.5 -8t8.5 -20
q0 -11 -10 -23q-10 -10 -69 -54.5t-96 -84.5zM401 540l-10 11q38 40 80.5 98t52.5 69q11 12 24 12q11 0 19.5 -8t8.5 -20q0 -11 -10 -23q-10 -10 -69 -54.5t-96 -84.5z" />
    <glyph glyph-name="Uogonek" unicode="&#x172;" horiz-adv-x="616" 
d="M155 -179q-27 0 -42 13t-15 33q0 38 44.5 71t103.5 55q-7 -1 -19 -1q-79 0 -123.5 36.5t-44.5 99.5q0 47 29 123l137 355q8 21 8 31q0 26 -34 26h-13v18h38q10 0 32.5 -1.5t37.5 -1.5t38 1.5t34 1.5h32v-18h-12q-30 0 -47.5 -14.5t-30.5 -48.5l-137 -354
q-32 -82 -32 -129q0 -44 28 -69.5t82 -25.5q156 0 234 201l120 311q21 55 21 79q0 50 -45 50h-8v18h32q6 0 29.5 -1.5t37.5 -1.5q16 0 35.5 1.5t24.5 1.5h31v-18h-14q-41 0 -69 -37t-52 -99l-120 -311q-67 -174 -206 -215q-56 -17 -96 -48t-40 -67q0 -32 36 -32q32 0 74 36
l10 -12q-66 -57 -129 -57z" />
    <glyph glyph-name="uogonek" unicode="&#x173;" horiz-adv-x="551" 
d="M192 -133q0 63 139 126q-42 6 -42 50q0 28 30 100l114 269l-199 -273q-62 -85 -95.5 -116t-68.5 -31q-27 0 -40.5 14.5t-13.5 36.5q0 38 35 108l101 205q27 56 27 76q0 17 -14 17q-13 0 -33.5 -20t-63.5 -74l-14 9q96 134 158 134q23 0 36.5 -14.5t13.5 -36.5
q0 -33 -32 -99l-98 -201q-33 -68 -33 -87q0 -20 16 -20q11 0 31 22t71 91l245 337q7 0 22.5 -1t21.5 -1t20 1t21 1l-149 -358q-25 -58 -25 -72q0 -19 14 -19q13 0 34 21t62 73l14 -9q-73 -104 -131 -130q-41 -17 -74.5 -46.5t-33.5 -63.5q0 -32 37 -32q30 0 74 36l9 -12
q-64 -57 -129 -57q-27 0 -42 13t-15 33z" />
    <glyph glyph-name="Wcircumflex" unicode="&#x174;" horiz-adv-x="929" 
d="M737 730l-14 -3q-21 67 -48 120q-111 -88 -148 -122l-11 12q68 69 131 146q29 34 43 34q26 0 29 -35q5 -77 18 -152zM617 0q-9 0 -21 1t-19 1q-8 0 -20.5 -1t-19.5 -1l20 493l-290 -418l-3 -75q-8 0 -20.5 1t-19.5 1q-8 0 -20.5 -1t-19.5 -1l25 600q3 63 -50 63h-3v18h34
q7 0 30 -1.5t37 -1.5q16 0 43 1.5t33 1.5h24v-18h-9q-25 -1 -42 -17t-18 -45l-22 -488l292 422l4 65q4 63 -50 63h-3v18h34q7 0 31.5 -1.5t38.5 -1.5q16 0 42 1.5t31 1.5h24v-18h-9q-26 -1 -42 -17t-17 -46l-23 -488l305 443q29 41 29 72q0 36 -41 36h-9v18h23q11 0 38 -1.5
t37 -1.5q9 0 37 1.5t36 1.5h21v-18h-6q-64 0 -146 -120l-324 -469z" />
    <glyph glyph-name="wcircumflex" unicode="&#x175;" horiz-adv-x="664" 
d="M563 541l-14 -3q-21 67 -48 120q-111 -88 -148 -122l-11 12q68 69 131 146q29 34 43 34q26 0 29 -35q5 -77 18 -152zM333 -9q-57 0 -66 70q-33 -32 -76.5 -51t-80.5 -19q-29 0 -49 16t-20 47q0 26 11 56.5t35 69t39.5 61.5t49.5 67t40 53l39 53q-13 -8 -35 -8
q-18 0 -52 10t-45 10q-15 0 -23.5 -10t-8.5 -22t7.5 -29t7.5 -30q0 -15 -8.5 -24.5t-20.5 -9.5q-29 0 -29 35q0 32 42 92q46 64 82 64q13 0 47.5 -11.5t55.5 -11.5q7 0 13.5 3t8.5 5t8.5 11.5t7.5 10.5l12 -8l-80 -123q-35 -54 -52.5 -83.5t-40 -83.5t-22.5 -92
q0 -54 53 -56q39 0 82 37q4 69 35.5 163t78 165.5t85.5 71.5q31 0 31 -37q0 -54 -45.5 -154t-116.5 -179q10 -70 62 -70q44 0 95 49.5t85 118t34 120.5q0 35 -10 71t-10 49q0 18 9.5 29t24.5 11q36 0 36 -69q0 -93 -50.5 -195.5t-127.5 -172t-148 -70.5zM446 399
q0 32 -20 32q-15 0 -37.5 -34t-41.5 -99t-19 -135q0 -13 1 -17q53 60 85 133.5t32 119.5z" />
    <glyph glyph-name="Ycircumflex" unicode="&#x176;" horiz-adv-x="584" 
d="M301 0h-37q-10 0 -32.5 1.5t-37.5 1.5t-38 -1.5t-33 -1.5h-33v18h13q30 0 47 14.5t30 48.5l95 245l-59 288q-6 28 -19.5 38.5t-39.5 10.5h-9v18h45q6 0 27.5 -1.5t37.5 -1.5t37 1.5t27 1.5h37v-18h-9q-53 0 -53 -36q0 -13 3 -24l53 -260l188 206q60 65 60 90q0 24 -31 24
h-8v18h19q16 0 40.5 -1.5t34.5 -1.5q11 0 38 1.5t35 1.5h25v-18h-7q-71 -1 -189 -130l-207 -227l-89 -231q-7 -20 -7 -31q0 -26 33 -26h13v-18zM574 730l-14 -3q-21 67 -48 120q-111 -88 -148 -122l-11 12q68 69 131 146q29 34 43 34q26 0 29 -35q5 -77 18 -152z" />
    <glyph glyph-name="ycircumflex" unicode="&#x177;" horiz-adv-x="447" 
d="M-217 -236q-49 0 -49 33q0 14 10 23t28 9q17 0 42.5 -9.5t47.5 -9.5q77 0 255 178l11 11q24 202 24 359q0 45 -4.5 67t-22.5 22q-13 0 -29.5 -21.5t-55.5 -82.5l-14 9q42 70 76 108t68 38q20 0 33 -11t18.5 -31.5t7.5 -40t2 -47.5q0 -120 -17 -281q111 125 149 186
t38 116q0 10 -3.5 34t-3.5 33q0 18 9 30t24 12q34 0 34 -38q0 -74 -56 -166t-193 -239l-7 -55q-5 0 -16 1t-15 1q-10 0 -14 -1l-27 -27q-97 -97 -182.5 -153.5t-167.5 -56.5zM417 541l-14 -3q-21 67 -48 120q-111 -88 -148 -122l-11 12q68 69 131 146q29 34 43 34
q26 0 29 -35q5 -77 18 -152z" />
    <glyph glyph-name="Ydieresis" unicode="&#x178;" horiz-adv-x="584" 
d="M301 0h-37q-10 0 -32.5 1.5t-37.5 1.5t-38 -1.5t-33 -1.5h-33v18h13q30 0 47 14.5t30 48.5l95 245l-59 288q-6 28 -19.5 38.5t-39.5 10.5h-9v18h45q6 0 27.5 -1.5t37.5 -1.5t37 1.5t27 1.5h37v-18h-9q-53 0 -53 -36q0 -13 3 -24l53 -260l188 206q60 65 60 90q0 24 -31 24
h-8v18h19q16 0 40.5 -1.5t34.5 -1.5q11 0 38 1.5t35 1.5h25v-18h-7q-71 -1 -189 -130l-207 -227l-89 -231q-7 -20 -7 -31q0 -26 33 -26h13v-18zM408 761q-20 0 -33 12.5t-13 33.5q0 20 13 33t33 13t33.5 -13t13.5 -33q0 -21 -13.5 -33.5t-33.5 -12.5zM580 761
q-20 0 -33 12.5t-13 33.5q0 20 13 33t33 13t33.5 -13t13.5 -33q0 -21 -13.5 -33.5t-33.5 -12.5z" />
    <glyph glyph-name="Zacute" unicode="&#x179;" horiz-adv-x="575" 
d="M460 726l-11 11q37 40 76 96t55 72q14 14 29 14q11 0 20 -8.5t9 -21.5q0 -15 -12 -27q-12 -11 -69.5 -53t-96.5 -83zM371 -33l-14 5q12 28 -19 28h-382v13l611 645h-161q-33 0 -53.5 -9t-52.5 -40q-19 -18 -61.5 -64.5t-76.5 -81.5l-13 9l145 242l14 -5q-12 -28 20 -28
h349v-13l-610 -645h193q34 0 52.5 7t48.5 37q31 30 155 165l13 -9z" />
    <glyph glyph-name="zacute" unicode="&#x17a;" horiz-adv-x="423" 
d="M270 537l-11 11q37 40 76 96t55 72q14 14 29 14q11 0 20 -8.5t9 -21.5q0 -15 -12 -27q-12 -11 -69.5 -53t-96.5 -83zM262 -7q-28 0 -60 18t-55.5 40t-49 40t-42.5 18q-33 0 -35 -40q0 -27 -1 -41q-4 -35 -33 -35q-32 0 -32 32q0 41 72 95l324 246q-29 -1 -91.5 24
t-96.5 25q-39 0 -39 -45q0 -29 24 -70l-13 -8q-36 50 -36 104q0 39 20.5 70t60.5 31q32 0 67.5 -28.5t66 -57t50.5 -28.5q15 0 24 9.5t9 25.5v21.5t1 20.5q2 37 32 37q14 0 22.5 -8.5t8.5 -22.5q0 -39 -75 -98l-316 -243q36 1 103.5 -23.5t100.5 -24.5q45 0 45 45
q0 31 -24 69l13 8q36 -50 36 -106q0 -44 -22.5 -72t-58.5 -28z" />
    <glyph glyph-name="Zdotaccent" unicode="&#x17b;" horiz-adv-x="575" 
d="M371 -33l-14 5q12 28 -19 28h-382v13l611 645h-161q-33 0 -53.5 -9t-52.5 -40q-19 -18 -61.5 -64.5t-76.5 -81.5l-13 9l145 242l14 -5q-12 -28 20 -28h349v-13l-610 -645h193q34 0 52.5 7t48.5 37q31 30 155 165l13 -9zM465 803q0 22 15 37t36 15t36.5 -15t15.5 -37
q0 -21 -15.5 -35.5t-36.5 -14.5t-36 14.5t-15 35.5z" />
    <glyph glyph-name="zdotaccent" unicode="&#x17c;" horiz-adv-x="423" 
d="M262 -7q-28 0 -60 18t-55.5 40t-49 40t-42.5 18q-33 0 -35 -40q0 -27 -1 -41q-4 -35 -33 -35q-32 0 -32 32q0 41 72 95l324 246q-29 -1 -91.5 24t-96.5 25q-39 0 -39 -45q0 -29 24 -70l-13 -8q-36 50 -36 104q0 39 20.5 70t60.5 31q32 0 67.5 -28.5t66 -57t50.5 -28.5
q15 0 24 9.5t9 25.5v21.5t1 20.5q2 37 32 37q14 0 22.5 -8.5t8.5 -22.5q0 -39 -75 -98l-316 -243q36 1 103.5 -23.5t100.5 -24.5q45 0 45 45q0 31 -24 69l13 8q36 -50 36 -106q0 -44 -22.5 -72t-58.5 -28zM279 624q0 22 15 37t36 15t36.5 -15t15.5 -37q0 -21 -15.5 -35.5
t-36.5 -14.5t-36 14.5t-15 35.5z" />
    <glyph glyph-name="Zcaron" unicode="&#x17d;" horiz-adv-x="575" 
d="M445 917l14 3q21 -67 48 -120q111 88 148 122l11 -12q-68 -69 -131 -146q-29 -34 -43 -34q-26 0 -29 35q-5 77 -18 152zM371 -33l-14 5q12 28 -19 28h-382v13l611 645h-161q-33 0 -53.5 -9t-52.5 -40q-19 -18 -61.5 -64.5t-76.5 -81.5l-13 9l145 242l14 -5
q-12 -28 20 -28h349v-13l-610 -645h193q34 0 52.5 7t48.5 37q31 30 155 165l13 -9z" />
    <glyph glyph-name="zcaron" unicode="&#x17e;" horiz-adv-x="423" 
d="M262 728l14 3q21 -67 48 -120q111 88 148 122l11 -12q-68 -69 -131 -146q-29 -34 -43 -34q-26 0 -29 35q-5 77 -18 152zM262 -7q-28 0 -60 18t-55.5 40t-49 40t-42.5 18q-33 0 -35 -40q0 -27 -1 -41q-4 -35 -33 -35q-32 0 -32 32q0 41 72 95l324 246q-29 -1 -91.5 24
t-96.5 25q-39 0 -39 -45q0 -29 24 -70l-13 -8q-36 50 -36 104q0 39 20.5 70t60.5 31q32 0 67.5 -28.5t66 -57t50.5 -28.5q15 0 24 9.5t9 25.5v21.5t1 20.5q2 37 32 37q14 0 22.5 -8.5t8.5 -22.5q0 -39 -75 -98l-316 -243q36 1 103.5 -23.5t100.5 -24.5q45 0 45 45
q0 31 -24 69l13 8q36 -50 36 -106q0 -44 -22.5 -72t-58.5 -28z" />
    <glyph glyph-name="florin" unicode="&#x192;" horiz-adv-x="397" 
d="M52 319v23h105l22 66q45 135 130 213t203 78q21 0 34 -9t13 -24t-11 -23t-27 -8q-14 0 -46.5 10.5t-49.5 10.5q-46 0 -73.5 -27.5t-55.5 -108.5q-50 -149 -61 -178h100v-23h-108l-66 -196q-58 -173 -156 -266t-208 -93q-20 0 -32.5 9t-12.5 24t11 23.5t27 8.5
q15 0 48 -10.5t50 -10.5q42 0 85 55.5t76 153.5l100 302h-97z" />
    <glyph glyph-name="uni01B5" unicode="&#x1b5;" horiz-adv-x="575" 
d="M371 -33l-14 5q12 28 -19 28h-382v13l304 321h-117v23h139l285 301h-161q-33 0 -53.5 -9t-52.5 -40q-19 -18 -61.5 -64.5t-76.5 -81.5l-13 9l145 242l14 -5q-12 -28 20 -28h349v-13l-294 -311h110v-23h-132l-294 -311h193q34 0 52.5 7t48.5 37q31 30 155 165l13 -9z" />
    <glyph glyph-name="uni01B6" unicode="&#x1b6;" horiz-adv-x="423" 
d="M273 77q45 0 45 45q0 31 -24 69l13 8q36 -50 36 -106q0 -44 -22.5 -72t-58.5 -28q-28 0 -60 18t-55.5 40t-49 40t-42.5 18q-33 0 -35 -40q0 -27 -1 -41q-4 -35 -33 -35q-32 0 -32 32q0 40 72 95l154 117h-85v20h112l143 109q-29 -1 -91.5 24t-96.5 25q-39 0 -39 -45
q0 -29 24 -70l-13 -8q-36 50 -36 104q0 39 20.5 70t60.5 31q32 0 67.5 -28.5t66 -57t50.5 -28.5q15 0 24 9.5t9 25.5v21.5t1 20.5q2 37 32 37q14 0 22.5 -8.5t8.5 -22.5q0 -39 -75 -98l-144 -111h85v-20h-112l-145 -112q36 1 103.5 -23.5t100.5 -24.5z" />
    <glyph glyph-name="Aringacute" unicode="&#x1fa;" horiz-adv-x="619" 
d="M533 0h-33q-7 0 -29.5 1.5t-36.5 1.5q-16 0 -43.5 -1.5t-33.5 -1.5h-23v18h9q25 1 41 18t17 44l3 102h-283l-41 -52q-33 -42 -34 -70q0 -42 45 -42h6v-18h-23q-12 0 -38.5 1.5t-37.5 1.5q-8 0 -36 -1.5t-37 -1.5h-21v18h10q32 0 65 29.5t83 95.5l347 464l-2 74
q9 0 23.5 -1t21.5 -1q8 0 20 1t19 1l-10 -601q-1 -32 11 -47t39 -15h2v-18zM404 205l5 365l-272 -365h267zM579 828q0 -37 -25 -62.5t-61 -25.5q-37 0 -61.5 25.5t-24.5 62.5q0 38 30 68q35 37 74.5 89.5t45.5 59.5q11 14 29 14q13 0 20.5 -8.5t7.5 -21.5q0 -15 -12 -25
q-12 -11 -56 -40t-71 -52q9 3 18 3q36 0 61 -25.5t25 -61.5zM554 828q0 27 -17 45.5t-44 18.5t-44 -18.5t-17 -45.5t17 -45.5t44 -18.5t44 18.5t17 45.5z" />
    <glyph glyph-name="aringacute" unicode="&#x1fb;" horiz-adv-x="523" 
d="M318 -8q-25 0 -38.5 14t-13.5 36q0 21 31 101l78 206l-152 -223q-47 -69 -81.5 -101.5t-69.5 -32.5q-27 0 -46 17t-19 54q0 43 24.5 115t63 144t93.5 124t108 52q32 0 57 -19.5t53 -55.5q36 13 57.5 30.5t35.5 46.5l14 -6l-139 -361q-24 -59 -24 -75q0 -17 14 -17
q23 0 96 94l14 -9q-96 -134 -156 -134zM114 41q25 0 90 96l186 273q-48 64 -84 64t-76 -52.5t-68.5 -121.5t-47.5 -134t-19 -93q0 -32 19 -32zM487 639q0 -37 -25 -62.5t-61 -25.5q-37 0 -61.5 25.5t-24.5 62.5q0 38 30 68q35 37 74.5 89.5t45.5 59.5q11 14 29 14
q13 0 20.5 -8.5t7.5 -21.5q0 -15 -12 -25q-12 -11 -56 -40t-71 -52q9 3 18 3q36 0 61 -25.5t25 -61.5zM462 639q0 27 -17 45.5t-44 18.5t-44 -18.5t-17 -45.5t17 -45.5t44 -18.5t44 18.5t17 45.5z" />
    <glyph glyph-name="AEacute" unicode="&#x1fc;" horiz-adv-x="943" 
d="M750 727l-11 11q37 40 76 96t55 72q14 14 29 14q11 0 20 -8.5t9 -21.5q0 -15 -12 -27q-12 -11 -69.5 -53t-96.5 -83zM735 681h187q39 0 42 30h15l3 -237l-16 -1q-9 32 -16.5 63t-12 49t-10.5 35q-7 21 -21.5 29.5t-42.5 8.5h-166l-117 -301h107q42 0 70.5 31t63.5 99
l15 -5l-109 -284l-16 4q17 53 17 82q0 50 -49 50h-107l-120 -311h174q33 0 53.5 9t52.5 39q14 14 145 150l13 -9l-151 -245l-14 5q12 28 -18 28h-236q-11 0 -32 0.5t-36 0.5q-14 0 -38 -0.5t-35 -0.5h-31v18h12q30 0 47 13.5t30 47.5l40 103h-288l-67 -64q-52 -51 -52 -73
q0 -27 36 -27h3v-18h-16q-13 0 -42.5 1.5t-42.5 1.5q-9 0 -37.5 -1.5t-37.5 -1.5h-24v18h4q66 0 184 111l513 484q24 23 24 34q0 16 -25 16h-9v18h46q10 0 30 -0.5t35 -0.5t38.5 0.5t34.5 0.5zM437 205l156 403l-428 -403h272z" />
    <glyph glyph-name="aeacute" unicode="&#x1fd;" horiz-adv-x="679" 
d="M430 537l-11 11q37 40 76 96t55 72q14 14 29 14q11 0 20 -8.5t9 -21.5q0 -15 -12 -27q-12 -11 -69.5 -53t-96.5 -83zM296 498q65 0 123 -82q86 82 165 82q45 0 74.5 -19t29.5 -51q0 -62 -93.5 -117.5t-207.5 -69.5q-16 -58 -16 -98q0 -98 66 -98q62 0 159 123l13 -10
q-116 -166 -218 -166q-47 0 -76 36t-29 94q0 57 27 126l-90 -122q-53 -72 -85 -103t-66 -31q-27 0 -46 17t-19 54q0 43 24.5 115t63 144t93.5 124t108 52zM204 137l144 191q49 65 55 72q-52 74 -97 74q-36 0 -76 -52.5t-68.5 -121.5t-47.5 -134t-19 -93q0 -32 19 -32
q3 0 7 1.5t8.5 5t8.5 7t9.5 10t9.5 11t11 13.5t11 14.5t12.5 16.5t12.5 17zM584 479q-58 0 -110.5 -63.5t-80.5 -153.5q86 10 155.5 70.5t69.5 112.5q0 34 -34 34z" />
    <glyph glyph-name="Oslashacute" unicode="&#x1fe;" horiz-adv-x="654" 
d="M249 -10q-86 0 -137 68l-117 -122l-18 19l120 126q-29 52 -29 125q0 75 30 159.5t81.5 157t129.5 120.5t164 48q89 0 140 -72l119 125l18 -19l-123 -129q28 -53 28 -121q0 -60 -18.5 -126.5t-55 -130t-85 -114.5t-113 -82.5t-134.5 -31.5zM136 141q0 -13 1 -19l444 464
q-11 38 -38.5 59.5t-66.5 21.5q-73 0 -140.5 -65t-109 -154.5t-66 -173.5t-24.5 -133zM246 14q60 0 116 43t95.5 108t69.5 138.5t45 136t15 100.5q0 9 -1 14l-443 -464q24 -76 103 -76zM474 726l-11 11q37 40 76 96t55 72q14 14 29 14q11 0 20 -8.5t9 -21.5q0 -15 -12 -27
q-12 -11 -69.5 -53t-96.5 -83z" />
    <glyph glyph-name="oslashacute" unicode="&#x1ff;" horiz-adv-x="469" 
d="M148 -8q-57 0 -94 50l-92 -97l-16 15l97 101q-17 32 -17 79t21.5 107t57.5 117t94 95.5t122 38.5q56 0 93 -50l94 99l16 -15l-99 -103q18 -34 18 -79q0 -47 -21.5 -107.5t-58 -117t-94 -95t-121.5 -38.5zM147 11q65 0 127 100q35 57 63.5 133t37.5 132l-284 -296v-2
q0 -31 15.5 -49t40.5 -18zM194 378q-34 -56 -62.5 -131.5t-37.5 -131.5l284 296q0 32 -15.5 49.5t-40.5 17.5q-67 0 -128 -100zM322 537l-11 11q37 40 76 96t55 72q14 14 29 14q11 0 20 -8.5t9 -21.5q0 -15 -12 -27q-12 -11 -69.5 -53t-96.5 -83z" />
    <glyph glyph-name="Scommaaccent" unicode="&#x218;" horiz-adv-x="526" 
d="M244 -117q0 -51 -38 -87t-85 -41l-2 15q34 4 62.5 25.5t40.5 56.5q-12 -10 -31 -10t-32.5 13.5t-13.5 32.5t14 33t35 14t35.5 -14t14.5 -38zM232 -10q-34 0 -81.5 14t-59.5 14q-26 0 -26 -26l-15 -2l-29 241l16 3q37 -122 85 -172.5t111 -50.5q58 0 95.5 36t37.5 95
q0 78 -82 168l-29 32q-72 78 -72 163q0 78 55 132t130 54q25 0 61 -8.5t46 -8.5q28 0 26 28l15 1l38 -217l-16 -3q-62 187 -171 187q-49 0 -82.5 -34t-33.5 -87q0 -71 67 -146l30 -34q50 -56 72.5 -94.5t22.5 -85.5q0 -84 -64.5 -141.5t-146.5 -57.5z" />
    <glyph glyph-name="scommaaccent" unicode="&#x219;" horiz-adv-x="379" 
d="M137 -117q0 -51 -38 -87t-85 -41l-2 15q34 4 62.5 25.5t40.5 56.5q-12 -10 -31 -10t-32.5 13.5t-13.5 32.5t14 33t35 14t35.5 -14t14.5 -38zM131 -8q-65 0 -107 34t-42 78q0 14 9.5 23.5t21.5 9.5q28 0 34 -37q14 -90 89 -90q40 0 66.5 28.5t26.5 63.5q0 42 -46 100
l-28 35q-56 68 -56 117q0 63 44 103.5t101 40.5q52 0 92.5 -27.5t40.5 -59.5q0 -13 -9.5 -21.5t-22.5 -8.5q-26 0 -35 36q-15 63 -69 63q-32 0 -55.5 -21.5t-23.5 -55.5q0 -27 12 -50.5t43 -61.5l31 -38q46 -58 46 -109q0 -66 -49.5 -109t-113.5 -43z" />
    <glyph glyph-name="uni021A" unicode="&#x21a;" horiz-adv-x="590" 
d="M207 -117q0 -51 -38 -87t-85 -41l-2 15q34 4 62.5 25.5t40.5 56.5q-12 -10 -31 -10t-32.5 13.5t-13.5 32.5t14 33t35 14t35.5 -14t14.5 -38zM306 0h-38q-10 0 -32 1.5t-37 1.5t-38.5 -1.5t-34.5 -1.5h-32v18h14q30 0 47 14.5t30 48.5l222 577h-75q-26 0 -40.5 -6
t-35.5 -30q-1 -1 -49 -58.5t-98 -114.5l-13 9l142 254l14 -5q-9 -26 20 -26h90q9 0 42.5 -0.5t52.5 -0.5q18 0 44.5 0.5t35.5 0.5h88q37 0 43 30l15 -2l-28 -258h-16q-15 141 -22 171q-4 22 -13.5 29t-33.5 7h-79l-223 -583q-8 -22 -8 -31q0 -26 34 -26h12v-18z" />
    <glyph glyph-name="uni021B" unicode="&#x21b;" horiz-adv-x="291" 
d="M59 -117q0 -51 -38 -87t-85 -41l-2 15q34 4 62.5 25.5t40.5 56.5q-12 -10 -31 -10t-32.5 13.5t-13.5 32.5t14 33t35 14t35.5 -14t14.5 -38zM62 -8q-25 0 -39 14.5t-14 35.5q0 25 33 106l128 321h-64v21h72l26 65q40 7 61 26t37 54l15 -5l-57 -140h104v-21h-112l-134 -335
q-24 -60 -24 -76q0 -17 14 -17q24 0 96 94l14 -9q-96 -134 -156 -134z" />
    <glyph glyph-name="dotlessj" unicode="&#x237;" horiz-adv-x="272" 
d="M258 448q0 -25 -29 -103l-88 -230q-65 -171 -158.5 -261t-204.5 -90q-21 0 -33 9t-12 24t11 23.5t28 8.5q14 0 46.5 -10.5t50.5 -10.5q41 0 83.5 56t77.5 154l121 340q3 7 10 26t10.5 29.5t3.5 18.5q0 17 -15 17q-21 0 -94 -94l-14 9q96 134 154 134q25 0 38.5 -14
t13.5 -36z" />
    <glyph glyph-name="circumflex" unicode="&#x2c6;" horiz-adv-x="332" 
d="M395 541l-14 -3q-21 67 -48 120q-111 -88 -148 -122l-11 12q68 69 131 146q29 34 43 34q26 0 29 -35q5 -77 18 -152z" />
    <glyph glyph-name="caron" unicode="&#x2c7;" horiz-adv-x="332" 
d="M244 728l14 3q21 -67 48 -120q111 88 148 122l11 -12q-68 -69 -131 -146q-29 -34 -43 -34q-26 0 -29 35q-5 77 -18 152z" />
    <glyph glyph-name="breve" unicode="&#x2d8;" horiz-adv-x="378" 
d="M319 566q-38 0 -58 38.5t-19 86.5l14 2q5 -70 83 -70q76 0 134 73l12 -10q-87 -120 -166 -120z" />
    <glyph glyph-name="dotaccent" unicode="&#x2d9;" horiz-adv-x="205" 
d="M201 624q0 22 15 37t36 15t36.5 -15t15.5 -37q0 -21 -15.5 -35.5t-36.5 -14.5t-36 14.5t-15 35.5z" />
    <glyph glyph-name="ring" unicode="&#x2da;" horiz-adv-x="264" 
d="M373 639q0 -37 -25 -62.5t-61 -25.5q-37 0 -61.5 25.5t-24.5 62.5q0 36 25 61.5t61 25.5t61 -25.5t25 -61.5zM348 639q0 27 -17 45.5t-44 18.5t-44 -18.5t-17 -45.5t17 -45.5t44 -18.5t44 18.5t17 45.5z" />
    <glyph glyph-name="ogonek" unicode="&#x2db;" horiz-adv-x="296" 
d="M78 0h26q-119 -57 -119 -114q0 -32 36 -32q31 0 75 36l9 -12q-64 -57 -129 -57q-27 0 -42 13t-15 33q0 22 16 43t46 39.5t48.5 28t48.5 22.5z" />
    <glyph glyph-name="tilde" unicode="&#x2dc;" horiz-adv-x="394" 
d="M389 585q-21 0 -55 21.5t-60 21.5q-11 0 -22 -9t-17.5 -18.5t-19.5 -30.5l-13 8q18 30 28.5 46t33 33.5t47.5 17.5q21 0 55 -21.5t60 -21.5q15 0 28 14t31 43l13 -8q-19 -32 -29 -46.5t-32.5 -32t-47.5 -17.5z" />
    <glyph glyph-name="hungarumlaut" unicode="&#x2dd;" horiz-adv-x="337" 
d="M179 540l-10 11q38 40 80.5 98t52.5 69q11 12 24 12q11 0 19.5 -8t8.5 -20q0 -11 -10 -23q-10 -10 -69 -54.5t-96 -84.5zM289 540l-10 11q38 40 80.5 98t52.5 69q11 12 24 12q11 0 19.5 -8t8.5 -20q0 -11 -10 -23q-10 -10 -69 -54.5t-96 -84.5z" />
    <glyph glyph-name="pi" unicode="&#x3c0;" horiz-adv-x="550" 
d="M580 490h19v-17h-11q-27 0 -43 -13t-28 -44l-131 -343q-7 -20 -7 -32q0 -24 31 -24h8v-17h-30q-10 0 -31.5 1.5t-35.5 1.5q-15 0 -37 -1.5t-32 -1.5h-25v17h10q27 0 43 13t28 44l151 396h-202l-151 -397q-7 -20 -7 -32q0 -24 29 -24h9v-17h-30q-10 0 -31.5 1.5t-36.5 1.5
q-14 0 -36 -1.5t-32 -1.5h-25v17h10q28 0 44 13t27 44l130 343q7 20 7 32q0 24 -30 24h-8v17h26q12 0 33.5 -0.5t38.5 -0.5q16 0 43.5 0.5t39.5 0.5h117q11 0 38.5 -0.5t43.5 -0.5t39 0.5t35 0.5z" />
    <glyph glyph-name="Wgrave" unicode="&#x1e80;" horiz-adv-x="929" 
d="M617 0q-9 0 -21 1t-19 1q-8 0 -20.5 -1t-19.5 -1l20 493l-290 -418l-3 -75q-8 0 -20.5 1t-19.5 1q-8 0 -20.5 -1t-19.5 -1l25 600q3 63 -50 63h-3v18h34q7 0 30 -1.5t37 -1.5q16 0 43 1.5t33 1.5h24v-18h-9q-25 -1 -42 -17t-18 -45l-22 -488l292 422l4 65q4 63 -50 63h-3
v18h34q7 0 31.5 -1.5t38.5 -1.5q16 0 42 1.5t31 1.5h24v-18h-9q-26 -1 -42 -17t-17 -46l-23 -488l305 443q29 41 29 72q0 36 -41 36h-9v18h23q11 0 38 -1.5t37 -1.5q9 0 37 1.5t36 1.5h21v-18h-6q-64 0 -146 -120l-324 -469zM675 729l-15 -4q-12 39 -37.5 91.5t-25.5 70.5
q0 13 9 22.5t22 9.5q26 0 31 -30q2 -14 4.5 -64.5t11.5 -95.5z" />
    <glyph glyph-name="wgrave" unicode="&#x1e81;" horiz-adv-x="664" 
d="M333 -9q-57 0 -66 70q-33 -32 -76.5 -51t-80.5 -19q-29 0 -49 16t-20 47q0 26 11 56.5t35 69t39.5 61.5t49.5 67t40 53l39 53q-13 -8 -35 -8q-18 0 -52 10t-45 10q-15 0 -23.5 -10t-8.5 -22t7.5 -29t7.5 -30q0 -15 -8.5 -24.5t-20.5 -9.5q-29 0 -29 35q0 32 42 92
q46 64 82 64q13 0 47.5 -11.5t55.5 -11.5q7 0 13.5 3t8.5 5t8.5 11.5t7.5 10.5l12 -8l-80 -123q-35 -54 -52.5 -83.5t-40 -83.5t-22.5 -92q0 -54 53 -56q39 0 82 37q4 69 35.5 163t78 165.5t85.5 71.5q31 0 31 -37q0 -54 -45.5 -154t-116.5 -179q10 -70 62 -70q44 0 95 49.5
t85 118t34 120.5q0 35 -10 71t-10 49q0 18 9.5 29t24.5 11q36 0 36 -69q0 -93 -50.5 -195.5t-127.5 -172t-148 -70.5zM446 399q0 32 -20 32q-15 0 -37.5 -34t-41.5 -99t-19 -135q0 -13 1 -17q53 60 85 133.5t32 119.5zM501 540l-15 -4q-12 39 -37.5 91.5t-25.5 70.5
q0 13 9 22.5t22 9.5q26 0 31 -30q2 -14 4.5 -64.5t11.5 -95.5z" />
    <glyph glyph-name="Wacute" unicode="&#x1e82;" horiz-adv-x="929" 
d="M602 726l-11 11q37 40 76 96t55 72q14 14 29 14q11 0 20 -8.5t9 -21.5q0 -15 -12 -27q-12 -11 -69.5 -53t-96.5 -83zM617 0q-9 0 -21 1t-19 1q-8 0 -20.5 -1t-19.5 -1l20 493l-290 -418l-3 -75q-8 0 -20.5 1t-19.5 1q-8 0 -20.5 -1t-19.5 -1l25 600q3 63 -50 63h-3v18h34
q7 0 30 -1.5t37 -1.5q16 0 43 1.5t33 1.5h24v-18h-9q-25 -1 -42 -17t-18 -45l-22 -488l292 422l4 65q4 63 -50 63h-3v18h34q7 0 31.5 -1.5t38.5 -1.5q16 0 42 1.5t31 1.5h24v-18h-9q-26 -1 -42 -17t-17 -46l-23 -488l305 443q29 41 29 72q0 36 -41 36h-9v18h23q11 0 38 -1.5
t37 -1.5q9 0 37 1.5t36 1.5h21v-18h-6q-64 0 -146 -120l-324 -469z" />
    <glyph glyph-name="wacute" unicode="&#x1e83;" horiz-adv-x="664" 
d="M428 537l-11 11q37 40 76 96t55 72q14 14 29 14q11 0 20 -8.5t9 -21.5q0 -15 -12 -27q-12 -11 -69.5 -53t-96.5 -83zM333 -9q-57 0 -66 70q-33 -32 -76.5 -51t-80.5 -19q-29 0 -49 16t-20 47q0 26 11 56.5t35 69t39.5 61.5t49.5 67t40 53l39 53q-13 -8 -35 -8
q-18 0 -52 10t-45 10q-15 0 -23.5 -10t-8.5 -22t7.5 -29t7.5 -30q0 -15 -8.5 -24.5t-20.5 -9.5q-29 0 -29 35q0 32 42 92q46 64 82 64q13 0 47.5 -11.5t55.5 -11.5q7 0 13.5 3t8.5 5t8.5 11.5t7.5 10.5l12 -8l-80 -123q-35 -54 -52.5 -83.5t-40 -83.5t-22.5 -92
q0 -54 53 -56q39 0 82 37q4 69 35.5 163t78 165.5t85.5 71.5q31 0 31 -37q0 -54 -45.5 -154t-116.5 -179q10 -70 62 -70q44 0 95 49.5t85 118t34 120.5q0 35 -10 71t-10 49q0 18 9.5 29t24.5 11q36 0 36 -69q0 -93 -50.5 -195.5t-127.5 -172t-148 -70.5zM446 399
q0 32 -20 32q-15 0 -37.5 -34t-41.5 -99t-19 -135q0 -13 1 -17q53 60 85 133.5t32 119.5z" />
    <glyph glyph-name="Wdieresis" unicode="&#x1e84;" horiz-adv-x="929" 
d="M571 761q-20 0 -33 12.5t-13 33.5q0 20 13 33t33 13t33.5 -13t13.5 -33q0 -21 -13.5 -33.5t-33.5 -12.5zM743 761q-20 0 -33 12.5t-13 33.5q0 20 13 33t33 13t33.5 -13t13.5 -33q0 -21 -13.5 -33.5t-33.5 -12.5zM617 0q-9 0 -21 1t-19 1q-8 0 -20.5 -1t-19.5 -1l20 493
l-290 -418l-3 -75q-8 0 -20.5 1t-19.5 1q-8 0 -20.5 -1t-19.5 -1l25 600q3 63 -50 63h-3v18h34q7 0 30 -1.5t37 -1.5q16 0 43 1.5t33 1.5h24v-18h-9q-25 -1 -42 -17t-18 -45l-22 -488l292 422l4 65q4 63 -50 63h-3v18h34q7 0 31.5 -1.5t38.5 -1.5q16 0 42 1.5t31 1.5h24v-18
h-9q-26 -1 -42 -17t-17 -46l-23 -488l305 443q29 41 29 72q0 36 -41 36h-9v18h23q11 0 38 -1.5t37 -1.5q9 0 37 1.5t36 1.5h21v-18h-6q-64 0 -146 -120l-324 -469z" />
    <glyph glyph-name="wdieresis" unicode="&#x1e85;" horiz-adv-x="664" 
d="M401 582q-20 0 -33 12.5t-13 33.5q0 20 13 33t33 13t33.5 -13t13.5 -33q0 -21 -13.5 -33.5t-33.5 -12.5zM573 582q-20 0 -33 12.5t-13 33.5q0 20 13 33t33 13t33.5 -13t13.5 -33q0 -21 -13.5 -33.5t-33.5 -12.5zM333 -9q-57 0 -66 70q-33 -32 -76.5 -51t-80.5 -19
q-29 0 -49 16t-20 47q0 26 11 56.5t35 69t39.5 61.5t49.5 67t40 53l39 53q-13 -8 -35 -8q-18 0 -52 10t-45 10q-15 0 -23.5 -10t-8.5 -22t7.5 -29t7.5 -30q0 -15 -8.5 -24.5t-20.5 -9.5q-29 0 -29 35q0 32 42 92q46 64 82 64q13 0 47.5 -11.5t55.5 -11.5q7 0 13.5 3t8.5 5
t8.5 11.5t7.5 10.5l12 -8l-80 -123q-35 -54 -52.5 -83.5t-40 -83.5t-22.5 -92q0 -54 53 -56q39 0 82 37q4 69 35.5 163t78 165.5t85.5 71.5q31 0 31 -37q0 -54 -45.5 -154t-116.5 -179q10 -70 62 -70q44 0 95 49.5t85 118t34 120.5q0 35 -10 71t-10 49q0 18 9.5 29t24.5 11
q36 0 36 -69q0 -93 -50.5 -195.5t-127.5 -172t-148 -70.5zM446 399q0 32 -20 32q-15 0 -37.5 -34t-41.5 -99t-19 -135q0 -13 1 -17q53 60 85 133.5t32 119.5z" />
    <glyph glyph-name="uni1E8A" unicode="&#x1e8a;" horiz-adv-x="618" 
d="M508 0h-44q-6 0 -28 1.5t-37 1.5t-37 -1.5t-29 -1.5h-36v18h10q52 0 52 42q0 3 -1 9.5t-2.5 16t-2.5 13.5l-39 205l-187 -180q-57 -54 -57 -79q0 -27 32 -27h8v-18h-19q-10 0 -37 1.5t-38 1.5q-7 0 -35.5 -1.5t-37.5 -1.5h-25v18h8q36 1 78.5 31.5t106.5 91.5l199 190
l-53 283q-5 28 -19 38.5t-40 10.5h-10v18h44q6 0 28.5 -1.5t38.5 -1.5q15 0 36 1.5t27 1.5h36v-18h-9q-53 0 -53 -39q0 -11 4 -33l39 -208l168 173q48 50 56 67q3 8 3 15q0 25 -32 25h-8v18h19q10 0 37 -1.5t38 -1.5q7 0 35.5 1.5t37.5 1.5h25v-18h-8q-65 -1 -187 -125
l-178 -183l54 -288q5 -28 19 -38.5t40 -10.5h10v-18zM457 803q0 22 15 37t36 15t36.5 -15t15.5 -37q0 -21 -15.5 -35.5t-36.5 -14.5t-36 14.5t-15 35.5z" />
    <glyph glyph-name="uni1E8B" unicode="&#x1e8b;" horiz-adv-x="492" 
d="M254 -8q-33 0 -52 20.5t-19 55.5q0 26 11 83q-35 -71 -82.5 -115t-90.5 -44q-30 0 -47.5 15t-17.5 40q0 21 9.5 40.5t30.5 39.5t36 32t45 33l8 -11q-34 -28 -52.5 -60.5t-18.5 -57.5q0 -34 33 -34q42 0 90.5 67t72.5 146q29 97 29 158q0 52 -32 52q-43 0 -119 -129l-14 8
q89 166 175 166q30 0 48.5 -20t18.5 -56q0 -33 -12 -83q32 70 78 114.5t89 44.5q24 0 40.5 -13.5t16.5 -37.5q0 -36 -27 -66.5t-80 -69.5l-8 11q28 22 45.5 52t17.5 52q0 18 -9 27.5t-22 9.5q-40 0 -87.5 -69.5t-69.5 -141.5q-27 -87 -27 -164q0 -50 35 -50q44 0 122 128
l14 -8q-87 -165 -178 -165zM334 624q0 22 15 37t36 15t36.5 -15t15.5 -37q0 -21 -15.5 -35.5t-36.5 -14.5t-36 14.5t-15 35.5z" />
    <glyph glyph-name="Ygrave" unicode="&#x1ef2;" horiz-adv-x="584" 
d="M301 0h-37q-10 0 -32.5 1.5t-37.5 1.5t-38 -1.5t-33 -1.5h-33v18h13q30 0 47 14.5t30 48.5l95 245l-59 288q-6 28 -19.5 38.5t-39.5 10.5h-9v18h45q6 0 27.5 -1.5t37.5 -1.5t37 1.5t27 1.5h37v-18h-9q-53 0 -53 -36q0 -13 3 -24l53 -260l188 206q60 65 60 90q0 24 -31 24
h-8v18h19q16 0 40.5 -1.5t34.5 -1.5q11 0 38 1.5t35 1.5h25v-18h-7q-71 -1 -189 -130l-207 -227l-89 -231q-7 -20 -7 -31q0 -26 33 -26h13v-18zM512 729l-15 -4q-12 39 -37.5 91.5t-25.5 70.5q0 13 9 22.5t22 9.5q26 0 31 -30q2 -14 4.5 -64.5t11.5 -95.5z" />
    <glyph glyph-name="ygrave" unicode="&#x1ef3;" horiz-adv-x="447" 
d="M-217 -236q-49 0 -49 33q0 14 10 23t28 9q17 0 42.5 -9.5t47.5 -9.5q77 0 255 178l11 11q24 202 24 359q0 45 -4.5 67t-22.5 22q-13 0 -29.5 -21.5t-55.5 -82.5l-14 9q42 70 76 108t68 38q20 0 33 -11t18.5 -31.5t7.5 -40t2 -47.5q0 -120 -17 -281q111 125 149 186
t38 116q0 10 -3.5 34t-3.5 33q0 18 9 30t24 12q34 0 34 -38q0 -74 -56 -166t-193 -239l-7 -55q-5 0 -16 1t-15 1q-10 0 -14 -1l-27 -27q-97 -97 -182.5 -153.5t-167.5 -56.5zM355 540l-15 -4q-12 39 -37.5 91.5t-25.5 70.5q0 13 9 22.5t22 9.5q26 0 31 -30q2 -14 4.5 -64.5
t11.5 -95.5z" />
    <glyph glyph-name="endash" unicode="&#x2013;" horiz-adv-x="486" 
d="M450 268h-380v26h380v-26z" />
    <glyph glyph-name="emdash" unicode="&#x2014;" horiz-adv-x="915" 
d="M878 268h-808v26h808v-26z" />
    <glyph glyph-name="quoteleft" unicode="&#x2018;" horiz-adv-x="196" 
d="M212 591q21 0 35 -15t14 -36t-15 -36.5t-38 -15.5t-39.5 16t-16.5 41q0 57 44.5 97.5t97.5 47.5l2 -17q-43 -7 -74.5 -33.5t-41.5 -62.5q14 14 32 14z" />
    <glyph glyph-name="quoteright" unicode="&#x2019;" horiz-adv-x="196" 
d="M233 588q-21 0 -35.5 14.5t-14.5 36.5q0 21 15.5 36t38.5 15t39 -15.5t16 -40.5q0 -58 -44 -98t-97 -47l-3 17q43 6 75 33t42 63q-14 -14 -32 -14z" />
    <glyph glyph-name="quotesinglbase" unicode="&#x201a;" horiz-adv-x="196" 
d="M8 -9q-21 0 -35.5 14.5t-14.5 35.5t15 36.5t39 15.5q23 0 39 -15.5t16 -40.5q0 -58 -44 -98.5t-97 -46.5l-3 16q43 7 75 34t42 63q-14 -14 -32 -14z" />
    <glyph glyph-name="quotedblleft" unicode="&#x201c;" horiz-adv-x="336" 
d="M212 591q21 0 35 -15t14 -36t-15 -36.5t-38 -15.5t-39.5 16t-16.5 41q0 57 44.5 97.5t97.5 47.5l2 -17q-43 -7 -74.5 -33.5t-41.5 -62.5q14 14 32 14zM352 591q21 0 35 -15t14 -36t-15 -36.5t-38 -15.5t-39.5 16t-16.5 41q0 57 44.5 97.5t97.5 47.5l2 -17
q-43 -7 -74.5 -33.5t-41.5 -62.5q14 14 32 14z" />
    <glyph glyph-name="quotedblright" unicode="&#x201d;" horiz-adv-x="336" 
d="M233 588q-21 0 -35.5 14.5t-14.5 36.5q0 21 15.5 36t38.5 15t39 -15.5t16 -40.5q0 -58 -44 -98t-97 -47l-3 17q43 6 75 33t42 63q-14 -14 -32 -14zM374 588q-21 0 -35.5 14.5t-14.5 36.5q0 21 15.5 36t38.5 15t39 -15.5t16 -40.5q0 -58 -44 -98t-97 -47l-3 17q43 6 75 33
t42 63q-14 -14 -32 -14z" />
    <glyph glyph-name="quotedblbase" unicode="&#x201e;" horiz-adv-x="336" 
d="M5 -9q-21 0 -35.5 14.5t-14.5 35.5t15.5 36.5t38.5 15.5t39 -15.5t16 -40.5q0 -58 -44 -98.5t-97 -46.5l-3 16q43 7 75 34t42 63q-14 -14 -32 -14zM146 -9q-21 0 -35.5 14.5t-14.5 35.5t15 36.5t39 15.5q23 0 39 -15.5t16 -40.5q0 -58 -44 -98.5t-97 -46.5l-3 16
q43 7 75 34t42 63q-14 -14 -32 -14z" />
    <glyph glyph-name="dagger" unicode="&#x2020;" horiz-adv-x="417" 
d="M431 407q-24 0 -63.5 32.5t-58.5 41.5q-10 -39 -11 -53q-2 -41 -1 -48q-72 -127 -161 -370l-16 6q90 246 117 386q9 8 28.5 37.5t27.5 46.5q-19 7 -61 9t-57 6q-33 9 -33 36q0 14 9.5 25.5t24.5 11.5q25 0 64.5 -31.5t58.5 -40.5q13 47 16.5 93.5t5.5 54.5q9 36 39 36
q17 0 29 -11.5t12 -28.5q0 -20 -34.5 -64.5t-51.5 -85.5q21 -7 61 -10t57 -7q14 -3 23 -12.5t9 -22.5q0 -15 -9 -26t-25 -11z" />
    <glyph glyph-name="daggerdbl" unicode="&#x2021;" horiz-adv-x="414" 
d="M362 687q17 0 28 -11t11 -28q0 -19 -10.5 -32t-30.5 -36.5t-35 -57.5q21 -7 63.5 -9t55.5 -6q33 -9 33 -35q0 -16 -10 -26.5t-26 -10.5q-8 0 -20 5q-12 6 -46.5 33t-54.5 35q-5 -19 -9 -76q-15 -15 -20 -21t-13 -20t-15 -33l-13 4q16 45 12 88q34 46 43 64q-20 7 -62 10
t-56 6q-34 9 -34 35q0 16 10 26.5t26 10.5q10 0 18 -4q14 -7 49.5 -35t54.5 -36q6 15 8.5 31.5t2.5 26.5t-1 27.5t-1 26.5q0 20 11.5 34t30.5 14zM181 176q-22 8 -64.5 10t-54.5 5q-33 9 -33 36q0 16 10 26.5t26 10.5q9 0 20 -6q10 -5 45.5 -32t55.5 -35q5 19 9 76
q14 14 19.5 20t13.5 20.5t15 33.5l13 -5q-16 -46 -12 -88q-31 -38 -43 -63q19 -6 61 -9.5t57 -7.5q34 -9 34 -35q0 -16 -10 -26.5t-26 -10.5q-9 0 -18 4q-14 6 -49.5 35t-54.5 37q-6 -15 -8.5 -31.5t-2.5 -27t1 -28t1 -26.5q0 -20 -11.5 -33.5t-30.5 -13.5q-16 0 -27.5 11
t-11.5 28q0 19 10.5 31.5t30.5 36t35 57.5z" />
    <glyph glyph-name="bullet" unicode="&#x2022;" horiz-adv-x="325" 
d="M203 261q-38 0 -64 25.5t-26 63.5t26 63.5t64 25.5t63.5 -25.5t25.5 -63.5t-25.5 -63.5t-63.5 -25.5z" />
    <glyph glyph-name="ellipsis" unicode="&#x2026;" horiz-adv-x="650" 
d="M35 -6q-23 0 -39.5 16t-16.5 39t16.5 39.5t39.5 16.5t39.5 -16.5t16.5 -39.5t-16.5 -39t-39.5 -16zM245 -6q-23 0 -39.5 16t-16.5 39t16.5 39.5t39.5 16.5t39.5 -16.5t16.5 -39.5t-16.5 -39t-39.5 -16zM455 -6q-23 0 -39.5 16t-16.5 39t16.5 39.5t39.5 16.5t39.5 -16.5
t16.5 -39.5t-16.5 -39t-39.5 -16z" />
    <glyph glyph-name="perthousand" unicode="&#x2030;" horiz-adv-x="948" 
d="M227 346q-43 0 -69.5 30.5t-26.5 78.5q0 77 60 155t146 78q43 0 70 -36q30 -42 80 -42q82 0 176 78l15 -14l-614 -690l-18 17l545 612q-52 -28 -103 -28q-43 0 -69 20q0 -1 0.5 -4.5t0.5 -4.5q0 -81 -59 -165.5t-134 -84.5zM402 -8q-43 0 -69.5 30.5t-26.5 78.5t25 100.5
t74 92.5t108 40q37 0 59.5 -25.5t22.5 -66.5q0 -81 -59 -165.5t-134 -84.5zM718 -8q-43 0 -70 30.5t-27 78.5t25 100.5t74 92.5t108 40q37 0 60 -25.5t23 -66.5q0 -81 -59 -165.5t-134 -84.5zM724 15q59 0 110 77t51 150q0 31 -15.5 50t-41.5 19q-38 0 -75 -50t-56.5 -107
t-19.5 -90q0 -49 47 -49zM408 15q59 0 110.5 77t51.5 150q0 31 -15.5 50t-41.5 19q-38 0 -75 -50.5t-57 -107.5t-20 -89q0 -49 47 -49zM233 369q59 0 110.5 77t51.5 150q0 31 -15.5 50t-42.5 19q-38 0 -74.5 -50.5t-56.5 -107.5t-20 -89q0 -49 47 -49z" />
    <glyph glyph-name="guilsinglleft" unicode="&#x2039;" horiz-adv-x="336" 
d="M333 443l12 -15q-39 -33 -79 -72.5t-76 -77.5t-37 -39q28 -109 53 -169l-17 -8q-15 29 -46 75.5t-54.5 78.5t-27.5 36q7 4 56.5 37.5t115 79.5t100.5 74z" />
    <glyph glyph-name="guilsinglright" unicode="&#x203a;" horiz-adv-x="336" 
d="M18 62l-12 15q39 33 79 72.5t76 77.5t37 39q-28 109 -53 169l17 8q15 -29 46 -75.5t54.5 -78.5t27.5 -36q-7 -4 -56.5 -37.5t-115 -79.5t-100.5 -74z" />
    <glyph glyph-name="fraction" unicode="&#x2044;" horiz-adv-x="84" 
d="M463 684l-745 -710l-17 19l745 710z" />
    <glyph glyph-name="uni2070" unicode="&#x2070;" 
d="M180 446q0 -40 32 -40q33 0 64 50q23 38 41 92t18 84q0 40 -32 40t-64 -49q-23 -37 -41 -92t-18 -85zM382 593q0 -72 -51 -138t-120 -66q-33 0 -55.5 26.5t-22.5 69.5q0 72 51.5 138t119.5 66q33 0 55.5 -26.5t22.5 -69.5z" />
    <glyph glyph-name="uni2074" unicode="&#x2074;" 
d="M297 397h-17q-5 0 -21 1.5t-31 1.5t-30 -1.5t-20 -1.5h-24v15h18q20 0 31 10t22 39l5 14h-109v13l191 193q4 0 13 -0.5t13 -0.5t12 0.5t13 0.5l-73 -190h4q14 0 29 13.5t47 51.5l10 -6l-43 -75h-53l-5 -14q-10 -27 -10 -34q0 -15 22 -15h6v-15zM146 491h90l57 149z" />
    <glyph glyph-name="uni2075" unicode="&#x2075;" 
d="M341 520q0 -51 -40 -91t-100 -40q-36 0 -58 18t-22 43q0 13 7.5 22.5t19.5 9.5q10 0 16 -6t6 -15q0 -6 -1 -14.5t-1 -13.5q0 -27 33 -27q48 0 76 77q14 37 14 59q0 24 -27 24q-36 0 -73 -37l-12 8l71 144h94q31 0 50 29l12 -6l-41 -68h-118l-36 -71q33 18 60 18
q31 0 50.5 -17t19.5 -46z" />
    <glyph glyph-name="uni2076" unicode="&#x2076;" 
d="M372 678q-100 -8 -153 -109q30 15 57 15q33 0 52 -19t19 -51q0 -45 -38 -85t-95 -40q-31 0 -53 25t-22 70q0 78 68.5 140.5t164.5 68.5v-15zM182 444q0 -38 34 -38q37 0 60 43.5t23 84.5q0 34 -32 34q-25 0 -58 -20q-27 -58 -27 -104z" />
    <glyph glyph-name="uni2077" unicode="&#x2077;" 
d="M194 389q-12 0 -20 7.5t-8 19.5q0 63 188 220h-103q-31 0 -56 -34l-11 7l60 101l11 -6q-4 -7 -4 -12q0 -11 17 -11h145v-12q-6 -5 -28 -25t-26.5 -23.5t-21 -19.5t-20 -20.5t-16.5 -19t-16.5 -22t-13 -22t-14.5 -27.5t-12 -30t-13 -37q-11 -34 -38 -34z" />
    <glyph glyph-name="uni2078" unicode="&#x2078;" 
d="M379 626q0 -24 -20.5 -44t-56.5 -30q40 -38 40 -72q0 -43 -33.5 -67t-73.5 -24q-42 0 -72.5 21t-30.5 54q0 30 25.5 54t68.5 37q-24 29 -24 59q0 34 28 54.5t65 20.5q34 0 59 -19t25 -44zM263 519l-26 25q-58 -28 -58 -81q0 -25 14 -41t44 -16q58 0 58 54q0 27 -32 59z
M271 582l21 -20q47 19 47 64q0 21 -12.5 34t-33.5 13q-22 0 -35.5 -12t-13.5 -31q0 -21 27 -48z" />
    <glyph glyph-name="uni2079" unicode="&#x2079;" 
d="M147 400q101 9 152 109q-30 -15 -56 -15q-33 0 -52 19t-19 51q0 45 38 85t94 40q31 0 53.5 -25t22.5 -70q0 -78 -68.5 -140.5t-164.5 -67.5v14zM337 634q0 38 -34 38q-37 0 -60 -43.5t-23 -84.5q0 -34 31 -34q23 0 59 21q27 60 27 103z" />
    <glyph glyph-name="parenleft.sups" unicode="&#x207d;" horiz-adv-x="184" 
d="M326 725l8 -13q-53 -39 -84 -79q-29 -38 -46 -90.5t-17 -101.5q0 -47 14 -83l-13 -7q-41 76 -41 143q0 135 179 231z" />
    <glyph glyph-name="parenright.sups" unicode="&#x207e;" horiz-adv-x="184" 
d="M90 351l-8 13q31 23 47.5 38t37.5 43q29 37 45.5 89t16.5 101q0 51 -14 84l14 6q40 -78 40 -143q0 -135 -179 -231z" />
    <glyph glyph-name="uni2080" unicode="&#x2080;" 
d="M26 49q0 -40 33 -40q34 0 66 54q22 37 39.5 90t17.5 82q0 40 -32 40q-34 0 -66 -52q-23 -37 -40.5 -91t-17.5 -83zM229 196q0 -72 -51.5 -138t-119.5 -66q-34 0 -56 26.5t-22 69.5q0 72 51 138t120 66q33 0 55.5 -26.5t22.5 -69.5z" />
    <glyph glyph-name="uni2081" unicode="&#x2081;" 
d="M130 0h-14q-10 0 -25 1.5t-29 1.5t-30.5 -1.5t-26.5 -1.5h-23v15h22q22 0 32.5 9.5t21.5 39.5l47 125q4 9 4 16q0 9 -8 9q-5 0 -37 -15l-7 15l18 9q88 44 114 82l13 -5l-90 -236q-10 -25 -10 -33q0 -16 24 -16h4v-15z" />
    <glyph glyph-name="uni2082" unicode="&#x2082;" 
d="M228 235q0 -18 -10.5 -36t-32.5 -37t-40 -32.5t-49 -34t-45 -30.5l-28 -20h134l-45 -80l-12 4q4 9 4 16q0 15 -21 15h-128v12l84 65q135 104 135 172q0 26 -25 26q-24 0 -50 -37q-18 -27 -33 -27q-8 0 -14.5 5.5t-6.5 14.5q0 24 37 42.5t74 18.5q28 0 50 -16t22 -41z" />
    <glyph glyph-name="uni2083" unicode="&#x2083;" 
d="M190 110q0 -48 -40 -83t-95 -35q-36 0 -58.5 20.5t-22.5 46.5q0 14 7.5 24t20.5 10q8 0 14.5 -6t6.5 -15q0 -6 -1.5 -16t-1.5 -15q0 -32 34 -32q45 0 72 70q16 39 16 56q0 16 -13 16q-7 0 -20 -6l-36 -17l-7 15l45 21q41 19 57 63q4 12 4 25q0 23 -23 23q-27 0 -49 -33
q-19 -31 -36 -31q-8 0 -14 6t-6 14q0 24 37 42.5t72 18.5q29 0 51.5 -15.5t22.5 -36.5q0 -48 -90 -77q23 -1 38 -15t15 -38z" />
    <glyph glyph-name="uni2084" unicode="&#x2084;" 
d="M144 0h-17q-5 0 -21 1.5t-31 1.5t-30 -1.5t-20 -1.5h-24v15h18q20 0 31 10t22 39l5 14h-109v13l191 193q5 0 13 -0.5t13 -0.5t13 0.5t12 0.5l-73 -190h4q14 0 29 13.5t47 51.5l10 -6l-43 -75h-53l-5 -14q-10 -27 -10 -34q0 -15 22 -15h6v-15zM-7 94h90l57 149z" />
    <glyph glyph-name="uni2085" unicode="&#x2085;" 
d="M187 123q0 -51 -40 -91t-100 -40q-36 0 -58 18t-22 43q0 13 7.5 22.5t19.5 9.5q10 0 16 -6t6 -15q0 -6 -1 -14.5t-1 -13.5q0 -27 33 -27q48 0 76 77q14 37 14 59q0 24 -27 24q-36 0 -73 -37l-12 8l71 144h94q31 0 50 29l12 -6l-41 -68h-118l-36 -71q33 18 60 18
q31 0 50.5 -17t19.5 -46z" />
    <glyph glyph-name="uni2086" unicode="&#x2086;" 
d="M219 281q-100 -8 -153 -109q30 15 56 15q33 0 52.5 -19t19.5 -51q0 -45 -38 -85t-95 -40q-31 0 -53 25t-22 70q0 78 68.5 140.5t164.5 68.5v-15zM28 47q0 -38 34 -38q37 0 60 43.5t23 84.5q0 34 -31 34q-25 0 -58 -20q-28 -60 -28 -104z" />
    <glyph glyph-name="uni2087" unicode="&#x2087;" 
d="M41 -8q-13 0 -20.5 8t-7.5 19q0 63 188 220h-103q-30 0 -56 -34l-11 7l60 101l11 -6q-4 -7 -4 -12q0 -11 17 -11h145v-12q-6 -5 -28 -25t-26.5 -23.5t-21 -19.5t-20 -20.5t-16.5 -19t-16.5 -22t-13 -22t-14.5 -27.5t-12 -30t-13 -37q-11 -34 -38 -34z" />
    <glyph glyph-name="uni2088" unicode="&#x2088;" 
d="M225 229q0 -24 -20.5 -44t-56.5 -30q40 -38 40 -72q0 -43 -33.5 -67t-73.5 -24q-42 0 -73 21t-31 54q0 29 26 53.5t69 37.5q-24 27 -24 59q0 34 28 54.5t65 20.5q34 0 59 -19t25 -44zM109 122l-26 25q-58 -28 -58 -81q0 -25 14 -41t44 -16q58 0 58 54q0 27 -32 59z
M117 185l20 -20q48 19 48 64q0 21 -12.5 34t-33.5 13q-22 0 -35.5 -12t-13.5 -31q0 -21 27 -48z" />
    <glyph glyph-name="uni2089" unicode="&#x2089;" 
d="M-8 3q102 8 153 109q-30 -15 -56 -15q-33 0 -52 19t-19 51q0 45 38 85t94 40q31 0 53.5 -25t22.5 -70q0 -78 -69 -140.5t-165 -67.5v14zM183 237q0 38 -34 38q-35 0 -59 -44.5t-24 -83.5q0 -34 31 -34q23 0 58 21q28 58 28 103z" />
    <glyph glyph-name="Euro" unicode="&#x20ac;" horiz-adv-x="596" 
d="M483 120q0 -42 -71 -86t-145 -44q-77 0 -119 57.5t-42 139.5q0 36 8 79h-84v26h89q9 42 30 95h-72v26h82q53 119 140 198.5t190 79.5q64 0 109.5 -44t45.5 -98q0 -45 -39 -45q-15 0 -25 10t-10 25q0 10 2 29t2 27q0 32 -20.5 53t-59.5 21q-132 0 -243 -256h226v-26h-238
q-18 -43 -35 -95h226v-26h-234q-27 -97 -27 -147q0 -47 24.5 -77t69.5 -30q46 0 75.5 22t54.5 67q2 3 7.5 14t8.5 16t9 12t13 10t15 3q15 0 26 -10t11 -26z" />
    <glyph glyph-name="trademark" unicode="&#x2122;" horiz-adv-x="766" 
d="M818 394h-17q-7 0 -20.5 1t-21.5 1t-22 -1t-20 -1h-17v18h2q20 0 26 5.5t6 20.5v192l-86 -200l16 -36q-6 0 -15 0.5t-13 0.5q-2 0 -12 -0.5t-15 -0.5l-101 232v-171q0 -22 8.5 -32.5t31.5 -10.5h2v-18h-10q-3 0 -19 1t-24 1t-24 -1t-19 -1h-7v18h2q21 0 28.5 10.5
t7.5 32.5v174q0 33 -32 34h-3v18q11 0 28.5 -0.5t21.5 -0.5q7 0 20 0.5t19 0.5l95 -224l97 224q3 0 14 -0.5t15 -0.5q8 0 21 0.5t20 0.5h17v-18h-3q-19 0 -25 -5.5t-6 -19.5v-200q0 -15 6 -20.5t25 -5.5h3v-18zM268 659h-29q-17 0 -31 -15q-8 -8 -44 -65l-14 7l37 111l14 -3
q0 -13 18 -13h27q3 0 21 -0.5t26 -0.5q9 0 27 0.5t20 0.5h28q18 0 18 13l14 3l37 -111l-14 -7q-36 57 -44 65q-14 15 -31 15h-29v-221q0 -16 5.5 -21t25.5 -5h3v-18h-10q-5 0 -23 1t-27 1q-8 0 -25.5 -1t-23.5 -1h-9v18h3q19 0 24.5 5t5.5 21v221z" />
    <glyph glyph-name="Omega" unicode="&#x2126;" horiz-adv-x="675" 
d="M134 23h62l25 65q-47 24 -81 81.5t-34 141.5q0 87 48.5 174.5t134 146.5t181.5 59q91 0 142.5 -62.5t51.5 -155.5q0 -138 -98 -253t-234 -144l-19 -53h66q32 0 52.5 8.5t52.5 38.5q39 37 146 152l13 -10l-151 -245l-14 5q10 28 -19 28h-179l36 95q71 13 137.5 91.5
t103.5 175.5t37 175q0 130 -120 130q-61 0 -119 -48.5t-96.5 -118.5t-61.5 -143t-23 -125q0 -48 21 -85t54 -48l-37 -99h-140q-37 0 -43 -31l-14 2l24 244h15q16 -111 26 -155q6 -23 16.5 -30t37.5 -7z" />
    <glyph glyph-name="uni2153" unicode="&#x2153;" horiz-adv-x="373" 
d="M91 352h272v-22h-272v22zM239 110q0 -48 -40 -83t-95 -35q-36 0 -58.5 20.5t-22.5 46.5q0 14 7.5 24t20.5 10q8 0 14.5 -6t6.5 -15q0 -6 -1.5 -16t-1.5 -15q0 -32 34 -32q45 0 72 70q16 39 16 56q0 16 -13 16q-6 0 -20 -6l-36 -17l-7 15l45 21q41 19 57 63q4 12 4 25
q0 23 -23 23q-27 0 -49 -33q-19 -31 -36 -31q-8 0 -14 6t-6 14q0 24 37 42.5t72 18.5q29 0 51.5 -15.5t22.5 -36.5q0 -48 -90 -77q23 -1 38 -15t15 -38zM316 397h-14q-10 0 -25 1.5t-29 1.5t-30.5 -1.5t-26.5 -1.5h-23v15h22q22 0 32.5 9.5t21.5 39.5l47 125q4 9 4 16
q0 9 -8 9q-5 0 -37 -15l-7 15l18 9q88 44 114 82l13 -5l-90 -236q-10 -25 -10 -33q0 -16 24 -16h4v-15z" />
    <glyph glyph-name="uni2154" unicode="&#x2154;" horiz-adv-x="373" 
d="M91 352h272v-22h-272v22zM239 110q0 -48 -40 -83t-95 -35q-36 0 -58.5 20.5t-22.5 46.5q0 14 7.5 24t20.5 10q8 0 14.5 -6t6.5 -15q0 -6 -1.5 -16t-1.5 -15q0 -32 34 -32q45 0 72 70q16 39 16 56q0 16 -13 16q-6 0 -20 -6l-36 -17l-7 15l45 21q41 19 57 63q4 12 4 25
q0 23 -23 23q-27 0 -49 -33q-19 -31 -36 -31q-8 0 -14 6t-6 14q0 24 37 42.5t72 18.5q29 0 51.5 -15.5t22.5 -36.5q0 -48 -90 -77q23 -1 38 -15t15 -38zM431 632q0 -18 -10.5 -36t-32.5 -37t-40 -32.5t-49 -34t-45 -30.5l-28 -20h134l-45 -80l-12 4q4 9 4 16q0 15 -21 15
h-128v12l84 65q135 104 135 172q0 26 -25 26q-24 0 -50 -37q-18 -27 -33 -27q-8 0 -14.5 5.5t-6.5 14.5q0 24 37 42.5t74 18.5q28 0 50 -16t22 -41z" />
    <glyph glyph-name="uni2155" unicode="&#x2155;" horiz-adv-x="373" 
d="M91 352h272v-22h-272v22zM316 397h-14q-10 0 -25 1.5t-29 1.5t-30.5 -1.5t-26.5 -1.5h-23v15h22q22 0 32.5 9.5t21.5 39.5l47 125q4 9 4 16q0 9 -8 9q-5 0 -37 -15l-7 15l18 9q88 44 114 82l13 -5l-90 -236q-10 -25 -10 -33q0 -16 24 -16h4v-15zM232 123q0 -51 -40 -91
t-100 -40q-36 0 -58 18t-22 43q0 13 7.5 22.5t19.5 9.5q10 0 16 -6t6 -15q0 -6 -1 -14.5t-1 -13.5q0 -27 33 -27q48 0 76 77q14 37 14 59q0 24 -27 24q-36 0 -73 -37l-12 8l71 144h94q31 0 50 29l12 -6l-41 -68h-118l-36 -71q33 18 60 18q31 0 50.5 -17t19.5 -46z" />
    <glyph glyph-name="uni2156" unicode="&#x2156;" horiz-adv-x="373" 
d="M91 352h272v-22h-272v22zM431 632q0 -18 -10.5 -36t-32.5 -37t-40 -32.5t-49 -34t-45 -30.5l-28 -20h134l-45 -80l-12 4q4 9 4 16q0 15 -21 15h-128v12l84 65q135 104 135 172q0 26 -25 26q-24 0 -50 -37q-18 -27 -33 -27q-8 0 -14.5 5.5t-6.5 14.5q0 24 37 42.5t74 18.5
q28 0 50 -16t22 -41zM232 123q0 -51 -40 -91t-100 -40q-36 0 -58 18t-22 43q0 13 7.5 22.5t19.5 9.5q10 0 16 -6t6 -15q0 -6 -1 -14.5t-1 -13.5q0 -27 33 -27q48 0 76 77q14 37 14 59q0 24 -27 24q-36 0 -73 -37l-12 8l71 144h94q31 0 50 29l12 -6l-41 -68h-118l-36 -71
q33 18 60 18q31 0 50.5 -17t19.5 -46z" />
    </font>
</defs>
</svg>
